%FSTAX23Y23*%
%MOIN*%
%SFA1B1*%

%IPPOS*%
%ADD15C,0.047244*%
%ADD16R,0.047244X0.047244*%
%ADD22C,0.055118*%
%ADD23R,0.039370X0.039370*%
%ADD24C,0.039370*%
%ADD25C,0.059055*%
%ADD26R,0.059055X0.059055*%
%ADD27R,0.059055X0.059055*%
%LNntc-1*%
%LPD*%
G54D15*
X02564Y02835D03*
Y02935D03*
X037Y02975D03*
X038Y02775D03*
X03405Y0329D03*
Y0319D03*
G54D16*
X02564Y03035D03*
X038Y03275D03*
X03405Y0309D03*
G54D22*
X0359Y0291D03*
Y0261D03*
X02635Y03495D03*
Y03195D03*
X03325Y0291D03*
Y0261D03*
X02505Y0349D03*
Y0319D03*
X0276Y032D03*
Y029D03*
X0325Y0337D03*
Y0307D03*
X0356Y03365D03*
Y03065D03*
X0346Y0261D03*
Y0291D03*
G54D23*
X0258Y02645D03*
G54D24*
X0263Y02645D03*
G54D25*
X0315Y02735D03*
Y02835D03*
Y02935D03*
Y03035D03*
Y03135D03*
Y03235D03*
Y03335D03*
X0285Y02735D03*
Y02835D03*
Y02935D03*
Y03035D03*
Y03135D03*
Y03235D03*
X03745Y0379D03*
X03645D03*
X03545D03*
X03445D03*
X03345D03*
X03245D03*
X03145D03*
X03745Y0349D03*
X03645D03*
X03545D03*
X03445D03*
X03345D03*
X03245D03*
X02565Y03665D03*
X02665D03*
X02765D03*
G54D26*
X0285Y03335D03*
X02865Y03665D03*
G54D27*
X03145Y0349D03*
M02*