%FSTAX23Y23*%
%MOIN*%
%SFA1B1*%

%IPPOS*%
%ADD26C,0.006693*%
%LNntc-1*%
%LPD*%
G36*
X04211Y02903D02*
Y02902D01*
X04211*
Y02902*
Y02902*
X04211*
Y02902*
Y02901*
Y02901*
X0421*
Y02901*
Y029*
Y029*
X0421*
Y029*
Y029*
X0421*
Y02899*
Y02899*
Y02899*
X0421*
Y02899*
Y02898*
X04209*
Y02898*
Y02898*
Y02897*
X04209*
Y02897*
Y02897*
X04209*
Y02897*
Y02896*
Y02896*
X04209*
Y02896*
Y02896*
X04208*
Y02895*
Y02895*
Y02895*
X04208*
Y02894*
Y02894*
X04208*
Y02894*
Y02894*
Y02893*
X04207*
Y02893*
Y02893*
X04207*
Y02893*
Y02892*
Y02892*
X04207*
Y02892*
Y02891*
X04205*
Y02892*
Y02892*
Y02892*
X04204*
Y02893*
Y02893*
X04204*
Y02893*
Y02893*
Y02894*
X04204*
Y02894*
Y02894*
Y02894*
X04204*
Y02895*
Y02895*
X04203*
Y02895*
Y02896*
Y02896*
X04203*
Y02896*
Y02896*
Y02897*
X04203*
Y02897*
Y02897*
X04203*
Y02897*
Y02898*
Y02898*
X04202*
Y02898*
Y02899*
Y02899*
X04202*
Y02899*
Y02899*
X04202*
Y029*
Y029*
Y029*
X04201*
Y029*
Y02901*
Y02901*
X04201*
Y02901*
Y02902*
X04201*
Y02902*
Y02902*
Y02902*
X04201*
Y02903*
Y02903*
X04203*
Y02903*
Y02902*
X04203*
Y02902*
Y02902*
Y02902*
X04203*
Y02901*
Y02901*
Y02901*
X04203*
Y029*
Y029*
Y029*
X04204*
Y029*
X04208*
Y029*
X04208*
Y029*
X04209*
Y029*
Y02901*
Y02901*
X04209*
Y02901*
Y02902*
Y02902*
X04209*
Y02902*
Y02902*
X04209*
Y02903*
Y02903*
X04211*
Y02903*
G37*
G36*
X04173D02*
X04173D01*
Y02902*
Y02902*
X04172*
Y02902*
X04172*
Y02902*
Y02901*
X04172*
Y02901*
X04171*
Y02901*
Y029*
X04171*
Y029*
X04171*
Y029*
Y029*
X04171*
Y02899*
X0417*
Y02899*
Y02899*
X0417*
Y02899*
X0417*
Y02898*
X04169*
Y02898*
Y02898*
X0417*
Y02897*
X0417*
Y02897*
X04171*
Y02897*
X04171*
Y02897*
X04171*
Y02896*
X04172*
Y02896*
Y02896*
Y02896*
X04172*
Y02895*
Y02895*
Y02895*
Y02894*
Y02894*
Y02894*
Y02894*
X04172*
Y02893*
Y02893*
Y02893*
X04171*
Y02893*
X04171*
Y02892*
X04171*
Y02892*
X0417*
Y02892*
X0417*
Y02891*
X04163*
Y02892*
Y02892*
Y02892*
Y02893*
Y02893*
Y02893*
Y02893*
Y02894*
Y02894*
Y02894*
Y02894*
Y02895*
Y02895*
Y02895*
Y02896*
Y02896*
Y02896*
Y02896*
Y02897*
Y02897*
Y02897*
Y02897*
Y02898*
Y02898*
Y02898*
Y02899*
Y02899*
Y02899*
Y02899*
Y029*
Y029*
Y029*
Y029*
Y02901*
Y02901*
Y02901*
Y02902*
Y02902*
Y02902*
Y02902*
Y02903*
Y02903*
X04165*
Y02903*
Y02902*
Y02902*
Y02902*
Y02902*
Y02901*
Y02901*
Y02901*
Y029*
Y029*
Y029*
Y029*
Y02899*
Y02899*
Y02899*
Y02899*
Y02898*
Y02898*
X04167*
Y02898*
X04168*
Y02899*
X04168*
Y02899*
X04168*
Y02899*
Y02899*
X04168*
Y029*
X04169*
Y029*
Y029*
X04169*
Y029*
X04169*
Y02901*
Y02901*
X0417*
Y02901*
X0417*
Y02902*
Y02902*
X0417*
Y02902*
X0417*
Y02902*
Y02903*
X04171*
Y02903*
X04173*
Y02903*
G37*
G36*
X04134D02*
Y02902D01*
Y02902*
Y02902*
Y02902*
Y02901*
Y02901*
Y02901*
Y029*
Y029*
Y029*
Y029*
Y02899*
Y02899*
Y02899*
Y02899*
Y02898*
Y02898*
Y02898*
Y02897*
Y02897*
Y02897*
Y02897*
Y02896*
Y02896*
Y02896*
Y02896*
Y02895*
Y02895*
Y02895*
Y02894*
Y02894*
Y02894*
Y02894*
Y02893*
Y02893*
Y02893*
Y02893*
Y02892*
Y02892*
Y02892*
Y02891*
X04132*
Y02892*
Y02892*
Y02892*
Y02893*
Y02893*
Y02893*
Y02893*
Y02894*
Y02894*
Y02894*
Y02894*
Y02895*
Y02895*
Y02895*
Y02896*
Y02896*
Y02896*
Y02896*
Y02897*
Y02897*
Y02897*
Y02897*
Y02898*
Y02898*
Y02898*
Y02899*
Y02899*
Y02899*
Y02899*
Y029*
X04131*
Y02899*
Y02899*
X04131*
Y02899*
Y02899*
X04131*
Y02898*
X04131*
Y02898*
Y02898*
X0413*
Y02897*
X0413*
Y02897*
Y02897*
X0413*
Y02897*
X04129*
Y02896*
Y02896*
X04129*
Y02896*
X04129*
Y02896*
Y02895*
X04129*
Y02895*
Y02895*
X04128*
Y02894*
X04128*
Y02894*
Y02894*
X04128*
Y02894*
X04128*
Y02893*
Y02893*
X04127*
Y02893*
X04127*
Y02893*
Y02892*
X04127*
Y02892*
Y02892*
X04126*
Y02891*
X04125*
Y02892*
Y02892*
Y02892*
Y02893*
Y02893*
Y02893*
Y02893*
Y02894*
Y02894*
Y02894*
Y02894*
Y02895*
Y02895*
Y02895*
Y02896*
Y02896*
Y02896*
Y02896*
Y02897*
Y02897*
Y02897*
Y02897*
Y02898*
Y02898*
Y02898*
Y02899*
Y02899*
Y02899*
Y02899*
Y029*
Y029*
Y029*
Y029*
Y02901*
Y02901*
Y02901*
Y02902*
Y02902*
Y02902*
Y02902*
Y02903*
Y02903*
X04126*
Y02903*
Y02902*
Y02902*
Y02902*
Y02902*
Y02901*
Y02901*
Y02901*
Y029*
Y029*
Y029*
Y029*
Y02899*
Y02899*
Y02899*
Y02899*
Y02898*
Y02898*
Y02898*
Y02897*
Y02897*
Y02897*
Y02897*
Y02896*
Y02896*
Y02896*
Y02896*
Y02895*
Y02895*
Y02895*
X04126*
Y02895*
X04127*
Y02895*
X04127*
Y02896*
Y02896*
X04127*
Y02896*
X04128*
Y02896*
Y02897*
X04128*
Y02897*
X04128*
Y02897*
Y02897*
X04128*
Y02898*
Y02898*
X04129*
Y02898*
X04129*
Y02899*
Y02899*
X04129*
Y02899*
X04129*
Y02899*
Y029*
X0413*
Y029*
X0413*
Y029*
Y029*
X0413*
Y02901*
X04131*
Y02901*
Y02901*
X04131*
Y02902*
Y02902*
X04131*
Y02902*
X04131*
Y02902*
Y02903*
X04132*
Y02903*
X04134*
Y02903*
G37*
G36*
X04219D02*
X0422D01*
Y02902*
X0422*
Y02902*
X04221*
Y02902*
X04221*
Y02902*
Y02901*
X04221*
Y02901*
X04222*
Y02901*
Y029*
X04222*
Y029*
Y029*
X04222*
Y029*
Y02899*
Y02899*
Y02899*
X04222*
Y02899*
Y02898*
Y02898*
Y02898*
Y02897*
Y02897*
Y02897*
Y02897*
Y02896*
Y02896*
Y02896*
Y02896*
X04222*
Y02895*
Y02895*
Y02895*
Y02894*
X04222*
Y02894*
Y02894*
X04222*
Y02894*
Y02893*
X04221*
Y02893*
X04221*
Y02893*
X04221*
Y02893*
X0422*
Y02892*
X0422*
Y02892*
X04219*
Y02892*
X04218*
Y02891*
X04213*
Y02892*
Y02892*
Y02892*
Y02893*
Y02893*
Y02893*
Y02893*
Y02894*
Y02894*
Y02894*
Y02894*
Y02895*
Y02895*
Y02895*
Y02896*
Y02896*
Y02896*
Y02896*
Y02897*
Y02897*
Y02897*
Y02897*
Y02898*
Y02898*
Y02898*
Y02899*
Y02899*
Y02899*
Y02899*
Y029*
Y029*
Y029*
Y029*
Y02901*
Y02901*
Y02901*
Y02902*
Y02902*
Y02902*
Y02902*
Y02903*
Y02903*
X04219*
Y02903*
G37*
G36*
X04196D02*
X04197D01*
Y02902*
X04198*
Y02902*
X04198*
Y02902*
X04198*
Y02902*
X04198*
Y02901*
X04199*
Y02901*
Y02901*
X04199*
Y029*
Y029*
X04199*
Y029*
Y029*
Y02899*
X042*
Y02899*
Y02899*
Y02899*
Y02898*
Y02898*
Y02898*
Y02897*
Y02897*
Y02897*
Y02897*
Y02896*
Y02896*
Y02896*
Y02896*
Y02895*
Y02895*
X04199*
Y02895*
Y02894*
Y02894*
X04199*
Y02894*
Y02894*
X04199*
Y02893*
X04198*
Y02893*
Y02893*
X04198*
Y02893*
X04198*
Y02892*
X04197*
Y02892*
X04197*
Y02892*
X04196*
Y02891*
X0419*
Y02892*
Y02892*
Y02892*
Y02893*
Y02893*
Y02893*
Y02893*
Y02894*
Y02894*
Y02894*
Y02894*
Y02895*
Y02895*
Y02895*
Y02896*
Y02896*
Y02896*
Y02896*
Y02897*
Y02897*
Y02897*
Y02897*
Y02898*
Y02898*
Y02898*
Y02899*
Y02899*
Y02899*
Y02899*
Y029*
Y029*
Y029*
Y029*
Y02901*
Y02901*
Y02901*
Y02902*
Y02902*
Y02902*
Y02902*
Y02903*
Y02903*
X04196*
Y02903*
G37*
G36*
X04187D02*
Y02902D01*
Y02902*
Y02902*
Y02902*
Y02901*
Y02901*
Y02901*
Y029*
Y029*
Y029*
Y029*
Y02899*
Y02899*
Y02899*
Y02899*
Y02898*
Y02898*
Y02898*
Y02897*
Y02897*
Y02897*
Y02897*
Y02896*
Y02896*
Y02896*
Y02896*
Y02895*
Y02895*
Y02895*
Y02894*
Y02894*
Y02894*
Y02894*
Y02893*
Y02893*
Y02893*
Y02893*
Y02892*
Y02892*
Y02892*
X04187*
Y02891*
X04185*
Y02892*
Y02892*
Y02892*
Y02893*
Y02893*
Y02893*
Y02893*
Y02894*
Y02894*
Y02894*
Y02894*
Y02895*
Y02895*
Y02895*
Y02896*
Y02896*
Y02896*
Y02896*
Y02897*
Y02897*
Y02897*
Y02897*
Y02898*
Y02898*
Y02898*
Y02899*
Y02899*
Y02899*
Y02899*
Y029*
Y029*
Y029*
Y029*
Y02901*
Y02901*
Y02901*
Y02902*
Y02902*
Y02902*
Y02902*
Y02903*
Y02903*
X04187*
Y02903*
G37*
G36*
X04161D02*
Y02902D01*
Y02902*
Y02902*
Y02902*
X0416*
Y02901*
X04154*
Y02901*
Y02901*
Y029*
Y029*
Y029*
Y029*
Y02899*
Y02899*
Y02899*
Y02899*
Y02898*
Y02898*
X0416*
Y02898*
X0416*
Y02897*
Y02897*
Y02897*
Y02897*
Y02896*
X0416*
Y02896*
X04154*
Y02896*
Y02896*
Y02895*
Y02895*
Y02895*
Y02894*
Y02894*
Y02894*
Y02894*
Y02893*
Y02893*
X0416*
Y02893*
Y02893*
Y02892*
Y02892*
Y02892*
Y02891*
X04152*
Y02892*
Y02892*
Y02892*
Y02893*
Y02893*
Y02893*
Y02893*
Y02894*
Y02894*
Y02894*
Y02894*
Y02895*
Y02895*
Y02895*
Y02896*
Y02896*
Y02896*
Y02896*
Y02897*
Y02897*
Y02897*
Y02897*
Y02898*
Y02898*
Y02898*
Y02899*
Y02899*
Y02899*
Y02899*
Y029*
Y029*
Y029*
Y029*
Y02901*
Y02901*
Y02901*
Y02902*
Y02902*
Y02902*
Y02902*
Y02903*
Y02903*
X04161*
Y02903*
G37*
G36*
X04146D02*
Y02902D01*
X04146*
Y02902*
Y02902*
X04147*
Y02902*
Y02901*
Y02901*
X04147*
Y02901*
Y029*
X04147*
Y029*
Y029*
Y029*
X04147*
Y02899*
Y02899*
X04148*
Y02899*
Y02899*
Y02898*
X04148*
Y02898*
Y02898*
Y02897*
X04148*
Y02897*
Y02897*
Y02897*
X04149*
Y02896*
Y02896*
X04149*
Y02896*
Y02896*
Y02895*
X04149*
Y02895*
Y02895*
X04149*
Y02894*
Y02894*
Y02894*
X0415*
Y02894*
Y02893*
Y02893*
X0415*
Y02893*
Y02893*
X0415*
Y02892*
Y02892*
Y02892*
Y02891*
X04149*
Y02892*
Y02892*
X04148*
Y02892*
Y02893*
Y02893*
X04148*
Y02893*
Y02893*
X04148*
Y02894*
Y02894*
Y02894*
X04147*
Y02894*
Y02895*
Y02895*
X04147*
Y02895*
Y02896*
Y02896*
X04147*
Y02896*
Y02896*
X04147*
Y02897*
Y02897*
Y02897*
X04146*
Y02897*
Y02898*
Y02898*
X04146*
Y02898*
Y02899*
X04146*
Y02899*
Y02899*
Y02899*
X04146*
Y029*
Y029*
Y029*
X04145*
Y029*
Y02901*
X04145*
Y029*
X04145*
Y029*
Y029*
Y029*
X04144*
Y02899*
Y02899*
Y02899*
X04144*
Y02899*
Y02898*
Y02898*
X04144*
Y02898*
Y02897*
Y02897*
X04144*
Y02897*
Y02897*
Y02896*
X04143*
Y02896*
Y02896*
Y02896*
X04143*
Y02895*
Y02895*
Y02895*
X04143*
Y02894*
Y02894*
Y02894*
X04143*
Y02894*
Y02893*
X04142*
Y02893*
Y02893*
Y02893*
X04142*
Y02892*
Y02892*
Y02892*
X04142*
Y02891*
X0414*
Y02892*
X0414*
Y02892*
Y02892*
Y02893*
X0414*
Y02893*
Y02893*
Y02893*
X04141*
Y02894*
Y02894*
X04141*
Y02894*
Y02894*
Y02895*
X04141*
Y02895*
Y02895*
Y02896*
X04141*
Y02896*
Y02896*
Y02896*
X04142*
Y02897*
Y02897*
X04142*
Y02897*
Y02897*
Y02898*
X04142*
Y02898*
Y02898*
Y02899*
X04143*
Y02899*
Y02899*
X04143*
Y02899*
Y029*
Y029*
X04143*
Y029*
Y029*
X04143*
Y02901*
Y02901*
Y02901*
X04144*
Y02902*
Y02902*
Y02902*
X04144*
Y02902*
Y02903*
Y02903*
X04146*
Y02903*
G37*
G36*
X04138D02*
Y02902D01*
Y02902*
Y02902*
Y02902*
Y02901*
Y02901*
Y02901*
Y029*
Y029*
Y029*
Y029*
Y02899*
Y02899*
Y02899*
Y02899*
Y02898*
Y02898*
Y02898*
Y02897*
Y02897*
Y02897*
Y02897*
Y02896*
Y02896*
Y02896*
Y02896*
Y02895*
Y02895*
Y02895*
Y02894*
Y02894*
Y02894*
Y02894*
Y02893*
Y02893*
Y02893*
Y02893*
Y02892*
Y02892*
Y02892*
Y02891*
X04137*
Y02892*
Y02892*
Y02892*
Y02893*
Y02893*
Y02893*
Y02893*
Y02894*
Y02894*
Y02894*
Y02894*
Y02895*
Y02895*
Y02895*
Y02896*
Y02896*
Y02896*
Y02896*
Y02897*
Y02897*
Y02897*
Y02897*
Y02898*
Y02898*
Y02898*
Y02899*
Y02899*
Y02899*
Y02899*
Y029*
Y029*
Y029*
Y029*
Y02901*
Y02901*
Y02901*
Y02902*
Y02902*
Y02902*
Y02902*
Y02903*
Y02903*
X04138*
Y02903*
G37*
G36*
X0418Y02903D02*
X04181D01*
Y02903*
X04182*
Y02902*
X04182*
Y02902*
X04182*
Y02902*
Y02902*
X04183*
Y02901*
X04183*
Y02901*
Y02901*
Y029*
X04183*
Y029*
Y029*
Y029*
Y02899*
Y02899*
Y02899*
X04183*
Y02899*
Y02898*
X04183*
Y02898*
Y02898*
X04182*
Y02897*
X04182*
Y02897*
X04182*
Y02897*
X04181*
Y02897*
X0418*
Y02896*
X04179*
Y02896*
X04178*
Y02896*
X04177*
Y02896*
X04177*
Y02895*
X04176*
Y02895*
X04176*
Y02895*
Y02894*
Y02894*
Y02894*
Y02894*
X04176*
Y02893*
X04177*
Y02893*
X04177*
Y02893*
X04179*
Y02893*
X0418*
Y02893*
X0418*
Y02894*
X04181*
Y02894*
Y02894*
X04181*
Y02894*
Y02895*
X04181*
Y02895*
X04182*
Y02895*
X04183*
Y02894*
Y02894*
Y02894*
Y02894*
Y02893*
X04182*
Y02893*
X04182*
Y02893*
Y02893*
X04182*
Y02892*
X04182*
Y02892*
X04181*
Y02892*
X0418*
Y02891*
X04179*
Y02891*
X04178*
Y02891*
X04176*
Y02892*
X04176*
Y02892*
X04176*
Y02892*
X04175*
Y02893*
Y02893*
X04175*
Y02893*
X04174*
Y02893*
Y02894*
Y02894*
Y02894*
Y02894*
Y02895*
Y02895*
Y02895*
Y02896*
Y02896*
X04175*
Y02896*
Y02896*
X04175*
Y02897*
X04176*
Y02897*
X04176*
Y02897*
X04176*
Y02897*
X04177*
Y02898*
X04178*
Y02898*
X0418*
Y02898*
X0418*
Y02899*
X04181*
Y02899*
X04181*
Y02899*
X04181*
Y02899*
Y029*
Y029*
Y029*
Y029*
Y02901*
X04181*
Y02901*
X04181*
Y02901*
X0418*
Y02902*
X04179*
Y02902*
X04179*
Y02902*
X04177*
Y02901*
X04177*
Y02901*
X04176*
Y02901*
X04176*
Y029*
X04176*
Y029*
Y029*
X04176*
Y029*
Y02899*
Y02899*
X04175*
Y02899*
X04174*
Y029*
Y029*
Y029*
Y029*
X04174*
Y02901*
Y02901*
X04174*
Y02901*
Y02902*
X04175*
Y02902*
X04175*
Y02902*
X04175*
Y02902*
X04176*
Y02903*
X04176*
Y02903*
X04177*
Y02903*
X0418*
Y02903*
G37*
G36*
X04119D02*
X0412D01*
Y02903*
X0412*
Y02902*
X04121*
Y02902*
X04121*
Y02902*
X04121*
Y02902*
X04122*
Y02901*
X04122*
Y02901*
Y02901*
Y029*
X04122*
Y029*
Y029*
Y029*
Y02899*
Y02899*
Y02899*
X04122*
Y02899*
Y02898*
Y02898*
Y02898*
Y02897*
Y02897*
Y02897*
Y02897*
Y02896*
Y02896*
Y02896*
Y02896*
Y02895*
Y02895*
Y02895*
Y02894*
Y02894*
Y02894*
Y02894*
Y02893*
Y02893*
Y02893*
Y02893*
Y02892*
Y02892*
Y02892*
Y02891*
Y02891*
Y02891*
Y02891*
X04122*
Y0289*
X04121*
Y02891*
Y02891*
Y02891*
Y02891*
Y02892*
Y02892*
Y02892*
Y02893*
Y02893*
Y02893*
Y02893*
Y02894*
Y02894*
Y02894*
Y02894*
Y02895*
Y02895*
Y02895*
Y02896*
Y02896*
Y02896*
Y02896*
Y02897*
Y02897*
Y02897*
Y02897*
Y02898*
Y02898*
Y02898*
Y02899*
Y02899*
Y02899*
X0412*
Y02899*
Y029*
Y029*
Y029*
X0412*
Y029*
Y02901*
X0412*
Y02901*
X0412*
Y02901*
X04119*
Y02902*
X04118*
Y02902*
X04117*
Y02902*
X04116*
Y02901*
X04116*
Y02901*
X04115*
Y02901*
X04115*
Y029*
Y029*
X04115*
Y029*
Y029*
Y02899*
Y02899*
Y02899*
X04114*
Y02899*
Y02898*
Y02898*
Y02898*
Y02897*
Y02897*
Y02897*
Y02897*
Y02896*
Y02896*
Y02896*
Y02896*
Y02895*
Y02895*
Y02895*
Y02894*
Y02894*
Y02894*
Y02894*
Y02893*
Y02893*
Y02893*
Y02893*
Y02892*
Y02892*
Y02892*
Y02891*
Y02891*
Y02891*
Y02891*
Y0289*
X04113*
Y02891*
Y02891*
Y02891*
Y02891*
Y02892*
Y02892*
Y02892*
Y02893*
Y02893*
Y02893*
Y02893*
Y02894*
Y02894*
Y02894*
Y02894*
Y02895*
Y02895*
Y02895*
Y02896*
Y02896*
Y02896*
Y02896*
Y02897*
Y02897*
Y02897*
Y02897*
Y02898*
Y02898*
Y02898*
Y02899*
Y02899*
Y02899*
Y02899*
Y029*
Y029*
Y029*
X04113*
Y029*
Y02901*
Y02901*
X04114*
Y02901*
Y02902*
X04114*
Y02902*
X04114*
Y02902*
X04114*
Y02902*
X04115*
Y02903*
X04115*
Y02903*
X04116*
Y02903*
X04119*
Y02903*
G37*
G36*
X04276Y02873D02*
Y02873D01*
Y02873*
X04275*
Y02873*
X0406*
Y02873*
X04059*
Y02873*
Y02873*
X0406*
Y02874*
X04276*
Y02873*
G37*
G36*
X04146Y02856D02*
Y02855D01*
X04146*
Y02855*
X0406*
Y02855*
Y02856*
Y02856*
X04146*
Y02856*
G37*
G36*
X04131Y02852D02*
Y02852D01*
X04132*
Y02852*
Y02852*
Y02851*
Y02851*
Y02851*
Y02851*
Y0285*
Y0285*
Y0285*
Y02849*
Y02849*
X04132*
Y02849*
Y02849*
Y02848*
Y02848*
Y02848*
Y02848*
Y02847*
Y02847*
Y02847*
Y02846*
X04132*
Y02846*
X04135*
Y02846*
X04137*
Y02846*
X04138*
Y02845*
X04138*
Y02845*
Y02845*
Y02845*
Y02844*
Y02844*
Y02844*
Y02843*
Y02843*
Y02843*
Y02843*
Y02842*
Y02842*
Y02842*
Y02842*
Y02841*
Y02841*
Y02841*
Y0284*
Y0284*
Y0284*
Y0284*
Y02839*
Y02839*
Y02839*
Y02839*
Y02838*
Y02838*
X04138*
Y02838*
X04138*
Y02838*
X04137*
Y02838*
X04135*
Y02839*
X04134*
Y02839*
X04133*
Y02839*
X04133*
Y02838*
Y02838*
X04133*
Y02838*
Y02837*
Y02837*
Y02837*
Y02837*
Y02836*
Y02836*
Y02836*
Y02836*
Y02835*
X04133*
Y02835*
Y02835*
Y02834*
Y02834*
Y02834*
Y02834*
Y02833*
Y02833*
X04134*
Y02833*
X04134*
Y02833*
X04135*
Y02832*
X04136*
Y02832*
X04137*
Y02832*
X04137*
Y02831*
X04138*
Y02831*
X04138*
Y02831*
Y02831*
Y0283*
Y0283*
Y0283*
Y0283*
Y02829*
Y02829*
Y02829*
Y02828*
Y02828*
Y02828*
Y02828*
Y02827*
Y02827*
Y02827*
Y02827*
Y02826*
Y02826*
Y02826*
Y02825*
Y02825*
Y02825*
Y02825*
Y02824*
Y02824*
Y02824*
Y02824*
X04138*
Y02823*
X04138*
Y02824*
X04137*
Y02824*
X04137*
Y02824*
X04137*
Y02824*
X04136*
Y02825*
X04135*
Y02825*
X04135*
Y02825*
X04134*
Y02825*
Y02825*
Y02824*
Y02824*
X04134*
Y02824*
Y02824*
Y02823*
Y02823*
Y02823*
Y02822*
Y02822*
Y02822*
Y02822*
Y02821*
X04135*
Y02821*
Y02821*
Y02821*
Y0282*
Y0282*
Y0282*
X04135*
Y0282*
X04135*
Y02819*
X04135*
Y02819*
X04136*
Y02819*
X04136*
Y02818*
X04137*
Y02818*
X04137*
Y02818*
X04137*
Y02818*
X04138*
Y02817*
X04138*
Y02817*
Y02817*
X04138*
Y02817*
Y02816*
Y02816*
Y02816*
Y02815*
Y02815*
Y02815*
Y02815*
Y02814*
Y02814*
Y02814*
Y02814*
Y02813*
Y02813*
Y02813*
Y02812*
Y02812*
Y02812*
Y02812*
Y02811*
Y02811*
Y02811*
Y02811*
Y0281*
Y0281*
Y0281*
Y02809*
X04138*
Y0281*
X04137*
Y0281*
X04137*
Y0281*
Y02811*
X04137*
Y02811*
X04137*
Y02811*
X04136*
Y02811*
X04136*
Y02812*
X04135*
Y02811*
Y02811*
Y02811*
Y02811*
Y0281*
Y0281*
X04136*
Y0281*
Y02809*
Y02809*
Y02809*
Y02809*
Y02808*
Y02808*
Y02808*
Y02808*
Y02807*
X04136*
Y02807*
Y02807*
Y02806*
Y02806*
Y02806*
X04136*
Y02806*
X04137*
Y02805*
Y02805*
X04137*
Y02805*
X04137*
Y02805*
X04137*
Y02804*
Y02804*
X04138*
Y02804*
X04138*
Y02803*
Y02803*
X04138*
Y02803*
X04138*
Y02803*
Y02802*
Y02802*
Y02802*
Y02802*
Y02801*
Y02801*
Y02801*
Y028*
Y028*
Y028*
Y028*
Y02799*
Y02799*
Y02799*
Y02799*
Y02798*
Y02798*
Y02798*
Y02797*
Y02797*
Y02797*
Y02797*
Y02796*
Y02796*
X04138*
Y02796*
Y02796*
Y02795*
X04138*
Y02796*
Y02796*
X04137*
Y02796*
X04137*
Y02796*
Y02796*
Y02795*
Y02795*
Y02795*
Y02794*
Y02794*
Y02794*
Y02794*
Y02793*
Y02793*
X04137*
Y02793*
Y02793*
Y02792*
Y02792*
Y02792*
Y02791*
Y02791*
X04138*
Y02791*
Y02791*
Y0279*
X04138*
Y0279*
Y0279*
Y0279*
X04138*
Y02789*
Y02789*
Y02789*
X04138*
Y02788*
Y02788*
Y02788*
Y02788*
Y02787*
Y02787*
Y02787*
Y02787*
Y02786*
Y02786*
Y02786*
Y02785*
Y02785*
Y02785*
Y02785*
Y02784*
Y02784*
Y02784*
Y02784*
Y02783*
Y02783*
Y02783*
Y02782*
Y02782*
Y02782*
Y02782*
Y02781*
Y02781*
Y02781*
X04138*
Y02781*
X04138*
Y02781*
X04138*
Y02781*
Y02781*
X04137*
Y02782*
Y02782*
Y02782*
Y02782*
Y02783*
Y02783*
X04137*
Y02783*
Y02784*
Y02784*
Y02784*
Y02784*
Y02785*
Y02785*
X04137*
Y02785*
Y02785*
Y02786*
Y02786*
Y02786*
Y02787*
X04137*
Y02787*
Y02787*
Y02787*
Y02788*
Y02788*
X04136*
Y02788*
Y02788*
Y02789*
Y02789*
Y02789*
X04136*
Y0279*
Y0279*
Y0279*
Y0279*
X04136*
Y02791*
Y02791*
Y02791*
Y02791*
Y02792*
Y02792*
X04135*
Y02792*
Y02793*
Y02793*
Y02793*
Y02793*
X04135*
Y02794*
Y02794*
Y02794*
Y02794*
Y02795*
X04135*
Y02795*
Y02795*
Y02796*
Y02796*
X04135*
Y02796*
Y02796*
Y02797*
Y02797*
Y02797*
X04134*
Y02797*
Y02798*
Y02798*
Y02798*
X04134*
Y02799*
Y02799*
Y02799*
Y02799*
X04134*
Y028*
Y028*
Y028*
X04134*
Y028*
Y02801*
Y02801*
X04133*
Y02801*
Y02802*
Y02802*
X04133*
Y02802*
Y02802*
Y02803*
X04133*
Y02803*
Y02803*
Y02803*
X04132*
Y02804*
Y02804*
Y02804*
X04132*
Y02805*
Y02805*
Y02805*
X04132*
Y02805*
Y02806*
Y02806*
X04132*
Y02806*
Y02806*
Y02807*
Y02807*
X04131*
Y02807*
Y02808*
Y02808*
X04131*
Y02808*
Y02808*
Y02809*
X04131*
Y02809*
Y02809*
X04131*
Y02809*
Y0281*
Y0281*
X0413*
Y0281*
Y02811*
X0413*
Y02811*
Y02811*
X0413*
Y02811*
Y02812*
Y02812*
X04129*
Y02812*
Y02812*
X04129*
Y02813*
Y02813*
X04129*
Y02813*
Y02814*
X04129*
Y02814*
Y02814*
X04128*
Y02814*
Y02815*
X04128*
Y02815*
Y02815*
X04128*
Y02815*
Y02816*
X04128*
Y02816*
Y02816*
X04127*
Y02817*
Y02817*
X04127*
Y02817*
Y02817*
X04127*
Y02818*
Y02818*
X04126*
Y02818*
Y02818*
X04126*
Y02819*
Y02819*
X04126*
Y02819*
Y0282*
X04126*
Y0282*
X04125*
Y0282*
X04125*
Y0282*
X04125*
Y02821*
Y02821*
X04125*
Y02821*
X04124*
Y02821*
X04124*
Y02822*
Y02822*
X04124*
Y02822*
X04123*
Y02822*
Y02823*
X04123*
Y02823*
X04123*
Y02823*
X04123*
Y02824*
Y02824*
X04122*
Y02824*
X04122*
Y02824*
Y02825*
X04122*
Y02825*
X04122*
Y02825*
Y02825*
X04121*
Y02826*
X04121*
Y02826*
Y02826*
X04121*
Y02827*
X0412*
Y02827*
X0412*
Y02827*
Y02827*
X0412*
Y02828*
X0412*
Y02828*
X04119*
Y02828*
X04119*
Y02828*
X04119*
Y02829*
X04119*
Y02829*
Y02829*
X04118*
Y0283*
X04118*
Y0283*
X04118*
Y0283*
X04117*
Y0283*
X04117*
Y02831*
X04117*
Y02831*
X04117*
Y02831*
X04116*
Y02831*
X04116*
Y02832*
X04116*
Y02832*
X04116*
Y02832*
X04115*
Y02833*
X04115*
Y02833*
X04115*
Y02833*
X04114*
Y02833*
X04114*
Y02834*
X04114*
Y02834*
X04113*
Y02834*
X04113*
Y02834*
X04113*
Y02835*
X04112*
Y02835*
X04112*
Y02835*
X04111*
Y02836*
X04111*
Y02836*
X04111*
Y02836*
X0411*
Y02836*
X0411*
Y02837*
X0411*
Y02837*
X04109*
Y02837*
X04109*
Y02837*
X04108*
Y02838*
X04108*
Y02838*
X04108*
Y02838*
X04107*
Y02839*
X04107*
Y02839*
X04107*
Y02839*
X04106*
Y02839*
X04106*
Y0284*
X04105*
Y0284*
X04105*
Y0284*
X04105*
Y0284*
X04104*
Y02841*
X04104*
Y02841*
X04103*
Y02841*
X04103*
Y02842*
X04102*
Y02842*
X04102*
Y02842*
X04101*
Y02842*
X04101*
Y02843*
X041*
Y02843*
X041*
Y02843*
X04099*
Y02843*
X04099*
Y02844*
X04098*
Y02844*
X04097*
Y02844*
X04097*
Y02845*
X04096*
Y02845*
X04095*
Y02845*
X04095*
Y02845*
X04094*
Y02846*
X04093*
Y02846*
X04092*
Y02846*
X04092*
Y02846*
X04091*
Y02847*
X0409*
Y02847*
X04089*
Y02847*
X04088*
Y02848*
X04087*
Y02848*
X04087*
Y02848*
X04086*
Y02848*
X04085*
Y02849*
X04084*
Y02849*
X04082*
Y02849*
X04081*
Y02849*
X0408*
Y0285*
X04079*
Y0285*
X04077*
Y0285*
X04076*
Y02851*
X04075*
Y02851*
X04073*
Y02851*
X04072*
Y02851*
X0407*
Y02852*
X04068*
Y02852*
X04068*
Y02852*
X04068*
Y02852*
X04068*
Y02853*
X04076*
Y02852*
X04077*
Y02852*
X04077*
Y02852*
X04078*
Y02852*
X04081*
Y02851*
X04083*
Y02852*
X04082*
Y02852*
X04082*
Y02852*
X04081*
Y02852*
X04082*
Y02853*
X04089*
Y02852*
X0409*
Y02852*
X0409*
Y02852*
X0409*
Y02852*
X04091*
Y02851*
X04091*
Y02851*
X04092*
Y02851*
X04092*
Y02851*
X04092*
Y0285*
X04094*
Y0285*
X04097*
Y0285*
X04098*
Y0285*
X04098*
Y0285*
X04098*
Y02851*
X04097*
Y02851*
X04097*
Y02851*
X04097*
Y02851*
X04096*
Y02852*
X04096*
Y02852*
X04096*
Y02852*
X04096*
Y02852*
Y02853*
X04103*
Y02852*
X04104*
Y02852*
X04104*
Y02852*
Y02852*
X04104*
Y02851*
X04104*
Y02851*
X04105*
Y02851*
Y02851*
X04105*
Y0285*
X04105*
Y0285*
Y0285*
X04105*
Y02849*
X04106*
Y02849*
X04106*
Y02849*
X04108*
Y02849*
X04111*
Y02848*
X04111*
Y02849*
X04111*
Y02849*
Y02849*
Y02849*
X04111*
Y0285*
X04111*
Y0285*
Y0285*
Y02851*
X04111*
Y02851*
Y02851*
X0411*
Y02851*
X0411*
Y02852*
Y02852*
X0411*
Y02852*
Y02852*
Y02853*
X04117*
Y02852*
X04118*
Y02852*
Y02852*
Y02852*
X04118*
Y02851*
Y02851*
Y02851*
X04118*
Y02851*
Y0285*
Y0285*
Y0285*
X04119*
Y02849*
Y02849*
Y02849*
X04119*
Y02849*
Y02848*
Y02848*
X04119*
Y02848*
X04119*
Y02848*
X04121*
Y02847*
X04124*
Y02847*
X04125*
Y02847*
X04125*
Y02848*
Y02848*
X04125*
Y02848*
Y02848*
Y02849*
Y02849*
Y02849*
Y02849*
X04124*
Y0285*
Y0285*
Y0285*
Y02851*
X04124*
Y02851*
Y02851*
Y02851*
Y02852*
X04124*
Y02852*
Y02852*
Y02852*
Y02853*
X04131*
Y02852*
G37*
G36*
X04242Y02848D02*
Y02847D01*
Y02847*
X04242*
Y02847*
Y02846*
X04242*
Y02846*
Y02846*
Y02846*
X04241*
Y02845*
Y02845*
X04241*
Y02845*
Y02845*
Y02844*
X04241*
Y02844*
Y02844*
X04241*
Y02843*
Y02843*
Y02843*
X0424*
Y02843*
Y02842*
Y02842*
X0424*
Y02842*
Y02842*
X0424*
Y02841*
Y02841*
X0424*
Y02841*
Y0284*
Y0284*
X04239*
Y0284*
Y0284*
X04239*
Y02839*
Y02839*
Y02839*
X04239*
Y02839*
Y02838*
X04238*
Y02838*
Y02838*
Y02837*
X04238*
Y02837*
X04237*
Y02837*
Y02838*
X04236*
Y02838*
Y02838*
X04236*
Y02839*
Y02839*
Y02839*
X04236*
Y02839*
Y0284*
Y0284*
X04235*
Y0284*
Y0284*
X04235*
Y02841*
Y02841*
Y02841*
X04235*
Y02842*
Y02842*
X04235*
Y02842*
Y02842*
Y02843*
X04234*
Y02843*
Y02843*
Y02843*
X04234*
Y02844*
Y02844*
X04234*
Y02844*
Y02845*
Y02845*
X04234*
Y02845*
Y02845*
Y02846*
X04233*
Y02846*
Y02846*
X04233*
Y02846*
Y02847*
Y02847*
X04233*
Y02847*
Y02848*
Y02848*
X04234*
Y02848*
X04234*
Y02847*
Y02847*
Y02847*
X04235*
Y02846*
Y02846*
Y02846*
X04235*
Y02846*
Y02845*
Y02845*
X04235*
Y02845*
X04235*
Y02845*
X0424*
Y02845*
X0424*
Y02845*
Y02845*
X0424*
Y02846*
Y02846*
Y02846*
X0424*
Y02846*
Y02847*
Y02847*
X04241*
Y02847*
Y02848*
X04241*
Y02848*
X04242*
Y02848*
G37*
G36*
X04222D02*
Y02847D01*
X04222*
Y02847*
Y02847*
Y02846*
X04221*
Y02846*
Y02846*
X04221*
Y02846*
Y02845*
X04221*
Y02845*
Y02845*
Y02845*
X0422*
Y02844*
Y02844*
X0422*
Y02844*
Y02843*
Y02843*
X0422*
Y02843*
Y02843*
X0422*
Y02842*
Y02842*
Y02842*
X04219*
Y02842*
Y02841*
X04219*
Y02841*
Y02841*
Y0284*
X04219*
Y0284*
Y0284*
X04219*
Y0284*
Y02839*
Y02839*
X04218*
Y02839*
Y02839*
X04218*
Y02838*
Y02838*
Y02838*
X04218*
Y02837*
Y02837*
X04216*
Y02837*
X04216*
Y02838*
Y02838*
X04216*
Y02838*
Y02839*
Y02839*
X04215*
Y02839*
Y02839*
X04215*
Y0284*
Y0284*
Y0284*
X04215*
Y0284*
Y02841*
X04215*
Y02841*
Y02841*
Y02842*
X04214*
Y02842*
Y02842*
Y02842*
X04214*
Y02843*
Y02843*
Y02843*
X04214*
Y02843*
Y02844*
X04213*
Y02844*
Y02844*
Y02845*
X04213*
Y02845*
Y02845*
Y02845*
X04213*
Y02846*
Y02846*
X04213*
Y02846*
Y02846*
Y02847*
X04212*
Y02847*
Y02847*
X04212*
Y02848*
Y02848*
X04214*
Y02848*
Y02847*
Y02847*
X04214*
Y02847*
Y02846*
X04214*
Y02846*
Y02846*
Y02846*
X04215*
Y02845*
Y02845*
Y02845*
X04215*
Y02845*
X04219*
Y02845*
X04219*
Y02845*
X04219*
Y02845*
Y02846*
Y02846*
X0422*
Y02846*
Y02846*
X0422*
Y02847*
Y02847*
Y02847*
X0422*
Y02848*
Y02848*
X04222*
Y02848*
G37*
G36*
X04232D02*
Y02847D01*
X04232*
Y02847*
Y02847*
X04232*
Y02846*
X04231*
Y02846*
Y02846*
X04231*
Y02846*
X04231*
Y02845*
Y02845*
X04231*
Y02845*
X0423*
Y02845*
Y02844*
X0423*
Y02844*
X0423*
Y02844*
X04229*
Y02843*
X04229*
Y02843*
X04229*
Y02843*
X04229*
Y02843*
X0423*
Y02842*
X04231*
Y02842*
X04231*
Y02842*
X04231*
Y02842*
Y02841*
X04231*
Y02841*
Y02841*
X04232*
Y0284*
Y0284*
Y0284*
Y0284*
X04231*
Y02839*
Y02839*
Y02839*
Y02839*
X04231*
Y02838*
X04231*
Y02838*
X04231*
Y02838*
X0423*
Y02837*
X0423*
Y02837*
X04223*
Y02837*
Y02838*
Y02838*
Y02838*
Y02839*
Y02839*
Y02839*
Y02839*
Y0284*
Y0284*
Y0284*
Y0284*
Y02841*
Y02841*
Y02841*
Y02842*
Y02842*
Y02842*
Y02842*
Y02843*
Y02843*
Y02843*
Y02843*
Y02844*
Y02844*
Y02844*
Y02845*
Y02845*
Y02845*
Y02845*
Y02846*
Y02846*
Y02846*
Y02846*
Y02847*
Y02847*
Y02847*
Y02848*
Y02848*
X04224*
Y02848*
X04225*
Y02847*
Y02847*
Y02847*
Y02846*
Y02846*
Y02846*
Y02846*
Y02845*
Y02845*
Y02845*
Y02845*
Y02844*
Y02844*
Y02844*
Y02843*
Y02843*
X04227*
Y02843*
X04228*
Y02844*
X04228*
Y02844*
X04228*
Y02844*
X04228*
Y02845*
X04229*
Y02845*
Y02845*
X04229*
Y02845*
X04229*
Y02846*
Y02846*
X04229*
Y02846*
X0423*
Y02846*
Y02847*
X0423*
Y02847*
X0423*
Y02847*
Y02848*
X04231*
Y02848*
X04232*
Y02848*
G37*
G36*
X04207Y02848D02*
X04209D01*
Y02848*
X04209*
Y02847*
X0421*
Y02847*
X0421*
Y02847*
X0421*
Y02846*
X04211*
Y02846*
Y02846*
Y02846*
Y02845*
Y02845*
Y02845*
Y02845*
Y02844*
Y02844*
Y02844*
Y02843*
Y02843*
Y02843*
Y02843*
Y02842*
Y02842*
Y02842*
X04211*
Y02842*
X04206*
Y02842*
X04206*
Y02842*
X04206*
Y02842*
Y02843*
Y02843*
X04206*
Y02843*
X04209*
Y02843*
Y02844*
Y02844*
Y02844*
Y02845*
Y02845*
Y02845*
Y02845*
Y02846*
X04209*
Y02846*
X04208*
Y02846*
X04208*
Y02846*
X04207*
Y02847*
X04205*
Y02846*
X04204*
Y02846*
X04204*
Y02846*
X04203*
Y02846*
X04203*
Y02845*
X04203*
Y02845*
X04203*
Y02845*
X04202*
Y02845*
Y02844*
X04202*
Y02844*
Y02844*
X04202*
Y02843*
Y02843*
Y02843*
Y02843*
Y02842*
Y02842*
Y02842*
Y02842*
Y02841*
Y02841*
Y02841*
Y0284*
Y0284*
Y0284*
X04202*
Y0284*
Y02839*
X04202*
Y02839*
Y02839*
X04203*
Y02839*
Y02838*
X04203*
Y02838*
X04203*
Y02838*
X04204*
Y02837*
X04204*
Y02837*
X04205*
Y02837*
X04207*
Y02837*
X04208*
Y02837*
X04208*
Y02838*
X04209*
Y02838*
X04209*
Y02838*
X04209*
Y02839*
Y02839*
X04209*
Y02839*
Y02839*
X0421*
Y02839*
X04211*
Y02839*
Y02839*
Y02838*
X0421*
Y02838*
Y02838*
X0421*
Y02837*
Y02837*
X0421*
Y02837*
X0421*
Y02837*
X04209*
Y02836*
X04209*
Y02836*
X04208*
Y02836*
X04207*
Y02836*
X04204*
Y02836*
X04204*
Y02836*
X04203*
Y02836*
X04202*
Y02837*
X04202*
Y02837*
X04202*
Y02837*
X04201*
Y02837*
X04201*
Y02838*
Y02838*
X04201*
Y02838*
Y02839*
X04201*
Y02839*
Y02839*
X042*
Y02839*
Y0284*
Y0284*
X042*
Y0284*
Y0284*
Y02841*
Y02841*
Y02841*
Y02842*
Y02842*
Y02842*
Y02842*
Y02843*
Y02843*
Y02843*
Y02843*
Y02844*
X042*
Y02844*
Y02844*
Y02845*
X04201*
Y02845*
Y02845*
X04201*
Y02845*
Y02846*
X04201*
Y02846*
Y02846*
X04201*
Y02846*
X04202*
Y02847*
X04202*
Y02847*
X04203*
Y02847*
X04203*
Y02848*
X04204*
Y02848*
X04205*
Y02848*
X04207*
Y02848*
G37*
G36*
X04261Y02848D02*
Y02847D01*
Y02847*
Y02847*
Y02846*
Y02846*
Y02846*
Y02846*
Y02845*
Y02845*
Y02845*
Y02845*
Y02844*
Y02844*
Y02844*
Y02843*
Y02843*
Y02843*
Y02843*
Y02842*
Y02842*
Y02842*
Y02842*
Y02841*
Y02841*
Y02841*
Y0284*
Y0284*
Y0284*
Y0284*
Y02839*
Y02839*
Y02839*
Y02839*
X04261*
Y02838*
X04264*
Y02838*
Y02838*
Y02837*
Y02837*
X04256*
Y02837*
Y02838*
Y02838*
Y02838*
X04259*
Y02839*
X04259*
Y02839*
Y02839*
Y02839*
Y0284*
Y0284*
Y0284*
Y0284*
Y02841*
Y02841*
Y02841*
Y02842*
Y02842*
Y02842*
Y02842*
Y02843*
Y02843*
Y02843*
Y02843*
Y02844*
Y02844*
Y02844*
Y02845*
Y02845*
Y02845*
Y02845*
Y02846*
Y02846*
Y02846*
Y02846*
Y02847*
Y02847*
Y02847*
Y02848*
Y02848*
X04261*
Y02848*
G37*
G36*
X04254D02*
Y02847D01*
Y02847*
Y02847*
Y02846*
Y02846*
Y02846*
Y02846*
Y02845*
Y02845*
Y02845*
Y02845*
Y02844*
Y02844*
Y02844*
Y02843*
Y02843*
Y02843*
Y02843*
Y02842*
Y02842*
Y02842*
Y02842*
Y02841*
Y02841*
Y02841*
Y0284*
Y0284*
Y0284*
Y0284*
Y02839*
Y02839*
Y02839*
Y02839*
Y02838*
Y02838*
Y02838*
Y02837*
Y02837*
X04253*
Y02837*
Y02838*
Y02838*
Y02838*
Y02839*
Y02839*
Y02839*
Y02839*
Y0284*
Y0284*
Y0284*
Y0284*
Y02841*
Y02841*
Y02841*
Y02842*
Y02842*
Y02842*
Y02842*
Y02843*
Y02843*
Y02843*
Y02843*
Y02844*
Y02844*
Y02844*
Y02845*
Y02845*
Y02845*
Y02845*
Y02846*
Y02846*
Y02846*
Y02846*
Y02847*
Y02847*
Y02847*
Y02848*
Y02848*
X04254*
Y02848*
G37*
G36*
X04247D02*
X04247D01*
Y02847*
Y02847*
X04247*
Y02847*
Y02846*
Y02846*
X04248*
Y02846*
Y02846*
X04248*
Y02845*
Y02845*
Y02845*
X04248*
Y02845*
Y02844*
X04249*
Y02844*
Y02844*
Y02843*
X04249*
Y02843*
Y02843*
X04249*
Y02843*
Y02842*
Y02842*
X04249*
Y02842*
Y02842*
Y02841*
X0425*
Y02841*
Y02841*
X0425*
Y0284*
Y0284*
Y0284*
X0425*
Y0284*
Y02839*
Y02839*
X0425*
Y02839*
Y02839*
X04251*
Y02838*
Y02838*
Y02838*
X04251*
Y02837*
Y02837*
X0425*
Y02837*
X04249*
Y02838*
Y02838*
Y02838*
X04249*
Y02839*
Y02839*
Y02839*
X04249*
Y02839*
Y0284*
Y0284*
X04249*
Y0284*
Y0284*
Y02841*
X04248*
Y02841*
Y02841*
X04248*
Y02842*
Y02842*
Y02842*
X04248*
Y02842*
Y02843*
Y02843*
X04247*
Y02843*
Y02843*
X04247*
Y02844*
Y02844*
Y02844*
X04247*
Y02845*
Y02845*
Y02845*
X04247*
Y02845*
Y02846*
X04246*
Y02846*
Y02846*
X04246*
Y02846*
Y02846*
X04246*
Y02845*
Y02845*
Y02845*
X04246*
Y02845*
Y02844*
Y02844*
X04245*
Y02844*
Y02843*
Y02843*
X04245*
Y02843*
Y02843*
Y02842*
X04245*
Y02842*
Y02842*
X04244*
Y02842*
Y02841*
Y02841*
X04244*
Y02841*
Y0284*
Y0284*
X04244*
Y0284*
Y0284*
Y02839*
X04244*
Y02839*
Y02839*
Y02839*
X04243*
Y02838*
Y02838*
X04243*
Y02838*
Y02837*
Y02837*
X04241*
Y02837*
Y02838*
X04242*
Y02838*
Y02838*
X04242*
Y02839*
Y02839*
Y02839*
X04242*
Y02839*
Y0284*
Y0284*
X04243*
Y0284*
Y0284*
X04243*
Y02841*
Y02841*
Y02841*
X04243*
Y02842*
Y02842*
X04243*
Y02842*
Y02842*
Y02843*
X04244*
Y02843*
Y02843*
X04244*
Y02843*
Y02844*
Y02844*
X04244*
Y02844*
Y02845*
Y02845*
X04244*
Y02845*
Y02845*
X04245*
Y02846*
Y02846*
Y02846*
X04245*
Y02846*
Y02847*
Y02847*
X04245*
Y02847*
Y02848*
X04246*
Y02848*
X04247*
Y02848*
G37*
G36*
X04182D02*
Y02847D01*
Y02847*
Y02847*
Y02846*
Y02846*
Y02846*
Y02846*
Y02845*
Y02845*
Y02845*
Y02845*
Y02844*
Y02844*
Y02844*
Y02843*
Y02843*
Y02843*
Y02843*
Y02842*
Y02842*
Y02842*
Y02842*
Y02841*
Y02841*
Y02841*
Y0284*
Y0284*
Y0284*
Y0284*
Y02839*
Y02839*
Y02839*
Y02839*
Y02838*
Y02838*
Y02838*
Y02837*
Y02837*
X0418*
Y02837*
Y02838*
Y02838*
Y02838*
Y02839*
Y02839*
Y02839*
Y02839*
Y0284*
Y0284*
Y0284*
Y0284*
Y02841*
Y02841*
Y02841*
Y02842*
Y02842*
Y02842*
Y02842*
Y02843*
Y02843*
Y02843*
Y02843*
Y02844*
Y02844*
Y02844*
Y02845*
Y02845*
Y02845*
Y02845*
Y02846*
Y02846*
Y02846*
Y02846*
Y02847*
Y02847*
Y02847*
Y02848*
Y02848*
X04182*
Y02848*
G37*
G36*
X04178D02*
Y02847D01*
Y02847*
Y02847*
X04173*
Y02846*
X04173*
Y02846*
Y02846*
Y02846*
Y02845*
Y02845*
Y02845*
Y02845*
Y02844*
Y02844*
Y02844*
Y02843*
Y02843*
Y02843*
Y02843*
Y02842*
Y02842*
Y02842*
Y02842*
Y02841*
Y02841*
Y02841*
Y0284*
Y0284*
Y0284*
Y0284*
Y02839*
Y02839*
Y02839*
Y02839*
Y02838*
Y02838*
Y02838*
Y02837*
Y02837*
X04172*
Y02837*
Y02838*
Y02838*
Y02838*
Y02839*
Y02839*
Y02839*
Y02839*
Y0284*
Y0284*
Y0284*
Y0284*
Y02841*
Y02841*
Y02841*
Y02842*
Y02842*
Y02842*
Y02842*
Y02843*
Y02843*
Y02843*
Y02843*
Y02844*
Y02844*
Y02844*
Y02845*
Y02845*
Y02845*
Y02845*
Y02846*
Y02846*
Y02846*
Y02846*
Y02847*
Y02847*
Y02847*
Y02848*
Y02848*
X04178*
Y02848*
G37*
G36*
X04167Y02848D02*
X04167D01*
Y02848*
X04168*
Y02847*
X04168*
Y02847*
X04168*
Y02847*
X04169*
Y02846*
X04169*
Y02846*
Y02846*
Y02846*
X04169*
Y02845*
Y02845*
Y02845*
Y02845*
Y02844*
X0417*
Y02844*
Y02844*
Y02843*
Y02843*
Y02843*
Y02843*
Y02842*
Y02842*
Y02842*
Y02842*
Y02841*
Y02841*
Y02841*
Y0284*
Y0284*
Y0284*
Y0284*
Y02839*
Y02839*
Y02839*
Y02839*
Y02838*
Y02838*
Y02838*
Y02837*
Y02837*
X04168*
Y02837*
Y02838*
Y02838*
Y02838*
Y02839*
Y02839*
Y02839*
Y02839*
Y0284*
Y0284*
Y0284*
Y0284*
Y02841*
Y02841*
Y02841*
Y02842*
Y02842*
Y02842*
Y02842*
Y02843*
Y02843*
Y02843*
Y02843*
Y02844*
Y02844*
Y02844*
Y02845*
Y02845*
Y02845*
X04168*
Y02845*
Y02846*
X04167*
Y02846*
Y02846*
X04167*
Y02846*
X04167*
Y02847*
X04164*
Y02846*
X04164*
Y02846*
X04163*
Y02846*
X04163*
Y02846*
X04163*
Y02845*
Y02845*
Y02845*
X04162*
Y02845*
Y02844*
Y02844*
Y02844*
Y02843*
Y02843*
Y02843*
Y02843*
Y02842*
Y02842*
Y02842*
Y02842*
Y02841*
Y02841*
Y02841*
Y0284*
Y0284*
Y0284*
Y0284*
Y02839*
Y02839*
Y02839*
Y02839*
Y02838*
Y02838*
Y02838*
Y02837*
Y02837*
X04161*
Y02837*
Y02838*
Y02838*
Y02838*
Y02839*
Y02839*
Y02839*
Y02839*
Y0284*
Y0284*
Y0284*
Y0284*
Y02841*
Y02841*
Y02841*
Y02842*
Y02842*
Y02842*
Y02842*
Y02843*
Y02843*
Y02843*
Y02843*
Y02844*
Y02844*
Y02844*
Y02845*
Y02845*
Y02845*
X04161*
Y02845*
Y02846*
Y02846*
Y02846*
X04162*
Y02846*
Y02847*
X04162*
Y02847*
X04162*
Y02847*
X04162*
Y02848*
X04163*
Y02848*
X04164*
Y02848*
X04167*
Y02848*
G37*
G36*
X04271D02*
X04272D01*
Y02848*
X04273*
Y02847*
X04273*
Y02847*
X04273*
Y02847*
X04274*
Y02846*
X04274*
Y02846*
Y02846*
X04274*
Y02846*
X04274*
Y02845*
Y02845*
Y02845*
X04275*
Y02845*
Y02844*
Y02844*
X04275*
Y02844*
Y02843*
Y02843*
Y02843*
Y02843*
Y02842*
Y02842*
Y02842*
Y02842*
Y02841*
Y02841*
X04275*
Y02841*
Y0284*
Y0284*
X04274*
Y0284*
Y0284*
Y02839*
X04274*
Y02839*
X04274*
Y02839*
Y02839*
X04274*
Y02838*
X04273*
Y02838*
X04273*
Y02838*
X04273*
Y02837*
X04272*
Y02837*
X04271*
Y02837*
X04269*
Y02837*
X04268*
Y02837*
X04267*
Y02838*
X04267*
Y02838*
X04267*
Y02838*
X04266*
Y02839*
X04266*
Y02839*
X04266*
Y02839*
Y02839*
X04265*
Y0284*
Y0284*
X04265*
Y0284*
Y0284*
Y02841*
X04265*
Y02841*
Y02841*
Y02842*
Y02842*
Y02842*
Y02842*
Y02843*
Y02843*
Y02843*
Y02843*
Y02844*
Y02844*
Y02844*
X04265*
Y02845*
Y02845*
Y02845*
X04265*
Y02845*
Y02846*
X04266*
Y02846*
Y02846*
X04266*
Y02846*
X04266*
Y02847*
X04267*
Y02847*
X04267*
Y02847*
X04267*
Y02848*
X04268*
Y02848*
X04269*
Y02848*
X04271*
Y02848*
G37*
G36*
X0419D02*
X04191D01*
Y02848*
X04191*
Y02847*
X04192*
Y02847*
X04192*
Y02847*
X04192*
Y02846*
X04193*
Y02846*
Y02846*
X04193*
Y02846*
Y02845*
X04193*
Y02845*
Y02845*
X04194*
Y02845*
Y02844*
Y02844*
X04194*
Y02844*
Y02843*
Y02843*
Y02843*
Y02843*
Y02842*
Y02842*
Y02842*
Y02842*
Y02841*
Y02841*
X04194*
Y02841*
Y0284*
Y0284*
X04193*
Y0284*
Y0284*
Y02839*
X04193*
Y02839*
X04193*
Y02839*
Y02839*
X04192*
Y02838*
X04192*
Y02838*
X04192*
Y02838*
X04191*
Y02837*
X04191*
Y02837*
X0419*
Y02837*
X04188*
Y02837*
X04187*
Y02837*
X04186*
Y02838*
X04186*
Y02838*
X04185*
Y02838*
X04185*
Y02839*
X04185*
Y02839*
X04185*
Y02839*
Y02839*
X04184*
Y0284*
Y0284*
X04184*
Y0284*
Y0284*
Y02841*
X04184*
Y02841*
Y02841*
Y02842*
Y02842*
Y02842*
Y02842*
Y02843*
Y02843*
Y02843*
Y02843*
Y02844*
Y02844*
Y02844*
X04184*
Y02845*
Y02845*
Y02845*
X04184*
Y02845*
Y02846*
X04185*
Y02846*
Y02846*
X04185*
Y02846*
X04185*
Y02847*
X04185*
Y02847*
X04186*
Y02847*
X04186*
Y02848*
X04187*
Y02848*
X04188*
Y02848*
X0419*
Y02848*
G37*
G36*
X04156D02*
X04157D01*
Y02848*
X04158*
Y02847*
X04158*
Y02847*
X04158*
Y02847*
Y02846*
X04158*
Y02846*
Y02846*
Y02846*
Y02845*
X04159*
Y02845*
Y02845*
Y02845*
Y02844*
Y02844*
Y02844*
Y02843*
Y02843*
Y02843*
Y02843*
Y02842*
Y02842*
Y02842*
Y02842*
Y02841*
Y02841*
Y02841*
Y0284*
Y0284*
Y0284*
Y0284*
Y02839*
Y02839*
Y02839*
Y02839*
Y02838*
Y02838*
Y02838*
Y02837*
Y02837*
Y02837*
Y02837*
Y02836*
Y02836*
Y02836*
X04157*
Y02836*
Y02836*
Y02837*
Y02837*
Y02837*
Y02837*
Y02838*
Y02838*
Y02838*
Y02839*
Y02839*
Y02839*
Y02839*
Y0284*
Y0284*
Y0284*
Y0284*
Y02841*
Y02841*
Y02841*
Y02842*
Y02842*
Y02842*
Y02842*
Y02843*
Y02843*
Y02843*
Y02843*
Y02844*
Y02844*
Y02844*
Y02845*
Y02845*
Y02845*
Y02845*
X04157*
Y02846*
Y02846*
X04156*
Y02846*
X04156*
Y02846*
X04156*
Y02847*
X04155*
Y02846*
X04154*
Y02846*
X04154*
Y02846*
X04154*
Y02846*
Y02845*
X04153*
Y02845*
Y02845*
Y02845*
Y02844*
X04152*
Y02845*
X04152*
Y02845*
Y02845*
Y02845*
Y02846*
Y02846*
Y02846*
X04152*
Y02846*
Y02847*
X04153*
Y02847*
X04153*
Y02847*
X04153*
Y02848*
X04153*
Y02848*
X04154*
Y02848*
X04156*
Y02848*
G37*
G36*
X04263Y02829D02*
Y02828D01*
X04262*
Y02828*
Y02828*
Y02828*
X04262*
Y02827*
Y02827*
X04262*
Y02827*
Y02827*
Y02826*
X04262*
Y02826*
Y02826*
X04261*
Y02825*
Y02825*
Y02825*
X04261*
Y02825*
Y02824*
X04261*
Y02824*
Y02824*
Y02824*
X04261*
Y02823*
Y02823*
X0426*
Y02823*
Y02822*
Y02822*
X0426*
Y02822*
Y02822*
X0426*
Y02821*
Y02821*
Y02821*
X04259*
Y02821*
Y0282*
X04259*
Y0282*
Y0282*
X04259*
Y0282*
Y02819*
Y02819*
X04259*
Y02819*
Y02818*
X04258*
Y02818*
X04257*
Y02818*
X04257*
Y02819*
Y02819*
Y02819*
X04256*
Y0282*
Y0282*
Y0282*
X04256*
Y0282*
Y02821*
X04256*
Y02821*
Y02821*
Y02821*
X04256*
Y02822*
Y02822*
X04255*
Y02822*
Y02822*
Y02823*
X04255*
Y02823*
Y02823*
Y02824*
X04255*
Y02824*
Y02824*
X04255*
Y02824*
Y02825*
Y02825*
X04254*
Y02825*
Y02825*
X04254*
Y02826*
Y02826*
Y02826*
X04254*
Y02827*
Y02827*
Y02827*
X04253*
Y02827*
Y02828*
Y02828*
X04253*
Y02828*
Y02828*
X04253*
Y02829*
Y02829*
X04254*
Y02829*
X04255*
Y02828*
Y02828*
X04255*
Y02828*
Y02828*
Y02827*
X04255*
Y02827*
Y02827*
Y02827*
X04255*
Y02826*
Y02826*
X04256*
Y02826*
X0426*
Y02826*
Y02826*
X0426*
Y02827*
Y02827*
X04261*
Y02827*
Y02827*
Y02828*
X04261*
Y02828*
Y02828*
X04261*
Y02828*
Y02829*
Y02829*
X04263*
Y02829*
G37*
G36*
X04249D02*
X04248D01*
Y02828*
Y02828*
X04248*
Y02828*
Y02828*
X04248*
Y02827*
X04247*
Y02827*
Y02827*
X04247*
Y02827*
X04247*
Y02826*
Y02826*
X04247*
Y02826*
X04246*
Y02825*
Y02825*
X04246*
Y02825*
X04246*
Y02825*
X04246*
Y02824*
X04245*
Y02824*
X04246*
Y02824*
X04246*
Y02824*
X04247*
Y02823*
X04247*
Y02823*
X04247*
Y02823*
X04247*
Y02822*
Y02822*
X04248*
Y02822*
Y02822*
Y02821*
Y02821*
Y02821*
Y02821*
Y0282*
Y0282*
X04247*
Y0282*
Y0282*
X04247*
Y02819*
X04247*
Y02819*
X04247*
Y02819*
X04246*
Y02818*
X04245*
Y02818*
X0424*
Y02818*
X04239*
Y02819*
Y02819*
Y02819*
Y0282*
Y0282*
Y0282*
Y0282*
Y02821*
Y02821*
Y02821*
Y02821*
Y02822*
Y02822*
Y02822*
Y02822*
Y02823*
Y02823*
Y02823*
Y02824*
Y02824*
Y02824*
Y02824*
Y02825*
Y02825*
Y02825*
Y02825*
Y02826*
Y02826*
Y02826*
Y02827*
Y02827*
Y02827*
Y02827*
Y02828*
Y02828*
Y02828*
Y02828*
Y02829*
Y02829*
X04241*
Y02829*
Y02828*
Y02828*
Y02828*
Y02828*
Y02827*
Y02827*
Y02827*
Y02827*
Y02826*
Y02826*
Y02826*
Y02825*
Y02825*
Y02825*
Y02825*
Y02824*
X04241*
Y02824*
X04243*
Y02824*
X04244*
Y02825*
X04244*
Y02825*
X04244*
Y02825*
X04244*
Y02825*
X04245*
Y02826*
Y02826*
X04245*
Y02826*
X04245*
Y02827*
Y02827*
X04246*
Y02827*
X04246*
Y02827*
Y02828*
X04246*
Y02828*
X04246*
Y02828*
Y02828*
X04247*
Y02829*
X04247*
Y02829*
X04249*
Y02829*
G37*
G36*
X04199Y02829D02*
X042D01*
Y02829*
X04201*
Y02828*
X04201*
Y02828*
X04202*
Y02828*
X04202*
Y02828*
X04203*
Y02827*
X04203*
Y02827*
Y02827*
Y02827*
Y02826*
Y02826*
Y02826*
Y02825*
Y02825*
Y02825*
Y02825*
Y02824*
Y02824*
Y02824*
X04203*
Y02824*
X04198*
Y02824*
Y02824*
Y02824*
Y02825*
X04201*
Y02825*
Y02825*
Y02825*
Y02826*
Y02826*
Y02826*
Y02827*
Y02827*
X04201*
Y02827*
X04201*
Y02827*
X042*
Y02828*
X04199*
Y02828*
X04197*
Y02828*
X04197*
Y02827*
X04196*
Y02827*
X04196*
Y02827*
X04195*
Y02827*
X04195*
Y02826*
X04195*
Y02826*
Y02826*
X04195*
Y02825*
Y02825*
Y02825*
X04194*
Y02825*
Y02824*
Y02824*
Y02824*
Y02824*
Y02823*
Y02823*
Y02823*
Y02822*
Y02822*
X04195*
Y02822*
Y02822*
Y02821*
X04195*
Y02821*
Y02821*
X04195*
Y02821*
X04195*
Y0282*
X04196*
Y0282*
X04196*
Y0282*
X04197*
Y0282*
X04197*
Y02819*
X04199*
Y0282*
X042*
Y0282*
X042*
Y0282*
X04201*
Y0282*
Y02821*
X04201*
Y02821*
Y02821*
X04201*
Y02821*
X04202*
Y02821*
X04203*
Y02821*
X04202*
Y02821*
Y0282*
Y0282*
X04202*
Y0282*
X04202*
Y0282*
Y02819*
X04201*
Y02819*
X04201*
Y02819*
X04201*
Y02818*
X042*
Y02818*
X04197*
Y02818*
X04196*
Y02819*
X04195*
Y02819*
X04195*
Y02819*
X04194*
Y0282*
Y0282*
X04194*
Y0282*
X04194*
Y0282*
X04194*
Y02821*
Y02821*
X04193*
Y02821*
Y02821*
Y02822*
X04193*
Y02822*
Y02822*
Y02822*
Y02823*
Y02823*
Y02823*
X04193*
Y02824*
Y02824*
Y02824*
X04193*
Y02824*
Y02825*
Y02825*
Y02825*
Y02825*
Y02826*
X04193*
Y02826*
Y02826*
X04194*
Y02827*
Y02827*
X04194*
Y02827*
X04194*
Y02827*
Y02828*
X04194*
Y02828*
X04195*
Y02828*
X04195*
Y02828*
X04196*
Y02829*
X04196*
Y02829*
X04198*
Y02829*
X04199*
Y02829*
G37*
G36*
X04223Y02829D02*
Y02828D01*
Y02828*
Y02828*
Y02828*
Y02827*
Y02827*
Y02827*
Y02827*
Y02826*
Y02826*
Y02826*
Y02825*
Y02825*
Y02825*
Y02825*
Y02824*
Y02824*
Y02824*
Y02824*
Y02823*
Y02823*
Y02823*
Y02822*
Y02822*
Y02822*
Y02822*
Y02821*
Y02821*
Y02821*
Y02821*
Y0282*
Y0282*
Y0282*
Y0282*
Y02819*
Y02819*
Y02819*
Y02818*
Y02818*
X04222*
Y02818*
X04222*
Y02819*
Y02819*
Y02819*
Y0282*
Y0282*
Y0282*
Y0282*
Y02821*
Y02821*
Y02821*
Y02821*
Y02822*
Y02822*
Y02822*
Y02822*
Y02823*
Y02823*
Y02823*
Y02824*
Y02824*
Y02824*
Y02824*
Y02825*
Y02825*
Y02825*
Y02825*
Y02826*
Y02826*
Y02826*
X04221*
Y02826*
X04221*
Y02826*
Y02825*
X04221*
Y02825*
X0422*
Y02825*
Y02825*
X0422*
Y02824*
X0422*
Y02824*
Y02824*
X0422*
Y02824*
X04219*
Y02823*
Y02823*
X04219*
Y02823*
X04219*
Y02822*
Y02822*
X04219*
Y02822*
X04218*
Y02822*
Y02821*
X04218*
Y02821*
X04218*
Y02821*
Y02821*
X04217*
Y0282*
X04217*
Y0282*
Y0282*
X04217*
Y0282*
X04217*
Y02819*
Y02819*
X04216*
Y02819*
X04216*
Y02818*
X04216*
Y02818*
X04215*
Y02818*
X04215*
Y02819*
Y02819*
Y02819*
Y0282*
Y0282*
Y0282*
Y0282*
Y02821*
Y02821*
Y02821*
Y02821*
Y02822*
Y02822*
Y02822*
Y02822*
Y02823*
Y02823*
Y02823*
Y02824*
Y02824*
Y02824*
Y02824*
Y02825*
Y02825*
Y02825*
Y02825*
Y02826*
Y02826*
Y02826*
Y02827*
Y02827*
Y02827*
Y02827*
Y02828*
Y02828*
Y02828*
Y02828*
Y02829*
Y02829*
X04216*
Y02829*
Y02828*
Y02828*
Y02828*
Y02828*
Y02827*
Y02827*
Y02827*
Y02827*
Y02826*
Y02826*
Y02826*
Y02825*
Y02825*
Y02825*
Y02825*
Y02824*
Y02824*
Y02824*
Y02824*
Y02823*
Y02823*
Y02823*
Y02822*
Y02822*
Y02822*
Y02822*
Y02821*
Y02821*
X04216*
Y02821*
X04217*
Y02822*
Y02822*
X04217*
Y02822*
X04217*
Y02822*
Y02823*
X04217*
Y02823*
X04218*
Y02823*
Y02824*
X04218*
Y02824*
Y02824*
X04218*
Y02824*
X04219*
Y02825*
Y02825*
X04219*
Y02825*
X04219*
Y02825*
Y02826*
X04219*
Y02826*
X0422*
Y02826*
Y02827*
X0422*
Y02827*
X0422*
Y02827*
Y02827*
X0422*
Y02828*
X04221*
Y02828*
Y02828*
X04221*
Y02828*
X04221*
Y02829*
Y02829*
X04223*
Y02829*
G37*
G36*
X04191D02*
Y02828D01*
Y02828*
Y02828*
Y02828*
Y02827*
Y02827*
Y02827*
Y02827*
Y02826*
Y02826*
Y02826*
Y02825*
Y02825*
Y02825*
Y02825*
Y02824*
Y02824*
Y02824*
Y02824*
Y02823*
Y02823*
Y02823*
Y02822*
Y02822*
Y02822*
Y02822*
Y02821*
Y02821*
Y02821*
Y02821*
Y0282*
Y0282*
Y0282*
Y0282*
Y02819*
Y02819*
Y02819*
Y02818*
X04191*
Y02818*
X0419*
Y02818*
X04189*
Y02819*
Y02819*
Y02819*
Y0282*
Y0282*
Y0282*
Y0282*
Y02821*
Y02821*
Y02821*
Y02821*
Y02822*
Y02822*
Y02822*
Y02822*
Y02823*
Y02823*
Y02823*
Y02824*
Y02824*
Y02824*
Y02824*
Y02825*
Y02825*
Y02825*
Y02825*
Y02826*
Y02826*
Y02826*
X04189*
Y02826*
Y02826*
X04189*
Y02825*
X04189*
Y02825*
Y02825*
X04188*
Y02825*
X04188*
Y02824*
Y02824*
X04188*
Y02824*
X04188*
Y02824*
Y02823*
X04187*
Y02823*
X04187*
Y02823*
Y02822*
X04187*
Y02822*
X04186*
Y02822*
Y02822*
X04186*
Y02821*
X04186*
Y02821*
Y02821*
X04186*
Y02821*
X04185*
Y0282*
Y0282*
X04185*
Y0282*
X04185*
Y0282*
Y02819*
X04185*
Y02819*
X04184*
Y02819*
Y02818*
X04184*
Y02818*
X04183*
Y02818*
Y02819*
Y02819*
Y02819*
Y0282*
Y0282*
Y0282*
Y0282*
Y02821*
Y02821*
Y02821*
Y02821*
Y02822*
Y02822*
Y02822*
Y02822*
Y02823*
Y02823*
Y02823*
Y02824*
Y02824*
Y02824*
Y02824*
Y02825*
Y02825*
Y02825*
Y02825*
Y02826*
Y02826*
Y02826*
Y02827*
Y02827*
Y02827*
Y02827*
Y02828*
Y02828*
Y02828*
Y02828*
Y02829*
Y02829*
X04184*
Y02829*
X04184*
Y02828*
Y02828*
Y02828*
Y02828*
Y02827*
Y02827*
Y02827*
Y02827*
Y02826*
Y02826*
Y02826*
Y02825*
Y02825*
Y02825*
Y02825*
Y02824*
Y02824*
Y02824*
Y02824*
Y02823*
Y02823*
Y02823*
Y02822*
Y02822*
Y02822*
Y02822*
Y02821*
Y02821*
X04184*
Y02821*
X04185*
Y02822*
Y02822*
X04185*
Y02822*
X04185*
Y02822*
Y02823*
X04185*
Y02823*
X04186*
Y02823*
Y02824*
X04186*
Y02824*
X04186*
Y02824*
Y02824*
X04186*
Y02825*
X04187*
Y02825*
Y02825*
X04187*
Y02825*
X04187*
Y02826*
Y02826*
X04188*
Y02826*
X04188*
Y02827*
Y02827*
X04188*
Y02827*
X04188*
Y02827*
Y02828*
X04189*
Y02828*
X04189*
Y02828*
Y02828*
X04189*
Y02829*
X04189*
Y02829*
X04191*
Y02829*
G37*
G36*
X04252D02*
Y02828D01*
Y02828*
Y02828*
Y02828*
Y02827*
Y02827*
Y02827*
Y02827*
Y02826*
Y02826*
Y02826*
Y02825*
Y02825*
Y02825*
Y02825*
Y02824*
Y02824*
Y02824*
Y02824*
Y02823*
Y02823*
Y02823*
Y02822*
Y02822*
Y02822*
Y02822*
Y02821*
Y02821*
Y02821*
Y02821*
Y0282*
Y0282*
Y0282*
Y0282*
Y02819*
Y02819*
Y02819*
Y02818*
X04251*
Y02818*
X0425*
Y02818*
X0425*
Y02819*
Y02819*
Y02819*
Y0282*
Y0282*
Y0282*
Y0282*
Y02821*
Y02821*
Y02821*
Y02821*
Y02822*
Y02822*
Y02822*
Y02822*
Y02823*
Y02823*
Y02823*
Y02824*
Y02824*
Y02824*
Y02824*
Y02825*
Y02825*
Y02825*
Y02825*
Y02826*
Y02826*
Y02826*
Y02827*
Y02827*
Y02827*
Y02827*
Y02828*
Y02828*
Y02828*
Y02828*
Y02829*
Y02829*
X04252*
Y02829*
G37*
G36*
X04237D02*
X04237D01*
Y02828*
Y02828*
Y02828*
X04237*
Y02828*
X04231*
Y02827*
Y02827*
Y02827*
Y02827*
Y02826*
Y02826*
Y02826*
Y02825*
Y02825*
Y02825*
Y02825*
Y02824*
Y02824*
X04237*
Y02824*
Y02824*
Y02823*
Y02823*
Y02823*
X04231*
Y02822*
Y02822*
Y02822*
Y02822*
Y02821*
Y02821*
Y02821*
Y02821*
Y0282*
Y0282*
Y0282*
X04231*
Y0282*
X04237*
Y02819*
Y02819*
Y02819*
Y02818*
X04237*
Y02818*
X0423*
Y02818*
X04229*
Y02819*
Y02819*
Y02819*
Y0282*
Y0282*
Y0282*
Y0282*
Y02821*
Y02821*
Y02821*
Y02821*
Y02822*
Y02822*
Y02822*
Y02822*
Y02823*
Y02823*
Y02823*
Y02824*
Y02824*
Y02824*
Y02824*
Y02825*
Y02825*
Y02825*
Y02825*
Y02826*
Y02826*
Y02826*
Y02827*
Y02827*
Y02827*
Y02827*
Y02828*
Y02828*
Y02828*
Y02828*
Y02829*
Y02829*
X04237*
Y02829*
G37*
G36*
X04227D02*
Y02828D01*
Y02828*
Y02828*
Y02828*
Y02827*
Y02827*
Y02827*
Y02827*
Y02826*
Y02826*
Y02826*
Y02825*
Y02825*
Y02825*
Y02825*
Y02824*
Y02824*
Y02824*
Y02824*
Y02823*
Y02823*
Y02823*
Y02822*
Y02822*
Y02822*
Y02822*
Y02821*
Y02821*
Y02821*
Y02821*
Y0282*
Y0282*
Y0282*
Y0282*
Y02819*
Y02819*
Y02819*
Y02818*
X04227*
Y02818*
X04226*
Y02818*
Y02819*
X04225*
Y02819*
Y02819*
Y0282*
Y0282*
Y0282*
Y0282*
Y02821*
Y02821*
Y02821*
Y02821*
Y02822*
Y02822*
Y02822*
Y02822*
Y02823*
Y02823*
Y02823*
Y02824*
Y02824*
Y02824*
Y02824*
Y02825*
Y02825*
Y02825*
Y02825*
Y02826*
Y02826*
Y02826*
Y02827*
Y02827*
Y02827*
Y02827*
Y02828*
Y02828*
Y02828*
Y02828*
X04226*
Y02829*
Y02829*
X04227*
Y02829*
G37*
G36*
X04213D02*
Y02828D01*
Y02828*
Y02828*
Y02828*
X04206*
Y02827*
X04206*
Y02827*
Y02827*
Y02827*
Y02826*
Y02826*
Y02826*
Y02825*
Y02825*
Y02825*
Y02825*
Y02824*
X04206*
Y02824*
X04212*
Y02824*
X04212*
Y02824*
Y02823*
Y02823*
Y02823*
X04206*
Y02822*
X04206*
Y02822*
Y02822*
Y02822*
Y02821*
Y02821*
Y02821*
Y02821*
Y0282*
Y0282*
Y0282*
X04206*
Y0282*
X04212*
Y02819*
Y02819*
Y02819*
Y02818*
Y02818*
X04205*
Y02818*
X04205*
Y02819*
Y02819*
Y02819*
Y0282*
Y0282*
Y0282*
Y0282*
Y02821*
Y02821*
Y02821*
Y02821*
Y02822*
Y02822*
Y02822*
Y02822*
Y02823*
Y02823*
Y02823*
Y02824*
Y02824*
Y02824*
Y02824*
Y02825*
Y02825*
Y02825*
Y02825*
Y02826*
Y02826*
Y02826*
Y02827*
Y02827*
Y02827*
Y02827*
Y02828*
Y02828*
Y02828*
Y02828*
Y02829*
X04205*
Y02829*
X04213*
Y02829*
G37*
G36*
X04171D02*
X04171D01*
Y02828*
Y02828*
Y02828*
X04171*
Y02828*
X04165*
Y02827*
Y02827*
Y02827*
Y02827*
Y02826*
Y02826*
Y02826*
Y02825*
Y02825*
Y02825*
Y02825*
Y02824*
Y02824*
X04171*
Y02824*
Y02824*
Y02823*
Y02823*
Y02823*
X04165*
Y02822*
Y02822*
Y02822*
Y02822*
Y02821*
Y02821*
Y02821*
Y02821*
Y0282*
Y0282*
Y0282*
Y0282*
X04171*
Y02819*
X04171*
Y02819*
Y02819*
Y02818*
X04171*
Y02818*
X04164*
Y02818*
X04164*
Y02819*
Y02819*
Y02819*
Y0282*
Y0282*
Y0282*
Y0282*
Y02821*
Y02821*
Y02821*
Y02821*
Y02822*
Y02822*
Y02822*
Y02822*
Y02823*
Y02823*
Y02823*
Y02824*
Y02824*
Y02824*
Y02824*
Y02825*
Y02825*
Y02825*
Y02825*
Y02826*
Y02826*
Y02826*
Y02827*
Y02827*
Y02827*
Y02827*
Y02828*
Y02828*
Y02828*
Y02828*
Y02829*
Y02829*
X04171*
Y02829*
G37*
G36*
X04158D02*
X04159D01*
Y02828*
X04159*
Y02828*
X0416*
Y02828*
X0416*
Y02828*
X0416*
Y02827*
X04161*
Y02827*
X04161*
Y02827*
Y02827*
X04161*
Y02826*
Y02826*
Y02826*
X04161*
Y02825*
Y02825*
Y02825*
Y02825*
Y02824*
Y02824*
Y02824*
Y02824*
Y02823*
Y02823*
Y02823*
Y02822*
Y02822*
Y02822*
Y02822*
Y02821*
X04161*
Y02821*
Y02821*
Y02821*
X04161*
Y0282*
X04161*
Y0282*
Y0282*
X0416*
Y0282*
X0416*
Y02819*
X0416*
Y02819*
X04159*
Y02819*
X04159*
Y02818*
X04158*
Y02818*
X04153*
Y02818*
X04153*
Y02819*
Y02819*
Y02819*
Y0282*
Y0282*
Y0282*
Y0282*
Y02821*
Y02821*
Y02821*
Y02821*
Y02822*
Y02822*
Y02822*
Y02822*
Y02823*
Y02823*
Y02823*
Y02824*
Y02824*
Y02824*
Y02824*
Y02825*
Y02825*
Y02825*
Y02825*
Y02826*
Y02826*
Y02826*
Y02827*
Y02827*
Y02827*
Y02827*
Y02828*
Y02828*
Y02828*
Y02828*
Y02829*
Y02829*
X04158*
Y02829*
G37*
G36*
X0418D02*
Y02828D01*
Y02828*
Y02828*
Y02828*
Y02827*
Y02827*
Y02827*
Y02827*
Y02826*
Y02826*
Y02826*
Y02825*
Y02825*
Y02825*
Y02825*
Y02824*
Y02824*
Y02824*
Y02824*
Y02823*
Y02823*
Y02823*
Y02822*
Y02822*
Y02822*
Y02822*
Y02821*
Y02821*
Y02821*
Y02821*
Y0282*
Y0282*
Y0282*
Y0282*
Y02819*
Y02819*
Y02819*
Y02818*
Y02818*
Y02818*
Y02818*
Y02817*
Y02817*
X0418*
Y02817*
X04179*
Y02817*
X04178*
Y02817*
Y02818*
Y02818*
Y02818*
Y02818*
Y02819*
Y02819*
Y02819*
Y0282*
Y0282*
Y0282*
Y0282*
Y02821*
Y02821*
Y02821*
Y02821*
Y02822*
Y02822*
Y02822*
Y02822*
Y02823*
Y02823*
Y02823*
Y02824*
Y02824*
Y02824*
Y02824*
Y02825*
Y02825*
Y02825*
Y02825*
Y02826*
Y02826*
Y02826*
Y02827*
Y02827*
Y02827*
Y02827*
Y02828*
Y02828*
Y02828*
Y02828*
Y02829*
Y02829*
X0418*
Y02829*
G37*
G36*
X04251Y02817D02*
X04251D01*
Y02817*
X04252*
Y02817*
Y02817*
X04252*
Y02816*
X04252*
Y02816*
X04252*
Y02816*
X04252*
Y02815*
X04251*
Y02816*
X04251*
Y02816*
X0425*
Y02816*
Y02817*
X0425*
Y02817*
Y02817*
X0425*
Y02817*
Y02818*
X04251*
Y02817*
G37*
G36*
X04251Y0281D02*
X04252D01*
Y0281*
X04251*
Y02809*
Y02809*
Y02809*
X04251*
Y02809*
Y02808*
X04251*
Y02808*
Y02808*
Y02808*
X0425*
Y02807*
Y02807*
X0425*
Y02807*
Y02806*
Y02806*
X0425*
Y02806*
Y02806*
X0425*
Y02805*
Y02805*
Y02805*
X04249*
Y02805*
Y02804*
X04249*
Y02804*
Y02804*
Y02803*
X04249*
Y02803*
Y02803*
X04249*
Y02803*
Y02802*
Y02802*
X04248*
Y02802*
Y02802*
X04248*
Y02801*
Y02801*
Y02801*
X04248*
Y028*
Y028*
X04247*
Y028*
Y028*
X04247*
Y02799*
X04246*
Y028*
X04246*
Y028*
Y028*
X04245*
Y028*
Y02801*
Y02801*
X04245*
Y02801*
Y02802*
Y02802*
X04245*
Y02802*
Y02802*
X04244*
Y02803*
Y02803*
Y02803*
X04244*
Y02803*
Y02804*
Y02804*
X04244*
Y02804*
Y02805*
X04244*
Y02805*
Y02805*
Y02805*
X04243*
Y02806*
Y02806*
X04243*
Y02806*
Y02806*
Y02807*
X04243*
Y02807*
Y02807*
Y02808*
X04243*
Y02808*
Y02808*
X04242*
Y02808*
Y02809*
Y02809*
X04242*
Y02809*
Y02809*
X04242*
Y0281*
Y0281*
X04242*
Y0281*
X04243*
Y0281*
X04243*
Y0281*
Y02809*
X04244*
Y02809*
Y02809*
Y02809*
X04244*
Y02808*
Y02808*
Y02808*
X04244*
Y02808*
Y02807*
Y02807*
X04249*
Y02807*
Y02808*
X04249*
Y02808*
Y02808*
X04249*
Y02808*
Y02809*
Y02809*
X0425*
Y02809*
Y02809*
Y0281*
X0425*
Y0281*
X0425*
Y0281*
X04251*
Y0281*
G37*
G36*
X04231D02*
Y0281D01*
Y02809*
Y02809*
X04231*
Y02809*
Y02809*
X0423*
Y02808*
Y02808*
Y02808*
X0423*
Y02808*
Y02807*
X0423*
Y02807*
Y02807*
Y02806*
X04229*
Y02806*
Y02806*
X04229*
Y02806*
Y02805*
Y02805*
X04229*
Y02805*
Y02805*
X04229*
Y02804*
Y02804*
Y02804*
X04228*
Y02803*
Y02803*
X04228*
Y02803*
Y02803*
Y02802*
X04228*
Y02802*
Y02802*
X04228*
Y02802*
Y02801*
Y02801*
X04227*
Y02801*
Y028*
X04227*
Y028*
Y028*
Y028*
X04227*
Y02799*
X04225*
Y028*
Y028*
X04225*
Y028*
Y028*
Y02801*
X04225*
Y02801*
Y02801*
X04224*
Y02802*
Y02802*
Y02802*
X04224*
Y02802*
Y02803*
X04224*
Y02803*
Y02803*
Y02803*
X04223*
Y02804*
Y02804*
Y02804*
X04223*
Y02805*
Y02805*
Y02805*
X04223*
Y02805*
Y02806*
X04223*
Y02806*
Y02806*
Y02806*
X04222*
Y02807*
Y02807*
Y02807*
X04222*
Y02808*
Y02808*
X04222*
Y02808*
Y02808*
Y02809*
X04222*
Y02809*
Y02809*
X04221*
Y02809*
Y0281*
Y0281*
Y0281*
X04222*
Y0281*
X04223*
Y0281*
X04223*
Y02809*
Y02809*
Y02809*
X04223*
Y02809*
Y02808*
Y02808*
X04223*
Y02808*
Y02808*
Y02807*
X04224*
Y02807*
X04228*
Y02807*
Y02808*
Y02808*
X04229*
Y02808*
Y02808*
X04229*
Y02809*
Y02809*
Y02809*
X04229*
Y02809*
Y0281*
Y0281*
X0423*
Y0281*
X04231*
Y0281*
G37*
G36*
X04159D02*
X0416D01*
Y0281*
X04161*
Y02809*
X04161*
Y02809*
X04162*
Y02809*
Y02809*
X04162*
Y02808*
X04162*
Y02808*
Y02808*
X04162*
Y02808*
Y02807*
X04163*
Y02807*
Y02807*
Y02806*
Y02806*
X04162*
Y02806*
X04161*
Y02806*
Y02806*
X04161*
Y02807*
Y02807*
X04161*
Y02807*
Y02808*
X04161*
Y02808*
X0416*
Y02808*
X0416*
Y02808*
X0416*
Y02809*
X04159*
Y02809*
X04157*
Y02809*
X04156*
Y02808*
X04156*
Y02808*
X04155*
Y02808*
X04155*
Y02808*
X04155*
Y02807*
X04155*
Y02807*
Y02807*
Y02806*
X04154*
Y02806*
Y02806*
Y02806*
Y02805*
X04154*
Y02805*
Y02805*
Y02805*
Y02804*
Y02804*
Y02804*
Y02803*
Y02803*
Y02803*
Y02803*
X04154*
Y02802*
Y02802*
Y02802*
Y02802*
X04155*
Y02801*
Y02801*
X04155*
Y02801*
X04155*
Y028*
X04155*
Y028*
X04156*
Y028*
X04156*
Y028*
X04156*
Y02799*
X04158*
Y02799*
X04158*
Y02799*
X04159*
Y028*
X0416*
Y028*
X0416*
Y028*
X04161*
Y028*
Y02801*
X04161*
Y02801*
X04161*
Y02801*
Y02802*
X04162*
Y02801*
X04163*
Y02801*
Y02801*
X04162*
Y028*
Y028*
X04162*
Y028*
X04162*
Y028*
Y02799*
X04162*
Y02799*
X04161*
Y02799*
X04161*
Y02799*
X04161*
Y02798*
X0416*
Y02798*
X04159*
Y02798*
X04157*
Y02798*
X04156*
Y02798*
X04155*
Y02799*
X04155*
Y02799*
X04155*
Y02799*
X04154*
Y02799*
X04154*
Y028*
X04154*
Y028*
X04153*
Y028*
X04153*
Y028*
Y02801*
X04153*
Y02801*
Y02801*
Y02802*
X04153*
Y02802*
Y02802*
Y02802*
Y02803*
X04152*
Y02803*
Y02803*
Y02803*
Y02804*
Y02804*
Y02804*
Y02805*
Y02805*
Y02805*
Y02805*
X04153*
Y02806*
Y02806*
Y02806*
Y02806*
Y02807*
X04153*
Y02807*
Y02807*
X04153*
Y02808*
Y02808*
X04153*
Y02808*
Y02808*
X04154*
Y02809*
X04154*
Y02809*
X04154*
Y02809*
X04155*
Y02809*
X04155*
Y0281*
X04155*
Y0281*
X04156*
Y0281*
X04159*
Y0281*
G37*
G36*
X0424D02*
Y0281D01*
Y02809*
Y02809*
Y02809*
Y02809*
Y02808*
Y02808*
Y02808*
Y02808*
Y02807*
Y02807*
Y02807*
Y02806*
Y02806*
Y02806*
Y02806*
Y02805*
Y02805*
Y02805*
Y02805*
Y02804*
Y02804*
Y02804*
Y02803*
Y02803*
Y02803*
Y02803*
Y02802*
Y02802*
Y02802*
Y02802*
Y02801*
Y02801*
Y02801*
Y028*
Y028*
Y028*
Y028*
Y02799*
X04239*
Y028*
X04239*
Y028*
Y028*
Y028*
Y02801*
Y02801*
Y02801*
Y02802*
Y02802*
Y02802*
Y02802*
Y02803*
Y02803*
Y02803*
Y02803*
Y02804*
Y02804*
Y02804*
Y02805*
Y02805*
Y02805*
Y02805*
Y02806*
Y02806*
Y02806*
Y02806*
Y02807*
Y02807*
Y02807*
X04239*
Y02807*
X04238*
Y02807*
Y02806*
X04238*
Y02806*
X04238*
Y02806*
Y02806*
X04238*
Y02805*
X04237*
Y02805*
Y02805*
X04237*
Y02805*
X04237*
Y02804*
Y02804*
X04237*
Y02804*
X04236*
Y02803*
Y02803*
X04236*
Y02803*
X04236*
Y02803*
Y02802*
X04235*
Y02802*
X04235*
Y02802*
Y02802*
X04235*
Y02801*
X04235*
Y02801*
Y02801*
X04234*
Y028*
X04234*
Y028*
Y028*
X04234*
Y028*
X04234*
Y02799*
X04232*
Y028*
Y028*
Y028*
Y028*
Y02801*
Y02801*
Y02801*
Y02802*
Y02802*
Y02802*
Y02802*
Y02803*
Y02803*
Y02803*
Y02803*
Y02804*
Y02804*
Y02804*
Y02805*
Y02805*
Y02805*
Y02805*
Y02806*
Y02806*
Y02806*
Y02806*
Y02807*
Y02807*
Y02807*
Y02808*
Y02808*
Y02808*
Y02808*
Y02809*
Y02809*
Y02809*
Y02809*
Y0281*
Y0281*
X04232*
Y0281*
X04233*
Y0281*
X04234*
Y0281*
Y02809*
Y02809*
Y02809*
Y02809*
Y02808*
Y02808*
Y02808*
Y02808*
Y02807*
Y02807*
Y02807*
Y02806*
Y02806*
Y02806*
Y02806*
Y02805*
Y02805*
Y02805*
Y02805*
Y02804*
Y02804*
Y02804*
Y02803*
Y02803*
Y02803*
Y02803*
Y02802*
X04234*
Y02803*
Y02803*
X04234*
Y02803*
X04235*
Y02803*
Y02804*
X04235*
Y02804*
X04235*
Y02804*
Y02805*
X04235*
Y02805*
X04236*
Y02805*
Y02805*
X04236*
Y02806*
X04236*
Y02806*
Y02806*
X04237*
Y02806*
Y02807*
X04237*
Y02807*
X04237*
Y02807*
Y02808*
X04237*
Y02808*
X04238*
Y02808*
Y02808*
X04238*
Y02809*
X04238*
Y02809*
Y02809*
X04238*
Y02809*
X04239*
Y0281*
Y0281*
X04239*
Y0281*
X0424*
Y0281*
G37*
G36*
X04206D02*
X04206D01*
Y0281*
Y02809*
Y02809*
Y02809*
Y02809*
Y02808*
Y02808*
Y02808*
Y02808*
Y02807*
Y02807*
Y02807*
Y02806*
Y02806*
Y02806*
Y02806*
Y02805*
Y02805*
Y02805*
Y02805*
Y02804*
Y02804*
Y02804*
Y02803*
Y02803*
Y02803*
Y02803*
Y02802*
Y02802*
Y02802*
Y02802*
Y02801*
Y02801*
Y02801*
Y028*
Y028*
Y028*
Y028*
Y02799*
X04204*
Y028*
Y028*
X04204*
Y028*
Y028*
Y02801*
X04204*
Y02801*
Y02801*
Y02802*
X04203*
Y02802*
Y02802*
Y02802*
X04203*
Y02803*
Y02803*
X04203*
Y02803*
Y02803*
Y02804*
X04203*
Y02804*
Y02804*
Y02805*
X04202*
Y02805*
Y02805*
Y02805*
X04202*
Y02806*
Y02806*
Y02806*
X04202*
Y02806*
Y02807*
Y02807*
X04201*
Y02807*
Y02808*
Y02808*
X04201*
Y02808*
X04201*
Y02808*
Y02808*
Y02807*
X04201*
Y02807*
Y02807*
Y02806*
X042*
Y02806*
Y02806*
Y02806*
X042*
Y02805*
Y02805*
Y02805*
X042*
Y02805*
Y02804*
Y02804*
X042*
Y02804*
Y02803*
Y02803*
X04199*
Y02803*
Y02803*
Y02802*
X04199*
Y02802*
Y02802*
Y02802*
X04199*
Y02801*
Y02801*
Y02801*
X04198*
Y028*
Y028*
Y028*
X04198*
Y028*
Y02799*
X04196*
Y028*
Y028*
Y028*
Y028*
Y02801*
Y02801*
Y02801*
Y02802*
Y02802*
Y02802*
Y02802*
Y02803*
Y02803*
Y02803*
Y02803*
Y02804*
Y02804*
Y02804*
Y02805*
Y02805*
Y02805*
Y02805*
Y02806*
Y02806*
Y02806*
Y02806*
Y02807*
Y02807*
Y02807*
Y02808*
Y02808*
Y02808*
Y02808*
Y02809*
Y02809*
Y02809*
Y02809*
Y0281*
Y0281*
X04196*
Y0281*
X04197*
Y0281*
X04197*
Y0281*
Y02809*
Y02809*
Y02809*
Y02809*
Y02808*
Y02808*
Y02808*
Y02808*
Y02807*
Y02807*
Y02807*
Y02806*
Y02806*
Y02806*
Y02806*
Y02805*
Y02805*
Y02805*
Y02805*
Y02804*
Y02804*
Y02804*
Y02803*
Y02803*
Y02803*
Y02803*
Y02802*
Y02802*
Y02802*
X04198*
Y02802*
Y02802*
X04198*
Y02803*
Y02803*
Y02803*
X04198*
Y02803*
Y02804*
Y02804*
X04198*
Y02804*
Y02805*
Y02805*
X04199*
Y02805*
Y02805*
Y02806*
X04199*
Y02806*
Y02806*
Y02806*
X04199*
Y02807*
Y02807*
Y02807*
X042*
Y02808*
Y02808*
Y02808*
X042*
Y02808*
Y02809*
Y02809*
X042*
Y02809*
Y02809*
Y0281*
X042*
Y0281*
X04201*
Y0281*
X04201*
Y0281*
X04202*
Y0281*
X04202*
Y02809*
Y02809*
Y02809*
X04202*
Y02809*
Y02808*
Y02808*
X04203*
Y02808*
Y02808*
Y02807*
X04203*
Y02807*
Y02807*
Y02806*
X04203*
Y02806*
Y02806*
Y02806*
X04203*
Y02805*
Y02805*
Y02805*
X04204*
Y02805*
Y02804*
Y02804*
X04204*
Y02804*
Y02803*
Y02803*
X04204*
Y02803*
Y02803*
X04204*
Y02802*
Y02802*
X04205*
Y02802*
Y02803*
Y02803*
Y02803*
Y02803*
Y02804*
Y02804*
Y02804*
Y02805*
Y02805*
Y02805*
Y02805*
Y02806*
Y02806*
Y02806*
Y02806*
Y02807*
Y02807*
Y02807*
Y02808*
Y02808*
Y02808*
Y02808*
Y02809*
Y02809*
Y02809*
Y02809*
Y0281*
Y0281*
X04205*
Y0281*
X04206*
Y0281*
G37*
G36*
X0422D02*
X0422D01*
Y0281*
Y02809*
Y02809*
Y02809*
Y02809*
Y02808*
Y02808*
Y02808*
Y02808*
Y02807*
Y02807*
Y02807*
Y02806*
Y02806*
Y02806*
Y02806*
Y02805*
Y02805*
Y02805*
Y02805*
Y02804*
Y02804*
Y02804*
Y02803*
Y02803*
Y02803*
Y02803*
Y02802*
Y02802*
Y02802*
Y02802*
Y02801*
Y02801*
Y02801*
Y028*
Y028*
Y028*
Y028*
X0422*
Y02799*
X04219*
Y028*
X04218*
Y028*
Y028*
Y028*
Y02801*
Y02801*
Y02801*
Y02802*
Y02802*
Y02802*
Y02802*
Y02803*
Y02803*
Y02803*
Y02803*
Y02804*
Y02804*
Y02804*
Y02805*
Y02805*
Y02805*
Y02805*
Y02806*
Y02806*
Y02806*
Y02806*
Y02807*
Y02807*
Y02807*
Y02808*
Y02808*
Y02808*
Y02808*
Y02809*
Y02809*
Y02809*
Y02809*
Y0281*
Y0281*
X04219*
Y0281*
X0422*
Y0281*
G37*
G36*
X04213D02*
X04214D01*
Y0281*
X04215*
Y02809*
X04215*
Y02809*
X04216*
Y02809*
X04216*
Y02809*
Y02808*
X04216*
Y02808*
Y02808*
Y02808*
Y02807*
X04216*
Y02807*
Y02807*
X04216*
Y02806*
Y02806*
Y02806*
X04216*
Y02806*
Y02805*
X04216*
Y02805*
X04215*
Y02805*
X04215*
Y02805*
X04215*
Y02804*
Y02804*
X04215*
Y02804*
X04215*
Y02803*
X04216*
Y02803*
Y02803*
Y02803*
Y02802*
X04216*
Y02802*
Y02802*
X04216*
Y02802*
Y02801*
Y02801*
X04215*
Y02801*
Y028*
X04215*
Y028*
X04215*
Y028*
X04214*
Y028*
X04213*
Y02799*
X04209*
Y028*
X04208*
Y028*
Y028*
Y028*
Y02801*
Y02801*
Y02801*
Y02802*
Y02802*
Y02802*
Y02802*
Y02803*
Y02803*
Y02803*
Y02803*
Y02804*
Y02804*
Y02804*
Y02805*
Y02805*
Y02805*
Y02805*
Y02806*
Y02806*
Y02806*
Y02806*
Y02807*
Y02807*
Y02807*
Y02808*
Y02808*
Y02808*
Y02808*
Y02809*
Y02809*
Y02809*
Y02809*
Y0281*
Y0281*
X04209*
Y0281*
X04213*
Y0281*
G37*
G36*
X04183D02*
X04183D01*
Y0281*
Y02809*
Y02809*
Y02809*
X04178*
Y02809*
Y02808*
Y02808*
Y02808*
Y02808*
Y02807*
Y02807*
Y02807*
Y02806*
Y02806*
Y02806*
Y02806*
Y02805*
Y02805*
Y02805*
Y02805*
Y02804*
Y02804*
Y02804*
Y02803*
Y02803*
Y02803*
Y02803*
Y02802*
Y02802*
Y02802*
Y02802*
Y02801*
Y02801*
Y02801*
Y028*
Y028*
Y028*
Y028*
X04177*
Y02799*
X04176*
Y028*
X04176*
Y028*
Y028*
Y028*
Y02801*
Y02801*
Y02801*
Y02802*
Y02802*
Y02802*
Y02802*
Y02803*
Y02803*
Y02803*
Y02803*
Y02804*
Y02804*
Y02804*
Y02805*
Y02805*
Y02805*
Y02805*
Y02806*
Y02806*
Y02806*
Y02806*
Y02807*
Y02807*
Y02807*
Y02808*
Y02808*
Y02808*
Y02808*
Y02809*
Y02809*
Y02809*
Y02809*
Y0281*
Y0281*
X04176*
Y0281*
X04183*
Y0281*
G37*
G36*
X04191D02*
X04191D01*
Y0281*
X04192*
Y02809*
X04192*
Y02809*
X04193*
Y02809*
X04193*
Y02809*
Y02808*
X04193*
Y02808*
X04194*
Y02808*
Y02808*
X04194*
Y02807*
Y02807*
Y02807*
X04194*
Y02806*
Y02806*
Y02806*
Y02806*
Y02805*
Y02805*
Y02805*
Y02805*
Y02804*
Y02804*
Y02804*
Y02803*
Y02803*
Y02803*
Y02803*
X04194*
Y02802*
Y02802*
X04194*
Y02802*
Y02802*
X04193*
Y02801*
Y02801*
X04193*
Y02801*
X04193*
Y028*
X04192*
Y028*
X04192*
Y028*
X04192*
Y028*
X04191*
Y02799*
X0419*
Y02799*
X04188*
Y02799*
X04187*
Y028*
X04187*
Y028*
X04186*
Y028*
X04186*
Y028*
X04186*
Y02801*
X04185*
Y02801*
X04185*
Y02801*
X04185*
Y02802*
Y02802*
X04185*
Y02802*
Y02802*
X04184*
Y02803*
Y02803*
Y02803*
Y02803*
Y02804*
X04184*
Y02804*
Y02804*
Y02805*
Y02805*
Y02805*
Y02805*
Y02806*
Y02806*
X04184*
Y02806*
Y02806*
Y02807*
Y02807*
X04185*
Y02807*
Y02808*
X04185*
Y02808*
Y02808*
X04185*
Y02808*
X04185*
Y02809*
Y02809*
X04186*
Y02809*
X04186*
Y02809*
X04186*
Y0281*
X04187*
Y0281*
X04188*
Y0281*
X04191*
Y0281*
G37*
G36*
X04171D02*
X04171D01*
Y0281*
X04172*
Y02809*
X04173*
Y02809*
X04173*
Y02809*
X04173*
Y02809*
X04173*
Y02808*
X04174*
Y02808*
Y02808*
X04174*
Y02808*
Y02807*
X04174*
Y02807*
Y02807*
Y02806*
X04174*
Y02806*
Y02806*
Y02806*
Y02805*
Y02805*
Y02805*
Y02805*
Y02804*
Y02804*
Y02804*
Y02803*
Y02803*
X04174*
Y02803*
Y02803*
Y02802*
X04174*
Y02802*
Y02802*
X04174*
Y02802*
Y02801*
X04173*
Y02801*
X04173*
Y02801*
Y028*
X04173*
Y028*
X04172*
Y028*
X04172*
Y028*
X04171*
Y02799*
X0417*
Y02799*
X04169*
Y02799*
X04168*
Y028*
X04167*
Y028*
X04167*
Y028*
X04166*
Y028*
X04166*
Y02801*
X04165*
Y02801*
Y02801*
X04165*
Y02802*
X04165*
Y02802*
Y02802*
Y02802*
X04165*
Y02803*
Y02803*
Y02803*
X04164*
Y02803*
Y02804*
Y02804*
Y02804*
Y02805*
Y02805*
Y02805*
Y02805*
Y02806*
Y02806*
Y02806*
Y02806*
X04165*
Y02807*
Y02807*
Y02807*
X04165*
Y02808*
Y02808*
X04165*
Y02808*
Y02808*
X04165*
Y02809*
X04166*
Y02809*
X04166*
Y02809*
X04166*
Y02809*
X04167*
Y0281*
X04167*
Y0281*
X04168*
Y0281*
X04171*
Y0281*
G37*
G36*
X04222Y02791D02*
Y02791D01*
X04222*
Y0279*
Y0279*
X04221*
Y0279*
Y0279*
Y02789*
X04221*
Y02789*
Y02789*
X04221*
Y02788*
Y02788*
Y02788*
X0422*
Y02788*
Y02787*
X0422*
Y02787*
Y02787*
Y02787*
X0422*
Y02786*
Y02786*
X0422*
Y02786*
Y02785*
Y02785*
X04219*
Y02785*
Y02785*
X04219*
Y02784*
Y02784*
Y02784*
X04219*
Y02784*
Y02783*
X04219*
Y02783*
Y02783*
Y02782*
X04218*
Y02782*
Y02782*
X04218*
Y02782*
Y02781*
Y02781*
X04218*
Y02781*
Y02781*
X04216*
Y02781*
X04216*
Y02781*
Y02781*
X04216*
Y02782*
Y02782*
Y02782*
X04215*
Y02782*
Y02783*
X04215*
Y02783*
Y02783*
Y02784*
X04215*
Y02784*
Y02784*
X04215*
Y02784*
Y02785*
Y02785*
X04214*
Y02785*
Y02785*
Y02786*
X04214*
Y02786*
Y02786*
Y02787*
X04214*
Y02787*
Y02787*
X04213*
Y02787*
Y02788*
Y02788*
X04213*
Y02788*
Y02788*
Y02789*
X04213*
Y02789*
Y02789*
X04213*
Y0279*
Y0279*
Y0279*
X04212*
Y0279*
Y02791*
X04212*
Y02791*
Y02791*
X04214*
Y02791*
Y02791*
Y0279*
X04214*
Y0279*
Y0279*
Y0279*
X04214*
Y02789*
Y02789*
Y02789*
X04215*
Y02788*
Y02788*
X04215*
Y02788*
X04219*
Y02788*
X04219*
Y02788*
X04219*
Y02789*
Y02789*
Y02789*
X0422*
Y0279*
Y0279*
Y0279*
X0422*
Y0279*
Y02791*
X0422*
Y02791*
Y02791*
X04222*
Y02791*
G37*
G36*
X0418Y02791D02*
X0418D01*
Y02791*
X04181*
Y02791*
X04181*
Y0279*
X04182*
Y0279*
Y0279*
X04182*
Y0279*
X04182*
Y02789*
X04182*
Y02789*
Y02789*
Y02788*
X04183*
Y02788*
Y02788*
X04182*
Y02788*
X04181*
Y02788*
X04181*
Y02788*
Y02788*
X04181*
Y02789*
Y02789*
X0418*
Y02789*
X0418*
Y0279*
X0418*
Y0279*
X04179*
Y0279*
X04177*
Y0279*
X04176*
Y0279*
X04176*
Y02789*
X04176*
Y02789*
X04176*
Y02789*
X04175*
Y02788*
Y02788*
X04175*
Y02788*
Y02788*
Y02787*
Y02787*
X04175*
Y02787*
Y02787*
Y02786*
Y02786*
Y02786*
Y02785*
Y02785*
Y02785*
Y02785*
X04175*
Y02784*
Y02784*
Y02784*
Y02784*
X04175*
Y02783*
Y02783*
X04176*
Y02783*
X04176*
Y02782*
X04176*
Y02782*
X04176*
Y02782*
X04177*
Y02782*
X0418*
Y02782*
X0418*
Y02782*
X0418*
Y02782*
X0418*
Y02783*
X04181*
Y02783*
Y02783*
X04181*
Y02784*
X04181*
Y02784*
X04182*
Y02784*
X04182*
Y02783*
Y02783*
Y02783*
X04182*
Y02782*
Y02782*
X04182*
Y02782*
X04182*
Y02782*
Y02781*
X04181*
Y02781*
X04181*
Y02781*
X0418*
Y02781*
X0418*
Y0278*
X04177*
Y02781*
X04176*
Y02781*
X04176*
Y02781*
X04175*
Y02781*
X04175*
Y02782*
X04175*
Y02782*
X04174*
Y02782*
X04174*
Y02782*
Y02783*
X04174*
Y02783*
Y02783*
X04174*
Y02784*
Y02784*
Y02784*
X04173*
Y02784*
Y02785*
Y02785*
Y02785*
Y02785*
Y02786*
Y02786*
Y02786*
Y02787*
Y02787*
Y02787*
Y02787*
Y02788*
X04174*
Y02788*
Y02788*
Y02788*
X04174*
Y02789*
Y02789*
X04174*
Y02789*
Y0279*
X04174*
Y0279*
X04175*
Y0279*
X04175*
Y0279*
X04175*
Y02791*
X04176*
Y02791*
X04176*
Y02791*
X04177*
Y02791*
X0418*
Y02791*
G37*
G36*
X04212Y02791D02*
Y02791D01*
Y0279*
Y0279*
X04211*
Y0279*
X04206*
Y0279*
Y02789*
Y02789*
Y02789*
Y02788*
Y02788*
Y02788*
Y02788*
Y02787*
Y02787*
Y02787*
Y02787*
Y02786*
Y02786*
Y02786*
Y02785*
Y02785*
Y02785*
Y02785*
Y02784*
Y02784*
Y02784*
Y02784*
Y02783*
Y02783*
Y02783*
Y02782*
Y02782*
Y02782*
Y02782*
Y02781*
Y02781*
Y02781*
Y02781*
X04205*
Y02781*
Y02781*
Y02781*
Y02782*
Y02782*
Y02782*
Y02782*
Y02783*
Y02783*
Y02783*
Y02784*
Y02784*
Y02784*
Y02784*
Y02785*
Y02785*
Y02785*
Y02785*
Y02786*
Y02786*
Y02786*
Y02787*
Y02787*
Y02787*
Y02787*
Y02788*
Y02788*
Y02788*
Y02788*
Y02789*
Y02789*
Y02789*
Y0279*
Y0279*
Y0279*
Y0279*
Y02791*
Y02791*
Y02791*
X04212*
Y02791*
G37*
G36*
X04203D02*
Y02791D01*
Y0279*
Y0279*
X04203*
Y0279*
X04197*
Y0279*
Y02789*
Y02789*
Y02789*
Y02788*
Y02788*
Y02788*
Y02788*
Y02787*
Y02787*
Y02787*
Y02787*
X04197*
Y02786*
X04202*
Y02786*
Y02786*
Y02785*
Y02785*
Y02785*
X04197*
Y02785*
Y02784*
Y02784*
Y02784*
Y02784*
Y02783*
Y02783*
Y02783*
Y02782*
Y02782*
Y02782*
X04203*
Y02782*
X04203*
Y02781*
Y02781*
Y02781*
Y02781*
X04195*
Y02781*
Y02781*
Y02781*
Y02782*
Y02782*
Y02782*
Y02782*
Y02783*
Y02783*
Y02783*
Y02784*
Y02784*
Y02784*
Y02784*
Y02785*
Y02785*
Y02785*
Y02785*
Y02786*
Y02786*
Y02786*
Y02787*
Y02787*
Y02787*
Y02787*
Y02788*
Y02788*
Y02788*
Y02788*
Y02789*
Y02789*
Y02789*
Y0279*
Y0279*
Y0279*
Y0279*
Y02791*
Y02791*
Y02791*
X04203*
Y02791*
G37*
G36*
X0419Y02791D02*
X04191D01*
Y02791*
X04191*
Y02791*
X04192*
Y0279*
X04192*
Y0279*
X04192*
Y0279*
Y0279*
X04192*
Y02789*
Y02789*
Y02789*
X04193*
Y02788*
Y02788*
Y02788*
Y02788*
Y02787*
Y02787*
Y02787*
Y02787*
Y02786*
Y02786*
Y02786*
Y02785*
Y02785*
Y02785*
Y02785*
Y02784*
Y02784*
Y02784*
Y02784*
Y02783*
Y02783*
Y02783*
Y02782*
Y02782*
Y02782*
Y02782*
Y02781*
Y02781*
Y02781*
Y02781*
X04191*
Y02781*
Y02781*
Y02781*
Y02782*
Y02782*
Y02782*
Y02782*
Y02783*
Y02783*
Y02783*
Y02784*
Y02784*
Y02784*
Y02784*
Y02785*
Y02785*
Y02785*
Y02785*
Y02786*
Y02786*
Y02786*
Y02787*
Y02787*
Y02787*
Y02787*
Y02788*
Y02788*
Y02788*
X04191*
Y02788*
Y02789*
Y02789*
X04191*
Y02789*
Y0279*
X0419*
Y0279*
X0419*
Y0279*
X04188*
Y0279*
X04187*
Y0279*
X04186*
Y02789*
Y02789*
X04186*
Y02789*
Y02788*
X04186*
Y02788*
Y02788*
Y02788*
Y02787*
Y02787*
Y02787*
Y02787*
Y02786*
Y02786*
Y02786*
Y02785*
Y02785*
Y02785*
Y02785*
Y02784*
Y02784*
Y02784*
Y02784*
Y02783*
Y02783*
Y02783*
Y02782*
Y02782*
Y02782*
Y02782*
Y02781*
Y02781*
Y02781*
Y02781*
X04185*
Y02781*
Y02781*
Y02781*
Y02782*
Y02782*
Y02782*
Y02782*
Y02783*
Y02783*
Y02783*
Y02784*
Y02784*
Y02784*
Y02784*
Y02785*
Y02785*
Y02785*
Y02785*
Y02786*
Y02786*
Y02786*
Y02787*
Y02787*
Y02787*
Y02787*
Y02788*
Y02788*
Y02788*
Y02788*
Y02789*
Y02789*
X04185*
Y02789*
Y0279*
Y0279*
X04185*
Y0279*
X04185*
Y0279*
X04186*
Y02791*
X04186*
Y02791*
X04186*
Y02791*
X04187*
Y02791*
X0419*
Y02791*
G37*
G36*
X04169D02*
X0417D01*
Y02791*
X0417*
Y02791*
X04171*
Y0279*
X04171*
Y0279*
X04171*
Y0279*
X04171*
Y0279*
Y02789*
X04172*
Y02789*
Y02789*
Y02788*
Y02788*
Y02788*
Y02788*
Y02787*
Y02787*
X04171*
Y02787*
Y02787*
X04171*
Y02786*
X04171*
Y02786*
X04171*
Y02786*
X0417*
Y02785*
X04169*
Y02785*
X04168*
Y02785*
X04167*
Y02785*
X04166*
Y02784*
X04166*
Y02784*
X04165*
Y02784*
X04165*
Y02784*
Y02783*
Y02783*
Y02783*
Y02782*
X04165*
Y02782*
X04166*
Y02782*
X04166*
Y02782*
X04169*
Y02782*
X04169*
Y02782*
X0417*
Y02782*
X0417*
Y02783*
Y02783*
X0417*
Y02783*
Y02784*
X04171*
Y02783*
Y02783*
Y02783*
X04171*
Y02782*
Y02782*
Y02782*
X04171*
Y02782*
X04171*
Y02781*
X0417*
Y02781*
X0417*
Y02781*
X0417*
Y02781*
X04169*
Y0278*
X04166*
Y02781*
X04165*
Y02781*
X04165*
Y02781*
X04165*
Y02781*
X04164*
Y02782*
X04164*
Y02782*
Y02782*
X04164*
Y02782*
Y02783*
Y02783*
Y02783*
Y02784*
Y02784*
Y02784*
Y02784*
X04164*
Y02785*
X04164*
Y02785*
Y02785*
X04165*
Y02785*
X04165*
Y02786*
X04166*
Y02786*
X04167*
Y02786*
X04168*
Y02787*
X04169*
Y02787*
X0417*
Y02787*
X0417*
Y02787*
X0417*
Y02788*
X0417*
Y02788*
Y02788*
Y02788*
Y02789*
Y02789*
X0417*
Y02789*
Y0279*
X0417*
Y0279*
X04169*
Y0279*
X04167*
Y0279*
X04166*
Y0279*
X04165*
Y02789*
X04165*
Y02789*
Y02789*
X04165*
Y02788*
Y02788*
Y02788*
X04165*
Y02788*
X04164*
Y02788*
X04163*
Y02788*
Y02788*
X04164*
Y02789*
Y02789*
Y02789*
X04164*
Y0279*
Y0279*
X04164*
Y0279*
X04164*
Y0279*
X04165*
Y02791*
X04165*
Y02791*
X04165*
Y02791*
X04166*
Y02791*
X04169*
Y02791*
G37*
G36*
X04162Y02791D02*
X04162D01*
Y02791*
Y0279*
Y0279*
X04162*
Y0279*
X04155*
Y0279*
Y02789*
Y02789*
Y02789*
Y02788*
Y02788*
Y02788*
Y02788*
Y02787*
Y02787*
Y02787*
Y02787*
Y02786*
Y02786*
Y02786*
X04161*
Y02785*
Y02785*
Y02785*
Y02785*
Y02784*
X04155*
Y02784*
Y02784*
Y02784*
Y02783*
Y02783*
Y02783*
Y02782*
Y02782*
Y02782*
Y02782*
Y02781*
Y02781*
Y02781*
Y02781*
X04162*
Y0278*
Y0278*
Y0278*
Y02779*
X04161*
Y02779*
X04153*
Y02779*
Y0278*
Y0278*
Y0278*
Y02781*
Y02781*
Y02781*
Y02781*
Y02782*
Y02782*
Y02782*
Y02782*
Y02783*
Y02783*
Y02783*
Y02784*
Y02784*
Y02784*
Y02784*
Y02785*
Y02785*
Y02785*
Y02785*
Y02786*
Y02786*
Y02786*
Y02787*
Y02787*
Y02787*
Y02787*
Y02788*
Y02788*
Y02788*
Y02788*
Y02789*
Y02789*
Y02789*
Y0279*
Y0279*
Y0279*
Y0279*
Y02791*
Y02791*
Y02791*
X04162*
Y02791*
G37*
G36*
X04142Y02845D02*
Y02845D01*
Y02845*
Y02845*
Y02844*
Y02844*
Y02844*
Y02843*
Y02843*
Y02843*
Y02843*
Y02842*
Y02842*
Y02842*
Y02842*
Y02841*
Y02841*
Y02841*
Y0284*
Y0284*
Y0284*
Y0284*
Y02839*
Y02839*
Y02839*
Y02839*
Y02838*
Y02838*
Y02838*
Y02837*
Y02837*
Y02837*
Y02837*
Y02836*
Y02836*
Y02836*
Y02836*
Y02835*
Y02835*
Y02835*
Y02834*
Y02834*
Y02834*
Y02834*
Y02833*
Y02833*
Y02833*
Y02833*
Y02832*
Y02832*
Y02832*
Y02831*
Y02831*
Y02831*
Y02831*
Y0283*
Y0283*
Y0283*
Y0283*
Y02829*
Y02829*
Y02829*
Y02828*
Y02828*
Y02828*
Y02828*
Y02827*
Y02827*
Y02827*
Y02827*
Y02826*
Y02826*
Y02826*
Y02825*
Y02825*
Y02825*
Y02825*
Y02824*
Y02824*
Y02824*
Y02824*
Y02823*
Y02823*
Y02823*
Y02822*
Y02822*
Y02822*
Y02822*
Y02821*
Y02821*
Y02821*
Y02821*
Y0282*
Y0282*
Y0282*
Y0282*
Y02819*
Y02819*
Y02819*
Y02818*
Y02818*
Y02818*
Y02818*
Y02817*
Y02817*
Y02817*
Y02817*
Y02816*
Y02816*
Y02816*
Y02815*
Y02815*
Y02815*
Y02815*
Y02814*
Y02814*
Y02814*
Y02814*
Y02813*
Y02813*
Y02813*
Y02812*
Y02812*
Y02812*
Y02812*
Y02811*
Y02811*
Y02811*
Y02811*
Y0281*
Y0281*
Y0281*
Y02809*
Y02809*
Y02809*
Y02809*
Y02808*
Y02808*
Y02808*
Y02808*
Y02807*
Y02807*
Y02807*
Y02806*
Y02806*
Y02806*
Y02806*
Y02805*
Y02805*
Y02805*
Y02805*
Y02804*
Y02804*
Y02804*
Y02803*
Y02803*
Y02803*
Y02803*
Y02802*
Y02802*
Y02802*
Y02802*
Y02801*
Y02801*
Y02801*
Y028*
Y028*
Y028*
Y028*
Y02799*
Y02799*
Y02799*
Y02799*
Y02798*
Y02798*
Y02798*
Y02797*
Y02797*
Y02797*
Y02797*
Y02796*
Y02796*
Y02796*
Y02796*
Y02795*
Y02795*
Y02795*
Y02794*
Y02794*
Y02794*
Y02794*
Y02793*
Y02793*
Y02793*
Y02793*
Y02792*
Y02792*
Y02792*
Y02791*
Y02791*
Y02791*
Y02791*
Y0279*
Y0279*
Y0279*
Y0279*
Y02789*
Y02789*
Y02789*
Y02788*
Y02788*
Y02788*
Y02788*
Y02787*
Y02787*
Y02787*
Y02787*
Y02786*
Y02786*
Y02786*
Y02785*
Y02785*
Y02785*
Y02785*
Y02784*
Y02784*
Y02784*
Y02784*
Y02783*
Y02783*
Y02783*
Y02782*
Y02782*
Y02782*
Y02782*
Y02781*
Y02781*
Y02781*
Y02781*
Y0278*
Y0278*
Y0278*
Y02779*
Y02779*
Y02779*
Y02779*
Y02778*
Y02778*
Y02778*
Y02778*
Y02777*
Y02777*
Y02777*
Y02776*
Y02776*
Y02776*
Y02776*
Y02775*
Y02775*
Y02775*
Y02775*
Y02774*
Y02774*
Y02774*
Y02773*
X04141*
Y02774*
Y02774*
Y02774*
Y02775*
Y02775*
Y02775*
Y02775*
Y02776*
Y02776*
Y02776*
Y02776*
Y02777*
Y02777*
Y02777*
Y02778*
Y02778*
Y02778*
Y02778*
Y02779*
Y02779*
Y02779*
Y02779*
Y0278*
Y0278*
Y0278*
Y02781*
Y02781*
Y02781*
Y02781*
Y02782*
Y02782*
Y02782*
Y02782*
Y02783*
Y02783*
Y02783*
Y02784*
Y02784*
Y02784*
Y02784*
Y02785*
Y02785*
Y02785*
Y02785*
Y02786*
Y02786*
Y02786*
Y02787*
Y02787*
Y02787*
Y02787*
Y02788*
Y02788*
Y02788*
Y02788*
Y02789*
Y02789*
Y02789*
Y0279*
Y0279*
Y0279*
Y0279*
Y02791*
Y02791*
Y02791*
Y02791*
Y02792*
Y02792*
Y02792*
Y02793*
Y02793*
Y02793*
Y02793*
Y02794*
Y02794*
Y02794*
Y02794*
Y02795*
Y02795*
Y02795*
Y02796*
Y02796*
Y02796*
Y02796*
Y02797*
Y02797*
Y02797*
Y02797*
Y02798*
Y02798*
Y02798*
Y02799*
Y02799*
Y02799*
Y02799*
Y028*
Y028*
Y028*
Y028*
Y02801*
Y02801*
Y02801*
Y02802*
Y02802*
Y02802*
Y02802*
Y02803*
Y02803*
Y02803*
Y02803*
Y02804*
Y02804*
Y02804*
Y02805*
Y02805*
Y02805*
Y02805*
Y02806*
Y02806*
Y02806*
Y02806*
Y02807*
Y02807*
Y02807*
Y02808*
Y02808*
Y02808*
Y02808*
Y02809*
Y02809*
Y02809*
Y02809*
Y0281*
Y0281*
Y0281*
Y02811*
Y02811*
Y02811*
Y02811*
Y02812*
Y02812*
Y02812*
Y02812*
Y02813*
Y02813*
Y02813*
Y02814*
Y02814*
Y02814*
Y02814*
Y02815*
Y02815*
Y02815*
Y02815*
Y02816*
Y02816*
Y02816*
Y02817*
Y02817*
Y02817*
Y02817*
Y02818*
Y02818*
Y02818*
Y02818*
Y02819*
Y02819*
Y02819*
Y0282*
Y0282*
Y0282*
Y0282*
Y02821*
Y02821*
Y02821*
Y02821*
Y02822*
Y02822*
Y02822*
Y02822*
Y02823*
Y02823*
Y02823*
Y02824*
Y02824*
Y02824*
Y02824*
Y02825*
Y02825*
Y02825*
Y02825*
Y02826*
Y02826*
Y02826*
Y02827*
Y02827*
Y02827*
Y02827*
Y02828*
Y02828*
Y02828*
Y02828*
Y02829*
Y02829*
Y02829*
Y0283*
Y0283*
Y0283*
Y0283*
Y02831*
Y02831*
Y02831*
Y02831*
Y02832*
Y02832*
Y02832*
Y02833*
Y02833*
Y02833*
Y02833*
Y02834*
Y02834*
Y02834*
Y02834*
Y02835*
Y02835*
Y02835*
Y02836*
Y02836*
Y02836*
Y02836*
Y02837*
Y02837*
Y02837*
Y02837*
Y02838*
Y02838*
Y02838*
Y02839*
Y02839*
Y02839*
Y02839*
Y0284*
Y0284*
Y0284*
Y0284*
Y02841*
Y02841*
Y02841*
Y02842*
Y02842*
Y02842*
Y02842*
Y02843*
Y02843*
Y02843*
Y02843*
Y02844*
Y02844*
Y02844*
Y02845*
Y02845*
Y02845*
Y02845*
Y02846*
X04142*
Y02845*
G37*
%LNntc-2*%
%LPC*%
G36*
X04207Y02898D02*
X04204D01*
Y02898*
Y02897*
Y02897*
Y02897*
X04205*
Y02897*
Y02896*
Y02896*
X04205*
Y02896*
Y02896*
X04205*
Y02895*
Y02895*
Y02895*
X04206*
Y02894*
Y02894*
Y02894*
Y02894*
X04206*
Y02894*
Y02894*
Y02894*
X04206*
Y02895*
Y02895*
Y02895*
X04207*
Y02896*
Y02896*
Y02896*
X04207*
Y02896*
Y02897*
X04207*
Y02897*
Y02897*
Y02897*
X04207*
Y02898*
Y02898*
G37*
G36*
X04168Y02897D02*
X04165D01*
Y02896*
X04165*
Y02896*
Y02896*
Y02896*
Y02895*
Y02895*
Y02895*
Y02894*
Y02894*
Y02894*
Y02894*
Y02893*
Y02893*
X04169*
Y02893*
X0417*
Y02894*
X0417*
Y02894*
X0417*
Y02894*
Y02894*
Y02895*
Y02895*
Y02895*
Y02896*
X0417*
Y02896*
X0417*
Y02896*
X04169*
Y02896*
X04168*
Y02897*
G37*
G36*
X04217Y02902D02*
X04215D01*
Y02901*
X04215*
Y02901*
Y02901*
Y029*
Y029*
Y029*
Y029*
Y02899*
Y02899*
Y02899*
Y02899*
Y02898*
Y02898*
Y02898*
Y02897*
Y02897*
Y02897*
Y02897*
Y02896*
Y02896*
Y02896*
Y02896*
Y02895*
Y02895*
Y02895*
Y02894*
Y02894*
Y02894*
Y02894*
Y02893*
X04215*
Y02893*
X04218*
Y02893*
X04219*
Y02894*
X04219*
Y02894*
X0422*
Y02894*
X0422*
Y02894*
Y02895*
X0422*
Y02895*
Y02895*
X0422*
Y02896*
Y02896*
Y02896*
Y02896*
Y02897*
Y02897*
Y02897*
Y02897*
Y02898*
Y02898*
Y02898*
Y02899*
Y02899*
Y02899*
X0422*
Y02899*
Y029*
X0422*
Y029*
Y029*
X0422*
Y029*
X04219*
Y02901*
X04219*
Y02901*
X04219*
Y02901*
X04217*
Y02902*
G37*
G36*
X04194D02*
X04192D01*
Y02901*
X04192*
Y02901*
Y02901*
Y029*
Y029*
Y029*
Y029*
Y02899*
Y02899*
Y02899*
Y02899*
Y02898*
Y02898*
Y02898*
Y02897*
Y02897*
Y02897*
Y02897*
Y02896*
Y02896*
Y02896*
Y02896*
Y02895*
Y02895*
Y02895*
Y02894*
Y02894*
Y02894*
Y02894*
Y02893*
Y02893*
X04195*
Y02893*
X04196*
Y02894*
X04197*
Y02894*
X04197*
Y02894*
X04197*
Y02894*
X04197*
Y02895*
Y02895*
X04198*
Y02895*
Y02896*
Y02896*
Y02896*
X04198*
Y02896*
Y02897*
Y02897*
Y02897*
Y02897*
Y02898*
Y02898*
Y02898*
X04198*
Y02899*
Y02899*
Y02899*
Y02899*
X04197*
Y029*
Y029*
X04197*
Y029*
Y029*
X04197*
Y02901*
X04196*
Y02901*
X04196*
Y02901*
X04194*
Y02902*
G37*
G36*
X04089Y02852D02*
X04084D01*
Y02852*
Y02851*
X04085*
Y02851*
X04086*
Y02851*
X04089*
Y02851*
X0409*
Y02851*
Y02851*
X0409*
Y02851*
X04089*
Y02852*
X04089*
Y02852*
G37*
G36*
X04103D02*
X04097D01*
Y02852*
Y02851*
X04098*
Y02851*
X04098*
Y02851*
X04098*
Y02851*
X04098*
Y0285*
X04099*
Y0285*
X04099*
Y0285*
X041*
Y02849*
X04103*
Y02849*
X04105*
Y02849*
X04104*
Y0285*
X04104*
Y0285*
Y0285*
X04104*
Y02851*
X04104*
Y02851*
Y02851*
X04103*
Y02851*
X04103*
Y02852*
X04103*
Y02852*
G37*
G36*
X04085Y0285D02*
X04083D01*
Y0285*
X04084*
Y0285*
X04085*
Y02849*
X04086*
Y02849*
X04086*
Y02849*
X04088*
Y02849*
X04087*
Y02849*
X04087*
Y0285*
X04086*
Y0285*
X04085*
Y0285*
G37*
G36*
X04117Y02852D02*
X04111D01*
Y02852*
X04111*
Y02851*
X04111*
Y02851*
Y02851*
X04111*
Y02851*
Y0285*
X04111*
Y0285*
Y0285*
X04112*
Y02849*
Y02849*
X04112*
Y02849*
Y02849*
X04112*
Y02848*
X04113*
Y02848*
X04116*
Y02848*
X04118*
Y02848*
Y02848*
Y02849*
Y02849*
X04118*
Y02849*
Y02849*
Y0285*
X04117*
Y0285*
Y0285*
Y02851*
X04117*
Y02851*
Y02851*
Y02851*
X04117*
Y02852*
Y02852*
G37*
G36*
X04091Y0285D02*
X04088D01*
Y02849*
X04089*
Y02849*
X04089*
Y02849*
X0409*
Y02849*
X0409*
Y02848*
X0409*
Y02848*
X04091*
Y02848*
X04092*
Y02848*
X04093*
Y02847*
X04095*
Y02848*
X04095*
Y02848*
X04094*
Y02848*
X04094*
Y02848*
X04093*
Y02849*
X04093*
Y02849*
X04093*
Y02849*
X04092*
Y02849*
X04091*
Y0285*
G37*
G36*
X04131Y02852D02*
X04125D01*
Y02852*
X04124*
Y02851*
X04125*
Y02851*
Y02851*
Y02851*
Y0285*
Y0285*
X04125*
Y0285*
Y02849*
Y02849*
Y02849*
Y02849*
X04125*
Y02848*
Y02848*
Y02848*
Y02848*
Y02847*
X04125*
Y02847*
X04127*
Y02847*
X04129*
Y02846*
X04131*
Y02847*
Y02847*
Y02847*
Y02848*
Y02848*
Y02848*
Y02848*
Y02849*
Y02849*
Y02849*
X04131*
Y02849*
Y0285*
Y0285*
Y0285*
Y02851*
Y02851*
Y02851*
Y02851*
Y02852*
X04131*
Y02852*
G37*
G36*
X04096Y02849D02*
X04095D01*
Y02849*
Y02849*
X04095*
Y02848*
X04095*
Y02848*
X04096*
Y02848*
X04096*
Y02848*
X04096*
Y02847*
X04097*
Y02847*
X04097*
Y02847*
X04098*
Y02846*
X04099*
Y02846*
X041*
Y02846*
X04101*
Y02846*
X04102*
Y02846*
Y02846*
Y02846*
X04101*
Y02847*
X04101*
Y02847*
X04101*
Y02847*
X04101*
Y02848*
X041*
Y02848*
X041*
Y02848*
X041*
Y02848*
X04099*
Y02849*
X04099*
Y02849*
X04096*
Y02849*
G37*
G36*
X04096Y02846D02*
X04095D01*
Y02846*
X04095*
Y02846*
X04096*
Y02846*
X04097*
Y02845*
X04098*
Y02846*
X04097*
Y02846*
X04097*
Y02846*
X04096*
Y02846*
G37*
G36*
X04102Y02849D02*
X04101D01*
Y02848*
Y02848*
X04101*
Y02848*
X04101*
Y02848*
X04101*
Y02847*
X04102*
Y02847*
X04102*
Y02847*
X04102*
Y02846*
Y02846*
X04103*
Y02846*
X04103*
Y02846*
X04103*
Y02845*
X04104*
Y02845*
X04106*
Y02845*
X04107*
Y02845*
X04108*
Y02845*
Y02845*
X04107*
Y02845*
Y02846*
X04107*
Y02846*
X04107*
Y02846*
Y02846*
X04107*
Y02847*
X04106*
Y02847*
X04106*
Y02847*
Y02848*
X04106*
Y02848*
X04105*
Y02848*
X04104*
Y02848*
X04102*
Y02849*
G37*
G36*
X0411Y02848D02*
X04107D01*
Y02848*
X04107*
Y02847*
Y02847*
X04107*
Y02847*
X04108*
Y02846*
X04108*
Y02846*
Y02846*
X04108*
Y02846*
X04108*
Y02845*
Y02845*
X04109*
Y02845*
X04109*
Y02845*
Y02844*
X04109*
Y02844*
X04111*
Y02844*
X04112*
Y02843*
X04114*
Y02843*
X04114*
Y02843*
Y02844*
Y02844*
Y02844*
X04114*
Y02845*
Y02845*
X04113*
Y02845*
Y02845*
X04113*
Y02846*
Y02846*
X04113*
Y02846*
Y02846*
X04113*
Y02847*
Y02847*
X04112*
Y02847*
X04112*
Y02848*
X0411*
Y02848*
G37*
G36*
X041Y02846D02*
X04099D01*
Y02845*
Y02845*
X041*
Y02845*
X041*
Y02845*
X04101*
Y02844*
X04101*
Y02844*
X04101*
Y02844*
X04102*
Y02843*
X04103*
Y02843*
X04104*
Y02843*
X04105*
Y02843*
Y02843*
X04104*
Y02844*
X04104*
Y02844*
X04104*
Y02844*
X04104*
Y02845*
X04103*
Y02845*
X04103*
Y02845*
X04101*
Y02845*
X041*
Y02846*
G37*
G36*
X04115Y02847D02*
X04113D01*
Y02847*
Y02847*
Y02846*
X04113*
Y02846*
Y02846*
X04114*
Y02846*
Y02845*
X04114*
Y02845*
Y02845*
X04114*
Y02845*
Y02844*
X04114*
Y02844*
Y02844*
X04115*
Y02843*
Y02843*
X04115*
Y02843*
X04116*
Y02843*
X04118*
Y02842*
X04119*
Y02842*
X0412*
Y02842*
Y02843*
Y02843*
X0412*
Y02843*
Y02843*
Y02844*
X04119*
Y02844*
Y02844*
Y02845*
X04119*
Y02845*
Y02845*
Y02845*
X04119*
Y02846*
Y02846*
Y02846*
X04119*
Y02846*
Y02847*
X04118*
Y02847*
X04115*
Y02847*
G37*
G36*
X04121Y02847D02*
X0412D01*
Y02846*
Y02846*
Y02846*
Y02846*
X0412*
Y02845*
Y02845*
Y02845*
X0412*
Y02845*
Y02844*
Y02844*
X0412*
Y02844*
Y02843*
Y02843*
X04121*
Y02843*
Y02843*
Y02842*
X04121*
Y02842*
Y02842*
X04122*
Y02842*
X04123*
Y02841*
X04124*
Y02841*
X04126*
Y02841*
Y02842*
Y02842*
Y02842*
X04126*
Y02842*
Y02843*
Y02843*
Y02843*
Y02843*
X04125*
Y02844*
Y02844*
Y02844*
Y02845*
Y02845*
X04125*
Y02845*
Y02845*
Y02846*
Y02846*
X04125*
Y02846*
X04123*
Y02846*
X04121*
Y02847*
G37*
G36*
X04106Y02845D02*
X04105D01*
Y02844*
Y02844*
Y02844*
X04105*
Y02843*
X04105*
Y02843*
X04105*
Y02843*
X04106*
Y02843*
X04106*
Y02842*
X04107*
Y02842*
X04107*
Y02842*
X04108*
Y02842*
X04109*
Y02841*
X0411*
Y02841*
X0411*
Y02841*
X0411*
Y02842*
X0411*
Y02842*
Y02842*
X0411*
Y02842*
X04109*
Y02843*
Y02843*
X04109*
Y02843*
X04109*
Y02843*
Y02844*
X04108*
Y02844*
X04107*
Y02844*
X04106*
Y02845*
G37*
G36*
X04105Y02842D02*
X04105D01*
Y02842*
X04105*
Y02841*
X04105*
Y02841*
X04105*
Y02841*
X04106*
Y0284*
X04107*
Y0284*
X04107*
Y0284*
X04108*
Y0284*
Y0284*
X04107*
Y02841*
X04107*
Y02841*
X04107*
Y02841*
X04106*
Y02842*
X04105*
Y02842*
G37*
G36*
X04128Y02846D02*
X04126D01*
Y02846*
Y02845*
Y02845*
Y02845*
X04126*
Y02845*
Y02844*
Y02844*
Y02844*
Y02843*
Y02843*
X04126*
Y02843*
Y02843*
Y02842*
Y02842*
Y02842*
X04126*
Y02842*
Y02841*
Y02841*
Y02841*
X04127*
Y0284*
X04129*
Y0284*
X0413*
Y0284*
X04131*
Y0284*
X04132*
Y0284*
X04132*
Y0284*
Y0284*
X04132*
Y02841*
Y02841*
Y02841*
Y02842*
Y02842*
Y02842*
Y02842*
Y02843*
Y02843*
Y02843*
Y02843*
X04131*
Y02844*
Y02844*
Y02844*
Y02845*
Y02845*
Y02845*
Y02845*
X04131*
Y02846*
X04128*
Y02846*
G37*
G36*
X04111Y02843D02*
X0411D01*
Y02843*
Y02843*
X0411*
Y02843*
Y02842*
X04111*
Y02842*
X04111*
Y02842*
Y02842*
X04111*
Y02841*
X04111*
Y02841*
X04112*
Y02841*
Y0284*
X04112*
Y0284*
X04113*
Y0284*
X04114*
Y0284*
X04114*
Y02839*
X04115*
Y02839*
X04116*
Y02839*
Y0284*
Y0284*
X04116*
Y0284*
Y0284*
X04116*
Y02841*
Y02841*
X04115*
Y02841*
Y02842*
X04115*
Y02842*
Y02842*
X04115*
Y02842*
X04114*
Y02843*
X04113*
Y02843*
X04112*
Y02843*
X04111*
Y02843*
G37*
G36*
X04134Y02845D02*
X04132D01*
Y02845*
Y02845*
Y02845*
Y02844*
Y02844*
Y02844*
X04132*
Y02843*
Y02843*
Y02843*
Y02843*
Y02842*
Y02842*
Y02842*
Y02842*
Y02841*
Y02841*
X04133*
Y02841*
Y0284*
Y0284*
Y0284*
Y0284*
X04133*
Y02839*
X04134*
Y02839*
X04135*
Y02839*
X04137*
Y02839*
X04137*
Y02839*
Y02839*
X04138*
Y02839*
Y0284*
Y0284*
Y0284*
Y0284*
Y02841*
Y02841*
Y02841*
Y02842*
Y02842*
Y02842*
Y02842*
Y02843*
Y02843*
Y02843*
Y02843*
Y02844*
Y02844*
Y02844*
Y02845*
X04137*
Y02845*
X04136*
Y02845*
X04134*
Y02845*
G37*
G36*
X04116Y02842D02*
X04116D01*
Y02842*
Y02842*
Y02842*
Y02841*
X04116*
Y02841*
Y02841*
X04116*
Y0284*
Y0284*
X04116*
Y0284*
Y0284*
X04117*
Y02839*
Y02839*
X04117*
Y02839*
X04117*
Y02839*
X04117*
Y02838*
X04118*
Y02838*
X04119*
Y02838*
X0412*
Y02837*
X04121*
Y02837*
X04122*
Y02837*
Y02838*
Y02838*
X04121*
Y02838*
Y02839*
Y02839*
X04121*
Y02839*
Y02839*
Y0284*
X04121*
Y0284*
Y0284*
Y0284*
X0412*
Y02841*
Y02841*
Y02841*
X0412*
Y02842*
X04119*
Y02842*
X04118*
Y02842*
X04116*
Y02842*
G37*
G36*
X04109Y0284D02*
X04108D01*
Y0284*
Y0284*
X04109*
Y0284*
X04109*
Y02839*
X04109*
Y02839*
X0411*
Y02839*
X0411*
Y02839*
X0411*
Y02838*
X04111*
Y02838*
X04111*
Y02838*
X04111*
Y02837*
X04112*
Y02837*
X04113*
Y02837*
X04113*
Y02837*
Y02837*
X04113*
Y02838*
X04113*
Y02838*
Y02838*
X04112*
Y02839*
X04112*
Y02839*
Y02839*
X04112*
Y02839*
X04111*
Y0284*
X04111*
Y0284*
X0411*
Y0284*
X04109*
Y0284*
G37*
G36*
X04122Y02841D02*
X04122D01*
Y02841*
Y02841*
Y0284*
Y0284*
Y0284*
X04122*
Y0284*
Y02839*
Y02839*
X04122*
Y02839*
Y02839*
Y02838*
X04122*
Y02838*
Y02838*
Y02837*
X04123*
Y02837*
Y02837*
Y02837*
X04123*
Y02836*
X04124*
Y02836*
X04125*
Y02836*
X04125*
Y02836*
X04126*
Y02835*
X04127*
Y02836*
Y02836*
Y02836*
Y02836*
X04127*
Y02837*
Y02837*
Y02837*
Y02837*
Y02838*
X04126*
Y02838*
Y02838*
Y02839*
Y02839*
Y02839*
X04126*
Y02839*
Y0284*
Y0284*
Y0284*
X04126*
Y0284*
X04124*
Y02841*
X04123*
Y02841*
X04122*
Y02841*
G37*
G36*
X04114Y02839D02*
X04113D01*
Y02839*
X04113*
Y02838*
X04114*
Y02838*
Y02838*
X04114*
Y02837*
X04114*
Y02837*
Y02837*
X04114*
Y02837*
X04115*
Y02836*
Y02836*
X04115*
Y02836*
X04115*
Y02836*
X04116*
Y02835*
X04116*
Y02835*
X04117*
Y02835*
X04117*
Y02834*
X04118*
Y02834*
X04118*
Y02834*
Y02835*
Y02835*
Y02835*
X04118*
Y02836*
Y02836*
X04118*
Y02836*
Y02836*
X04117*
Y02837*
Y02837*
X04117*
Y02837*
Y02837*
X04117*
Y02838*
X04116*
Y02838*
X04116*
Y02838*
X04115*
Y02839*
X04114*
Y02839*
G37*
G36*
X04113Y02836D02*
X04113D01*
Y02836*
Y02836*
X04113*
Y02835*
X04114*
Y02835*
X04114*
Y02835*
X04114*
Y02834*
X04114*
Y02834*
X04115*
Y02834*
X04115*
Y02834*
X04115*
Y02834*
Y02835*
X04115*
Y02835*
Y02835*
X04114*
Y02836*
X04114*
Y02836*
X04113*
Y02836*
G37*
G36*
X04129Y0284D02*
X04127D01*
Y0284*
Y02839*
Y02839*
X04127*
Y02839*
Y02839*
Y02838*
Y02838*
Y02838*
X04127*
Y02837*
Y02837*
Y02837*
Y02837*
Y02836*
Y02836*
X04128*
Y02836*
Y02836*
Y02835*
X04128*
Y02835*
Y02835*
X04129*
Y02834*
X04129*
Y02834*
X0413*
Y02834*
X04131*
Y02834*
X04132*
Y02833*
X04132*
Y02834*
Y02834*
Y02834*
Y02834*
Y02835*
Y02835*
X04132*
Y02835*
Y02836*
Y02836*
Y02836*
Y02836*
Y02837*
Y02837*
Y02837*
Y02837*
X04132*
Y02838*
Y02838*
Y02838*
Y02839*
Y02839*
Y02839*
X04132*
Y02839*
X0413*
Y0284*
X04129*
Y0284*
G37*
G36*
X04119Y02837D02*
X04118D01*
Y02837*
Y02837*
Y02836*
X04118*
Y02836*
Y02836*
X04119*
Y02836*
Y02835*
X04119*
Y02835*
Y02835*
X04119*
Y02834*
Y02834*
X04119*
Y02834*
Y02834*
X0412*
Y02833*
X0412*
Y02833*
X0412*
Y02833*
X04121*
Y02833*
X04122*
Y02832*
X04122*
Y02832*
X04123*
Y02832*
X04123*
Y02832*
Y02832*
Y02833*
Y02833*
X04123*
Y02833*
Y02833*
Y02834*
X04123*
Y02834*
Y02834*
Y02834*
X04122*
Y02835*
Y02835*
Y02835*
X04122*
Y02836*
Y02836*
X04122*
Y02836*
X04121*
Y02836*
X0412*
Y02837*
X04119*
Y02837*
X04119*
Y02837*
G37*
G36*
X04117Y02834D02*
X04116D01*
Y02834*
Y02834*
X04117*
Y02834*
X04117*
Y02833*
Y02833*
X04117*
Y02833*
X04117*
Y02833*
Y02832*
X04118*
Y02832*
X04118*
Y02832*
X04118*
Y02831*
X04119*
Y02831*
X04119*
Y02831*
X04119*
Y02831*
X0412*
Y0283*
X0412*
Y02831*
Y02831*
X0412*
Y02831*
Y02831*
X0412*
Y02832*
Y02832*
X0412*
Y02832*
Y02833*
X04119*
Y02833*
Y02833*
X04119*
Y02833*
X04118*
Y02834*
X04118*
Y02834*
X04117*
Y02834*
X04117*
Y02834*
G37*
G36*
X04124Y02835D02*
X04123D01*
Y02835*
Y02835*
X04123*
Y02834*
Y02834*
Y02834*
X04124*
Y02834*
Y02833*
Y02833*
X04124*
Y02833*
Y02833*
Y02832*
X04124*
Y02832*
Y02832*
Y02831*
X04125*
Y02831*
Y02831*
X04125*
Y02831*
X04125*
Y0283*
X04126*
Y0283*
X04126*
Y0283*
X04127*
Y0283*
X04128*
Y02829*
X04128*
Y0283*
Y0283*
Y0283*
Y0283*
Y02831*
Y02831*
Y02831*
X04128*
Y02831*
Y02832*
Y02832*
Y02832*
Y02833*
X04128*
Y02833*
Y02833*
Y02833*
Y02834*
X04127*
Y02834*
Y02834*
X04126*
Y02834*
X04126*
Y02835*
X04125*
Y02835*
X04124*
Y02835*
G37*
G36*
X04121Y02832D02*
X0412D01*
Y02832*
Y02832*
Y02831*
Y02831*
X04121*
Y02831*
Y02831*
X04121*
Y0283*
X04121*
Y0283*
Y0283*
X04122*
Y0283*
Y02829*
X04122*
Y02829*
X04122*
Y02829*
X04122*
Y02828*
X04123*
Y02828*
X04123*
Y02828*
X04123*
Y02828*
X04124*
Y02827*
X04124*
Y02827*
X04125*
Y02827*
Y02828*
Y02828*
X04125*
Y02828*
Y02828*
Y02829*
X04124*
Y02829*
Y02829*
Y0283*
X04124*
Y0283*
Y0283*
Y0283*
X04124*
Y02831*
X04123*
Y02831*
X04123*
Y02831*
X04123*
Y02831*
X04122*
Y02832*
X04122*
Y02832*
X04121*
Y02832*
G37*
G36*
X04129Y02834D02*
X04128D01*
Y02833*
X04128*
Y02833*
Y02833*
Y02833*
Y02832*
Y02832*
X04128*
Y02832*
Y02831*
Y02831*
Y02831*
Y02831*
X04129*
Y0283*
Y0283*
Y0283*
Y0283*
Y02829*
Y02829*
X04129*
Y02829*
X04129*
Y02828*
X0413*
Y02828*
X0413*
Y02828*
X04131*
Y02828*
X04131*
Y02827*
X04132*
Y02827*
X04132*
Y02827*
X04133*
Y02827*
Y02827*
Y02828*
Y02828*
Y02828*
Y02828*
Y02829*
Y02829*
Y02829*
X04133*
Y0283*
Y0283*
Y0283*
Y0283*
Y02831*
Y02831*
Y02831*
Y02831*
Y02832*
Y02832*
X04132*
Y02832*
X04132*
Y02833*
X04131*
Y02833*
X04131*
Y02833*
X0413*
Y02833*
X04129*
Y02834*
G37*
G36*
X0412Y02829D02*
X0412D01*
Y02829*
Y02828*
X0412*
Y02828*
X04121*
Y02828*
Y02828*
X04121*
Y02827*
X04121*
Y02827*
X04122*
Y02827*
X04122*
Y02827*
X04122*
Y02827*
X04122*
Y02827*
Y02827*
X04122*
Y02828*
Y02828*
X04122*
Y02828*
X04121*
Y02828*
X04121*
Y02829*
X0412*
Y02829*
G37*
G36*
X04135Y02832D02*
X04134D01*
Y02831*
Y02831*
Y02831*
Y02831*
Y0283*
Y0283*
Y0283*
X04134*
Y0283*
Y02829*
Y02829*
Y02829*
Y02828*
Y02828*
Y02828*
Y02828*
Y02827*
Y02827*
X04134*
Y02827*
Y02827*
Y02826*
Y02826*
X04134*
Y02826*
X04135*
Y02825*
X04136*
Y02825*
X04136*
Y02825*
X04137*
Y02825*
X04137*
Y02825*
X04138*
Y02825*
Y02825*
Y02826*
Y02826*
Y02826*
Y02827*
Y02827*
Y02827*
Y02827*
Y02828*
Y02828*
Y02828*
Y02828*
Y02829*
Y02829*
Y02829*
Y0283*
Y0283*
Y0283*
Y0283*
X04137*
Y02831*
X04137*
Y02831*
X04136*
Y02831*
X04135*
Y02831*
X04135*
Y02832*
G37*
G36*
X04125Y0283D02*
X04125D01*
Y0283*
Y0283*
Y02829*
Y02829*
X04125*
Y02829*
Y02828*
Y02828*
X04126*
Y02828*
Y02828*
Y02827*
X04126*
Y02827*
Y02827*
Y02827*
X04126*
Y02826*
Y02826*
Y02826*
X04126*
Y02825*
X04127*
Y02825*
X04127*
Y02825*
X04128*
Y02825*
X04128*
Y02824*
X04128*
Y02824*
X04129*
Y02824*
X04129*
Y02824*
Y02824*
Y02825*
Y02825*
Y02825*
Y02825*
X04129*
Y02826*
Y02826*
Y02826*
Y02827*
Y02827*
X04129*
Y02827*
Y02827*
Y02828*
Y02828*
Y02828*
X04128*
Y02828*
X04128*
Y02829*
X04128*
Y02829*
X04127*
Y02829*
X04126*
Y0283*
X04126*
Y0283*
X04125*
Y0283*
G37*
G36*
X04123Y02827D02*
X04123D01*
Y02827*
Y02826*
X04123*
Y02826*
Y02826*
X04123*
Y02825*
Y02825*
X04124*
Y02825*
Y02825*
X04124*
Y02824*
Y02824*
X04124*
Y02824*
X04125*
Y02824*
X04125*
Y02823*
X04125*
Y02823*
X04125*
Y02823*
X04126*
Y02822*
X04126*
Y02822*
X04126*
Y02822*
Y02823*
X04126*
Y02823*
Y02823*
Y02824*
X04126*
Y02824*
Y02824*
Y02824*
X04126*
Y02825*
Y02825*
Y02825*
X04125*
Y02825*
X04125*
Y02826*
X04125*
Y02826*
X04124*
Y02826*
X04124*
Y02827*
X04123*
Y02827*
G37*
G36*
X0413Y02828D02*
X04129D01*
Y02828*
X04129*
Y02827*
Y02827*
Y02827*
Y02827*
Y02826*
X04129*
Y02826*
Y02826*
Y02825*
Y02825*
Y02825*
X0413*
Y02825*
Y02824*
Y02824*
Y02824*
Y02824*
X0413*
Y02823*
Y02823*
X0413*
Y02823*
X04131*
Y02822*
X04131*
Y02822*
X04131*
Y02822*
X04132*
Y02822*
X04132*
Y02821*
X04132*
Y02821*
X04133*
Y02821*
X04133*
Y02821*
X04134*
Y02821*
X04134*
Y02821*
Y02821*
Y02822*
Y02822*
Y02822*
Y02822*
Y02823*
Y02823*
Y02823*
Y02824*
Y02824*
X04133*
Y02824*
Y02824*
Y02825*
Y02825*
Y02825*
Y02825*
Y02826*
X04133*
Y02826*
X04133*
Y02826*
X04132*
Y02827*
X04132*
Y02827*
X04131*
Y02827*
X04131*
Y02827*
X0413*
Y02828*
X0413*
Y02828*
G37*
G36*
X04128Y02824D02*
X04127D01*
Y02824*
Y02823*
Y02823*
X04127*
Y02823*
Y02822*
Y02822*
X04128*
Y02822*
Y02822*
Y02821*
X04128*
Y02821*
Y02821*
Y02821*
X04128*
Y0282*
Y0282*
X04128*
Y0282*
X04129*
Y0282*
X04129*
Y02819*
X04129*
Y02819*
X04129*
Y02819*
X0413*
Y02818*
X0413*
Y02819*
Y02819*
Y02819*
Y0282*
Y0282*
X0413*
Y0282*
Y0282*
Y02821*
Y02821*
Y02821*
X0413*
Y02821*
Y02822*
Y02822*
X04129*
Y02822*
Y02822*
X04129*
Y02823*
X04129*
Y02823*
X04128*
Y02823*
X04128*
Y02824*
X04128*
Y02824*
G37*
G36*
X04126Y02822D02*
X04126D01*
Y02821*
Y02821*
Y02821*
X04126*
Y02821*
Y0282*
X04126*
Y0282*
Y0282*
X04126*
Y0282*
Y02819*
X04127*
Y02819*
X04127*
Y02819*
X04127*
Y02818*
X04128*
Y02818*
X04128*
Y02818*
X04128*
Y02819*
Y02819*
Y02819*
Y0282*
X04127*
Y0282*
Y0282*
X04127*
Y0282*
Y02821*
X04127*
Y02821*
X04126*
Y02821*
X04126*
Y02821*
X04126*
Y02822*
G37*
G36*
X04131Y02821D02*
X04131D01*
Y02821*
Y02821*
Y02821*
Y0282*
Y0282*
Y0282*
X04131*
Y0282*
Y02819*
Y02819*
Y02819*
Y02818*
X04131*
Y02818*
Y02818*
Y02818*
Y02817*
Y02817*
X04131*
Y02817*
X04132*
Y02817*
X04132*
Y02816*
X04132*
Y02816*
X04132*
Y02816*
Y02815*
X04133*
Y02815*
X04133*
Y02815*
X04133*
Y02815*
X04134*
Y02814*
X04134*
Y02815*
Y02815*
Y02815*
Y02815*
X04134*
Y02816*
Y02816*
Y02816*
Y02817*
Y02817*
Y02817*
Y02817*
Y02818*
Y02818*
Y02818*
X04134*
Y02818*
Y02819*
Y02819*
Y02819*
X04134*
Y0282*
X04133*
Y0282*
X04133*
Y0282*
X04132*
Y0282*
X04132*
Y02821*
X04132*
Y02821*
X04131*
Y02821*
X04131*
Y02821*
G37*
G36*
X04129Y02818D02*
X04129D01*
Y02818*
Y02818*
Y02818*
Y02817*
X04129*
Y02817*
Y02817*
Y02817*
X04129*
Y02816*
Y02816*
Y02816*
X0413*
Y02815*
Y02815*
Y02815*
X0413*
Y02815*
X0413*
Y02814*
Y02814*
X04131*
Y02814*
X04131*
Y02814*
X04131*
Y02813*
X04131*
Y02814*
Y02814*
Y02814*
X04131*
Y02814*
Y02815*
Y02815*
Y02815*
Y02815*
X04131*
Y02816*
Y02816*
Y02816*
Y02817*
Y02817*
X04131*
Y02817*
X0413*
Y02817*
X0413*
Y02818*
X0413*
Y02818*
X04129*
Y02818*
X04129*
Y02818*
G37*
G36*
X04135D02*
X04135D01*
Y02818*
Y02818*
Y02818*
Y02817*
Y02817*
Y02817*
Y02817*
Y02816*
Y02816*
Y02816*
X04135*
Y02815*
Y02815*
Y02815*
Y02815*
Y02814*
Y02814*
Y02814*
Y02814*
Y02813*
Y02813*
X04135*
Y02813*
Y02812*
X04136*
Y02812*
X04136*
Y02812*
X04136*
Y02812*
X04137*
Y02811*
X04137*
Y02811*
X04137*
Y02811*
X04138*
Y02812*
Y02812*
Y02812*
Y02812*
Y02813*
Y02813*
Y02813*
Y02814*
Y02814*
Y02814*
Y02814*
Y02815*
Y02815*
Y02815*
Y02815*
Y02816*
Y02816*
Y02816*
X04137*
Y02817*
Y02817*
X04137*
Y02817*
X04137*
Y02817*
X04136*
Y02818*
X04136*
Y02818*
X04135*
Y02818*
X04135*
Y02818*
G37*
G36*
X04131Y02811D02*
X04131D01*
Y02811*
Y02811*
Y02811*
X04131*
Y0281*
Y0281*
Y0281*
X04132*
Y02809*
Y02809*
Y02809*
X04132*
Y02809*
X04132*
Y02809*
Y02809*
Y02809*
Y0281*
Y0281*
Y0281*
X04132*
Y02811*
Y02811*
X04132*
Y02811*
X04131*
Y02811*
G37*
G36*
X04132Y02815D02*
X04132D01*
Y02815*
Y02815*
Y02815*
Y02814*
Y02814*
X04132*
Y02814*
Y02814*
Y02813*
Y02813*
Y02813*
X04132*
Y02812*
Y02812*
Y02812*
Y02812*
Y02811*
X04132*
Y02811*
Y02811*
X04133*
Y02811*
X04133*
Y0281*
X04133*
Y0281*
X04134*
Y0281*
Y02809*
X04134*
Y02809*
X04134*
Y02809*
Y02809*
X04134*
Y02808*
X04135*
Y02808*
X04135*
Y02808*
Y02809*
Y02809*
Y02809*
Y02809*
Y0281*
Y0281*
X04135*
Y0281*
Y02811*
Y02811*
Y02811*
Y02811*
Y02812*
Y02812*
Y02812*
Y02812*
X04134*
Y02813*
Y02813*
X04134*
Y02813*
Y02814*
X04134*
Y02814*
X04134*
Y02814*
X04133*
Y02814*
X04133*
Y02815*
X04133*
Y02815*
X04132*
Y02815*
X04132*
Y02815*
G37*
G36*
X04133Y02809D02*
X04133D01*
Y02808*
X04133*
Y02808*
Y02808*
Y02808*
Y02807*
Y02807*
X04133*
Y02807*
Y02806*
Y02806*
Y02806*
Y02806*
Y02805*
X04134*
Y02805*
Y02805*
Y02805*
X04134*
Y02804*
Y02804*
X04134*
Y02804*
Y02803*
X04134*
Y02803*
Y02803*
X04135*
Y02803*
Y02802*
X04135*
Y02802*
Y02802*
X04135*
Y02802*
X04135*
Y02802*
Y02802*
Y02802*
Y02803*
Y02803*
Y02803*
Y02803*
Y02804*
X04135*
Y02804*
Y02804*
Y02805*
Y02805*
Y02805*
Y02805*
Y02806*
Y02806*
X04135*
Y02806*
Y02806*
X04135*
Y02807*
X04134*
Y02807*
Y02807*
X04134*
Y02808*
X04134*
Y02808*
Y02808*
X04134*
Y02808*
X04133*
Y02809*
G37*
G36*
X04137Y02804D02*
X04136D01*
Y02804*
Y02803*
Y02803*
Y02803*
Y02803*
Y02802*
Y02802*
Y02802*
Y02802*
Y02801*
X04137*
Y02801*
Y02801*
Y028*
Y028*
Y028*
Y028*
Y02799*
Y02799*
Y02799*
X04137*
Y02799*
Y02798*
Y02798*
X04137*
Y02798*
Y02797*
X04137*
Y02798*
Y02798*
X04138*
Y02798*
Y02799*
Y02799*
Y02799*
Y02799*
Y028*
Y028*
Y028*
Y028*
Y02801*
Y02801*
Y02801*
Y02802*
Y02802*
Y02802*
Y02802*
X04137*
Y02803*
Y02803*
X04137*
Y02803*
X04137*
Y02803*
Y02804*
X04137*
Y02804*
G37*
G36*
X04135Y02801D02*
X04135D01*
Y02801*
Y02801*
Y028*
Y028*
Y028*
Y028*
X04135*
Y02799*
Y02799*
Y02799*
X04135*
Y02799*
Y02798*
Y02798*
X04135*
Y02798*
Y02797*
Y02797*
X04136*
Y02797*
Y02797*
Y02796*
X04136*
Y02797*
Y02797*
Y02797*
Y02797*
Y02798*
Y02798*
Y02798*
X04136*
Y02799*
Y02799*
Y02799*
Y02799*
X04135*
Y028*
Y028*
Y028*
X04135*
Y028*
Y02801*
X04135*
Y02801*
Y02801*
G37*
G36*
X04239Y02843D02*
X04236D01*
Y02843*
X04236*
Y02843*
X04236*
Y02843*
Y02842*
Y02842*
X04236*
Y02842*
Y02842*
Y02841*
X04237*
Y02841*
Y02841*
X04237*
Y0284*
Y0284*
Y0284*
X04237*
Y0284*
Y02839*
Y02839*
Y02839*
X04237*
Y02839*
X04238*
Y02839*
Y0284*
X04238*
Y0284*
Y0284*
Y0284*
X04238*
Y02841*
Y02841*
X04238*
Y02841*
Y02842*
Y02842*
X04239*
Y02842*
Y02842*
Y02843*
X04239*
Y02843*
Y02843*
Y02843*
G37*
G36*
X04218D02*
X04215D01*
Y02843*
Y02843*
Y02843*
Y02842*
X04216*
Y02842*
Y02842*
X04216*
Y02842*
Y02841*
Y02841*
X04216*
Y02841*
Y0284*
Y0284*
X04216*
Y0284*
Y0284*
Y02839*
X04217*
Y02839*
Y02839*
X04217*
Y02839*
X04217*
Y02839*
Y0284*
Y0284*
X04217*
Y0284*
Y0284*
Y02841*
X04218*
Y02841*
Y02841*
Y02842*
X04218*
Y02842*
Y02842*
X04218*
Y02842*
Y02843*
Y02843*
X04219*
Y02843*
X04218*
Y02843*
G37*
G36*
X04229Y02842D02*
X04225D01*
Y02842*
Y02841*
Y02841*
Y02841*
Y0284*
Y0284*
Y0284*
Y0284*
Y02839*
Y02839*
Y02839*
Y02839*
Y02838*
X04229*
Y02839*
X04229*
Y02839*
X0423*
Y02839*
Y02839*
X0423*
Y0284*
Y0284*
Y0284*
Y0284*
Y02841*
X0423*
Y02841*
Y02841*
X04229*
Y02842*
X04229*
Y02842*
G37*
G36*
X04271Y02847D02*
X04269D01*
Y02846*
X04268*
Y02846*
X04268*
Y02846*
X04267*
Y02846*
X04267*
Y02845*
Y02845*
X04267*
Y02845*
Y02845*
X04267*
Y02844*
Y02844*
Y02844*
X04266*
Y02843*
Y02843*
Y02843*
Y02843*
Y02842*
Y02842*
Y02842*
Y02842*
Y02841*
X04267*
Y02841*
Y02841*
Y0284*
X04267*
Y0284*
Y0284*
Y0284*
X04267*
Y02839*
X04267*
Y02839*
X04268*
Y02839*
X04268*
Y02839*
X04268*
Y02838*
X04271*
Y02839*
X04272*
Y02839*
X04272*
Y02839*
X04272*
Y02839*
X04273*
Y0284*
X04273*
Y0284*
X04273*
Y0284*
Y0284*
Y02841*
X04273*
Y02841*
Y02841*
Y02842*
Y02842*
X04274*
Y02842*
Y02842*
Y02843*
Y02843*
Y02843*
X04273*
Y02843*
Y02844*
Y02844*
Y02844*
X04273*
Y02845*
Y02845*
Y02845*
X04273*
Y02845*
X04273*
Y02846*
X04272*
Y02846*
X04272*
Y02846*
X04272*
Y02846*
X04271*
Y02847*
G37*
G36*
X0419D02*
X04187D01*
Y02846*
X04187*
Y02846*
X04186*
Y02846*
X04186*
Y02846*
X04186*
Y02845*
Y02845*
X04186*
Y02845*
X04185*
Y02845*
Y02844*
Y02844*
Y02844*
X04185*
Y02843*
Y02843*
Y02843*
Y02843*
Y02842*
Y02842*
Y02842*
Y02842*
Y02841*
X04185*
Y02841*
Y02841*
Y0284*
Y0284*
X04186*
Y0284*
Y0284*
X04186*
Y02839*
X04186*
Y02839*
X04186*
Y02839*
X04187*
Y02839*
X04187*
Y02838*
X0419*
Y02839*
X04191*
Y02839*
X04191*
Y02839*
X04191*
Y02839*
Y0284*
X04192*
Y0284*
X04192*
Y0284*
Y0284*
X04192*
Y02841*
Y02841*
Y02841*
Y02842*
Y02842*
X04192*
Y02842*
Y02842*
Y02843*
Y02843*
Y02843*
X04192*
Y02843*
Y02844*
Y02844*
Y02844*
Y02845*
X04192*
Y02845*
Y02845*
X04192*
Y02845*
X04191*
Y02846*
X04191*
Y02846*
X04191*
Y02846*
X04191*
Y02846*
X0419*
Y02847*
G37*
G36*
X04259Y02825D02*
X04256D01*
Y02824*
Y02824*
Y02824*
Y02824*
X04256*
Y02823*
Y02823*
X04257*
Y02823*
Y02822*
Y02822*
X04257*
Y02822*
Y02822*
Y02821*
X04257*
Y02821*
Y02821*
Y02821*
X04258*
Y0282*
Y0282*
Y0282*
X04258*
Y0282*
Y0282*
X04258*
Y02821*
Y02821*
Y02821*
X04258*
Y02821*
Y02822*
Y02822*
X04259*
Y02822*
Y02822*
X04259*
Y02823*
Y02823*
Y02823*
X04259*
Y02824*
Y02824*
Y02824*
X04259*
Y02824*
X04259*
Y02825*
G37*
G36*
X04244Y02823D02*
X04241D01*
Y02823*
Y02822*
Y02822*
Y02822*
Y02822*
Y02821*
Y02821*
Y02821*
Y02821*
Y0282*
Y0282*
Y0282*
Y0282*
X04245*
Y0282*
X04246*
Y0282*
X04246*
Y0282*
X04246*
Y02821*
Y02821*
X04246*
Y02821*
Y02821*
X04246*
Y02822*
Y02822*
Y02822*
X04246*
Y02822*
X04246*
Y02823*
X04244*
Y02823*
G37*
G36*
X04158Y02828D02*
X04154D01*
Y02827*
X04154*
Y02827*
Y02827*
Y02827*
Y02826*
Y02826*
Y02826*
Y02825*
Y02825*
Y02825*
Y02825*
Y02824*
Y02824*
Y02824*
Y02824*
Y02823*
Y02823*
Y02823*
Y02822*
Y02822*
Y02822*
Y02822*
Y02821*
Y02821*
Y02821*
Y02821*
Y0282*
Y0282*
Y0282*
X04154*
Y0282*
X04158*
Y0282*
X04158*
Y0282*
X04159*
Y0282*
X04159*
Y02821*
Y02821*
X04159*
Y02821*
X0416*
Y02821*
Y02822*
Y02822*
X0416*
Y02822*
Y02822*
Y02823*
Y02823*
Y02823*
Y02824*
Y02824*
Y02824*
Y02824*
Y02825*
Y02825*
Y02825*
X0416*
Y02825*
Y02826*
Y02826*
X04159*
Y02826*
Y02827*
X04159*
Y02827*
X04159*
Y02827*
X04159*
Y02827*
X04158*
Y02828*
G37*
G36*
X04248Y02806D02*
X04245D01*
Y02805*
Y02805*
Y02805*
X04245*
Y02805*
Y02804*
Y02804*
X04246*
Y02804*
Y02803*
Y02803*
X04246*
Y02803*
Y02803*
Y02802*
X04246*
Y02802*
Y02802*
Y02802*
X04246*
Y02801*
X04247*
Y02802*
X04247*
Y02802*
Y02802*
Y02802*
X04247*
Y02803*
Y02803*
X04247*
Y02803*
Y02803*
Y02804*
X04248*
Y02804*
Y02804*
Y02805*
X04248*
Y02805*
Y02805*
X04248*
Y02805*
Y02806*
G37*
G36*
X04228D02*
X04224D01*
Y02805*
Y02805*
X04225*
Y02805*
Y02805*
Y02804*
X04225*
Y02804*
Y02804*
X04225*
Y02803*
Y02803*
Y02803*
X04225*
Y02803*
Y02802*
Y02802*
X04226*
Y02802*
Y02802*
Y02801*
X04226*
Y02802*
Y02802*
X04226*
Y02802*
Y02802*
Y02803*
X04227*
Y02803*
Y02803*
Y02803*
X04227*
Y02804*
Y02804*
X04227*
Y02804*
Y02805*
Y02805*
X04228*
Y02805*
Y02805*
Y02806*
G37*
G36*
X04213Y02809D02*
X0421D01*
Y02809*
X0421*
Y02808*
Y02808*
Y02808*
Y02808*
Y02807*
Y02807*
Y02807*
Y02806*
Y02806*
Y02806*
Y02806*
Y02805*
X0421*
Y02805*
X04213*
Y02805*
X04214*
Y02806*
X04214*
Y02806*
X04215*
Y02806*
X04215*
Y02806*
Y02807*
Y02807*
Y02807*
Y02808*
Y02808*
X04215*
Y02808*
X04214*
Y02808*
X04214*
Y02809*
X04213*
Y02809*
G37*
G36*
X04213Y02804D02*
X0421D01*
Y02804*
X0421*
Y02803*
Y02803*
Y02803*
Y02803*
Y02802*
Y02802*
Y02802*
Y02802*
Y02801*
Y02801*
Y02801*
X04213*
Y02801*
X04214*
Y02801*
X04214*
Y02802*
Y02802*
Y02802*
Y02802*
Y02803*
Y02803*
Y02803*
X04214*
Y02803*
X04214*
Y02804*
X04213*
Y02804*
G37*
G36*
X0419Y02809D02*
X04189D01*
Y02809*
X04188*
Y02809*
X04187*
Y02808*
X04187*
Y02808*
X04186*
Y02808*
Y02808*
X04186*
Y02807*
X04186*
Y02807*
Y02807*
Y02806*
X04186*
Y02806*
Y02806*
Y02806*
Y02805*
Y02805*
Y02805*
Y02805*
Y02804*
Y02804*
Y02804*
Y02803*
Y02803*
Y02803*
X04186*
Y02803*
Y02802*
X04186*
Y02802*
Y02802*
X04186*
Y02802*
X04187*
Y02801*
X04187*
Y02801*
X04188*
Y02801*
X04188*
Y028*
X0419*
Y02801*
X04191*
Y02801*
X04191*
Y02801*
X04192*
Y02802*
X04192*
Y02802*
Y02802*
X04192*
Y02802*
Y02803*
X04192*
Y02803*
Y02803*
X04193*
Y02803*
Y02804*
Y02804*
Y02804*
Y02805*
Y02805*
Y02805*
Y02805*
Y02806*
Y02806*
Y02806*
X04192*
Y02806*
Y02807*
Y02807*
X04192*
Y02807*
Y02808*
X04192*
Y02808*
X04192*
Y02808*
X04191*
Y02808*
X04191*
Y02809*
X04191*
Y02809*
X0419*
Y02809*
G37*
G36*
X0417D02*
X04169D01*
Y02809*
X04168*
Y02809*
X04167*
Y02808*
X04167*
Y02808*
X04167*
Y02808*
X04167*
Y02808*
X04166*
Y02807*
Y02807*
X04166*
Y02807*
Y02806*
Y02806*
Y02806*
Y02806*
X04166*
Y02805*
Y02805*
Y02805*
Y02805*
Y02804*
Y02804*
X04166*
Y02804*
Y02803*
Y02803*
Y02803*
Y02803*
X04166*
Y02802*
Y02802*
X04167*
Y02802*
Y02802*
X04167*
Y02801*
X04167*
Y02801*
X04168*
Y02801*
X04168*
Y028*
X0417*
Y02801*
X04171*
Y02801*
X04171*
Y02801*
X04172*
Y02802*
X04172*
Y02802*
X04172*
Y02802*
X04173*
Y02802*
Y02803*
Y02803*
X04173*
Y02803*
Y02803*
Y02804*
X04173*
Y02804*
Y02804*
Y02805*
Y02805*
Y02805*
Y02805*
Y02806*
X04173*
Y02806*
Y02806*
Y02806*
Y02807*
X04173*
Y02807*
Y02807*
X04172*
Y02808*
Y02808*
X04172*
Y02808*
X04172*
Y02808*
X04171*
Y02809*
X04171*
Y02809*
X0417*
Y02809*
G37*
G36*
X04219Y02787D02*
X04215D01*
Y02787*
Y02786*
Y02786*
Y02786*
X04216*
Y02785*
Y02785*
Y02785*
X04216*
Y02785*
Y02784*
X04216*
Y02784*
Y02784*
Y02784*
X04216*
Y02783*
Y02783*
Y02783*
X04217*
Y02782*
Y02782*
X04217*
Y02782*
X04217*
Y02783*
Y02783*
Y02783*
X04217*
Y02784*
Y02784*
Y02784*
X04218*
Y02784*
Y02785*
Y02785*
X04218*
Y02785*
Y02785*
X04218*
Y02786*
Y02786*
Y02786*
X04219*
Y02787*
Y02787*
G37*
%LNntc-3*%
%LPD*%
G54D26*
X02997Y03418D02*
X03025D01*
X02997D02*
Y03409D01*
X02998Y03405*
X03001Y03402*
X03004Y03401*
X03007Y03399*
X03014*
X03018Y03401*
X03021Y03402*
X03023Y03405*
X03025Y03409*
Y03418*
Y03372D02*
X02997Y03383D01*
X03025Y03393*
X03015Y03389D02*
Y03376D01*
X02997Y03366D02*
X03025D01*
X02997D02*
X03025Y03347D01*
X02997D02*
X03025D01*
X02997Y0334D02*
X03025D01*
X02997Y03317D02*
Y03334D01*
X03025*
Y03317*
X0301Y03334D02*
Y03324D01*
X02997Y03312D02*
X03025D01*
Y03297*
X02997Y03272D02*
X03025D01*
X02997D02*
Y0326D01*
X02998Y03256*
X03Y03255*
X03002Y03254*
X03005*
X03007Y03255*
X03009Y03256*
X0301Y0326*
Y03272*
Y03263D02*
X03025Y03254D01*
X02997Y03248D02*
X03017D01*
X03021Y03246*
X03023Y03244*
X03025Y0324*
Y03237*
X03023Y03233*
X03021Y0323*
X03017Y03229*
X02997*
Y03222D02*
X03025D01*
X02997Y03197D02*
X03025Y03216D01*
X02997D02*
Y03197D01*
X03025Y03216D02*
Y03197D01*
X02997Y0317D02*
X03025D01*
X02997D02*
Y03158D01*
X02998Y03154*
X03Y03153*
X03002Y03151*
X03005*
X03007Y03153*
X03009Y03154*
X0301Y03158*
Y0317*
Y0316D02*
X03025Y03151D01*
X03046Y03405D02*
X03067D01*
X03071Y03406*
X03072Y03407*
X03074Y0341*
Y03413*
X03072Y03415*
X03071Y03416*
X03067Y03418*
X03064*
X03046Y03398D02*
X03066D01*
X0307Y03396*
X03072Y03394*
X03074Y0339*
Y03387*
X03072Y03383*
X0307Y03381*
X03066Y03379*
X03046*
X03074Y03351D02*
X03046Y03361D01*
X03074Y03372*
X03064Y03368D02*
Y03355D01*
X03046Y03344D02*
X03074D01*
X03046D02*
X03074Y03326D01*
X03046D02*
X03074D01*
X03046Y03297D02*
X03074D01*
X03046D02*
Y03285D01*
X03047Y03281*
X03049Y0328*
X03051Y03278*
X03054*
X03057Y0328*
X03058Y03281*
X03059Y03285*
Y03297*
Y03287D02*
X03074Y03278D01*
X03046Y03264D02*
X03047Y03267D01*
X0305Y03269*
X03053Y03271*
X03057Y03272*
X03063*
X03067Y03271*
X0307Y03269*
X03072Y03267*
X03074Y03264*
Y03259*
X03072Y03256*
X0307Y03254*
X03067Y03252*
X03063Y03251*
X03057*
X03053Y03252*
X0305Y03254*
X03047Y03256*
X03046Y03259*
Y03264*
Y03245D02*
X03074D01*
X03046D02*
Y03235D01*
X03047Y03231*
X0305Y03229*
X03053Y03228*
X03057Y03226*
X03063*
X03067Y03228*
X0307Y03229*
X03072Y03231*
X03074Y03235*
Y03245*
X03046Y0322D02*
X03074D01*
X03046D02*
Y03208D01*
X03047Y03204*
X03049Y03203*
X03051Y03202*
X03054*
X03057Y03203*
X03058Y03204*
X03059Y03208*
Y0322*
Y03211D02*
X03074Y03202D01*
X03046Y03196D02*
X03074D01*
X03053Y0317D02*
X0305Y03171D01*
X03047Y03174*
X03046Y03177*
Y03182*
X03047Y03185*
X0305Y03187*
X03053Y03188*
X03057Y0319*
X03063*
X03067Y03188*
X0307Y03187*
X03072Y03185*
X03074Y03182*
Y03177*
X03072Y03174*
X0307Y03171*
X03067Y0317*
X03063*
Y03177D02*
Y0317D01*
X03046Y03164D02*
X03066D01*
X0307Y03162*
X03072Y0316*
X03074Y03156*
Y03153*
X03072Y03149*
X0307Y03147*
X03066Y03145*
X03046*
Y03121D02*
Y03138D01*
X03074*
Y03121*
X03059Y03138D02*
Y03127D01*
X03046Y03098D02*
X03074Y03116D01*
X03046D02*
Y03098D01*
X03074Y03116D02*
Y03098D01*
X03046Y0307D02*
X03074D01*
X03046D02*
Y03058D01*
X03047Y03054*
X03049Y03053*
X03051Y03052*
X03054*
X03057Y03053*
X03058Y03054*
X03059Y03058*
Y0307*
Y03061D02*
X03074Y03052D01*
X03099Y03399D02*
X03097Y03402D01*
X03095Y03406*
Y03411*
X03097Y03415*
X03099Y03418*
X03102*
X03104Y03416*
X03106Y03415*
X03107Y03413*
X0311Y03405*
X03111Y03402*
X03112Y03401*
X03115Y03399*
X03119*
X03121Y03402*
X03123Y03406*
Y03411*
X03121Y03415*
X03119Y03418*
X03123Y03372D02*
X03095Y03383D01*
X03123Y03393*
X03114Y03389D02*
Y03376D01*
X03095Y03366D02*
X03123D01*
X03095D02*
X03123Y03347D01*
X03095D02*
X03123D01*
X03095Y03331D02*
X03123D01*
X03095Y0334D02*
Y03322D01*
Y03318D02*
X03123D01*
Y03291D02*
X03095Y03302D01*
X03123Y03312*
X03114Y03309D02*
Y03295D01*
X03102Y03265D02*
X03099Y03267D01*
X03097Y03269*
X03095Y03272*
Y03277*
X03097Y0328*
X03099Y03282*
X03102Y03284*
X03106Y03285*
X03112*
X03116Y03284*
X03119Y03282*
X03121Y0328*
X03123Y03277*
Y03272*
X03121Y03269*
X03119Y03267*
X03116Y03265*
X03112*
Y03272D02*
Y03265D01*
X03095Y03251D02*
X03097Y03254D01*
X03099Y03256*
X03102Y03258*
X03106Y03259*
X03112*
X03116Y03258*
X03119Y03256*
X03121Y03254*
X03123Y03251*
Y03246*
X03121Y03243*
X03119Y03241*
X03116Y03239*
X03112Y03238*
X03106*
X03102Y03239*
X03099Y03241*
X03097Y03243*
X03095Y03246*
Y03251*
X03102Y0319D02*
X03099Y03192D01*
X03097Y03194*
X03095Y03197*
Y03202*
X03097Y03205*
X03099Y03207*
X03102Y03209*
X03106Y0321*
X03112*
X03116Y03209*
X03119Y03207*
X03121Y03205*
X03123Y03202*
Y03197*
X03121Y03194*
X03119Y03192*
X03116Y0319*
X03095Y03175D02*
X03097Y03177D01*
X03099Y0318*
X03102Y03181*
X03106Y03183*
X03112*
X03116Y03181*
X03119Y0318*
X03121Y03177*
X03123Y03175*
Y03169*
X03121Y03167*
X03119Y03164*
X03116Y03163*
X03112Y03162*
X03106*
X03102Y03163*
X03099Y03164*
X03097Y03167*
X03095Y03169*
Y03175*
Y03155D02*
X03123D01*
X03095D02*
Y03143D01*
X03097Y03139*
X03098Y03138*
X03101Y03137*
X03103*
X03106Y03138*
X03107Y03139*
X03108Y03143*
Y03155*
Y03146D02*
X03123Y03137D01*
X03095Y03121D02*
X03123D01*
X03095Y03131D02*
Y03112D01*
Y03092D02*
Y03109D01*
X03123*
Y03092*
X03108Y03109D02*
Y03098D01*
X03099Y03069D02*
X03097Y03072D01*
X03095Y03075*
Y03081*
X03097Y03085*
X03099Y03087*
X03102*
X03104Y03086*
X03106Y03085*
X03107Y03082*
X0311Y03074*
X03111Y03072*
X03112Y0307*
X03115Y03069*
X03119*
X03121Y03072*
X03123Y03075*
Y03081*
X03121Y03085*
X03119Y03087*
X03095Y03032D02*
X03123D01*
X03095Y03041D02*
Y03023D01*
M02*