%FSTAX23Y23*%
%MOIN*%
%SFA1B1*%

%IPPOS*%
%ADD22C,0.010000*%
%ADD25C,0.007874*%
%ADD34C,0.005905*%
%LNntc-1*%
%LPD*%
G54D22*
X02375Y027D02*
Y02735D01*
X04295Y027D02*
Y02735D01*
X02375Y0271D02*
X03168D01*
X03466D02*
X04295D01*
X02375D02*
X02414Y02696D01*
X02375Y0271D02*
X02414Y02723D01*
X04255D02*
X04295Y0271D01*
X04255Y02696D02*
X04295Y0271D01*
X04315Y03975D02*
X04345D01*
X04315Y02755D02*
X04345D01*
X04335Y03564D02*
Y03975D01*
Y02755D02*
Y03129D01*
X04321Y03935D02*
X04335Y03975D01*
X04348Y03935*
X04335Y02755D02*
X04348Y02794D01*
X04321D02*
X04335Y02755D01*
X02445Y037D02*
X0265D01*
X02925Y03975*
X0295*
X04295Y0275D02*
X043Y02755D01*
Y03975*
X02375Y0275D02*
X04295D01*
X02375D02*
Y0363D01*
X02445Y037*
X0295Y03975D02*
X043D01*
G54D25*
X03205Y02675D02*
Y02715D01*
X03185Y02695*
X03212*
X03225Y02708D02*
X03231Y02715D01*
X03244*
X03251Y02708*
Y02702*
X03244Y02695*
X03251Y02689*
Y02682*
X03244Y02675*
X03231*
X03225Y02682*
Y02689*
X03231Y02695*
X03225Y02702*
Y02708*
X03231Y02695D02*
X03244D01*
X03271Y02669D02*
X03277Y02675D01*
Y02682*
X03271*
Y02675*
X03277*
X03271Y02669*
X03264Y02662*
X03304Y02715D02*
X0333D01*
Y02708*
X03304Y02682*
Y02675*
X03343Y02715D02*
X03369D01*
Y02708*
X03343Y02682*
Y02675*
X03382D02*
Y02702D01*
X03389*
X03395Y02695*
Y02675*
Y02695*
X03402Y02702*
X03408Y02695*
Y02675*
X03422D02*
Y02702D01*
X03428*
X03435Y02695*
Y02675*
Y02695*
X03441Y02702*
X03448Y02695*
Y02675*
X04332Y03147D02*
X04322Y03157D01*
Y03177*
X04332Y03187*
X04342*
X04352Y03177*
Y03167*
Y03177*
X04362Y03187*
X04372*
X04382Y03177*
Y03157*
X04372Y03147*
X04332Y03207D02*
X04322Y03217D01*
Y03237*
X04332Y03247*
X04372*
X04382Y03237*
Y03217*
X04372Y03207*
X04332*
X04392Y03277D02*
X04382Y03287D01*
X04372*
Y03277*
X04382*
Y03287*
X04392Y03277*
X04402Y03267*
X04372Y03327D02*
X04382Y03337D01*
Y03357*
X04372Y03367*
X04332*
X04322Y03357*
Y03337*
X04332Y03327*
X04342*
X04352Y03337*
Y03367*
X04372Y03387D02*
X04382Y03397D01*
Y03417*
X04372Y03427*
X04332*
X04322Y03417*
Y03397*
X04332Y03387*
X04342*
X04352Y03397*
Y03427*
X04382Y03447D02*
X04342D01*
Y03457*
X04352Y03467*
X04382*
X04352*
X04342Y03477*
X04352Y03487*
X04382*
Y03507D02*
X04342D01*
Y03517*
X04352Y03527*
X04382*
X04352*
X04342Y03537*
X04352Y03547*
X04382*
G54D34*
X02955Y03282D02*
Y03242D01*
X02962Y03235*
X02978*
X02986Y03242*
Y03282*
X03002Y03235D02*
X03017D01*
X0301*
Y03282*
X03002Y03274*
X03915Y03347D02*
Y03307D01*
X03922Y033*
X03938*
X03946Y03307*
Y03347*
X03993Y033D02*
X03962D01*
X03993Y03331*
Y03339*
X03985Y03347*
X0397*
X03962Y03339*
M02*