%FSTAX23Y23*%
%MOIN*%
%SFA1B1*%

%IPPOS*%
%ADD10C,0.015748*%
%ADD11C,0.055118*%
%ADD12C,0.047244*%
%ADD13R,0.047244X0.047244*%
%ADD14R,0.039370X0.039370*%
%ADD15C,0.039370*%
%ADD16C,0.059055*%
%ADD17R,0.059055X0.059055*%
%ADD18R,0.047244X0.047244*%
%ADD19C,0.050000*%
%ADD20C,0.039370*%
%ADD21C,0.008000*%
%ADD22C,0.010000*%
%LNntc-1*%
%LPD*%
G54D10*
X0315Y03805D02*
X03155Y038D01*
X0255Y03183D02*
Y0319D01*
X02537Y03171D02*
X0255Y03183D01*
X02535Y0296D02*
D01*
Y0316D02*
X02537Y03162D01*
X02535Y0296D02*
Y0316D01*
X02537Y03162D02*
Y03171D01*
X02651Y03008D02*
X027Y0296D01*
X02835*
X0265Y0306D02*
X02651Y03058D01*
Y03008D02*
Y03058D01*
X02925Y03555D02*
X0298D01*
X0255Y0319D02*
X0284D01*
X0285Y03064D02*
Y0318D01*
X0284Y0319D02*
X0285Y0318D01*
X0265Y0336D02*
X02652Y03362D01*
Y03517*
X02655Y0352*
X0272Y03455*
X0298Y03555D02*
X0318Y03355D01*
X03225*
X03885Y0362D02*
Y03805D01*
X0378Y0391D02*
X03885Y03805D01*
X0389Y03615D02*
X0393D01*
X03885Y0362D02*
X0389Y03615D01*
X03955Y0322D02*
X03965Y03229D01*
Y0358*
X03885Y0322D02*
X03955D01*
X0393Y03615D02*
X03965Y0358D01*
X0358Y03715D02*
X03645Y0365D01*
X0358Y03715D02*
Y0381D01*
X0374Y0359D02*
X0381Y0352D01*
X03885*
X03645Y0365D02*
X0368D01*
X0374Y0359*
Y0336D02*
Y0359D01*
X03585Y0327D02*
X0365D01*
X0374Y0336*
X03225Y03455D02*
X036D01*
X03645Y0335D02*
Y0341D01*
X036Y03455D02*
X03645Y0341D01*
X03225Y03455D02*
Y03555D01*
X0345Y0327D02*
Y03355D01*
X03329Y0315D02*
X0345Y0327D01*
X03329Y0315D02*
X03429Y0305D01*
X0323Y0315D02*
X03329D01*
X03225Y03155D02*
X0323Y0315D01*
X03795Y0312D02*
X03885D01*
X03745Y0307D02*
X03795Y0312D01*
X03745Y0297D02*
Y0307D01*
X03885Y0287D02*
Y0302D01*
X03645Y0287D02*
X03745Y0297D01*
X03585Y0287D02*
X03645D01*
X03305Y02875D02*
X0349D01*
X03585Y0297*
X03225Y02955D02*
X03305Y02875D01*
X03225Y02955D02*
Y03055D01*
X025Y03125D02*
Y0319D01*
X0245Y03075D02*
X025Y03125D01*
X02459Y02875D02*
X02915D01*
X0245Y02884D02*
X02459Y02875D01*
X0245Y02884D02*
Y03075D01*
X02925Y02884D02*
Y02955D01*
X02915Y02875D02*
X02925Y02884D01*
X0272Y03455D02*
X02925D01*
X02859Y03055D02*
X02925D01*
X0285Y03064D02*
X02859Y03055D01*
X025Y0319D02*
Y03305D01*
X02555Y0336*
Y0352*
G54D11*
X03585Y0287D03*
X03885D03*
X0278Y0336D03*
Y0306D03*
X03745Y0327D03*
Y0297D03*
X02835Y0296D03*
X02535D03*
X0265Y0306D03*
Y0336D03*
X03645Y0365D03*
Y0335D03*
X03585Y0327D03*
Y0297D03*
X0345Y03655D03*
Y03355D03*
G54D12*
X02755Y0352D03*
X02655D03*
X0378Y0391D03*
X0358Y0381D03*
X03429Y0295D03*
Y0305D03*
G54D13*
X02555Y0352D03*
X0408Y0381D03*
G54D14*
X025Y0319D03*
G54D15*
X0255Y0319D03*
G54D16*
X03225Y02955D03*
Y03055D03*
Y03155D03*
Y03255D03*
Y03355D03*
Y03455D03*
Y03555D03*
X02925Y02955D03*
Y03055D03*
Y03155D03*
Y03255D03*
Y03355D03*
Y03455D03*
X04185Y0302D03*
Y0312D03*
Y0322D03*
Y0332D03*
Y0342D03*
Y0352D03*
Y0362D03*
X03885Y0302D03*
Y0312D03*
Y0322D03*
Y0332D03*
Y0342D03*
Y0352D03*
X0295Y03805D03*
X0305D03*
X0315D03*
G54D17*
X02925Y03555D03*
X03885Y0362D03*
X0325Y03805D03*
G54D18*
X03429Y0315D03*
G54D19*
X0305Y03805D03*
X03885Y0302D03*
X02835Y0296D03*
X02925Y03255D03*
Y03555D03*
X0278Y0336D03*
X0265D03*
X0278Y0306D03*
X0325Y03805D03*
X03885Y0332D03*
G54D20*
X0255Y0319D03*
G54D21*
X03945Y0363D02*
D01*
X03944Y03631*
X03943Y03632*
X03941Y03633*
X0394Y03633*
X03939Y03634*
X03937Y03635*
X03936Y03635*
X03934Y03636*
X03933Y03636*
X03931Y03636*
X0393Y03636*
X0393Y03636*
X04228Y0362D02*
D01*
X04228Y03623*
X04227Y03626*
X04227Y03629*
X04226Y03631*
X04225Y03634*
X04224Y03637*
X04223Y0364*
X04221Y03642*
X0422Y03645*
X04218Y03647*
X04216Y0365*
X04214Y03652*
X04211Y03654*
X04209Y03655*
X04206Y03657*
X04204Y03658*
X04201Y0366*
X04198Y03661*
X04195Y03662*
X04192Y03662*
X04189Y03663*
X04186Y03663*
X04183*
X0418Y03663*
X04177Y03662*
X04174Y03662*
X04171Y03661*
X04168Y0366*
X04165Y03658*
X04163Y03657*
X0416Y03655*
X04158Y03654*
X04155Y03652*
X04153Y0365*
X04151Y03647*
X04149Y03645*
X04148Y03642*
X04146Y0364*
X04145Y03637*
X04144Y03634*
X04143Y03631*
X04142Y03629*
X04142Y03626*
X04141Y03623*
X04141Y0362*
X04141Y03616*
X04142Y03613*
X04142Y0361*
X04143Y03608*
X04144Y03605*
X04145Y03602*
X04146Y03599*
X04148Y03597*
X04149Y03594*
X04151Y03592*
X04153Y03589*
X04155Y03587*
X04158Y03585*
X0416Y03584*
X04163Y03582*
X04165Y03581*
X04168Y03579*
X04171Y03578*
X04174Y03577*
X04177Y03577*
X0418Y03576*
X04183Y03576*
X04186*
X04189Y03576*
X04192Y03577*
X04195Y03577*
X04198Y03578*
X04201Y03579*
X04204Y03581*
X04206Y03582*
X04209Y03584*
X04211Y03585*
X04214Y03587*
X04216Y03589*
X04218Y03592*
X0422Y03594*
X04221Y03597*
X04223Y03599*
X04224Y03602*
X04225Y03605*
X04226Y03608*
X04227Y0361*
X04227Y03613*
X04228Y03616*
X04228Y0362*
Y0352D02*
D01*
X04228Y03523*
X04227Y03526*
X04227Y03529*
X04226Y03531*
X04225Y03534*
X04224Y03537*
X04223Y0354*
X04221Y03542*
X0422Y03545*
X04218Y03547*
X04216Y0355*
X04214Y03552*
X04211Y03554*
X04209Y03555*
X04206Y03557*
X04204Y03558*
X04201Y0356*
X04198Y03561*
X04195Y03562*
X04192Y03562*
X04189Y03563*
X04186Y03563*
X04183*
X0418Y03563*
X04177Y03562*
X04174Y03562*
X04171Y03561*
X04168Y0356*
X04165Y03558*
X04163Y03557*
X0416Y03555*
X04158Y03554*
X04155Y03552*
X04153Y0355*
X04151Y03547*
X04149Y03545*
X04148Y03542*
X04146Y0354*
X04145Y03537*
X04144Y03534*
X04143Y03531*
X04142Y03529*
X04142Y03526*
X04141Y03523*
X04141Y0352*
X04141Y03516*
X04142Y03513*
X04142Y0351*
X04143Y03508*
X04144Y03505*
X04145Y03502*
X04146Y03499*
X04148Y03497*
X04149Y03494*
X04151Y03492*
X04153Y03489*
X04155Y03487*
X04158Y03485*
X0416Y03484*
X04163Y03482*
X04165Y03481*
X04168Y03479*
X04171Y03478*
X04174Y03477*
X04177Y03477*
X0418Y03476*
X04183Y03476*
X04186*
X04189Y03476*
X04192Y03477*
X04195Y03477*
X04198Y03478*
X04201Y03479*
X04204Y03481*
X04206Y03482*
X04209Y03484*
X04211Y03485*
X04214Y03487*
X04216Y03489*
X04218Y03492*
X0422Y03494*
X04221Y03497*
X04223Y03499*
X04224Y03502*
X04225Y03505*
X04226Y03508*
X04227Y0351*
X04227Y03513*
X04228Y03516*
X04228Y0352*
X03945Y0363D02*
D01*
X03944Y03631*
X03943Y03632*
X03941Y03633*
X0394Y03633*
X03939Y03634*
X03937Y03635*
X03936Y03635*
X03934Y03636*
X03933Y03636*
X03931Y03636*
X0393Y03636*
X0393Y03636*
X03986Y0358D02*
D01*
X03986Y03581*
X03986Y03583*
X03986Y03584*
X03985Y03585*
X03985Y03587*
X03984Y03588*
X03984Y0359*
X03983Y03591*
X03982Y03592*
X03981Y03593*
X0398Y03595*
X0398Y03595*
X03986Y0358D02*
D01*
X03986Y03581*
X03986Y03583*
X03986Y03584*
X03985Y03585*
X03985Y03587*
X03984Y03588*
X03984Y0359*
X03983Y03591*
X03982Y03592*
X03981Y03593*
X0398Y03595*
X0398Y03595*
X04228Y0342D02*
D01*
X04228Y03423*
X04227Y03426*
X04227Y03429*
X04226Y03431*
X04225Y03434*
X04224Y03437*
X04223Y0344*
X04221Y03442*
X0422Y03445*
X04218Y03447*
X04216Y0345*
X04214Y03452*
X04211Y03454*
X04209Y03455*
X04206Y03457*
X04204Y03458*
X04201Y0346*
X04198Y03461*
X04195Y03462*
X04192Y03462*
X04189Y03463*
X04186Y03463*
X04183*
X0418Y03463*
X04177Y03462*
X04174Y03462*
X04171Y03461*
X04168Y0346*
X04165Y03458*
X04163Y03457*
X0416Y03455*
X04158Y03454*
X04155Y03452*
X04153Y0345*
X04151Y03447*
X04149Y03445*
X04148Y03442*
X04146Y0344*
X04145Y03437*
X04144Y03434*
X04143Y03431*
X04142Y03429*
X04142Y03426*
X04141Y03423*
X04141Y0342*
X04141Y03416*
X04142Y03413*
X04142Y0341*
X04143Y03408*
X04144Y03405*
X04145Y03402*
X04146Y03399*
X04148Y03397*
X04149Y03394*
X04151Y03392*
X04153Y03389*
X04155Y03387*
X04158Y03385*
X0416Y03384*
X04163Y03382*
X04165Y03381*
X04168Y03379*
X04171Y03378*
X04174Y03377*
X04177Y03377*
X0418Y03376*
X04183Y03376*
X04186*
X04189Y03376*
X04192Y03377*
X04195Y03377*
X04198Y03378*
X04201Y03379*
X04204Y03381*
X04206Y03382*
X04209Y03384*
X04211Y03385*
X04214Y03387*
X04216Y03389*
X04218Y03392*
X0422Y03394*
X04221Y03397*
X04223Y03399*
X04224Y03402*
X04225Y03405*
X04226Y03408*
X04227Y0341*
X04227Y03413*
X04228Y03416*
X04228Y0342*
X03928D02*
D01*
X03928Y03423*
X03928Y03426*
X03927Y03429*
X03926Y03431*
X03925Y03434*
X03924Y03437*
X03923Y0344*
X03921Y03443*
X0392Y03445*
X03918Y03447*
X03916Y0345*
X03914Y03452*
X03911Y03454*
X03909Y03456*
X03906Y03457*
X03904Y03459*
X03901Y0346*
X03898Y03461*
X03895Y03462*
X03892Y03462*
X03889Y03463*
X03886Y03463*
X03883*
X0388Y03463*
X03877Y03462*
X03874Y03462*
X03871Y03461*
X03868Y0346*
X03865Y03459*
X03863Y03457*
X0386Y03456*
X03858Y03454*
X03855Y03452*
X03853Y0345*
X03851Y03447*
X03849Y03445*
X03848Y03443*
X03846Y0344*
X03845Y03437*
X03844Y03434*
X03843Y03431*
X03842Y03429*
X03841Y03426*
X03841Y03423*
X03841Y0342*
X03841Y03416*
X03841Y03413*
X03842Y0341*
X03843Y03408*
X03844Y03405*
X03845Y03402*
X03846Y03399*
X03848Y03396*
X03849Y03394*
X03851Y03392*
X03853Y03389*
X03855Y03387*
X03858Y03385*
X0386Y03383*
X03863Y03382*
X03865Y0338*
X03868Y03379*
X03871Y03378*
X03874Y03377*
X03877Y03377*
X0388Y03376*
X03883Y03376*
X03886*
X03889Y03376*
X03892Y03377*
X03895Y03377*
X03898Y03378*
X03901Y03379*
X03904Y0338*
X03906Y03382*
X03909Y03383*
X03911Y03385*
X03914Y03387*
X03916Y03389*
X03918Y03392*
X0392Y03394*
X03921Y03396*
X03923Y03399*
X03924Y03402*
X03925Y03405*
X03926Y03408*
X03927Y0341*
X03928Y03413*
X03928Y03416*
X03928Y0342*
X03906Y03805D02*
D01*
X03906Y03806*
X03906Y03808*
X03906Y03809*
X03905Y0381*
X03905Y03812*
X03904Y03813*
X03904Y03815*
X03903Y03816*
X03902Y03817*
X03901Y03818*
X039Y0382*
X039Y0382*
X03906Y03805D02*
D01*
X03906Y03806*
X03906Y03808*
X03906Y03809*
X03905Y0381*
X03905Y03812*
X03904Y03813*
X03904Y03815*
X03903Y03816*
X03902Y03817*
X03901Y03818*
X039Y0382*
X039Y0382*
X03817Y0391D02*
D01*
X03817Y03912*
X03817Y03915*
X03816Y03917*
X03816Y0392*
X03815Y03922*
X03814Y03925*
X03813Y03927*
X03811Y03929*
X0381Y03932*
X03808Y03934*
X03806Y03936*
X03805Y03937*
X03803Y03939*
X038Y03941*
X03798Y03942*
X03796Y03943*
X03794Y03944*
X03791Y03945*
X03789Y03946*
X03786Y03946*
X03783Y03947*
X03781Y03947*
X03778*
X03776Y03947*
X03773Y03946*
X0377Y03946*
X03768Y03945*
X03765Y03944*
X03763Y03943*
X03761Y03942*
X03759Y03941*
X03756Y03939*
X03754Y03937*
X03753Y03936*
X03751Y03934*
X03749Y03932*
X03748Y03929*
X03746Y03927*
X03745Y03925*
X03744Y03922*
X03743Y0392*
X03743Y03917*
X03742Y03915*
X03742Y03912*
X03742Y0391*
X03742Y03907*
X03742Y03904*
X03743Y03902*
X03743Y03899*
X03744Y03897*
X03745Y03894*
X03746Y03892*
X03748Y0389*
X03749Y03887*
X03751Y03885*
X03753Y03883*
X03754Y03882*
X03756Y0388*
X03759Y03878*
X03761Y03877*
X03763Y03876*
X03765Y03875*
X03768Y03874*
X0377Y03873*
X03773Y03873*
X03776Y03872*
X03778Y03872*
X03781*
X03783Y03872*
X03786Y03873*
X03816Y03903D02*
D01*
X03817Y03906*
X03817Y03908*
X03817Y0391*
X03695Y03665D02*
D01*
X03694Y03666*
X03693Y03667*
X03691Y03668*
X0369Y03668*
X03689Y03669*
X03687Y0367*
X03686Y0367*
X03684Y03671*
X03683Y03671*
X03681Y03671*
X0368Y03671*
X0368Y03671*
D01*
X03678Y03674*
X03676Y03676*
X03674Y03678*
X03672Y0368*
X0367Y03682*
X03668Y03684*
X03665Y03685*
X03663Y03687*
X0366Y03688*
X03658Y03689*
X03655Y0369*
X03652Y0369*
X03649Y03691*
X03646Y03691*
X03643Y03691*
X0364Y03691*
X03638Y0369*
X03635Y0369*
X03695Y03665D02*
D01*
X03694Y03666*
X03693Y03667*
X03691Y03668*
X0369Y03668*
X03689Y03669*
X03687Y0367*
X03686Y0367*
X03684Y03671*
X03683Y03671*
X03681Y03671*
X0368Y03671*
X0368Y03671*
X03617Y0381D02*
D01*
X03617Y03812*
X03617Y03815*
X03616Y03817*
X03616Y0382*
X03615Y03822*
X03614Y03825*
X03613Y03827*
X03611Y03829*
X0361Y03832*
X03608Y03834*
X03606Y03836*
X03605Y03837*
X03603Y03839*
X036Y03841*
X03598Y03842*
X03596Y03843*
X03594Y03844*
X03591Y03845*
X03589Y03846*
X03586Y03846*
X03583Y03847*
X03581Y03847*
X03578*
X03576Y03847*
X03573Y03846*
X0357Y03846*
X03568Y03845*
X03565Y03844*
X03563Y03843*
X03561Y03842*
X03559Y03841*
X03556Y03839*
X03554Y03837*
X03553Y03836*
X03551Y03834*
X03549Y03832*
X03548Y03829*
X03546Y03827*
X03545Y03825*
X03544Y03822*
X03543Y0382*
X03543Y03817*
X03542Y03815*
X03542Y03812*
X03542Y0381*
X03542Y03807*
X03542Y03804*
X03543Y03802*
X03543Y03799*
X03544Y03797*
X03545Y03794*
X03546Y03792*
X03548Y0379*
X03549Y03787*
X03551Y03785*
X03553Y03783*
X03554Y03782*
X03556Y0378*
X03558Y03779*
X03601D02*
D01*
X03603Y03781*
X03605Y03782*
X03607Y03784*
X03609Y03786*
X0361Y03788*
X03612Y0379*
X03613Y03793*
X03614Y03795*
X03615Y03798*
X03616Y038*
X03616Y03803*
X03617Y03805*
X03617Y03808*
X03617Y0381*
X03604Y03659D02*
D01*
X03604Y03656*
X03603Y03653*
X03603Y0365*
X03603Y03648*
X03603Y03645*
X03604Y03642*
X03604Y03639*
X03605Y03636*
X03606Y03634*
X03607Y03631*
X03609Y03628*
X0361Y03626*
X03612Y03624*
X03614Y03621*
X03616Y03619*
X03618Y03617*
X03621Y03616*
X03623Y03614*
X03625Y03613*
X03628Y03611*
X03631Y0361*
X03634Y0361*
X03636Y03609*
X03639Y03608*
X03642Y03608*
X03645Y03608*
X03648Y03608*
X03651Y03609*
X03654Y03609*
X03656Y0361*
X03659Y03611*
X03662Y03612*
X03664Y03613*
X03667Y03615*
X03669Y03616*
X03671Y03618*
X03674Y0362*
X03676Y03622*
X03676Y03622*
X03558Y03715D02*
D01*
X03558Y03713*
X03558Y03711*
X03558Y0371*
X03559Y03709*
X03559Y03707*
X0356Y03706*
X0356Y03704*
X03561Y03703*
X03562Y03702*
X03563Y03701*
X03564Y03699*
X03564Y03699*
X03558Y03715D02*
D01*
X03558Y03713*
X03558Y03711*
X03558Y0371*
X03559Y03709*
X03559Y03707*
X0356Y03706*
X0356Y03704*
X03561Y03703*
X03562Y03702*
X03563Y03701*
X03564Y03699*
X03564Y03699*
X03491Y03655D02*
D01*
X03491Y03657*
X0349Y0366*
X0349Y03663*
X03489Y03666*
X03488Y03669*
X03487Y03671*
X03486Y03674*
X03485Y03676*
X03483Y03679*
X03481Y03681*
X03479Y03683*
X03477Y03685*
X03475Y03687*
X03473Y03689*
X0347Y0369*
X03468Y03692*
X03465Y03693*
X03462Y03694*
X0346Y03695*
X03457Y03695*
X03454Y03696*
X03451Y03696*
X03448*
X03445Y03696*
X03442Y03695*
X03439Y03695*
X03437Y03694*
X03434Y03693*
X03431Y03692*
X03429Y0369*
X03426Y03689*
X03424Y03687*
X03422Y03685*
X0342Y03683*
X03418Y03681*
X03416Y03679*
X03414Y03676*
X03413Y03674*
X03412Y03671*
X03411Y03669*
X0341Y03666*
X03409Y03663*
X03409Y0366*
X03408Y03657*
X03408Y03655*
X03408Y03652*
X03409Y03649*
X03409Y03646*
X0341Y03643*
X03411Y0364*
X03412Y03638*
X03413Y03635*
X03414Y03633*
X03416Y0363*
X03418Y03628*
X0342Y03626*
X03422Y03624*
X03424Y03622*
X03426Y0362*
X03429Y03619*
X03431Y03617*
X03434Y03616*
X03437Y03615*
X03439Y03614*
X03442Y03614*
X03445Y03613*
X03448Y03613*
X03451*
X03454Y03613*
X03457Y03614*
X0346Y03614*
X03462Y03615*
X03465Y03616*
X03468Y03617*
X0347Y03619*
X03473Y0362*
X03475Y03622*
X03477Y03624*
X03479Y03626*
X03481Y03628*
X03483Y0363*
X03485Y03633*
X03486Y03635*
X03487Y03638*
X03488Y0364*
X03489Y03643*
X0349Y03646*
X0349Y03649*
X03491Y03652*
X03491Y03655*
X03928Y0352D02*
D01*
X03928Y03523*
X03927Y03526*
X03927Y03529*
X03926Y03531*
X03925Y03534*
X03924Y03537*
X03923Y0354*
X03921Y03542*
X0392Y03545*
X03918Y03547*
X03916Y0355*
X03914Y03552*
X03911Y03554*
X03909Y03555*
X03906Y03557*
X03904Y03558*
X03901Y0356*
X03898Y03561*
X03895Y03562*
X03892Y03562*
X03889Y03563*
X03886Y03563*
X03883*
X0388Y03563*
X03877Y03562*
X03874Y03562*
X03871Y03561*
X03868Y0356*
X03865Y03558*
X03863Y03557*
X0386Y03555*
X03858Y03554*
X03855Y03552*
X03853Y0355*
X03851Y03547*
X03849Y03545*
X03848Y03542*
X03847Y03541*
Y03498D02*
D01*
X03849Y03495*
X0385Y03493*
X03852Y0349*
X03854Y03488*
X03857Y03486*
X03859Y03484*
X03862Y03483*
X03864Y03481*
X03867Y0348*
X0387Y03479*
X03873Y03478*
X03876Y03477*
X03879Y03477*
X03882Y03476*
X03885Y03476*
X03888Y03476*
X03891Y03477*
X03894Y03477*
X03896Y03478*
X03899Y03479*
X03902Y0348*
X03905Y03481*
X03908Y03483*
X0391Y03484*
X03912Y03486*
X03915Y03488*
X03917Y03491*
X03919Y03493*
X0392Y03495*
X03922Y03498*
X03923Y03501*
X03925Y03503*
X03926Y03506*
X03927Y03509*
X03927Y03512*
X03928Y03515*
X03928Y03518*
X03928Y0352*
X03794Y03504D02*
D01*
X03795Y03503*
X03796Y03502*
X03798Y03501*
X03799Y03501*
X038Y035*
X03802Y03499*
X03803Y03499*
X03805Y03498*
X03806Y03498*
X03808Y03498*
X03809Y03498*
X0381Y03498*
X03794Y03504D02*
D01*
X03795Y03503*
X03796Y03502*
X03798Y03501*
X03799Y03501*
X038Y035*
X03802Y03499*
X03803Y03499*
X03805Y03498*
X03806Y03498*
X03808Y03498*
X03809Y03498*
X0381Y03498*
X03755Y03344D02*
D01*
X03756Y03345*
X03757Y03346*
X03758Y03348*
X03758Y03349*
X03759Y0335*
X0376Y03352*
X0376Y03353*
X03761Y03355*
X03761Y03356*
X03761Y03358*
X03761Y03359*
X03761Y0336*
X03755Y03344D02*
D01*
X03756Y03345*
X03757Y03346*
X03758Y03348*
X03758Y03349*
X03759Y0335*
X0376Y03352*
X0376Y03353*
X03761Y03355*
X03761Y03356*
X03761Y03358*
X03761Y03359*
X03761Y0336*
X03615Y0347D02*
D01*
X03614Y03471*
X03613Y03472*
X03611Y03473*
X0361Y03473*
X03609Y03474*
X03607Y03475*
X03606Y03475*
X03604Y03476*
X03603Y03476*
X03601Y03476*
X036Y03476*
X036Y03476*
X03615Y0347D02*
D01*
X03614Y03471*
X03613Y03472*
X03611Y03473*
X0361Y03473*
X03609Y03474*
X03607Y03475*
X03606Y03475*
X03604Y03476*
X03603Y03476*
X03601Y03476*
X036Y03476*
X036Y03476*
X03666Y0341D02*
D01*
X03666Y03411*
X03666Y03413*
X03666Y03414*
X03665Y03415*
X03665Y03417*
X03664Y03418*
X03664Y0342*
X03663Y03421*
X03662Y03422*
X03661Y03423*
X0366Y03425*
X0366Y03425*
X03666Y0341D02*
D01*
X03666Y03411*
X03666Y03413*
X03666Y03414*
X03665Y03415*
X03665Y03417*
X03664Y03418*
X03664Y0342*
X03663Y03421*
X03662Y03422*
X03661Y03423*
X0366Y03425*
X0366Y03425*
X03686Y0335D02*
D01*
X03686Y03352*
X03685Y03355*
X03685Y03358*
X03684Y03361*
X03683Y03364*
X03682Y03366*
X03681Y03369*
X0368Y03371*
X03678Y03374*
X03676Y03376*
X03674Y03378*
X03672Y0338*
X0367Y03382*
X03668Y03384*
X03666Y03385*
X03683Y03333D02*
D01*
X03684Y03336*
X03684Y03339*
X03685Y03342*
X03686Y03344*
X03686Y03347*
X03686Y0335*
X03491Y03355D02*
D01*
X03491Y03357*
X0349Y0336*
X0349Y03363*
X03489Y03366*
X03488Y03369*
X03487Y03371*
X03486Y03374*
X03485Y03376*
X03483Y03379*
X03481Y03381*
X03479Y03383*
X03477Y03385*
X03475Y03387*
X03473Y03389*
X0347Y0339*
X03468Y03392*
X03465Y03393*
X03462Y03394*
X0346Y03395*
X03457Y03395*
X03454Y03396*
X03451Y03396*
X03448*
X03445Y03396*
X03442Y03395*
X03439Y03395*
X03437Y03394*
X03434Y03393*
X03431Y03392*
X03429Y0339*
X03426Y03389*
X03424Y03387*
X03422Y03385*
X0342Y03383*
X03418Y03381*
X03416Y03379*
X03414Y03376*
X03413Y03374*
X03412Y03371*
X03411Y03369*
X0341Y03366*
X03409Y03363*
X03409Y0336*
X03408Y03357*
X03408Y03355*
X03408Y03352*
X03409Y03349*
X03409Y03346*
X0341Y03343*
X03411Y0334*
X03412Y03338*
X03413Y03335*
X03414Y03333*
X03416Y0333*
X03418Y03328*
X0342Y03326*
X03422Y03324*
X03424Y03322*
X03426Y0332*
X03428Y03319*
X04228Y0332D02*
D01*
X04228Y03323*
X04227Y03326*
X04227Y03329*
X04226Y03331*
X04225Y03334*
X04224Y03337*
X04223Y0334*
X04221Y03342*
X0422Y03345*
X04218Y03347*
X04216Y0335*
X04214Y03352*
X04211Y03354*
X04209Y03355*
X04206Y03357*
X04204Y03358*
X04201Y0336*
X04198Y03361*
X04195Y03362*
X04192Y03362*
X04189Y03363*
X04186Y03363*
X04183*
X0418Y03363*
X04177Y03362*
X04174Y03362*
X04171Y03361*
X04168Y0336*
X04165Y03358*
X04163Y03357*
X0416Y03355*
X04158Y03354*
X04155Y03352*
X04153Y0335*
X04151Y03347*
X04149Y03345*
X04148Y03342*
X04146Y0334*
X04145Y03337*
X04144Y03334*
X04143Y03331*
X04142Y03329*
X04142Y03326*
X04141Y03323*
X04141Y0332*
X04141Y03316*
X04142Y03313*
X04142Y0331*
X04143Y03308*
X04144Y03305*
X04145Y03302*
X04146Y03299*
X04148Y03297*
X04149Y03294*
X04151Y03292*
X04153Y03289*
X04155Y03287*
X04158Y03285*
X0416Y03284*
X04163Y03282*
X04165Y03281*
X04168Y03279*
X04171Y03278*
X04174Y03277*
X04177Y03277*
X0418Y03276*
X04183Y03276*
X04186*
X04189Y03276*
X04192Y03277*
X04195Y03277*
X04198Y03278*
X04201Y03279*
X04204Y03281*
X04206Y03282*
X04209Y03284*
X04211Y03285*
X04214Y03287*
X04216Y03289*
X04218Y03292*
X0422Y03294*
X04221Y03297*
X04223Y03299*
X04224Y03302*
X04225Y03305*
X04226Y03308*
X04227Y0331*
X04227Y03313*
X04228Y03316*
X04228Y0332*
Y0322D02*
D01*
X04228Y03223*
X04227Y03226*
X04227Y03229*
X04226Y03231*
X04225Y03234*
X04224Y03237*
X04223Y0324*
X04221Y03242*
X0422Y03245*
X04218Y03247*
X04216Y0325*
X04214Y03252*
X04211Y03254*
X04209Y03255*
X04206Y03257*
X04204Y03258*
X04201Y0326*
X04198Y03261*
X04195Y03262*
X04192Y03262*
X04189Y03263*
X04186Y03263*
X04183*
X0418Y03263*
X04177Y03262*
X04174Y03262*
X04171Y03261*
X04168Y0326*
X04165Y03258*
X04163Y03257*
X0416Y03255*
X04158Y03254*
X04155Y03252*
X04153Y0325*
X04151Y03247*
X04149Y03245*
X04148Y03242*
X04146Y0324*
X04145Y03237*
X04144Y03234*
X04143Y03231*
X04142Y03229*
X04142Y03226*
X04141Y03223*
X04141Y0322*
X04141Y03216*
X04142Y03213*
X04142Y0321*
X04143Y03208*
X04144Y03205*
X04145Y03202*
X04146Y03199*
X04148Y03197*
X04149Y03194*
X04151Y03192*
X04153Y03189*
X04155Y03187*
X04158Y03185*
X0416Y03184*
X04163Y03182*
X04165Y03181*
X04168Y03179*
X04171Y03178*
X04174Y03177*
X04177Y03177*
X0418Y03176*
X04183Y03176*
X04186*
X04189Y03176*
X04192Y03177*
X04195Y03177*
X04198Y03178*
X04201Y03179*
X04204Y03181*
X04206Y03182*
X04209Y03184*
X04211Y03185*
X04214Y03187*
X04216Y03189*
X04218Y03192*
X0422Y03194*
X04221Y03197*
X04223Y03199*
X04224Y03202*
X04225Y03205*
X04226Y03208*
X04227Y0321*
X04227Y03213*
X04228Y03216*
X04228Y0322*
X0398Y03213D02*
D01*
X03981Y03214*
X03982Y03216*
X03983Y03217*
X03983Y03218*
X03984Y0322*
X03985Y03221*
X03985Y03222*
X03986Y03224*
X03986Y03225*
X03986Y03227*
X03986Y03228*
X03986Y03229*
X0398Y03213D02*
D01*
X03981Y03214*
X03982Y03216*
X03983Y03217*
X03983Y03218*
X03984Y0322*
X03985Y03221*
X03985Y03222*
X03986Y03224*
X03986Y03225*
X03986Y03227*
X03986Y03228*
X03986Y03229*
X04228Y0312D02*
D01*
X04228Y03123*
X04227Y03126*
X04227Y03129*
X04226Y03131*
X04225Y03134*
X04224Y03137*
X04223Y0314*
X04221Y03142*
X0422Y03145*
X04218Y03147*
X04216Y0315*
X04214Y03152*
X04211Y03154*
X04209Y03155*
X04206Y03157*
X04204Y03158*
X04201Y0316*
X04198Y03161*
X04195Y03162*
X04192Y03162*
X04189Y03163*
X04186Y03163*
X04183*
X0418Y03163*
X04177Y03162*
X04174Y03162*
X04171Y03161*
X04168Y0316*
X04165Y03158*
X04163Y03157*
X0416Y03155*
X04158Y03154*
X04155Y03152*
X04153Y0315*
X04151Y03147*
X04149Y03145*
X04148Y03142*
X04146Y0314*
X04145Y03137*
X04144Y03134*
X04143Y03131*
X04142Y03129*
X04142Y03126*
X04141Y03123*
X04141Y0312*
X04141Y03116*
X04142Y03113*
X04142Y0311*
X04143Y03108*
X04144Y03105*
X04145Y03102*
X04146Y03099*
X04148Y03097*
X04149Y03094*
X04151Y03092*
X04153Y03089*
X04155Y03087*
X04158Y03085*
X0416Y03084*
X04163Y03082*
X04165Y03081*
X04168Y03079*
X04171Y03078*
X04174Y03077*
X04177Y03077*
X0418Y03076*
X04183Y03076*
X04186*
X04189Y03076*
X04192Y03077*
X04195Y03077*
X04198Y03078*
X04201Y03079*
X04204Y03081*
X04206Y03082*
X04209Y03084*
X04211Y03085*
X04214Y03087*
X04216Y03089*
X04218Y03092*
X0422Y03094*
X04221Y03097*
X04223Y03099*
X04224Y03102*
X04225Y03105*
X04226Y03108*
X04227Y0311*
X04227Y03113*
X04228Y03116*
X04228Y0312*
X03955Y03198D02*
D01*
X03957Y03198*
X03958Y03198*
X0396Y03198*
X03961Y03199*
X03963Y03199*
X03964Y032*
X03965Y032*
X03967Y03201*
X03968Y03202*
X03969Y03203*
X0397Y03204*
X03971Y03204*
X03928Y0332D02*
D01*
X03928Y03323*
X03927Y03326*
X03927Y03329*
X03926Y03331*
X03925Y03334*
X03924Y03337*
X03923Y0334*
X03921Y03342*
X0392Y03345*
X03918Y03347*
X03916Y0335*
X03914Y03352*
X03911Y03354*
X03909Y03355*
X03906Y03357*
X03904Y03358*
X03901Y0336*
X03898Y03361*
X03895Y03362*
X03892Y03362*
X03889Y03363*
X03886Y03363*
X03883*
X0388Y03363*
X03877Y03362*
X03874Y03362*
X03871Y03361*
X03868Y0336*
X03865Y03358*
X03863Y03357*
X0386Y03355*
X03858Y03354*
X03855Y03352*
X03853Y0335*
X03851Y03347*
X03849Y03345*
X03848Y03342*
X03846Y0334*
X03845Y03337*
X03844Y03334*
X03843Y03331*
X03842Y03329*
X03842Y03326*
X03841Y03323*
X03841Y0332*
X03841Y03316*
X03842Y03313*
X03842Y0331*
X03843Y03308*
X03844Y03305*
X03845Y03302*
X03846Y03299*
X03848Y03297*
X03849Y03294*
X03851Y03292*
X03853Y03289*
X03855Y03287*
X03858Y03285*
X0386Y03284*
X03863Y03282*
X03865Y03281*
X03868Y03279*
X03871Y03278*
X03874Y03277*
X03877Y03277*
X0388Y03276*
X03883Y03276*
X03886*
X03889Y03276*
X03892Y03277*
X03895Y03277*
X03898Y03278*
X03901Y03279*
X03904Y03281*
X03906Y03282*
X03909Y03284*
X03911Y03285*
X03914Y03287*
X03916Y03289*
X03918Y03292*
X0392Y03294*
X03921Y03297*
X03923Y03299*
X03924Y03302*
X03925Y03305*
X03926Y03308*
X03927Y0331*
X03927Y03313*
X03928Y03316*
X03928Y0332*
X03955Y03198D02*
D01*
X03957Y03198*
X03958Y03198*
X0396Y03198*
X03961Y03199*
X03963Y03199*
X03964Y032*
X03965Y032*
X03967Y03201*
X03968Y03202*
X03969Y03203*
X0397Y03204*
X03971Y03204*
X03922Y03241D02*
D01*
X0392Y03244*
X03919Y03246*
X03917Y03249*
X03915Y03251*
X03912Y03253*
X0391Y03255*
X03907Y03256*
X03905Y03258*
X03902Y03259*
X03899Y0326*
X03896Y03261*
X03893Y03262*
X0389Y03262*
X03887Y03263*
X03884Y03263*
X03881Y03263*
X03878Y03262*
X03875Y03262*
X03873Y03261*
X0387Y0326*
X03867Y03259*
X03864Y03258*
X03861Y03256*
X03859Y03255*
X03857Y03253*
X03854Y03251*
X03852Y03248*
X0385Y03246*
X03849Y03244*
X03847Y03241*
X03846Y03238*
X03844Y03236*
X03843Y03233*
X03842Y0323*
X03842Y03227*
X03841Y03224*
X03841Y03221*
X03841Y03218*
X03841Y03215*
X03842Y03212*
X03842Y03209*
X03843Y03206*
X03844Y03203*
X03846Y032*
X03847Y03198*
X03849Y03195*
X0385Y03193*
X03852Y0319*
X03854Y03188*
X03857Y03186*
X03859Y03184*
X03862Y03183*
X03864Y03181*
X03867Y0318*
X0387Y03179*
X03873Y03178*
X03876Y03177*
X03879Y03177*
X03882Y03176*
X03885Y03176*
X03888Y03176*
X03891Y03177*
X03894Y03177*
X03896Y03178*
X03899Y03179*
X03902Y0318*
X03905Y03181*
X03908Y03183*
X0391Y03184*
X03912Y03186*
X03915Y03188*
X03917Y03191*
X03919Y03193*
X0392Y03195*
X03922Y03198*
X03928Y0312D02*
D01*
X03928Y03123*
X03927Y03126*
X03927Y03129*
X03926Y03131*
X03925Y03134*
X03924Y03137*
X03923Y0314*
X03921Y03142*
X0392Y03145*
X03918Y03147*
X03916Y0315*
X03914Y03152*
X03911Y03154*
X03909Y03155*
X03906Y03157*
X03904Y03158*
X03901Y0316*
X03898Y03161*
X03895Y03162*
X03892Y03162*
X03889Y03163*
X03886Y03163*
X03883*
X0388Y03163*
X03877Y03162*
X03874Y03162*
X03871Y03161*
X03868Y0316*
X03865Y03158*
X03863Y03157*
X0386Y03155*
X03858Y03154*
X03855Y03152*
X03853Y0315*
X03851Y03147*
X03849Y03145*
X03848Y03142*
X03847Y03141*
Y03098D02*
D01*
X03849Y03095*
X0385Y03093*
X03852Y0309*
X03854Y03088*
X03857Y03086*
X03859Y03084*
X03862Y03083*
X03864Y03081*
X03867Y0308*
X0387Y03079*
X03873Y03078*
X03876Y03077*
X03879Y03077*
X03882Y03076*
X03885Y03076*
X03888Y03076*
X03891Y03077*
X03894Y03077*
X03896Y03078*
X03899Y03079*
X03902Y0308*
X03905Y03081*
X03908Y03083*
X0391Y03084*
X03912Y03086*
X03915Y03088*
X03917Y03091*
X03919Y03093*
X0392Y03095*
X03922Y03098*
X03923Y03101*
X03925Y03103*
X03926Y03106*
X03927Y03109*
X03927Y03112*
X03928Y03115*
X03928Y03118*
X03928Y0312*
X04228Y0302D02*
D01*
X04228Y03023*
X04227Y03026*
X04227Y03029*
X04226Y03031*
X04225Y03034*
X04224Y03037*
X04223Y0304*
X04221Y03042*
X0422Y03045*
X04218Y03047*
X04216Y0305*
X04214Y03052*
X04211Y03054*
X04209Y03055*
X04206Y03057*
X04204Y03058*
X04201Y0306*
X04198Y03061*
X04195Y03062*
X04192Y03062*
X04189Y03063*
X04186Y03063*
X04183*
X0418Y03063*
X04177Y03062*
X04174Y03062*
X04171Y03061*
X04168Y0306*
X04165Y03058*
X04163Y03057*
X0416Y03055*
X04158Y03054*
X04155Y03052*
X04153Y0305*
X04151Y03047*
X04149Y03045*
X04148Y03042*
X04146Y0304*
X04145Y03037*
X04144Y03034*
X04143Y03031*
X04142Y03029*
X04142Y03026*
X04141Y03023*
X04141Y0302*
X04141Y03016*
X04142Y03013*
X04142Y0301*
X04143Y03008*
X04144Y03005*
X04145Y03002*
X04146Y02999*
X04148Y02997*
X04149Y02994*
X04151Y02992*
X04153Y02989*
X04155Y02987*
X04158Y02985*
X0416Y02984*
X04163Y02982*
X04165Y02981*
X04168Y02979*
X04171Y02978*
X04174Y02977*
X04177Y02977*
X0418Y02976*
X04183Y02976*
X04186*
X04189Y02976*
X04192Y02977*
X04195Y02977*
X04198Y02978*
X04201Y02979*
X04204Y02981*
X04206Y02982*
X04209Y02984*
X04211Y02985*
X04214Y02987*
X04216Y02989*
X04218Y02992*
X0422Y02994*
X04221Y02997*
X04223Y02999*
X04224Y03002*
X04225Y03005*
X04226Y03008*
X04227Y0301*
X04227Y03013*
X04228Y03016*
X04228Y0302*
X03906Y02982D02*
D01*
X03909Y02984*
X03911Y02985*
X03914Y02987*
X03916Y02989*
X03918Y02992*
X0392Y02994*
X03921Y02997*
X03923Y02999*
X03924Y03002*
X03925Y03005*
X03926Y03008*
X03927Y03011*
X03927Y03014*
X03928Y03017*
X03928Y0302*
D01*
X03928Y03023*
X03927Y03026*
X03927Y03029*
X03926Y03031*
X03925Y03034*
X03924Y03037*
X03923Y0304*
X03921Y03042*
X0392Y03045*
X03918Y03047*
X03916Y0305*
X03914Y03052*
X03911Y03054*
X03909Y03055*
X03906Y03057*
X03904Y03058*
X03901Y0306*
X03898Y03061*
X03895Y03062*
X03892Y03062*
X03889Y03063*
X03886Y03063*
X03883*
X0388Y03063*
X03877Y03062*
X03874Y03062*
X03871Y03061*
X03868Y0306*
X03865Y03058*
X03863Y03057*
X0386Y03055*
X03858Y03054*
X03855Y03052*
X03853Y0305*
X03851Y03047*
X03849Y03045*
X03848Y03042*
X03846Y0304*
X03845Y03037*
X03844Y03034*
X03843Y03031*
X03842Y03029*
X03842Y03026*
X03841Y03023*
X03841Y0302*
X03841Y03016*
X03842Y03013*
X03842Y0301*
X03843Y03008*
X03844Y03005*
X03845Y03002*
X03846Y02999*
X03848Y02997*
X03849Y02994*
X03851Y02992*
X03853Y02989*
X03855Y02987*
X03858Y02985*
X0386Y02984*
X03863Y02982*
X03926Y0287D02*
D01*
X03926Y02872*
X03925Y02875*
X03925Y02878*
X03924Y02881*
X03923Y02884*
X03922Y02886*
X03921Y02889*
X0392Y02891*
X03918Y02894*
X03916Y02896*
X03914Y02898*
X03912Y029*
X0391Y02902*
X03908Y02904*
X03906Y02905*
X03863D02*
D01*
X0386Y02903*
X03858Y02901*
X03856Y02899*
X03854Y02897*
X03852Y02895*
X0385Y02893*
X03849Y0289*
X03847Y02888*
X03846Y02885*
X03845Y02883*
X03844Y0288*
X03844Y02877*
X03843Y02874*
X03843Y02871*
X03843Y02868*
X03843Y02865*
X03844Y02863*
X03844Y0286*
X03845Y02857*
X03846Y02854*
X03847Y02852*
X03849Y02849*
X0385Y02847*
X03852Y02844*
X03854Y02842*
X03856Y0284*
X03858Y02838*
X0386Y02836*
X03862Y02835*
X03865Y02833*
X03867Y02832*
X0387Y02831*
X03873Y0283*
X03876Y02829*
X03878Y02829*
X03881Y02828*
X03884Y02828*
X03887Y02828*
X0389Y02828*
X03893Y02829*
X03896Y0283*
X03898Y02831*
X03901Y02832*
X03904Y02833*
X03906Y02834*
X03909Y02836*
X03911Y02838*
X03913Y0284*
X03915Y02842*
X03917Y02844*
X03919Y02846*
X0392Y02849*
X03922Y02851*
X03923Y02854*
X03924Y02856*
X03925Y02859*
X03925Y02862*
X03926Y02865*
X03926Y02868*
X03926Y0287*
X03623Y03385D02*
D01*
X0362Y03383*
X03618Y03381*
X03616Y03379*
X03614Y03377*
X03612Y03375*
X0361Y03373*
X03609Y0337*
X03607Y03368*
X03606Y03365*
X03605Y03363*
X03604Y0336*
X03604Y03357*
X03603Y03354*
X03603Y03351*
X03603Y03348*
X03603Y03345*
X03604Y03343*
X03604Y0334*
X03605Y03337*
X03606Y03334*
X03607Y03332*
X03609Y03329*
X0361Y03327*
X03612Y03324*
X03614Y03322*
X03616Y0332*
X03618Y03318*
X0362Y03316*
X03622Y03315*
X03625Y03313*
X03627Y03312*
X0363Y03311*
X03633Y0331*
X03636Y03309*
X03638Y03309*
X03641Y03308*
X03644Y03308*
X03647Y03308*
X0365Y03308*
X03653Y03309*
X03656Y0331*
X03658Y03311*
X03661Y03311*
X03471Y03319D02*
D01*
X03474Y03321*
X03476Y03323*
X03478Y03325*
X0348Y03327*
X03482Y03329*
X03484Y03331*
X03485Y03334*
X03487Y03336*
X03488Y03339*
X03489Y03341*
X0349Y03344*
X0349Y03347*
X03491Y0335*
X03491Y03353*
X03491Y03355*
X03795Y03141D02*
D01*
X03793Y03141*
X03791Y03141*
X0379Y03141*
X03789Y0314*
X03787Y0314*
X03786Y03139*
X03784Y03139*
X03783Y03138*
X03782Y03137*
X03781Y03136*
X03779Y03135*
X03779Y03135*
X03795Y03141D02*
D01*
X03793Y03141*
X03791Y03141*
X0379Y03141*
X03789Y0314*
X03787Y0314*
X03786Y03139*
X03784Y03139*
X03783Y03138*
X03782Y03137*
X03781Y03136*
X03779Y03135*
X03779Y03135*
X03786Y0327D02*
D01*
X03786Y03272*
X03786Y03275*
X03785Y03278*
X03784Y03281*
X03784Y03284*
X03782Y03286*
X03781Y03289*
X0378Y03292*
X03778Y03294*
X03776Y03296*
X03774Y03298*
X03772Y033*
X0377Y03302*
X03768Y03304*
X03765Y03305*
X03763Y03307*
X0376Y03308*
X03757Y03309*
X03755Y0331*
X03752Y0331*
X03749Y03311*
X03746Y03311*
X03743*
X0374Y03311*
X03737Y0331*
X03734Y0331*
X03732Y03309*
X03729Y03308*
X03726Y03307*
X03724Y03305*
X03721Y03304*
X03719Y03302*
X03717Y033*
X03715Y03298*
X03713Y03296*
X03711Y03294*
X03709Y03292*
X03708Y03289*
X03707Y03286*
X03705Y03284*
X03705Y03281*
X03704Y03278*
X03703Y03275*
X03703Y03272*
X03703Y0327*
X03703Y03267*
X03703Y03264*
X03704Y03261*
X03705Y03258*
X03705Y03255*
X03707Y03253*
X03708Y0325*
X03709Y03247*
X03711Y03245*
X03713Y03243*
X03715Y03241*
X03717Y03239*
X03719Y03237*
X03721Y03235*
X03724Y03234*
X03726Y03232*
X03729Y03231*
X03732Y0323*
X03734Y03229*
X03737Y03229*
X0374Y03228*
X03743Y03228*
X03746*
X03749Y03228*
X03752Y03229*
X03755Y03229*
X03757Y0323*
X0376Y03231*
X03763Y03232*
X03765Y03234*
X03768Y03235*
X0377Y03237*
X03772Y03239*
X03774Y03241*
X03776Y03243*
X03778Y03245*
X0378Y03247*
X03781Y0325*
X03782Y03253*
X03784Y03255*
X03784Y03258*
X03785Y03261*
X03786Y03264*
X03786Y03267*
X03786Y0327*
X03729Y03085D02*
D01*
X03728Y03084*
X03727Y03083*
X03726Y03081*
X03726Y0308*
X03725Y03079*
X03724Y03077*
X03724Y03076*
X03723Y03074*
X03723Y03073*
X03723Y03071*
X03723Y0307*
X03723Y0307*
X0365Y03248D02*
D01*
X03651Y03248*
X03653Y03248*
X03654Y03248*
X03655Y03249*
X03657Y03249*
X03658Y0325*
X0366Y0325*
X03661Y03251*
X03662Y03252*
X03663Y03253*
X03665Y03254*
X03665Y03254*
X0365Y03248D02*
D01*
X03651Y03248*
X03653Y03248*
X03654Y03248*
X03655Y03249*
X03657Y03249*
X03658Y0325*
X0366Y0325*
X03661Y03251*
X03662Y03252*
X03663Y03253*
X03665Y03254*
X03665Y03254*
X0362Y03291D02*
D01*
X03618Y03294*
X03616Y03296*
X03614Y03298*
X03612Y033*
X0361Y03302*
X03608Y03304*
X03605Y03305*
X03603Y03307*
X036Y03308*
X03598Y03309*
X03595Y0331*
X03592Y0331*
X03589Y03311*
X03586Y03311*
X03583Y03311*
X0358Y03311*
X03578Y0331*
X03575Y0331*
X03572Y03309*
X03569Y03308*
X03567Y03307*
X03564Y03305*
X03562Y03304*
X03559Y03302*
X03557Y033*
X03555Y03298*
X03553Y03296*
X03551Y03294*
X0355Y03292*
X03548Y03289*
X03547Y03287*
X03546Y03284*
X03545Y03281*
X03544Y03278*
X03544Y03276*
X03543Y03273*
X03543Y0327*
X03543Y03267*
X03543Y03264*
X03544Y03261*
X03545Y03258*
X03546Y03256*
X03547Y03253*
X03548Y0325*
X03549Y03248*
X03551Y03245*
X03553Y03243*
X03555Y03241*
X03557Y03239*
X03559Y03237*
X03561Y03235*
X03564Y03234*
X03566Y03232*
X03569Y03231*
X03571Y0323*
X03574Y03229*
X03577Y03229*
X0358Y03228*
X03583Y03228*
X03586Y03228*
X03589Y03228*
X03591Y03229*
X03594Y03229*
X03597Y0323*
X036Y03231*
X03602Y03232*
X03605Y03234*
X03607Y03235*
X0361Y03237*
X03612Y03239*
X03614Y03241*
X03616Y03243*
X03618Y03245*
X03619Y03247*
X0362Y03248*
X03729Y03085D02*
D01*
X03728Y03084*
X03727Y03083*
X03726Y03081*
X03726Y0308*
X03725Y03079*
X03724Y03077*
X03724Y03076*
X03723Y03074*
X03723Y03073*
X03723Y03071*
X03723Y0307*
X03723Y0307*
X03465Y03254D02*
D01*
X03466Y03255*
X03467Y03257*
X03468Y03258*
X03468Y03259*
X03469Y03261*
X0347Y03262*
X0347Y03263*
X03471Y03265*
X03471Y03266*
X03471Y03268*
X03471Y03269*
X03471Y0327*
X03465Y03254D02*
D01*
X03466Y03255*
X03467Y03257*
X03468Y03258*
X03468Y03259*
X03469Y03261*
X0347Y03262*
X0347Y03263*
X03471Y03265*
X03471Y03266*
X03471Y03268*
X03471Y03269*
X03471Y0327*
X03467Y0305D02*
D01*
X03467Y03052*
X03466Y03055*
X03466Y03057*
X03465Y0306*
X03465Y03062*
X03464Y03065*
X03462Y03067*
X03461Y03069*
X0346Y03072*
X03458Y03074*
X03456Y03076*
X03454Y03077*
X03452Y03079*
X0345Y03081*
X03448Y03082*
X03446Y03083*
X03443Y03084*
X03441Y03085*
X03438Y03086*
X03436Y03086*
X03433Y03087*
X03431Y03087*
X03428*
X03425Y03087*
X03423Y03086*
X03786Y0297D02*
D01*
X03786Y02972*
X03785Y02975*
X03785Y02978*
X03784Y02981*
X03783Y02984*
X03782Y02986*
X03781Y02989*
X0378Y02991*
X03778Y02994*
X03776Y02996*
X03774Y02998*
X03772Y03*
X0377Y03002*
X03768Y03004*
X03766Y03005*
X03735Y02929D02*
D01*
X03738Y02929*
X03741Y02928*
X03744Y02928*
X03746Y02928*
X03749Y02928*
X03752Y02929*
X03755Y02929*
X03758Y0293*
X0376Y02931*
X03763Y02932*
X03766Y02934*
X03768Y02935*
X0377Y02937*
X03773Y02939*
X03775Y02941*
X03777Y02943*
X03778Y02946*
X0378Y02948*
X03781Y0295*
X03783Y02953*
X03784Y02956*
X03784Y02959*
X03785Y02961*
X03786Y02964*
X03786Y02967*
X03786Y0297*
X03723Y03005D02*
D01*
X0372Y03003*
X03718Y03001*
X03716Y02999*
X03714Y02997*
X03712Y02995*
X0371Y02993*
X03709Y0299*
X03707Y02988*
X03706Y02985*
X03705Y02983*
X03704Y0298*
X03704Y02977*
X03703Y02974*
X03703Y02971*
X03703Y02968*
X03703Y02965*
X03704Y02963*
X03704Y0296*
X03626Y0297D02*
D01*
X03626Y02972*
X03625Y02975*
X03625Y02978*
X03624Y02981*
X03623Y02984*
X03622Y02986*
X03621Y02989*
X0362Y02991*
X03618Y02994*
X03616Y02996*
X03614Y02998*
X03612Y03*
X0361Y03002*
X03608Y03004*
X03605Y03005*
X03603Y03007*
X036Y03008*
X03597Y03009*
X03595Y0301*
X03592Y0301*
X03589Y03011*
X03586Y03011*
X03583*
X0358Y03011*
X03577Y0301*
X03574Y0301*
X03572Y03009*
X03569Y03008*
X03566Y03007*
X03564Y03005*
X03561Y03004*
X03559Y03002*
X03557Y03*
X03555Y02998*
X03553Y02996*
X03551Y02994*
X03549Y02991*
X03548Y02989*
X03547Y02986*
X03546Y02984*
X03545Y02981*
X03544Y02978*
X03544Y02975*
X03543Y02972*
X03543Y0297*
X03543Y02967*
X03544Y02964*
X03544Y02961*
X03544Y0296*
X03575Y02929D02*
D01*
X03578Y02929*
X03581Y02928*
X03584Y02928*
X03586Y02928*
X03589Y02928*
X03592Y02929*
X03595Y02929*
X03598Y0293*
X036Y02931*
X03603Y02932*
X03606Y02934*
X03608Y02935*
X0361Y02937*
X03613Y02939*
X03615Y02941*
X03617Y02943*
X03618Y02946*
X0362Y02948*
X03621Y0295*
X03623Y02953*
X03624Y02956*
X03624Y02959*
X03625Y02961*
X03626Y02964*
X03626Y02967*
X03626Y0297*
X0362Y02891D02*
D01*
X03618Y02894*
X03616Y02896*
X03614Y02898*
X03612Y029*
X0361Y02902*
X03608Y02904*
X03605Y02905*
X03603Y02907*
X036Y02908*
X03598Y02909*
X03595Y0291*
X03592Y0291*
X03589Y02911*
X03586Y02911*
X03583Y02911*
X0358Y02911*
X03578Y0291*
X03575Y0291*
X03572Y02909*
X03569Y02908*
X03567Y02907*
X03564Y02905*
X03562Y02904*
X03559Y02902*
X03557Y029*
X03555Y02898*
X03553Y02896*
X03551Y02894*
X0355Y02892*
X03548Y02889*
X03547Y02887*
X03546Y02884*
X03545Y02881*
X03544Y02878*
X03544Y02876*
X03543Y02873*
X03543Y0287*
X03543Y02867*
X03543Y02864*
X03544Y02861*
X03545Y02858*
X03546Y02856*
X03547Y02853*
X03548Y0285*
X03549Y02848*
X03551Y02845*
X03553Y02843*
X03555Y02841*
X03557Y02839*
X03559Y02837*
X03561Y02835*
X03564Y02834*
X03566Y02832*
X03569Y02831*
X03571Y0283*
X03574Y02829*
X03577Y02829*
X0358Y02828*
X03583Y02828*
X03586Y02828*
X03589Y02828*
X03591Y02829*
X03594Y02829*
X03597Y0283*
X036Y02831*
X03602Y02832*
X03605Y02834*
X03607Y02835*
X0361Y02837*
X03612Y02839*
X03614Y02841*
X03616Y02843*
X03618Y02845*
X03619Y02847*
X0362Y02848*
X03645D02*
D01*
X03646Y02848*
X03648Y02848*
X03649Y02848*
X0365Y02849*
X03652Y02849*
X03653Y0285*
X03655Y0285*
X03656Y02851*
X03657Y02852*
X03658Y02853*
X0366Y02854*
X0366Y02854*
X03645Y02848D02*
D01*
X03646Y02848*
X03648Y02848*
X03649Y02848*
X0365Y02849*
X03652Y02849*
X03653Y0285*
X03655Y0285*
X03656Y02851*
X03657Y02852*
X03658Y02853*
X0366Y02854*
X0366Y02854*
X0349Y02853D02*
D01*
X03491Y02853*
X03493Y02853*
X03494Y02853*
X03495Y02854*
X03497Y02854*
X03498Y02855*
X035Y02855*
X03501Y02856*
X03502Y02857*
X03503Y02858*
X03505Y02859*
X03505Y02859*
X0349Y02853D02*
D01*
X03491Y02853*
X03493Y02853*
X03494Y02853*
X03495Y02854*
X03497Y02854*
X03498Y02855*
X035Y02855*
X03501Y02856*
X03502Y02857*
X03503Y02858*
X03505Y02859*
X03505Y02859*
X03392Y03056D02*
D01*
X03392Y03053*
X03392Y03051*
X03392Y03048*
X03392Y03045*
X03392Y03043*
X03393Y0304*
X03394Y03038*
X03395Y03035*
X03396Y03033*
X03397Y03031*
X03398Y03028*
X034Y03026*
X03402Y03024*
X03403Y03022*
X03405Y03021*
X03408Y03019*
X0341Y03018*
X03412Y03016*
X03414Y03015*
X03417Y03014*
X03419Y03013*
X03422Y03013*
X03424Y03012*
X03427Y03012*
X0343Y03012*
X03432Y03012*
X03435Y03012*
X03437Y03013*
X0344Y03014*
X03442Y03014*
X03445Y03015*
X03447Y03017*
X03449Y03018*
X03452Y03019*
X03454Y03021*
X03456Y03023*
X03457Y03025*
X03459Y03027*
X03461Y03029*
X03462Y03031*
X03463Y03033*
X03464Y03036*
X03465Y03038*
X03466Y03041*
X03466Y03043*
X03467Y03046*
X03467Y03048*
X03467Y0305*
X03467Y0295D02*
D01*
X03467Y02952*
X03467Y02955*
X03466Y02957*
X03465Y0296*
X03465Y02962*
X03464Y02965*
X03463Y02967*
X03461Y02969*
X0346Y02972*
X03458Y02974*
X03456Y02976*
X03454Y02977*
X03452Y02979*
X0345Y02981*
X03448Y02982*
X03446Y02983*
X03443Y02984*
X03441Y02985*
X03438Y02986*
X03436Y02987*
X03433Y02987*
X03431Y02987*
X03428*
X03425Y02987*
X03423Y02987*
X0342Y02986*
X03418Y02985*
X03415Y02984*
X03413Y02983*
X0341Y02982*
X03408Y02981*
X03406Y02979*
X03404Y02977*
X03402Y02976*
X034Y02974*
X03399Y02972*
X03397Y02969*
X03396Y02967*
X03395Y02965*
X03394Y02962*
X03393Y0296*
X03393Y02957*
X03392Y02955*
X03392Y02952*
X03392Y0295*
X03392Y02947*
X03392Y02944*
X03393Y02942*
X03393Y02939*
X03394Y02937*
X03395Y02934*
X03396Y02932*
X03397Y0293*
X03399Y02927*
X034Y02925*
X03402Y02923*
X03404Y02922*
X03406Y0292*
X03408Y02918*
X0341Y02917*
X03413Y02916*
X03415Y02915*
X03418Y02914*
X0342Y02913*
X03423Y02912*
X03425Y02912*
X03428Y02912*
X03431*
X03433Y02912*
X03436Y02912*
X03438Y02913*
X03441Y02914*
X03443Y02915*
X03446Y02916*
X03448Y02917*
X0345Y02918*
X03452Y0292*
X03454Y02922*
X03456Y02923*
X03458Y02925*
X0346Y02927*
X03461Y0293*
X03463Y02932*
X03464Y02934*
X03465Y02937*
X03465Y02939*
X03466Y02942*
X03467Y02944*
X03467Y02947*
X03467Y0295*
X03266Y02943D02*
D01*
X03267Y02946*
X03268Y02949*
X03268Y02952*
X03268Y02955*
X03289Y02859D02*
D01*
X0329Y02858*
X03291Y02857*
X03293Y02856*
X03294Y02856*
X03295Y02855*
X03297Y02854*
X03298Y02854*
X033Y02853*
X03301Y02853*
X03303Y02853*
X03304Y02853*
X03305Y02853*
X03289Y02859D02*
D01*
X0329Y02858*
X03291Y02857*
X03293Y02856*
X03294Y02856*
X03295Y02855*
X03297Y02854*
X03298Y02854*
X033Y02853*
X03301Y02853*
X03303Y02853*
X03304Y02853*
X03305Y02853*
X03193Y03805D02*
D01*
X03193Y03808*
X03192Y03811*
X03192Y03814*
X03191Y03816*
X0319Y03819*
X03189Y03822*
X03188Y03825*
X03186Y03827*
X03185Y0383*
X03183Y03832*
X03181Y03835*
X03179Y03837*
X03176Y03839*
X03174Y0384*
X03171Y03842*
X03169Y03843*
X03166Y03845*
X03163Y03846*
X0316Y03847*
X03157Y03847*
X03154Y03848*
X03151Y03848*
X03148*
X03145Y03848*
X03142Y03847*
X03139Y03847*
X03136Y03846*
X03133Y03845*
X0313Y03843*
X03128Y03842*
X03125Y0384*
X03123Y03839*
X0312Y03837*
X03118Y03835*
X03116Y03832*
X03114Y0383*
X03113Y03827*
X03111Y03825*
X0311Y03822*
X03109Y03819*
X03108Y03816*
X03107Y03814*
X03107Y03811*
X03106Y03808*
X03106Y03805*
X03106Y03801*
X03107Y03798*
X03107Y03795*
X03108Y03793*
X03109Y0379*
X0311Y03787*
X03111Y03784*
X03113Y03782*
X03114Y03779*
X03116Y03777*
X03118Y03774*
X0312Y03772*
X03123Y0377*
X03125Y03769*
X03128Y03767*
X0313Y03766*
X03133Y03764*
X03136Y03763*
X03139Y03762*
X03142Y03762*
X03145Y03761*
X03148Y03761*
X03151*
X03154Y03761*
X03157Y03762*
X0316Y03762*
X03163Y03763*
X03166Y03764*
X03169Y03766*
X03171Y03767*
X03174Y03769*
X03176Y0377*
X03179Y03772*
X03181Y03774*
X03183Y03777*
X03185Y03779*
X03186Y03782*
X03188Y03784*
X03189Y03787*
X0319Y0379*
X03191Y03793*
X03192Y03795*
X03192Y03798*
X03193Y03801*
X03193Y03805*
X03268Y03555D02*
D01*
X03268Y03558*
X03267Y03561*
X03267Y03564*
X03266Y03566*
X03265Y03569*
X03264Y03572*
X03263Y03575*
X03261Y03577*
X0326Y0358*
X03258Y03582*
X03256Y03585*
X03254Y03587*
X03251Y03589*
X03249Y0359*
X03246Y03592*
X03244Y03593*
X03241Y03595*
X03238Y03596*
X03235Y03597*
X03232Y03597*
X03229Y03598*
X03226Y03598*
X03223*
X0322Y03598*
X03217Y03597*
X03214Y03597*
X03211Y03596*
X03208Y03595*
X03205Y03593*
X03203Y03592*
X032Y0359*
X03198Y03589*
X03195Y03587*
X03193Y03585*
X03191Y03582*
X03189Y0358*
X03188Y03577*
X03186Y03575*
X03185Y03572*
X03184Y03569*
X03183Y03566*
X03182Y03564*
X03182Y03561*
X03181Y03558*
X03181Y03555*
X03181Y03551*
X03182Y03548*
X03182Y03545*
X03183Y03543*
X03184Y0354*
X03185Y03537*
X03186Y03534*
X03188Y03532*
X03189Y03529*
X03191Y03527*
X03193Y03524*
X03195Y03522*
X03198Y0352*
X032Y03519*
X03203Y03517*
X03093Y03805D02*
D01*
X03093Y03808*
X03092Y03811*
X03092Y03814*
X03091Y03816*
X0309Y03819*
X03089Y03822*
X03088Y03825*
X03086Y03827*
X03085Y0383*
X03083Y03832*
X03081Y03835*
X03079Y03837*
X03076Y03839*
X03074Y0384*
X03071Y03842*
X03069Y03843*
X03066Y03845*
X03063Y03846*
X0306Y03847*
X03057Y03847*
X03054Y03848*
X03051Y03848*
X03048*
X03045Y03848*
X03042Y03847*
X03039Y03847*
X03036Y03846*
X03033Y03845*
X0303Y03843*
X03028Y03842*
X03025Y0384*
X03023Y03839*
X0302Y03837*
X03018Y03835*
X03016Y03832*
X03014Y0383*
X03013Y03827*
X03011Y03825*
X0301Y03822*
X03009Y03819*
X03008Y03816*
X03007Y03814*
X03007Y03811*
X03006Y03808*
X03006Y03805*
X03006Y03801*
X03007Y03798*
X03007Y03795*
X03008Y03793*
X03009Y0379*
X0301Y03787*
X03011Y03784*
X03013Y03782*
X03014Y03779*
X03016Y03777*
X03018Y03774*
X0302Y03772*
X03023Y0377*
X03025Y03769*
X03028Y03767*
X0303Y03766*
X03033Y03764*
X03036Y03763*
X03039Y03762*
X03042Y03762*
X03045Y03761*
X03048Y03761*
X03051*
X03054Y03761*
X03057Y03762*
X0306Y03762*
X03063Y03763*
X03066Y03764*
X03069Y03766*
X03071Y03767*
X03074Y03769*
X03076Y0377*
X03079Y03772*
X03081Y03774*
X03083Y03777*
X03085Y03779*
X03086Y03782*
X03088Y03784*
X03089Y03787*
X0309Y0379*
X03091Y03793*
X03092Y03795*
X03092Y03798*
X03093Y03801*
X03093Y03805*
X02995Y0357D02*
D01*
X02994Y03571*
X02993Y03572*
X02991Y03573*
X0299Y03573*
X02989Y03574*
X02987Y03575*
X02986Y03575*
X02984Y03576*
X02983Y03576*
X02981Y03576*
X0298Y03576*
X0298Y03576*
X02993Y03805D02*
D01*
X02993Y03808*
X02993Y03811*
X02992Y03814*
X02991Y03816*
X0299Y03819*
X02989Y03822*
X02988Y03825*
X02986Y03828*
X02985Y0383*
X02983Y03832*
X02981Y03835*
X02979Y03837*
X02976Y03839*
X02974Y03841*
X02971Y03842*
X02969Y03844*
X02966Y03845*
X02963Y03846*
X0296Y03847*
X02957Y03847*
X02954Y03848*
X02951Y03848*
X02948*
X02945Y03848*
X02942Y03847*
X02939Y03847*
X02936Y03846*
X02933Y03845*
X0293Y03844*
X02928Y03842*
X02925Y03841*
X02923Y03839*
X0292Y03837*
X02918Y03835*
X02916Y03832*
X02914Y0383*
X02913Y03828*
X02911Y03825*
X0291Y03822*
X02909Y03819*
X02908Y03816*
X02907Y03814*
X02906Y03811*
X02906Y03808*
X02906Y03805*
X02906Y03801*
X02906Y03798*
X02907Y03795*
X02908Y03793*
X02909Y0379*
X0291Y03787*
X02911Y03784*
X02913Y03781*
X02914Y03779*
X02916Y03777*
X02918Y03774*
X0292Y03772*
X02923Y0377*
X02925Y03768*
X02928Y03767*
X0293Y03765*
X02933Y03764*
X02936Y03763*
X02939Y03762*
X02942Y03762*
X02945Y03761*
X02948Y03761*
X02951*
X02954Y03761*
X02957Y03762*
X0296Y03762*
X02963Y03763*
X02966Y03764*
X02969Y03765*
X02971Y03767*
X02974Y03768*
X02976Y0377*
X02979Y03772*
X02981Y03774*
X02983Y03777*
X02985Y03779*
X02986Y03781*
X02988Y03784*
X02989Y03787*
X0299Y0379*
X02991Y03793*
X02992Y03795*
X02993Y03798*
X02993Y03801*
X02993Y03805*
X02995Y0357D02*
D01*
X02994Y03571*
X02993Y03572*
X02991Y03573*
X0299Y03573*
X02989Y03574*
X02987Y03575*
X02986Y03575*
X02984Y03576*
X02983Y03576*
X02981Y03576*
X0298Y03576*
X0298Y03576*
X03246Y03517D02*
D01*
X03249Y03519*
X03251Y0352*
X03254Y03522*
X03256Y03524*
X03258Y03527*
X0326Y03529*
X03261Y03532*
X03263Y03534*
X03264Y03537*
X03265Y0354*
X03266Y03543*
X03267Y03546*
X03267Y03549*
X03268Y03552*
X03268Y03555*
X03262Y03476D02*
D01*
X0326Y03479*
X03259Y03481*
X03257Y03484*
X03255Y03486*
X03252Y03488*
X0325Y0349*
X03247Y03491*
X03246Y03492*
X03268Y03355D02*
D01*
X03268Y03358*
X03267Y03361*
X03267Y03364*
X03266Y03366*
X03265Y03369*
X03264Y03372*
X03263Y03375*
X03261Y03377*
X0326Y0338*
X03258Y03382*
X03256Y03385*
X03254Y03387*
X03251Y03389*
X03249Y0339*
X03246Y03392*
X03244Y03393*
X03241Y03395*
X03238Y03396*
X03235Y03397*
X03232Y03397*
X03229Y03398*
X03226Y03398*
X03223*
X0322Y03398*
X03217Y03397*
X03214Y03397*
X03211Y03396*
X03208Y03395*
X03205Y03393*
X03203Y03392*
X032Y0339*
X03198Y03389*
X03195Y03387*
X03193Y03385*
X03191Y03382*
X03189Y0338*
X03188Y03377*
X03188Y03377*
X03203Y03492D02*
D01*
X032Y0349*
X03198Y03489*
X03195Y03487*
X03193Y03485*
X03191Y03482*
X03189Y0348*
X03188Y03477*
X03186Y03475*
X03185Y03472*
X03184Y03469*
X03183Y03466*
X03182Y03463*
X03182Y0346*
X03181Y03457*
X03181Y03454*
X03181Y03451*
X03182Y03448*
X03182Y03445*
X03183Y03443*
X03184Y0344*
X03185Y03437*
X03186Y03434*
X03188Y03431*
X03189Y03429*
X03191Y03427*
X03193Y03424*
X03196Y03422*
X03198Y0342*
X032Y03419*
X03203Y03417*
X03206Y03416*
X03208Y03414*
X03211Y03413*
X03214Y03412*
X03217Y03412*
X0322Y03411*
X03223Y03411*
X03226Y03411*
X03229Y03411*
X03232Y03412*
X03235Y03412*
X03238Y03413*
X03241Y03414*
X03244Y03416*
X03246Y03417*
X03249Y03419*
X03251Y0342*
X03254Y03422*
X03256Y03424*
X03258Y03427*
X0326Y03429*
X03261Y03432*
X03262Y03433*
X03187Y03333D02*
D01*
X03189Y0333*
X0319Y03328*
X03192Y03325*
X03194Y03323*
X03197Y03321*
X03199Y03319*
X03202Y03318*
X03204Y03316*
X03207Y03315*
X0321Y03314*
X03213Y03313*
X03216Y03312*
X03219Y03312*
X03222Y03311*
X03225Y03311*
X03228Y03311*
X03231Y03312*
X03234Y03312*
X03236Y03313*
X03239Y03314*
X03242Y03315*
X03245Y03316*
X03248Y03318*
X0325Y03319*
X03252Y03321*
X03255Y03323*
X03257Y03326*
X03259Y03328*
X0326Y0333*
X03262Y03333*
X03263Y03336*
X03265Y03338*
X03266Y03341*
X03267Y03344*
X03267Y03347*
X03268Y0335*
X03268Y03353*
X03268Y03355*
X03164Y03339D02*
D01*
X03165Y03338*
X03166Y03337*
X03168Y03336*
X03169Y03336*
X0317Y03335*
X03172Y03334*
X03173Y03334*
X03175Y03333*
X03176Y03333*
X03178Y03333*
X03179Y03333*
X0318Y03333*
X03164Y03339D02*
D01*
X03165Y03338*
X03166Y03337*
X03168Y03336*
X03169Y03336*
X0317Y03335*
X03172Y03334*
X03173Y03334*
X03175Y03333*
X03176Y03333*
X03178Y03333*
X03179Y03333*
X0318Y03333*
X02968Y03355D02*
D01*
X02968Y03358*
X02968Y03361*
X02967Y03364*
X02966Y03366*
X02965Y03369*
X02964Y03372*
X02963Y03375*
X02961Y03378*
X0296Y0338*
X02958Y03382*
X02956Y03385*
X02954Y03387*
X02951Y03389*
X02949Y03391*
X02946Y03392*
X02944Y03394*
X02941Y03395*
X02938Y03396*
X02935Y03397*
X02932Y03397*
X02929Y03398*
X02926Y03398*
X02923*
X0292Y03398*
X02917Y03397*
X02914Y03397*
X02911Y03396*
X02908Y03395*
X02905Y03394*
X02903Y03392*
X029Y03391*
X02898Y03389*
X02895Y03387*
X02893Y03385*
X02891Y03382*
X02889Y0338*
X02888Y03378*
X02886Y03375*
X02885Y03372*
X02884Y03369*
X02883Y03366*
X02882Y03364*
X02881Y03361*
X02881Y03358*
X02881Y03355*
X02881Y03351*
X02881Y03348*
X02882Y03345*
X02883Y03343*
X02884Y0334*
X02885Y03337*
X02886Y03334*
X02888Y03331*
X02889Y03329*
X02891Y03327*
X02893Y03324*
X02895Y03322*
X02898Y0332*
X029Y03318*
X02903Y03317*
X02905Y03315*
X02908Y03314*
X02911Y03313*
X02914Y03312*
X02917Y03312*
X0292Y03311*
X02923Y03311*
X02926*
X02929Y03311*
X02932Y03312*
X02935Y03312*
X02938Y03313*
X02941Y03314*
X02944Y03315*
X02946Y03317*
X02949Y03318*
X02951Y0332*
X02954Y03322*
X02956Y03324*
X02958Y03327*
X0296Y03329*
X02961Y03331*
X02963Y03334*
X02964Y03337*
X02965Y0334*
X02966Y03343*
X02967Y03345*
X02968Y03348*
X02968Y03351*
X02968Y03355*
X02968Y03455D02*
D01*
X02968Y03458*
X02967Y03461*
X02967Y03464*
X02966Y03466*
X02965Y03469*
X02964Y03472*
X02963Y03475*
X02961Y03477*
X0296Y0348*
X02958Y03482*
X02956Y03485*
X02954Y03487*
X02951Y03489*
X02949Y0349*
X02946Y03492*
X02944Y03493*
X02941Y03495*
X02938Y03496*
X02935Y03497*
X02932Y03497*
X02929Y03498*
X02926Y03498*
X02923*
X0292Y03498*
X02917Y03497*
X02914Y03497*
X02911Y03496*
X02908Y03495*
X02905Y03493*
X02903Y03492*
X029Y0349*
X02898Y03489*
X02895Y03487*
X02893Y03485*
X02891Y03482*
X02889Y0348*
X02888Y03477*
X02887Y03476*
X02792Y0352D02*
D01*
X02792Y03522*
X02792Y03525*
X02791Y03527*
X02791Y0353*
X0279Y03532*
X02789Y03535*
X02788Y03537*
X02786Y03539*
X02785Y03542*
X02783Y03544*
X02781Y03546*
X0278Y03547*
X02778Y03549*
X02775Y03551*
X02773Y03552*
X02771Y03553*
X02769Y03554*
X02766Y03555*
X02764Y03556*
X02761Y03556*
X02758Y03557*
X02756Y03557*
X02753*
X02751Y03557*
X02748Y03556*
X02745Y03556*
X02743Y03555*
X0274Y03554*
X02738Y03553*
X02736Y03552*
X02734Y03551*
X02731Y03549*
X02729Y03547*
X02728Y03546*
X02726Y03544*
X02724Y03542*
X02723Y03539*
X02721Y03537*
X0272Y03535*
X02719Y03532*
X02718Y0353*
X02718Y03527*
X02717Y03525*
X02717Y03522*
X02717Y0352*
X02717Y03517*
X02717Y03514*
X02718Y03512*
X02718Y03509*
X02719Y03507*
X0272Y03504*
X02721Y03502*
X02723Y035*
X02724Y03497*
X02726Y03495*
X02728Y03493*
X02729Y03492*
X02731Y0349*
X02734Y03488*
X02736Y03487*
X02738Y03486*
X0274Y03485*
X02743Y03484*
X02745Y03483*
X02748Y03483*
X02751Y03482*
X02753Y03482*
X02756*
X02758Y03482*
X02761Y03483*
X02764Y03483*
X02766Y03484*
X02769Y03485*
X02771Y03486*
X02773Y03487*
X02775Y03488*
X02778Y0349*
X0278Y03492*
X02781Y03493*
X02783Y03495*
X02785Y03497*
X02786Y035*
X02788Y03502*
X02789Y03504*
X0279Y03507*
X02791Y03509*
X02791Y03512*
X02792Y03514*
X02792Y03517*
X02792Y0352*
X02691Y03513D02*
D01*
X02692Y03516*
X02692Y03518*
X02692Y0352*
D01*
X02692Y03522*
X02692Y03525*
X02691Y03527*
X02691Y0353*
X0269Y03532*
X02689Y03535*
X02688Y03537*
X02686Y03539*
X02685Y03542*
X02683Y03544*
X02681Y03546*
X0268Y03547*
X02678Y03549*
X02675Y03551*
X02673Y03552*
X02671Y03553*
X02669Y03554*
X02666Y03555*
X02664Y03556*
X02661Y03556*
X02658Y03557*
X02656Y03557*
X02653*
X02651Y03557*
X02648Y03556*
X02645Y03556*
X02643Y03555*
X0264Y03554*
X02638Y03553*
X02636Y03552*
X02634Y03551*
X02631Y03549*
X02629Y03547*
X02628Y03546*
X02626Y03544*
X02624Y03542*
X02623Y03539*
X02621Y03537*
X0262Y03535*
X02619Y03532*
X02618Y0353*
X02618Y03527*
X02617Y03525*
X02617Y03522*
X02617Y0352*
X02617Y03517*
X02617Y03514*
X02618Y03512*
X02618Y03509*
X02619Y03507*
X0262Y03504*
X02621Y03502*
X02623Y035*
X02624Y03497*
X02626Y03495*
X02628Y03493*
X02629Y03492*
X0263Y03491*
X02887Y03433D02*
D01*
X02889Y0343*
X0289Y03428*
X02892Y03425*
X02894Y03423*
X02897Y03421*
X02899Y03419*
X02902Y03418*
X02904Y03416*
X02907Y03415*
X0291Y03414*
X02913Y03413*
X02916Y03412*
X02919Y03412*
X02922Y03411*
X02925Y03411*
X02928Y03411*
X02931Y03412*
X02934Y03412*
X02936Y03413*
X02939Y03414*
X02942Y03415*
X02945Y03416*
X02948Y03418*
X0295Y03419*
X02952Y03421*
X02955Y03423*
X02957Y03426*
X02959Y03428*
X0296Y0343*
X02962Y03433*
X02963Y03436*
X02965Y03438*
X02966Y03441*
X02967Y03444*
X02967Y03447*
X02968Y0345*
X02968Y03453*
X02968Y03455*
X02704Y03439D02*
D01*
X02705Y03438*
X02706Y03437*
X02708Y03436*
X02709Y03436*
X0271Y03435*
X02712Y03434*
X02713Y03434*
X02715Y03433*
X02716Y03433*
X02718Y03433*
X02719Y03433*
X0272Y03433*
X02704Y03439D02*
D01*
X02705Y03438*
X02706Y03437*
X02708Y03436*
X02709Y03436*
X0271Y03435*
X02712Y03434*
X02713Y03434*
X02715Y03433*
X02716Y03433*
X02718Y03433*
X02719Y03433*
X0272Y03433*
X02691Y0336D02*
D01*
X02691Y03362*
X0269Y03365*
X0269Y03368*
X02689Y03371*
X02688Y03374*
X02687Y03376*
X02686Y03379*
X02685Y03381*
X02683Y03384*
X02681Y03386*
X02679Y03388*
X02677Y0339*
X02675Y03392*
X02674Y03393*
X02821Y0336D02*
D01*
X02821Y03362*
X0282Y03365*
X0282Y03368*
X02819Y03371*
X02818Y03374*
X02817Y03376*
X02816Y03379*
X02815Y03381*
X02813Y03384*
X02811Y03386*
X02809Y03388*
X02807Y0339*
X02805Y03392*
X02803Y03394*
X028Y03395*
X02798Y03397*
X02795Y03398*
X02792Y03399*
X0279Y034*
X02787Y034*
X02784Y03401*
X02781Y03401*
X02778*
X02775Y03401*
X02772Y034*
X02769Y034*
X02767Y03399*
X02764Y03398*
X02761Y03397*
X02759Y03395*
X02756Y03394*
X02754Y03392*
X02752Y0339*
X0275Y03388*
X02748Y03386*
X02746Y03384*
X02744Y03381*
X02743Y03379*
X02742Y03376*
X02741Y03374*
X0274Y03371*
X02739Y03368*
X02739Y03365*
X02738Y03362*
X02738Y0336*
X02738Y03357*
X02739Y03354*
X02739Y03351*
X0274Y03348*
X02741Y03345*
X02742Y03343*
X02743Y0334*
X02744Y03338*
X02746Y03335*
X02748Y03333*
X0275Y03331*
X02752Y03329*
X02754Y03327*
X02756Y03325*
X02759Y03324*
X02761Y03322*
X02764Y03321*
X02767Y0332*
X02769Y03319*
X02772Y03319*
X02775Y03318*
X02778Y03318*
X02781*
X02784Y03318*
X02787Y03319*
X0279Y03319*
X02792Y0332*
X02795Y03321*
X02798Y03322*
X028Y03324*
X02803Y03325*
X02805Y03327*
X02807Y03329*
X02809Y03331*
X02811Y03333*
X02813Y03335*
X02815Y03338*
X02816Y0334*
X02817Y03343*
X02818Y03345*
X02819Y03348*
X0282Y03351*
X0282Y03354*
X02821Y03357*
X02821Y0336*
X0263Y03396D02*
D01*
X02628Y03395*
X02625Y03393*
X02623Y03391*
X02621Y03389*
X02619Y03387*
X02617Y03385*
X02615Y03383*
X02614Y0338*
X02612Y03378*
X02611Y03375*
X0261Y03373*
X02609Y0337*
X02609Y03367*
X02608Y03364*
X02608Y03361*
X02608Y03358*
X02608Y03355*
X02609Y03353*
X02609Y0335*
X0261Y03347*
X02611Y03344*
X02612Y03342*
X02614Y03339*
X02615Y03337*
X02617Y03334*
X02619Y03332*
X02621Y0333*
X02623Y03328*
X02625Y03326*
X02627Y03325*
X0263Y03323*
X02632Y03322*
X02635Y03321*
X02638Y0332*
X02641Y03319*
X02643Y03319*
X02646Y03318*
X02649Y03318*
X02652Y03318*
X02655Y03318*
X02658Y03319*
X02661Y0332*
X02663Y03321*
X02666Y03322*
X02669Y03323*
X02671Y03324*
X02674Y03326*
X02676Y03328*
X02678Y0333*
X0268Y03332*
X02682Y03334*
X02684Y03336*
X02685Y03339*
X02687Y03341*
X02688Y03344*
X02689Y03346*
X0269Y03349*
X0269Y03352*
X02691Y03355*
X02691Y03358*
X02691Y0336*
X0257Y03344D02*
D01*
X02571Y03345*
X02572Y03346*
X02573Y03348*
X02573Y03349*
X02574Y0335*
X02575Y03352*
X02575Y03353*
X02576Y03355*
X02576Y03356*
X02576Y03358*
X02576Y03359*
X02576Y0336*
X0257Y03344D02*
D01*
X02571Y03345*
X02572Y03346*
X02573Y03348*
X02573Y03349*
X02574Y0335*
X02575Y03352*
X02575Y03353*
X02576Y03355*
X02576Y03356*
X02576Y03358*
X02576Y03359*
X02576Y0336*
X02484Y0332D02*
D01*
X02483Y03319*
X02482Y03318*
X02481Y03316*
X02481Y03315*
X0248Y03314*
X02479Y03312*
X02479Y03311*
X02478Y03309*
X02478Y03308*
X02478Y03306*
X02478Y03305*
X02478Y03305*
X02484Y0332D02*
D01*
X02483Y03319*
X02482Y03318*
X02481Y03316*
X02481Y03315*
X0248Y03314*
X02479Y03312*
X02479Y03311*
X02478Y03309*
X02478Y03308*
X02478Y03306*
X02478Y03305*
X02478Y03305*
X03268Y03255D02*
D01*
X03268Y03258*
X03267Y03261*
X03267Y03264*
X03266Y03266*
X03265Y03269*
X03264Y03272*
X03263Y03275*
X03261Y03277*
X0326Y0328*
X03258Y03282*
X03256Y03285*
X03254Y03287*
X03251Y03289*
X03249Y0329*
X03246Y03292*
X03244Y03293*
X03241Y03295*
X03238Y03296*
X03235Y03297*
X03232Y03297*
X03229Y03298*
X03226Y03298*
X03223*
X0322Y03298*
X03217Y03297*
X03214Y03297*
X03211Y03296*
X03208Y03295*
X03205Y03293*
X03203Y03292*
X032Y0329*
X03198Y03289*
X03195Y03287*
X03193Y03285*
X03191Y03282*
X03189Y0328*
X03188Y03277*
X03186Y03275*
X03185Y03272*
X03184Y03269*
X03183Y03266*
X03182Y03264*
X03182Y03261*
X03181Y03258*
X03181Y03255*
X03181Y03251*
X03182Y03248*
X03182Y03245*
X03183Y03243*
X03184Y0324*
X03185Y03237*
X03186Y03234*
X03188Y03232*
X03189Y03229*
X03191Y03227*
X03193Y03224*
X03195Y03222*
X03198Y0322*
X032Y03219*
X03203Y03217*
X03205Y03216*
X03208Y03214*
X03211Y03213*
X03214Y03212*
X03217Y03212*
X0322Y03211*
X03223Y03211*
X03226*
X03229Y03211*
X03232Y03212*
X03235Y03212*
X03238Y03213*
X03241Y03214*
X03244Y03216*
X03246Y03217*
X03249Y03219*
X03251Y0322*
X03254Y03222*
X03256Y03224*
X03258Y03227*
X0326Y03229*
X03261Y03232*
X03263Y03234*
X03264Y03237*
X03265Y0324*
X03266Y03243*
X03267Y03245*
X03267Y03248*
X03268Y03251*
X03268Y03255*
X03265Y03171D02*
D01*
X03263Y03174*
X03262Y03177*
X0326Y03179*
X03258Y03182*
X03256Y03184*
X03254Y03186*
X03252Y03188*
X0325Y0319*
X03247Y03192*
X03244Y03193*
X03242Y03194*
X03239Y03195*
X03236Y03196*
X03233Y03197*
X0323Y03198*
X03227Y03198*
X03224Y03198*
X03221Y03198*
X03218Y03197*
X03215Y03197*
X03212Y03196*
X03209Y03195*
X03206Y03194*
X03204Y03193*
X03201Y03191*
X03199Y03189*
X03196Y03187*
X03194Y03185*
X03192Y03183*
X0319Y03181*
X03188Y03178*
X03187Y03176*
X03185Y03173*
X03184Y0317*
X03183Y03167*
X03182Y03164*
X03182Y03162*
X03181Y03159*
X03181Y03156*
X03181Y03152*
X03181Y03149*
X03182Y03146*
X03183Y03144*
X03183Y03141*
X03184Y03138*
X03186Y03135*
X03187Y03132*
X03189Y0313*
X03191Y03127*
X03193Y03125*
X03195Y03123*
X03197Y03121*
X03199Y03119*
X03202Y03117*
X03205Y03116*
X03207Y03115*
X0321Y03114*
X03213Y03113*
X03216Y03112*
X03219Y03111*
X03222Y03111*
X03225Y03111*
X03228Y03111*
X03231Y03112*
X03234Y03112*
X03237Y03113*
X0324Y03114*
X03243Y03115*
X03245Y03116*
X03248Y03118*
X0325Y0312*
X03253Y03122*
X03255Y03124*
X03257Y03126*
X03259Y03128*
X03268Y03055D02*
D01*
X03268Y03058*
X03267Y03061*
X03267Y03064*
X03266Y03066*
X03265Y03069*
X03264Y03072*
X03263Y03075*
X03261Y03077*
X0326Y0308*
X03258Y03082*
X03256Y03085*
X03254Y03087*
X03251Y03089*
X03249Y0309*
X03246Y03092*
X03244Y03093*
X03241Y03095*
X03238Y03096*
X03235Y03097*
X03232Y03097*
X03229Y03098*
X03226Y03098*
X03223*
X0322Y03098*
X03217Y03097*
X03214Y03097*
X03211Y03096*
X03208Y03095*
X03205Y03093*
X03203Y03092*
X032Y0309*
X03198Y03089*
X03195Y03087*
X03193Y03085*
X03191Y03082*
X03189Y0308*
X03188Y03077*
X03186Y03075*
X03185Y03072*
X03184Y03069*
X03183Y03066*
X03182Y03064*
X03182Y03061*
X03181Y03058*
X03181Y03055*
X03181Y03051*
X03182Y03048*
X03182Y03045*
X03183Y03043*
X03184Y0304*
X03185Y03037*
X03186Y03034*
X03188Y03032*
X03189Y03029*
X03191Y03027*
X03193Y03024*
X03195Y03022*
X03198Y0302*
X032Y03019*
X03203Y03017*
X02968Y03255D02*
D01*
X02968Y03258*
X02967Y03261*
X02967Y03264*
X02966Y03266*
X02965Y03269*
X02964Y03272*
X02963Y03275*
X02961Y03277*
X0296Y0328*
X02958Y03282*
X02956Y03285*
X02954Y03287*
X02951Y03289*
X02949Y0329*
X02946Y03292*
X02944Y03293*
X02941Y03295*
X02938Y03296*
X02935Y03297*
X02932Y03297*
X02929Y03298*
X02926Y03298*
X02923*
X0292Y03298*
X02917Y03297*
X02914Y03297*
X02911Y03296*
X02908Y03295*
X02905Y03293*
X02903Y03292*
X029Y0329*
X02898Y03289*
X02895Y03287*
X02893Y03285*
X02891Y03282*
X02889Y0328*
X02888Y03277*
X02886Y03275*
X02885Y03272*
X02884Y03269*
X02883Y03266*
X02882Y03264*
X02882Y03261*
X02881Y03258*
X02881Y03255*
X02881Y03251*
X02882Y03248*
X02882Y03245*
X02883Y03243*
X02884Y0324*
X02885Y03237*
X02886Y03234*
X02888Y03232*
X02889Y03229*
X02891Y03227*
X02893Y03224*
X02895Y03222*
X02898Y0322*
X029Y03219*
X02903Y03217*
X02905Y03216*
X02908Y03214*
X02911Y03213*
X02914Y03212*
X02917Y03212*
X0292Y03211*
X02923Y03211*
X02926*
X02929Y03211*
X02932Y03212*
X02935Y03212*
X02938Y03213*
X02941Y03214*
X02944Y03216*
X02946Y03217*
X02949Y03219*
X02951Y0322*
X02954Y03222*
X02956Y03224*
X02958Y03227*
X0296Y03229*
X02961Y03232*
X02963Y03234*
X02964Y03237*
X02965Y0324*
X02966Y03243*
X02967Y03245*
X02967Y03248*
X02968Y03251*
X02968Y03255*
X02856Y03205D02*
D01*
X02855Y03206*
X02853Y03207*
X02852Y03208*
X02851Y03208*
X02849Y03209*
X02848Y0321*
X02847Y0321*
X02845Y03211*
X02844Y03211*
X02842Y03211*
X02841Y03211*
X0284Y03211*
X02871Y0318D02*
D01*
X02871Y03182*
X02871Y03183*
X02871Y03185*
X0287Y03186*
X0287Y03188*
X02869Y03189*
X02869Y0319*
X02868Y03192*
X02867Y03193*
X02866Y03194*
X02865Y03195*
X02865Y03196*
X02871Y0318D02*
D01*
X02871Y03182*
X02871Y03183*
X02871Y03185*
X0287Y03186*
X0287Y03188*
X02869Y03189*
X02869Y0319*
X02868Y03192*
X02867Y03193*
X02866Y03194*
X02865Y03195*
X02865Y03196*
X02856Y03205D02*
D01*
X02855Y03206*
X02853Y03207*
X02852Y03208*
X02851Y03208*
X02849Y03209*
X02848Y0321*
X02847Y0321*
X02845Y03211*
X02844Y03211*
X02842Y03211*
X02841Y03211*
X0284Y03211*
X02968Y03155D02*
D01*
X02968Y03158*
X02968Y03161*
X02967Y03164*
X02966Y03166*
X02965Y03169*
X02964Y03172*
X02963Y03175*
X02961Y03178*
X0296Y0318*
X02958Y03182*
X02956Y03185*
X02954Y03187*
X02951Y03189*
X02949Y03191*
X02946Y03192*
X02944Y03194*
X02941Y03195*
X02938Y03196*
X02935Y03197*
X02932Y03197*
X02929Y03198*
X02926Y03198*
X02923*
X0292Y03198*
X02917Y03197*
X02914Y03197*
X02911Y03196*
X02908Y03195*
X02905Y03194*
X02903Y03192*
X029Y03191*
X02898Y03189*
X02895Y03187*
X02893Y03185*
X02891Y03182*
X02889Y0318*
X02888Y03178*
X02886Y03175*
X02885Y03172*
X02884Y03169*
X02883Y03166*
X02882Y03164*
X02881Y03161*
X02881Y03158*
X02881Y03155*
X02881Y03151*
X02881Y03148*
X02882Y03145*
X02883Y03143*
X02884Y0314*
X02885Y03137*
X02886Y03134*
X02888Y03131*
X02889Y03129*
X02891Y03127*
X02893Y03124*
X02895Y03122*
X02898Y0312*
X029Y03118*
X02903Y03117*
X02905Y03115*
X02908Y03114*
X02911Y03113*
X02914Y03112*
X02917Y03112*
X0292Y03111*
X02923Y03111*
X02926*
X02929Y03111*
X02932Y03112*
X02935Y03112*
X02938Y03113*
X02941Y03114*
X02944Y03115*
X02946Y03117*
X02949Y03118*
X02951Y0312*
X02954Y03122*
X02956Y03124*
X02958Y03127*
X0296Y03129*
X02961Y03131*
X02963Y03134*
X02964Y03137*
X02965Y0314*
X02966Y03143*
X02967Y03145*
X02968Y03148*
X02968Y03151*
X02968Y03155*
X02968Y03055D02*
D01*
X02968Y03058*
X02967Y03061*
X02967Y03064*
X02966Y03066*
X02965Y03069*
X02964Y03072*
X02963Y03075*
X02961Y03077*
X0296Y0308*
X02958Y03082*
X02956Y03085*
X02954Y03087*
X02951Y03089*
X02949Y0309*
X02946Y03092*
X02944Y03093*
X02941Y03095*
X02938Y03096*
X02935Y03097*
X02932Y03097*
X02929Y03098*
X02926Y03098*
X02923*
X0292Y03098*
X02917Y03097*
X02914Y03097*
X02911Y03096*
X02908Y03095*
X02905Y03093*
X02903Y03092*
X029Y0309*
X02898Y03089*
X02895Y03087*
X02893Y03085*
X02891Y03082*
X02889Y0308*
X02888Y03077*
X02887Y03076*
X02828Y03064D02*
D01*
X02828Y03062*
X02828Y03061*
X02828Y03059*
X02829Y03058*
X02829Y03056*
X0283Y03055*
X0283Y03054*
X02831Y03052*
X02832Y03051*
X02833Y0305*
X02834Y03049*
X02834Y03048*
X02828Y03064D02*
D01*
X02828Y03062*
X02828Y03061*
X02828Y03059*
X02829Y03058*
X02829Y03056*
X0283Y03055*
X0283Y03054*
X02831Y03052*
X02832Y03051*
X02833Y0305*
X02834Y03049*
X02834Y03048*
X03246Y03017D02*
D01*
X03249Y03019*
X03251Y0302*
X03254Y03022*
X03256Y03024*
X03258Y03027*
X0326Y03029*
X03261Y03032*
X03263Y03034*
X03264Y03037*
X03265Y0304*
X03266Y03043*
X03267Y03046*
X03267Y03049*
X03268Y03052*
X03268Y03055*
Y02955D02*
D01*
X03268Y02958*
X03267Y02961*
X03267Y02964*
X03266Y02966*
X03265Y02969*
X03264Y02972*
X03263Y02975*
X03261Y02977*
X0326Y0298*
X03258Y02982*
X03256Y02985*
X03254Y02987*
X03251Y02989*
X03249Y0299*
X03246Y02992*
X03203D02*
D01*
X032Y0299*
X03198Y02989*
X03195Y02987*
X03193Y02985*
X03191Y02982*
X03189Y0298*
X03188Y02977*
X03186Y02975*
X03185Y02972*
X03184Y02969*
X03183Y02966*
X03182Y02963*
X03182Y0296*
X03181Y02957*
X03181Y02954*
X03181Y02951*
X03182Y02948*
X03182Y02945*
X03183Y02943*
X03184Y0294*
X03185Y02937*
X03186Y02934*
X03188Y02931*
X03189Y02929*
X03191Y02927*
X03193Y02924*
X03196Y02922*
X03198Y0292*
X032Y02919*
X03203Y02917*
X03206Y02916*
X03208Y02914*
X03211Y02913*
X03214Y02912*
X03217Y02912*
X0322Y02911*
X03223Y02911*
X03226Y02911*
X03229Y02911*
X03232Y02912*
X03235Y02912*
X03236Y02913*
X02946Y02917D02*
D01*
X02949Y02919*
X02951Y0292*
X02954Y02922*
X02956Y02924*
X02958Y02927*
X0296Y02929*
X02961Y02932*
X02963Y02934*
X02964Y02937*
X02965Y0294*
X02966Y02943*
X02967Y02946*
X02967Y02949*
X02968Y02952*
X02968Y02955*
X0294Y02868D02*
D01*
X02941Y02869*
X02942Y02871*
X02943Y02872*
X02943Y02873*
X02944Y02875*
X02945Y02876*
X02945Y02877*
X02946Y02879*
X02946Y0288*
X02946Y02882*
X02946Y02883*
X02946Y02884*
X0294Y02868D02*
D01*
X02941Y02869*
X02942Y02871*
X02943Y02872*
X02943Y02873*
X02944Y02875*
X02945Y02876*
X02945Y02877*
X02946Y02879*
X02946Y0288*
X02946Y02882*
X02946Y02883*
X02946Y02884*
X02887Y03033D02*
D01*
X02889Y0303*
X0289Y03028*
X02892Y03025*
X02894Y03023*
X02897Y03021*
X02899Y03019*
X02902Y03018*
X02904Y03016*
X02907Y03015*
X0291Y03014*
X02913Y03013*
X02916Y03012*
X02919Y03012*
X02922Y03011*
X02925Y03011*
X02928Y03011*
X02931Y03012*
X02934Y03012*
X02936Y03013*
X02939Y03014*
X02942Y03015*
X02945Y03016*
X02948Y03018*
X0295Y03019*
X02952Y03021*
X02955Y03023*
X02957Y03026*
X02959Y03028*
X0296Y0303*
X02962Y03033*
X02963Y03036*
X02965Y03038*
X02966Y03041*
X02967Y03044*
X02967Y03047*
X02968Y0305*
X02968Y03053*
X02968Y03055*
X02843Y03039D02*
D01*
X02844Y03038*
X02846Y03037*
X02847Y03036*
X02848Y03036*
X0285Y03035*
X02851Y03034*
X02852Y03034*
X02854Y03033*
X02855Y03033*
X02857Y03033*
X02858Y03033*
X02859Y03033*
X02843Y03039D02*
D01*
X02844Y03038*
X02846Y03037*
X02847Y03036*
X02848Y03036*
X0285Y03035*
X02851Y03034*
X02852Y03034*
X02854Y03033*
X02855Y03033*
X02857Y03033*
X02858Y03033*
X02859Y03033*
X02876Y0296D02*
D01*
X02876Y02962*
X02875Y02965*
X02875Y02968*
X02874Y02971*
X02873Y02974*
X02872Y02976*
X02871Y02979*
X0287Y02981*
X02868Y02984*
X02866Y02986*
X02864Y02988*
X02862Y0299*
X0286Y02992*
X02858Y02994*
X02855Y02995*
X02853Y02997*
X0285Y02998*
X02847Y02999*
X02845Y03*
X02842Y03*
X02839Y03001*
X02836Y03001*
X02833*
X0283Y03001*
X02827Y03*
X02824Y03*
X02822Y02999*
X02819Y02998*
X02816Y02997*
X02814Y02995*
X02811Y02994*
X02809Y02992*
X02807Y0299*
X02805Y02988*
X02803Y02986*
X02801Y02984*
X02799Y02981*
X02799Y02981*
X02968Y02955D02*
D01*
X02968Y02958*
X02967Y02961*
X02967Y02964*
X02966Y02966*
X02965Y02969*
X02964Y02972*
X02963Y02975*
X02961Y02977*
X0296Y0298*
X02958Y02982*
X02956Y02985*
X02954Y02987*
X02951Y02989*
X02949Y0299*
X02946Y02992*
X02944Y02993*
X02941Y02995*
X02938Y02996*
X02935Y02997*
X02932Y02997*
X02929Y02998*
X02926Y02998*
X02923*
X0292Y02998*
X02917Y02997*
X02914Y02997*
X02911Y02996*
X02908Y02995*
X02905Y02993*
X02903Y02992*
X029Y0299*
X02898Y02989*
X02895Y02987*
X02893Y02985*
X02891Y02982*
X02889Y0298*
X02888Y02977*
X02886Y02975*
X02885Y02972*
X02884Y02969*
X02883Y02966*
X02882Y02964*
X02882Y02961*
X02881Y02958*
X02881Y02955*
X02881Y02951*
X02882Y02948*
X02882Y02945*
X02883Y02943*
X02884Y0294*
X02885Y02937*
X02886Y02934*
X02888Y02932*
X02889Y02929*
X02891Y02927*
X02893Y02924*
X02895Y02922*
X02898Y0292*
X029Y02919*
X02903Y02917*
X02799Y02938D02*
D01*
X02801Y02935*
X02803Y02933*
X02805Y02931*
X02807Y02929*
X02809Y02927*
X02811Y02925*
X02814Y02924*
X02816Y02922*
X02819Y02921*
X02821Y0292*
X02824Y02919*
X02827Y02919*
X0283Y02918*
X02833Y02918*
X02836Y02918*
X02839Y02918*
X02841Y02919*
X02844Y02919*
X02847Y0292*
X0285Y02921*
X02852Y02922*
X02855Y02924*
X02857Y02925*
X0286Y02927*
X02862Y02929*
X02864Y02931*
X02866Y02933*
X02868Y02935*
X02869Y02937*
X02871Y0294*
X02872Y02942*
X02873Y02945*
X02874Y02948*
X02875Y02951*
X02875Y02953*
X02876Y02956*
X02876Y02959*
X02876Y0296*
X02915Y02853D02*
D01*
X02917Y02853*
X02918Y02853*
X0292Y02853*
X02921Y02854*
X02923Y02854*
X02924Y02855*
X02925Y02855*
X02927Y02856*
X02928Y02857*
X02929Y02858*
X0293Y02859*
X02931Y02859*
X02915Y02853D02*
D01*
X02917Y02853*
X02918Y02853*
X0292Y02853*
X02921Y02854*
X02923Y02854*
X02924Y02855*
X02925Y02855*
X02927Y02856*
X02928Y02857*
X02929Y02858*
X0293Y02859*
X02931Y02859*
X02575Y03211D02*
D01*
X02573Y03213*
X02572Y03215*
X0257Y03216*
X02568Y03217*
X02566Y03219*
X02564Y0322*
X02562Y03221*
X0256Y03221*
X02557Y03222*
X02555Y03223*
X02553Y03223*
X0255Y03223*
X02548Y03223*
X02546Y03223*
X02543Y03222*
X02541Y03222*
X02539Y03221*
X02537Y03221*
X02535Y0322*
X02533Y03219*
X02575Y03211D02*
D01*
X02573Y03213*
X02572Y03215*
X0257Y03216*
X02568Y03217*
X02566Y03219*
X02564Y0322*
X02562Y03221*
X0256Y03221*
X02557Y03222*
X02555Y03223*
X02553Y03223*
X0255Y03223*
X02548Y03223*
X02546Y03223*
X02543Y03222*
X02541Y03222*
X02539Y03221*
X02537Y03221*
X02535Y0322*
X02533Y03219*
X02558Y03157D02*
D01*
X0256Y03158*
X02562Y03159*
X02564Y0316*
X02567Y03161*
X02569Y03162*
X0257Y03163*
X02572Y03165*
X02574Y03166*
X02575Y03168*
X02558Y03157D02*
D01*
X0256Y03158*
X02562Y03159*
X02564Y0316*
X02567Y03161*
X02569Y03162*
X0257Y03163*
X02572Y03165*
X02574Y03166*
X02575Y03168*
X02556Y03153D02*
D01*
X02557Y03154*
X02557Y03155*
X02558Y03157*
X02558Y03157*
X02556Y03153D02*
D01*
X02557Y03154*
X02557Y03155*
X02558Y03157*
X02558Y03157*
X02821Y0306D02*
D01*
X02821Y03062*
X0282Y03065*
X0282Y03068*
X02819Y03071*
X02818Y03074*
X02817Y03076*
X02816Y03079*
X02815Y03081*
X02813Y03084*
X02811Y03086*
X02809Y03088*
X02807Y0309*
X02805Y03092*
X02803Y03094*
X028Y03095*
X02798Y03097*
X02795Y03098*
X02792Y03099*
X0279Y031*
X02787Y031*
X02784Y03101*
X02781Y03101*
X02778*
X02775Y03101*
X02772Y031*
X02769Y031*
X02767Y03099*
X02764Y03098*
X02761Y03097*
X02759Y03095*
X02756Y03094*
X02754Y03092*
X02752Y0309*
X0275Y03088*
X02748Y03086*
X02746Y03084*
X02744Y03081*
X02743Y03079*
X02742Y03076*
X02741Y03074*
X0274Y03071*
X02739Y03068*
X02739Y03065*
X02738Y03062*
X02738Y0306*
X02738Y03057*
X02739Y03054*
X02739Y03051*
X0274Y03048*
X02741Y03045*
X02742Y03043*
X02743Y0304*
X02744Y03038*
X02746Y03035*
X02748Y03033*
X0275Y03031*
X02752Y03029*
X02754Y03027*
X02756Y03025*
X02759Y03024*
X02761Y03022*
X02764Y03021*
X02767Y0302*
X02769Y03019*
X02772Y03019*
X02775Y03018*
X02778Y03018*
X02781*
X02784Y03018*
X02787Y03019*
X0279Y03019*
X02792Y0302*
X02795Y03021*
X02798Y03022*
X028Y03024*
X02803Y03025*
X02805Y03027*
X02807Y03029*
X02809Y03031*
X02811Y03033*
X02813Y03035*
X02815Y03038*
X02816Y0304*
X02817Y03043*
X02818Y03045*
X02819Y03048*
X0282Y03051*
X0282Y03054*
X02821Y03057*
X02821Y0306*
X02691D02*
D01*
X02691Y03062*
X0269Y03065*
X0269Y03068*
X02689Y03071*
X02688Y03074*
X02687Y03076*
X02686Y03079*
X02685Y03081*
X02683Y03084*
X02681Y03086*
X02679Y03088*
X02677Y0309*
X02675Y03092*
X02673Y03094*
X0267Y03095*
X02668Y03097*
X02665Y03098*
X02662Y03099*
X0266Y031*
X02657Y031*
X02654Y03101*
X02651Y03101*
X02648*
X02645Y03101*
X02642Y031*
X02639Y031*
X02637Y03099*
X02634Y03098*
X02631Y03097*
X02629Y03095*
X02626Y03094*
X02624Y03092*
X02622Y0309*
X0262Y03088*
X02618Y03086*
X02616Y03084*
X02614Y03081*
X02613Y03079*
X02612Y03076*
X02611Y03074*
X0261Y03071*
X02609Y03068*
X02609Y03065*
X02608Y03062*
X02608Y0306*
X02608Y03057*
X02609Y03054*
X02609Y03051*
X0261Y03048*
X02611Y03045*
X02612Y03043*
X02613Y0304*
X02614Y03038*
X02616Y03035*
X02618Y03033*
X0262Y03031*
X02622Y03029*
X02624Y03027*
X02626Y03025*
X02629Y03024*
X02629Y03024*
X02672Y03025D02*
D01*
X02675Y03027*
X02677Y03029*
X02679Y03031*
X02681Y03033*
X02683Y03035*
X02684Y03037*
X02686Y0304*
X02687Y03042*
X02688Y03045*
X02689Y03048*
X0269Y03051*
X0269Y03053*
X02691Y03056*
X02691Y03059*
X02691Y0306*
X02434Y0309D02*
D01*
X02433Y03089*
X02432Y03088*
X02431Y03086*
X02431Y03085*
X0243Y03084*
X02429Y03082*
X02429Y03081*
X02428Y03079*
X02428Y03078*
X02428Y03076*
X02428Y03075*
X02428Y03075*
X02434Y0309D02*
D01*
X02433Y03089*
X02432Y03088*
X02431Y03086*
X02431Y03085*
X0243Y03084*
X02429Y03082*
X02429Y03081*
X02428Y03079*
X02428Y03078*
X02428Y03076*
X02428Y03075*
X02428Y03075*
X02629Y03008D02*
D01*
X02629Y03007*
X02629Y03005*
X02629Y03004*
X0263Y03002*
X0263Y03001*
X02631Y02999*
X02632Y02998*
X02632Y02997*
X02633Y02996*
X02634Y02994*
X02635Y02993*
X02635Y02993*
X02629Y03008D02*
D01*
X02629Y03007*
X02629Y03005*
X02629Y03004*
X0263Y03002*
X0263Y03001*
X02631Y02999*
X02632Y02998*
X02632Y02997*
X02633Y02996*
X02634Y02994*
X02635Y02993*
X02635Y02993*
X02684Y02944D02*
D01*
X02685Y02943*
X02686Y02942*
X02688Y02941*
X02689Y02941*
X0269Y0294*
X02692Y02939*
X02693Y02939*
X02695Y02938*
X02696Y02938*
X02698Y02938*
X02699Y02938*
X027Y02938*
X02684Y02944D02*
D01*
X02685Y02943*
X02686Y02942*
X02688Y02941*
X02689Y02941*
X0269Y0294*
X02692Y02939*
X02693Y02939*
X02695Y02938*
X02696Y02938*
X02698Y02938*
X02699Y02938*
X027Y02938*
X02576Y0296D02*
D01*
X02576Y02962*
X02575Y02965*
X02575Y02968*
X02574Y02971*
X02573Y02974*
X02572Y02976*
X02571Y02979*
X0257Y02981*
X02568Y02984*
X02566Y02986*
X02564Y02988*
X02562Y0299*
X0256Y02992*
X02558Y02994*
X02556Y02995*
X02513D02*
D01*
X0251Y02993*
X02508Y02991*
X02506Y02989*
X02504Y02987*
X02502Y02985*
X025Y02983*
X02499Y0298*
X02497Y02978*
X02496Y02975*
X02495Y02973*
X02494Y0297*
X02494Y02967*
X02493Y02964*
X02493Y02961*
X02493Y02958*
X02493Y02955*
X02494Y02953*
X02494Y0295*
X02495Y02947*
X02496Y02944*
X02497Y02942*
X02499Y02939*
X025Y02937*
X02502Y02934*
X02504Y02932*
X02506Y0293*
X02508Y02928*
X0251Y02926*
X02512Y02925*
X02515Y02923*
X02517Y02922*
X0252Y02921*
X02523Y0292*
X02526Y02919*
X02528Y02919*
X02531Y02918*
X02534Y02918*
X02537Y02918*
X0254Y02918*
X02543Y02919*
X02546Y0292*
X02548Y02921*
X02551Y02922*
X02554Y02923*
X02556Y02924*
X02559Y02926*
X02561Y02928*
X02563Y0293*
X02565Y02932*
X02567Y02934*
X02569Y02936*
X0257Y02939*
X02572Y02941*
X02573Y02944*
X02574Y02946*
X02575Y02949*
X02575Y02952*
X02576Y02955*
X02576Y02958*
X02576Y0296*
X02428Y02884D02*
D01*
X02428Y02882*
X02428Y02881*
X02428Y02879*
X02429Y02878*
X02429Y02876*
X0243Y02875*
X0243Y02874*
X02431Y02872*
X02432Y02871*
X02433Y0287*
X02434Y02869*
X02434Y02868*
X02428Y02884D02*
D01*
X02428Y02882*
X02428Y02881*
X02428Y02879*
X02429Y02878*
X02429Y02876*
X0243Y02875*
X0243Y02874*
X02431Y02872*
X02432Y02871*
X02433Y0287*
X02434Y02869*
X02434Y02868*
X02443Y02859D02*
D01*
X02444Y02858*
X02446Y02857*
X02447Y02856*
X02448Y02856*
X0245Y02855*
X02451Y02854*
X02452Y02854*
X02454Y02853*
X02455Y02853*
X02457Y02853*
X02458Y02853*
X02459Y02853*
X02443Y02859D02*
D01*
X02444Y02858*
X02446Y02857*
X02447Y02856*
X02448Y02856*
X0245Y02855*
X02451Y02854*
X02452Y02854*
X02454Y02853*
X02455Y02853*
X02457Y02853*
X02458Y02853*
X02459Y02853*
X04117Y03792D02*
X04275D01*
X04117Y038D02*
X04275D01*
X04117Y03784D02*
X04275D01*
X04117Y03816D02*
X04275D01*
X04117Y03824D02*
X04275D01*
X04117Y03808D02*
X04275D01*
X04223Y0364D02*
X04275D01*
X04218Y03648D02*
X04275D01*
X04226Y03632D02*
X04275D01*
X04117Y03776D02*
X04275D01*
X04209Y03656D02*
X04275D01*
X04117Y03832D02*
X04275D01*
X04117Y0384D02*
X04275D01*
X04117Y03772D02*
Y03847D01*
X04042D02*
X04117D01*
X04042Y03772D02*
Y03847D01*
Y03772D02*
X04117D01*
X03928Y0364D02*
X04146D01*
X03943Y03632D02*
X04143D01*
X03928Y03656D02*
X0416D01*
X03928Y03648D02*
X04151D01*
X04228Y03616D02*
X04275D01*
X04228Y03624D02*
X04275D01*
X04226Y03608D02*
X04275D01*
X04218Y03592D02*
X04275D01*
X04223Y036D02*
X04275D01*
X04201Y0356D02*
X04275D01*
X04209Y03584D02*
X04275D01*
X03986Y03576D02*
X04275D01*
X03986Y03568D02*
X04275D01*
X03967Y03608D02*
X04143D01*
X03959Y03616D02*
X04141D01*
X03975Y036D02*
X04146D01*
X03951Y03624D02*
X04141D01*
X03945Y0363D02*
X0398Y03595D01*
X03986Y03584D02*
X0416D01*
X03983Y03592D02*
X04151D01*
X03986Y0356D02*
X04168D01*
X03824Y03896D02*
X04275D01*
X03817Y03912D02*
X04275D01*
X03832Y03888D02*
X04275D01*
X03816Y0392D02*
X04275D01*
X03812Y03928D02*
X04275D01*
X03816Y03904D02*
X04275D01*
X03864Y03856D02*
X04275D01*
X03856Y03864D02*
X04275D01*
X03872Y03848D02*
X04275D01*
X0384Y0388D02*
X04275D01*
X03848Y03872D02*
X04275D01*
X03896Y03824D02*
X04042D01*
X03888Y03832D02*
X04042D01*
X03903Y03816D02*
X04042D01*
X03806Y03936D02*
X04275D01*
X03795Y03944D02*
X04275D01*
X0388Y0384D02*
X04042D01*
X03906Y03784D02*
X04042D01*
X03906Y03792D02*
X04042D01*
X03906Y03776D02*
X04042D01*
X03906Y03808D02*
X04042D01*
X03906Y038D02*
X04042D01*
X03906Y03712D02*
X04275D01*
X03906Y0372D02*
X04275D01*
X03906Y03704D02*
X04275D01*
X03906Y03736D02*
X04275D01*
X03906Y03744D02*
X04275D01*
X03906Y03728D02*
X04275D01*
X03906Y03672D02*
X04275D01*
X03906Y0368D02*
X04275D01*
X03906Y03664D02*
X04275D01*
X03906Y03696D02*
X04275D01*
X03906Y03688D02*
X04275D01*
X03906Y03752D02*
X04275D01*
X03928Y03636D02*
Y03663D01*
Y03585D02*
X03943Y03571D01*
X03906Y03768D02*
X04275D01*
X03906Y0376D02*
X04275D01*
X03901Y0356D02*
X03943D01*
X03841Y03576D02*
X03928D01*
X03914Y03552D02*
X03943D01*
X03784Y03576D02*
X03938D01*
X03792Y03568D02*
X03943D01*
X04227Y03512D02*
X04275D01*
X04228Y0352D02*
X04275D01*
X04225Y03504D02*
X04275D01*
X04214Y03488D02*
X04275D01*
X04221Y03496D02*
X04275D01*
X04201Y0348D02*
X04275D01*
X04226Y03432D02*
X04275D01*
X04223Y0344D02*
X04275D01*
X04228Y03424D02*
X04275D01*
X04209Y03456D02*
X04275D01*
X04218Y03448D02*
X04275D01*
X04225Y03536D02*
X04275D01*
X04221Y03544D02*
X04275D01*
X04227Y03528D02*
X04275D01*
X04214Y03552D02*
X04275D01*
X03986Y03536D02*
X04144D01*
X03986Y03528D02*
X04142D01*
X03986Y03496D02*
X04148D01*
X03986Y03504D02*
X04144D01*
X03986Y03424D02*
X04141D01*
X03986Y0352D02*
X04141D01*
X03986Y03512D02*
X04142D01*
X04218Y03392D02*
X04275D01*
X04223Y034D02*
X04275D01*
X04209Y03384D02*
X04275D01*
X03986Y03368D02*
X04275D01*
X03986Y03376D02*
X04275D01*
X04201Y0336D02*
X04275D01*
X04227Y03328D02*
X04275D01*
X04225Y03336D02*
X04275D01*
X04228Y0332D02*
X04275D01*
X04214Y03352D02*
X04275D01*
X04221Y03344D02*
X04275D01*
X04226Y03408D02*
X04275D01*
X04228Y03416D02*
X04275D01*
X03986Y03384D02*
X0416D01*
X03986Y03416D02*
X04141D01*
X03986Y0336D02*
X04168D01*
X03986Y03336D02*
X04144D01*
X03986Y03328D02*
X04142D01*
X03986Y0332D02*
X04141D01*
X03986Y03352D02*
X04155D01*
X03986Y03344D02*
X04148D01*
X03986Y03472D02*
X04275D01*
X03986Y0348D02*
X04168D01*
X03986Y03464D02*
X04275D01*
X03986Y03552D02*
X04155D01*
X03986Y03544D02*
X04148D01*
X03986Y03488D02*
X04155D01*
X03986Y03456D02*
X0416D01*
X03986Y03448D02*
X04151D01*
X03923Y0344D02*
X03943D01*
X03909Y03456D02*
X03943D01*
X03918Y03448D02*
X03943D01*
X03928Y0352D02*
X03943D01*
X03927Y03528D02*
X03943D01*
X03927Y03512D02*
X03943D01*
X03925Y03536D02*
X03943D01*
X03921Y03544D02*
X03943D01*
X03925Y03504D02*
X03943D01*
X03914Y03488D02*
X03943D01*
X03921Y03496D02*
X03943D01*
X03901Y0348D02*
X03943D01*
X03761Y03472D02*
X03943D01*
X03761Y03464D02*
X03943D01*
X03986Y034D02*
X04146D01*
X03986Y03408D02*
X04143D01*
X03986Y03392D02*
X04151D01*
X03986Y0344D02*
X04146D01*
X03986Y03432D02*
X04143D01*
X03901Y0336D02*
X03943D01*
X03927Y03328D02*
X03943D01*
X03925Y03336D02*
X03943D01*
X03928Y0332D02*
X03943D01*
X03914Y03352D02*
X03943D01*
X03921Y03344D02*
X03943D01*
X03928Y03416D02*
X03943D01*
X03928Y03424D02*
X03943D01*
X03926Y03408D02*
X03943D01*
X03926Y03432D02*
X03943D01*
X03918Y03392D02*
X03943D01*
X03923Y034D02*
X03943D01*
X03909Y03384D02*
X03943D01*
X03761Y03376D02*
X03943D01*
X03761Y03368D02*
X03943D01*
X03816Y03903D02*
X039Y0382D01*
X03606Y03784D02*
X03863D01*
X03612Y03792D02*
X03863D01*
X03613Y03712D02*
X03863D01*
X03673Y0368D02*
X03863D01*
X03661Y03688D02*
X03863D01*
X0368Y03672D02*
X03863D01*
X03621Y03704D02*
X03863D01*
X03629Y03696D02*
X03863D01*
X03786Y03873D02*
X03863Y03796D01*
X03614Y03824D02*
X03835D01*
X0361Y03832D02*
X03827D01*
X03616Y03816D02*
X03843D01*
X03617Y03808D02*
X03851D01*
X03616Y038D02*
X03859D01*
X03906Y03663D02*
Y03805D01*
X03863Y03663D02*
Y03796D01*
X03906Y03663D02*
X03928D01*
X03841D02*
X03863D01*
X03696Y03664D02*
X03863D01*
X03841Y03576D02*
Y03663D01*
X03776Y03584D02*
X03841D01*
X03768Y03592D02*
X03841D01*
X03928Y03576D02*
Y03585D01*
X03752Y03608D02*
X03841D01*
X0376Y036D02*
X03841D01*
X03728Y03632D02*
X03841D01*
X0372Y0364D02*
X03841D01*
X03736Y03624D02*
X03841D01*
X03712Y03648D02*
X03841D01*
X03704Y03656D02*
X03841D01*
X03695Y03665D02*
X03755Y03605D01*
X03744Y03616D02*
X03841D01*
X03755Y03605D02*
X03818Y03541D01*
X03718Y03368D02*
Y03581D01*
X03668Y03616D02*
X03683D01*
X03676Y03622D02*
X03718Y03581D01*
X03601Y03776D02*
X03863D01*
X03602Y0384D02*
X03819D01*
X03601Y03768D02*
X03863D01*
X03293Y03848D02*
X03811D01*
X03601Y03736D02*
X03863D01*
X03601Y03744D02*
X03863D01*
X03601Y03728D02*
X03863D01*
X03601Y0376D02*
X03863D01*
X03601Y03752D02*
X03863D01*
X03293Y03824D02*
X03545D01*
X03293Y03816D02*
X03543D01*
X03293Y03808D02*
X03542D01*
X03293Y0384D02*
X03557D01*
X03293Y03832D02*
X03549D01*
X03293Y03761D02*
Y03848D01*
Y03776D02*
X03558D01*
X03293Y03784D02*
X03553D01*
X03293Y03768D02*
X03558D01*
X03293Y038D02*
X03543D01*
X03293Y03792D02*
X03547D01*
X03605Y0372D02*
X03863D01*
X03601Y03723D02*
X03635Y0369D01*
X03564Y03699D02*
X03604Y03659D01*
X03491Y03656D02*
X03604D01*
X0349Y03648D02*
X03603D01*
X03484Y03632D02*
X03607D01*
X03488Y0364D02*
X03604D01*
X03477Y03624D02*
X03612D01*
X03463Y03616D02*
X03621D01*
X03266Y03568D02*
X03718D01*
X03601Y03723D02*
Y03779D01*
X03558Y03715D02*
Y03779D01*
X03487Y03672D02*
X03592D01*
X03483Y0368D02*
X03584D01*
X0349Y03664D02*
X036D01*
X03455Y03696D02*
X03568D01*
X03475Y03688D02*
X03576D01*
X03816Y03544D02*
X03848D01*
X038Y0356D02*
X03868D01*
X03808Y03552D02*
X03855D01*
X0381Y03498D02*
X03847D01*
X03761Y0348D02*
X03868D01*
X03761Y03456D02*
X0386D01*
X03761Y03448D02*
X03851D01*
X03761Y03496D02*
X03848D01*
X03761Y03488D02*
X03855D01*
X03818Y03541D02*
X03847D01*
X03761Y03512D02*
X03787D01*
X03761Y0352D02*
X03779D01*
X03761Y03528D02*
X03771D01*
X03761Y03537D02*
X03794Y03504D01*
X03761Y03432D02*
X03843D01*
X03761Y03424D02*
X03841D01*
X03761Y03504D02*
X03795D01*
X03761Y0344D02*
X03846D01*
X03761Y034D02*
X03846D01*
X03761Y03392D02*
X03851D01*
X03761Y0336D02*
X03868D01*
X03761Y03384D02*
X0386D01*
X0376Y03352D02*
X03855D01*
X03754Y03344D02*
X03848D01*
X03746Y03336D02*
X03844D01*
X03761Y03408D02*
X03843D01*
X03761Y03416D02*
X03841D01*
X03761Y0336D02*
Y03537D01*
X03685Y0336D02*
X03709D01*
X03738Y03328D02*
X03842D01*
X0373Y0332D02*
X03841D01*
X03686Y03352D02*
X03701D01*
X03685Y03344D02*
X03693D01*
X03645Y0344D02*
X03718D01*
X03637Y03448D02*
X03718D01*
X03653Y03432D02*
X03718D01*
X03621Y03464D02*
X03718D01*
X03613Y03472D02*
X03718D01*
X03629Y03456D02*
X03718D01*
X03666Y034D02*
X03718D01*
X03666Y03408D02*
X03718D01*
X03666Y03392D02*
X03718D01*
X03661Y03424D02*
X03718D01*
X03665Y03416D02*
X03718D01*
X03615Y0347D02*
X0366Y03425D01*
X03268Y03552D02*
X03718D01*
X03268Y0356D02*
X03718D01*
X03266Y03544D02*
X03718D01*
X03623Y03385D02*
Y03401D01*
X03591Y03433D02*
X03623Y03401D01*
X03468Y03392D02*
X03623D01*
X03677Y03376D02*
X03718D01*
X03668Y03384D02*
X03718D01*
X03666Y03385D02*
Y0341D01*
X03479Y03384D02*
X03621D01*
X03485Y03376D02*
X03612D01*
X03683Y03333D02*
X03718Y03368D01*
X03682Y03368D02*
X03717D01*
X03481Y03328D02*
X03609D01*
X03472Y0332D02*
X03616D01*
X03489Y03368D02*
X03607D01*
X03491Y0336D02*
X03604D01*
X03266Y03368D02*
X0341D01*
X03268Y0336D02*
X03408D01*
X03489Y03344D02*
X03604D01*
X03491Y03352D02*
X03603D01*
X03486Y03336D02*
X03606D01*
X03268Y03352D02*
X03408D01*
X03266Y03344D02*
X0341D01*
X04225Y03304D02*
X04275D01*
X04227Y03312D02*
X04275D01*
X04221Y03296D02*
X04275D01*
X04201Y0328D02*
X04275D01*
X04214Y03288D02*
X04275D01*
X03986Y03272D02*
X04275D01*
X04223Y0324D02*
X04275D01*
X04218Y03248D02*
X04275D01*
X04226Y03232D02*
X04275D01*
X03986Y03264D02*
X04275D01*
X04209Y03256D02*
X04275D01*
X03986Y03288D02*
X04155D01*
X03986Y03296D02*
X04148D01*
X03986Y03304D02*
X04144D01*
X03986Y03312D02*
X04142D01*
X03986Y03229D02*
Y0358D01*
Y03248D02*
X04151D01*
X03986Y0324D02*
X04146D01*
X03986Y03232D02*
X04143D01*
X03986Y0328D02*
X04168D01*
X03986Y03256D02*
X0416D01*
X04223Y032D02*
X04275D01*
X04226Y03208D02*
X04275D01*
Y02775D02*
Y0395D01*
X04209Y03184D02*
X04275D01*
X04218Y03192D02*
X04275D01*
X04201Y0316D02*
X04275D01*
X04227Y03128D02*
X04275D01*
X04225Y03136D02*
X04275D01*
X04228Y0312D02*
X04275D01*
X04214Y03152D02*
X04275D01*
X04221Y03144D02*
X04275D01*
X04228Y03224D02*
X04275D01*
X03986D02*
X04141D01*
X03982Y03216D02*
X04141D01*
X04228D02*
X04275D01*
X03974Y03208D02*
X04143D01*
X03971Y03204D02*
X0398Y03213D01*
X03964Y032D02*
X04146D01*
X03914Y03288D02*
X03943D01*
X03921Y03296D02*
X03943D01*
Y03241D02*
Y03571D01*
X03786Y03272D02*
X03943D01*
X03901Y0328D02*
X03943D01*
X03786Y03264D02*
X03943D01*
X03922Y03198D02*
X03955D01*
X03922Y03241D02*
X03943D01*
X03909Y03256D02*
X03943D01*
X03918Y03248D02*
X03943D01*
X03925Y03304D02*
X03943D01*
X03927Y03312D02*
X03943D01*
X03777Y03296D02*
X03848D01*
X03768Y03304D02*
X03844D01*
X03782Y03288D02*
X03855D01*
X03785Y0328D02*
X03868D01*
X03784Y03256D02*
X0386D01*
X0378Y03248D02*
X03851D01*
X03773Y0324D02*
X03846D01*
X0341Y032D02*
X03846D01*
X03909Y03184D02*
X0416D01*
X03918Y03192D02*
X04151D01*
X03914Y03152D02*
X04155D01*
X03467Y03168D02*
X04275D01*
X03467Y03176D02*
X04275D01*
X03901Y0316D02*
X04168D01*
X03927Y03128D02*
X04142D01*
X03928Y0312D02*
X04141D01*
X03927Y03112D02*
X04142D01*
X03921Y03144D02*
X04148D01*
X03925Y03136D02*
X04144D01*
X03402Y03192D02*
X03851D01*
X03467Y03184D02*
X0386D01*
X03467Y03144D02*
X03848D01*
X03795Y03141D02*
X03847D01*
X03467Y0316D02*
X03868D01*
X03467Y03152D02*
X03855D01*
X04221Y03096D02*
X04275D01*
X04225Y03104D02*
X04275D01*
X04218Y03048D02*
X04275D01*
X04201Y0308D02*
X04275D01*
X04214Y03088D02*
X04275D01*
X04209Y03056D02*
X04275D01*
X04228Y03016D02*
X04275D01*
X04228Y03024D02*
X04275D01*
X04226Y03008D02*
X04275D01*
X04223Y0304D02*
X04275D01*
X04226Y03032D02*
X04275D01*
X04227Y03112D02*
X04275D01*
X03925Y03104D02*
X04144D01*
X03921Y03096D02*
X04148D01*
X03909Y03056D02*
X0416D01*
X03914Y03088D02*
X04155D01*
X03918Y03048D02*
X04151D01*
X03928Y03016D02*
X04141D01*
X03928Y03024D02*
X04141D01*
X03926Y03008D02*
X04143D01*
X03923Y0304D02*
X04146D01*
X03926Y03032D02*
X04143D01*
X03922Y02888D02*
X04275D01*
X03917Y02896D02*
X04275D01*
X03925Y0288D02*
X04275D01*
X03906Y02912D02*
X04275D01*
X03906Y02928D02*
X04275D01*
X03908Y02904D02*
X04275D01*
X03925Y02864D02*
X04275D01*
X03926Y02872D02*
X04275D01*
X03923Y02856D02*
X04275D01*
X0392Y02848D02*
X04275D01*
X03913Y0284D02*
X04275D01*
X04223Y03D02*
X04275D01*
X03923D02*
X04146D01*
X03918Y02992D02*
X04151D01*
X04218D02*
X04275D01*
X03909Y02984D02*
X0416D01*
X04209D02*
X04275D01*
X03906Y02944D02*
X04275D01*
X03906Y02936D02*
X04275D01*
X03901Y0308D02*
X04168D01*
X03906Y02976D02*
X04275D01*
X03777Y03072D02*
X04275D01*
X03785Y0308D02*
X03868D01*
X03769Y03064D02*
X04275D01*
X03906Y0296D02*
X04275D01*
X03906Y02968D02*
X04275D01*
X03906Y02952D02*
X04275D01*
X03785Y0296D02*
X03863D01*
X03782Y02952D02*
X03863D01*
X03801Y03096D02*
X03848D01*
X03803Y03098D02*
X03847D01*
X03793Y03088D02*
X03855D01*
X03766Y03056D02*
X0386D01*
X03766Y03048D02*
X03851D01*
X03766Y0304D02*
X03846D01*
X03785Y02976D02*
X03863D01*
X03783Y02984D02*
X0386D01*
X03786Y02968D02*
X03863D01*
X03773Y03D02*
X03846D01*
X0378Y02992D02*
X03851D01*
X03906Y0292D02*
X04275D01*
X03863Y02905D02*
Y02982D01*
X03906Y02905D02*
Y02982D01*
X03733Y02928D02*
X03863D01*
X03768Y02936D02*
X03863D01*
X03725Y0292D02*
X03863D01*
X03901Y02832D02*
X04275D01*
X03717Y02912D02*
X03863D01*
X03601Y02832D02*
X03868D01*
X03777Y02944D02*
X03863D01*
X03709Y02904D02*
X03861D01*
X03701Y02896D02*
X03852D01*
X03693Y02888D02*
X03847D01*
X03685Y0288D02*
X03844D01*
X03669Y02864D02*
X03844D01*
X03677Y02872D02*
X03843D01*
X03661Y02856D02*
X03846D01*
X0362Y02848D02*
X03849D01*
X03613Y0284D02*
X03856D01*
X03722Y03312D02*
X03842D01*
X03714Y03304D02*
X03721D01*
X03706Y03296D02*
X03712D01*
X03641Y03291D02*
X03661Y03311D01*
X03698Y03288D02*
X03707D01*
X0369Y0328D02*
X03704D01*
X03682Y03272D02*
X03703D01*
X03608Y03304D02*
X03653D01*
X03471D02*
X03561D01*
X03471Y03296D02*
X03552D01*
X03471Y03312D02*
X03628D01*
X03471Y0327D02*
Y03319D01*
X03617Y03296D02*
X03645D01*
X0362Y03291D02*
X03641D01*
X03471Y03272D02*
X03543D01*
X03471Y03288D02*
X03547D01*
X03471Y0328D02*
X03544D01*
X03761Y03232D02*
X03843D01*
X03665Y03254D02*
X03755Y03344D01*
X03729Y03085D02*
X03779Y03135D01*
X03766Y03061D02*
X03803Y03098D01*
X03467Y03136D02*
X0378D01*
X03467Y0312D02*
X03764D01*
X03666Y03256D02*
X03705D01*
X03674Y03264D02*
X03703D01*
X0347D02*
X03544D01*
X0362Y03248D02*
X03709D01*
X0362Y03248D02*
X0365D01*
X03613Y0324D02*
X03716D01*
X03601Y03232D02*
X03728D01*
X03466Y03256D02*
X03546D01*
X0345Y0324D02*
X03556D01*
X03458Y03248D02*
X03549D01*
X03397Y03187D02*
X03465Y03254D01*
X03434Y03224D02*
X03841D01*
X03442Y03232D02*
X03568D01*
X03426Y03216D02*
X03841D01*
X03418Y03208D02*
X03843D01*
X03397Y03187D02*
X03467D01*
X03428Y03279D02*
Y03319D01*
X03268Y03256D02*
X03405D01*
X0332Y03171D02*
X03428Y03279D01*
X03264Y03272D02*
X03421D01*
X03267Y03264D02*
X03413D01*
X03267Y03248D02*
X03397D01*
X03392Y03181D02*
X03397Y03187D01*
X03386Y03176D02*
X03392D01*
X03378Y03168D02*
X03392D01*
X03265Y0324D02*
X03389D01*
X03265Y03171D02*
X0332D01*
X03467Y03128D02*
X03772D01*
X03467Y03112D02*
Y03187D01*
X03398Y03112D02*
X03756D01*
X03397Y03112D02*
X03467D01*
X03392Y03118D02*
X03397Y03112D01*
X03423Y03086*
X03422Y03088D02*
X03732D01*
X03452Y0308D02*
X03725D01*
X03406Y03104D02*
X03748D01*
X03414Y03096D02*
X0374D01*
X03362Y03152D02*
X03392D01*
X0337Y0316D02*
X03392D01*
Y03118D02*
Y03181D01*
X0336Y0315D02*
X03392Y03181D01*
X0336Y0315D02*
X03392Y03118D01*
X03374Y03136D02*
X03392D01*
X03366Y03144D02*
X03392D01*
X03382Y03128D02*
X03392D01*
X03264Y03072D02*
X03377D01*
X0332Y03128D02*
X03392Y03056D01*
X03766Y03032D02*
X03843D01*
X03766Y03024D02*
X03841D01*
X03766Y03016D02*
X03841D01*
X03723Y03005D02*
Y0307D01*
X03601Y03008D02*
X03723D01*
X03766Y03005D02*
Y03061D01*
Y03008D02*
X03843D01*
X03613Y03D02*
X03716D01*
X03623Y02984D02*
X03706D01*
X03625Y02976D02*
X03704D01*
X03626Y02968D02*
X03703D01*
X0362Y02992D02*
X03709D01*
X03625Y0296D02*
X03704D01*
X03622Y02952D02*
X03696D01*
X03617Y02944D02*
X03688D01*
X03608Y02936D02*
X0368D01*
X03573Y02928D02*
X03672D01*
X03636Y02891D02*
X03704Y0296D01*
X03608Y02904D02*
X03648D01*
X0366Y02854D02*
X03735Y02929D01*
X03565Y0292D02*
X03664D01*
X03557Y02912D02*
X03656D01*
X0362Y02848D02*
X03645D01*
X03617Y02896D02*
X0364D01*
X0362Y02891D02*
X03636D01*
X03549Y02904D02*
X03561D01*
X03541Y02896D02*
X03552D01*
X03533Y02888D02*
X03547D01*
X03525Y0288D02*
X03544D01*
X03505Y02859D02*
X03575Y02929D01*
X03509Y02864D02*
X03544D01*
X03517Y02872D02*
X03543D01*
X035Y02856D02*
X03546D01*
X03467Y03048D02*
X03723D01*
X03466Y03056D02*
X03723D01*
X03465Y0304D02*
X03723D01*
X0346Y03072D02*
X03723D01*
X03464Y03064D02*
X03723D01*
X03462Y03032D02*
X03723D01*
X03456Y03024D02*
X03723D01*
X03456Y02976D02*
X03544D01*
X03466Y0296D02*
X03544D01*
X03445Y03016D02*
X03723D01*
X03445Y02984D02*
X03546D01*
X03268Y03056D02*
X03392D01*
X03267Y03048D02*
X03392D01*
X03267Y03064D02*
X03385D01*
X03265Y0304D02*
X03393D01*
X03462Y02968D02*
X03543D01*
X03268Y02952D02*
X03392D01*
X03467D02*
X03536D01*
X03266Y02968D02*
X03396D01*
X03268Y0296D02*
X03393D01*
X03466Y02944D02*
X03528D01*
X03464Y02936D02*
X0352D01*
X03481Y02896D02*
X03544Y0296D01*
X0346Y02928D02*
X03512D01*
X03452Y0292D02*
X03504D01*
X03306Y02904D02*
X03488D01*
X03313Y02896D02*
X03481D01*
X03298Y02912D02*
X03496D01*
X03305Y02853D02*
X0349D01*
X03266Y02944D02*
X03392D01*
X03266Y02943D02*
X03313Y02896D01*
X0329Y0292D02*
X03407D01*
X03274Y02936D02*
X03394D01*
X03282Y02928D02*
X03399D01*
X03206Y03848D02*
X03293D01*
X03155Y03848D02*
X03206D01*
X03175Y0384D02*
X03206D01*
X03055Y03848D02*
X03144D01*
X03075Y0384D02*
X03124D01*
X03083Y03832D02*
X03116D01*
X03193Y03808D02*
X03206D01*
X03191Y03816D02*
X03206D01*
X03193Y038D02*
X03206D01*
X03183Y03832D02*
X03206D01*
X03188Y03824D02*
X03206D01*
X03088D02*
X03111D01*
X03091Y03816D02*
X03108D01*
X02993Y03808D02*
X03006D01*
X02984Y03832D02*
X03016D01*
X02989Y03824D02*
X03011D01*
X02992Y03816D02*
X03008D01*
X03093Y038D02*
X03106D01*
X03093Y03808D02*
X03106D01*
X03091Y03792D02*
X03108D01*
X02993Y038D02*
X03006D01*
X02991Y03792D02*
X03008D01*
X03187Y03784D02*
X03206D01*
X03191Y03792D02*
X03206D01*
Y03761D02*
Y03848D01*
X03172Y03768D02*
X03206D01*
X03182Y03776D02*
X03206D01*
X03257Y03584D02*
X03715D01*
X03247Y03592D02*
X03707D01*
X03262Y03576D02*
X03718D01*
X03206Y03761D02*
X03293D01*
X03082Y03776D02*
X03117D01*
X03087Y03784D02*
X03112D01*
X03072Y03768D02*
X03127D01*
X02982Y03776D02*
X03017D01*
X02988Y03784D02*
X03012D01*
X02997Y03568D02*
X03183D01*
X03005Y0356D02*
X03181D01*
X02995Y0357D02*
X03188Y03377D01*
X02985Y03576D02*
X03187D01*
X02945Y0395D02*
X04275D01*
X02939Y03944D02*
X03764D01*
X02931Y03936D02*
X03753D01*
X02923Y03928D02*
X03747D01*
X02915Y0392D02*
X03743D01*
X02891Y03896D02*
X03745D01*
X02875Y0388D02*
X03757D01*
X02883Y03888D02*
X03749D01*
X02867Y03872D02*
X03787D01*
X02859Y03864D02*
X03795D01*
X02851Y03856D02*
X03803D01*
X02956Y03848D02*
X03044D01*
X02975Y0384D02*
X03024D01*
X02899Y03904D02*
X03743D01*
X02907Y03912D02*
X03742D01*
X02755Y0376D02*
X03558D01*
X02972Y03768D02*
X03027D01*
X02747Y03752D02*
X03558D01*
X02739Y03744D02*
X03558D01*
X02731Y03736D02*
X03558D01*
X02715Y0372D02*
X03558D01*
X02723Y03728D02*
X03558D01*
X02707Y03712D02*
X03558D01*
X02699Y03704D02*
X03561D01*
X02691Y03696D02*
X03444D01*
X02683Y03688D02*
X03424D01*
X024Y03608D02*
X03691D01*
X02675Y0368D02*
X03416D01*
X024Y036D02*
X03699D01*
X024Y03624D02*
X03422D01*
X024Y03616D02*
X03436D01*
X02447Y03672D02*
X03412D01*
X02439Y03664D02*
X03409D01*
X02431Y03656D02*
X03408D01*
X02423Y03648D02*
X03409D01*
X02415Y0364D02*
X03411D01*
X02968Y03584D02*
X03192D01*
X02968Y03576D02*
X0298D01*
X02407Y03632D02*
X03415D01*
X02968Y03592D02*
X03202D01*
X03258Y03528D02*
X03718D01*
X03263Y03536D02*
X03718D01*
X0325Y0352D02*
X03718D01*
X03246Y03504D02*
X03718D01*
X03246Y03512D02*
X03718D01*
X03246Y03496D02*
X03718D01*
X03262Y03476D02*
X036D01*
X03262Y03433D02*
X03591D01*
X03261Y03432D02*
X03592D01*
X03253Y03488D02*
X03718D01*
X0326Y0348D02*
X03718D01*
X03246Y03492D02*
Y03517D01*
X03203Y03492D02*
Y03517D01*
X03093Y03472D02*
X03185D01*
X03101Y03464D02*
X03182D01*
X03133Y03432D02*
X03188D01*
X03125Y0344D02*
X03184D01*
X03141Y03424D02*
X03194D01*
X03109Y03456D02*
X03181D01*
X03117Y03448D02*
X03182D01*
X03255Y03424D02*
X036D01*
X03247Y03392D02*
X03431D01*
X03257Y03384D02*
X0342D01*
X03157Y03408D02*
X03616D01*
X03243Y03416D02*
X03608D01*
X03165Y034D02*
X03623D01*
X0325Y0332D02*
X03427D01*
X03258Y03328D02*
X03418D01*
X03253Y03288D02*
X03428D01*
X0323Y03312D02*
X03428D01*
X03239Y03296D02*
X03428D01*
X03262Y03376D02*
X03414D01*
X03181Y03384D02*
X03192D01*
X03149Y03416D02*
X03206D01*
X03173Y03392D02*
X03202D01*
X03263Y03336D02*
X03413D01*
X0318Y03333D02*
X03187D01*
X03045Y0352D02*
X03199D01*
X03037Y03528D02*
X03191D01*
X03053Y03512D02*
X03203D01*
X03021Y03544D02*
X03183D01*
X03013Y03552D02*
X03181D01*
X03029Y03536D02*
X03186D01*
X03069Y03496D02*
X03203D01*
X03077Y03488D02*
X03196D01*
X03085Y0348D02*
X03189D01*
X03061Y03504D02*
X03203D01*
X02965Y0344D02*
X03064D01*
X02968Y0352D02*
X02984D01*
X02968Y03528D02*
X02976D01*
X02968Y03512D02*
X02992D01*
X02939Y03496D02*
X03008D01*
X02788Y03504D02*
X03D01*
X02953Y03488D02*
X03016D01*
X02968Y03456D02*
X03048D01*
X02967Y03464D02*
X0304D01*
X02967Y03448D02*
X03056D01*
X0296Y0348D02*
X03024D01*
X02964Y03472D02*
X03032D01*
X02968Y03352D02*
X03152D01*
X02968Y0336D02*
X03144D01*
X02971Y03533D02*
X03164Y03339D01*
X02964Y03336D02*
X03169D01*
X02967Y03344D02*
X0316D01*
X02959Y03328D02*
X03191D01*
X02939Y03296D02*
X0321D01*
X0295Y0332D02*
X03199D01*
X02953Y03288D02*
X03196D01*
X02931Y03312D02*
X03219D01*
X02529Y03304D02*
X03428D01*
X02955Y03424D02*
X0308D01*
X02961Y03432D02*
X03072D01*
X02943Y03416D02*
X03088D01*
X02674Y03408D02*
X03096D01*
X0279Y034D02*
X03104D01*
X02963Y03376D02*
X03128D01*
X02957Y03384D02*
X0312D01*
X02966Y03368D02*
X03136D01*
X02947Y03392D02*
X03112D01*
X02843Y03848D02*
X02943D01*
X02835Y0384D02*
X02924D01*
X02827Y03832D02*
X02915D01*
X02881Y03598D02*
X02968D01*
X02779Y03784D02*
X02911D01*
X02968Y03576D02*
Y03598D01*
X02771Y03776D02*
X02917D01*
X02763Y03768D02*
X02927D01*
X02819Y03824D02*
X0291D01*
X02811Y03816D02*
X02907D01*
X02803Y03808D02*
X02906D01*
X02787Y03792D02*
X02908D01*
X02795Y038D02*
X02906D01*
X02674Y03552D02*
X02735D01*
X02783Y03544D02*
X02881D01*
X02774Y03552D02*
X02881D01*
X02788Y03536D02*
X02881D01*
X02683Y03544D02*
X02726D01*
X02688Y03536D02*
X02721D01*
X02881Y03511D02*
X02968D01*
X02881D02*
Y03598D01*
X02968Y03511D02*
Y03533D01*
X02792Y0352D02*
X02881D01*
X02791Y03528D02*
X02881D01*
X02791Y03512D02*
X02881D01*
X02783Y03496D02*
X0291D01*
X02774Y03488D02*
X02896D01*
X02725Y0348D02*
X02889D01*
X02728Y03476D02*
X02887D01*
X02693Y03512D02*
X02718D01*
X02692Y0352D02*
X02717D01*
X02691Y03528D02*
X02718D01*
X02691Y03513D02*
X02728Y03476D01*
X02709Y03496D02*
X02726D01*
X02701Y03504D02*
X02721D01*
X02717Y03488D02*
X02735D01*
X02674Y0347D02*
X02704Y03439D01*
X02674Y03393D02*
Y0347D01*
X0267Y03675D02*
X02945Y0395D01*
X0245Y03675D02*
X0267D01*
X024Y03568D02*
X02881D01*
X024Y03584D02*
X02881D01*
X024Y03592D02*
X02881D01*
X024Y03576D02*
X02881D01*
X02592Y03544D02*
X02626D01*
X02592Y03536D02*
X02621D01*
X02592Y03512D02*
X02618D01*
X024Y0356D02*
X02881D01*
X02592Y03552D02*
X02635D01*
X02517Y03557D02*
X02592D01*
X024Y03536D02*
X02517D01*
X024Y03528D02*
X02517D01*
X024Y03552D02*
X02517D01*
X024Y03625D02*
X0245Y03675D01*
X024Y03544D02*
X02517D01*
X02592Y03528D02*
X02618D01*
X02592Y0352D02*
X02617D01*
X024Y03504D02*
X02517D01*
X024Y0352D02*
X02517D01*
X024Y03512D02*
X02517D01*
X02592Y03488D02*
X0263D01*
Y03396D02*
Y03491D01*
X02592Y03496D02*
X02626D01*
X02592Y03504D02*
X02621D01*
X02592Y03482D02*
Y03557D01*
X02674Y03464D02*
X0268D01*
X02576D02*
X0263D01*
X02674Y03456D02*
X02688D01*
X02576Y0348D02*
X0263D01*
X02576Y03472D02*
X0263D01*
X02517Y03482D02*
X02533D01*
X02517D02*
Y03557D01*
X02533Y03368D02*
Y03482D01*
X024Y03496D02*
X02517D01*
X024Y03488D02*
X02517D01*
X02576Y03482D02*
X02592D01*
X024Y03464D02*
X02533D01*
X02576Y0336D02*
Y03482D01*
X024Y0348D02*
X02533D01*
X024Y03472D02*
X02533D01*
X0272Y03433D02*
X02887D01*
X02674Y034D02*
X02769D01*
X02674Y03424D02*
X02894D01*
X02674Y03432D02*
X02888D01*
X02674Y03416D02*
X02906D01*
X02806Y03392D02*
X02902D01*
X02813Y03384D02*
X02892D01*
X02818Y03376D02*
X02886D01*
X02676Y03392D02*
X02753D01*
X02683Y03384D02*
X02746D01*
X02674Y0344D02*
X02704D01*
X02674Y03448D02*
X02696D01*
X02576Y03408D02*
X0263D01*
X02576Y034D02*
X0263D01*
X02688Y03376D02*
X02741D01*
X02576D02*
X02611D01*
X0269Y03368D02*
X02739D01*
X02576Y03392D02*
X02623D01*
X02576Y03384D02*
X02616D01*
X0282Y03368D02*
X02883D01*
X02821Y0336D02*
X02881D01*
X02818Y03344D02*
X02882D01*
X0282Y03352D02*
X02881D01*
X02813Y03336D02*
X02885D01*
X02806Y03328D02*
X0289D01*
X0279Y0332D02*
X02899D01*
X02691Y0336D02*
X02738D01*
X02576Y03368D02*
X02609D01*
X02688Y03344D02*
X02741D01*
X0269Y03352D02*
X02739D01*
X02683Y03336D02*
X02746D01*
X02676Y03328D02*
X02753D01*
X0266Y0332D02*
X02769D01*
X02576Y03424D02*
X0263D01*
X02576Y03432D02*
X0263D01*
X02576Y03416D02*
X0263D01*
X02576Y03448D02*
X0263D01*
X02576Y03456D02*
X0263D01*
X02576Y0344D02*
X0263D01*
X02576Y0336D02*
X02608D01*
X024Y03376D02*
X02533D01*
X02575Y03352D02*
X02609D01*
X024Y03392D02*
X02533D01*
X024Y03384D02*
X02533D01*
X024Y03424D02*
X02533D01*
X024Y03432D02*
X02533D01*
X024Y03416D02*
X02533D01*
X024Y03448D02*
X02533D01*
X024Y03456D02*
X02533D01*
X024Y0344D02*
X02533D01*
X024Y03368D02*
X02532D01*
X024Y0336D02*
X02524D01*
X024Y03352D02*
X02516D01*
X024Y03408D02*
X02533D01*
X024Y034D02*
X02533D01*
X02569Y03344D02*
X02611D01*
X02561Y03336D02*
X02616D01*
X02484Y0332D02*
X02533Y03368D01*
X02521Y03296D02*
X0257Y03344D01*
X02545Y0332D02*
X02639D01*
X02553Y03328D02*
X02623D01*
X02537Y03312D02*
X02918D01*
X02521Y03296D02*
X0291D01*
X02521Y03288D02*
X02896D01*
X024Y03328D02*
X02492D01*
X024Y03344D02*
X02508D01*
X024Y03336D02*
X025D01*
X024Y03296D02*
X02478D01*
X024Y03304D02*
X02478D01*
X024Y03288D02*
X02478D01*
X024Y0332D02*
X02484D01*
X024Y03312D02*
X02479D01*
X0326Y0328D02*
X03428D01*
X03261Y03232D02*
X03381D01*
X03255Y03224D02*
X03373D01*
X02943Y03216D02*
X03206D01*
X02955Y03224D02*
X03194D01*
X03247Y03192D02*
X03341D01*
X03257Y03184D02*
X03333D01*
X03262Y03176D02*
X03325D01*
X03243Y03216D02*
X03365D01*
X02947Y03192D02*
X03202D01*
X02967Y03264D02*
X03182D01*
X02968Y03256D02*
X03181D01*
X02967Y03248D02*
X03182D01*
X0296Y0328D02*
X03189D01*
X02964Y03272D02*
X03185D01*
X02965Y0324D02*
X03184D01*
X02963Y03176D02*
X03187D01*
X02966Y03168D02*
X03183D01*
X02968Y0316D02*
X03181D01*
X02961Y03232D02*
X03188D01*
X02957Y03184D02*
X03192D01*
X03258Y03128D02*
X03321D01*
X03259Y03128D02*
X0332D01*
X0325Y0312D02*
X03329D01*
X0323Y03112D02*
X03337D01*
X02931D02*
X03219D01*
X03253Y03088D02*
X03361D01*
X03239Y03096D02*
X03353D01*
X0326Y0308D02*
X03369D01*
X02939Y03096D02*
X0321D01*
X02967Y03144D02*
X03183D01*
X02968Y03152D02*
X03181D01*
X02964Y03136D02*
X03186D01*
X02959Y03128D02*
X03191D01*
X0295Y0312D02*
X03199D01*
X02964Y03072D02*
X03185D01*
X02967Y03064D02*
X03182D01*
X02968Y03056D02*
X03181D01*
X02953Y03088D02*
X03196D01*
X0296Y0308D02*
X03189D01*
X02571Y03216D02*
X02906D01*
X02521Y03224D02*
X02894D01*
X02521Y0328D02*
X02889D01*
X02521Y03272D02*
X02885D01*
X02521Y03232D02*
X02888D01*
X02868Y03192D02*
X02902D01*
X02871Y03184D02*
X02892D01*
X02871Y03176D02*
X02886D01*
X02852Y03208D02*
X03357D01*
X02861Y032D02*
X03349D01*
X02521Y0324D02*
X02884D01*
X02575Y03211D02*
X0284D01*
X02521Y03264D02*
X02882D01*
X02521Y03256D02*
X02881D01*
X02521Y03248D02*
X02882D01*
X02871Y03168D02*
X02883D01*
X02856Y03205D02*
X02865Y03196D01*
X02871Y0312D02*
X02899D01*
X02871Y03128D02*
X0289D01*
X02871Y03096D02*
X0291D01*
X02871Y03088D02*
X02896D01*
X02871Y03112D02*
X02918D01*
X02871Y03104D02*
X03345D01*
X02871Y03144D02*
X02882D01*
X02871Y03152D02*
X02881D01*
X02871Y03136D02*
X02885D01*
X02871Y0316D02*
X02881D01*
X02871Y03076D02*
Y0318D01*
Y0308D02*
X02889D01*
X02871Y03076D02*
X02887D01*
X02821Y03056D02*
X02829D01*
X03255Y03024D02*
X03402D01*
X03261Y03032D02*
X03396D01*
X03246Y03008D02*
X03568D01*
X03246Y03016D02*
X03414D01*
X03246Y02992D02*
Y03017D01*
X03247Y02992D02*
X03549D01*
X03257Y02984D02*
X03413D01*
X03262Y02976D02*
X03402D01*
X03246Y03D02*
X03556D01*
X02965Y0304D02*
X03184D01*
X02967Y03048D02*
X03182D01*
X03203Y02992D02*
Y03017D01*
X02955Y03024D02*
X03194D01*
X02961Y03032D02*
X03188D01*
X02943Y03016D02*
X03203D01*
X02962Y02976D02*
X03187D01*
X02966Y02968D02*
X03183D01*
X02968Y0296D02*
X03181D01*
X02947Y02992D02*
X03202D01*
X02957Y02984D02*
X03192D01*
X0323Y02912D02*
X03237D01*
X03236Y02913D02*
X03289Y02859D01*
X02946Y02904D02*
X03245D01*
X02946Y02912D02*
X03219D01*
X02946Y02896D02*
X03253D01*
X02946Y0288D02*
X03269D01*
X02946Y02888D02*
X03261D01*
X02942Y02872D02*
X03277D01*
X02935Y02864D02*
X03285D01*
X02926Y02856D02*
X03294D01*
X02966Y02944D02*
X03183D01*
X02968Y02952D02*
X03181D01*
X02963Y02936D02*
X03186D01*
X02958Y02928D02*
X03191D01*
X0295Y0292D02*
X03199D01*
X02946Y02884D02*
Y02917D01*
X02931Y02859D02*
X0294Y02868D01*
X0281Y03032D02*
X02888D01*
X02859Y03033D02*
X02887D01*
X02674Y03016D02*
X02906D01*
X028Y03024D02*
X02894D01*
X02682Y03008D02*
X03203D01*
X02868Y02984D02*
X02892D01*
X02873Y02976D02*
X02887D01*
X02861Y02928D02*
X02891D01*
X02845Y03D02*
X03203D01*
X02861Y02992D02*
X02902D01*
X02834Y03048D02*
X02843Y03039D01*
X02816Y0304D02*
X02843D01*
X02819Y03048D02*
X02835D01*
X02875Y02968D02*
X02883D01*
X02876Y0296D02*
X02881D01*
X02875Y02952D02*
X02881D01*
X02873Y02944D02*
X02883D01*
X02868Y02936D02*
X02886D01*
X024Y02816D02*
X04275D01*
X024Y02824D02*
X04275D01*
X024Y02808D02*
X04275D01*
X024Y0284D02*
X03556D01*
X024Y02848D02*
X03549D01*
X024Y02832D02*
X03568D01*
X024Y02776D02*
X04275D01*
X024Y02784D02*
X04275D01*
X024Y02775D02*
X04275D01*
X024Y028D02*
X04275D01*
X024Y02792D02*
X04275D01*
X02845Y0292D02*
X02899D01*
X02903Y02896D02*
Y02917D01*
X02471Y02912D02*
X02903D01*
X02471Y02896D02*
X02903D01*
X02471Y02904D02*
X02903D01*
X02459Y02853D02*
X02915D01*
X02575Y03168D02*
X02828D01*
X02575Y03168D02*
X02828D01*
X02564Y0316D02*
X02828D01*
X02556Y03144D02*
X02828D01*
X02556Y03152D02*
X02828D01*
X02556Y03136D02*
X02828D01*
X02556Y03104D02*
X02828D01*
X02556Y03112D02*
X02828D01*
X02556Y03096D02*
X02629D01*
X02556Y03128D02*
X02828D01*
X02556Y0312D02*
X02828D01*
X02521Y03223D02*
X02533D01*
X02521D02*
Y03296D01*
X02533Y03219D02*
Y03223D01*
X02509Y03104D02*
X02513D01*
X02501Y03096D02*
X02513D01*
X0281Y03088D02*
X02828D01*
X028Y03096D02*
X02828D01*
Y03064D02*
Y03168D01*
X0267Y03096D02*
X02759D01*
X0268Y03088D02*
X02749D01*
X02819Y03072D02*
X02828D01*
X02816Y0308D02*
X02828D01*
X02821Y03064D02*
X02828D01*
X02686Y0308D02*
X02743D01*
X02689Y03072D02*
X0274D01*
X02556Y03088D02*
X02619D01*
X02556Y0308D02*
X02613D01*
X02556Y02995D02*
Y03153D01*
X02493Y03088D02*
X02513D01*
Y02995D02*
Y03107D01*
X02691Y03056D02*
X02738D01*
X02691Y03064D02*
X02738D01*
X02556Y03072D02*
X0261D01*
X02556Y03064D02*
X02608D01*
X024Y03232D02*
X02478D01*
X024Y0324D02*
X02478D01*
Y03223D02*
Y03305D01*
X024Y03256D02*
X02478D01*
X024Y03264D02*
X02478D01*
X024Y03248D02*
X02478D01*
X02466Y03156D02*
X02478D01*
X02466Y03223D02*
X02478D01*
X024Y03144D02*
X02478D01*
X024Y03224D02*
X02478D01*
X024Y03152D02*
X02478D01*
X024Y032D02*
X02466D01*
X024Y03208D02*
X02466D01*
Y03156D02*
Y03223D01*
X024Y03272D02*
X02478D01*
X024Y0328D02*
X02478D01*
X024Y03216D02*
X02466D01*
X024Y03168D02*
X02466D01*
X024Y03176D02*
X02466D01*
X024Y0316D02*
X02466D01*
X024Y03192D02*
X02466D01*
X024Y03184D02*
X02466D01*
X02478Y03133D02*
Y03156D01*
X024Y03112D02*
X02456D01*
X02434Y0309D02*
X02478Y03133D01*
X024Y03136D02*
X02478D01*
X024Y03128D02*
X02472D01*
X024Y0312D02*
X02464D01*
X02477Y03072D02*
X02513D01*
X02485Y0308D02*
X02513D01*
X02471Y03064D02*
X02513D01*
X02471Y03066D02*
X02513Y03107D01*
X02471Y02896D02*
Y03066D01*
X024Y03096D02*
X0244D01*
X024Y03104D02*
X02448D01*
X024Y02775D02*
Y03625D01*
Y03064D02*
X02428D01*
X024Y03072D02*
X02428D01*
Y02884D02*
Y03075D01*
X024Y03088D02*
X02432D01*
X024Y0308D02*
X02428D01*
X02686Y0304D02*
X02743D01*
X02689Y03048D02*
X0274D01*
X0268Y03032D02*
X02749D01*
X02672Y03024D02*
X02759D01*
X02672Y03017D02*
Y03025D01*
Y03017D02*
X02708Y02981D01*
X0269Y03D02*
X02824D01*
X02698Y02992D02*
X02808D01*
X02706Y02984D02*
X02801D01*
X02561Y02992D02*
X02637D01*
X02568Y02984D02*
X02645D01*
X02556Y03024D02*
X02629D01*
X02556Y03032D02*
X02619D01*
X02629Y03008D02*
Y03024D01*
X02556Y03048D02*
X0261D01*
X02556Y03056D02*
X02608D01*
X02556Y0304D02*
X02613D01*
X02556Y03D02*
X02631D01*
X02556Y03016D02*
X02629D01*
X02556Y03008D02*
X02629D01*
X02708Y02981D02*
X02799D01*
X02575Y02952D02*
X02677D01*
X02576Y0296D02*
X02669D01*
X02635Y02993D02*
X02684Y02944D01*
X027Y02938D02*
X02799D01*
X02573Y02944D02*
X02685D01*
X02568Y02936D02*
X02801D01*
X02561Y02928D02*
X02808D01*
X02545Y0292D02*
X02824D01*
X02573Y02976D02*
X02653D01*
X02471D02*
X02496D01*
X02471Y02968D02*
X02494D01*
X02575D02*
X02661D01*
X02471Y02944D02*
X02496D01*
X02471Y02928D02*
X02508D01*
X02471Y0296D02*
X02493D01*
X02471Y02952D02*
X02494D01*
X02471Y03024D02*
X02513D01*
X02471Y03032D02*
X02513D01*
X02471Y03016D02*
X02513D01*
X02471Y03048D02*
X02513D01*
X02471Y03056D02*
X02513D01*
X02471Y0304D02*
X02513D01*
X02471Y03D02*
X02513D01*
X02471Y02992D02*
X02508D01*
X02471Y02984D02*
X02501D01*
X02471Y03008D02*
X02513D01*
X024Y02968D02*
X02428D01*
X024Y03024D02*
X02428D01*
X024Y03032D02*
X02428D01*
X024Y03016D02*
X02428D01*
X024Y03048D02*
X02428D01*
X024Y03056D02*
X02428D01*
X024Y0304D02*
X02428D01*
X024Y02984D02*
X02428D01*
X024Y02992D02*
X02428D01*
X024Y02976D02*
X02428D01*
X024Y03008D02*
X02428D01*
X024Y03D02*
X02428D01*
X02471Y0292D02*
X02524D01*
X02471Y02936D02*
X02501D01*
X024Y02872D02*
X02432D01*
X024Y0288D02*
X02428D01*
X02434Y02868D02*
X02443Y02859D01*
X024Y02864D02*
X02439D01*
X024Y02856D02*
X02448D01*
X024Y02936D02*
X02428D01*
X024Y02944D02*
X02428D01*
X024Y02928D02*
X02428D01*
X024Y0296D02*
X02428D01*
X024Y02952D02*
X02428D01*
X024Y02896D02*
X02428D01*
X024Y02904D02*
X02428D01*
X024Y02888D02*
X02428D01*
X024Y0292D02*
X02428D01*
X024Y02912D02*
X02428D01*
G54D22*
X03885Y0342D02*
X03924D01*
X03885D02*
Y03459D01*
Y0338D02*
Y0342D01*
X03845D02*
X03885D01*
X03745Y0327D02*
Y03307D01*
X03707Y0327D02*
X03745D01*
X03782*
X03745Y03232D02*
Y0327D01*
X03429Y0295D02*
Y02983D01*
Y0295D02*
X03463D01*
X03396D02*
X03429D01*
Y02916D02*
Y0295D01*
X0295Y03805D02*
X02989D01*
X0295D02*
Y03844D01*
X0291Y03805D02*
X0295D01*
Y03765D02*
Y03805D01*
X02925Y03355D02*
X02964D01*
X02925D02*
Y03394D01*
Y03315D02*
Y03355D01*
X02885D02*
X02925D01*
Y03155D02*
X02964D01*
X02925D02*
Y03194D01*
X02885Y03155D02*
X02925D01*
Y03115D02*
Y03155D01*
M02*