%FSTAX23Y23*%
%MOIN*%
%SFA1B1*%

%IPPOS*%
%ADD10C,0.009843*%
%ADD11C,0.023622*%
%ADD12C,0.007874*%
%ADD13C,0.010000*%
%LNntc-1*%
%LPD*%
G36*
X02904Y03585D02*
X02905D01*
Y03585*
X02905*
Y03585*
X02905*
Y03584*
X02905*
Y03584*
Y03584*
Y03584*
X02905*
Y03583*
Y03583*
Y03583*
Y03583*
Y03583*
X02905*
Y03582*
Y03582*
Y03582*
Y03582*
Y03581*
Y03581*
Y03581*
X02905*
Y03581*
Y03581*
Y0358*
Y0358*
Y0358*
Y0358*
X02905*
Y03579*
Y03579*
Y03579*
Y03579*
Y03579*
X02905*
Y03578*
Y03578*
Y03578*
Y03578*
Y03577*
Y03577*
X02904*
Y03577*
Y03577*
Y03577*
Y03576*
Y03576*
X02904*
Y03576*
Y03576*
Y03576*
Y03575*
Y03575*
X02904*
Y03575*
Y03575*
Y03574*
Y03574*
Y03574*
X02904*
Y03574*
Y03574*
Y03573*
Y03573*
Y03573*
X02903*
Y03573*
Y03572*
Y03572*
Y03572*
Y03572*
X02903*
Y03572*
Y03571*
Y03571*
Y03571*
X02903*
Y03571*
Y0357*
Y0357*
Y0357*
X02903*
Y0357*
Y0357*
Y03569*
Y03569*
Y03569*
X02903*
Y03569*
Y03568*
Y03568*
Y03568*
X02902*
Y03568*
Y03568*
Y03567*
Y03567*
X02902*
Y03567*
Y03567*
Y03566*
Y03566*
X02902*
Y03566*
Y03566*
Y03566*
Y03565*
X02902*
Y03565*
Y03565*
Y03565*
X02902*
Y03565*
Y03564*
Y03564*
Y03564*
X02901*
Y03564*
Y03563*
Y03563*
Y03563*
X02901*
Y03563*
Y03563*
Y03562*
X02901*
Y03562*
Y03562*
Y03562*
Y03561*
X02901*
Y03561*
Y03561*
Y03561*
X029*
Y03561*
Y0356*
Y0356*
X029*
Y0356*
Y0356*
Y03559*
Y03559*
X029*
Y03559*
Y03559*
Y03559*
X029*
Y03558*
Y03558*
Y03558*
X029*
Y03558*
Y03557*
Y03557*
X02899*
Y03557*
Y03557*
Y03557*
X02899*
Y03556*
Y03556*
Y03556*
X02899*
Y03556*
Y03556*
Y03555*
X02899*
Y03555*
Y03555*
Y03555*
X02898*
Y03554*
Y03554*
Y03554*
X02898*
Y03554*
Y03554*
Y03553*
X02898*
Y03553*
Y03553*
Y03553*
X02898*
Y03552*
Y03552*
Y03552*
X02898*
Y03552*
Y03552*
X02897*
Y03551*
Y03551*
Y03551*
X02897*
Y03551*
Y0355*
Y0355*
X02897*
Y0355*
X02897*
Y0355*
Y0355*
Y03549*
Y03549*
X02896*
Y03549*
Y03549*
Y03548*
X02896*
Y03548*
Y03548*
X02896*
Y03548*
Y03548*
Y03547*
X02896*
Y03547*
Y03547*
X02896*
Y03547*
Y03547*
Y03546*
X02895*
Y03546*
Y03546*
X02895*
Y03546*
Y03545*
Y03545*
X02895*
Y03545*
Y03545*
X02895*
Y03545*
Y03544*
X02894*
Y03544*
Y03544*
Y03544*
X02894*
Y03543*
Y03543*
X02894*
Y03543*
Y03543*
X02894*
Y03543*
Y03542*
Y03542*
X02894*
Y03542*
Y03542*
X02893*
Y03541*
Y03541*
X02893*
Y03541*
Y03541*
X02893*
Y03541*
Y0354*
X02893*
Y0354*
Y0354*
Y0354*
X02893*
Y03539*
Y03539*
X02892*
Y03539*
Y03539*
X02892*
Y03539*
Y03538*
X02892*
Y03538*
Y03538*
X02892*
Y03538*
Y03538*
X02891*
Y03537*
Y03537*
X02891*
Y03537*
Y03537*
X02891*
Y03536*
Y03536*
X02891*
Y03536*
Y03536*
X02891*
Y03536*
Y03535*
X0289*
Y03535*
X0289*
Y03535*
X0289*
Y03535*
Y03534*
X0289*
Y03534*
Y03534*
X0289*
Y03534*
Y03534*
X02889*
Y03533*
Y03533*
X02889*
Y03533*
Y03533*
X02889*
Y03532*
Y03532*
X02889*
Y03532*
X02889*
Y03532*
Y03532*
X02888*
Y03531*
Y03531*
X02888*
Y03531*
Y03531*
X02888*
Y0353*
Y0353*
X02888*
Y0353*
Y0353*
X02887*
Y0353*
X02887*
Y03529*
Y03529*
X02887*
Y03529*
Y03529*
X02887*
Y03528*
Y03528*
X02887*
Y03528*
Y03528*
X02886*
Y03528*
X02886*
Y03527*
Y03527*
X02886*
Y03527*
X02886*
Y03527*
Y03527*
X02885*
Y03526*
Y03526*
X02885*
Y03526*
X02885*
Y03526*
Y03525*
X02885*
Y03525*
Y03525*
X02885*
Y03525*
X02884*
Y03525*
X02885*
Y03525*
X02884*
Y03525*
Y03524*
X02884*
Y03524*
X02884*
Y03524*
Y03524*
X02884*
Y03523*
Y03523*
X02884*
Y03523*
X02883*
Y03523*
Y03523*
X02883*
Y03522*
X02883*
Y03522*
Y03522*
X02883*
Y03522*
X02882*
Y03521*
Y03521*
X02882*
Y03521*
Y03521*
X02882*
Y03521*
X02882*
Y0352*
X02882*
Y0352*
Y0352*
X02881*
Y0352*
X02881*
Y0352*
X02881*
Y0352*
X02881*
Y03519*
Y03519*
X02881*
Y03519*
X02881*
Y03519*
Y03519*
X0288*
Y03518*
X0288*
Y03518*
X0288*
Y03518*
Y03518*
X0288*
Y03518*
X0288*
Y03517*
Y03517*
X02879*
Y03517*
X02879*
Y03517*
X02879*
Y03516*
Y03516*
X02879*
Y03516*
X02878*
Y03516*
X02878*
Y03516*
Y03515*
X02878*
Y03515*
X02878*
Y03515*
Y03515*
X02878*
Y03514*
X02877*
Y03514*
X02877*
Y03514*
X02877*
Y03514*
Y03514*
X02877*
Y03514*
X02876*
Y03514*
X02877*
Y03513*
X02876*
Y03513*
X02876*
Y03513*
Y03513*
X02876*
Y03512*
Y03512*
X02876*
Y03512*
X02875*
Y03512*
Y03512*
X02875*
Y03511*
X02875*
Y03511*
X02875*
Y03511*
X02875*
Y03511*
X02874*
Y0351*
Y0351*
X02874*
Y0351*
X02874*
Y0351*
X02874*
Y0351*
X02873*
Y03509*
X02873*
Y03509*
Y03509*
X02873*
Y03509*
X02873*
Y03509*
X02873*
Y03508*
X02872*
Y03508*
X02872*
Y03508*
X02872*
Y03508*
Y03507*
X02872*
Y03507*
X02871*
Y03507*
X02871*
Y03507*
X02871*
Y03507*
X02871*
Y03506*
X02871*
Y03506*
X0287*
Y03506*
X0287*
Y03506*
Y03505*
X0287*
Y03505*
X0287*
Y03505*
X02869*
Y03505*
X02869*
Y03505*
X02869*
Y03504*
X02869*
Y03504*
Y03504*
X02868*
Y03504*
X02868*
Y03503*
X02868*
Y03503*
X02868*
Y03503*
X02867*
Y03503*
X02867*
Y03503*
X02867*
Y03502*
X02867*
Y03502*
X02867*
Y03502*
X02866*
Y03502*
Y03501*
X02866*
Y03501*
X02866*
Y03501*
X02865*
Y03501*
X02865*
Y03501*
X02865*
Y035*
X02865*
Y035*
X02865*
Y035*
X02864*
Y035*
X02864*
Y035*
X02864*
Y03499*
X02864*
Y03499*
X02863*
Y03499*
Y03499*
X02863*
Y03498*
X02863*
Y03498*
X02863*
Y03498*
X02862*
Y03498*
X02862*
Y03498*
X02862*
Y03497*
X02862*
Y03497*
X02861*
Y03497*
X02861*
Y03497*
X02861*
Y03496*
Y03496*
X0286*
Y03496*
X0286*
Y03496*
X0286*
Y03496*
X0286*
Y03495*
X02859*
Y03495*
X02859*
Y03495*
X02859*
Y03495*
X02858*
Y03494*
X02858*
Y03494*
X02858*
Y03494*
X02858*
Y03494*
X02858*
Y03494*
X02857*
Y03493*
X02857*
Y03493*
X02857*
Y03493*
X02856*
Y03493*
X02856*
Y03492*
X02856*
Y03492*
X02856*
Y03492*
X02855*
Y03492*
X02855*
Y03492*
X02855*
Y03491*
X02855*
Y03491*
X02854*
Y03491*
X02854*
Y03491*
X02853*
Y0349*
X02853*
Y0349*
X02853*
Y0349*
X02853*
Y0349*
X02852*
Y0349*
X02852*
Y03489*
X02852*
Y03489*
X02851*
Y03489*
X02851*
Y03489*
X02851*
Y03489*
X02851*
Y03488*
X0285*
Y03488*
X0285*
Y03488*
X0285*
Y03488*
X02849*
Y03487*
X02849*
Y03487*
X02849*
Y03487*
X02848*
Y03487*
X02849*
Y03487*
X02848*
Y03487*
X02848*
Y03487*
X02848*
Y03486*
X02847*
Y03486*
X02847*
Y03486*
X02847*
Y03486*
X02846*
Y03485*
X02846*
Y03485*
X02846*
Y03485*
X02845*
Y03485*
X02845*
Y03485*
X02845*
Y03485*
X02844*
Y03485*
Y03484*
X02844*
Y03484*
X02844*
Y03484*
X02844*
Y03484*
X02843*
Y03483*
X02843*
Y03483*
X02842*
Y03483*
X02842*
Y03483*
X02842*
Y03483*
X02842*
Y03483*
X02842*
Y03483*
X02841*
Y03483*
X02841*
Y03483*
X02841*
Y03482*
X02841*
Y03482*
X0284*
Y03482*
X0284*
Y03482*
X0284*
Y03481*
X02839*
Y03481*
X02839*
Y03481*
X02838*
Y03481*
X02838*
Y03481*
X02838*
Y0348*
X02837*
Y0348*
X02837*
Y0348*
X02836*
Y0348*
X02836*
Y0348*
X02835*
Y03479*
X02835*
Y03479*
X02835*
Y03479*
X02834*
Y03479*
X02833*
Y03478*
X02833*
Y03478*
X02833*
Y03478*
X02832*
Y03478*
X02832*
Y03478*
X02831*
Y03477*
X02831*
Y03477*
X0283*
Y03477*
X02829*
Y03477*
X02829*
Y03476*
X02828*
Y03476*
X02828*
Y03476*
X02827*
Y03476*
X02827*
Y03476*
X02826*
Y03475*
X02826*
Y03475*
X02825*
Y03475*
X02824*
Y03475*
X02824*
Y03474*
X02823*
Y03474*
X02823*
Y03474*
X02822*
Y03474*
X02822*
Y03474*
X02821*
Y03474*
Y03474*
X02821*
Y03473*
X0282*
Y03473*
X02819*
Y03473*
X02818*
Y03473*
X02818*
Y03472*
X02817*
Y03472*
X02816*
Y03472*
X02815*
Y03472*
X02815*
Y03472*
X02815*
Y03472*
X02815*
Y03472*
X02814*
Y03471*
X02813*
Y03471*
X02812*
Y03471*
X02811*
Y03471*
X0281*
Y03471*
X02808*
Y0347*
X02807*
Y0347*
X02806*
Y0347*
X02805*
Y0347*
X02803*
Y03469*
X02801*
Y03469*
X02799*
Y03469*
X02799*
Y03469*
Y03469*
X02796*
Y03469*
X02785*
Y03469*
X02782*
Y03469*
X0278*
Y03469*
X02778*
Y0347*
X02776*
Y0347*
X02775*
Y0347*
X02773*
Y0347*
X02772*
Y03471*
X02771*
Y03471*
X0277*
Y03471*
X02769*
Y03471*
X02768*
Y03471*
X02767*
Y03472*
X02766*
Y03472*
X02766*
Y03472*
X02765*
Y03472*
X02764*
Y03472*
X02763*
Y03473*
X02763*
Y03473*
X02762*
Y03473*
X02761*
Y03473*
X02761*
Y03474*
X0276*
Y03474*
X02759*
Y03474*
X02759*
Y03474*
X02758*
Y03474*
Y03475*
X02758*
Y03474*
X02757*
Y03475*
X02757*
Y03475*
X02756*
Y03475*
X02756*
Y03475*
X02755*
Y03476*
X02755*
Y03476*
X02754*
Y03476*
X02754*
Y03476*
X02753*
Y03476*
X02753*
Y03477*
X02752*
Y03477*
X02752*
Y03477*
X02752*
Y03477*
X02751*
Y03477*
X02751*
Y03477*
Y03478*
X02751*
Y03477*
X0275*
Y03478*
X0275*
Y03478*
X0275*
Y03478*
X02749*
Y03478*
X02749*
Y03478*
X02748*
Y03479*
X02748*
Y03479*
X02748*
Y03479*
Y03479*
X02747*
Y03479*
X02747*
Y03479*
X02747*
Y0348*
X02746*
Y0348*
Y0348*
X02746*
Y0348*
X02746*
Y0348*
X02746*
Y03481*
X02745*
Y03481*
X02745*
Y03481*
X02745*
Y03481*
X02745*
Y03481*
Y03482*
X02744*
Y03482*
X02745*
Y03482*
X02744*
Y03482*
Y03483*
X02744*
Y03483*
Y03483*
Y03483*
X02744*
Y03483*
Y03484*
Y03484*
Y03484*
Y03484*
Y03485*
Y03485*
X02744*
Y03485*
Y03485*
Y03485*
Y03486*
X02744*
Y03486*
Y03486*
X02744*
Y03486*
Y03487*
X02745*
Y03487*
X02745*
Y03487*
X02745*
Y03487*
X02745*
Y03487*
X02746*
Y03488*
X02746*
Y03488*
X02746*
Y03488*
X02746*
Y03488*
X02747*
Y03489*
X02747*
Y03489*
X02748*
Y03489*
X02748*
Y03489*
X02748*
Y03489*
X02749*
Y0349*
X02749*
Y0349*
X0275*
Y0349*
X0275*
Y0349*
X02751*
Y0349*
X02751*
Y03491*
X02752*
Y03491*
X02752*
Y03491*
X02753*
Y03491*
X02753*
Y03492*
X02753*
Y03492*
X02754*
Y03492*
X02755*
Y03492*
X02755*
Y03492*
X02756*
Y03493*
X02756*
Y03493*
X02757*
Y03493*
X02757*
Y03493*
X02757*
Y03493*
X02757*
Y03493*
X02758*
Y03494*
X02758*
Y03494*
X02759*
Y03494*
X02759*
Y03494*
X0276*
Y03494*
X0276*
Y03495*
X02761*
Y03495*
X02761*
Y03495*
X02762*
Y03495*
X02762*
Y03496*
Y03496*
X02762*
Y03496*
Y03496*
Y03496*
Y03497*
Y03497*
Y03497*
X02762*
Y03497*
Y03498*
Y03498*
Y03498*
Y03498*
Y03498*
X02762*
Y03499*
X02762*
Y03499*
X02762*
Y03499*
Y03499*
Y035*
Y035*
Y035*
X02761*
Y035*
Y035*
Y03501*
Y03501*
Y03501*
Y03501*
Y03501*
X02761*
Y03502*
Y03502*
Y03502*
Y03502*
Y03503*
Y03503*
Y03503*
Y03503*
X02761*
Y03503*
Y03504*
Y03504*
Y03504*
Y03504*
Y03505*
Y03505*
Y03505*
Y03505*
X02761*
Y03505*
Y03506*
Y03506*
Y03506*
Y03506*
Y03507*
Y03507*
Y03507*
Y03507*
X02761*
Y03507*
Y03508*
Y03508*
Y03508*
Y03508*
Y03509*
Y03509*
Y03509*
Y03509*
Y03509*
Y0351*
Y0351*
X0276*
Y0351*
Y0351*
Y0351*
Y03511*
Y03511*
Y03511*
Y03511*
Y03512*
Y03512*
Y03512*
Y03512*
Y03512*
Y03513*
Y03513*
X0276*
Y03513*
Y03513*
Y03514*
Y03514*
Y03514*
Y03514*
Y03514*
Y03515*
Y03515*
Y03515*
Y03515*
Y03516*
Y03516*
Y03516*
Y03516*
Y03516*
Y03517*
Y03517*
Y03517*
Y03517*
Y03518*
Y03518*
X0276*
Y03518*
Y03518*
Y03518*
Y03519*
Y03519*
Y03519*
Y03519*
Y03519*
Y0352*
Y0352*
Y0352*
Y0352*
Y03521*
Y03521*
Y03521*
Y03521*
Y03521*
Y03522*
Y03522*
Y03522*
Y03522*
Y03523*
Y03523*
Y03523*
Y03523*
Y03523*
Y03524*
Y03524*
Y03524*
Y03524*
Y03525*
Y03525*
Y03525*
Y03525*
Y03525*
Y03526*
Y03526*
Y03526*
Y03526*
Y03527*
Y03527*
Y03527*
Y03527*
Y03527*
Y03528*
Y03528*
Y03528*
Y03528*
Y03528*
Y03529*
Y03529*
Y03529*
Y03529*
Y0353*
Y0353*
Y0353*
Y0353*
Y0353*
Y03531*
Y03531*
Y03531*
Y03531*
Y03532*
Y03532*
Y03532*
Y03532*
X0276*
Y03532*
Y03533*
Y03533*
Y03533*
Y03533*
Y03534*
Y03534*
Y03534*
Y03534*
Y03534*
Y03535*
Y03535*
Y03535*
Y03535*
Y03536*
Y03536*
Y03536*
Y03536*
Y03536*
Y03537*
Y03537*
Y03537*
Y03537*
Y03538*
X0276*
Y03538*
Y03538*
Y03538*
Y03538*
Y03539*
Y03539*
Y03539*
Y03539*
Y03539*
Y0354*
Y0354*
Y0354*
Y0354*
Y03541*
Y03541*
Y03541*
Y03541*
Y03541*
Y03542*
X02761*
Y03542*
Y03542*
Y03542*
Y03543*
Y03543*
Y03543*
Y03543*
Y03543*
X02761*
Y03544*
X02761*
Y03544*
Y03544*
Y03544*
Y03545*
Y03545*
Y03545*
X02761*
Y03545*
Y03545*
Y03546*
Y03546*
Y03546*
Y03546*
Y03547*
Y03547*
Y03547*
Y03547*
Y03547*
Y03548*
X02761*
Y03548*
Y03548*
Y03548*
Y03548*
Y03549*
Y03549*
Y03549*
Y03549*
Y0355*
Y0355*
Y0355*
Y0355*
Y0355*
Y03551*
X02761*
Y03551*
Y03551*
Y03551*
Y03552*
Y03552*
Y03552*
Y03552*
Y03552*
Y03553*
Y03553*
Y03553*
Y03553*
X02761*
Y03554*
Y03554*
Y03554*
Y03554*
Y03554*
Y03555*
Y03555*
Y03555*
Y03555*
Y03556*
Y03556*
X02762*
Y03556*
Y03556*
X02761*
Y03556*
Y03557*
X02761*
Y03557*
Y03557*
X02761*
Y03557*
Y03557*
X02761*
Y03558*
Y03558*
X02761*
Y03558*
X0276*
Y03558*
Y03559*
X0276*
Y03559*
Y03559*
X0276*
Y03559*
Y03559*
X0276*
Y0356*
Y0356*
X02759*
Y0356*
X02759*
Y0356*
Y03561*
X02759*
Y03561*
X02759*
Y03561*
X02759*
Y03561*
Y03561*
X02759*
Y03562*
Y03562*
X02758*
Y03562*
Y03562*
X02758*
Y03563*
X02758*
Y03563*
Y03563*
X02758*
Y03563*
Y03563*
X02757*
Y03564*
Y03564*
X02757*
Y03564*
Y03564*
X02757*
Y03565*
Y03565*
X02757*
Y03565*
Y03565*
X02757*
Y03565*
X02756*
Y03566*
Y03566*
X02756*
Y03566*
Y03566*
X02756*
Y03566*
Y03567*
X02756*
Y03567*
Y03567*
X02755*
Y03567*
Y03568*
X02755*
Y03568*
Y03568*
X02755*
Y03568*
X02755*
Y03568*
Y03569*
Y03569*
X02755*
Y03569*
X02754*
Y03569*
Y0357*
X02754*
Y0357*
Y0357*
X02754*
Y0357*
Y0357*
X02754*
Y03571*
Y03571*
X02753*
Y03571*
Y03571*
X02753*
Y03572*
Y03572*
X02753*
Y03572*
Y03572*
X02753*
Y03572*
Y03573*
X02753*
Y03573*
Y03573*
X02752*
Y03573*
Y03574*
X02752*
Y03574*
X02752*
Y03574*
Y03573*
X02752*
Y03573*
Y03573*
Y03573*
Y03572*
X02752*
Y03572*
Y03572*
Y03572*
X02751*
Y03572*
Y03571*
Y03571*
Y03571*
X02751*
Y03571*
Y0357*
Y0357*
X02751*
Y0357*
Y0357*
Y0357*
Y03569*
X02751*
Y03569*
Y03569*
Y03569*
X0275*
Y03568*
Y03568*
Y03568*
Y03568*
X0275*
Y03568*
Y03567*
Y03567*
X0275*
Y03567*
Y03567*
Y03566*
X0275*
Y03566*
X0275*
Y03566*
X0275*
Y03566*
Y03566*
X0275*
Y03565*
Y03565*
Y03565*
X02749*
Y03565*
Y03565*
Y03564*
Y03564*
X02749*
Y03564*
Y03564*
Y03563*
X02749*
Y03563*
Y03563*
Y03563*
X02749*
Y03563*
Y03562*
Y03562*
Y03562*
X02748*
Y03562*
Y03561*
Y03561*
X02748*
Y03561*
Y03561*
Y03561*
X02748*
Y0356*
Y0356*
Y0356*
X02748*
Y0356*
Y03559*
Y03559*
Y03559*
X02748*
Y03559*
X02747*
Y03559*
X02748*
Y03558*
X02747*
Y03558*
Y03558*
Y03558*
X02747*
Y03558*
X02747*
Y03558*
X02747*
Y03557*
Y03557*
Y03557*
X02747*
Y03557*
Y03557*
Y03556*
X02747*
Y03556*
Y03556*
Y03556*
Y03556*
X02746*
Y03555*
Y03555*
Y03555*
X02746*
Y03555*
Y03554*
Y03554*
X02746*
Y03554*
Y03554*
Y03554*
X02746*
Y03553*
Y03553*
Y03553*
X02746*
Y03553*
Y03552*
Y03552*
X02745*
Y03552*
Y03552*
Y03552*
X02745*
Y03551*
Y03551*
Y03551*
X02745*
Y03551*
Y0355*
Y0355*
X02745*
Y0355*
Y0355*
Y0355*
X02744*
Y03549*
Y03549*
Y03549*
X02744*
Y03549*
Y03548*
Y03548*
X02744*
Y03548*
Y03548*
Y03548*
X02744*
Y03547*
Y03547*
Y03547*
X02744*
Y03547*
Y03547*
Y03546*
X02743*
Y03546*
Y03546*
Y03546*
X02743*
Y03545*
Y03545*
Y03545*
X02743*
Y03545*
Y03545*
Y03544*
X02743*
Y03544*
Y03544*
Y03544*
X02742*
Y03543*
Y03543*
Y03543*
X02742*
Y03543*
Y03543*
Y03542*
X02742*
Y03542*
Y03542*
Y03542*
X02742*
Y03541*
Y03541*
Y03541*
X02742*
Y03541*
Y03541*
Y0354*
X02741*
Y0354*
Y0354*
X02741*
Y0354*
Y03539*
Y03539*
X02741*
Y03539*
Y03539*
Y03539*
X02741*
Y03538*
Y03538*
Y03538*
X02741*
Y03538*
X0274*
Y03538*
X02741*
Y03537*
X0274*
Y03537*
Y03537*
Y03537*
X0274*
Y03536*
Y03536*
X0274*
Y03536*
Y03536*
Y03536*
X0274*
Y03535*
Y03535*
Y03535*
X02739*
Y03535*
Y03534*
Y03534*
X02739*
Y03534*
Y03534*
X02739*
Y03534*
Y03533*
Y03533*
X02739*
Y03533*
Y03533*
Y03532*
X02739*
Y03532*
Y03532*
X02738*
Y03532*
Y03532*
Y03531*
X02739*
Y03531*
X02739*
Y03531*
X02739*
Y03531*
X02739*
Y0353*
X02739*
Y0353*
X02739*
Y0353*
X0274*
Y0353*
Y0353*
X0274*
Y03529*
Y03529*
X0274*
Y03529*
Y03529*
Y03528*
X0274*
Y03528*
Y03528*
Y03528*
Y03528*
Y03527*
X02741*
Y03527*
Y03527*
Y03527*
Y03527*
Y03526*
Y03526*
Y03526*
Y03526*
Y03525*
Y03525*
X0274*
Y03525*
X0274*
Y03525*
X0274*
Y03525*
Y03524*
Y03524*
X0274*
Y03524*
Y03524*
Y03523*
X0274*
Y03523*
Y03523*
X0274*
Y03523*
Y03523*
Y03522*
X02739*
Y03522*
Y03522*
X02739*
Y03522*
Y03521*
Y03521*
X02739*
Y03521*
X02739*
Y03521*
Y03521*
X02738*
Y0352*
X02738*
Y0352*
Y0352*
X02738*
Y0352*
X02738*
Y03519*
X02737*
Y03519*
X02737*
Y03519*
X02737*
Y03519*
X02737*
Y03519*
X02736*
Y03518*
Y03518*
Y03518*
Y03518*
X02736*
Y03518*
X02735*
Y03518*
X02736*
Y03518*
Y03517*
Y03517*
Y03517*
Y03517*
Y03516*
Y03516*
Y03516*
Y03516*
Y03516*
X02735*
Y03515*
Y03515*
X02735*
Y03515*
X02735*
Y03515*
Y03514*
X02735*
Y03514*
Y03514*
Y03514*
Y03514*
Y03513*
Y03513*
X02735*
Y03513*
Y03513*
Y03512*
X02736*
Y03512*
Y03512*
X02736*
Y03512*
Y03512*
X02736*
Y03511*
Y03511*
X02736*
Y03511*
X02737*
Y03511*
X02737*
Y0351*
X02737*
Y0351*
X02737*
Y0351*
X02737*
Y0351*
X02738*
Y0351*
Y03509*
Y03509*
Y03509*
Y03509*
Y03509*
Y03508*
Y03508*
X02737*
Y03508*
Y03508*
X02737*
Y03507*
X02737*
Y03507*
X02737*
Y03507*
X02736*
Y03507*
Y03507*
X02736*
Y03507*
X02735*
Y03507*
X02735*
Y03508*
X02734*
Y03508*
X02734*
Y03508*
X02734*
Y03508*
X02734*
Y03509*
X02733*
Y03509*
Y03509*
X02733*
Y03509*
X02733*
Y03509*
X02733*
Y0351*
Y0351*
X02733*
Y0351*
Y0351*
X02732*
Y0351*
Y03511*
Y03511*
Y03511*
X02732*
Y03511*
Y03512*
X02732*
Y03512*
Y03512*
Y03512*
X02732*
Y03512*
Y03513*
Y03513*
Y03513*
Y03513*
X02732*
Y03514*
Y03514*
Y03514*
Y03514*
Y03514*
Y03515*
Y03515*
Y03515*
Y03515*
Y03516*
Y03516*
Y03516*
Y03516*
Y03516*
Y03517*
Y03517*
X02732*
Y03517*
X02729*
Y03517*
X02728*
Y03518*
X02727*
Y03518*
X02727*
Y03518*
X02726*
Y03517*
X02726*
Y03517*
X02725*
Y03517*
X02724*
Y03517*
X02721*
Y03517*
X02719*
Y03517*
X02714*
Y03517*
X02713*
Y03518*
X02712*
Y03518*
X02712*
Y03518*
X02712*
Y03518*
X02712*
Y03518*
Y03519*
X02711*
Y03519*
Y03519*
Y03519*
Y03519*
Y0352*
X02712*
Y0352*
Y0352*
X02712*
Y0352*
Y03521*
X02712*
Y03521*
X02713*
Y03521*
X02713*
Y03521*
X02718*
Y03521*
X0272*
Y0352*
X02721*
Y0352*
X02723*
Y0352*
X02724*
Y03521*
X02725*
Y03521*
X02725*
Y03521*
X02725*
Y03521*
X02726*
Y03521*
X02726*
Y03522*
Y03522*
X02726*
Y03522*
X02726*
Y03522*
Y03523*
Y03523*
X02726*
Y03523*
Y03523*
Y03523*
X02727*
Y03524*
Y03524*
Y03524*
X02727*
Y03524*
X02727*
Y03525*
X02727*
Y03525*
Y03525*
Y03525*
X02727*
Y03525*
Y03526*
Y03526*
Y03526*
Y03526*
X02727*
Y03527*
Y03527*
Y03527*
Y03527*
X02728*
Y03527*
Y03528*
Y03528*
X02728*
Y03528*
Y03528*
Y03528*
X02728*
Y03529*
Y03529*
X02728*
Y03529*
Y03529*
X02728*
Y0353*
Y0353*
X02729*
Y0353*
Y0353*
X02729*
Y0353*
Y03531*
X02729*
Y03531*
X0273*
Y03531*
X0273*
Y03531*
Y03532*
X0273*
Y03532*
X0273*
Y03532*
X02731*
Y03532*
Y03532*
X02731*
Y03533*
X02732*
Y03533*
X02732*
Y03533*
X02733*
Y03533*
X02735*
Y03533*
X02735*
Y03533*
X02735*
Y03534*
Y03534*
Y03534*
X02735*
Y03534*
Y03534*
Y03535*
X02736*
Y03535*
Y03535*
Y03535*
X02736*
Y03536*
Y03536*
X02736*
Y03536*
Y03536*
Y03536*
X02736*
Y03537*
Y03537*
Y03537*
X02737*
Y03537*
Y03538*
Y03538*
X02737*
Y03538*
Y03538*
Y03538*
X02737*
Y03539*
Y03539*
X02737*
Y03539*
Y03539*
Y03539*
X02737*
Y0354*
Y0354*
Y0354*
X02738*
Y0354*
Y03541*
Y03541*
X02738*
Y03541*
Y03541*
Y03541*
X02738*
Y03542*
Y03542*
X02738*
Y03542*
X02739*
Y03542*
X02738*
Y03543*
X02739*
Y03543*
Y03543*
Y03543*
X02739*
Y03543*
Y03544*
Y03544*
X02739*
Y03544*
Y03544*
Y03545*
X02739*
Y03545*
Y03545*
Y03545*
X02739*
Y03545*
Y03546*
X0274*
Y03546*
Y03546*
Y03546*
Y03547*
X0274*
Y03547*
Y03547*
Y03547*
X0274*
Y03547*
Y03548*
Y03548*
X0274*
Y03548*
Y03548*
Y03548*
X02741*
Y03549*
Y03549*
X02741*
Y03549*
Y03549*
Y0355*
Y0355*
X02741*
Y0355*
X02741*
Y0355*
Y0355*
X02741*
Y03551*
Y03551*
Y03551*
X02741*
Y03551*
Y03552*
Y03552*
X02742*
Y03552*
Y03552*
Y03552*
X02742*
Y03553*
Y03553*
Y03553*
X02742*
Y03553*
Y03554*
Y03554*
X02742*
Y03554*
X02742*
Y03554*
Y03554*
X02742*
Y03555*
Y03555*
Y03555*
X02743*
Y03555*
Y03556*
Y03556*
X02743*
Y03556*
Y03556*
Y03556*
X02743*
Y03557*
Y03557*
Y03557*
Y03557*
X02743*
Y03557*
Y03558*
Y03558*
X02744*
Y03558*
Y03558*
Y03559*
X02744*
Y03559*
Y03559*
Y03559*
X02744*
Y03559*
Y0356*
Y0356*
X02744*
Y0356*
Y0356*
Y03561*
Y03561*
X02745*
Y03561*
X02744*
Y03561*
Y03561*
X02745*
Y03562*
Y03562*
Y03562*
X02745*
Y03562*
Y03563*
Y03563*
X02745*
Y03563*
Y03563*
Y03563*
Y03564*
X02745*
Y03564*
Y03564*
Y03564*
X02746*
Y03565*
Y03565*
Y03565*
X02746*
Y03565*
Y03565*
Y03566*
Y03566*
X02746*
Y03566*
Y03566*
Y03566*
X02746*
Y03567*
X02746*
Y03567*
Y03567*
X02746*
Y03567*
Y03568*
Y03568*
Y03568*
X02747*
Y03568*
Y03568*
Y03569*
X02747*
Y03569*
Y03569*
Y03569*
Y0357*
X02747*
Y0357*
Y0357*
Y0357*
X02747*
Y0357*
X02748*
Y03571*
X02747*
Y03571*
Y03571*
X02748*
Y03571*
Y03572*
Y03572*
X02748*
Y03572*
Y03572*
Y03572*
Y03573*
X02748*
Y03573*
Y03573*
Y03573*
X02748*
Y03574*
Y03574*
Y03574*
X02748*
Y03574*
Y03574*
Y03575*
Y03575*
X02749*
Y03575*
Y03575*
Y03576*
Y03576*
X02749*
Y03576*
Y03576*
Y03576*
Y03577*
X02749*
Y03577*
Y03577*
Y03577*
X02749*
Y03577*
Y03578*
Y03578*
Y03578*
X0275*
Y03578*
Y03579*
Y03579*
X0275*
Y03579*
Y03579*
Y03579*
Y0358*
X0275*
Y0358*
Y0358*
X0275*
Y0358*
X0275*
Y03581*
X02751*
Y03581*
X02752*
Y03581*
X02753*
Y0358*
X02753*
Y0358*
X02753*
Y0358*
X02753*
Y0358*
Y03579*
X02753*
Y03579*
Y03579*
X02754*
Y03579*
Y03579*
X02754*
Y03578*
Y03578*
X02754*
Y03578*
Y03578*
X02754*
Y03577*
Y03577*
X02755*
Y03577*
Y03577*
Y03577*
X02755*
Y03576*
X02755*
Y03576*
Y03576*
X02755*
Y03576*
Y03576*
X02755*
Y03575*
Y03575*
Y03575*
X02756*
Y03575*
X02756*
Y03574*
Y03574*
X02756*
Y03574*
Y03574*
X02756*
Y03574*
Y03573*
X02757*
Y03573*
Y03573*
X02757*
Y03573*
Y03572*
X02757*
Y03572*
Y03572*
X02757*
Y03572*
Y03572*
X02757*
Y03571*
Y03571*
X02758*
Y03571*
Y03571*
X02758*
Y0357*
Y0357*
X02758*
Y0357*
Y0357*
X02758*
Y0357*
X02759*
Y03569*
Y03569*
X02759*
Y03569*
Y03569*
X02759*
Y03568*
Y03568*
X02759*
Y03568*
Y03568*
X02759*
Y03568*
Y03567*
X0276*
Y03567*
Y03567*
X0276*
Y03567*
Y03566*
X0276*
Y03566*
X0276*
Y03566*
Y03566*
X02761*
Y03566*
Y03565*
X02761*
Y03565*
Y03565*
X02761*
Y03565*
Y03565*
X02761*
Y03564*
Y03564*
X02761*
Y03564*
Y03564*
X02762*
Y03563*
X02762*
Y03563*
Y03563*
X02762*
Y03563*
Y03563*
Y03564*
Y03564*
Y03564*
Y03564*
Y03565*
Y03565*
X02762*
Y03565*
Y03565*
Y03565*
Y03566*
Y03566*
Y03566*
Y03566*
Y03566*
Y03567*
Y03567*
X02763*
Y03567*
Y03567*
Y03568*
Y03568*
Y03568*
Y03568*
Y03568*
Y03569*
Y03569*
Y03569*
X02763*
Y03569*
Y0357*
Y0357*
Y0357*
Y0357*
Y0357*
Y03571*
Y03571*
Y03571*
X02763*
Y03571*
Y03572*
Y03572*
Y03572*
Y03572*
Y03572*
Y03573*
Y03573*
Y03573*
Y03573*
X02763*
Y03574*
Y03574*
Y03574*
Y03574*
Y03574*
Y03575*
Y03575*
Y03575*
Y03575*
Y03576*
X02764*
Y03576*
Y03576*
Y03576*
Y03576*
Y03577*
Y03577*
Y03577*
Y03577*
Y03577*
X02764*
Y03578*
Y03578*
Y03578*
Y03578*
Y03579*
Y03579*
Y03579*
Y03579*
Y03579*
Y0358*
X02764*
Y0358*
Y0358*
Y0358*
Y03581*
Y03581*
Y03581*
Y03581*
Y03581*
Y03582*
Y03582*
X02764*
Y03582*
Y03582*
Y03583*
Y03583*
Y03583*
Y03583*
Y03583*
Y03584*
X02764*
Y03584*
Y03584*
X02765*
Y03584*
X02765*
Y03585*
X02765*
Y03585*
X02767*
Y03585*
X02767*
Y03584*
X02768*
Y03584*
X02768*
Y03584*
Y03584*
X02768*
Y03583*
Y03583*
Y03583*
X02768*
Y03583*
Y03583*
Y03582*
Y03582*
Y03582*
Y03582*
Y03581*
Y03581*
Y03581*
Y03581*
Y03581*
X02768*
Y0358*
Y0358*
Y0358*
Y0358*
Y03579*
Y03579*
Y03579*
Y03579*
Y03579*
Y03578*
Y03578*
X02767*
Y03578*
Y03578*
Y03577*
Y03577*
Y03577*
Y03577*
Y03577*
Y03576*
Y03576*
Y03576*
X02767*
Y03576*
Y03576*
Y03575*
Y03575*
Y03575*
Y03575*
Y03574*
Y03574*
Y03574*
Y03574*
X02767*
Y03574*
Y03573*
Y03573*
Y03573*
Y03573*
Y03572*
Y03572*
Y03572*
Y03572*
Y03572*
X02767*
Y03571*
Y03571*
Y03571*
Y03571*
Y0357*
X02766*
Y0357*
X02767*
Y0357*
Y0357*
Y0357*
Y03569*
Y03569*
X02766*
Y03569*
Y03569*
Y03568*
Y03568*
Y03568*
Y03568*
Y03568*
Y03567*
Y03567*
X02766*
Y03567*
Y03567*
Y03566*
Y03566*
Y03566*
Y03566*
Y03566*
Y03565*
Y03565*
Y03565*
Y03565*
X02766*
Y03565*
Y03564*
Y03564*
Y03564*
Y03564*
Y03563*
Y03563*
Y03563*
Y03563*
Y03563*
X02766*
Y03562*
Y03562*
Y03562*
Y03562*
Y03561*
Y03561*
Y03561*
Y03561*
Y03561*
Y0356*
Y0356*
X02766*
Y0356*
Y0356*
Y03559*
Y03559*
Y03559*
Y03559*
Y03559*
Y03558*
Y03558*
Y03558*
Y03558*
X02765*
Y03557*
Y03557*
Y03557*
Y03557*
Y03557*
Y03556*
Y03556*
Y03556*
Y03556*
Y03556*
X02765*
Y03555*
X02765*
Y03555*
X02765*
Y03555*
Y03555*
Y03554*
Y03554*
Y03554*
Y03554*
Y03554*
Y03553*
Y03553*
X02765*
Y03553*
Y03553*
Y03552*
Y03552*
Y03552*
Y03552*
Y03552*
Y03551*
Y03551*
Y03551*
Y03551*
Y0355*
X02765*
Y0355*
Y0355*
Y0355*
Y0355*
Y03549*
Y03549*
Y03549*
Y03549*
Y03548*
Y03548*
Y03548*
Y03548*
X02764*
Y03548*
Y03547*
Y03547*
Y03547*
Y03547*
Y03547*
Y03546*
Y03546*
Y03546*
Y03546*
Y03545*
Y03545*
Y03545*
X02764*
Y03545*
Y03545*
Y03544*
Y03544*
Y03544*
Y03544*
Y03543*
Y03543*
Y03543*
Y03543*
Y03543*
Y03542*
Y03542*
Y03542*
Y03542*
X02764*
Y03541*
Y03541*
Y03541*
Y03541*
Y03541*
Y0354*
Y0354*
Y0354*
Y0354*
Y03539*
Y03539*
Y03539*
Y03539*
Y03539*
X02764*
Y03538*
X02764*
Y03538*
Y03538*
X02764*
Y03538*
Y03538*
Y03537*
Y03537*
Y03537*
Y03537*
Y03536*
Y03536*
Y03536*
Y03536*
Y03536*
Y03535*
Y03535*
Y03535*
Y03535*
Y03534*
Y03534*
Y03534*
Y03534*
Y03534*
Y03533*
Y03533*
X02764*
Y03533*
Y03533*
Y03532*
Y03532*
Y03532*
Y03532*
Y03532*
Y03531*
Y03531*
Y03531*
Y03531*
Y0353*
Y0353*
Y0353*
Y0353*
Y0353*
Y03529*
Y03529*
Y03529*
Y03529*
Y03528*
Y03528*
Y03528*
Y03528*
Y03528*
Y03527*
Y03527*
Y03527*
Y03527*
Y03527*
Y03526*
Y03526*
Y03526*
Y03526*
Y03525*
Y03525*
Y03525*
Y03525*
Y03525*
Y03524*
Y03524*
Y03524*
Y03524*
Y03523*
Y03523*
Y03523*
Y03523*
Y03523*
Y03522*
Y03522*
Y03522*
Y03522*
Y03521*
Y03521*
Y03521*
Y03521*
Y03521*
Y0352*
Y0352*
Y0352*
Y0352*
Y03519*
Y03519*
Y03519*
Y03519*
Y03519*
Y03518*
Y03518*
Y03518*
Y03518*
Y03518*
Y03517*
Y03517*
Y03517*
Y03517*
Y03516*
Y03516*
Y03516*
Y03516*
X02764*
Y03516*
Y03515*
Y03515*
Y03515*
Y03515*
Y03514*
Y03514*
Y03514*
Y03514*
Y03514*
Y03513*
Y03513*
Y03513*
Y03513*
Y03512*
Y03512*
Y03512*
Y03512*
X02764*
Y03512*
Y03511*
Y03511*
Y03511*
Y03511*
Y0351*
Y0351*
Y0351*
Y0351*
Y0351*
Y03509*
Y03509*
Y03509*
X02764*
Y03509*
Y03509*
Y03508*
Y03508*
Y03508*
Y03508*
Y03507*
Y03507*
Y03507*
Y03507*
X02764*
Y03507*
X02764*
Y03506*
Y03506*
Y03506*
Y03506*
Y03505*
Y03505*
Y03505*
Y03505*
Y03505*
X02765*
Y03504*
Y03504*
Y03504*
Y03504*
Y03503*
Y03503*
Y03503*
Y03503*
Y03503*
X02765*
Y03502*
Y03502*
Y03502*
Y03502*
Y03501*
Y03501*
Y03501*
X02765*
Y03501*
Y03501*
Y035*
Y035*
Y035*
Y035*
Y035*
X02765*
Y03499*
Y03499*
Y03499*
Y03499*
Y03498*
Y03498*
X02766*
Y03498*
Y03498*
Y03498*
Y03497*
Y03497*
Y03497*
X02766*
Y03497*
X02766*
Y03497*
X02767*
Y03497*
X02767*
Y03497*
X02768*
Y03498*
X02769*
Y03498*
X02769*
Y03498*
Y03498*
Y03498*
Y03499*
Y03499*
Y03499*
Y03499*
Y035*
Y035*
Y035*
X02769*
Y035*
Y035*
Y03501*
Y03501*
Y03501*
Y03501*
Y03501*
X02769*
Y03502*
Y03502*
Y03502*
Y03502*
Y03503*
X0277*
Y03503*
Y03503*
Y03503*
Y03503*
X0277*
Y03504*
Y03504*
Y03504*
Y03504*
X0277*
Y03505*
Y03505*
Y03505*
X0277*
Y03505*
Y03505*
Y03506*
X0277*
Y03506*
Y03506*
Y03506*
X02771*
Y03507*
Y03507*
X02771*
Y03507*
Y03507*
Y03507*
X02771*
Y03508*
Y03508*
X02771*
Y03508*
Y03508*
X02771*
Y03509*
Y03509*
X02772*
Y03509*
Y03509*
X02772*
Y03509*
Y0351*
X02772*
Y0351*
Y0351*
X02772*
Y0351*
Y0351*
X02773*
Y03511*
X02773*
Y03511*
Y03511*
X02773*
Y03511*
Y03512*
X02773*
Y03512*
Y03512*
Y03512*
X02774*
Y03512*
X02774*
Y03513*
Y03513*
X02774*
Y03513*
X02774*
Y03513*
X02775*
Y03514*
Y03514*
X02775*
Y03514*
X02775*
Y03514*
X02775*
Y03514*
Y03515*
X02775*
Y03515*
X02776*
Y03515*
X02776*
Y03515*
X02776*
Y03516*
X02776*
Y03516*
X02777*
Y03516*
X02777*
Y03516*
X02777*
Y03516*
X02777*
Y03517*
Y03517*
X02778*
Y03517*
X02778*
Y03517*
X02778*
Y03518*
X02778*
Y03518*
X02779*
Y03518*
X02779*
Y03518*
X02779*
Y03518*
X02779*
Y03519*
X02779*
Y03519*
X0278*
Y03519*
X0278*
Y03519*
X0278*
Y03519*
X0278*
Y0352*
X02781*
Y0352*
X02781*
Y0352*
X02782*
Y0352*
X02782*
Y03521*
X02782*
Y03521*
X02782*
Y03521*
X02783*
Y03521*
X02783*
Y03521*
X02784*
Y03521*
X02784*
Y03521*
X02784*
Y03522*
X02784*
Y03522*
X02784*
Y03522*
X02785*
Y03522*
X02785*
Y03523*
X02786*
Y03523*
X02786*
Y03523*
X02786*
Y03523*
X02787*
Y03523*
X02787*
Y03524*
X02788*
Y03524*
X02788*
Y03524*
X02789*
Y03524*
X02789*
Y03524*
X02789*
Y03524*
X02789*
Y03525*
X0279*
Y03525*
X02791*
Y03525*
X02791*
Y03525*
X02792*
Y03525*
X02793*
Y03526*
X02794*
Y03526*
X02795*
Y03526*
X02796*
Y03526*
X02797*
Y03527*
X02799*
Y03527*
X02802*
Y03527*
X02804*
Y03527*
X02807*
Y03527*
X02809*
Y03526*
X0281*
Y03526*
X02811*
Y03526*
X02813*
Y03526*
X02813*
Y03525*
X02814*
Y03525*
X02815*
Y03525*
X02816*
Y03525*
X02817*
Y03525*
X02817*
Y03524*
X02818*
Y03524*
X02819*
Y03524*
X02819*
Y03524*
X0282*
Y03523*
X0282*
Y03523*
X02821*
Y03523*
X02821*
Y03523*
X02822*
Y03523*
X02822*
Y03522*
X02823*
Y03522*
X02823*
Y03522*
X02824*
Y03522*
X02824*
Y03521*
X02825*
Y03521*
X02825*
Y03521*
X02826*
Y03521*
X02826*
Y03521*
X02826*
Y0352*
X02827*
Y0352*
X02827*
Y0352*
X02828*
Y0352*
X02828*
Y03519*
X02828*
Y03519*
X02829*
Y03519*
X02829*
Y03519*
X0283*
Y03519*
X0283*
Y03518*
X0283*
Y03518*
X02831*
Y03518*
X02831*
Y03518*
X02831*
Y03518*
X02832*
Y03517*
X02832*
Y03517*
X02832*
Y03517*
X02833*
Y03517*
X02833*
Y03516*
X02833*
Y03516*
X02834*
Y03516*
X02834*
Y03516*
X02834*
Y03516*
X02835*
Y03515*
X02835*
Y03515*
X02835*
Y03515*
X02835*
Y03515*
X02836*
Y03514*
X02836*
Y03514*
X02836*
Y03514*
X02837*
Y03514*
X02837*
Y03514*
X02837*
Y03513*
X02838*
Y03513*
X02838*
Y03513*
X02838*
Y03513*
X02838*
Y03512*
X02839*
Y03512*
X02839*
Y03512*
X02839*
Y03512*
X02839*
Y03512*
X0284*
Y03511*
X0284*
Y03511*
X0284*
Y03511*
X0284*
Y03511*
X02841*
Y0351*
X02841*
Y0351*
X02841*
Y0351*
X02841*
Y0351*
X02842*
Y0351*
X02842*
Y03509*
X02842*
Y03509*
X02842*
Y03509*
X02842*
Y03509*
Y03509*
X02843*
Y03508*
X02843*
Y03508*
Y03508*
X02843*
Y03508*
Y03507*
X02843*
Y03507*
Y03507*
Y03507*
X02844*
Y03507*
Y03506*
Y03506*
Y03506*
Y03506*
Y03505*
Y03505*
Y03505*
Y03505*
Y03505*
Y03504*
Y03504*
X02843*
Y03504*
Y03504*
X02843*
Y03503*
Y03503*
X02843*
Y03503*
Y03503*
X02842*
Y03503*
Y03502*
X02842*
Y03502*
X02842*
Y03502*
X02842*
Y03502*
X02841*
Y03501*
X02841*
Y03501*
X0284*
Y03501*
X02835*
Y03501*
X02833*
Y03501*
X02831*
Y03502*
X02829*
Y03502*
X02826*
Y03502*
X02826*
Y03502*
X02825*
Y03502*
X02812*
Y03502*
X02809*
Y03502*
X02809*
Y03502*
X02808*
Y03502*
X02805*
Y03501*
X02803*
Y03501*
X02801*
Y03501*
X02801*
Y03501*
X028*
Y03501*
X02799*
Y03501*
X02798*
Y03501*
X02796*
Y035*
X02795*
Y035*
X02793*
Y035*
X02792*
Y035*
X02791*
Y035*
X0279*
Y03499*
X02788*
Y03499*
X02787*
Y03499*
X02786*
Y03499*
X02785*
Y03498*
X02784*
Y03498*
X02783*
Y03498*
X02782*
Y03498*
X02782*
Y03498*
X02781*
Y03497*
X0278*
Y03497*
X02779*
Y03497*
X02778*
Y03497*
X02777*
Y03496*
X02777*
Y03496*
X02776*
Y03496*
X02775*
Y03496*
X02774*
Y03496*
X02774*
Y03495*
X02773*
Y03495*
X02772*
Y03495*
X02772*
Y03495*
X02771*
Y03495*
Y03495*
X02771*
Y03494*
X0277*
Y03494*
X0277*
Y03494*
X0277*
Y03494*
Y03494*
X02769*
Y03494*
X02768*
Y03494*
X02768*
Y03493*
X02767*
Y03493*
X02766*
Y03493*
X02766*
Y03493*
X02765*
Y03492*
X02765*
Y03492*
X02764*
Y03492*
X02764*
Y03492*
X02763*
Y03492*
X02762*
Y03491*
X02762*
Y03491*
X02761*
Y03491*
X02761*
Y03491*
X0276*
Y0349*
X0276*
Y0349*
X02759*
Y0349*
X02759*
Y0349*
X02758*
Y0349*
X02758*
Y03489*
X02757*
Y03489*
X02757*
Y03489*
X02756*
Y03489*
X02756*
Y03489*
X02755*
Y03488*
X02755*
Y03488*
X02754*
Y03488*
X02754*
Y03488*
X02753*
Y03487*
X02753*
Y03487*
X02752*
Y03487*
X02752*
Y03487*
X02751*
Y03487*
X02751*
Y03486*
X0275*
Y03486*
X0275*
Y03486*
X0275*
Y03486*
X02749*
Y03485*
X02749*
Y03485*
X02748*
Y03485*
X02748*
Y03485*
X02748*
Y03485*
X02748*
Y03484*
Y03484*
X02747*
Y03484*
X02748*
Y03484*
Y03483*
X02748*
Y03483*
X02748*
Y03483*
X02748*
Y03483*
X02748*
Y03483*
X02749*
Y03482*
X02749*
Y03482*
X0275*
Y03482*
X0275*
Y03482*
X0275*
Y03481*
X02751*
Y03481*
X02751*
Y03481*
X02752*
Y03481*
X02752*
Y03481*
X02752*
Y0348*
X02753*
Y0348*
Y0348*
X02753*
Y0348*
X02753*
Y0348*
X02754*
Y0348*
X02754*
Y0348*
X02755*
Y03479*
X02755*
Y03479*
X02756*
Y03479*
X02756*
Y03479*
X02757*
Y03478*
X02758*
Y03478*
X02758*
Y03478*
X02759*
Y03478*
X02759*
Y03478*
X0276*
Y03477*
X02761*
Y03477*
X02761*
Y03477*
X02762*
Y03477*
X02763*
Y03476*
X02764*
Y03476*
X02764*
Y03476*
X02765*
Y03476*
X02766*
Y03476*
X02766*
Y03475*
X02767*
Y03475*
X02767*
Y03475*
X02767*
Y03475*
X02768*
Y03475*
X02769*
Y03475*
X0277*
Y03474*
X02771*
Y03474*
X02772*
Y03474*
X02773*
Y03474*
X02775*
Y03474*
X02776*
Y03473*
X02777*
Y03473*
X02779*
Y03473*
X0278*
Y03473*
X0278*
Y03473*
X02781*
Y03473*
X02784*
Y03472*
X02788*
Y03472*
X02792*
Y03472*
X02797*
Y03473*
X028*
Y03473*
X02802*
Y03473*
X02804*
Y03473*
X02805*
Y03474*
X02807*
Y03474*
X02808*
Y03474*
X02809*
Y03474*
X0281*
Y03474*
X02811*
Y03474*
X02811*
Y03474*
X02811*
Y03475*
X02812*
Y03475*
X02813*
Y03475*
X02814*
Y03475*
X02815*
Y03476*
X02815*
Y03476*
X02816*
Y03476*
X02817*
Y03476*
X02818*
Y03476*
X02818*
Y03477*
X02819*
Y03477*
X0282*
Y03477*
X0282*
Y03477*
X02821*
Y03478*
X02822*
Y03478*
X02822*
Y03478*
X02823*
Y03478*
X02824*
Y03478*
X02824*
Y03479*
X02825*
Y03479*
X02826*
Y03479*
X02826*
Y03479*
X02827*
Y0348*
X02827*
Y0348*
X02828*
Y0348*
X02828*
Y0348*
X02829*
Y0348*
X02829*
Y03481*
X0283*
Y03481*
X0283*
Y03481*
X02831*
Y03481*
X02831*
Y03481*
X02832*
Y03482*
X02832*
Y03482*
X02833*
Y03482*
X02833*
Y03482*
X02833*
Y03483*
X02834*
Y03483*
X02834*
Y03483*
X02835*
Y03483*
X02835*
Y03483*
X02836*
Y03484*
X02836*
Y03484*
X02837*
Y03484*
X02837*
Y03484*
X02837*
Y03485*
X02838*
Y03485*
X02838*
Y03485*
X02838*
Y03485*
X02839*
Y03485*
X02839*
Y03486*
X0284*
Y03486*
X0284*
Y03486*
X0284*
Y03486*
X0284*
Y03486*
Y03486*
X02841*
Y03487*
X02841*
Y03487*
X02842*
Y03487*
X02842*
Y03487*
X02842*
Y03487*
X02843*
Y03488*
X02843*
Y03488*
X02843*
Y03488*
X02844*
Y03488*
X02844*
Y03489*
X02844*
Y03489*
X02845*
Y03489*
X02845*
Y03489*
X02845*
Y03489*
X02845*
Y03489*
X02845*
Y03489*
X02846*
Y0349*
X02846*
Y0349*
X02846*
Y0349*
X02847*
Y0349*
X02847*
Y0349*
X02847*
Y03491*
X02848*
Y03491*
X02848*
Y03491*
X02848*
Y03491*
X02849*
Y03492*
X02849*
Y03492*
X02849*
Y03492*
X02849*
Y03492*
X0285*
Y03492*
X0285*
Y03493*
X0285*
Y03493*
X02851*
Y03493*
X02851*
Y03493*
X02851*
Y03494*
X02852*
Y03494*
X02852*
Y03494*
X02852*
Y03494*
X02852*
Y03494*
X02853*
Y03495*
X02853*
Y03495*
X02853*
Y03495*
X02854*
Y03495*
X02854*
Y03496*
X02854*
Y03496*
X02855*
Y03496*
X02855*
Y03496*
X02855*
Y03496*
X02855*
Y03496*
X02855*
Y03496*
X02855*
Y03496*
X02855*
Y03496*
X02855*
Y03497*
X02855*
Y03497*
X02856*
Y03497*
X02856*
Y03497*
X02856*
Y03498*
X02856*
Y03498*
X02857*
Y03498*
X02857*
Y03498*
X02857*
Y03498*
X02858*
Y03499*
X02858*
Y03499*
X02858*
Y03499*
X02858*
Y03499*
X02859*
Y035*
X02859*
Y035*
X02859*
Y035*
X02859*
Y035*
X0286*
Y035*
X0286*
Y03501*
X0286*
Y03501*
X0286*
Y03501*
X0286*
Y03501*
X02861*
Y03501*
X02861*
Y03502*
Y03502*
X02862*
Y03502*
X02862*
Y03502*
X02862*
Y03503*
X02862*
Y03503*
X02862*
Y03503*
X02863*
Y03503*
X02863*
Y03503*
X02863*
Y03504*
X02863*
Y03504*
X02864*
Y03504*
X02864*
Y03504*
X02864*
Y03505*
X02864*
Y03505*
X02864*
Y03505*
X02865*
Y03505*
X02865*
Y03505*
X02865*
Y03506*
X02865*
Y03506*
X02865*
Y03506*
X02866*
Y03506*
X02866*
Y03507*
X02866*
Y03507*
X02866*
Y03507*
X02867*
Y03507*
X02867*
Y03507*
Y03508*
X02867*
Y03508*
X02867*
Y03508*
X02868*
Y03508*
Y03509*
X02868*
Y03509*
X02868*
Y03509*
X02868*
Y03509*
X02869*
Y03509*
X02869*
Y0351*
X02869*
Y0351*
Y0351*
X02869*
Y0351*
X02869*
Y0351*
X0287*
Y03511*
X0287*
Y03511*
X0287*
Y03511*
X0287*
Y03511*
Y03512*
X02871*
Y03512*
X02871*
Y03512*
X02871*
Y03512*
X02871*
Y03512*
X02871*
Y03513*
Y03513*
X02872*
Y03513*
X02872*
Y03513*
X02872*
Y03514*
X02872*
Y03514*
X02873*
Y03514*
Y03514*
X02873*
Y03514*
X02873*
Y03515*
Y03515*
X02873*
Y03515*
X02874*
Y03515*
Y03516*
X02874*
Y03516*
X02874*
Y03516*
Y03516*
X02874*
Y03516*
X02875*
Y03517*
X02875*
Y03517*
Y03517*
X02875*
Y03517*
X02875*
Y03518*
X02875*
Y03518*
Y03518*
X02876*
Y03518*
X02876*
Y03518*
X02876*
Y03519*
Y03519*
X02876*
Y03519*
X02876*
Y03519*
X02877*
Y03519*
Y0352*
X02877*
Y0352*
X02877*
Y0352*
Y0352*
X02877*
Y03521*
X02878*
Y03521*
X02878*
Y03521*
Y03521*
X02878*
Y03521*
X02878*
Y03522*
Y03522*
X02878*
Y03522*
X02879*
Y03522*
Y03523*
X02879*
Y03523*
X02879*
Y03523*
Y03523*
X02879*
Y03523*
X0288*
Y03524*
Y03524*
X0288*
Y03524*
X0288*
Y03524*
Y03525*
X0288*
Y03525*
X0288*
Y03525*
Y03525*
X02881*
Y03525*
Y03526*
X02881*
Y03526*
X02881*
Y03526*
Y03526*
X02881*
Y03527*
X02882*
Y03527*
Y03527*
X02882*
Y03527*
Y03527*
X02882*
Y03528*
X02882*
Y03528*
Y03528*
X02882*
Y03528*
Y03528*
X02883*
Y03529*
X02883*
Y03529*
Y03529*
X02883*
Y03529*
Y0353*
X02883*
Y0353*
X02884*
Y0353*
Y0353*
X02884*
Y0353*
Y03531*
X02884*
Y03531*
Y03531*
X02884*
Y03531*
X02884*
Y03532*
Y03532*
X02885*
Y03532*
Y03532*
X02885*
Y03532*
Y03533*
X02885*
Y03533*
Y03533*
X02885*
Y03533*
X02885*
Y03534*
Y03534*
X02886*
Y03534*
Y03534*
X02886*
Y03534*
Y03535*
X02886*
Y03535*
Y03535*
X02886*
Y03535*
Y03536*
X02887*
Y03536*
Y03536*
X02887*
Y03536*
Y03536*
X02887*
Y03537*
Y03537*
Y03537*
Y03537*
X02887*
Y03538*
Y03538*
X02888*
Y03538*
Y03538*
X02888*
Y03538*
Y03539*
X02888*
Y03539*
Y03539*
X02888*
Y03539*
Y03539*
X02889*
Y0354*
Y0354*
X02889*
Y0354*
Y0354*
X02889*
Y03541*
Y03541*
X02889*
Y03541*
Y03541*
Y03541*
X02889*
Y03542*
Y03542*
X0289*
Y03542*
Y03542*
X0289*
Y03543*
Y03543*
X0289*
Y03543*
Y03543*
X0289*
Y03543*
Y03544*
Y03544*
X02891*
Y03544*
Y03544*
X02891*
Y03545*
Y03545*
X02891*
Y03545*
Y03545*
Y03545*
X02891*
Y03546*
Y03546*
X02891*
Y03546*
Y03546*
X02892*
Y03547*
Y03547*
Y03547*
X02892*
Y03547*
Y03547*
X02892*
Y03548*
Y03548*
Y03548*
X02892*
Y03548*
Y03548*
X02893*
Y03549*
Y03549*
Y03549*
X02893*
Y03549*
Y0355*
X02893*
Y0355*
X02893*
Y0355*
Y0355*
X02893*
Y0355*
Y03551*
Y03551*
Y03551*
X02893*
Y03551*
X02892*
Y03552*
X02891*
Y03552*
X02891*
Y03552*
X02891*
Y03552*
X0289*
Y03552*
X0289*
Y03553*
X02889*
Y03553*
X02889*
Y03553*
X02888*
Y03553*
X02888*
Y03554*
X02887*
Y03554*
X02887*
Y03554*
X02887*
Y03554*
X02886*
Y03554*
X02886*
Y03555*
X02886*
Y03555*
X02885*
Y03555*
X02885*
Y03555*
X02885*
Y03556*
X02884*
Y03556*
X02884*
Y03556*
X02884*
Y03556*
X02884*
Y03556*
X02883*
Y03557*
X02883*
Y03557*
X02883*
Y03557*
X02882*
Y03557*
X02882*
Y03557*
X02882*
Y03558*
X02882*
Y03558*
X02881*
Y03558*
X02881*
Y03558*
X02881*
Y03559*
X02881*
Y03559*
X0288*
Y03559*
X0288*
Y03559*
X0288*
Y03559*
X0288*
Y0356*
X02879*
Y0356*
X02879*
Y0356*
Y0356*
X02879*
Y03561*
Y03561*
X02878*
Y03561*
X02878*
Y03561*
X02878*
Y03561*
X02878*
Y03562*
X02878*
Y03562*
X02877*
Y03562*
X02877*
Y03562*
Y03563*
X02877*
Y03563*
X02877*
Y03563*
X02876*
Y03563*
X02876*
Y03563*
Y03564*
X02876*
Y03564*
X02876*
Y03564*
X02876*
Y03564*
Y03565*
X02875*
Y03565*
X02875*
Y03565*
Y03565*
X02875*
Y03565*
X02875*
Y03566*
X02875*
Y03566*
Y03566*
X02874*
Y03566*
Y03566*
X02874*
Y03567*
X02874*
Y03567*
Y03567*
X02874*
Y03567*
X02873*
Y03568*
Y03568*
X02873*
Y03568*
Y03568*
X02873*
Y03568*
Y03569*
X02873*
Y03569*
Y03569*
X02873*
Y03569*
Y0357*
X02872*
Y0357*
Y0357*
X02872*
Y0357*
Y0357*
X02872*
Y03571*
Y03571*
X02872*
Y03571*
Y03571*
X02871*
Y03572*
Y03572*
Y03572*
X02871*
Y03572*
Y03572*
X02871*
Y03573*
Y03573*
Y03573*
X02871*
Y03573*
Y03574*
Y03574*
X02871*
Y03574*
Y03574*
X0287*
Y03574*
Y03575*
Y03575*
X0287*
Y03575*
Y03575*
Y03576*
Y03576*
X0287*
Y03576*
Y03576*
Y03576*
X0287*
Y03577*
Y03577*
Y03577*
X02869*
Y03577*
Y03577*
X02869*
Y03578*
Y03578*
X02869*
Y03578*
Y03578*
X02869*
Y03579*
Y03579*
X02869*
Y03579*
X02868*
Y03579*
X02868*
Y03579*
X02866*
Y03579*
X02866*
Y03579*
X02866*
Y03579*
X02865*
Y03579*
Y03578*
X02865*
Y03578*
X02865*
Y03578*
X02865*
Y03578*
Y03577*
X02865*
Y03577*
Y03577*
X02864*
Y03577*
Y03577*
Y03576*
X02864*
Y03576*
Y03576*
Y03576*
X02864*
Y03576*
Y03575*
Y03575*
X02864*
Y03575*
Y03575*
Y03574*
Y03574*
X02864*
Y03574*
Y03574*
Y03574*
Y03573*
Y03573*
X02863*
Y03573*
Y03573*
Y03572*
Y03572*
X02863*
Y03572*
Y03572*
Y03572*
Y03571*
X02863*
Y03571*
Y03571*
Y03571*
X02863*
Y0357*
Y0357*
Y0357*
Y0357*
X02862*
Y0357*
Y03569*
Y03569*
X02862*
Y03569*
Y03569*
Y03568*
Y03568*
X02862*
Y03568*
Y03568*
Y03568*
Y03567*
X02862*
Y03567*
Y03567*
Y03567*
Y03566*
X02862*
Y03566*
Y03566*
Y03566*
Y03566*
X02861*
Y03565*
Y03565*
Y03565*
X02861*
Y03565*
Y03565*
Y03564*
Y03564*
X02861*
Y03564*
Y03564*
Y03563*
Y03563*
X02861*
Y03563*
Y03563*
Y03563*
Y03562*
X0286*
Y03562*
Y03562*
Y03562*
X0286*
Y03561*
Y03561*
Y03561*
Y03561*
Y03561*
X0286*
Y0356*
Y0356*
Y0356*
Y0356*
Y03559*
X0286*
Y03559*
Y03559*
Y03559*
Y03559*
X0286*
Y03558*
Y03558*
Y03558*
Y03558*
X02859*
Y03557*
Y03557*
Y03557*
Y03557*
X02859*
Y03557*
Y03556*
Y03556*
Y03556*
Y03556*
X02859*
Y03556*
Y03555*
X02859*
Y03555*
X02859*
Y03555*
X02859*
Y03555*
Y03554*
Y03554*
Y03554*
Y03554*
X02858*
Y03554*
Y03553*
Y03553*
Y03553*
X02858*
Y03553*
Y03552*
Y03552*
Y03552*
Y03552*
X02858*
Y03552*
Y03551*
Y03551*
Y03551*
X02858*
Y03551*
Y0355*
Y0355*
Y0355*
Y0355*
X02858*
Y0355*
Y03549*
Y03549*
Y03549*
Y03549*
X02857*
Y03548*
Y03548*
Y03548*
Y03548*
Y03548*
X02857*
Y03547*
Y03547*
Y03547*
Y03547*
Y03547*
X02857*
Y03546*
Y03546*
Y03546*
Y03546*
Y03545*
X02857*
Y03545*
Y03545*
Y03545*
Y03545*
Y03544*
X02857*
Y03544*
Y03544*
Y03544*
Y03543*
Y03543*
Y03543*
Y03543*
X02857*
Y03543*
Y03542*
X02857*
Y03542*
Y03542*
Y03542*
Y03541*
Y03541*
Y03541*
Y03541*
Y03541*
X02857*
Y0354*
Y0354*
Y0354*
X02856*
Y0354*
Y03539*
Y03539*
X02856*
Y03539*
Y03539*
Y03539*
X02856*
Y03538*
Y03538*
Y03538*
X02856*
Y03538*
Y03538*
X02856*
Y03537*
Y03537*
X02855*
Y03537*
Y03537*
X02855*
Y03536*
Y03536*
X02855*
Y03536*
Y03536*
X02855*
Y03536*
X02855*
Y03535*
X02855*
Y03535*
Y03535*
X02854*
Y03535*
Y03534*
X02854*
Y03534*
Y03534*
X02854*
Y03534*
X02854*
Y03534*
Y03533*
Y03533*
X02853*
Y03533*
Y03533*
Y03532*
X02853*
Y03532*
Y03532*
Y03532*
X02853*
Y03532*
Y03531*
Y03531*
Y03531*
Y03531*
Y0353*
X02853*
Y0353*
Y0353*
Y0353*
Y0353*
Y03529*
Y03529*
Y03529*
Y03529*
Y03528*
Y03528*
Y03528*
X02853*
Y03528*
Y03528*
Y03527*
Y03527*
Y03527*
X02853*
Y03527*
Y03527*
Y03526*
X02853*
Y03526*
Y03526*
X02854*
Y03526*
Y03525*
X02853*
Y03525*
X02854*
Y03525*
X02854*
Y03525*
Y03525*
X02854*
Y03524*
X02855*
Y03524*
Y03524*
X02855*
Y03524*
Y03523*
X02855*
Y03523*
X02855*
Y03523*
X02856*
Y03523*
X02856*
Y03523*
X02856*
Y03522*
X02856*
Y03522*
Y03522*
X02857*
Y03522*
Y03521*
Y03521*
Y03521*
Y03521*
Y03521*
Y0352*
Y0352*
X02856*
Y0352*
X02856*
Y0352*
X02856*
Y03519*
X02856*
Y03519*
X02855*
Y03519*
X02855*
Y03519*
X02855*
Y03519*
X02854*
Y0352*
X02854*
Y0352*
X02854*
Y0352*
X02853*
Y0352*
X02853*
Y03521*
X02853*
Y03521*
X02853*
Y03521*
Y03521*
X02852*
Y03521*
X02852*
Y03522*
X02852*
Y03522*
X02852*
Y03522*
X02851*
Y03522*
Y03523*
X02851*
Y03523*
X02851*
Y03523*
Y03523*
X02851*
Y03523*
Y03524*
X02851*
Y03524*
X0285*
Y03524*
Y03524*
X0285*
Y03525*
Y03525*
Y03525*
X0285*
Y03525*
X0285*
Y03525*
X0285*
Y03526*
Y03526*
Y03526*
X02849*
Y03526*
Y03527*
Y03527*
Y03527*
X02849*
Y03527*
Y03527*
Y03528*
Y03528*
X02849*
Y03528*
X02849*
Y03528*
X02849*
Y03528*
Y03529*
Y03529*
Y03529*
Y03529*
Y0353*
Y0353*
Y0353*
Y0353*
Y0353*
X02849*
Y0353*
X02846*
Y0353*
X02844*
Y03531*
X02844*
Y03531*
X02843*
Y03531*
X02842*
Y03531*
X02842*
Y03532*
X02841*
Y03532*
X02841*
Y03532*
X02841*
Y03531*
X0284*
Y03531*
X02839*
Y03531*
X02838*
Y03531*
X02838*
Y03531*
X02838*
Y03531*
X02826*
Y03531*
X02822*
Y03531*
X02819*
Y03531*
X02817*
Y03532*
X02816*
Y03532*
Y03532*
X02816*
Y03532*
X02816*
Y03532*
Y03533*
X02815*
Y03533*
Y03533*
Y03533*
Y03534*
Y03534*
Y03534*
Y03534*
X02816*
Y03534*
X02816*
Y03535*
X02816*
Y03535*
X02816*
Y03535*
X02818*
Y03535*
X0282*
Y03535*
X02823*
Y03534*
X02827*
Y03534*
X02837*
Y03534*
X02839*
Y03535*
X0284*
Y03535*
X0284*
Y03535*
X0284*
Y03535*
Y03536*
Y03536*
X02841*
Y03536*
Y03536*
Y03536*
Y03537*
Y03537*
Y03537*
Y03537*
Y03538*
Y03538*
Y03538*
Y03538*
Y03538*
Y03539*
Y03539*
Y03539*
Y03539*
Y03539*
Y0354*
Y0354*
Y0354*
X02841*
Y0354*
Y03541*
Y03541*
Y03541*
Y03541*
X02841*
Y03541*
Y03542*
Y03542*
X02841*
Y03542*
Y03542*
Y03543*
X02842*
Y03543*
Y03543*
X02842*
Y03543*
X02842*
Y03543*
Y03544*
X02842*
Y03544*
X02842*
Y03544*
X02843*
Y03544*
Y03545*
X02843*
Y03545*
X02843*
Y03545*
X02844*
Y03545*
Y03545*
X02844*
Y03546*
X02844*
Y03546*
X02844*
Y03546*
X02845*
Y03546*
X02845*
Y03547*
X02846*
Y03547*
X02846*
Y03547*
X02846*
Y03547*
X02847*
Y03547*
X02847*
Y03548*
X02847*
Y03548*
X02848*
Y03548*
X02849*
Y03548*
X02849*
Y03548*
X0285*
Y03549*
X02852*
Y03548*
X02853*
Y03548*
X02854*
Y03548*
X02854*
Y03549*
Y03549*
Y03549*
Y03549*
Y0355*
X02854*
Y0355*
Y0355*
Y0355*
Y0355*
Y03551*
X02854*
Y03551*
Y03551*
Y03551*
Y03552*
X02855*
Y03552*
Y03552*
Y03552*
Y03552*
Y03553*
X02855*
Y03553*
Y03553*
Y03553*
Y03554*
Y03554*
X02855*
Y03554*
Y03554*
Y03554*
Y03555*
Y03555*
X02855*
Y03555*
Y03555*
Y03556*
Y03556*
X02855*
Y03556*
Y03556*
Y03556*
Y03557*
Y03557*
X02856*
Y03557*
Y03557*
Y03557*
Y03558*
X02856*
Y03558*
Y03558*
Y03558*
Y03559*
X02856*
Y03559*
Y03559*
Y03559*
Y03559*
Y0356*
X02856*
Y0356*
Y0356*
Y0356*
Y03561*
X02856*
Y03561*
Y03561*
Y03561*
Y03561*
X02857*
Y03562*
Y03562*
Y03562*
Y03562*
X02857*
Y03563*
Y03563*
Y03563*
Y03563*
X02857*
Y03563*
Y03564*
Y03564*
Y03564*
X02857*
Y03564*
Y03565*
Y03565*
Y03565*
X02858*
Y03565*
Y03565*
Y03566*
Y03566*
X02858*
Y03566*
Y03566*
Y03566*
Y03567*
X02858*
Y03567*
Y03567*
Y03567*
Y03568*
X02858*
Y03568*
Y03568*
Y03568*
Y03568*
X02858*
Y03569*
Y03569*
Y03569*
X02859*
Y03569*
Y0357*
Y0357*
Y0357*
X02859*
Y0357*
Y0357*
Y03571*
Y03571*
X02859*
Y03571*
Y03571*
Y03572*
X02859*
Y03572*
Y03572*
Y03572*
X0286*
Y03572*
Y03573*
Y03573*
Y03573*
Y03573*
X0286*
Y03574*
Y03574*
Y03574*
X0286*
Y03574*
Y03574*
Y03575*
Y03575*
X0286*
Y03575*
Y03575*
Y03576*
X0286*
Y03576*
Y03576*
Y03576*
X02861*
Y03576*
Y03577*
Y03577*
Y03577*
X02861*
Y03577*
Y03577*
Y03578*
X02861*
Y03578*
Y03578*
X02861*
Y03578*
Y03579*
X02862*
Y03579*
Y03579*
Y03579*
X02862*
Y03579*
X02862*
Y0358*
Y0358*
X02862*
Y0358*
X02862*
Y0358*
Y03581*
X02863*
Y03581*
X02863*
Y03581*
Y03581*
X02863*
Y03581*
X02863*
Y03582*
X02864*
Y03582*
X02864*
Y03582*
X02864*
Y03582*
X02865*
Y03583*
X02865*
Y03582*
X02865*
Y03583*
X02865*
Y03583*
X02865*
Y03583*
X02866*
Y03583*
X02868*
Y03583*
X02869*
Y03583*
X02869*
Y03583*
X0287*
Y03582*
Y03582*
X02871*
Y03582*
X02871*
Y03582*
X02871*
Y03581*
X02871*
Y03581*
X02871*
Y03581*
X02872*
Y03581*
X02872*
Y03581*
Y0358*
X02872*
Y0358*
Y0358*
X02872*
Y0358*
X02873*
Y03579*
Y03579*
X02873*
Y03579*
Y03579*
Y03579*
X02873*
Y03578*
Y03578*
X02873*
Y03578*
Y03578*
Y03577*
X02873*
Y03577*
Y03577*
Y03577*
X02874*
Y03577*
Y03576*
Y03576*
Y03576*
X02874*
Y03576*
Y03576*
Y03575*
X02874*
Y03575*
Y03575*
Y03575*
X02874*
Y03574*
Y03574*
Y03574*
X02875*
Y03574*
Y03574*
X02875*
Y03573*
Y03573*
Y03573*
X02875*
Y03573*
Y03572*
X02875*
Y03572*
Y03572*
X02875*
Y03572*
Y03572*
X02876*
Y03571*
Y03571*
X02876*
Y03571*
Y03571*
Y0357*
X02876*
Y0357*
X02876*
Y0357*
Y0357*
X02876*
Y0357*
Y03569*
X02877*
Y03569*
Y03569*
X02877*
Y03569*
X02877*
Y03568*
Y03568*
X02877*
Y03568*
X02878*
Y03568*
Y03568*
X02878*
Y03567*
X02878*
Y03567*
Y03567*
X02878*
Y03567*
X02878*
Y03566*
Y03566*
X02879*
Y03566*
X02879*
Y03566*
X02879*
Y03566*
Y03565*
X02879*
Y03565*
X0288*
Y03565*
X0288*
Y03565*
X0288*
Y03565*
Y03564*
Y03564*
X0288*
Y03564*
X02881*
Y03564*
X02881*
Y03563*
X02881*
Y03563*
X02881*
Y03563*
X02882*
Y03563*
X02882*
Y03563*
X02882*
Y03562*
Y03562*
X02882*
Y03562*
X02883*
Y03562*
X02883*
Y03561*
X02883*
Y03561*
X02883*
Y03561*
X02884*
Y03561*
X02884*
Y03561*
X02884*
Y0356*
X02884*
Y0356*
X02885*
Y0356*
X02885*
Y0356*
X02885*
Y03559*
X02885*
Y03559*
X02886*
Y03559*
X02886*
Y03559*
X02886*
Y03559*
X02887*
Y03558*
X02887*
Y03558*
X02887*
Y03558*
X02887*
Y03558*
X02888*
Y03557*
X02888*
Y03557*
X02889*
Y03557*
X02889*
Y03557*
X02889*
Y03557*
X0289*
Y03556*
X0289*
Y03556*
X02891*
Y03556*
X02891*
Y03556*
X02891*
Y03556*
X02892*
Y03555*
X02893*
Y03555*
X02893*
Y03555*
X02893*
Y03555*
X02894*
Y03554*
X02895*
Y03555*
Y03555*
Y03555*
X02895*
Y03555*
Y03556*
Y03556*
X02895*
Y03556*
Y03556*
X02895*
Y03556*
Y03557*
Y03557*
X02896*
Y03557*
X02896*
Y03557*
X02896*
Y03557*
X02896*
Y03557*
X02896*
Y03557*
X02896*
Y03558*
Y03558*
Y03558*
Y03558*
X02896*
Y03559*
Y03559*
Y03559*
X02896*
Y03559*
Y03559*
Y0356*
X02896*
Y0356*
Y0356*
Y0356*
X02897*
Y03561*
Y03561*
Y03561*
X02897*
Y03561*
Y03561*
Y03562*
Y03562*
X02897*
Y03562*
Y03562*
Y03563*
X02897*
Y03563*
Y03563*
Y03563*
Y03563*
X02898*
Y03564*
X02898*
Y03564*
X02898*
Y03564*
X02898*
Y03564*
Y03565*
Y03565*
Y03565*
X02898*
Y03565*
Y03565*
Y03566*
X02898*
Y03566*
Y03566*
Y03566*
Y03566*
X02898*
Y03567*
Y03567*
Y03567*
Y03567*
X02899*
Y03568*
Y03568*
Y03568*
Y03568*
X02899*
Y03568*
Y03569*
Y03569*
Y03569*
X02899*
Y03569*
Y0357*
Y0357*
Y0357*
X02899*
Y0357*
Y0357*
Y03571*
Y03571*
X029*
Y03571*
Y03571*
Y03572*
Y03572*
Y03572*
X029*
Y03572*
Y03572*
Y03573*
Y03573*
X029*
Y03573*
Y03573*
Y03574*
Y03574*
Y03574*
X029*
Y03574*
Y03574*
Y03575*
Y03575*
X029*
Y03575*
Y03575*
Y03576*
Y03576*
Y03576*
X02901*
Y03576*
Y03576*
Y03577*
Y03577*
Y03577*
X02901*
Y03577*
Y03577*
Y03578*
Y03578*
Y03578*
Y03578*
X02901*
Y03579*
Y03579*
Y03579*
Y03579*
X02901*
Y03579*
Y0358*
Y0358*
Y0358*
Y0358*
Y03581*
Y03581*
X02902*
Y03581*
Y03581*
Y03581*
Y03582*
Y03582*
Y03582*
X02902*
Y03582*
Y03583*
Y03583*
Y03583*
Y03583*
Y03583*
X02902*
Y03584*
Y03584*
Y03584*
Y03584*
X02902*
Y03585*
Y03585*
X02902*
Y03585*
X02903*
Y03585*
X02904*
Y03585*
X02904*
Y03585*
X02904*
Y03585*
G37*
G36*
X02819Y03493D02*
X0282D01*
Y03492*
X02821*
Y03492*
X02821*
Y03492*
X02821*
Y03492*
Y03492*
X02822*
Y03491*
X02822*
Y03491*
Y03491*
X02822*
Y03491*
Y0349*
X02822*
Y0349*
Y0349*
Y0349*
Y0349*
Y03489*
Y03489*
Y03489*
Y03489*
Y03489*
X02822*
Y03488*
Y03488*
X02822*
Y03488*
Y03488*
X02822*
Y03487*
X02821*
Y03487*
X02821*
Y03487*
X02821*
Y03487*
X02819*
Y03487*
X02819*
Y03487*
X02819*
Y03487*
X02818*
Y03487*
X02817*
Y03487*
X02817*
Y03488*
X02817*
Y03488*
X02817*
Y03488*
X02816*
Y03488*
Y03489*
X02816*
Y03489*
Y03489*
Y03489*
X02816*
Y03489*
Y0349*
Y0349*
Y0349*
Y0349*
Y0349*
X02816*
Y03491*
Y03491*
X02816*
Y03491*
Y03491*
X02817*
Y03492*
X02817*
Y03492*
X02817*
Y03492*
X02817*
Y03492*
X02818*
Y03492*
X02818*
Y03493*
X02819*
Y03493*
X02819*
Y03493*
G37*
G36*
X02762Y03487D02*
X02763D01*
Y03486*
X02763*
Y03486*
X02764*
Y03486*
X02764*
Y03486*
X02764*
Y03485*
X02764*
Y03485*
Y03485*
X02765*
Y03485*
Y03485*
Y03484*
X02765*
Y03484*
Y03484*
Y03484*
Y03483*
Y03483*
Y03483*
Y03483*
Y03483*
Y03482*
X02765*
Y03482*
Y03482*
X02764*
Y03482*
Y03481*
X02764*
Y03481*
X02764*
Y03481*
X02764*
Y03481*
X02763*
Y03481*
X02763*
Y03481*
X02763*
Y03481*
X02762*
Y03481*
X02761*
Y03481*
X0276*
Y03481*
X0276*
Y03481*
X02759*
Y03482*
X02759*
Y03482*
Y03482*
X02759*
Y03482*
X02759*
Y03483*
Y03483*
Y03483*
Y03483*
Y03483*
X02759*
Y03484*
Y03484*
Y03484*
X02759*
Y03484*
Y03485*
Y03485*
X02759*
Y03485*
Y03485*
X02759*
Y03485*
Y03486*
X0276*
Y03486*
X0276*
Y03486*
X0276*
Y03486*
X02761*
Y03487*
X02761*
Y03487*
X02762*
Y03487*
G37*
%LNntc-2*%
%LPC*%
G36*
X02862Y03579D02*
X02862D01*
Y03579*
X02862*
Y03579*
G37*
G36*
X02865Y03579D02*
X02865D01*
Y03578*
X02865*
Y03579*
G37*
G36*
X02764D02*
X02764D01*
Y03578*
X02764*
Y03579*
G37*
G36*
X02862Y03578D02*
X02862D01*
Y03578*
X02862*
Y03578*
G37*
G36*
X02874Y03576D02*
X02873D01*
Y03576*
X02874*
Y03576*
G37*
G36*
X02871Y03575D02*
X0287D01*
Y03575*
X02871*
Y03575*
G37*
G36*
X02753Y03573D02*
X02753D01*
Y03573*
X02753*
Y03573*
G37*
G36*
X02875Y03573D02*
X02875D01*
Y03573*
X02875*
Y03573*
G37*
G36*
X02751Y03571D02*
X0275D01*
Y03571*
X02751*
Y03571*
G37*
G36*
X02764Y0357D02*
X02763D01*
Y03569*
X02764*
Y0357*
G37*
G36*
X02877Y03568D02*
X02877D01*
Y03567*
X02877*
Y03568*
G37*
G36*
X02902Y03567D02*
X02902D01*
Y03567*
X02902*
Y03567*
G37*
G36*
X02766Y03564D02*
X02765D01*
Y03563*
X02766*
Y03564*
G37*
G36*
X02759Y03562D02*
X02759D01*
Y03562*
X02759*
Y03562*
G37*
G36*
X0286Y0356D02*
X0286D01*
Y0356*
X0286*
Y0356*
G37*
G36*
X02899Y03558D02*
X02899D01*
Y03557*
X02899*
Y03558*
G37*
G36*
X02896Y03557D02*
X02896D01*
Y03557*
X02896*
Y03557*
G37*
G36*
X02885Y03556D02*
X02885D01*
Y03556*
X02885*
Y03556*
G37*
G36*
X02898Y03555D02*
X02898D01*
Y03555*
X02898*
Y03555*
G37*
G36*
X02893Y03555D02*
X02893D01*
Y03555*
X02893*
Y03555*
G37*
G36*
X02888Y03554D02*
X02888D01*
Y03554*
X02888*
Y03554*
G37*
G36*
X02765Y03554D02*
X02764D01*
Y03553*
X02765*
Y03554*
G37*
G36*
X02889Y03553D02*
X02889D01*
Y03553*
X02889*
Y03553*
G37*
G36*
X02745Y03553D02*
X02745D01*
Y03553*
X02745*
Y03553*
G37*
G36*
X02765Y03552D02*
X02764D01*
Y03552*
X02765*
Y03552*
G37*
G36*
X02744Y03548D02*
X02743D01*
Y03547*
X02744*
Y03548*
G37*
G36*
X02761Y03538D02*
X02761D01*
Y03538*
X02761*
Y03538*
G37*
G36*
X02761Y03538D02*
X02761D01*
Y03538*
X02761*
Y03538*
G37*
G36*
X02854Y03536D02*
X02854D01*
Y03536*
X02854*
Y03536*
G37*
G36*
X02887Y03534D02*
X02886D01*
Y03534*
X02887*
Y03534*
G37*
G36*
X02838D02*
X02838D01*
Y03534*
X02838*
Y03534*
G37*
G36*
X02824Y03531D02*
X02824D01*
Y03531*
X02824*
Y03531*
G37*
G36*
X0274Y03528D02*
X0274D01*
Y03528*
X0274*
Y03528*
G37*
G36*
Y03528D02*
X0274D01*
Y03527*
X0274*
Y03528*
G37*
G36*
X02795Y03526D02*
X02795D01*
Y03526*
X02795*
Y03526*
G37*
G36*
X0274Y03525D02*
X0274D01*
Y03525*
X0274*
Y03525*
G37*
G36*
X02854Y03525D02*
X02853D01*
Y03525*
X02854*
Y03525*
G37*
G36*
X0274D02*
X0274D01*
Y03525*
X0274*
Y03525*
G37*
G36*
X028Y03523D02*
X028D01*
Y03523*
X028*
Y03523*
G37*
G36*
X02739Y03523D02*
X02739D01*
Y03523*
X02739*
Y03523*
G37*
G36*
X02823Y03522D02*
X02822D01*
Y03522*
X02823*
Y03522*
G37*
G36*
X02825Y03521D02*
X02825D01*
Y03521*
X02825*
Y03521*
G37*
G36*
X02879Y03521D02*
X02878D01*
Y03521*
X02879*
Y03521*
G37*
G36*
X02819Y03521D02*
X02818D01*
Y0352*
X02819*
Y03521*
G37*
G36*
X0272Y0352D02*
X0272D01*
Y0352*
X0272*
Y0352*
G37*
G36*
X02788Y0352D02*
X02787D01*
Y0352*
X02788*
Y0352*
G37*
G36*
X02881Y0352D02*
X02881D01*
Y03519*
X02881*
Y0352*
G37*
G36*
X02791Y03519D02*
X02791D01*
Y03519*
X02791*
Y03519*
G37*
G36*
X02784Y03518D02*
X02784D01*
Y03518*
X02784*
Y03518*
G37*
G36*
X02791Y03518D02*
X02791D01*
Y03518*
X02791*
Y03518*
G37*
G36*
Y03516D02*
X02791D01*
Y03516*
X02791*
Y03516*
G37*
G36*
X02788D02*
X02788D01*
Y03516*
X02788*
Y03516*
G37*
G36*
X02781Y03516D02*
X02781D01*
Y03516*
X02781*
Y03516*
G37*
G36*
X02779Y03514D02*
X02779D01*
Y03514*
X02779*
Y03514*
G37*
G36*
X02837Y03513D02*
X02837D01*
Y03513*
X02837*
Y03513*
G37*
G36*
X02835Y03512D02*
X02835D01*
Y03512*
X02835*
Y03512*
G37*
G36*
X02818D02*
X02818D01*
Y03512*
X02818*
Y03512*
G37*
G36*
X02875Y03512D02*
X02874D01*
Y03511*
X02875*
Y03512*
G37*
G36*
X02776Y0351D02*
X02776D01*
Y0351*
X02776*
Y0351*
G37*
G36*
X02841Y0351D02*
X02841D01*
Y0351*
X02841*
Y0351*
G37*
G36*
X02775Y03509D02*
X02775D01*
Y03509*
X02775*
Y03509*
G37*
G36*
X02772Y03509D02*
X02772D01*
Y03509*
X02772*
Y03509*
G37*
G36*
X02764Y03509D02*
X02764D01*
Y03508*
X02764*
Y03509*
G37*
G36*
X02789Y03508D02*
X02789D01*
Y03508*
X02789*
Y03508*
G37*
G36*
Y03508D02*
X02789D01*
Y03507*
X02789*
Y03508*
G37*
G36*
X02806Y03507D02*
X02806D01*
Y03507*
X02806*
Y03507*
G37*
G36*
X02789Y03507D02*
X02789D01*
Y03507*
X02789*
Y03507*
G37*
G36*
X02764Y03507D02*
X02764D01*
Y03506*
X02764*
Y03507*
G37*
G36*
X02809Y03523D02*
X02809D01*
Y03523*
Y03522*
Y03522*
Y03522*
Y03522*
Y03521*
Y03521*
Y03521*
Y03521*
Y03521*
Y0352*
Y0352*
Y0352*
Y0352*
Y03519*
Y03519*
Y03519*
Y03519*
X02808*
Y03519*
Y03518*
Y03518*
Y03518*
Y03518*
Y03518*
Y03517*
Y03517*
Y03517*
Y03517*
Y03516*
Y03516*
Y03516*
Y03516*
X02809*
Y03516*
Y03515*
Y03515*
Y03515*
Y03515*
Y03514*
Y03514*
Y03514*
Y03514*
Y03514*
Y03513*
Y03513*
Y03513*
Y03513*
Y03512*
Y03512*
Y03512*
Y03512*
Y03512*
Y03511*
Y03511*
Y03511*
Y03511*
Y0351*
X02809*
Y0351*
Y0351*
Y0351*
Y0351*
Y03509*
Y03509*
Y03509*
Y03509*
Y03509*
Y03508*
Y03508*
Y03508*
Y03508*
X02809*
Y03507*
Y03507*
Y03507*
Y03507*
Y03507*
Y03506*
Y03506*
Y03506*
Y03506*
X02809*
Y03505*
X0281*
Y03506*
X02815*
Y03506*
X02817*
Y03506*
Y03506*
Y03507*
Y03507*
Y03507*
Y03507*
Y03507*
Y03508*
Y03508*
Y03508*
Y03508*
Y03509*
Y03509*
Y03509*
Y03509*
Y03509*
Y0351*
Y0351*
Y0351*
Y0351*
Y0351*
Y03511*
X02817*
Y03511*
Y03511*
Y03511*
Y03512*
Y03512*
Y03512*
Y03512*
Y03512*
Y03513*
Y03513*
X02818*
Y03513*
Y03513*
Y03514*
Y03514*
Y03514*
Y03514*
Y03514*
X02818*
Y03515*
Y03515*
Y03515*
Y03515*
Y03516*
Y03516*
X02818*
Y03516*
Y03516*
Y03516*
Y03517*
Y03517*
X02818*
Y03517*
X02818*
Y03517*
Y03518*
Y03518*
X02818*
Y03518*
Y03518*
Y03518*
Y03519*
X02819*
Y03519*
Y03519*
Y03519*
Y03519*
X02819*
Y0352*
Y0352*
Y0352*
X02818*
Y0352*
X02818*
Y03521*
X02817*
Y03521*
X02816*
Y03521*
X02816*
Y03521*
X02815*
Y03521*
X02814*
Y03522*
X02813*
Y03522*
X02813*
Y03522*
X02812*
Y03522*
X02811*
Y03523*
X02809*
Y03523*
G37*
G36*
X02827Y03505D02*
X02827D01*
Y03505*
X02827*
Y03505*
G37*
G36*
X02823Y03518D02*
X02822D01*
Y03518*
Y03518*
Y03518*
X02822*
Y03518*
Y03517*
Y03517*
Y03517*
X02822*
Y03517*
Y03516*
Y03516*
Y03516*
X02822*
Y03516*
Y03516*
Y03515*
Y03515*
Y03515*
Y03515*
X02821*
Y03514*
Y03514*
Y03514*
Y03514*
Y03514*
Y03513*
Y03513*
X02821*
Y03513*
Y03513*
Y03512*
Y03512*
Y03512*
Y03512*
X02821*
Y03512*
X02821*
Y03511*
X02821*
Y03511*
Y03511*
Y03511*
Y0351*
Y0351*
Y0351*
Y0351*
Y0351*
Y03509*
Y03509*
Y03509*
Y03509*
Y03509*
Y03508*
Y03508*
Y03508*
Y03508*
Y03507*
Y03507*
Y03507*
Y03507*
Y03507*
Y03506*
Y03506*
Y03506*
X02821*
Y03506*
X02821*
Y03505*
X02822*
Y03506*
X02828*
Y03505*
X02829*
Y03505*
X02829*
Y03505*
X02831*
Y03505*
X02833*
Y03505*
X02835*
Y03505*
X02837*
Y03505*
X02839*
Y03505*
X0284*
Y03505*
X0284*
Y03505*
Y03505*
Y03506*
Y03506*
Y03506*
Y03506*
X0284*
Y03507*
X02839*
Y03507*
X02839*
Y03507*
Y03507*
X02839*
Y03507*
X02839*
Y03508*
X02838*
Y03508*
X02838*
Y03508*
X02838*
Y03508*
Y03509*
X02838*
Y03509*
X02837*
Y03509*
X02837*
Y03509*
X02837*
Y03509*
X02836*
Y0351*
X02836*
Y0351*
X02836*
Y0351*
X02836*
Y0351*
X02835*
Y0351*
X02835*
Y03511*
X02835*
Y03511*
X02835*
Y03511*
X02834*
Y03511*
X02834*
Y03512*
X02834*
Y03512*
X02833*
Y03512*
X02833*
Y03512*
X02833*
Y03512*
X02832*
Y03513*
X02832*
Y03513*
X02832*
Y03513*
X02831*
Y03513*
X02831*
Y03514*
X02831*
Y03514*
X02831*
Y03514*
X0283*
Y03514*
X0283*
Y03514*
X02829*
Y03515*
X02829*
Y03515*
X02829*
Y03515*
X02828*
Y03515*
X02828*
Y03516*
X02828*
Y03516*
X02827*
Y03516*
X02827*
Y03516*
X02827*
Y03516*
X02826*
Y03517*
X02826*
Y03517*
X02825*
Y03517*
X02825*
Y03517*
X02825*
Y03518*
X02824*
Y03518*
X02824*
Y03518*
X02823*
Y03518*
X02823*
Y03518*
G37*
G36*
X02804Y03523D02*
X02804D01*
Y03523*
X028*
Y03523*
X02798*
Y03523*
X02797*
Y03523*
X02795*
Y03522*
X02795*
Y03522*
X02794*
Y03522*
X02793*
Y03522*
X02792*
Y03521*
X02791*
Y03521*
X02791*
Y03521*
Y03521*
X02791*
Y03521*
Y0352*
Y0352*
Y0352*
Y0352*
Y03519*
Y03519*
Y03519*
Y03519*
Y03519*
Y03518*
Y03518*
Y03518*
Y03518*
X02791*
Y03518*
Y03517*
Y03517*
Y03517*
Y03517*
Y03516*
Y03516*
Y03516*
Y03516*
Y03516*
Y03515*
Y03515*
Y03515*
Y03515*
Y03514*
X02792*
Y03514*
Y03514*
Y03514*
Y03514*
Y03513*
Y03513*
Y03513*
Y03513*
Y03512*
Y03512*
Y03512*
Y03512*
Y03512*
Y03511*
Y03511*
X02792*
Y03511*
Y03511*
Y0351*
Y0351*
Y0351*
Y0351*
Y0351*
Y03509*
Y03509*
Y03509*
Y03509*
Y03509*
Y03508*
Y03508*
Y03508*
X02792*
Y03508*
Y03507*
Y03507*
Y03507*
Y03507*
Y03507*
Y03506*
Y03506*
Y03506*
Y03506*
Y03505*
Y03505*
Y03505*
X02792*
Y03505*
Y03505*
Y03504*
Y03504*
Y03504*
Y03504*
X02794*
Y03504*
X02795*
Y03504*
X02797*
Y03504*
X02798*
Y03505*
X028*
Y03505*
X02801*
Y03505*
X02801*
Y03505*
X02802*
Y03505*
X02804*
Y03505*
X02806*
Y03505*
Y03506*
Y03506*
Y03506*
Y03506*
Y03507*
X02805*
Y03507*
Y03507*
Y03507*
Y03507*
Y03508*
Y03508*
Y03508*
Y03508*
Y03509*
X02805*
Y03509*
Y03509*
Y03509*
Y03509*
Y0351*
Y0351*
Y0351*
Y0351*
Y0351*
Y03511*
Y03511*
Y03511*
Y03511*
Y03512*
X02805*
Y03512*
Y03512*
Y03512*
Y03512*
Y03513*
Y03513*
Y03513*
Y03513*
Y03514*
Y03514*
Y03514*
Y03514*
Y03514*
Y03515*
Y03515*
Y03515*
Y03515*
Y03516*
Y03516*
Y03516*
Y03516*
Y03516*
Y03517*
Y03517*
Y03517*
Y03517*
Y03518*
Y03518*
Y03518*
Y03518*
Y03518*
Y03519*
Y03519*
Y03519*
Y03519*
Y03519*
Y0352*
Y0352*
Y0352*
Y0352*
Y03521*
Y03521*
Y03521*
Y03521*
Y03521*
Y03522*
Y03522*
Y03522*
Y03522*
Y03523*
Y03523*
Y03523*
Y03523*
X02804*
Y03523*
G37*
G36*
X0283Y03502D02*
X02829D01*
Y03502*
X0283*
Y03502*
G37*
G36*
X02788Y03519D02*
X02787D01*
Y03519*
X02787*
Y03519*
X02786*
Y03519*
X02786*
Y03519*
X02785*
Y03518*
X02785*
Y03518*
X02785*
Y03518*
X02784*
Y03518*
X02784*
Y03518*
X02784*
Y03517*
X02783*
Y03517*
X02783*
Y03517*
X02783*
Y03517*
X02782*
Y03516*
X02782*
Y03516*
X02782*
Y03516*
X02782*
Y03516*
Y03516*
X02781*
Y03515*
X02781*
Y03515*
X02781*
Y03515*
X0278*
Y03515*
X0278*
Y03514*
X0278*
Y03514*
X0278*
Y03514*
X0278*
Y03514*
X02779*
Y03514*
X02779*
Y03513*
X02779*
Y03513*
X02779*
Y03513*
X02779*
Y03513*
Y03512*
X02778*
Y03512*
X02778*
Y03512*
X02778*
Y03512*
X02778*
Y03512*
X02777*
Y03511*
Y03511*
X02777*
Y03511*
X02777*
Y03511*
Y0351*
X02777*
Y0351*
X02777*
Y0351*
X02776*
Y0351*
X02776*
Y0351*
Y03509*
Y03509*
X02776*
Y03509*
X02776*
Y03509*
Y03509*
X02775*
Y03508*
Y03508*
X02775*
Y03508*
Y03508*
X02775*
Y03507*
Y03507*
X02775*
Y03507*
Y03507*
X02775*
Y03507*
Y03506*
X02774*
Y03506*
Y03506*
X02774*
Y03506*
Y03505*
Y03505*
X02774*
Y03505*
Y03505*
X02774*
Y03505*
Y03504*
Y03504*
X02773*
Y03504*
Y03504*
Y03503*
Y03503*
X02773*
Y03503*
Y03503*
Y03503*
X02773*
Y03502*
Y03502*
Y03502*
Y03502*
Y03501*
X02773*
Y03501*
Y03501*
Y03501*
Y03501*
Y035*
Y035*
X02773*
Y035*
Y035*
Y035*
Y03499*
Y03499*
X02773*
Y03499*
X02774*
Y035*
X02775*
Y035*
X02776*
Y035*
X02777*
Y035*
X02777*
Y035*
X02778*
Y03501*
X02779*
Y03501*
X0278*
Y03501*
X02781*
Y03501*
X02782*
Y03501*
X02782*
Y03502*
X02784*
Y03502*
X02784*
Y03502*
X02785*
Y03502*
X02786*
Y03503*
X02788*
Y03503*
X02789*
Y03503*
Y03503*
Y03503*
Y03504*
Y03504*
Y03504*
Y03504*
Y03505*
Y03505*
Y03505*
Y03505*
Y03505*
Y03506*
Y03506*
X02788*
Y03506*
Y03506*
Y03507*
Y03507*
Y03507*
Y03507*
Y03507*
Y03508*
Y03508*
Y03508*
Y03508*
Y03509*
Y03509*
Y03509*
Y03509*
X02788*
Y03509*
Y0351*
Y0351*
Y0351*
Y0351*
Y0351*
Y03511*
Y03511*
Y03511*
Y03511*
Y03512*
Y03512*
Y03512*
Y03512*
X02788*
Y03512*
X02788*
Y03513*
X02788*
Y03513*
Y03513*
Y03513*
Y03514*
Y03514*
Y03514*
Y03514*
Y03514*
Y03515*
Y03515*
Y03515*
Y03515*
Y03516*
X02788*
Y03516*
Y03516*
X02788*
Y03516*
X02788*
Y03516*
Y03517*
Y03517*
Y03517*
Y03517*
Y03518*
Y03518*
Y03518*
Y03518*
Y03518*
Y03519*
X02788*
Y03519*
Y03519*
Y03519*
Y03519*
G37*
G36*
X02784Y03499D02*
X02784D01*
Y03498*
X02784*
Y03499*
G37*
G36*
X02851Y03493D02*
X02851D01*
Y03493*
X02851*
Y03493*
G37*
G36*
X0275Y0349D02*
X02749D01*
Y03489*
X0275*
Y0349*
G37*
G36*
X0275Y03487D02*
X0275D01*
Y03486*
X0275*
Y03487*
G37*
G36*
X02826Y03479D02*
X02826D01*
Y03479*
X02826*
Y03479*
G37*
G36*
X0275Y03478D02*
X02749D01*
Y03478*
X0275*
Y03478*
G37*
G36*
X02826Y03476D02*
X02825D01*
Y03476*
X02826*
Y03476*
G37*
G36*
X0276Y03474D02*
X0276D01*
Y03474*
X0276*
Y03474*
G37*
G36*
X02766Y03472D02*
X02766D01*
Y03472*
X02766*
Y03472*
G37*
G36*
X02811Y03471D02*
X0281D01*
Y03471*
Y03471*
X02811*
Y03471*
Y03471*
G37*
G36*
X02801Y0347D02*
X02801D01*
Y0347*
X02801*
Y0347*
G37*
G36*
X0282Y03492D02*
X0282D01*
Y03492*
X0282*
Y03492*
G37*
G36*
X02816Y0349D02*
X02816D01*
Y0349*
X02816*
Y0349*
G37*
G36*
X02822Y03489D02*
X02822D01*
Y03489*
X02822*
Y03489*
G37*
%LNntc-3*%
%LPD*%
G54D10*
X02569Y03157D02*
D01*
X02569Y03157*
X02569Y03158*
X02569Y03158*
X02569Y03158*
X02569Y03159*
X02569Y03159*
X02569Y03159*
X02569Y0316*
X02568Y0316*
X02568Y0316*
X02568Y0316*
X02568Y03161*
X02568Y03161*
X02567Y03161*
X02567Y03161*
X02567Y03161*
X02566Y03162*
X02566Y03162*
X02566Y03162*
X02565Y03162*
X02565Y03162*
X02565Y03162*
X02564*
X02564Y03162*
X02564Y03162*
X02563Y03162*
X02563Y03162*
X02563Y03162*
X02562Y03161*
X02562Y03161*
X02562Y03161*
X02561Y03161*
X02561Y03161*
X02561Y0316*
X02561Y0316*
X02561Y0316*
X0256Y0316*
X0256Y03159*
X0256Y03159*
X0256Y03159*
X0256Y03158*
X0256Y03158*
X0256Y03158*
X0256Y03157*
X0256Y03157*
X0256Y03157*
X0256Y03156*
X0256Y03156*
X0256Y03156*
X0256Y03155*
X0256Y03155*
X0256Y03155*
X0256Y03154*
X02561Y03154*
X02561Y03154*
X02561Y03154*
X02561Y03153*
X02561Y03153*
X02562Y03153*
X02562Y03153*
X02562Y03153*
X02563Y03152*
X02563Y03152*
X02563Y03152*
X02564Y03152*
X02564Y03152*
X02564Y03152*
X02565*
X02565Y03152*
X02565Y03152*
X02566Y03152*
X02566Y03152*
X02566Y03152*
X02567Y03153*
X02567Y03153*
X02567Y03153*
X02568Y03153*
X02568Y03153*
X02568Y03154*
X02568Y03154*
X02568Y03154*
X02569Y03154*
X02569Y03155*
X02569Y03155*
X02569Y03155*
X02569Y03156*
X02569Y03156*
X02569Y03156*
X02569Y03157*
X02569Y03157*
X03803Y03423D02*
D01*
X03803Y03423*
X03803Y03423*
X03803Y03424*
X03803Y03424*
X03803Y03424*
X03802Y03425*
X03802Y03425*
X03802Y03425*
X03802Y03426*
X03802Y03426*
X03801Y03426*
X03801Y03426*
X03801Y03427*
X03801Y03427*
X038Y03427*
X038Y03427*
X038Y03427*
X03799Y03427*
X03799Y03428*
X03799Y03428*
X03798Y03428*
X03798Y03428*
X03798*
X03797Y03428*
X03797Y03428*
X03797Y03428*
X03796Y03427*
X03796Y03427*
X03796Y03427*
X03795Y03427*
X03795Y03427*
X03795Y03427*
X03795Y03426*
X03794Y03426*
X03794Y03426*
X03794Y03426*
X03794Y03425*
X03794Y03425*
X03793Y03425*
X03793Y03424*
X03793Y03424*
X03793Y03424*
X03793Y03423*
X03793Y03423*
X03793Y03423*
X03793Y03422*
X03793Y03422*
X03793Y03422*
X03793Y03421*
X03793Y03421*
X03793Y03421*
X03794Y0342*
X03794Y0342*
X03794Y0342*
X03794Y0342*
X03794Y03419*
X03795Y03419*
X03795Y03419*
X03795Y03419*
X03795Y03418*
X03796Y03418*
X03796Y03418*
X03796Y03418*
X03797Y03418*
X03797Y03418*
X03797Y03418*
X03798Y03418*
X03798*
X03798Y03418*
X03799Y03418*
X03799Y03418*
X03799Y03418*
X038Y03418*
X038Y03418*
X038Y03418*
X03801Y03419*
X03801Y03419*
X03801Y03419*
X03801Y03419*
X03802Y0342*
X03802Y0342*
X03802Y0342*
X03802Y0342*
X03802Y03421*
X03803Y03421*
X03803Y03421*
X03803Y03422*
X03803Y03422*
X03803Y03422*
X03803Y03423*
X02854Y03386D02*
D01*
X02854Y03386*
X02854Y03386*
X02854Y03387*
X02854Y03387*
X02854Y03387*
X02854Y03388*
X02854Y03388*
X02854Y03388*
X02853Y03389*
X02853Y03389*
X02853Y03389*
X02853Y03389*
X02853Y0339*
X02852Y0339*
X02852Y0339*
X02852Y0339*
X02851Y0339*
X02851Y0339*
X02851Y0339*
X0285Y03391*
X0285Y03391*
X0285Y03391*
X02849*
X02849Y03391*
X02849Y03391*
X02848Y0339*
X02848Y0339*
X02848Y0339*
X02847Y0339*
X02847Y0339*
X02847Y0339*
X02846Y0339*
X02846Y03389*
X02846Y03389*
X02846Y03389*
X02846Y03389*
X02845Y03388*
X02845Y03388*
X02845Y03388*
X02845Y03387*
X02845Y03387*
X02845Y03387*
X02845Y03386*
X02845Y03386*
X02845Y03386*
X02845Y03385*
X02845Y03385*
X02845Y03385*
X02845Y03384*
X02845Y03384*
X02845Y03384*
X02845Y03383*
X02845Y03383*
X02846Y03383*
X02846Y03383*
X02846Y03382*
X02846Y03382*
X02846Y03382*
X02847Y03382*
X02847Y03381*
X02847Y03381*
X02848Y03381*
X02848Y03381*
X02848Y03381*
X02849Y03381*
X02849Y03381*
X02849Y03381*
X0285*
X0285Y03381*
X0285Y03381*
X02851Y03381*
X02851Y03381*
X02851Y03381*
X02852Y03381*
X02852Y03381*
X02852Y03382*
X02853Y03382*
X02853Y03382*
X02853Y03382*
X02853Y03383*
X02853Y03383*
X02854Y03383*
X02854Y03383*
X02854Y03384*
X02854Y03384*
X02854Y03384*
X02854Y03385*
X02854Y03385*
X02854Y03385*
X02854Y03386*
X03098Y0349D02*
D01*
X03098Y0349*
X03098Y0349*
X03098Y03491*
X03098Y03491*
X03098Y03491*
X03098Y03492*
X03098Y03492*
X03097Y03492*
X03097Y03492*
X03097Y03493*
X03097Y03493*
X03097Y03493*
X03096Y03493*
X03096Y03494*
X03096Y03494*
X03095Y03494*
X03095Y03494*
X03095Y03494*
X03095Y03494*
X03094Y03494*
X03094Y03494*
X03093Y03494*
X03093*
X03093Y03494*
X03092Y03494*
X03092Y03494*
X03092Y03494*
X03091Y03494*
X03091Y03494*
X03091Y03494*
X03091Y03494*
X0309Y03493*
X0309Y03493*
X0309Y03493*
X0309Y03493*
X03089Y03492*
X03089Y03492*
X03089Y03492*
X03089Y03492*
X03089Y03491*
X03089Y03491*
X03089Y03491*
X03088Y0349*
X03088Y0349*
X03088Y0349*
X03088Y03489*
X03088Y03489*
X03089Y03488*
X03089Y03488*
X03089Y03488*
X03089Y03487*
X03089Y03487*
X03089Y03487*
X03089Y03487*
X0309Y03486*
X0309Y03486*
X0309Y03486*
X0309Y03486*
X03091Y03485*
X03091Y03485*
X03091Y03485*
X03091Y03485*
X03092Y03485*
X03092Y03485*
X03092Y03485*
X03093Y03485*
X03093Y03485*
X03093*
X03094Y03485*
X03094Y03485*
X03095Y03485*
X03095Y03485*
X03095Y03485*
X03095Y03485*
X03096Y03485*
X03096Y03485*
X03096Y03486*
X03097Y03486*
X03097Y03486*
X03097Y03486*
X03097Y03487*
X03097Y03487*
X03098Y03487*
X03098Y03487*
X03098Y03488*
X03098Y03488*
X03098Y03488*
X03098Y03489*
X03098Y03489*
X03098Y0349*
X03409Y02967D02*
D01*
X03409Y02967*
X03409Y02968*
X03409Y02968*
X03409Y02968*
X03409Y02969*
X03409Y02969*
X03409Y02969*
X03408Y0297*
X03408Y0297*
X03408Y0297*
X03408Y0297*
X03408Y02971*
X03407Y02971*
X03407Y02971*
X03407Y02971*
X03406Y02971*
X03406Y02972*
X03406Y02972*
X03405Y02972*
X03405Y02972*
X03405Y02972*
X03404Y02972*
X03404*
X03404Y02972*
X03403Y02972*
X03403Y02972*
X03403Y02972*
X03402Y02972*
X03402Y02971*
X03402Y02971*
X03402Y02971*
X03401Y02971*
X03401Y02971*
X03401Y0297*
X03401Y0297*
X034Y0297*
X034Y0297*
X034Y02969*
X034Y02969*
X034Y02969*
X034Y02968*
X03399Y02968*
X03399Y02968*
X03399Y02967*
X03399Y02967*
X03399Y02967*
X03399Y02966*
X03399Y02966*
X034Y02966*
X034Y02965*
X034Y02965*
X034Y02965*
X034Y02964*
X034Y02964*
X03401Y02964*
X03401Y02964*
X03401Y02963*
X03401Y02963*
X03402Y02963*
X03402Y02963*
X03402Y02963*
X03402Y02962*
X03403Y02962*
X03403Y02962*
X03403Y02962*
X03404Y02962*
X03404Y02962*
X03404*
X03405Y02962*
X03405Y02962*
X03405Y02962*
X03406Y02962*
X03406Y02962*
X03406Y02963*
X03407Y02963*
X03407Y02963*
X03407Y02963*
X03408Y02963*
X03408Y02964*
X03408Y02964*
X03408Y02964*
X03408Y02964*
X03409Y02965*
X03409Y02965*
X03409Y02965*
X03409Y02966*
X03409Y02966*
X03409Y02966*
X03409Y02967*
X03409Y02967*
G54D11*
X02946Y03383D02*
D01*
X02946Y03384*
X02946Y03385*
X02946Y03385*
X02946Y03386*
X02946Y03387*
X02945Y03388*
X02945Y03388*
X02945Y03389*
X02944Y0339*
X02944Y03391*
X02943Y03391*
X02942Y03392*
X02942Y03392*
X02941Y03393*
X0294Y03393*
X0294Y03394*
X02939Y03394*
X02938Y03394*
X02937Y03394*
X02937Y03395*
X02936Y03395*
X02935Y03395*
X02934*
X02933Y03395*
X02932Y03395*
X02932Y03394*
X02931Y03394*
X0293Y03394*
X02929Y03394*
X02929Y03393*
X02928Y03393*
X02927Y03392*
X02927Y03392*
X02926Y03391*
X02925Y03391*
X02925Y0339*
X02925Y03389*
X02924Y03388*
X02924Y03388*
X02923Y03387*
X02923Y03386*
X02923Y03385*
X02923Y03385*
X02923Y03384*
X02923Y03383*
X02923Y03382*
X02923Y03381*
X02923Y0338*
X02923Y0338*
X02923Y03379*
X02924Y03378*
X02924Y03377*
X02925Y03377*
X02925Y03376*
X02925Y03375*
X02926Y03375*
X02927Y03374*
X02927Y03374*
X02928Y03373*
X02929Y03373*
X02929Y03372*
X0293Y03372*
X02931Y03372*
X02932Y03371*
X02932Y03371*
X02933Y03371*
X02934Y03371*
X02935*
X02936Y03371*
X02937Y03371*
X02937Y03371*
X02938Y03372*
X02939Y03372*
X0294Y03372*
X0294Y03373*
X02941Y03373*
X02942Y03374*
X02942Y03374*
X02943Y03375*
X02944Y03375*
X02944Y03376*
X02945Y03377*
X02945Y03377*
X02945Y03378*
X02946Y03379*
X02946Y0338*
X02946Y0338*
X02946Y03381*
X02946Y03382*
X02946Y03383*
X03108Y03575D02*
D01*
X03108Y03575*
X03108Y03576*
X03108Y03577*
X03107Y03578*
X03107Y03579*
X03107Y03579*
X03107Y0358*
X03106Y03581*
X03106Y03581*
X03105Y03582*
X03105Y03583*
X03104Y03583*
X03103Y03584*
X03103Y03584*
X03102Y03585*
X03101Y03585*
X031Y03585*
X031Y03586*
X03099Y03586*
X03098Y03586*
X03097Y03586*
X03096Y03586*
X03096*
X03095Y03586*
X03094Y03586*
X03093Y03586*
X03092Y03586*
X03092Y03585*
X03091Y03585*
X0309Y03585*
X03089Y03584*
X03089Y03584*
X03088Y03583*
X03088Y03583*
X03087Y03582*
X03087Y03581*
X03086Y03581*
X03086Y0358*
X03085Y03579*
X03085Y03579*
X03085Y03578*
X03085Y03577*
X03084Y03576*
X03084Y03575*
X03084Y03575*
X03084Y03574*
X03084Y03573*
X03085Y03572*
X03085Y03571*
X03085Y0357*
X03085Y0357*
X03086Y03569*
X03086Y03568*
X03087Y03568*
X03087Y03567*
X03088Y03566*
X03088Y03566*
X03089Y03565*
X03089Y03565*
X0309Y03564*
X03091Y03564*
X03092Y03564*
X03092Y03563*
X03093Y03563*
X03094Y03563*
X03095Y03563*
X03096Y03563*
X03096*
X03097Y03563*
X03098Y03563*
X03099Y03563*
X031Y03563*
X031Y03564*
X03101Y03564*
X03102Y03564*
X03103Y03565*
X03103Y03565*
X03104Y03566*
X03105Y03566*
X03105Y03567*
X03106Y03568*
X03106Y03568*
X03107Y03569*
X03107Y0357*
X03107Y0357*
X03107Y03571*
X03108Y03572*
X03108Y03573*
X03108Y03574*
X03108Y03575*
G54D12*
X02975Y03422D02*
D01*
X02975Y03421*
X02975Y03419*
X02975Y03417*
X02975Y03415*
X02976Y03414*
X02977Y03412*
X02977Y03411*
X02978Y03409*
X02979Y03408*
X0298Y03406*
X02982Y03405*
X02983Y03404*
X02984Y03403*
X02986Y03402*
X02987Y03401*
X02989Y034*
X0299Y03399*
X02992Y03399*
X02993Y03398*
X02995Y03398*
X02997Y03397*
X02999Y03397*
X03*
X03002Y03397*
X03004Y03398*
X03006Y03398*
X03007Y03399*
X03009Y03399*
X0301Y034*
X03012Y03401*
X03013Y03402*
X03015Y03403*
X03016Y03404*
X03017Y03405*
X03019Y03406*
X0302Y03408*
X03021Y03409*
X03022Y03411*
X03022Y03412*
X03023Y03414*
X03024Y03415*
X03024Y03417*
X03024Y03419*
X03024Y03421*
X03025Y03422*
X03057Y03615D02*
D01*
X03058Y03615*
X0306Y03615*
X03062Y03615*
X03064Y03615*
X03065Y03616*
X03067Y03617*
X03068Y03617*
X0307Y03618*
X03071Y03619*
X03073Y0362*
X03074Y03622*
X03075Y03623*
X03076Y03624*
X03077Y03626*
X03078Y03627*
X03079Y03629*
X0308Y0363*
X0308Y03632*
X03081Y03633*
X03081Y03635*
X03082Y03637*
X03082Y03639*
Y0364*
X03082Y03642*
X03081Y03644*
X03081Y03646*
X0308Y03647*
X0308Y03649*
X03079Y0365*
X03078Y03652*
X03077Y03653*
X03076Y03655*
X03075Y03656*
X03074Y03657*
X03073Y03659*
X03071Y0366*
X0307Y03661*
X03068Y03662*
X03067Y03662*
X03065Y03663*
X03064Y03664*
X03062Y03664*
X0306Y03664*
X03058Y03664*
X03057Y03665*
X0359Y02651D02*
Y0266D01*
Y0286D02*
Y02869D01*
X0356Y0266D02*
X0359D01*
X0356D02*
Y0286D01*
X0362*
Y0266D02*
Y0286D01*
X0359Y0266D02*
X0362D01*
X02467Y02742D02*
X02662D01*
Y03127*
X02467D02*
X02662D01*
X02467Y02742D02*
Y03127D01*
X02605Y03445D02*
X02635D01*
X02605Y03245D02*
Y03445D01*
Y03245D02*
X02665D01*
Y03445*
X02635D02*
X02665D01*
X02635Y03236D02*
Y03245D01*
Y03445D02*
Y03454D01*
X03295Y0286D02*
X03325D01*
X03295Y0266D02*
Y0286D01*
Y0266D02*
X03355D01*
Y0286*
X03325D02*
X03355D01*
X03325Y02651D02*
Y0266D01*
Y0286D02*
Y02869D01*
X02544Y02609D02*
X02665D01*
X02544D02*
Y0268D01*
X02665*
Y02609D02*
Y0268D01*
X02475Y0344D02*
X02505D01*
X02475Y0324D02*
Y0344D01*
Y0324D02*
X02535D01*
Y0344*
X02505D02*
X02535D01*
X02505Y03231D02*
Y0324D01*
Y0344D02*
Y03449D01*
X0273Y0315D02*
X0276D01*
X0273Y0295D02*
Y0315D01*
Y0295D02*
X0279D01*
Y0315*
X0276D02*
X0279D01*
X0276Y02941D02*
Y0295D01*
Y0315D02*
Y03159D01*
X0322Y0332D02*
X0325D01*
X0322Y0312D02*
Y0332D01*
Y0312D02*
X0328D01*
Y0332*
X0325D02*
X0328D01*
X0325Y03111D02*
Y0312D01*
Y0332D02*
Y03329D01*
X0353Y03315D02*
X0356D01*
X0353Y03115D02*
Y03315D01*
Y03115D02*
X0359D01*
Y03315*
X0356D02*
X0359D01*
X0356Y03106D02*
Y03115D01*
Y03315D02*
Y03324D01*
X0346Y0266D02*
X0349D01*
Y0286*
X0343D02*
X0349D01*
X0343Y0266D02*
Y0286D01*
Y0266D02*
X0346D01*
Y0286D02*
Y02869D01*
Y02651D02*
Y0266D01*
X0366Y03404D02*
X0386D01*
X0366Y02575D02*
Y03404D01*
Y02575D02*
X0386D01*
Y03404*
X02895Y02647D02*
X03104D01*
X03025Y03422D02*
X03104D01*
X02895D02*
X02975D01*
X03104Y02647D02*
Y03422D01*
X02895Y02647D02*
Y03422D01*
X03832Y03535D02*
Y03744D01*
X03057Y03665D02*
Y03744D01*
Y03535D02*
Y03615D01*
Y03744D02*
X03832D01*
X03057Y03535D02*
X03832D01*
X02915Y03615D02*
Y03715D01*
X02515Y03615D02*
X02915D01*
X02515Y03715D02*
X02915D01*
X02515Y03615D02*
Y03715D01*
X03307Y03382D02*
X03502D01*
X03307Y02997D02*
Y03382D01*
Y02997D02*
X03502D01*
Y03382*
X0291Y03763D02*
X029D01*
X02896Y03759*
Y0375*
X029Y03745*
X0291*
X02914Y0375*
Y03759*
X0291Y03763*
X02887Y03745D02*
Y03759D01*
X02882Y03763*
X02868*
Y03745*
X02855Y0374D02*
Y03745D01*
X02859*
X0285*
X02855*
Y03759*
X0285Y03763*
X02809Y03736D02*
Y03754D01*
X02799Y03763*
X0279Y03754*
Y03736*
X02763Y0374D02*
X02767Y03736D01*
X02776*
X02781Y0374*
Y03759*
X02776Y03763*
X02767*
X02763Y03759*
X02735Y0374D02*
X0274Y03736D01*
X02749*
X02754Y0374*
Y03759*
X02749Y03763*
X0274*
X02735Y03759*
X02698Y03736D02*
Y03754D01*
X02689Y03763*
X0268Y03754*
Y03736*
X02671D02*
Y03763D01*
X02657*
X02653Y03759*
Y0374*
X02657Y03736*
X02671*
X02643D02*
Y03763D01*
X0263*
X02625Y03759*
Y0374*
X0263Y03736*
X02643*
X0257Y0374D02*
X02574Y03736D01*
X02584*
X02588Y0374*
Y03759*
X02584Y03763*
X02574*
X0257Y03759*
Y0375*
X02579*
X02561Y03763D02*
Y03736D01*
X02542Y03763*
Y03736*
X02533D02*
Y03763D01*
X02519*
X02515Y03759*
Y0374*
X02519Y03736*
X02533*
G54D13*
X03Y03692D02*
X03033D01*
X03039Y03698*
Y03711*
X03033Y03718*
X03*
X03039Y03757D02*
Y03731D01*
X03013Y03757*
X03006*
X03Y03751*
Y03738*
X03006Y03731*
X02681Y02812D02*
X02708D01*
Y02798*
X02704Y02793*
X02695*
X0269Y02798*
Y02812*
Y02802D02*
X02681Y02793D01*
X02708Y02784D02*
X0269D01*
X02681Y02775*
X0269Y02766*
X02708*
X02681Y02757D02*
Y02747D01*
Y02752*
X02708*
X02704Y02757*
X02898Y02634D02*
Y02601D01*
X02905Y02595*
X02918*
X02925Y02601*
Y02634*
X02938Y02595D02*
X02951D01*
X02944*
Y02634*
X02938Y02628*
X0388Y02687D02*
X03919D01*
Y02667*
X03913Y02661*
X039*
X03893Y02667*
Y02687*
Y02674D02*
X0388Y02661D01*
X03919Y02648D02*
X03893D01*
X0388Y02635*
X03893Y02621*
X03919*
X03913Y02608D02*
X03919Y02602D01*
Y02589*
X03913Y02582*
X03906*
X039Y02589*
Y02595*
Y02589*
X03893Y02582*
X03886*
X0388Y02589*
Y02602*
X03886Y02608*
X03392Y03395D02*
Y03434D01*
X03412*
X03418Y03428*
Y03415*
X03412Y03408*
X03392*
X03405D02*
X03418Y03395D01*
X03431Y03434D02*
Y03408D01*
X03444Y03395*
X03457Y03408*
Y03434*
X03497Y03395D02*
X03471D01*
X03497Y03421*
Y03428*
X0349Y03434*
X03477*
X03471Y03428*
X0351Y02857D02*
X03549D01*
Y02838*
X03543Y02831*
X0353*
X03523Y02838*
Y02857*
Y02844D02*
X0351Y02831D01*
X03543Y02818D02*
X03549Y02811D01*
Y02798*
X03543Y02792*
X03536*
X0353Y02798*
X03523Y02792*
X03516*
X0351Y02798*
Y02811*
X03516Y02818*
X03523*
X0353Y02811*
X03536Y02818*
X03543*
X0353Y02811D02*
Y02798D01*
X03409Y02662D02*
X0337D01*
Y02681*
X03376Y02688*
X0339*
X03396Y02681*
Y02662*
Y02675D02*
X03409Y02688D01*
X0337Y02701D02*
Y02727D01*
X03376*
X03403Y02701*
X03409*
X03414Y02792D02*
X03375D01*
Y02811*
X03381Y02818*
X03395*
X03401Y02811*
Y02792*
Y02805D02*
X03414Y02818D01*
X03375Y02857D02*
X03381Y02844D01*
X03395Y02831*
X03408*
X03414Y02838*
Y02851*
X03408Y02857*
X03401*
X03395Y02851*
Y02831*
X03639Y03117D02*
X036D01*
Y03136*
X03606Y03143*
X0362*
X03626Y03136*
Y03117*
Y0313D02*
X03639Y03143D01*
X036Y03182D02*
Y03156D01*
X0362*
X03613Y03169*
Y03176*
X0362Y03182*
X03633*
X03639Y03176*
Y03163*
X03633Y03156*
X02719Y03247D02*
X0268D01*
Y03266*
X02686Y03273*
X027*
X02706Y03266*
Y03247*
Y0326D02*
X02719Y03273D01*
Y03306D02*
X0268D01*
X027Y03286*
Y03312*
X0323Y03022D02*
X03269D01*
Y03003*
X03263Y02996*
X0325*
X03243Y03003*
Y03022*
Y03009D02*
X0323Y02996D01*
X03263Y02983D02*
X03269Y02976D01*
Y02963*
X03263Y02957*
X03256*
X0325Y02963*
Y0297*
Y02963*
X03243Y02957*
X03236*
X0323Y02963*
Y02976*
X03236Y02983*
X0268Y03017D02*
X02719D01*
Y02998*
X02713Y02991*
X027*
X02693Y02998*
Y03017*
Y03004D02*
X0268Y02991D01*
Y02952D02*
Y02978D01*
X02706Y02952*
X02713*
X02719Y02958*
Y02971*
X02713Y02978*
X02589Y03388D02*
X0255D01*
Y03408*
X02556Y03415*
X0257*
X02576Y03408*
Y03388*
Y03401D02*
X02589Y03415D01*
Y03428D02*
Y03441D01*
Y03434*
X0255*
X02556Y03428*
X02485Y02687D02*
X02524D01*
X02485Y02661*
X02524*
Y02648D02*
Y02621D01*
Y02635*
X02485*
X02518Y02582D02*
X02524Y02589D01*
Y02602*
X02518Y02608*
X02491*
X02485Y02602*
Y02589*
X02491Y02582*
M02*