%FSTAX23Y23*%
%MOIN*%
%SFA1B1*%

%IPPOS*%
%ADD22C,0.010000*%
%ADD23C,0.009843*%
%ADD24C,0.023622*%
%ADD25C,0.007874*%
%LNntc-1*%
%LPD*%
G36*
X02812Y03771D02*
X02816D01*
Y03771*
X02818*
Y03771*
X02819*
Y03771*
X02821*
Y0377*
X02822*
Y0377*
X02824*
Y0377*
X02825*
Y0377*
X02826*
Y0377*
X02827*
Y03769*
X02828*
Y03769*
X02829*
Y03769*
X0283*
Y03769*
X02831*
Y03768*
X02832*
Y03768*
X02832*
Y03768*
X02833*
Y03768*
X02834*
Y03768*
X02834*
Y03767*
X02835*
Y03767*
X02836*
Y03767*
X02837*
Y03767*
X02837*
Y03767*
X02838*
Y03766*
X02839*
Y03766*
X02839*
Y03766*
Y03766*
X02839*
Y03766*
X0284*
Y03766*
X0284*
Y03765*
X02841*
Y03765*
X02841*
Y03765*
X02842*
Y03765*
X02843*
Y03765*
X02843*
Y03764*
X02843*
Y03764*
X02844*
Y03764*
X02845*
Y03764*
X02845*
Y03763*
X02845*
Y03763*
X02846*
Y03763*
X02846*
Y03763*
X02846*
Y03763*
Y03763*
X02847*
Y03763*
X02847*
Y03763*
X02847*
Y03763*
X02848*
Y03762*
X02848*
Y03762*
X02848*
Y03762*
X02849*
Y03762*
X02849*
Y03761*
X0285*
Y03761*
Y03761*
X0285*
Y03761*
X0285*
Y03761*
X0285*
Y03761*
X02851*
Y03761*
Y0376*
X02851*
Y0376*
X02851*
Y0376*
X02852*
Y0376*
X02852*
Y03759*
X02852*
Y03759*
X02852*
Y03759*
X02852*
Y03759*
Y03759*
X02853*
Y03758*
X02852*
Y03758*
X02853*
Y03758*
Y03758*
X02853*
Y03758*
Y03757*
Y03757*
X02853*
Y03757*
Y03757*
Y03756*
Y03756*
Y03756*
Y03756*
Y03756*
X02853*
Y03755*
Y03755*
Y03755*
Y03755*
X02853*
Y03754*
Y03754*
X02853*
Y03754*
Y03754*
X02852*
Y03754*
X02852*
Y03753*
X02852*
Y03753*
X02852*
Y03753*
X02852*
Y03753*
X02851*
Y03752*
X02851*
Y03752*
X02851*
Y03752*
X0285*
Y03752*
X0285*
Y03752*
X0285*
Y03751*
X02849*
Y03751*
X02849*
Y03751*
X02848*
Y03751*
X02848*
Y0375*
X02848*
Y0375*
X02847*
Y0375*
X02847*
Y0375*
X02846*
Y0375*
X02846*
Y03749*
X02845*
Y03749*
X02845*
Y03749*
X02844*
Y03749*
X02844*
Y03749*
X02843*
Y03748*
X02843*
Y03748*
X02842*
Y03748*
X02841*
Y03748*
X02841*
Y03747*
X02841*
Y03747*
X0284*
Y03747*
X0284*
Y03747*
X0284*
Y03747*
X02839*
Y03747*
X02839*
Y03747*
X02838*
Y03746*
X02838*
Y03746*
X02837*
Y03746*
X02837*
Y03746*
X02836*
Y03745*
X02836*
Y03745*
X02835*
Y03745*
X02835*
Y03745*
Y03745*
X02835*
Y03744*
Y03744*
Y03744*
Y03744*
Y03743*
Y03743*
X02835*
Y03743*
Y03743*
Y03743*
Y03742*
Y03742*
Y03742*
X02836*
Y03742*
X02835*
Y03741*
X02836*
Y03741*
Y03741*
Y03741*
Y03741*
Y0374*
X02836*
Y0374*
Y0374*
Y0374*
Y0374*
Y03739*
Y03739*
Y03739*
X02836*
Y03739*
Y03738*
Y03738*
Y03738*
Y03738*
Y03738*
Y03737*
Y03737*
X02836*
Y03737*
Y03737*
Y03736*
Y03736*
Y03736*
Y03736*
Y03736*
Y03735*
Y03735*
X02836*
Y03735*
Y03735*
Y03734*
Y03734*
Y03734*
Y03734*
Y03734*
Y03733*
Y03733*
X02837*
Y03733*
Y03733*
Y03732*
Y03732*
Y03732*
Y03732*
Y03732*
Y03731*
Y03731*
Y03731*
Y03731*
Y0373*
X02837*
Y0373*
Y0373*
Y0373*
Y0373*
Y03729*
Y03729*
Y03729*
Y03729*
Y03729*
Y03728*
Y03728*
Y03728*
Y03728*
Y03727*
X02837*
Y03727*
Y03727*
Y03727*
Y03727*
Y03726*
Y03726*
Y03726*
Y03726*
Y03725*
Y03725*
Y03725*
Y03725*
Y03725*
Y03724*
Y03724*
Y03724*
Y03724*
Y03723*
Y03723*
Y03723*
Y03723*
Y03723*
X02837*
Y03722*
Y03722*
Y03722*
Y03722*
Y03721*
Y03721*
Y03721*
Y03721*
Y03721*
Y0372*
Y0372*
Y0372*
Y0372*
Y0372*
Y03719*
Y03719*
Y03719*
Y03719*
Y03718*
Y03718*
Y03718*
Y03718*
Y03718*
Y03717*
Y03717*
Y03717*
Y03717*
Y03716*
Y03716*
Y03716*
Y03716*
Y03716*
Y03715*
Y03715*
Y03715*
Y03715*
Y03714*
Y03714*
Y03714*
Y03714*
Y03714*
Y03713*
Y03713*
Y03713*
Y03713*
Y03712*
Y03712*
Y03712*
Y03712*
Y03712*
Y03711*
Y03711*
Y03711*
Y03711*
Y03711*
Y0371*
Y0371*
Y0371*
Y0371*
Y03709*
Y03709*
Y03709*
Y03709*
Y03709*
Y03708*
Y03708*
X02837*
Y03708*
Y03708*
Y03707*
Y03707*
Y03707*
Y03707*
Y03707*
Y03706*
Y03706*
Y03706*
Y03706*
Y03705*
Y03705*
Y03705*
Y03705*
Y03705*
Y03704*
Y03704*
Y03704*
Y03704*
Y03703*
Y03703*
Y03703*
Y03703*
X02837*
Y03703*
Y03702*
Y03702*
Y03702*
Y03702*
Y03702*
Y03701*
Y03701*
Y03701*
Y03701*
Y037*
Y037*
Y037*
Y037*
Y037*
Y03699*
Y03699*
Y03699*
Y03699*
X02837*
Y03698*
Y03698*
Y03698*
Y03698*
Y03698*
Y03697*
Y03697*
Y03697*
X02836*
Y03697*
X02837*
Y03696*
Y03696*
Y03696*
Y03696*
Y03696*
Y03695*
X02836*
Y03695*
Y03695*
Y03695*
Y03694*
Y03694*
Y03694*
Y03694*
Y03694*
Y03693*
Y03693*
Y03693*
Y03693*
X02836*
Y03692*
Y03692*
Y03692*
Y03692*
Y03692*
Y03691*
Y03691*
Y03691*
Y03691*
Y03691*
Y0369*
Y0369*
Y0369*
Y0369*
X02836*
Y03689*
Y03689*
Y03689*
Y03689*
Y03689*
Y03688*
Y03688*
Y03688*
Y03688*
Y03687*
Y03687*
Y03687*
X02836*
Y03687*
Y03687*
Y03686*
Y03686*
Y03686*
Y03686*
Y03685*
Y03685*
Y03685*
Y03685*
Y03685*
X02836*
Y03684*
Y03684*
X02836*
Y03684*
Y03684*
X02836*
Y03683*
Y03683*
X02836*
Y03683*
Y03683*
X02836*
Y03683*
Y03682*
X02837*
Y03682*
X02837*
Y03682*
Y03682*
X02837*
Y03682*
Y03681*
X02837*
Y03681*
Y03681*
X02837*
Y03681*
Y0368*
X02838*
Y0368*
X02838*
Y0368*
Y0368*
X02838*
Y0368*
X02838*
Y03679*
X02838*
Y03679*
Y03679*
X02839*
Y03679*
Y03678*
X02839*
Y03678*
Y03678*
X02839*
Y03678*
X02839*
Y03678*
Y03677*
X02839*
Y03677*
Y03677*
X0284*
Y03677*
Y03676*
X0284*
Y03676*
Y03676*
X0284*
Y03676*
Y03676*
X0284*
Y03675*
Y03675*
X02841*
Y03675*
X02841*
Y03675*
Y03674*
X02841*
Y03674*
Y03674*
X02841*
Y03674*
Y03674*
X02841*
Y03673*
Y03673*
X02842*
Y03673*
Y03673*
X02842*
Y03673*
Y03672*
X02842*
Y03672*
X02842*
Y03672*
Y03672*
Y03671*
X02843*
Y03671*
X02843*
Y03671*
Y03671*
X02843*
Y03671*
Y0367*
X02843*
Y0367*
Y0367*
X02843*
Y0367*
Y03669*
X02844*
Y03669*
Y03669*
X02844*
Y03669*
Y03669*
X02844*
Y03668*
Y03668*
X02844*
Y03668*
Y03668*
X02845*
Y03667*
Y03667*
X02845*
Y03667*
Y03667*
X02845*
Y03667*
X02845*
Y03667*
Y03667*
X02845*
Y03667*
Y03667*
Y03668*
Y03668*
X02846*
Y03668*
Y03668*
Y03669*
X02846*
Y03669*
Y03669*
Y03669*
Y03669*
X02846*
Y0367*
Y0367*
Y0367*
X02846*
Y0367*
Y03671*
Y03671*
Y03671*
X02847*
Y03671*
Y03671*
Y03672*
X02847*
Y03672*
Y03672*
Y03672*
Y03673*
X02847*
Y03673*
Y03673*
Y03673*
X02847*
Y03673*
Y03674*
Y03674*
X02847*
Y03674*
X02848*
Y03674*
X02847*
Y03674*
Y03675*
X02848*
Y03675*
Y03675*
Y03675*
X02848*
Y03676*
Y03676*
Y03676*
Y03676*
X02848*
Y03676*
Y03677*
Y03677*
X02848*
Y03677*
Y03677*
Y03678*
X02848*
Y03678*
Y03678*
Y03678*
Y03678*
X02849*
Y03679*
Y03679*
Y03679*
X02849*
Y03679*
Y0368*
Y0368*
X02849*
Y0368*
Y0368*
Y0368*
X02849*
Y03681*
Y03681*
Y03681*
Y03681*
X0285*
Y03682*
X0285*
Y03682*
X0285*
Y03682*
X0285*
Y03682*
Y03682*
Y03683*
X0285*
Y03682*
X0285*
Y03683*
X0285*
Y03683*
Y03683*
Y03683*
X0285*
Y03683*
Y03684*
Y03684*
X0285*
Y03684*
Y03684*
Y03685*
Y03685*
X02851*
Y03685*
Y03685*
Y03685*
X02851*
Y03686*
Y03686*
Y03686*
X02851*
Y03686*
Y03687*
Y03687*
X02851*
Y03687*
Y03687*
Y03687*
X02852*
Y03688*
Y03688*
Y03688*
X02852*
Y03688*
Y03689*
Y03689*
X02852*
Y03689*
Y03689*
Y03689*
X02852*
Y0369*
Y0369*
Y0369*
X02852*
Y0369*
Y03691*
Y03691*
X02853*
Y03691*
Y03691*
Y03691*
X02853*
Y03692*
Y03692*
Y03692*
X02853*
Y03692*
Y03692*
Y03693*
X02853*
Y03693*
Y03693*
Y03693*
X02854*
Y03694*
Y03694*
Y03694*
X02854*
Y03694*
Y03694*
Y03695*
X02854*
Y03695*
Y03695*
Y03695*
X02854*
Y03696*
Y03696*
Y03696*
X02854*
Y03696*
Y03696*
Y03697*
X02855*
Y03697*
Y03697*
Y03697*
X02855*
Y03698*
Y03698*
Y03698*
X02855*
Y03698*
Y03698*
Y03699*
X02855*
Y03699*
Y03699*
Y03699*
X02856*
Y037*
Y037*
Y037*
X02856*
Y037*
Y037*
X02856*
Y03701*
Y03701*
Y03701*
X02856*
Y03701*
Y03702*
Y03702*
X02856*
Y03702*
Y03702*
Y03702*
X02857*
Y03703*
X02857*
Y03703*
X02857*
Y03703*
X02857*
Y03703*
Y03703*
Y03704*
X02857*
Y03704*
Y03704*
X02857*
Y03704*
Y03705*
Y03705*
X02857*
Y03705*
Y03705*
Y03705*
X02858*
Y03706*
Y03706*
Y03706*
X02858*
Y03706*
Y03707*
X02858*
Y03707*
Y03707*
Y03707*
X02858*
Y03707*
Y03708*
Y03708*
X02859*
Y03708*
Y03708*
X02859*
Y03709*
Y03709*
Y03709*
X02859*
Y03709*
X02858*
Y03709*
X02858*
Y0371*
X02858*
Y0371*
X02858*
Y0371*
X02858*
Y0371*
X02857*
Y03711*
Y03711*
X02857*
Y03711*
Y03711*
X02857*
Y03711*
Y03712*
Y03712*
X02857*
Y03712*
Y03712*
Y03712*
Y03713*
Y03713*
X02857*
Y03713*
Y03713*
Y03714*
Y03714*
Y03714*
Y03714*
Y03714*
Y03715*
Y03715*
Y03715*
X02857*
Y03715*
X02857*
Y03716*
X02857*
Y03716*
Y03716*
Y03716*
X02857*
Y03716*
Y03717*
Y03717*
X02857*
Y03717*
Y03717*
X02857*
Y03718*
Y03718*
Y03718*
X02858*
Y03718*
Y03718*
X02858*
Y03719*
Y03719*
Y03719*
X02858*
Y03719*
X02859*
Y0372*
Y0372*
X02859*
Y0372*
X02859*
Y0372*
Y0372*
X02859*
Y03721*
X02859*
Y03721*
X0286*
Y03721*
X0286*
Y03721*
X0286*
Y03721*
X02861*
Y03722*
X02861*
Y03722*
Y03722*
Y03722*
Y03723*
X02861*
Y03722*
X02862*
Y03723*
X02861*
Y03723*
Y03723*
Y03723*
Y03723*
Y03724*
Y03724*
Y03724*
Y03724*
Y03725*
Y03725*
X02862*
Y03725*
Y03725*
X02862*
Y03725*
X02862*
Y03726*
Y03726*
X02862*
Y03726*
Y03726*
Y03727*
Y03727*
Y03727*
Y03727*
X02862*
Y03727*
Y03728*
Y03728*
X02861*
Y03728*
Y03728*
X02861*
Y03729*
Y03729*
X02861*
Y03729*
Y03729*
X02861*
Y03729*
X02861*
Y0373*
X0286*
Y0373*
X0286*
Y0373*
X0286*
Y0373*
X0286*
Y0373*
X02859*
Y03731*
Y03731*
Y03731*
Y03731*
Y03732*
Y03732*
Y03732*
Y03732*
X0286*
Y03732*
Y03733*
X0286*
Y03733*
X0286*
Y03733*
X02861*
Y03733*
X02861*
Y03733*
Y03733*
X02861*
Y03733*
X02862*
Y03733*
X02863*
Y03733*
X02863*
Y03732*
X02863*
Y03732*
X02863*
Y03732*
X02863*
Y03732*
X02864*
Y03732*
Y03731*
X02864*
Y03731*
X02864*
Y03731*
X02864*
Y03731*
Y0373*
X02865*
Y0373*
Y0373*
X02865*
Y0373*
Y0373*
Y03729*
Y03729*
X02865*
Y03729*
Y03729*
X02865*
Y03729*
Y03728*
Y03728*
X02865*
Y03728*
Y03728*
Y03727*
Y03727*
Y03727*
X02866*
Y03727*
Y03727*
Y03726*
Y03726*
Y03726*
Y03726*
Y03725*
Y03725*
Y03725*
Y03725*
Y03725*
Y03724*
Y03724*
Y03724*
Y03724*
Y03723*
X02865*
Y03723*
X02868*
Y03723*
X0287*
Y03723*
X0287*
Y03723*
X0287*
Y03723*
X02871*
Y03723*
X02872*
Y03723*
X02872*
Y03723*
X02873*
Y03724*
X02877*
Y03723*
X02878*
Y03723*
X02883*
Y03723*
X02885*
Y03723*
X02885*
Y03723*
X02885*
Y03722*
X02885*
Y03722*
X02886*
Y03722*
Y03722*
X02886*
Y03721*
Y03721*
Y03721*
Y03721*
Y03721*
X02886*
Y0372*
Y0372*
X02885*
Y0372*
Y0372*
X02885*
Y0372*
X02884*
Y03719*
X02884*
Y0372*
X02879*
Y0372*
X02877*
Y0372*
X02876*
Y0372*
X02874*
Y0372*
X02873*
Y0372*
X02872*
Y0372*
X02872*
Y03719*
X02872*
Y03719*
X02872*
Y03719*
X02871*
Y03719*
Y03718*
X02871*
Y03718*
X02871*
Y03718*
Y03718*
Y03718*
X02871*
Y03717*
Y03717*
Y03717*
X0287*
Y03717*
Y03716*
Y03716*
X0287*
Y03716*
X0287*
Y03716*
X0287*
Y03716*
Y03715*
Y03715*
X0287*
Y03715*
Y03715*
Y03714*
Y03714*
Y03714*
X0287*
Y03714*
Y03714*
Y03713*
Y03713*
X0287*
Y03713*
Y03713*
Y03712*
X02869*
Y03712*
Y03712*
Y03712*
X02869*
Y03712*
Y03711*
X02869*
Y03711*
Y03711*
X02869*
Y03711*
Y03711*
X02868*
Y0371*
Y0371*
X02868*
Y0371*
Y0371*
X02868*
Y03709*
X02868*
Y03709*
X02867*
Y03709*
Y03709*
X02867*
Y03709*
X02867*
Y03708*
X02866*
Y03708*
Y03708*
X02866*
Y03708*
X02866*
Y03707*
X02865*
Y03707*
X02864*
Y03707*
X02863*
Y03707*
X02862*
Y03707*
X02862*
Y03707*
Y03707*
Y03706*
X02862*
Y03706*
Y03706*
Y03706*
X02861*
Y03705*
Y03705*
Y03705*
X02861*
Y03705*
Y03705*
X02861*
Y03704*
Y03704*
Y03704*
X02861*
Y03704*
Y03703*
Y03703*
X02861*
Y03703*
Y03703*
Y03703*
X0286*
Y03702*
Y03702*
Y03702*
X0286*
Y03702*
Y03702*
X0286*
Y03701*
Y03701*
Y03701*
X0286*
Y03701*
Y037*
Y037*
X02859*
Y037*
Y037*
Y037*
X02859*
Y03699*
Y03699*
Y03699*
X02859*
Y03699*
Y03698*
X02859*
Y03698*
X02859*
Y03698*
X02859*
Y03698*
X02859*
Y03698*
Y03697*
Y03697*
X02858*
Y03697*
Y03697*
Y03696*
X02858*
Y03696*
Y03696*
Y03696*
X02858*
Y03696*
Y03695*
Y03695*
X02858*
Y03695*
Y03695*
X02857*
Y03694*
Y03694*
Y03694*
Y03694*
X02857*
Y03694*
Y03693*
Y03693*
X02857*
Y03693*
Y03693*
Y03692*
X02857*
Y03692*
Y03692*
Y03692*
X02857*
Y03692*
Y03691*
X02856*
Y03691*
Y03691*
Y03691*
Y03691*
X02856*
Y0369*
X02856*
Y0369*
Y0369*
X02856*
Y0369*
Y03689*
Y03689*
X02856*
Y03689*
Y03689*
Y03689*
X02856*
Y03688*
Y03688*
Y03688*
X02855*
Y03688*
Y03687*
Y03687*
X02855*
Y03687*
Y03687*
Y03687*
X02855*
Y03686*
X02855*
Y03686*
Y03686*
X02855*
Y03686*
Y03685*
Y03685*
X02854*
Y03685*
Y03685*
Y03685*
X02854*
Y03684*
Y03684*
Y03684*
X02854*
Y03684*
Y03683*
Y03683*
Y03683*
X02854*
Y03683*
Y03683*
Y03682*
X02854*
Y03682*
Y03682*
Y03682*
X02853*
Y03682*
Y03681*
Y03681*
X02853*
Y03681*
Y03681*
Y0368*
X02853*
Y0368*
Y0368*
Y0368*
Y0368*
X02852*
Y03679*
X02853*
Y03679*
Y03679*
X02852*
Y03679*
Y03678*
Y03678*
X02852*
Y03678*
Y03678*
Y03678*
X02852*
Y03677*
Y03677*
Y03677*
Y03677*
X02852*
Y03676*
Y03676*
Y03676*
X02852*
Y03676*
Y03676*
Y03675*
X02851*
Y03675*
Y03675*
Y03675*
Y03674*
X02851*
Y03674*
Y03674*
Y03674*
X02851*
Y03674*
X02851*
Y03673*
Y03673*
X02851*
Y03673*
Y03673*
Y03673*
Y03672*
X0285*
Y03672*
Y03672*
Y03672*
X0285*
Y03671*
Y03671*
Y03671*
Y03671*
X0285*
Y03671*
Y0367*
Y0367*
X0285*
Y0367*
X0285*
Y0367*
X0285*
Y03669*
Y03669*
X0285*
Y03669*
Y03669*
Y03669*
X02849*
Y03668*
Y03668*
Y03668*
Y03668*
X02849*
Y03667*
Y03667*
Y03667*
X02849*
Y03667*
Y03667*
Y03666*
X02849*
Y03666*
Y03666*
Y03666*
Y03665*
X02848*
Y03665*
Y03665*
Y03665*
Y03665*
X02848*
Y03664*
Y03664*
Y03664*
Y03664*
X02848*
Y03664*
Y03663*
Y03663*
X02848*
Y03663*
Y03663*
Y03662*
Y03662*
X02848*
Y03662*
Y03662*
Y03662*
X02847*
Y03661*
Y03661*
Y03661*
Y03661*
X02847*
Y0366*
Y0366*
X02847*
Y0366*
X02847*
Y0366*
X02847*
Y0366*
X02845*
Y0366*
X02845*
Y0366*
X02844*
Y0366*
X02844*
Y0366*
X02844*
Y03661*
Y03661*
X02844*
Y03661*
Y03661*
X02843*
Y03662*
Y03662*
X02843*
Y03662*
Y03662*
X02843*
Y03662*
Y03663*
X02843*
Y03663*
Y03663*
X02843*
Y03663*
Y03664*
Y03664*
X02842*
Y03664*
X02842*
Y03664*
Y03664*
X02842*
Y03665*
Y03665*
X02842*
Y03665*
Y03665*
Y03665*
X02841*
Y03666*
X02841*
Y03666*
Y03666*
X02841*
Y03666*
Y03667*
X02841*
Y03667*
Y03667*
X02841*
Y03667*
Y03667*
X0284*
Y03668*
Y03668*
X0284*
Y03668*
Y03668*
X0284*
Y03669*
Y03669*
X0284*
Y03669*
Y03669*
X02839*
Y03669*
Y0367*
X02839*
Y0367*
Y0367*
X02839*
Y0367*
Y03671*
X02839*
Y03671*
X02839*
Y03671*
Y03671*
X02838*
Y03671*
Y03672*
X02838*
Y03672*
Y03672*
X02838*
Y03672*
Y03673*
X02838*
Y03673*
Y03673*
X02837*
Y03673*
Y03673*
X02837*
Y03674*
Y03674*
X02837*
Y03674*
X02837*
Y03674*
Y03674*
X02837*
Y03675*
Y03675*
X02836*
Y03675*
Y03675*
X02836*
Y03676*
Y03676*
X02836*
Y03676*
Y03676*
X02836*
Y03676*
Y03677*
X02836*
Y03677*
X02835*
Y03677*
Y03677*
X02835*
Y03677*
Y03677*
Y03677*
Y03676*
Y03676*
Y03676*
Y03676*
Y03676*
X02835*
Y03675*
Y03675*
Y03675*
Y03675*
Y03674*
Y03674*
Y03674*
Y03674*
Y03674*
Y03673*
X02834*
Y03673*
Y03673*
Y03673*
Y03673*
Y03672*
Y03672*
Y03672*
Y03672*
Y03671*
Y03671*
X02834*
Y03671*
Y03671*
Y03671*
Y0367*
Y0367*
Y0367*
Y0367*
Y03669*
Y03669*
X02834*
Y03669*
Y03669*
Y03669*
Y03668*
Y03668*
Y03668*
Y03668*
Y03667*
Y03667*
Y03667*
X02834*
Y03667*
Y03667*
Y03666*
Y03666*
Y03666*
Y03666*
Y03665*
Y03665*
Y03665*
Y03665*
X02834*
Y03665*
Y03664*
Y03664*
Y03664*
Y03664*
Y03664*
Y03663*
Y03663*
Y03663*
X02833*
Y03663*
Y03662*
Y03662*
Y03662*
Y03662*
Y03662*
Y03661*
Y03661*
Y03661*
Y03661*
X02833*
Y0366*
Y0366*
Y0366*
Y0366*
Y0366*
Y03659*
Y03659*
Y03659*
Y03659*
Y03658*
X02833*
Y03658*
Y03658*
Y03658*
Y03658*
Y03657*
Y03657*
Y03657*
Y03657*
X02833*
Y03656*
Y03656*
X02832*
Y03656*
X02832*
Y03656*
X02832*
Y03656*
X0283*
Y03656*
X0283*
Y03656*
X0283*
Y03656*
X02829*
Y03656*
Y03657*
X02829*
Y03657*
Y03657*
Y03657*
X02829*
Y03658*
Y03658*
Y03658*
Y03658*
Y03658*
Y03659*
Y03659*
Y03659*
Y03659*
Y0366*
Y0366*
X0283*
Y0366*
Y0366*
Y0366*
Y03661*
Y03661*
Y03661*
Y03661*
Y03662*
Y03662*
Y03662*
Y03662*
X0283*
Y03662*
Y03663*
Y03663*
Y03663*
Y03663*
Y03664*
Y03664*
Y03664*
Y03664*
Y03664*
X0283*
Y03665*
Y03665*
Y03665*
Y03665*
Y03665*
Y03666*
Y03666*
Y03666*
Y03666*
Y03667*
X0283*
Y03667*
Y03667*
Y03667*
Y03667*
Y03668*
Y03668*
Y03668*
Y03668*
Y03669*
Y03669*
X0283*
Y03669*
Y03669*
Y03669*
Y0367*
Y0367*
X02831*
Y0367*
X0283*
Y0367*
Y03671*
Y03671*
Y03671*
Y03671*
X02831*
Y03671*
Y03672*
Y03672*
Y03672*
Y03672*
Y03673*
Y03673*
Y03673*
Y03673*
X02831*
Y03673*
Y03674*
Y03674*
Y03674*
Y03674*
Y03674*
Y03675*
Y03675*
Y03675*
Y03675*
Y03676*
X02831*
Y03676*
Y03676*
Y03676*
Y03676*
Y03677*
Y03677*
Y03677*
Y03677*
Y03678*
Y03678*
X02831*
Y03678*
Y03678*
Y03678*
Y03679*
Y03679*
Y03679*
Y03679*
Y0368*
Y0368*
Y0368*
Y0368*
X02832*
Y0368*
Y03681*
Y03681*
Y03681*
Y03681*
Y03682*
Y03682*
Y03682*
Y03682*
Y03682*
Y03683*
X02832*
Y03683*
Y03683*
Y03683*
Y03683*
Y03684*
Y03684*
Y03684*
Y03684*
Y03685*
Y03685*
X02832*
Y03685*
X02832*
Y03685*
X02832*
Y03685*
Y03686*
Y03686*
Y03686*
Y03686*
Y03687*
Y03687*
Y03687*
Y03687*
X02832*
Y03687*
Y03688*
Y03688*
Y03688*
Y03688*
Y03689*
Y03689*
Y03689*
Y03689*
Y03689*
Y0369*
Y0369*
X02832*
Y0369*
Y0369*
Y03691*
Y03691*
Y03691*
Y03691*
Y03691*
Y03692*
Y03692*
Y03692*
Y03692*
Y03692*
X02833*
Y03693*
Y03693*
Y03693*
Y03693*
Y03694*
Y03694*
Y03694*
Y03694*
Y03694*
Y03695*
Y03695*
Y03695*
Y03695*
X02833*
Y03696*
Y03696*
Y03696*
Y03696*
Y03696*
Y03697*
Y03697*
Y03697*
Y03697*
Y03698*
Y03698*
Y03698*
Y03698*
Y03698*
Y03699*
X02833*
Y03699*
Y03699*
Y03699*
Y037*
Y037*
Y037*
Y037*
Y037*
Y03701*
Y03701*
Y03701*
Y03701*
Y03702*
Y03702*
X02833*
Y03702*
X02833*
Y03702*
Y03702*
X02833*
Y03703*
Y03703*
Y03703*
Y03703*
Y03703*
Y03704*
Y03704*
Y03704*
Y03704*
Y03705*
Y03705*
Y03705*
Y03705*
Y03705*
Y03706*
Y03706*
Y03706*
Y03706*
Y03707*
Y03707*
Y03707*
Y03707*
X02834*
Y03707*
Y03708*
Y03708*
Y03708*
Y03708*
Y03709*
Y03709*
Y03709*
Y03709*
Y03709*
Y0371*
Y0371*
Y0371*
Y0371*
Y03711*
Y03711*
Y03711*
Y03711*
Y03711*
Y03712*
Y03712*
Y03712*
Y03712*
Y03712*
Y03713*
Y03713*
Y03713*
Y03713*
Y03714*
Y03714*
Y03714*
Y03714*
Y03714*
Y03715*
Y03715*
Y03715*
Y03715*
Y03716*
Y03716*
Y03716*
Y03716*
Y03716*
Y03717*
Y03717*
Y03717*
Y03717*
Y03718*
Y03718*
Y03718*
Y03718*
Y03718*
Y03719*
Y03719*
Y03719*
Y03719*
Y0372*
Y0372*
Y0372*
Y0372*
Y0372*
Y03721*
Y03721*
Y03721*
Y03721*
Y03721*
Y03722*
Y03722*
Y03722*
Y03722*
Y03723*
Y03723*
Y03723*
Y03723*
Y03723*
Y03724*
Y03724*
Y03724*
Y03724*
Y03725*
X02833*
Y03725*
Y03725*
Y03725*
Y03725*
Y03726*
Y03726*
Y03726*
Y03726*
Y03727*
Y03727*
Y03727*
Y03727*
Y03727*
Y03728*
Y03728*
Y03728*
Y03728*
Y03729*
X02833*
Y03729*
Y03729*
Y03729*
Y03729*
Y0373*
Y0373*
Y0373*
Y0373*
Y0373*
Y03731*
Y03731*
Y03731*
Y03731*
X02833*
Y03732*
Y03732*
Y03732*
Y03732*
Y03732*
Y03733*
Y03733*
Y03733*
Y03733*
Y03734*
X02833*
Y03734*
X02833*
Y03734*
Y03734*
Y03734*
Y03735*
Y03735*
Y03735*
Y03735*
Y03736*
Y03736*
X02832*
Y03736*
Y03736*
Y03736*
Y03737*
Y03737*
Y03737*
Y03737*
Y03738*
Y03738*
X02832*
Y03738*
Y03738*
Y03738*
Y03739*
Y03739*
Y03739*
Y03739*
X02832*
Y0374*
Y0374*
Y0374*
Y0374*
Y0374*
Y03741*
Y03741*
X02832*
Y03741*
Y03741*
Y03741*
Y03742*
Y03742*
Y03742*
X02832*
Y03742*
Y03743*
Y03743*
Y03743*
Y03743*
Y03743*
X02831*
Y03744*
X02831*
Y03743*
X0283*
Y03743*
X0283*
Y03743*
X02829*
Y03743*
X02828*
Y03743*
X02828*
Y03742*
Y03742*
Y03742*
Y03742*
Y03741*
Y03741*
Y03741*
Y03741*
Y03741*
Y0374*
X02828*
Y0374*
Y0374*
Y0374*
Y0374*
Y03739*
Y03739*
Y03739*
X02828*
Y03739*
Y03738*
Y03738*
Y03738*
Y03738*
X02828*
Y03738*
Y03737*
Y03737*
Y03737*
X02827*
Y03737*
Y03736*
Y03736*
Y03736*
X02827*
Y03736*
Y03736*
Y03735*
X02827*
Y03735*
Y03735*
Y03735*
X02827*
Y03734*
Y03734*
Y03734*
X02827*
Y03734*
Y03734*
X02826*
Y03733*
Y03733*
Y03733*
X02826*
Y03733*
Y03732*
X02826*
Y03732*
Y03732*
X02826*
Y03732*
Y03732*
X02825*
Y03731*
Y03731*
X02825*
Y03731*
Y03731*
X02825*
Y0373*
Y0373*
X02825*
Y0373*
Y0373*
X02825*
Y0373*
X02824*
Y03729*
Y03729*
X02824*
Y03729*
Y03729*
X02824*
Y03729*
Y03728*
Y03728*
X02823*
Y03728*
X02823*
Y03728*
Y03727*
X02823*
Y03727*
X02823*
Y03727*
X02823*
Y03727*
Y03727*
X02822*
Y03726*
X02822*
Y03726*
X02822*
Y03726*
Y03726*
X02822*
Y03725*
X02821*
Y03725*
X02821*
Y03725*
X02821*
Y03725*
X02821*
Y03725*
X02821*
Y03724*
X0282*
Y03724*
X0282*
Y03724*
X0282*
Y03724*
Y03723*
X02819*
Y03723*
X02819*
Y03723*
X02819*
Y03723*
X02819*
Y03723*
X02819*
Y03722*
X02818*
Y03722*
X02818*
Y03722*
X02818*
Y03722*
X02818*
Y03721*
X02817*
Y03721*
X02817*
Y03721*
X02817*
Y03721*
X02817*
Y03721*
X02816*
Y0372*
X02816*
Y0372*
X02816*
Y0372*
X02815*
Y0372*
X02815*
Y0372*
X02815*
Y03719*
X02814*
Y03719*
X02814*
Y03719*
X02814*
Y03719*
X02813*
Y03719*
X02814*
Y03719*
X02813*
Y03718*
X02813*
Y03718*
X02812*
Y03718*
X02812*
Y03718*
X02812*
Y03718*
X02811*
Y03717*
X02811*
Y03717*
X0281*
Y03717*
X0281*
Y03717*
X02809*
Y03716*
X02809*
Y03716*
X02808*
Y03716*
X02808*
Y03716*
X02808*
Y03716*
X02808*
Y03716*
X02807*
Y03716*
X02807*
Y03715*
X02806*
Y03715*
X02805*
Y03715*
X02804*
Y03715*
X02803*
Y03714*
X02803*
Y03714*
X02801*
Y03714*
X028*
Y03714*
X02798*
Y03714*
X02795*
Y03713*
X02794*
Y03714*
X0279*
Y03714*
X02788*
Y03714*
X02787*
Y03714*
X02786*
Y03714*
X02785*
Y03715*
X02784*
Y03715*
X02783*
Y03715*
X02782*
Y03715*
X02781*
Y03716*
X0278*
Y03716*
X0278*
Y03716*
X02779*
Y03716*
X02778*
Y03716*
X02778*
Y03717*
X02777*
Y03717*
X02777*
Y03717*
X02776*
Y03717*
X02776*
Y03718*
X02775*
Y03718*
X02775*
Y03718*
X02774*
Y03718*
X02774*
Y03718*
X02773*
Y03719*
X02773*
Y03719*
X02772*
Y03719*
X02772*
Y03719*
X02771*
Y0372*
X02771*
Y0372*
X02771*
Y0372*
X0277*
Y0372*
X0277*
Y0372*
X02769*
Y03721*
X02769*
Y03721*
X02769*
Y03721*
X02768*
Y03721*
X02768*
Y03721*
X02767*
Y03722*
X02767*
Y03722*
X02767*
Y03722*
X02767*
Y03722*
X02766*
Y03723*
X02766*
Y03723*
X02765*
Y03723*
X02765*
Y03723*
X02765*
Y03723*
X02764*
Y03724*
X02764*
Y03724*
X02764*
Y03724*
X02763*
Y03724*
X02763*
Y03725*
X02763*
Y03725*
X02762*
Y03725*
X02762*
Y03725*
X02762*
Y03725*
X02762*
Y03726*
X02761*
Y03726*
X02761*
Y03726*
X02761*
Y03726*
X0276*
Y03727*
X0276*
Y03727*
X0276*
Y03727*
X0276*
Y03727*
X02759*
Y03727*
X02759*
Y03728*
X02759*
Y03728*
X02758*
Y03728*
X02758*
Y03728*
X02758*
Y03729*
X02758*
Y03729*
X02757*
Y03729*
X02757*
Y03729*
X02757*
Y03729*
X02757*
Y0373*
X02756*
Y0373*
X02756*
Y0373*
X02756*
Y0373*
X02756*
Y0373*
X02756*
Y03731*
X02755*
Y03731*
X02755*
Y03731*
X02755*
Y03731*
X02755*
Y03732*
Y03732*
X02754*
Y03732*
X02754*
Y03732*
Y03732*
X02754*
Y03733*
Y03733*
X02754*
Y03733*
Y03733*
Y03734*
X02754*
Y03734*
Y03734*
Y03734*
Y03734*
Y03735*
Y03735*
Y03735*
Y03735*
Y03736*
Y03736*
Y03736*
Y03736*
X02754*
Y03736*
Y03737*
X02754*
Y03737*
Y03737*
X02754*
Y03737*
Y03738*
X02755*
Y03738*
Y03738*
X02755*
Y03738*
X02755*
Y03738*
X02756*
Y03739*
X02756*
Y03739*
X02756*
Y03739*
X02757*
Y03739*
X02762*
Y03739*
X02764*
Y03739*
X02766*
Y03739*
X02769*
Y03738*
X02771*
Y03738*
X02772*
Y03738*
X02772*
Y03738*
X02785*
Y03738*
X02788*
Y03738*
X02788*
Y03738*
X02789*
Y03739*
X02792*
Y03739*
X02794*
Y03739*
X02796*
Y03739*
X02796*
Y03739*
X02797*
Y03739*
X02798*
Y0374*
X028*
Y0374*
X02801*
Y0374*
X02803*
Y0374*
X02804*
Y0374*
X02805*
Y03741*
X02806*
Y03741*
X02808*
Y03741*
X02809*
Y03741*
X0281*
Y03741*
X02811*
Y03742*
X02812*
Y03742*
X02813*
Y03742*
X02814*
Y03742*
X02815*
Y03743*
X02816*
Y03743*
X02816*
Y03743*
X02817*
Y03743*
X02818*
Y03743*
X02819*
Y03744*
X0282*
Y03744*
X0282*
Y03744*
X02821*
Y03744*
X02822*
Y03745*
X02823*
Y03745*
X02823*
Y03745*
X02824*
Y03745*
X02825*
Y03745*
X02825*
Y03745*
X02826*
Y03745*
Y03746*
X02826*
Y03746*
X02827*
Y03746*
X02827*
Y03746*
X02828*
Y03746*
Y03746*
X02828*
Y03747*
X02829*
Y03747*
X0283*
Y03747*
X0283*
Y03747*
X02831*
Y03747*
X02831*
Y03748*
X02832*
Y03748*
X02832*
Y03748*
X02833*
Y03748*
X02834*
Y03749*
X02834*
Y03749*
X02835*
Y03749*
X02835*
Y03749*
X02836*
Y03749*
X02836*
Y0375*
X02837*
Y0375*
X02837*
Y0375*
X02838*
Y0375*
X02839*
Y0375*
X02839*
Y03751*
X02839*
Y03751*
X0284*
Y03751*
X02841*
Y03751*
X02841*
Y03752*
X02841*
Y03752*
X02842*
Y03752*
X02843*
Y03752*
X02843*
Y03752*
X02843*
Y03753*
X02844*
Y03753*
X02844*
Y03753*
X02845*
Y03753*
X02845*
Y03754*
X02846*
Y03754*
X02846*
Y03754*
X02847*
Y03754*
X02847*
Y03754*
X02848*
Y03755*
X02848*
Y03755*
X02848*
Y03755*
X02849*
Y03755*
X02849*
Y03756*
X02849*
Y03756*
X0285*
Y03756*
Y03756*
X0285*
Y03756*
X0285*
Y03757*
Y03757*
X02849*
Y03757*
X02849*
Y03757*
X02849*
Y03758*
X02849*
Y03758*
X02848*
Y03758*
X02848*
Y03758*
X02848*
Y03758*
X02847*
Y03759*
X02847*
Y03759*
X02847*
Y03759*
X02846*
Y03759*
X02846*
Y03759*
X02845*
Y0376*
X02845*
Y0376*
X02844*
Y0376*
Y0376*
X02844*
Y0376*
X02844*
Y0376*
X02843*
Y03761*
X02843*
Y03761*
X02842*
Y03761*
X02842*
Y03761*
X02841*
Y03761*
X02841*
Y03762*
X0284*
Y03762*
X02839*
Y03762*
X02839*
Y03762*
X02838*
Y03763*
X02838*
Y03763*
X02837*
Y03763*
X02836*
Y03763*
X02836*
Y03763*
X02835*
Y03764*
X02834*
Y03764*
X02834*
Y03764*
X02833*
Y03764*
X02832*
Y03765*
X02831*
Y03765*
X02831*
Y03765*
X0283*
Y03765*
X0283*
Y03765*
X0283*
Y03765*
X02829*
Y03765*
X02828*
Y03766*
X02827*
Y03766*
X02826*
Y03766*
X02825*
Y03766*
X02824*
Y03767*
X02823*
Y03767*
X02821*
Y03767*
X0282*
Y03767*
X02818*
Y03767*
X02817*
Y03768*
X02817*
Y03767*
X02816*
Y03768*
X02814*
Y03768*
X02809*
Y03768*
X02805*
Y03768*
X028*
Y03768*
X02797*
Y03767*
X02795*
Y03767*
X02794*
Y03767*
X02792*
Y03767*
X0279*
Y03767*
X02789*
Y03766*
X02788*
Y03766*
X02787*
Y03766*
X02786*
Y03766*
X02786*
Y03766*
X02786*
Y03766*
X02785*
Y03765*
X02784*
Y03765*
X02783*
Y03765*
X02783*
Y03765*
X02782*
Y03765*
X02781*
Y03764*
X0278*
Y03764*
X02779*
Y03764*
X02779*
Y03764*
X02778*
Y03763*
X02777*
Y03763*
X02777*
Y03763*
X02776*
Y03763*
X02775*
Y03763*
X02775*
Y03762*
X02774*
Y03762*
X02773*
Y03762*
X02773*
Y03762*
X02772*
Y03761*
X02772*
Y03761*
X02771*
Y03761*
X02771*
Y03761*
X0277*
Y03761*
X0277*
Y0376*
X02769*
Y0376*
X02769*
Y0376*
X02768*
Y0376*
X02767*
Y03759*
X02767*
Y03759*
X02767*
Y03759*
X02766*
Y03759*
X02765*
Y03759*
X02765*
Y03758*
X02765*
Y03758*
X02764*
Y03758*
X02764*
Y03758*
X02763*
Y03758*
X02763*
Y03757*
X02762*
Y03757*
X02762*
Y03757*
X02762*
Y03757*
X02761*
Y03756*
X02761*
Y03756*
X0276*
Y03756*
X0276*
Y03756*
X0276*
Y03756*
X02759*
Y03755*
X02759*
Y03755*
X02758*
Y03755*
X02758*
Y03755*
X02758*
Y03754*
X02757*
Y03754*
X02757*
Y03754*
X02757*
Y03754*
Y03754*
X02756*
Y03754*
X02756*
Y03754*
X02756*
Y03753*
X02755*
Y03753*
X02755*
Y03753*
X02754*
Y03753*
X02754*
Y03752*
X02754*
Y03752*
X02754*
Y03752*
X02753*
Y03752*
X02753*
Y03752*
X02752*
Y03752*
X02752*
Y03752*
X02752*
Y03751*
X02752*
Y03751*
X02752*
Y03751*
X02751*
Y03751*
X02751*
Y0375*
X02751*
Y0375*
X02751*
Y0375*
X0275*
Y0375*
X0275*
Y0375*
X02749*
Y03749*
X02749*
Y03749*
X02749*
Y03749*
X02749*
Y03749*
X02748*
Y03749*
X02748*
Y03748*
X02748*
Y03748*
X02747*
Y03748*
X02747*
Y03748*
X02747*
Y03747*
X02746*
Y03747*
X02746*
Y03747*
X02746*
Y03747*
X02745*
Y03747*
X02745*
Y03746*
X02745*
Y03746*
X02745*
Y03746*
X02744*
Y03746*
X02744*
Y03745*
X02744*
Y03745*
X02743*
Y03745*
X02743*
Y03745*
X02743*
Y03745*
X02743*
Y03745*
X02742*
Y03745*
X02743*
Y03744*
X02742*
Y03744*
X02742*
Y03744*
X02742*
Y03744*
X02742*
Y03744*
X02742*
Y03744*
X02742*
Y03743*
X02741*
Y03743*
X02741*
Y03743*
X02741*
Y03743*
X02741*
Y03743*
X0274*
Y03742*
X0274*
Y03742*
X0274*
Y03742*
X0274*
Y03742*
X02739*
Y03741*
X02739*
Y03741*
X02739*
Y03741*
X02738*
Y03741*
X02738*
Y03741*
X02738*
Y0374*
X02738*
Y0374*
X02738*
Y0374*
X02737*
Y0374*
X02737*
Y0374*
X02737*
Y03739*
X02737*
Y03739*
X02736*
Y03739*
X02736*
Y03739*
Y03738*
X02736*
Y03738*
X02735*
Y03738*
X02735*
Y03738*
X02735*
Y03738*
X02735*
Y03737*
X02734*
Y03737*
X02734*
Y03737*
X02734*
Y03737*
X02734*
Y03736*
X02734*
Y03736*
X02733*
Y03736*
X02733*
Y03736*
X02733*
Y03736*
X02733*
Y03735*
X02733*
Y03735*
X02732*
Y03735*
X02732*
Y03735*
X02732*
Y03734*
X02732*
Y03734*
X02731*
Y03734*
X02731*
Y03734*
X02731*
Y03734*
X02731*
Y03733*
X02731*
Y03733*
X0273*
Y03733*
Y03733*
X0273*
Y03732*
X0273*
Y03732*
X02729*
Y03732*
Y03732*
X02729*
Y03732*
X02729*
Y03731*
X02729*
Y03731*
X02729*
Y03731*
X02728*
Y03731*
X02728*
Y0373*
Y0373*
X02728*
Y0373*
X02728*
Y0373*
X02727*
Y0373*
X02727*
Y03729*
X02727*
Y03729*
X02727*
Y03729*
Y03729*
X02727*
Y03729*
X02726*
Y03728*
X02726*
Y03728*
X02726*
Y03728*
X02726*
Y03728*
Y03727*
X02725*
Y03727*
X02725*
Y03727*
X02725*
Y03727*
X02725*
Y03727*
X02725*
Y03726*
Y03726*
X02724*
Y03726*
X02724*
Y03726*
Y03725*
X02724*
Y03725*
X02724*
Y03725*
Y03725*
X02723*
Y03725*
X02723*
Y03724*
Y03724*
X02723*
Y03724*
X02723*
Y03724*
X02722*
Y03723*
Y03723*
X02722*
Y03723*
X02722*
Y03723*
X02722*
Y03723*
Y03722*
X02722*
Y03722*
X02721*
Y03722*
X02721*
Y03722*
Y03721*
X02721*
Y03721*
X02721*
Y03721*
X0272*
Y03721*
Y03721*
X0272*
Y0372*
X0272*
Y0372*
Y0372*
X0272*
Y0372*
X0272*
Y0372*
X02719*
Y03719*
Y03719*
X02719*
Y03719*
X02719*
Y03719*
Y03718*
X02719*
Y03718*
X02718*
Y03718*
Y03718*
X02718*
Y03718*
X02718*
Y03717*
Y03717*
X02718*
Y03717*
X02718*
Y03717*
Y03716*
X02717*
Y03716*
X02717*
Y03716*
Y03716*
X02717*
Y03716*
X02717*
Y03715*
Y03715*
X02716*
Y03715*
Y03715*
X02716*
Y03714*
X02716*
Y03714*
Y03714*
X02716*
Y03714*
X02716*
Y03714*
Y03713*
X02715*
Y03713*
Y03713*
X02715*
Y03713*
X02715*
Y03712*
Y03712*
X02715*
Y03712*
Y03712*
X02714*
Y03712*
X02714*
Y03711*
Y03711*
X02714*
Y03711*
Y03711*
X02714*
Y03711*
X02714*
Y0371*
Y0371*
X02713*
Y0371*
Y0371*
X02713*
Y03709*
Y03709*
X02713*
Y03709*
X02713*
Y03709*
Y03709*
X02713*
Y03708*
Y03708*
X02712*
Y03708*
Y03708*
X02712*
Y03707*
Y03707*
X02712*
Y03707*
X02712*
Y03707*
Y03707*
X02711*
Y03706*
Y03706*
X02711*
Y03706*
Y03706*
X02711*
Y03705*
Y03705*
X02711*
Y03705*
Y03705*
X02711*
Y03705*
Y03704*
X0271*
Y03704*
Y03704*
X0271*
Y03704*
Y03703*
Y03703*
Y03703*
X0271*
Y03703*
Y03703*
X02709*
Y03702*
Y03702*
X02709*
Y03702*
Y03702*
X02709*
Y03702*
Y03701*
X02709*
Y03701*
Y03701*
X02709*
Y03701*
Y037*
X02708*
Y037*
Y037*
X02708*
Y037*
Y037*
X02708*
Y03699*
Y03699*
Y03699*
X02708*
Y03699*
Y03698*
X02707*
Y03698*
Y03698*
X02707*
Y03698*
Y03698*
X02707*
Y03697*
Y03697*
X02707*
Y03697*
Y03697*
Y03696*
X02707*
Y03696*
Y03696*
X02706*
Y03696*
Y03696*
X02706*
Y03695*
Y03695*
Y03695*
X02706*
Y03695*
Y03694*
X02706*
Y03694*
Y03694*
X02705*
Y03694*
Y03694*
Y03693*
X02705*
Y03693*
Y03693*
X02705*
Y03693*
Y03692*
Y03692*
X02705*
Y03692*
Y03692*
X02705*
Y03692*
Y03691*
Y03691*
X02704*
Y03691*
Y03691*
X02704*
Y03691*
X02704*
Y0369*
Y0369*
X02704*
Y0369*
Y0369*
Y03689*
Y03689*
X02705*
Y03689*
X02705*
Y03689*
X02706*
Y03689*
X02706*
Y03688*
X02707*
Y03688*
X02707*
Y03688*
X02707*
Y03688*
X02708*
Y03687*
X02708*
Y03687*
X02709*
Y03687*
X02709*
Y03687*
X0271*
Y03687*
X0271*
Y03686*
X0271*
Y03686*
X02711*
Y03686*
X02711*
Y03686*
X02711*
Y03685*
X02712*
Y03685*
X02712*
Y03685*
X02713*
Y03685*
X02713*
Y03685*
X02713*
Y03684*
X02713*
Y03684*
X02714*
Y03684*
X02714*
Y03684*
X02714*
Y03683*
X02714*
Y03683*
X02715*
Y03683*
X02715*
Y03683*
X02715*
Y03683*
X02716*
Y03682*
X02716*
Y03682*
X02716*
Y03682*
X02716*
Y03682*
X02716*
Y03682*
X02717*
Y03681*
X02717*
Y03681*
X02717*
Y03681*
X02718*
Y03681*
X02718*
Y0368*
X02718*
Y0368*
Y0368*
X02718*
Y0368*
Y0368*
X02719*
Y03679*
X02719*
Y03679*
X02719*
Y03679*
X02719*
Y03679*
X0272*
Y03678*
X0272*
Y03678*
X0272*
Y03678*
Y03678*
X0272*
Y03678*
X0272*
Y03677*
X02721*
Y03677*
X02721*
Y03677*
Y03677*
X02721*
Y03676*
X02721*
Y03676*
X02722*
Y03676*
Y03676*
X02722*
Y03676*
X02722*
Y03675*
Y03675*
X02722*
Y03675*
X02722*
Y03675*
X02723*
Y03674*
Y03674*
X02723*
Y03674*
Y03674*
X02723*
Y03674*
X02723*
Y03673*
Y03673*
X02724*
Y03673*
X02724*
Y03673*
Y03673*
X02724*
Y03672*
Y03672*
X02724*
Y03672*
Y03672*
X02724*
Y03671*
Y03671*
X02725*
Y03671*
Y03671*
X02725*
Y03671*
Y0367*
X02725*
Y0367*
Y0367*
X02725*
Y0367*
Y03669*
X02725*
Y03669*
Y03669*
X02726*
Y03669*
Y03669*
Y03668*
X02726*
Y03668*
Y03668*
X02726*
Y03668*
Y03667*
Y03667*
X02726*
Y03667*
Y03667*
Y03667*
X02727*
Y03666*
Y03666*
X02727*
Y03666*
Y03666*
Y03665*
X02727*
Y03665*
Y03665*
Y03665*
Y03665*
X02727*
Y03664*
Y03664*
Y03664*
X02727*
Y03664*
Y03664*
Y03663*
X02728*
Y03663*
Y03663*
X02728*
Y03663*
Y03662*
X02728*
Y03662*
Y03662*
X02728*
Y03662*
Y03662*
X02729*
Y03661*
X02729*
Y03661*
X02729*
Y03661*
X02731*
Y03661*
X02731*
Y03661*
X02731*
Y03662*
X02732*
Y03662*
Y03662*
X02732*
Y03662*
X02732*
Y03662*
X02732*
Y03663*
Y03663*
X02733*
Y03663*
Y03663*
X02733*
Y03664*
Y03664*
Y03664*
X02733*
Y03664*
Y03664*
Y03665*
X02733*
Y03665*
Y03665*
Y03665*
X02733*
Y03665*
Y03666*
Y03666*
Y03666*
X02734*
Y03666*
Y03667*
Y03667*
Y03667*
Y03667*
X02734*
Y03667*
Y03668*
Y03668*
Y03668*
X02734*
Y03668*
Y03669*
Y03669*
Y03669*
X02734*
Y03669*
Y03669*
Y0367*
X02734*
Y0367*
Y0367*
Y0367*
Y03671*
X02735*
Y03671*
Y03671*
Y03671*
X02735*
Y03671*
Y03672*
Y03672*
Y03672*
X02735*
Y03672*
Y03673*
Y03673*
Y03673*
X02735*
Y03673*
Y03673*
Y03674*
Y03674*
X02736*
Y03674*
Y03674*
Y03674*
Y03675*
X02736*
Y03675*
Y03675*
Y03675*
X02736*
Y03676*
Y03676*
Y03676*
Y03676*
X02736*
Y03676*
Y03677*
Y03677*
Y03677*
X02736*
Y03677*
Y03678*
Y03678*
Y03678*
X02737*
Y03678*
Y03678*
Y03679*
X02737*
Y03679*
Y03679*
Y03679*
Y0368*
Y0368*
X02737*
Y0368*
Y0368*
Y0368*
Y03681*
Y03681*
X02737*
Y03681*
Y03681*
Y03682*
Y03682*
X02738*
Y03682*
Y03682*
Y03682*
Y03683*
X02738*
Y03683*
Y03683*
Y03683*
Y03683*
X02738*
Y03684*
Y03684*
Y03684*
Y03684*
Y03685*
X02738*
Y03685*
Y03685*
X02738*
Y03685*
X02738*
Y03685*
X02738*
Y03686*
Y03686*
Y03686*
Y03686*
Y03687*
X02739*
Y03687*
Y03687*
Y03687*
Y03687*
X02739*
Y03688*
Y03688*
Y03688*
Y03688*
Y03689*
X02739*
Y03689*
Y03689*
Y03689*
Y03689*
X02739*
Y0369*
Y0369*
Y0369*
Y0369*
Y03691*
X0274*
Y03691*
Y03691*
Y03691*
Y03691*
Y03692*
X0274*
Y03692*
Y03692*
Y03692*
Y03692*
Y03693*
X0274*
Y03693*
Y03693*
Y03693*
Y03694*
Y03694*
X0274*
Y03694*
Y03694*
Y03694*
Y03695*
Y03695*
X0274*
Y03695*
Y03695*
Y03696*
Y03696*
Y03696*
X0274*
Y03696*
Y03696*
Y03697*
Y03697*
Y03697*
Y03697*
Y03698*
X0274*
Y03698*
Y03698*
X0274*
Y03698*
Y03698*
Y03699*
Y03699*
Y03699*
Y03699*
Y037*
Y037*
X0274*
Y037*
Y037*
Y037*
X02741*
Y03701*
Y03701*
Y03701*
X02741*
Y03701*
Y03702*
Y03702*
X02741*
Y03702*
Y03702*
Y03702*
X02741*
Y03703*
Y03703*
X02742*
Y03703*
Y03703*
X02742*
Y03703*
Y03704*
X02742*
Y03704*
Y03704*
X02742*
Y03704*
Y03705*
X02743*
Y03705*
X02742*
Y03705*
X02743*
Y03705*
Y03705*
X02743*
Y03706*
Y03706*
X02743*
Y03706*
Y03706*
X02743*
Y03707*
X02743*
Y03707*
Y03707*
Y03707*
X02744*
Y03707*
Y03708*
Y03708*
X02744*
Y03708*
Y03708*
Y03709*
X02744*
Y03709*
Y03709*
Y03709*
Y03709*
Y0371*
Y0371*
X02744*
Y0371*
Y0371*
Y03711*
Y03711*
Y03711*
Y03711*
Y03711*
Y03712*
Y03712*
Y03712*
Y03712*
X02744*
Y03712*
Y03713*
Y03713*
Y03713*
Y03713*
X02744*
Y03714*
Y03714*
Y03714*
X02744*
Y03714*
Y03714*
X02743*
Y03715*
Y03715*
X02744*
Y03715*
X02743*
Y03715*
X02743*
Y03716*
Y03716*
X02743*
Y03716*
X02743*
Y03716*
Y03716*
X02742*
Y03717*
Y03717*
X02742*
Y03717*
X02742*
Y03717*
X02742*
Y03718*
X02741*
Y03718*
X02741*
Y03718*
X02741*
Y03718*
Y03718*
X0274*
Y03719*
Y03719*
Y03719*
Y03719*
Y0372*
Y0372*
Y0372*
Y0372*
X02741*
Y0372*
X02741*
Y03721*
X02741*
Y03721*
X02741*
Y03721*
X02742*
Y03721*
X02742*
Y03721*
X02743*
Y03721*
X02743*
Y03721*
X02743*
Y0372*
X02743*
Y0372*
X02744*
Y0372*
X02744*
Y0372*
X02744*
Y0372*
X02745*
Y03719*
Y03719*
X02745*
Y03719*
X02745*
Y03719*
X02745*
Y03718*
X02745*
Y03718*
X02746*
Y03718*
Y03718*
X02746*
Y03718*
X02746*
Y03717*
Y03717*
X02746*
Y03717*
Y03717*
X02747*
Y03716*
X02747*
Y03716*
Y03716*
X02747*
Y03716*
Y03716*
Y03715*
X02747*
Y03715*
X02747*
Y03715*
X02747*
Y03715*
Y03714*
Y03714*
X02748*
Y03714*
Y03714*
Y03714*
Y03713*
X02748*
Y03713*
Y03713*
Y03713*
Y03712*
X02748*
Y03712*
X02748*
Y03712*
X02748*
Y03712*
Y03712*
Y03711*
Y03711*
Y03711*
Y03711*
Y03711*
Y0371*
Y0371*
Y0371*
X02748*
Y0371*
X02752*
Y0371*
X02753*
Y0371*
X02754*
Y03709*
X02754*
Y03709*
X02755*
Y03709*
X02755*
Y03709*
X02756*
Y03709*
X02756*
Y03709*
X02756*
Y03709*
X02757*
Y03709*
X02758*
Y03709*
X02759*
Y03709*
X02759*
Y03709*
X0276*
Y0371*
X02771*
Y03709*
X02775*
Y03709*
X02778*
Y03709*
X0278*
Y03709*
X02781*
Y03709*
Y03708*
X02781*
Y03708*
X02781*
Y03708*
Y03708*
X02782*
Y03707*
Y03707*
Y03707*
Y03707*
Y03707*
Y03706*
Y03706*
X02781*
Y03706*
X02781*
Y03706*
X02781*
Y03705*
X02781*
Y03705*
X02779*
Y03705*
X02777*
Y03706*
X02774*
Y03706*
X0277*
Y03706*
X0276*
Y03706*
X02758*
Y03706*
X02758*
Y03705*
X02757*
Y03705*
X02757*
Y03705*
Y03705*
Y03705*
X02756*
Y03704*
Y03704*
Y03704*
Y03704*
Y03703*
Y03703*
Y03703*
Y03703*
Y03703*
Y03702*
Y03702*
Y03702*
Y03702*
Y03702*
Y03701*
Y03701*
Y03701*
Y03701*
Y037*
Y037*
X02756*
Y037*
Y037*
Y037*
Y03699*
Y03699*
X02756*
Y03699*
Y03699*
Y03698*
X02756*
Y03698*
Y03698*
Y03698*
X02756*
Y03698*
Y03697*
X02755*
Y03697*
X02755*
Y03697*
Y03697*
X02755*
Y03696*
X02755*
Y03696*
X02754*
Y03696*
Y03696*
X02754*
Y03696*
X02754*
Y03695*
X02754*
Y03695*
Y03695*
X02753*
Y03695*
X02753*
Y03694*
X02753*
Y03694*
X02752*
Y03694*
X02752*
Y03694*
X02752*
Y03694*
X02751*
Y03693*
X02751*
Y03693*
X02751*
Y03693*
X0275*
Y03693*
X0275*
Y03692*
X02749*
Y03692*
X02749*
Y03692*
X02748*
Y03692*
X02747*
Y03692*
X02745*
Y03692*
X02744*
Y03692*
X02743*
Y03692*
X02743*
Y03692*
Y03691*
Y03691*
Y03691*
Y03691*
X02743*
Y03691*
Y0369*
Y0369*
Y0369*
Y0369*
X02743*
Y03689*
Y03689*
Y03689*
Y03689*
X02743*
Y03689*
Y03688*
Y03688*
Y03688*
Y03688*
X02742*
Y03687*
Y03687*
Y03687*
Y03687*
Y03687*
X02742*
Y03686*
Y03686*
Y03686*
Y03686*
Y03685*
X02742*
Y03685*
Y03685*
Y03685*
Y03685*
X02742*
Y03684*
Y03684*
Y03684*
Y03684*
Y03683*
X02742*
Y03683*
Y03683*
Y03683*
Y03683*
X02741*
Y03682*
Y03682*
Y03682*
Y03682*
X02741*
Y03682*
Y03681*
Y03681*
Y03681*
Y03681*
X02741*
Y0368*
Y0368*
Y0368*
Y0368*
X02741*
Y0368*
Y03679*
Y03679*
Y03679*
X0274*
Y03679*
Y03678*
Y03678*
Y03678*
X0274*
Y03678*
Y03678*
Y03677*
Y03677*
X0274*
Y03677*
Y03677*
Y03676*
Y03676*
X0274*
Y03676*
Y03676*
Y03676*
Y03675*
X0274*
Y03675*
Y03675*
Y03675*
Y03674*
X02739*
Y03674*
Y03674*
Y03674*
Y03674*
X02739*
Y03673*
Y03673*
Y03673*
Y03673*
X02739*
Y03673*
Y03672*
Y03672*
Y03672*
X02739*
Y03672*
Y03671*
Y03671*
X02738*
Y03671*
Y03671*
Y03671*
Y0367*
X02738*
Y0367*
Y0367*
Y0367*
Y03669*
X02738*
Y03669*
Y03669*
Y03669*
X02738*
Y03669*
Y03668*
Y03668*
X02738*
Y03668*
Y03668*
Y03667*
Y03667*
Y03667*
X02737*
Y03667*
Y03667*
Y03666*
X02737*
Y03666*
Y03666*
Y03666*
Y03665*
X02737*
Y03665*
Y03665*
Y03665*
X02737*
Y03665*
Y03664*
Y03664*
X02736*
Y03664*
Y03664*
Y03664*
Y03663*
X02736*
Y03663*
Y03663*
Y03663*
X02736*
Y03662*
Y03662*
X02736*
Y03662*
Y03662*
X02736*
Y03662*
Y03661*
Y03661*
X02735*
Y03661*
X02735*
Y03661*
Y0366*
X02735*
Y0366*
X02735*
Y0366*
Y0366*
X02734*
Y0366*
X02734*
Y03659*
Y03659*
X02734*
Y03659*
X02734*
Y03659*
X02734*
Y03658*
X02733*
Y03658*
X02733*
Y03658*
X02733*
Y03658*
X02732*
Y03658*
X02732*
Y03658*
X02732*
Y03658*
X02732*
Y03657*
X02731*
Y03657*
X02729*
Y03657*
X02728*
Y03658*
X02728*
Y03658*
X02727*
Y03658*
Y03658*
X02727*
Y03658*
X02726*
Y03659*
X02726*
Y03659*
X02726*
Y03659*
X02726*
Y03659*
X02725*
Y0366*
X02725*
Y0366*
Y0366*
X02725*
Y0366*
Y0366*
X02725*
Y03661*
X02725*
Y03661*
Y03661*
X02724*
Y03661*
Y03662*
Y03662*
X02724*
Y03662*
Y03662*
X02724*
Y03662*
Y03663*
Y03663*
X02724*
Y03663*
Y03663*
Y03664*
X02724*
Y03664*
Y03664*
Y03664*
Y03664*
X02723*
Y03665*
Y03665*
Y03665*
X02723*
Y03665*
Y03665*
Y03666*
X02723*
Y03666*
Y03666*
Y03666*
X02723*
Y03667*
Y03667*
X02722*
Y03667*
Y03667*
Y03667*
X02722*
Y03668*
Y03668*
X02722*
Y03668*
Y03668*
X02722*
Y03669*
Y03669*
X02722*
Y03669*
Y03669*
X02721*
Y03669*
Y0367*
Y0367*
X02721*
Y0367*
X02721*
Y0367*
Y03671*
X02721*
Y03671*
Y03671*
X0272*
Y03671*
Y03671*
X0272*
Y03672*
X0272*
Y03672*
Y03672*
X0272*
Y03672*
X0272*
Y03673*
Y03673*
X02719*
Y03673*
X02719*
Y03673*
Y03673*
X02719*
Y03674*
X02719*
Y03674*
Y03674*
X02718*
Y03674*
X02718*
Y03674*
X02718*
Y03675*
Y03675*
X02718*
Y03675*
X02718*
Y03675*
X02717*
Y03676*
X02717*
Y03676*
Y03676*
Y03676*
X02717*
Y03676*
X02716*
Y03677*
X02716*
Y03677*
X02716*
Y03677*
X02716*
Y03677*
X02716*
Y03678*
X02715*
Y03678*
X02715*
Y03678*
Y03678*
X02715*
Y03678*
X02714*
Y03679*
X02714*
Y03679*
X02714*
Y03679*
X02714*
Y03679*
X02714*
Y0368*
X02713*
Y0368*
X02713*
Y0368*
X02713*
Y0368*
X02713*
Y0368*
X02712*
Y03681*
X02712*
Y03681*
X02712*
Y03681*
X02711*
Y03681*
X02711*
Y03682*
X02711*
Y03682*
X02711*
Y03682*
X0271*
Y03682*
X0271*
Y03682*
X0271*
Y03683*
X02709*
Y03683*
X02709*
Y03683*
X02709*
Y03683*
X02708*
Y03683*
X02708*
Y03684*
X02707*
Y03684*
X02707*
Y03684*
X02707*
Y03684*
X02706*
Y03685*
X02706*
Y03685*
X02705*
Y03685*
X02705*
Y03685*
X02704*
Y03685*
X02704*
Y03686*
X02703*
Y03686*
X02702*
Y03686*
Y03685*
Y03685*
X02702*
Y03685*
Y03685*
Y03685*
X02702*
Y03684*
Y03684*
X02702*
Y03684*
Y03684*
Y03683*
X02702*
Y03683*
X02701*
Y03683*
X02701*
Y03683*
X02701*
Y03683*
X02702*
Y03683*
X02701*
Y03683*
Y03682*
Y03682*
Y03682*
X02701*
Y03682*
Y03682*
Y03681*
X02701*
Y03681*
Y03681*
Y03681*
X02701*
Y0368*
Y0368*
Y0368*
X027*
Y0368*
Y0368*
Y03679*
X027*
Y03679*
Y03679*
Y03679*
Y03678*
X027*
Y03678*
Y03678*
Y03678*
X027*
Y03678*
Y03677*
Y03677*
Y03677*
X027*
Y03677*
X02699*
Y03676*
X027*
Y03676*
X02699*
Y03676*
Y03676*
Y03676*
Y03675*
X02699*
Y03675*
Y03675*
Y03675*
X02699*
Y03674*
Y03674*
Y03674*
Y03674*
X02699*
Y03674*
Y03673*
Y03673*
Y03673*
X02698*
Y03673*
Y03673*
Y03672*
Y03672*
X02698*
Y03672*
Y03672*
Y03671*
Y03671*
X02698*
Y03671*
Y03671*
Y03671*
Y0367*
X02698*
Y0367*
Y0367*
Y0367*
Y03669*
X02698*
Y03669*
Y03669*
Y03669*
Y03669*
Y03668*
X02697*
Y03668*
Y03668*
Y03668*
Y03667*
X02697*
Y03667*
Y03667*
Y03667*
Y03667*
Y03666*
X02697*
Y03666*
Y03666*
Y03666*
Y03665*
X02697*
Y03665*
Y03665*
Y03665*
Y03665*
Y03664*
X02696*
Y03664*
Y03664*
Y03664*
Y03664*
Y03663*
X02696*
Y03663*
Y03663*
Y03663*
Y03662*
Y03662*
Y03662*
X02696*
Y03662*
Y03662*
Y03661*
Y03661*
X02696*
Y03661*
Y03661*
Y0366*
Y0366*
Y0366*
Y0366*
Y0366*
X02696*
Y03659*
Y03659*
Y03659*
Y03659*
Y03658*
Y03658*
X02695*
Y03658*
Y03658*
Y03658*
Y03657*
Y03657*
Y03657*
X02695*
Y03657*
Y03656*
Y03656*
Y03656*
X02695*
Y03656*
Y03656*
X02695*
Y03655*
X02695*
Y03655*
X02693*
Y03655*
X02693*
Y03655*
X02693*
Y03655*
X02693*
Y03656*
X02692*
Y03656*
X02692*
Y03656*
X02692*
Y03656*
Y03656*
Y03657*
X02692*
Y03657*
Y03657*
Y03657*
Y03658*
Y03658*
X02692*
Y03658*
Y03658*
Y03658*
Y03659*
Y03659*
Y03659*
Y03659*
X02692*
Y0366*
Y0366*
Y0366*
Y0366*
Y0366*
Y03661*
X02692*
Y03661*
Y03661*
Y03661*
Y03662*
Y03662*
X02693*
Y03662*
Y03662*
Y03662*
Y03663*
Y03663*
Y03663*
X02693*
Y03663*
Y03664*
Y03664*
Y03664*
Y03664*
X02693*
Y03664*
Y03665*
Y03665*
Y03665*
Y03665*
X02693*
Y03665*
Y03666*
Y03666*
Y03666*
Y03666*
X02693*
Y03667*
Y03667*
Y03667*
Y03667*
Y03667*
X02694*
Y03668*
Y03668*
Y03668*
Y03668*
Y03669*
X02694*
Y03669*
Y03669*
Y03669*
Y03669*
X02694*
Y0367*
Y0367*
Y0367*
Y0367*
X02694*
Y03671*
Y03671*
Y03671*
Y03671*
Y03671*
X02695*
Y03672*
Y03672*
Y03672*
Y03672*
X02695*
Y03673*
Y03673*
Y03673*
Y03673*
X02695*
Y03673*
Y03674*
Y03674*
Y03674*
X02695*
Y03674*
Y03674*
Y03675*
Y03675*
X02695*
Y03675*
Y03675*
Y03676*
X02696*
Y03676*
Y03676*
Y03676*
Y03676*
X02696*
Y03677*
Y03677*
Y03677*
Y03677*
X02696*
Y03678*
Y03678*
Y03678*
X02696*
Y03678*
Y03678*
Y03679*
Y03679*
X02696*
Y03679*
Y03679*
Y0368*
X02697*
Y0368*
Y0368*
Y0368*
X02697*
Y0368*
Y03681*
Y03681*
Y03681*
X02697*
Y03681*
Y03682*
Y03682*
X02697*
Y03682*
Y03682*
Y03682*
X02698*
Y03683*
Y03683*
Y03683*
X02698*
Y03683*
Y03683*
Y03684*
X02698*
Y03684*
Y03684*
Y03684*
X02698*
Y03685*
Y03685*
Y03685*
X02698*
Y03685*
Y03685*
Y03686*
X02699*
Y03686*
Y03686*
Y03686*
X02699*
Y03687*
Y03687*
Y03687*
X02699*
Y03687*
Y03687*
Y03688*
X02699*
Y03688*
Y03688*
Y03688*
X027*
Y03689*
Y03689*
X027*
Y03689*
Y03689*
Y03689*
X027*
Y0369*
Y0369*
Y0369*
X027*
Y0369*
X027*
Y03691*
Y03691*
Y03691*
Y03691*
X02701*
Y03691*
Y03692*
Y03692*
X02701*
Y03692*
Y03692*
X02701*
Y03692*
Y03693*
Y03693*
X02701*
Y03693*
Y03693*
X02702*
Y03694*
Y03694*
Y03694*
X02702*
Y03694*
Y03694*
X02702*
Y03695*
Y03695*
Y03695*
X02702*
Y03695*
Y03696*
X02702*
Y03696*
Y03696*
X02703*
Y03696*
Y03696*
Y03697*
X02703*
Y03697*
Y03697*
X02703*
Y03697*
Y03698*
X02703*
Y03698*
Y03698*
Y03698*
X02704*
Y03698*
Y03699*
X02704*
Y03699*
Y03699*
X02704*
Y03699*
Y037*
X02704*
Y037*
Y037*
X02704*
Y037*
Y037*
Y03701*
X02705*
Y03701*
Y03701*
X02705*
Y03701*
Y03702*
X02705*
Y03702*
Y03702*
X02705*
Y03702*
Y03702*
X02705*
Y03703*
Y03703*
X02706*
Y03703*
Y03703*
X02706*
Y03703*
Y03704*
X02706*
Y03704*
Y03704*
X02706*
Y03704*
Y03705*
X02707*
Y03705*
Y03705*
X02707*
Y03705*
X02707*
Y03705*
X02707*
Y03706*
Y03706*
X02707*
Y03706*
Y03706*
X02707*
Y03707*
Y03707*
X02708*
Y03707*
Y03707*
X02708*
Y03707*
Y03708*
X02708*
Y03708*
Y03708*
X02708*
Y03708*
X02709*
Y03709*
Y03709*
X02709*
Y03709*
Y03709*
X02709*
Y03709*
Y0371*
X02709*
Y0371*
Y0371*
X02709*
Y0371*
Y03711*
X0271*
Y03711*
X0271*
Y03711*
Y03711*
X0271*
Y03711*
Y03712*
X0271*
Y03712*
Y03712*
X02711*
Y03712*
Y03712*
X02711*
Y03713*
X02711*
Y03713*
Y03713*
X02711*
Y03713*
X02711*
Y03714*
Y03714*
X02712*
Y03714*
Y03714*
X02712*
Y03714*
X02712*
Y03715*
Y03715*
X02712*
Y03715*
Y03715*
X02713*
Y03715*
X02713*
Y03715*
X02713*
Y03716*
X02713*
Y03716*
Y03716*
X02713*
Y03716*
X02713*
Y03716*
Y03717*
X02713*
Y03717*
Y03717*
X02714*
Y03717*
X02714*
Y03718*
Y03718*
X02714*
Y03718*
X02714*
Y03718*
Y03718*
X02714*
Y03719*
X02715*
Y03719*
Y03719*
X02715*
Y03719*
Y0372*
X02715*
Y0372*
X02715*
Y0372*
X02716*
Y0372*
Y0372*
X02716*
Y03721*
X02716*
Y0372*
X02716*
Y03721*
X02716*
Y03721*
Y03721*
X02716*
Y03721*
X02716*
Y03721*
Y03722*
X02717*
Y03722*
X02717*
Y03722*
X02717*
Y03722*
Y03723*
X02717*
Y03723*
X02718*
Y03723*
Y03723*
X02718*
Y03723*
X02718*
Y03724*
X02718*
Y03724*
Y03724*
X02718*
Y03724*
X02719*
Y03725*
X02719*
Y03725*
Y03725*
X02719*
Y03725*
X02719*
Y03725*
Y03726*
X0272*
Y03726*
X0272*
Y03726*
X0272*
Y03726*
X0272*
Y03727*
Y03727*
X0272*
Y03727*
X02721*
Y03727*
X0272*
Y03727*
X02721*
Y03727*
X02721*
Y03727*
Y03728*
X02721*
Y03728*
Y03728*
X02722*
Y03728*
X02722*
Y03729*
Y03729*
X02722*
Y03729*
X02722*
Y03729*
X02722*
Y03729*
X02723*
Y0373*
X02723*
Y0373*
Y0373*
X02723*
Y0373*
X02723*
Y0373*
X02724*
Y03731*
X02724*
Y03731*
X02724*
Y03731*
Y03731*
X02724*
Y03732*
X02724*
Y03732*
X02725*
Y03732*
X02725*
Y03732*
X02725*
Y03732*
X02725*
Y03733*
Y03733*
X02725*
Y03733*
X02726*
Y03733*
X02726*
Y03734*
X02726*
Y03734*
X02726*
Y03734*
X02727*
Y03734*
X02727*
Y03734*
X02727*
Y03735*
Y03735*
X02727*
Y03735*
X02727*
Y03735*
X02728*
Y03736*
X02728*
Y03736*
X02728*
Y03736*
X02729*
Y03736*
Y03736*
X02729*
Y03737*
X02729*
Y03737*
X02729*
Y03737*
X02729*
Y03737*
X0273*
Y03738*
X0273*
Y03738*
X0273*
Y03738*
X0273*
Y03738*
X02731*
Y03738*
X02731*
Y03739*
Y03739*
X02731*
Y03739*
X02731*
Y03739*
X02732*
Y0374*
X02732*
Y0374*
X02732*
Y0374*
X02732*
Y0374*
X02733*
Y0374*
X02733*
Y03741*
X02733*
Y03741*
X02733*
Y03741*
X02734*
Y03741*
X02734*
Y03741*
Y03742*
X02734*
Y03742*
X02734*
Y03742*
X02734*
Y03742*
X02735*
Y03743*
X02735*
Y03743*
X02735*
Y03743*
X02736*
Y03743*
X02736*
Y03743*
X02736*
Y03744*
X02736*
Y03744*
Y03744*
X02737*
Y03744*
X02737*
Y03745*
X02737*
Y03745*
X02738*
Y03745*
X02738*
Y03745*
X02738*
Y03745*
X02738*
Y03746*
X02739*
Y03746*
X02739*
Y03746*
X02739*
Y03746*
X02739*
Y03747*
X0274*
Y03747*
X0274*
Y03747*
X0274*
Y03747*
X0274*
Y03747*
X02741*
Y03748*
X02741*
Y03748*
X02741*
Y03748*
X02742*
Y03748*
X02742*
Y03749*
X02742*
Y03749*
X02742*
Y03749*
X02743*
Y03749*
X02743*
Y03749*
X02743*
Y0375*
X02744*
Y0375*
X02744*
Y0375*
X02744*
Y0375*
X02744*
Y0375*
X02745*
Y03751*
X02745*
Y03751*
X02745*
Y03751*
X02746*
Y03751*
X02746*
Y03752*
X02746*
Y03752*
X02747*
Y03752*
X02747*
Y03752*
X02747*
Y03752*
X02747*
Y03753*
X02748*
Y03753*
X02748*
Y03753*
X02749*
Y03753*
X02749*
Y03753*
X02749*
Y03753*
X02749*
Y03754*
X02749*
Y03754*
X02749*
Y03754*
X0275*
Y03754*
X0275*
Y03754*
X02751*
Y03755*
X02751*
Y03755*
X02751*
Y03755*
X02752*
Y03755*
X02752*
Y03756*
X02752*
Y03756*
X02752*
Y03756*
X02753*
Y03756*
Y03756*
X02753*
Y03756*
X02753*
Y03756*
X02754*
Y03757*
X02754*
Y03757*
X02754*
Y03757*
X02755*
Y03757*
X02755*
Y03757*
X02755*
Y03757*
X02755*
Y03758*
X02756*
Y03758*
X02756*
Y03758*
X02756*
Y03758*
X02756*
Y03758*
X02756*
Y03758*
X02757*
Y03758*
X02757*
Y03759*
X02758*
Y03759*
X02758*
Y03759*
X02758*
Y03759*
X02759*
Y03759*
X02759*
Y0376*
X0276*
Y0376*
X0276*
Y0376*
X0276*
Y0376*
X02761*
Y03761*
X02761*
Y03761*
X02762*
Y03761*
X02762*
Y03761*
X02763*
Y03761*
X02763*
Y03762*
X02764*
Y03762*
X02764*
Y03762*
X02765*
Y03762*
X02765*
Y03763*
X02765*
Y03763*
X02766*
Y03763*
X02767*
Y03763*
X02767*
Y03763*
X02768*
Y03764*
X02768*
Y03764*
X02769*
Y03764*
X02769*
Y03764*
X0277*
Y03765*
X0277*
Y03765*
X02771*
Y03765*
X02771*
Y03765*
X02772*
Y03765*
X02773*
Y03766*
X02773*
Y03766*
X02774*
Y03766*
X02774*
Y03766*
X02775*
Y03767*
X02776*
Y03766*
X02776*
Y03767*
Y03767*
X02776*
Y03767*
X02777*
Y03767*
X02778*
Y03767*
X02779*
Y03768*
X02779*
Y03768*
X0278*
Y03768*
X02781*
Y03768*
X02782*
Y03768*
X02782*
Y03768*
X02782*
Y03768*
X02783*
Y03769*
X02783*
Y03769*
X02784*
Y03769*
X02785*
Y03769*
X02786*
Y0377*
X02787*
Y0377*
X02789*
Y0377*
X0279*
Y0377*
X02791*
Y0377*
X02792*
Y03771*
X02794*
Y03771*
X02796*
Y03771*
X02798*
Y03771*
X02798*
Y03771*
Y03771*
X02801*
Y03772*
X02812*
Y03771*
G37*
G36*
X02835Y03759D02*
X02837D01*
Y03759*
X02837*
Y03759*
X02837*
Y03759*
X02838*
Y03759*
X02838*
Y03758*
Y03758*
X02838*
Y03758*
X02838*
Y03758*
Y03758*
Y03757*
Y03757*
Y03757*
X02839*
Y03757*
Y03756*
Y03756*
X02838*
Y03756*
Y03756*
Y03756*
X02838*
Y03755*
Y03755*
X02838*
Y03755*
Y03755*
X02837*
Y03754*
X02837*
Y03754*
X02837*
Y03754*
X02837*
Y03754*
X02836*
Y03754*
X02835*
Y03754*
X02834*
Y03754*
X02834*
Y03754*
X02833*
Y03754*
X02833*
Y03755*
X02833*
Y03755*
X02833*
Y03755*
Y03755*
X02832*
Y03756*
Y03756*
Y03756*
X02832*
Y03756*
Y03756*
Y03757*
Y03757*
Y03757*
Y03757*
Y03758*
Y03758*
Y03758*
X02832*
Y03758*
Y03758*
X02833*
Y03759*
Y03759*
X02833*
Y03759*
X02833*
Y03759*
X02833*
Y03759*
X02834*
Y0376*
X02834*
Y03759*
X02834*
Y0376*
X02835*
Y03759*
G37*
G36*
X02778Y03753D02*
X02779D01*
Y03753*
X0278*
Y03753*
X0278*
Y03753*
X0278*
Y03752*
X02781*
Y03752*
X02781*
Y03752*
Y03752*
X02781*
Y03752*
Y03751*
Y03751*
X02781*
Y03751*
Y03751*
Y0375*
Y0375*
Y0375*
Y0375*
X02781*
Y0375*
Y03749*
X02781*
Y03749*
Y03749*
X02781*
Y03749*
X0278*
Y03749*
X0278*
Y03748*
X0278*
Y03748*
X0278*
Y03748*
X02779*
Y03748*
X02778*
Y03747*
X02778*
Y03748*
X02777*
Y03748*
X02776*
Y03748*
X02776*
Y03748*
X02776*
Y03749*
Y03749*
X02776*
Y03749*
X02775*
Y03749*
Y03749*
X02775*
Y0375*
Y0375*
X02775*
Y0375*
Y0375*
Y0375*
Y03751*
Y03751*
Y03751*
Y03751*
Y03752*
Y03752*
X02775*
Y03752*
Y03752*
X02775*
Y03752*
Y03753*
X02776*
Y03753*
X02776*
Y03753*
X02776*
Y03753*
X02776*
Y03754*
X02778*
Y03753*
X02778*
Y03754*
X02778*
Y03753*
G37*
%LNntc-2*%
%LPC*%
G36*
X02796Y03771D02*
X02796D01*
Y0377*
X02796*
Y03771*
G37*
G36*
X02787Y03769D02*
X02787D01*
Y03769*
Y03769*
X02787*
Y03769*
Y03769*
G37*
G36*
X02831Y03768D02*
X02831D01*
Y03768*
X02831*
Y03768*
G37*
G36*
X02837Y03766D02*
X02837D01*
Y03766*
X02837*
Y03766*
G37*
G36*
X02772Y03765D02*
X02772D01*
Y03764*
X02772*
Y03765*
G37*
G36*
X02848Y03762D02*
X02848D01*
Y03762*
X02848*
Y03762*
G37*
G36*
X02771Y03762D02*
X02771D01*
Y03761*
X02771*
Y03762*
G37*
G36*
X02847Y03754D02*
X02847D01*
Y03754*
X02847*
Y03754*
G37*
G36*
X02848Y03751D02*
X02848D01*
Y03751*
X02848*
Y03751*
G37*
G36*
X02746Y03747D02*
X02746D01*
Y03747*
X02746*
Y03747*
G37*
G36*
X02813Y03742D02*
X02813D01*
Y03742*
X02813*
Y03742*
G37*
G36*
X02768Y03738D02*
X02767D01*
Y03738*
X02768*
Y03738*
G37*
G36*
X02805Y03737D02*
X02803D01*
Y03736*
X02802*
Y03736*
X02801*
Y03736*
X02799*
Y03736*
X02797*
Y03736*
X02796*
Y03736*
X02796*
Y03736*
X02795*
Y03735*
X02793*
Y03735*
X02792*
Y03735*
Y03735*
Y03734*
Y03734*
Y03734*
Y03734*
X02792*
Y03734*
Y03733*
Y03733*
Y03733*
Y03733*
Y03732*
Y03732*
Y03732*
Y03732*
X02792*
Y03732*
Y03731*
Y03731*
Y03731*
Y03731*
Y0373*
Y0373*
Y0373*
Y0373*
Y0373*
Y03729*
Y03729*
Y03729*
Y03729*
X02792*
Y03729*
Y03728*
Y03728*
Y03728*
Y03728*
Y03727*
Y03727*
Y03727*
Y03727*
Y03727*
Y03726*
Y03726*
Y03726*
Y03726*
Y03725*
Y03725*
Y03725*
Y03725*
Y03725*
Y03724*
Y03724*
Y03724*
Y03724*
Y03723*
Y03723*
Y03723*
Y03723*
Y03723*
Y03722*
Y03722*
Y03722*
Y03722*
Y03721*
Y03721*
Y03721*
Y03721*
Y03721*
Y0372*
Y0372*
Y0372*
Y0372*
Y0372*
Y03719*
Y03719*
Y03719*
Y03719*
Y03718*
Y03718*
Y03718*
Y03718*
Y03718*
Y03717*
Y03717*
X02793*
Y03717*
X02793*
Y03717*
X02797*
Y03717*
X02799*
Y03718*
X02801*
Y03718*
X02802*
Y03718*
X02803*
Y03718*
X02803*
Y03718*
X02804*
Y03719*
X02805*
Y03719*
X02806*
Y03719*
X02806*
Y03719*
Y0372*
X02806*
Y0372*
Y0372*
Y0372*
Y0372*
Y03721*
Y03721*
Y03721*
Y03721*
Y03721*
Y03722*
Y03722*
Y03722*
Y03722*
Y03723*
X02806*
Y03723*
Y03723*
Y03723*
Y03723*
Y03724*
Y03724*
Y03724*
Y03724*
Y03725*
Y03725*
Y03725*
Y03725*
Y03725*
Y03726*
Y03726*
X02805*
Y03726*
Y03726*
Y03727*
Y03727*
Y03727*
Y03727*
Y03727*
Y03728*
Y03728*
Y03728*
Y03728*
Y03729*
Y03729*
Y03729*
Y03729*
X02805*
Y03729*
Y0373*
Y0373*
Y0373*
Y0373*
Y0373*
Y03731*
Y03731*
Y03731*
Y03731*
Y03732*
Y03732*
Y03732*
Y03732*
Y03732*
X02805*
Y03733*
Y03733*
Y03733*
Y03733*
Y03734*
Y03734*
Y03734*
Y03734*
Y03734*
Y03735*
Y03735*
Y03735*
Y03735*
X02805*
Y03736*
Y03736*
Y03736*
Y03736*
Y03736*
Y03737*
G37*
G36*
X0277Y03735D02*
X0277D01*
Y03735*
X0277*
Y03735*
G37*
G36*
X02834Y03734D02*
X02833D01*
Y03734*
X02834*
Y03734*
G37*
G36*
X02808Y03733D02*
X02808D01*
Y03733*
X02808*
Y03733*
G37*
G36*
X02792Y03733D02*
X02791D01*
Y03733*
X02792*
Y03733*
G37*
G36*
X02809Y03733D02*
X02808D01*
Y03733*
X02809*
Y03733*
G37*
G36*
Y03732D02*
X02808D01*
Y03732*
X02809*
Y03732*
G37*
G36*
X02834Y03732D02*
X02833D01*
Y03732*
X02834*
Y03732*
G37*
G36*
X02825Y03732D02*
X02825D01*
Y03732*
X02825*
Y03732*
G37*
G36*
X02822Y03732D02*
X02822D01*
Y03731*
X02822*
Y03732*
G37*
G36*
X02756Y03731D02*
X02756D01*
Y0373*
X02756*
Y03731*
G37*
G36*
X02821Y0373D02*
X02821D01*
Y0373*
X02821*
Y0373*
G37*
G36*
X02723Y03729D02*
X02723D01*
Y03729*
X02723*
Y03729*
G37*
G36*
X02779Y03729D02*
X02779D01*
Y03729*
X02779*
Y03729*
G37*
G36*
X02763D02*
X02762D01*
Y03729*
X02763*
Y03729*
G37*
G36*
X0276Y03727D02*
X0276D01*
Y03727*
X0276*
Y03727*
G37*
G36*
X02818Y03727D02*
X02818D01*
Y03727*
X02818*
Y03727*
G37*
G36*
X02816Y03725D02*
X02816D01*
Y03724*
X02816*
Y03725*
G37*
G36*
X02809Y03724D02*
X02809D01*
Y03724*
X02809*
Y03724*
G37*
G36*
X02806D02*
X02806D01*
Y03724*
X02806*
Y03724*
G37*
G36*
Y03723D02*
X02806D01*
Y03722*
X02806*
Y03723*
G37*
G36*
X02813Y03722D02*
X02813D01*
Y03722*
X02813*
Y03722*
G37*
G36*
X02761Y03736D02*
X02758D01*
Y03736*
X02758*
Y03735*
X02757*
Y03735*
Y03735*
Y03735*
Y03734*
Y03734*
Y03734*
X02758*
Y03734*
X02758*
Y03734*
X02758*
Y03733*
Y03733*
X02758*
Y03733*
X02758*
Y03733*
X02759*
Y03732*
X02759*
Y03732*
X02759*
Y03732*
Y03732*
X0276*
Y03732*
X0276*
Y03731*
X0276*
Y03731*
X0276*
Y03731*
X02761*
Y03731*
X02761*
Y0373*
X02761*
Y0373*
X02762*
Y0373*
X02762*
Y0373*
X02762*
Y0373*
X02762*
Y03729*
X02763*
Y03729*
X02763*
Y03729*
X02763*
Y03729*
X02763*
Y03729*
X02764*
Y03728*
X02764*
Y03728*
X02764*
Y03728*
X02765*
Y03728*
X02765*
Y03727*
X02765*
Y03727*
X02766*
Y03727*
X02766*
Y03727*
X02766*
Y03727*
X02767*
Y03726*
X02767*
Y03726*
X02767*
Y03726*
X02768*
Y03726*
X02768*
Y03725*
X02768*
Y03725*
X02769*
Y03725*
X02769*
Y03725*
X02769*
Y03725*
X0277*
Y03724*
X0277*
Y03724*
X02771*
Y03724*
X02771*
Y03724*
X02771*
Y03723*
X02772*
Y03723*
X02772*
Y03723*
X02772*
Y03723*
X02773*
Y03723*
X02773*
Y03722*
X02774*
Y03722*
X02774*
Y03722*
X02775*
Y03722*
Y03722*
Y03723*
X02775*
Y03723*
Y03723*
Y03723*
Y03723*
X02775*
Y03724*
Y03724*
Y03724*
Y03724*
X02776*
Y03725*
Y03725*
Y03725*
Y03725*
Y03725*
Y03726*
X02776*
Y03726*
Y03726*
Y03726*
Y03727*
Y03727*
Y03727*
Y03727*
X02776*
Y03727*
Y03728*
Y03728*
Y03728*
Y03728*
Y03729*
X02776*
Y03729*
X02776*
Y03729*
X02776*
Y03729*
Y03729*
Y0373*
Y0373*
Y0373*
Y0373*
Y0373*
Y03731*
Y03731*
Y03731*
Y03731*
Y03732*
Y03732*
Y03732*
Y03732*
Y03732*
Y03733*
Y03733*
Y03733*
Y03733*
Y03734*
Y03734*
Y03734*
Y03734*
Y03734*
X02776*
Y03735*
X02776*
Y03735*
X02776*
Y03735*
X0277*
Y03735*
X02768*
Y03735*
X02768*
Y03735*
X02767*
Y03735*
X02764*
Y03735*
X02762*
Y03736*
X02761*
Y03736*
G37*
G36*
X02806Y03721D02*
X02806D01*
Y03721*
X02806*
Y03721*
G37*
G36*
X02825Y03741D02*
X02824D01*
Y03741*
X02823*
Y03741*
X02822*
Y03741*
X02821*
Y0374*
X02821*
Y0374*
X0282*
Y0374*
X02819*
Y0374*
X02818*
Y0374*
X02817*
Y03739*
X02816*
Y03739*
X02816*
Y03739*
X02815*
Y03739*
X02814*
Y03738*
X02813*
Y03738*
X02812*
Y03738*
X02811*
Y03738*
X0281*
Y03738*
X02809*
Y03737*
Y03737*
Y03737*
Y03737*
Y03736*
Y03736*
Y03736*
Y03736*
Y03736*
Y03735*
Y03735*
Y03735*
Y03735*
Y03734*
X02809*
Y03734*
Y03734*
Y03734*
Y03734*
Y03733*
Y03733*
Y03733*
Y03733*
Y03732*
Y03732*
Y03732*
Y03732*
Y03732*
Y03731*
Y03731*
X02809*
Y03731*
Y03731*
Y0373*
Y0373*
Y0373*
Y0373*
Y0373*
Y03729*
Y03729*
Y03729*
Y03729*
Y03729*
Y03728*
Y03728*
X02809*
Y03728*
X02809*
Y03728*
X02809*
Y03727*
Y03727*
Y03727*
Y03727*
Y03727*
Y03726*
Y03726*
Y03726*
Y03726*
Y03725*
Y03725*
Y03725*
Y03725*
X02809*
Y03725*
Y03724*
X02809*
Y03724*
X02809*
Y03724*
Y03724*
Y03723*
Y03723*
Y03723*
Y03723*
Y03723*
Y03722*
Y03722*
Y03722*
Y03722*
X0281*
Y03721*
Y03721*
Y03721*
Y03721*
X0281*
Y03721*
X0281*
Y03721*
X02811*
Y03721*
X02811*
Y03722*
X02812*
Y03722*
X02812*
Y03722*
X02812*
Y03722*
X02813*
Y03723*
X02813*
Y03723*
X02813*
Y03723*
X02814*
Y03723*
X02814*
Y03723*
X02814*
Y03724*
X02815*
Y03724*
X02815*
Y03724*
X02815*
Y03724*
X02816*
Y03725*
Y03725*
X02816*
Y03725*
X02816*
Y03725*
X02816*
Y03725*
X02817*
Y03726*
X02817*
Y03726*
X02817*
Y03726*
X02817*
Y03726*
X02818*
Y03727*
X02818*
Y03727*
X02818*
Y03727*
X02818*
Y03727*
X02818*
Y03727*
X02819*
Y03728*
Y03728*
X02819*
Y03728*
X02819*
Y03728*
X02819*
Y03729*
X02819*
Y03729*
X0282*
Y03729*
Y03729*
X0282*
Y03729*
X0282*
Y0373*
Y0373*
X0282*
Y0373*
X02821*
Y0373*
X02821*
Y0373*
X02821*
Y03731*
Y03731*
Y03731*
X02821*
Y03731*
X02821*
Y03732*
Y03732*
X02822*
Y03732*
Y03732*
X02822*
Y03732*
Y03733*
X02822*
Y03733*
Y03733*
X02822*
Y03733*
Y03734*
X02823*
Y03734*
Y03734*
X02823*
Y03734*
Y03734*
X02823*
Y03735*
Y03735*
Y03735*
X02823*
Y03735*
Y03736*
X02823*
Y03736*
Y03736*
Y03736*
X02824*
Y03736*
Y03737*
Y03737*
Y03737*
X02824*
Y03737*
Y03738*
Y03738*
X02824*
Y03738*
Y03738*
Y03738*
Y03739*
Y03739*
X02824*
Y03739*
Y03739*
Y0374*
Y0374*
Y0374*
Y0374*
X02825*
Y0374*
Y03741*
Y03741*
Y03741*
Y03741*
G37*
G36*
X02716Y03721D02*
X02716D01*
Y03721*
X02716*
Y03721*
G37*
G36*
X0281Y03721D02*
X0281D01*
Y0372*
X0281*
Y03721*
G37*
G36*
X02877Y0372D02*
X02877D01*
Y0372*
X02877*
Y0372*
G37*
G36*
X02779Y0372D02*
X02778D01*
Y0372*
X02779*
Y0372*
G37*
G36*
X02719Y0372D02*
X02718D01*
Y03719*
X02719*
Y0372*
G37*
G36*
X02772Y03719D02*
X02772D01*
Y03719*
X02772*
Y03719*
G37*
G36*
X02775Y03718D02*
X02774D01*
Y03718*
X02775*
Y03718*
G37*
G36*
X02858Y03718D02*
X02858D01*
Y03718*
X02858*
Y03718*
G37*
G36*
X02788Y03735D02*
X02787D01*
Y03735*
X02782*
Y03734*
X0278*
Y03734*
Y03734*
Y03734*
Y03734*
Y03733*
Y03733*
Y03733*
Y03733*
Y03732*
Y03732*
Y03732*
Y03732*
Y03732*
Y03731*
Y03731*
Y03731*
Y03731*
Y0373*
Y0373*
Y0373*
Y0373*
Y0373*
X0278*
Y03729*
Y03729*
Y03729*
Y03729*
Y03729*
Y03728*
Y03728*
Y03728*
Y03728*
Y03727*
X0278*
Y03727*
Y03727*
Y03727*
Y03727*
Y03726*
Y03726*
Y03726*
X02779*
Y03726*
Y03725*
Y03725*
Y03725*
Y03725*
Y03725*
X02779*
Y03724*
Y03724*
Y03724*
Y03724*
Y03723*
X02779*
Y03723*
X02779*
Y03723*
Y03723*
Y03723*
X02779*
Y03722*
Y03722*
Y03722*
Y03722*
X02778*
Y03721*
Y03721*
Y03721*
Y03721*
X02778*
Y03721*
Y0372*
Y0372*
X02779*
Y0372*
X0278*
Y0372*
X0278*
Y0372*
X02781*
Y03719*
X02781*
Y03719*
X02782*
Y03719*
X02783*
Y03719*
X02784*
Y03718*
X02785*
Y03718*
X02785*
Y03718*
X02787*
Y03718*
X02788*
Y03718*
X02789*
Y03718*
Y03718*
Y03718*
Y03718*
Y03719*
Y03719*
Y03719*
Y03719*
Y0372*
Y0372*
Y0372*
Y0372*
Y0372*
Y03721*
Y03721*
Y03721*
Y03721*
Y03721*
X02789*
Y03722*
Y03722*
Y03722*
Y03722*
Y03723*
Y03723*
Y03723*
Y03723*
Y03723*
Y03724*
Y03724*
Y03724*
Y03724*
Y03725*
X02789*
Y03725*
Y03725*
Y03725*
Y03725*
Y03726*
Y03726*
Y03726*
Y03726*
Y03727*
Y03727*
Y03727*
Y03727*
Y03727*
Y03728*
Y03728*
Y03728*
Y03728*
Y03729*
Y03729*
Y03729*
Y03729*
Y03729*
Y0373*
Y0373*
X02788*
Y0373*
Y0373*
Y0373*
Y03731*
Y03731*
Y03731*
Y03731*
Y03732*
Y03732*
Y03732*
Y03732*
Y03732*
Y03733*
X02788*
Y03733*
Y03733*
Y03733*
Y03734*
Y03734*
Y03734*
Y03734*
Y03734*
Y03735*
X02788*
Y03735*
G37*
G36*
X02798Y03717D02*
X02797D01*
Y03717*
X02798*
Y03717*
G37*
G36*
X02857Y03716D02*
X02857D01*
Y03716*
X02857*
Y03716*
G37*
G36*
X02744D02*
X02743D01*
Y03716*
X02744*
Y03716*
G37*
G36*
X02857Y03715D02*
X02857D01*
Y03715*
X02857*
Y03715*
G37*
G36*
X02802Y03715D02*
X02802D01*
Y03714*
X02802*
Y03715*
G37*
G36*
X02857Y03713D02*
X02857D01*
Y03713*
X02857*
Y03713*
G37*
G36*
Y03712D02*
X02857D01*
Y03712*
X02857*
Y03712*
G37*
G36*
X02773Y03709D02*
X02773D01*
Y03709*
X02773*
Y03709*
G37*
G36*
X02759Y03706D02*
X02759D01*
Y03706*
X02759*
Y03706*
G37*
G36*
X02711D02*
X02711D01*
Y03706*
X02711*
Y03706*
G37*
G36*
X02743Y03705D02*
X02743D01*
Y03705*
X02743*
Y03705*
G37*
G36*
X02837Y03703D02*
X02836D01*
Y03703*
X02837*
Y03703*
G37*
G36*
X02836Y03702D02*
X02836D01*
Y03702*
X02836*
Y03702*
G37*
G36*
X02854Y03693D02*
X02854D01*
Y03693*
X02854*
Y03693*
G37*
G36*
X02833Y03688D02*
X02832D01*
Y03688*
X02833*
Y03688*
G37*
G36*
X02852Y03687D02*
X02852D01*
Y03687*
X02852*
Y03687*
G37*
G36*
X02708Y03687D02*
X02708D01*
Y03687*
X02708*
Y03687*
G37*
G36*
X02833Y03687D02*
X02832D01*
Y03687*
X02833*
Y03687*
G37*
G36*
X02709Y03686D02*
X02709D01*
Y03686*
X02709*
Y03686*
G37*
G36*
X02704Y03686D02*
X02704D01*
Y03685*
X02704*
Y03686*
G37*
G36*
X02699Y03685D02*
X02699D01*
Y03685*
X02699*
Y03685*
G37*
G36*
X02713Y03685D02*
X02712D01*
Y03685*
X02713*
Y03685*
G37*
G36*
X02701Y03683D02*
X02701D01*
Y03683*
X02701*
Y03683*
G37*
G36*
X02698Y03683D02*
X02698D01*
Y03683*
X02698*
Y03683*
G37*
G36*
X02738Y0368D02*
X02737D01*
Y0368*
X02738*
Y0368*
G37*
G36*
X02838Y03679D02*
X02838D01*
Y03678*
X02838*
Y03679*
G37*
G36*
X02832Y03677D02*
X02832D01*
Y03677*
X02832*
Y03677*
G37*
G36*
X02696Y03674D02*
X02695D01*
Y03673*
X02696*
Y03674*
G37*
G36*
X0272Y03673D02*
X0272D01*
Y03673*
X0272*
Y03673*
G37*
G36*
X02834Y03671D02*
X02834D01*
Y03671*
X02834*
Y03671*
G37*
G36*
X02847Y0367D02*
X02847D01*
Y03669*
X02847*
Y0367*
G37*
G36*
X02723Y03668D02*
X02722D01*
Y03667*
X02723*
Y03668*
G37*
G36*
X02844Y03667D02*
X02844D01*
Y03667*
X02844*
Y03667*
G37*
G36*
X02727Y03665D02*
X02727D01*
Y03665*
X02727*
Y03665*
G37*
G36*
X02724Y03665D02*
X02724D01*
Y03665*
X02724*
Y03665*
G37*
G36*
X02735Y03662D02*
X02735D01*
Y03662*
X02735*
Y03662*
G37*
G36*
X02833Y03662D02*
X02833D01*
Y03662*
X02833*
Y03662*
G37*
G36*
X02733D02*
X02732D01*
Y03662*
X02733*
Y03662*
G37*
G36*
X02735Y03662D02*
X02735D01*
Y03662*
X02735*
Y03662*
G37*
G36*
X02776Y03751D02*
X02775D01*
Y03751*
X02776*
Y03751*
G37*
G36*
X02781Y03751D02*
X02781D01*
Y0375*
X02781*
Y03751*
G37*
G36*
X02777Y03748D02*
X02777D01*
Y03748*
X02777*
Y03748*
G37*
%LNntc-3*%
%LPD*%
G54D22*
X03997Y02875D02*
Y02908D01*
X03991Y02914*
X03978*
X03971Y02908*
Y02875*
X03932Y02914D02*
X03958D01*
X03932Y02888*
Y02881*
X03938Y02875*
X03951*
X03958Y02881*
X02462Y03636D02*
Y03663D01*
X02476*
X02481Y03659*
Y0365*
X02476Y03645*
X02462*
X02472D02*
X02481Y03636D01*
X0249Y03663D02*
Y03645D01*
X02499Y03636*
X02508Y03645*
Y03663*
X02517Y03636D02*
X02527D01*
X02522*
Y03663*
X02517Y03659*
X03068Y02854D02*
Y02821D01*
X03075Y02815*
X03088*
X03095Y02821*
Y02854*
X03108Y02815D02*
X03121D01*
X03114*
Y02854*
X03108Y02848*
X03482Y03734D02*
Y03695D01*
X03462*
X03456Y03701*
Y03714*
X03462Y03721*
X03482*
X03469D02*
X03456Y03734D01*
X03443Y03695D02*
Y03721D01*
X03429Y03734*
X03416Y03721*
Y03695*
X03403Y03701D02*
X03397Y03695D01*
X03384*
X03377Y03701*
Y03708*
X03384Y03714*
X0339*
X03384*
X03377Y03721*
Y03728*
X03384Y03734*
X03397*
X03403Y03728*
X03442Y02844D02*
Y02805D01*
X03422*
X03416Y02811*
Y02824*
X03422Y02831*
X03442*
X03429D02*
X03416Y02844D01*
X03403Y02805D02*
Y02831D01*
X03389Y02844*
X03376Y02831*
Y02805*
X03337Y02844D02*
X03363D01*
X03337Y02818*
Y02811*
X03344Y02805*
X03357*
X03363Y02811*
X03637Y0279D02*
Y02829D01*
X03656*
X03663Y02823*
Y0281*
X03656Y02803*
X03637*
X0365D02*
X03663Y0279D01*
X03676Y02823D02*
X03683Y02829D01*
X03696*
X03702Y02823*
Y02816*
X03696Y0281*
X03702Y02803*
Y02796*
X03696Y0279*
X03683*
X03676Y02796*
Y02803*
X03683Y0281*
X03676Y02816*
Y02823*
X03683Y0281D02*
X03696D01*
X03829Y03022D02*
X0379D01*
Y03041*
X03796Y03048*
X0381*
X03816Y03041*
Y03022*
Y03035D02*
X03829Y03048D01*
X0379Y03061D02*
Y03087D01*
X03796*
X03823Y03061*
X03829*
X03495Y03472D02*
X03534D01*
Y03453*
X03528Y03446*
X03515*
X03508Y03453*
Y03472*
Y03459D02*
X03495Y03446D01*
X03534Y03407D02*
X03528Y0342D01*
X03515Y03433*
X03501*
X03495Y03426*
Y03413*
X03501Y03407*
X03508*
X03515Y03413*
Y03433*
X03664Y03022D02*
X03625D01*
Y03041*
X03631Y03048*
X03645*
X03651Y03041*
Y03022*
Y03035D02*
X03664Y03048D01*
X03625Y03087D02*
Y03061D01*
X03645*
X03638Y03074*
Y03081*
X03645Y03087*
X03658*
X03664Y03081*
Y03068*
X03658Y03061*
X02864Y03112D02*
X02825D01*
Y03131*
X02831Y03138*
X02845*
X02851Y03131*
Y03112*
Y03125D02*
X02864Y03138D01*
Y03171D02*
X02825D01*
X02845Y03151*
Y03177*
X0369Y03467D02*
X03729D01*
Y03448*
X03723Y03441*
X0371*
X03703Y03448*
Y03467*
Y03454D02*
X0369Y03441D01*
X03723Y03428D02*
X03729Y03421D01*
Y03408*
X03723Y03402*
X03716*
X0371Y03408*
Y03415*
Y03408*
X03703Y03402*
X03696*
X0369Y03408*
Y03421*
X03696Y03428*
X02729Y03242D02*
X0269D01*
Y03261*
X02696Y03268*
X0271*
X02716Y03261*
Y03242*
Y03255D02*
X02729Y03268D01*
Y03307D02*
Y03281D01*
X02703Y03307*
X02696*
X0269Y03301*
Y03288*
X02696Y03281*
X02733Y02875D02*
Y02914D01*
X02753*
X0276Y02908*
Y02895*
X02753Y02888*
X02733*
X02746D02*
X0276Y02875D01*
X02773D02*
X02786D01*
X02779*
Y02914*
X02773Y02908*
X02465Y03342D02*
X02504D01*
X02465Y03316*
X02504*
Y03303D02*
Y03276D01*
Y03289*
X02465*
X02498Y03237D02*
X02504Y03244D01*
Y03257*
X02498Y03263*
X02471*
X02465Y03257*
Y03244*
X02471Y03237*
G54D23*
X02437Y0352D02*
D01*
X02437Y0352*
X02437Y0352*
X02437Y03521*
X02437Y03521*
X02437Y03521*
X02437Y03522*
X02436Y03522*
X02436Y03522*
X02436Y03523*
X02436Y03523*
X02436Y03523*
X02435Y03523*
X02435Y03524*
X02435Y03524*
X02435Y03524*
X02434Y03524*
X02434Y03524*
X02434Y03524*
X02433Y03524*
X02433Y03525*
X02433Y03525*
X02432Y03525*
X02432*
X02432Y03525*
X02431Y03525*
X02431Y03524*
X02431Y03524*
X0243Y03524*
X0243Y03524*
X0243Y03524*
X02429Y03524*
X02429Y03524*
X02429Y03523*
X02429Y03523*
X02428Y03523*
X02428Y03523*
X02428Y03522*
X02428Y03522*
X02428Y03522*
X02427Y03521*
X02427Y03521*
X02427Y03521*
X02427Y0352*
X02427Y0352*
X02427Y0352*
X02427Y03519*
X02427Y03519*
X02427Y03519*
X02427Y03518*
X02427Y03518*
X02428Y03518*
X02428Y03517*
X02428Y03517*
X02428Y03517*
X02428Y03517*
X02429Y03516*
X02429Y03516*
X02429Y03516*
X02429Y03516*
X0243Y03515*
X0243Y03515*
X0243Y03515*
X02431Y03515*
X02431Y03515*
X02431Y03515*
X02432Y03515*
X02432Y03515*
X02432*
X02433Y03515*
X02433Y03515*
X02433Y03515*
X02434Y03515*
X02434Y03515*
X02434Y03515*
X02435Y03515*
X02435Y03516*
X02435Y03516*
X02435Y03516*
X02436Y03516*
X02436Y03517*
X02436Y03517*
X02436Y03517*
X02436Y03517*
X02437Y03518*
X02437Y03518*
X02437Y03518*
X02437Y03519*
X02437Y03519*
X02437Y03519*
X02437Y0352*
X04233Y03811D02*
D01*
X04233Y03811*
X04233Y03812*
X04233Y03812*
X04232Y03812*
X04232Y03813*
X04232Y03813*
X04232Y03813*
X04232Y03814*
X04232Y03814*
X04231Y03814*
X04231Y03814*
X04231Y03815*
X04231Y03815*
X0423Y03815*
X0423Y03815*
X0423Y03815*
X0423Y03816*
X04229Y03816*
X04229Y03816*
X04229Y03816*
X04228Y03816*
X04228Y03816*
X04228*
X04227Y03816*
X04227Y03816*
X04227Y03816*
X04226Y03816*
X04226Y03816*
X04226Y03815*
X04225Y03815*
X04225Y03815*
X04225Y03815*
X04224Y03815*
X04224Y03814*
X04224Y03814*
X04224Y03814*
X04224Y03814*
X04223Y03813*
X04223Y03813*
X04223Y03813*
X04223Y03812*
X04223Y03812*
X04223Y03812*
X04223Y03811*
X04223Y03811*
X04223Y03811*
X04223Y0381*
X04223Y0381*
X04223Y0381*
X04223Y03809*
X04223Y03809*
X04223Y03809*
X04224Y03808*
X04224Y03808*
X04224Y03808*
X04224Y03808*
X04224Y03807*
X04225Y03807*
X04225Y03807*
X04225Y03807*
X04226Y03807*
X04226Y03807*
X04226Y03806*
X04227Y03806*
X04227Y03806*
X04227Y03806*
X04228Y03806*
X04228*
X04228Y03806*
X04229Y03806*
X04229Y03806*
X04229Y03806*
X0423Y03807*
X0423Y03807*
X0423Y03807*
X0423Y03807*
X04231Y03807*
X04231Y03807*
X04231Y03808*
X04231Y03808*
X04232Y03808*
X04232Y03808*
X04232Y03809*
X04232Y03809*
X04232Y03809*
X04232Y0381*
X04233Y0381*
X04233Y0381*
X04233Y03811*
X04233Y03811*
X02929Y03606D02*
D01*
X02929Y03606*
X02929Y03606*
X02929Y03607*
X02929Y03607*
X02929Y03607*
X02929Y03608*
X02929Y03608*
X02929Y03608*
X02928Y03609*
X02928Y03609*
X02928Y03609*
X02928Y03609*
X02928Y0361*
X02927Y0361*
X02927Y0361*
X02927Y0361*
X02926Y0361*
X02926Y0361*
X02926Y0361*
X02925Y03611*
X02925Y03611*
X02925Y03611*
X02924*
X02924Y03611*
X02924Y03611*
X02923Y0361*
X02923Y0361*
X02923Y0361*
X02922Y0361*
X02922Y0361*
X02922Y0361*
X02921Y0361*
X02921Y03609*
X02921Y03609*
X02921Y03609*
X02921Y03609*
X0292Y03608*
X0292Y03608*
X0292Y03608*
X0292Y03607*
X0292Y03607*
X0292Y03607*
X0292Y03606*
X0292Y03606*
X0292Y03606*
X0292Y03605*
X0292Y03605*
X0292Y03605*
X0292Y03604*
X0292Y03604*
X0292Y03604*
X0292Y03603*
X0292Y03603*
X02921Y03603*
X02921Y03603*
X02921Y03602*
X02921Y03602*
X02921Y03602*
X02922Y03602*
X02922Y03601*
X02922Y03601*
X02923Y03601*
X02923Y03601*
X02923Y03601*
X02924Y03601*
X02924Y03601*
X02924Y03601*
X02925*
X02925Y03601*
X02925Y03601*
X02926Y03601*
X02926Y03601*
X02926Y03601*
X02927Y03601*
X02927Y03601*
X02927Y03602*
X02928Y03602*
X02928Y03602*
X02928Y03602*
X02928Y03603*
X02928Y03603*
X02929Y03603*
X02929Y03603*
X02929Y03604*
X02929Y03604*
X02929Y03604*
X02929Y03605*
X02929Y03605*
X02929Y03605*
X02929Y03606*
X03889Y03671D02*
D01*
X03889Y03671*
X03889Y03671*
X03889Y03672*
X03889Y03672*
X03889Y03672*
X03889Y03673*
X03889Y03673*
X03889Y03673*
X03888Y03674*
X03888Y03674*
X03888Y03674*
X03888Y03674*
X03888Y03675*
X03887Y03675*
X03887Y03675*
X03887Y03675*
X03886Y03675*
X03886Y03675*
X03886Y03675*
X03885Y03676*
X03885Y03676*
X03885Y03676*
X03884*
X03884Y03676*
X03884Y03676*
X03883Y03675*
X03883Y03675*
X03883Y03675*
X03882Y03675*
X03882Y03675*
X03882Y03675*
X03881Y03675*
X03881Y03674*
X03881Y03674*
X03881Y03674*
X03881Y03674*
X0388Y03673*
X0388Y03673*
X0388Y03673*
X0388Y03672*
X0388Y03672*
X0388Y03672*
X0388Y03671*
X0388Y03671*
X0388Y03671*
X0388Y0367*
X0388Y0367*
X0388Y0367*
X0388Y03669*
X0388Y03669*
X0388Y03669*
X0388Y03668*
X0388Y03668*
X03881Y03668*
X03881Y03668*
X03881Y03667*
X03881Y03667*
X03881Y03667*
X03882Y03667*
X03882Y03666*
X03882Y03666*
X03883Y03666*
X03883Y03666*
X03883Y03666*
X03884Y03666*
X03884Y03666*
X03884Y03666*
X03885*
X03885Y03666*
X03885Y03666*
X03886Y03666*
X03886Y03666*
X03886Y03666*
X03887Y03666*
X03887Y03666*
X03887Y03667*
X03888Y03667*
X03888Y03667*
X03888Y03667*
X03888Y03668*
X03888Y03668*
X03889Y03668*
X03889Y03668*
X03889Y03669*
X03889Y03669*
X03889Y03669*
X03889Y0367*
X03889Y0367*
X03889Y0367*
X03889Y03671*
X03434Y03272D02*
D01*
X03434Y03272*
X03434Y03273*
X03434Y03273*
X03434Y03273*
X03434Y03274*
X03434Y03274*
X03434Y03274*
X03434Y03275*
X03433Y03275*
X03433Y03275*
X03433Y03275*
X03433Y03276*
X03433Y03276*
X03432Y03276*
X03432Y03276*
X03432Y03276*
X03431Y03277*
X03431Y03277*
X03431Y03277*
X0343Y03277*
X0343Y03277*
X0343Y03277*
X03429*
X03429Y03277*
X03429Y03277*
X03428Y03277*
X03428Y03277*
X03428Y03277*
X03427Y03276*
X03427Y03276*
X03427Y03276*
X03426Y03276*
X03426Y03276*
X03426Y03275*
X03426Y03275*
X03426Y03275*
X03425Y03275*
X03425Y03274*
X03425Y03274*
X03425Y03274*
X03425Y03273*
X03425Y03273*
X03425Y03273*
X03425Y03272*
X03425Y03272*
X03425Y03272*
X03425Y03271*
X03425Y03271*
X03425Y03271*
X03425Y0327*
X03425Y0327*
X03425Y0327*
X03425Y03269*
X03426Y03269*
X03426Y03269*
X03426Y03269*
X03426Y03268*
X03426Y03268*
X03427Y03268*
X03427Y03268*
X03427Y03268*
X03428Y03267*
X03428Y03267*
X03428Y03267*
X03429Y03267*
X03429Y03267*
X03429Y03267*
X0343*
X0343Y03267*
X0343Y03267*
X03431Y03267*
X03431Y03267*
X03431Y03267*
X03432Y03268*
X03432Y03268*
X03432Y03268*
X03433Y03268*
X03433Y03268*
X03433Y03269*
X03433Y03269*
X03433Y03269*
X03434Y03269*
X03434Y0327*
X03434Y0327*
X03434Y0327*
X03434Y03271*
X03434Y03271*
X03434Y03271*
X03434Y03272*
X03434Y03272*
G54D24*
X03021Y03603D02*
D01*
X03021Y03604*
X03021Y03605*
X03021Y03605*
X03021Y03606*
X03021Y03607*
X0302Y03608*
X0302Y03608*
X0302Y03609*
X03019Y0361*
X03019Y03611*
X03018Y03611*
X03017Y03612*
X03017Y03612*
X03016Y03613*
X03015Y03613*
X03015Y03614*
X03014Y03614*
X03013Y03614*
X03012Y03614*
X03012Y03615*
X03011Y03615*
X0301Y03615*
X03009*
X03008Y03615*
X03007Y03615*
X03007Y03614*
X03006Y03614*
X03005Y03614*
X03004Y03614*
X03004Y03613*
X03003Y03613*
X03002Y03612*
X03002Y03612*
X03001Y03611*
X03Y03611*
X03Y0361*
X03Y03609*
X02999Y03608*
X02999Y03608*
X02998Y03607*
X02998Y03606*
X02998Y03605*
X02998Y03605*
X02998Y03604*
X02998Y03603*
X02998Y03602*
X02998Y03601*
X02998Y036*
X02998Y036*
X02998Y03599*
X02999Y03598*
X02999Y03597*
X03Y03597*
X03Y03596*
X03Y03595*
X03001Y03595*
X03002Y03594*
X03002Y03594*
X03003Y03593*
X03004Y03593*
X03004Y03592*
X03005Y03592*
X03006Y03592*
X03007Y03591*
X03007Y03591*
X03008Y03591*
X03009Y03591*
X0301*
X03011Y03591*
X03012Y03591*
X03012Y03591*
X03013Y03592*
X03014Y03592*
X03015Y03592*
X03015Y03593*
X03016Y03593*
X03017Y03594*
X03017Y03594*
X03018Y03595*
X03019Y03595*
X03019Y03596*
X0302Y03597*
X0302Y03597*
X0302Y03598*
X03021Y03599*
X03021Y036*
X03021Y036*
X03021Y03601*
X03021Y03602*
X03021Y03603*
X03981Y03668D02*
D01*
X03981Y03669*
X03981Y0367*
X03981Y0367*
X03981Y03671*
X03981Y03672*
X0398Y03673*
X0398Y03673*
X0398Y03674*
X03979Y03675*
X03979Y03676*
X03978Y03676*
X03977Y03677*
X03977Y03677*
X03976Y03678*
X03975Y03678*
X03975Y03679*
X03974Y03679*
X03973Y03679*
X03972Y03679*
X03972Y0368*
X03971Y0368*
X0397Y0368*
X03969*
X03968Y0368*
X03967Y0368*
X03967Y03679*
X03966Y03679*
X03965Y03679*
X03964Y03679*
X03964Y03678*
X03963Y03678*
X03962Y03677*
X03962Y03677*
X03961Y03676*
X0396Y03676*
X0396Y03675*
X0396Y03674*
X03959Y03673*
X03959Y03673*
X03958Y03672*
X03958Y03671*
X03958Y0367*
X03958Y0367*
X03958Y03669*
X03958Y03668*
X03958Y03667*
X03958Y03666*
X03958Y03665*
X03958Y03665*
X03958Y03664*
X03959Y03663*
X03959Y03662*
X0396Y03662*
X0396Y03661*
X0396Y0366*
X03961Y0366*
X03962Y03659*
X03962Y03659*
X03963Y03658*
X03964Y03658*
X03964Y03657*
X03965Y03657*
X03966Y03657*
X03967Y03656*
X03967Y03656*
X03968Y03656*
X03969Y03656*
X0397*
X03971Y03656*
X03972Y03656*
X03972Y03656*
X03973Y03657*
X03974Y03657*
X03975Y03657*
X03975Y03658*
X03976Y03658*
X03977Y03659*
X03977Y03659*
X03978Y0366*
X03979Y0366*
X03979Y03661*
X0398Y03662*
X0398Y03662*
X0398Y03663*
X03981Y03664*
X03981Y03665*
X03981Y03665*
X03981Y03666*
X03981Y03667*
X03981Y03668*
G54D25*
X0305Y03642D02*
D01*
X0305Y03641*
X0305Y03639*
X0305Y03637*
X0305Y03635*
X03051Y03634*
X03052Y03632*
X03052Y03631*
X03053Y03629*
X03054Y03628*
X03055Y03626*
X03057Y03625*
X03058Y03624*
X03059Y03623*
X03061Y03622*
X03062Y03621*
X03064Y0362*
X03065Y03619*
X03067Y03619*
X03068Y03618*
X0307Y03618*
X03072Y03617*
X03074Y03617*
X03075*
X03077Y03617*
X03079Y03618*
X03081Y03618*
X03082Y03619*
X03084Y03619*
X03085Y0362*
X03087Y03621*
X03088Y03622*
X0309Y03623*
X03091Y03624*
X03092Y03625*
X03094Y03626*
X03095Y03628*
X03096Y03629*
X03097Y03631*
X03097Y03632*
X03098Y03634*
X03099Y03635*
X03099Y03637*
X03099Y03639*
X03099Y03641*
X031Y03642*
X0401Y03707D02*
D01*
X0401Y03706*
X0401Y03704*
X0401Y03702*
X0401Y037*
X04011Y03699*
X04012Y03697*
X04012Y03696*
X04013Y03694*
X04014Y03693*
X04015Y03691*
X04017Y0369*
X04018Y03689*
X04019Y03688*
X04021Y03687*
X04022Y03686*
X04024Y03685*
X04025Y03684*
X04027Y03684*
X04028Y03683*
X0403Y03683*
X04032Y03682*
X04034Y03682*
X04035*
X04037Y03682*
X04039Y03683*
X04041Y03683*
X04042Y03684*
X04044Y03684*
X04045Y03685*
X04047Y03686*
X04048Y03687*
X0405Y03688*
X04051Y03689*
X04052Y0369*
X04054Y03691*
X04055Y03693*
X04056Y03694*
X04057Y03696*
X04057Y03697*
X04058Y03699*
X04059Y037*
X04059Y03702*
X04059Y03704*
X04059Y03706*
X0406Y03707*
X03835Y0287D02*
X03844D01*
X03626D02*
X03635D01*
X03835Y0284D02*
Y0287D01*
X03635Y0284D02*
X03835D01*
X03635D02*
Y029D01*
X03835*
Y0287D02*
Y029D01*
X02847Y03422D02*
Y03617D01*
X02462D02*
X02847D01*
X02462Y03422D02*
Y03617D01*
Y03422D02*
X02847D01*
X0275Y0331D02*
X0278D01*
X0275Y0311D02*
Y0331D01*
Y0311D02*
X0281D01*
Y0331*
X0278D02*
X0281D01*
X0278Y03101D02*
Y0311D01*
Y0331D02*
Y03319D01*
X03715Y0322D02*
X03745D01*
X03715Y0302D02*
Y0322D01*
Y0302D02*
X03775D01*
Y0322*
X03745D02*
X03775D01*
X03745Y03011D02*
Y0302D01*
Y0322D02*
Y03229D01*
X02464Y03154D02*
X02585D01*
X02464D02*
Y03225D01*
X02585*
Y03154D02*
Y03225D01*
X02785Y0296D02*
Y0299D01*
X02585D02*
X02785D01*
X02585Y0293D02*
Y0299D01*
Y0293D02*
X02785D01*
Y0296*
X02576D02*
X02585D01*
X02785D02*
X02794D01*
X0265Y0311D02*
X0268D01*
Y0331*
X0262D02*
X0268D01*
X0262Y0311D02*
Y0331D01*
Y0311D02*
X0265D01*
Y0331D02*
Y03319D01*
Y03101D02*
Y0311D01*
X03615Y036D02*
X03645D01*
X03615Y034D02*
Y036D01*
Y034D02*
X03675D01*
Y036*
X03645D02*
X03675D01*
X03645Y03391D02*
Y034D01*
Y036D02*
Y03609D01*
X03555Y0322D02*
X03585D01*
X03555Y0302D02*
Y0322D01*
Y0302D02*
X03615D01*
Y0322*
X03585D02*
X03615D01*
X03585Y03011D02*
Y0302D01*
Y0322D02*
Y03229D01*
X0342Y03605D02*
X0345D01*
X0342Y03405D02*
Y03605D01*
Y03405D02*
X0348D01*
Y03605*
X0345D02*
X0348D01*
X0345Y03396D02*
Y03405D01*
Y03605D02*
Y03614D01*
X04209Y03749D02*
Y03949D01*
X0338D02*
X04209D01*
X0338Y03749D02*
Y03949D01*
Y03749D02*
X04209D01*
X0297Y02867D02*
X03179D01*
X031Y03642D02*
X03179D01*
X0297D02*
X0305D01*
X03179Y02867D02*
Y03642D01*
X0297Y02867D02*
Y03642D01*
X0393Y02932D02*
X04139D01*
X0406Y03707D02*
X04139D01*
X0393D02*
X0401D01*
X04139Y02932D02*
Y03707D01*
X0393Y02932D02*
Y03707D01*
X033Y03755D02*
Y03855D01*
X029Y03755D02*
X033D01*
X029Y03855D02*
X033D01*
X029Y03755D02*
Y03855D01*
X03332Y02857D02*
X03527D01*
Y03242*
X03332D02*
X03527D01*
X03332Y02857D02*
Y03242D01*
X03295Y03903D02*
X03285D01*
X03281Y03899*
Y03889*
X03285Y03885*
X03295*
X03299Y03889*
Y03899*
X03295Y03903*
X03272Y03885D02*
Y03899D01*
X03267Y03903*
X03253*
Y03885*
X0324Y0388D02*
Y03885D01*
X03244*
X03235*
X0324*
Y03899*
X03235Y03903*
X03194Y03876D02*
Y03894D01*
X03184Y03903*
X03175Y03894*
Y03876*
X03148Y0388D02*
X03152Y03876D01*
X03161*
X03166Y0388*
Y03899*
X03161Y03903*
X03152*
X03148Y03899*
X0312Y0388D02*
X03125Y03876D01*
X03134*
X03139Y0388*
Y03899*
X03134Y03903*
X03125*
X0312Y03899*
X03083Y03876D02*
Y03894D01*
X03074Y03903*
X03065Y03894*
Y03876*
X03056D02*
Y03903D01*
X03042*
X03038Y03899*
Y0388*
X03042Y03876*
X03056*
X03028D02*
Y03903D01*
X03015*
X0301Y03899*
Y0388*
X03015Y03876*
X03028*
X02955Y0388D02*
X02959Y03876D01*
X02969*
X02973Y0388*
Y03899*
X02969Y03903*
X02959*
X02955Y03899*
Y03889*
X02964*
X02946Y03903D02*
Y03876D01*
X02927Y03903*
Y03876*
X02918D02*
Y03903D01*
X02904*
X029Y03899*
Y0388*
X02904Y03876*
X02918*
M02*