%FSTAX23Y23*%
%MOIN*%
%SFA1B1*%

%IPPOS*%
%ADD13C,0.010000*%
%ADD30C,0.005905*%
%ADD31C,0.006000*%
%LNntc-1*%
%LPD*%
G54D13*
X0393Y0251D02*
Y0386D01*
X0279Y0251D02*
X0393D01*
X0279D02*
Y0254D01*
X0239D02*
X0279D01*
X0239D02*
Y03655D01*
X02395Y0366*
X0248*
Y0378*
X02945*
Y03855*
X0295Y0386*
X0393*
X0239Y0247D02*
X02429Y02483D01*
X0239Y0247D02*
X02429Y02456D01*
X039D02*
X0394Y0247D01*
X039Y02483D02*
X0394Y0247D01*
X0239D02*
X03082D01*
X03215D02*
X0394D01*
X0239Y0246D02*
Y0253D01*
X0394Y0246D02*
Y02515D01*
X0398Y0386D02*
X03993Y0382D01*
X03966D02*
X0398Y0386D01*
X03966Y02554D02*
X0398Y02515D01*
X03993Y02554*
X0398Y03238D02*
Y0386D01*
Y02515D02*
Y03104D01*
X0394Y0386D02*
X0399D01*
X0394Y02515D02*
X0399D01*
G54D30*
X0288Y03062D02*
Y03022D01*
X02887Y03015*
X02903*
X02911Y03022*
Y03062*
X02927Y03015D02*
X02942D01*
X02935*
Y03062*
X02927Y03054*
X03417Y0352D02*
X03457D01*
X03465Y03527*
Y03543*
X03457Y03551*
X03417*
X03465Y03598D02*
Y03567D01*
X03433Y03598*
X03425*
X03417Y0359*
Y03575*
X03425Y03567*
G54D31*
X03098Y02473D02*
X03103Y02477D01*
X03112*
X03116Y02473*
Y02468*
X03112Y02464*
X03107*
X03112*
X03116Y02459*
Y02454*
X03112Y0245*
X03103*
X03098Y02454*
X03126D02*
X0313Y0245D01*
X03139*
X03144Y02454*
Y02473*
X03139Y02477*
X0313*
X03126Y02473*
Y02468*
X0313Y02464*
X03144*
X03153Y0245D02*
Y02468D01*
X03158*
X03162Y02464*
Y0245*
Y02464*
X03167Y02468*
X03171Y02464*
Y0245*
X03181D02*
Y02468D01*
X03185*
X0319Y02464*
Y0245*
Y02464*
X03194Y02468*
X03199Y02464*
Y0245*
X03976Y0312D02*
X03972Y03125D01*
Y03134*
X03976Y03139*
X03981*
X03986Y03134*
Y0313*
Y03134*
X0399Y03139*
X03995*
X03999Y03134*
Y03125*
X03995Y0312*
X03999Y03162D02*
X03972D01*
X03986Y03148*
Y03166*
X03999Y03176D02*
X03981D01*
Y0318*
X03986Y03185*
X03999*
X03986*
X03981Y03189*
X03986Y03194*
X03999*
Y03203D02*
X03981D01*
Y03208*
X03986Y03212*
X03999*
X03986*
X03981Y03217*
X03986Y03222*
X03999*
M02*