%TF.GenerationSoftware,Altium Limited,Altium Designer,23.11.1 (41)*%
G04 Layer_Physical_Order=1*
G04 Layer_Color=255*
%FSLAX45Y45*%
%MOMM*%
%TF.SameCoordinates,91611F1A-C2A4-47E0-AE94-993C827FD4CF*%
%TF.FilePolarity,Positive*%
%TF.FileFunction,Copper,L1,Top,Signal*%
%TF.Part,Single*%
G01*
G75*
%TA.AperFunction,ComponentPad*%
%ADD10C,2.00000*%
%ADD11R,2.00000X2.00000*%
%ADD12R,1.35000X1.35000*%
%ADD13C,1.35000*%
%ADD14C,1.50000*%
%ADD15R,1.50000X1.50000*%
%ADD16R,1.60000X1.60000*%
%ADD17C,1.60000*%
%ADD18C,1.90000*%
%ADD19R,1.90000X1.90000*%
%ADD20R,2.00000X2.00000*%
%ADD21C,1.20000*%
%ADD22R,1.20000X1.20000*%
D10*
X3683000Y-2821701D02*
D03*
X4838700Y-1488201D02*
D03*
X670804Y-1778000D02*
D03*
X1716801Y-2235200D02*
D03*
X670799Y-1422400D02*
D03*
X1716801Y-990600D02*
D03*
D11*
X3683000Y-1775699D02*
D03*
X4838700Y-442199D02*
D03*
D12*
X4707702Y-1841500D02*
D03*
X4352102Y-1384300D02*
D03*
D13*
X4207698Y-1841500D02*
D03*
X3852098Y-1384300D02*
D03*
D14*
X5270500Y-2120900D02*
D03*
Y-1866900D02*
D03*
Y-1612900D02*
D03*
Y-1358900D02*
D03*
X330200D02*
D03*
Y-1612900D02*
D03*
D15*
X5270500Y-1104900D02*
D03*
X330200Y-1866900D02*
D03*
D16*
X4737100Y-2400300D02*
D03*
D17*
X4483100D02*
D03*
X4229100D02*
D03*
D18*
X4343400Y-825500D02*
D03*
X4089400D02*
D03*
D19*
X3835400D02*
D03*
D20*
X1716801Y-1778000D02*
D03*
X670799Y-2235200D02*
D03*
X1716801Y-1422400D02*
D03*
X670799Y-990600D02*
D03*
D21*
X812800Y-2628900D02*
D03*
X1574800D02*
D03*
Y-596900D02*
D03*
X812800D02*
D03*
X2667000Y-2819400D02*
D03*
Y-1206500D02*
D03*
D22*
Y-2057400D02*
D03*
Y-444500D02*
D03*
%TF.MD5,879aab67d0d914f788e1a8d1ca17a315*%
M02*
