%FSTAX23Y23*%
%MOIN*%
%SFA1B1*%

%IPPOS*%
%ADD27C,0.010000*%
%ADD41C,0.006000*%
%LNps-1*%
%LPD*%
G54D27*
X02205Y-00385D02*
D01*
X02201Y-00356*
X02196Y-00327*
X02189Y-00299*
X0218Y-00271*
X02169Y-00244*
X02156Y-00218*
X02142Y-00193*
X02126Y-00169*
X02108Y-00146*
X02088Y-00125*
X02067Y-00105*
X02045Y-00086*
X02021Y-00069*
X01997Y-00054*
X01971Y-0004*
X01944Y-00028*
X01917Y-00018*
X01889Y-00011*
X01861Y-00005*
X01832Y-00001*
X01803Y0*
X01774Y0*
X0176Y0*
X01765Y-0128D02*
D01*
X01793Y-01281*
X01822Y-0128*
X01851Y-01277*
X01879Y-01272*
X01907Y-01265*
X01934Y-01256*
X01961Y-01246*
X01987Y-01233*
X02012Y-01219*
X02036Y-01203*
X02058Y-01186*
X0208Y-01166*
X021Y-01146*
X02118Y-01124*
X02136Y-01101*
X02151Y-01076*
X02164Y-01051*
X02176Y-01025*
X02186Y-00998*
X02194Y-0097*
X022Y-00942*
X02205Y-00914*
X02206Y-0089*
X0Y-00853D02*
D01*
X00001Y-00883*
X00005Y-00913*
X0001Y-00943*
X00018Y-00972*
X00028Y-01001*
X0004Y-01029*
X00053Y-01056*
X00069Y-01082*
X00086Y-01106*
X00105Y-0113*
X00126Y-01152*
X00148Y-01173*
X00171Y-01192*
X00196Y-01209*
X00222Y-01225*
X00249Y-01239*
X00277Y-01251*
X00305Y-0126*
X00335Y-01268*
X00364Y-01274*
X00394Y-01278*
X00424Y-01279*
X0044Y-0128*
X00385Y0D02*
D01*
X00358Y0*
X00331Y-00003*
X00304Y-00008*
X00278Y-00014*
X00253Y-00023*
X00228Y-00033*
X00204Y-00045*
X0018Y-00058*
X00158Y-00073*
X00137Y-0009*
X00117Y-00108*
X00098Y-00127*
X00081Y-00147*
X00065Y-00169*
X00051Y-00192*
X00038Y-00216*
X00028Y-0024*
X00018Y-00266*
X00011Y-00291*
X00005Y-00318*
X00002Y-00344*
X0Y-00371*
X0Y-00385*
X00385Y0D02*
X0177D01*
X02205Y-0089D02*
Y-00385D01*
X0044Y-0128D02*
X01765D01*
X0Y-00853D02*
Y-00385D01*
X-0009Y0D02*
X-00076Y-00039D01*
X-00103D02*
X-0009Y0D01*
X-00103Y-00745D02*
X-0009Y-00785D01*
X-00076Y-00745*
X-0009Y-00311D02*
Y0D01*
Y-00785D02*
Y-00445D01*
X-001Y0D02*
X02235D01*
X-001Y-00785D02*
X00066D01*
X02221Y-00345D02*
X02235Y-00385D01*
X02248Y-00345*
X02235Y0D02*
X02248Y-00039D01*
X02221D02*
X02235Y0D01*
Y-00385D02*
Y-0026D01*
Y-00131D02*
Y0D01*
X02138Y-00385D02*
X02245D01*
X0213Y0D02*
X02245D01*
X0Y-01315D02*
X00039Y-01301D01*
X0Y-01315D02*
X00039Y-01328D01*
X0217D02*
X0221Y-01315D01*
X0217Y-01301D02*
X0221Y-01315D01*
X0D02*
X01022D01*
X01155D02*
X0221D01*
X0Y-01325D02*
Y-00868D01*
X0221Y-01325D02*
Y-00395D01*
G54D41*
X0184Y-01029D02*
Y-0099D01*
X01813*
X018D02*
Y-01029D01*
X01786Y-01016*
X01773Y-01029*
Y-0099*
X0176Y-01029D02*
X01733D01*
Y-01023*
X0176Y-00996*
Y-0099*
X0172Y-00996D02*
X01713Y-0099D01*
X017*
X01693Y-00996*
Y-01023*
X017Y-01029*
X01713*
X0172Y-01023*
Y-01016*
X01713Y-01009*
X01693*
X0168Y-0099D02*
X01666D01*
X01673*
Y-01029*
X0168Y-01023*
X0162Y-01029D02*
X01646D01*
Y-01009*
X01633Y-01016*
X01626*
X0162Y-01009*
Y-00996*
X01626Y-0099*
X0164*
X01646Y-00996*
X-00081Y-0041D02*
Y-00429D01*
X-00099Y-0041*
X-00103*
X-00108Y-00415*
Y-00424*
X-00103Y-00429*
Y-00401D02*
X-00108Y-00396D01*
Y-00387*
X-00103Y-00383*
X-00085*
X-00081Y-00387*
Y-00396*
X-00085Y-00401*
X-00103*
X-00081Y-00373D02*
X-00099D01*
Y-00369*
X-00094Y-00364*
X-00081*
X-00094*
X-00099Y-0036*
X-00094Y-00355*
X-00081*
Y-00346D02*
X-00099D01*
Y-00341*
X-00094Y-00337*
X-00081*
X-00094*
X-00099Y-00332*
X-00094Y-00327*
X-00081*
X02239Y-00244D02*
Y-00234D01*
Y-00239*
X02211*
X02216Y-00244*
Y-00221D02*
X02211Y-00216D01*
Y-00207*
X02216Y-00202*
X02234*
X02239Y-00207*
Y-00216*
X02234Y-00221*
X02216*
X02239Y-00193D02*
X0222D01*
Y-00188*
X02225Y-00184*
X02239*
X02225*
X0222Y-00179*
X02225Y-00175*
X02239*
Y-00165D02*
X0222D01*
Y-00161*
X02225Y-00156*
X02239*
X02225*
X0222Y-00152*
X02225Y-00147*
X02239*
X01056Y-01307D02*
X01038D01*
Y-01321*
X01047Y-01316*
X01052*
X01056Y-01321*
Y-0133*
X01052Y-01334*
X01043*
X01038Y-0133*
X01084Y-01307D02*
X01075Y-01311D01*
X01066Y-01321*
Y-0133*
X0107Y-01334*
X01079*
X01084Y-0133*
Y-01325*
X01079Y-01321*
X01066*
X01093Y-01334D02*
Y-01316D01*
X01098*
X01102Y-01321*
Y-01334*
Y-01321*
X01107Y-01316*
X01111Y-01321*
Y-01334*
X01121D02*
Y-01316D01*
X01125*
X0113Y-01321*
Y-01334*
Y-01321*
X01134Y-01316*
X01139Y-01321*
Y-01334*
M02*