%FSTAX23Y23*%
%MOIN*%
%SFA1B1*%

%IPPOS*%
%ADD10C,0.078740*%
%ADD11R,0.078740X0.078740*%
%ADD12R,0.053150X0.053150*%
%ADD13C,0.053150*%
%ADD14C,0.059055*%
%ADD15R,0.059055X0.059055*%
%ADD16R,0.062992X0.062992*%
%ADD17C,0.062992*%
%ADD18C,0.074803*%
%ADD19R,0.074803X0.074803*%
%ADD20R,0.078740X0.078740*%
%ADD21C,0.047244*%
%ADD22R,0.047244X0.047244*%
%ADD23C,0.019685*%
%LNps-1*%
%LPD*%
G36*
X01965Y-0011D02*
X01962Y-00115D01*
X01959*
X01845*
Y-00144*
X01575*
X01575*
X01568Y-00145*
X01561Y-00148*
X01554Y-00153*
Y-00153*
X01488Y-00218*
X01484Y-00225*
X01481Y-00232*
X0148Y-0024*
Y-00267*
X01452*
Y-00295*
X01212*
X01093Y-00176*
Y-00131*
X01006*
Y-00176*
X00977Y-00205*
X00651*
X00646Y-002*
X00636Y-00194*
X00625Y-00191*
X00614*
X00603Y-00194*
X00593Y-002*
X00588Y-00205*
X00575*
X00567Y-00206*
X0056Y-00209*
X00553Y-00213*
X00518Y-00248*
X00514Y-00255*
X00511Y-00262*
X0051Y-0027*
Y-0051*
X00511Y-00517*
X00514Y-00524*
X00518Y-00531*
X00568Y-00581*
X00575Y-00585*
X00582Y-00588*
X0059Y-00589*
X00616*
Y-00619*
X00646*
Y-0064*
X00616*
Y-00759*
X00731*
X00734*
X00736Y-00763*
Y-00819*
X00717Y-00838*
X00713Y-00834*
X00703Y-00827*
X00693Y-00823*
X00681Y-0082*
X0067*
X00658Y-00823*
X00647Y-00827*
X00638Y-00834*
X0063Y-00842*
X00623Y-00852*
X00619Y-00862*
X00616Y-00874*
Y-00885*
X00619Y-00897*
X00623Y-00907*
X0063Y-00917*
X00638Y-00925*
X00646Y-00931*
Y-00966*
X00621Y-00991*
X00614*
X00603Y-00994*
X00593Y-01*
X00585Y-01008*
X00579Y-01018*
X00576Y-01029*
Y-0104*
X00579Y-01051*
X00585Y-01061*
X00593Y-01069*
X00603Y-01075*
X00614Y-01078*
X00625*
X00636Y-01075*
X00646Y-01069*
X00651Y-01064*
X00962*
X01006Y-01108*
Y-01115*
X01009Y-01126*
X01015Y-01136*
X01023Y-01144*
X01033Y-0115*
X01044Y-01153*
X01055*
X01066Y-0115*
X01076Y-01144*
X01081Y-01139*
X0125Y-0114*
X0125Y-0114*
X0125Y-0114*
X01398*
X01404Y-01148*
X01412Y-01156*
X01422Y-01163*
X01432Y-01167*
X01444Y-01169*
X01455*
X01467Y-01167*
X01477Y-01163*
X01487Y-01156*
X01495Y-01148*
X01501Y-0114*
X01699*
X01706Y-01139*
X01713Y-01136*
X0172Y-01131*
X01786Y-01066*
X0179Y-01059*
X01793Y-01052*
X01794Y-01045*
Y-01044*
Y-00986*
X01796Y-00985*
X01805Y-00976*
X01812Y-00964*
X01816Y-00951*
Y-00938*
X01812Y-00925*
X01805Y-00913*
X01796Y-00904*
X01784Y-00897*
X01771Y-00893*
X01758*
X01745Y-00897*
X01733Y-00904*
X01724Y-00913*
X01717Y-00924*
X01715Y-00924*
X01712Y-00924*
X01705Y-00913*
X01696Y-00904*
X01687Y-00898*
Y-00804*
X0169Y-00803*
X01692Y-00802*
X01698Y-00807*
X01705Y-0081*
X01713Y-00811*
X01713*
X02026*
X02029Y-00816*
X02025Y-00828*
Y-00841*
X02029Y-00853*
X02035Y-00865*
X02044Y-00874*
X02056Y-0088*
X02068Y-00884*
X02081*
X02093Y-0088*
X02105Y-00874*
X02114Y-00865*
X0212Y-00853*
X02124Y-00841*
Y-00828*
X0212Y-00816*
X02114Y-00804*
X02105Y-00795*
X02104Y-00795*
Y-00774*
X02105Y-00774*
X02114Y-00765*
X0212Y-00753*
X02124Y-00741*
Y-00728*
X0212Y-00716*
X02114Y-00704*
X02105Y-00695*
X02093Y-00689*
X02081Y-00685*
X02068*
X02056Y-00689*
X02044Y-00695*
X02035Y-00704*
X02029Y-00716*
X02025Y-00728*
Y-00741*
X02025Y-00741*
X02016Y-00751*
X0189*
Y-0073*
X01853*
X01816*
Y-00751*
X01725*
X01702Y-00729*
Y-00718*
X01699Y-00707*
X01693Y-00696*
X01684Y-00687*
X01674Y-00681*
X01662Y-00678*
X01652*
X01651Y-00678*
X01645Y-00673*
X01638Y-0067*
X0163Y-00669*
X01509*
Y-0064*
X0139*
Y-00758*
X01509*
Y-00728*
X0161*
Y-00731*
X01613Y-00742*
X01619Y-00753*
X01627Y-00761*
Y-00909*
X01624Y-00913*
X01617Y-00925*
X01613Y-00938*
Y-00951*
X01617Y-00964*
X01624Y-00976*
X01633Y-00985*
X01645Y-00992*
X01658Y-00996*
X01671*
X01684Y-00992*
X01696Y-00985*
X01705Y-00976*
X01712Y-00965*
X01715Y-00965*
X01717Y-00965*
X01724Y-00976*
X01733Y-00985*
X01735Y-00986*
Y-01032*
X01686Y-01081*
X01501*
X01495Y-01073*
X01487Y-01065*
X01477Y-01058*
X01467Y-01054*
X01455Y-01051*
X01444*
X01432Y-01054*
X01422Y-01058*
X01412Y-01065*
X01404Y-01073*
X01398Y-01081*
X0125*
X01081Y-0108*
X01076Y-01075*
X01066Y-01069*
X01055Y-01066*
X01048*
X00996Y-01013*
X00989Y-01009*
X00982Y-01006*
X00975Y-01005*
X00698*
X00696Y-01*
X00696Y-01*
X00696*
X00701Y-00993*
X00704Y-00986*
X00705Y-00979*
Y-00931*
X00713Y-00925*
X00721Y-00917*
X00728Y-00907*
X00731Y-00901*
X00733Y-009*
X0074Y-00897*
X00747Y-00893*
X00787Y-00853*
X00791Y-00846*
X00794Y-00839*
X00795Y-00831*
Y-00831*
Y-00441*
Y-00441*
X00794Y-00433*
X00791Y-00426*
X00787Y-0042*
Y-00419*
X00745Y-00378*
X00739Y-00373*
X00732Y-0037*
X00731Y-0037*
X00728Y-00362*
X00721Y-00352*
X00713Y-00344*
X00703Y-00337*
X00693Y-00333*
X00681Y-0033*
X0067*
X00658Y-00333*
X00647Y-00337*
X00638Y-00344*
X0063Y-00352*
X00623Y-00362*
X00619Y-00372*
X00616Y-00384*
Y-00395*
X00619Y-00407*
X00623Y-00417*
X0063Y-00427*
X00638Y-00435*
X00647Y-00442*
X00658Y-00446*
X0067Y-00449*
X00681*
X00693Y-00446*
X00703Y-00442*
X00713Y-00435*
X00716Y-00433*
X00736Y-00453*
Y-00496*
X00734Y-005*
X00731*
X00616*
Y-0053*
X00602*
X00569Y-00497*
Y-00282*
X00584Y-00267*
X00591*
X00593Y-00269*
X00603Y-00275*
X00614Y-00278*
X00625*
X00636Y-00275*
X00646Y-00269*
X00651Y-00264*
X0099*
X00997Y-00263*
X01004Y-0026*
X01011Y-00256*
X01048Y-00218*
X01051*
X01178Y-00346*
X01185Y-0035*
X01192Y-00353*
X012Y-00354*
X01452*
Y-00382*
X01567*
Y-00355*
X0157Y-00354*
X01572Y-00354*
X0158Y-00362*
X01591Y-00369*
X01603Y-00372*
X01605*
Y-00325*
Y-00277*
X01603*
X01591Y-0028*
X0158Y-00287*
X01572Y-00295*
X0157Y-00295*
X01567Y-00294*
Y-00267*
X01539*
Y-00252*
X01588Y-00203*
X01845*
Y-00233*
X01964*
Y-00119*
Y-00116*
X01968Y-00113*
X02165Y-0031*
Y-00935*
X0186Y-0124*
X0035*
X00035Y-00925*
Y-003*
X0032Y-00015*
X0187*
X01965Y-0011*
G37*
%LNps-2*%
%LPC*%
G36*
X00315Y-00201D02*
X00307Y-00203D01*
X00299Y-00208*
X00293Y-00214*
X00288Y-00222*
X00286Y-0023*
X00315*
Y-00201*
G37*
G36*
X00325D02*
Y-00235D01*
Y-00268*
X00332Y-00266*
X00336Y-00264*
X0034Y-00263*
X00347Y-0026*
X00354Y-00256*
X00358Y-00249*
X00361Y-00242*
X00362Y-00235*
X00361Y-00227*
X00358Y-0022*
X00354Y-00213*
X00347Y-00209*
X0034Y-00206*
X00336Y-00205*
X00332Y-00203*
X00325Y-00201*
G37*
G36*
X00315Y-0024D02*
X00286D01*
X00288Y-00247*
X00293Y-00255*
X00299Y-00261*
X00307Y-00266*
X00315Y-00268*
Y-0024*
G37*
G36*
X01717Y-00267D02*
X01702D01*
X01687Y-00271*
X01674Y-00279*
X01664Y-00289*
X01657Y-00302*
X01654Y-00302*
X01651Y-00302*
X01647Y-00295*
X01639Y-00287*
X01628Y-0028*
X01616Y-00277*
X01615*
Y-00325*
Y-00372*
X01616*
X01628Y-00369*
X01639Y-00362*
X01647Y-00354*
X01651Y-00347*
X01654Y-00347*
X01657Y-00347*
X01664Y-0036*
X01674Y-0037*
X01683Y-00375*
Y-00498*
X01667*
Y-00591*
X01717*
X01733Y-00606*
X01739Y-00611*
X01746Y-00614*
X01754Y-00615*
X01853*
X01859Y-00623*
X01867Y-00631*
X01877Y-00638*
X01887Y-00642*
X01899Y-00644*
X0191*
X01922Y-00642*
X01932Y-00638*
X01942Y-00631*
X0195Y-00623*
X01957Y-00613*
X01961Y-00603*
X01964Y-00591*
Y-0058*
X01962Y-0057*
X01968Y-00564*
X02035*
X02035Y-00565*
X02044Y-00574*
X02056Y-0058*
X02068Y-00584*
X02081*
X02093Y-0058*
X02105Y-00574*
X02114Y-00565*
X0212Y-00553*
X02124Y-00541*
Y-00528*
X0212Y-00516*
X02114Y-00504*
X02105Y-00495*
X02104Y-00495*
Y-00484*
X02124*
Y-00385*
X02025*
Y-00484*
X02045*
Y-00495*
X02044Y-00495*
X02035Y-00504*
X02035Y-00505*
X01955*
X01955*
X01948Y-00506*
X01941Y-00509*
X01934Y-00513*
X0192Y-00528*
X0191Y-00526*
X01899*
X01887Y-00529*
X01877Y-00533*
X01867Y-0054*
X01859Y-00548*
X01853Y-00556*
X01766*
X01759Y-00549*
Y-00498*
X01743*
Y-00371*
X01745Y-0037*
X01755Y-0036*
X01763Y-00347*
X01767Y-00332*
Y-00317*
X01763Y-00302*
X01755Y-00289*
X01745Y-00279*
X01732Y-00271*
X01717Y-00267*
G37*
G36*
X01055Y-00441D02*
Y-0047D01*
X01083*
X01081Y-00462*
X01076Y-00454*
X0107Y-00448*
X01062Y-00443*
X01055Y-00441*
G37*
G36*
X01045D02*
X01037Y-00443D01*
X01029Y-00448*
X01023Y-00454*
X01018Y-00462*
X01016Y-0047*
X01045*
Y-00441*
G37*
G36*
X00323Y-0033D02*
X00205D01*
Y-00449*
X00234*
Y-00508*
X00226Y-00514*
X00218Y-00522*
X00212Y-0053*
X00179*
Y-00528*
X00175Y-00516*
X00169Y-00504*
X0016Y-00495*
X00148Y-00489*
X00136Y-00485*
X00123*
X00111Y-00489*
X00099Y-00495*
X0009Y-00504*
X00084Y-00516*
X0008Y-00528*
Y-00541*
X00084Y-00553*
X0009Y-00565*
X00099Y-00574*
X00111Y-0058*
X00123Y-00584*
X00136*
X00137Y-00583*
X0014Y-00585*
X00147Y-00588*
X00155Y-00589*
X00212*
X00218Y-00597*
X00226Y-00605*
X00236Y-00612*
X00246Y-00616*
X00258Y-00619*
X00269*
X00281Y-00616*
X00292Y-00612*
X00301Y-00605*
X00309Y-00597*
X00316Y-00587*
X0032Y-00577*
X00323Y-00565*
Y-00554*
X0032Y-00542*
X00316Y-00532*
X00309Y-00522*
X00301Y-00514*
X00293Y-00508*
Y-00449*
X00323*
Y-0033*
G37*
G36*
X01521Y-00508D02*
Y-0054D01*
X01553*
X0155Y-0053*
X01545Y-00522*
X01539Y-00515*
X0153Y-0051*
X01521Y-00508*
G37*
G36*
X01511D02*
X01502Y-0051D01*
X01494Y-00515*
X01487Y-00522*
X01482Y-0053*
X0148Y-0054*
X01511*
Y-00508*
G37*
G36*
X01553Y-0055D02*
X01521D01*
Y-00581*
X0153Y-00579*
X01539Y-00574*
X01545Y-00567*
X0155Y-00559*
X01553Y-0055*
G37*
G36*
X01511D02*
X0148D01*
X01482Y-00559*
X01487Y-00567*
X01494Y-00574*
X01502Y-00579*
X01511Y-00581*
Y-0055*
G37*
G36*
X00135Y-00595D02*
X00135D01*
Y-0063*
X00169*
Y-00629*
X00166Y-00619*
X00161Y-0061*
X00154Y-00603*
X00145Y-00598*
X00135Y-00595*
G37*
G36*
X0208D02*
X0208D01*
Y-0063*
X02114*
Y-00629*
X02111Y-00619*
X02106Y-0061*
X02099Y-00603*
X0209Y-00598*
X0208Y-00595*
G37*
G36*
X0207D02*
X02069D01*
X02059Y-00598*
X0205Y-00603*
X02043Y-0061*
X02038Y-00619*
X02035Y-00629*
Y-0063*
X0207*
Y-00595*
G37*
G36*
X00125D02*
X00124D01*
X00114Y-00598*
X00105Y-00603*
X00098Y-0061*
X00093Y-00619*
X0009Y-00629*
Y-0063*
X00125*
Y-00595*
G37*
G36*
X02114Y-0064D02*
X0208D01*
Y-00674*
X0208*
X0209Y-00671*
X02099Y-00666*
X02106Y-00659*
X02111Y-0065*
X02114Y-0064*
Y-0064*
G37*
G36*
X0207D02*
X02035D01*
Y-0064*
X02038Y-0065*
X02043Y-00659*
X0205Y-00666*
X02059Y-00671*
X02069Y-00674*
X0207*
Y-0064*
G37*
G36*
X00125D02*
X0009D01*
Y-0064*
X00093Y-0065*
X00098Y-00659*
X00105Y-00666*
X00114Y-00671*
X00124Y-00674*
X00125*
Y-0064*
G37*
G36*
X0189Y-00688D02*
X01858D01*
Y-0072*
X0189*
Y-00688*
G37*
G36*
X01848D02*
X01816D01*
Y-0072*
X01848*
Y-00688*
G37*
G36*
X01083Y-0048D02*
X0105D01*
X01016*
X01018Y-00487*
X0102Y-0049*
Y-00776*
X01016*
Y-00805*
X0105*
X01083*
Y-00776*
X01079*
Y-0049*
X01081Y-00487*
X01083Y-0048*
G37*
G36*
X01083Y-00815D02*
X01055D01*
Y-00843*
X01083*
Y-00815*
G37*
G36*
X01045D02*
X01016D01*
Y-00843*
X01045*
Y-00815*
G37*
G36*
X00169Y-0064D02*
X00135D01*
Y-00674*
X00135*
X00145Y-00671*
X00147Y-00676*
X00143Y-00678*
X00137Y-00685*
X0008*
Y-00784*
X00179*
Y-00729*
X00212*
X00218Y-00737*
X00226Y-00745*
X00234Y-00751*
Y-0079*
X00234Y-00791*
Y-0082*
X00205*
Y-00939*
X00323*
Y-0082*
X00293*
Y-00791*
X00293Y-0079*
Y-00751*
X00301Y-00745*
X00309Y-00737*
X00316Y-00727*
X0032Y-00717*
X00323Y-00705*
Y-00694*
X0032Y-00682*
X00316Y-00672*
X00309Y-00662*
X00301Y-00654*
X00292Y-00647*
X00281Y-00643*
X00269Y-0064*
X00258*
X00246Y-00643*
X00236Y-00647*
X00226Y-00654*
X00218Y-00662*
X00212Y-0067*
X00165*
X00157Y-00671*
X00153Y-00672*
X00151Y-00668*
X00154Y-00666*
X00161Y-00659*
X00166Y-0065*
X00169Y-0064*
Y-0064*
G37*
G36*
X01906Y-00903D02*
X0187D01*
Y-0094*
X01906*
Y-00903*
G37*
G36*
X0186D02*
X01823D01*
Y-0094*
X0186*
Y-00903*
G37*
G36*
X01906Y-0095D02*
X0187D01*
Y-00986*
X01906*
Y-0095*
G37*
G36*
X0186D02*
X01823D01*
Y-00986*
X0186*
Y-0095*
G37*
G36*
X00325Y-01001D02*
Y-0103D01*
X00353*
X00351Y-01022*
X00346Y-01014*
X0034Y-01008*
X00332Y-01003*
X00325Y-01001*
G37*
G36*
X00315D02*
X00307Y-01003D01*
X00299Y-01008*
X00293Y-01014*
X00288Y-01022*
X00286Y-0103*
X00315*
Y-01001*
G37*
G36*
X00353Y-0104D02*
X00325D01*
Y-01068*
X00332Y-01066*
X0034Y-01061*
X00346Y-01055*
X00351Y-01047*
X00353Y-0104*
G37*
G36*
X00315D02*
X00286D01*
X00288Y-01047*
X00293Y-01055*
X00299Y-01061*
X00307Y-01066*
X00315Y-01068*
Y-0104*
G37*
%LNps-3*%
%LPD*%
G54D10*
X0145Y-0111D03*
X01905Y-00585D03*
X00264Y-007D03*
X00675Y-0088D03*
X00264Y-0056D03*
X00675Y-0039D03*
G54D11*
X0145Y-00699D03*
X01905Y-00174D03*
G54D12*
X01853Y-00725D03*
X01713Y-00545D03*
G54D13*
X01656Y-00725D03*
X01516Y-00545D03*
G54D14*
X02075Y-00835D03*
Y-00735D03*
Y-00635D03*
Y-00535D03*
X0013D03*
Y-00635D03*
G54D15*
X02075Y-00435D03*
X0013Y-00735D03*
G54D16*
X01865Y-00945D03*
G54D17*
X01765Y-00945D03*
X01665D03*
G54D18*
X0171Y-00325D03*
X0161D03*
G54D19*
X0151Y-00325D03*
G54D20*
X00675Y-007D03*
X00264Y-0088D03*
X00675Y-0056D03*
X00264Y-0039D03*
G54D21*
X0032Y-01035D03*
X0062D03*
Y-00235D03*
X0032D03*
X0105Y-0111D03*
Y-00475D03*
G54D22*
X0105Y-0081D03*
Y-00175D03*
G54D23*
X0062Y-00235D02*
X0099D01*
X0054Y-0051D02*
Y-0027D01*
Y-0051D02*
X0059Y-0056D01*
X00675*
X00575Y-00235D02*
X0062D01*
X0054Y-0027D02*
X00575Y-00235D01*
X00675Y-0088D02*
X00683Y-00872D01*
X00725D02*
X00766Y-00831D01*
X00724Y-00399D02*
X00766Y-00441D01*
Y-00831D02*
Y-00441D01*
X00683Y-00872D02*
X00725D01*
X00685Y-00399D02*
X00724D01*
X00675Y-0039D02*
X00685Y-00399D01*
X0151Y-00325D02*
Y-0024D01*
X01575Y-00174*
X01905*
X01699Y-0111D02*
X01765Y-01045D01*
X0125Y-0111D02*
X01699D01*
X01765Y-01045D02*
Y-00945D01*
X01657Y-00937D02*
Y-00726D01*
Y-00937D02*
X01665Y-00945D01*
X01656Y-00725D02*
X01657Y-00726D01*
X01656Y-00725D02*
X01713Y-00781D01*
X01709Y-00325D02*
X01713Y-00328D01*
Y-00544D02*
Y-00328D01*
X0099Y-00235D02*
X0105Y-00175D01*
Y-0111D02*
X0125Y-0111D01*
X0062Y-01035D02*
X00975D01*
X0105Y-0111*
X00675Y-00979D02*
Y-0088D01*
X0062Y-01035D02*
X00675Y-00979D01*
X0145Y-00699D02*
X0163D01*
X01656Y-00725*
X00155Y-0056D02*
X00264D01*
X0013Y-00535D02*
X00155Y-0056D01*
X00165Y-007D02*
X00264D01*
X0013Y-00735D02*
X00165Y-007D01*
X01955Y-00535D02*
X02075D01*
X01905Y-00585D02*
X01955Y-00535D01*
X01754Y-00585D02*
X01905D01*
X01713Y-00545D02*
X01754Y-00585D01*
X01713Y-00781D02*
X02028D01*
X02075Y-00735*
X0032Y-00235D02*
X00333D01*
X012Y-00325D02*
X0151D01*
X0105Y-00175D02*
X012Y-00325D01*
X0105Y-0081D02*
Y-00475D01*
X00675Y-007D02*
Y-0056D01*
X02075Y-00835D02*
Y-00735D01*
X00264Y-0056D02*
Y-0039D01*
X00264Y-0079D02*
Y-007D01*
X00264Y-00791D02*
X00264Y-0079D01*
X00264Y-0088D02*
Y-00791D01*
X02075Y-00535D02*
Y-00435D01*
M02*