%FSTAX23Y23*%
%MOIN*%
%SFA1B1*%

%IPPOS*%
%ADD10C,0.007874*%
%LNps-1*%
%LPD*%
G54D10*
X01267Y-00555D02*
Y-00583D01*
X01253*
X01248Y-00578*
Y-0056*
X01253Y-00555*
X01267*
X01239Y-00583D02*
Y-00564D01*
X0123Y-00555*
X01221Y-00564*
Y-00583*
Y-00569*
X01239*
X01212Y-00583D02*
Y-00555D01*
X01193Y-00583*
Y-00555*
X01184D02*
X01175D01*
X01179*
Y-00583*
X01184*
X01175*
X01143Y-00555D02*
X01161D01*
Y-00583*
X01143*
X01161Y-00569D02*
X01152D01*
X01133Y-00555D02*
Y-00583D01*
X01115*
X01078D02*
Y-00555D01*
X01065*
X0106Y-0056*
Y-00569*
X01065Y-00574*
X01078*
X01069D02*
X0106Y-00583D01*
X01051Y-00555D02*
Y-00578D01*
X01046Y-00583*
X01037*
X01032Y-00578*
Y-00555*
X01023D02*
X01014D01*
X01019*
Y-00583*
X01023*
X01014*
X01Y-00555D02*
X00982D01*
Y-0056*
X01Y-00578*
Y-00583*
X00982*
X00945D02*
Y-00555D01*
X00931*
X00927Y-0056*
Y-00569*
X00931Y-00574*
X00945*
X00936D02*
X00927Y-00583D01*
X01248Y-00607D02*
X01257D01*
X01253*
Y-0063*
X01257Y-00635*
X01262*
X01267Y-0063*
X01239Y-00607D02*
Y-0063D01*
X01234Y-00635*
X01225*
X01221Y-0063*
Y-00607*
X01212Y-00635D02*
Y-00616D01*
X01202Y-00607*
X01193Y-00616*
Y-00635*
Y-00621*
X01212*
X01184Y-00635D02*
Y-00607D01*
X01166Y-00635*
Y-00607*
X01129Y-00635D02*
Y-00607D01*
X01115*
X01111Y-00612*
Y-00621*
X01115Y-00625*
X01129*
X0112D02*
X01111Y-00635D01*
X01088Y-00607D02*
X01097D01*
X01101Y-00612*
Y-0063*
X01097Y-00635*
X01088*
X01083Y-0063*
Y-00612*
X01088Y-00607*
X01074D02*
Y-00635D01*
X0106*
X01055Y-0063*
Y-00612*
X0106Y-00607*
X01074*
X01046Y-00635D02*
Y-00607D01*
X01032*
X01028Y-00612*
Y-00621*
X01032Y-00625*
X01046*
X01037D02*
X01028Y-00635D01*
X01019Y-00607D02*
X01009D01*
X01014*
Y-00635*
X01019*
X01009*
X00977Y-00612D02*
X00982Y-00607D01*
X00991*
X00996Y-00612*
Y-0063*
X00991Y-00635*
X00982*
X00977Y-0063*
Y-00621*
X00987*
X00968Y-00607D02*
Y-0063D01*
X00964Y-00635*
X00954*
X0095Y-0063*
Y-00607*
X00922D02*
X00941D01*
Y-00635*
X00922*
X00941Y-00621D02*
X00931D01*
X00913Y-00607D02*
X00895D01*
Y-00612*
X00913Y-0063*
Y-00635*
X00895*
X00858D02*
Y-00607D01*
X00844*
X0084Y-00612*
Y-00621*
X00844Y-00625*
X00858*
X00849D02*
X0084Y-00635D01*
X01248Y-00664D02*
X01253Y-00659D01*
X01262*
X01267Y-00664*
Y-00668*
X01262Y-00673*
X01253*
X01248Y-00677*
Y-00682*
X01253Y-00687*
X01262*
X01267Y-00682*
X01239Y-00687D02*
Y-00668D01*
X0123Y-00659*
X01221Y-00668*
Y-00687*
Y-00673*
X01239*
X01212Y-00687D02*
Y-00659D01*
X01193Y-00687*
Y-00659*
X01184D02*
X01166D01*
X01175*
Y-00687*
X01156Y-00659D02*
X01147D01*
X01152*
Y-00687*
X01156*
X01147*
X01133D02*
Y-00668D01*
X01124Y-00659*
X01115Y-00668*
Y-00687*
Y-00673*
X01133*
X01088Y-00664D02*
X01092Y-00659D01*
X01101*
X01106Y-00664*
Y-00682*
X01101Y-00687*
X01092*
X01088Y-00682*
Y-00673*
X01097*
X01065Y-00659D02*
X01074D01*
X01078Y-00664*
Y-00682*
X01074Y-00687*
X01065*
X0106Y-00682*
Y-00664*
X01065Y-00659*
X01005Y-00664D02*
X01009Y-00659D01*
X01019*
X01023Y-00664*
Y-00682*
X01019Y-00687*
X01009*
X01005Y-00682*
X00982Y-00659D02*
X00991D01*
X00996Y-00664*
Y-00682*
X00991Y-00687*
X00982*
X00977Y-00682*
Y-00664*
X00982Y-00659*
X00968Y-00687D02*
Y-00659D01*
X00954*
X0095Y-00664*
Y-00673*
X00954Y-00677*
X00968*
X00959D02*
X0095Y-00687D01*
X00941Y-00659D02*
X00922D01*
X00931*
Y-00687*
X00895Y-00659D02*
X00913D01*
Y-00687*
X00895*
X00913Y-00673D02*
X00904D01*
X00867Y-00664D02*
X00872Y-00659D01*
X00881*
X00886Y-00664*
Y-00668*
X00881Y-00673*
X00872*
X00867Y-00677*
Y-00682*
X00872Y-00687*
X00881*
X00886Y-00682*
X0083Y-00659D02*
X00812D01*
X00821*
Y-00687*
M02*