%TF.GenerationSoftware,Altium Limited,Altium Designer,23.11.1 (41)*%
G04 Layer_Color=32896*
%FSLAX45Y45*%
%MOMM*%
%TF.SameCoordinates,230AA2AB-B060-4BCE-AA15-615059F28419*%
%TF.FilePolarity,Positive*%
%TF.FileFunction,Legend,Bot*%
%TF.Part,Single*%
G01*
G75*
%TA.AperFunction,NonConductor*%
%ADD24C,0.20000*%
D24*
X3218500Y-1411377D02*
Y-1481354D01*
X3183511D01*
X3171848Y-1469691D01*
Y-1423040D01*
X3183511Y-1411377D01*
X3218500D01*
X3148523Y-1481354D02*
Y-1434703D01*
X3125197Y-1411377D01*
X3101871Y-1434703D01*
Y-1481354D01*
Y-1446366D01*
X3148523D01*
X3078545Y-1481354D02*
Y-1411377D01*
X3031893Y-1481354D01*
Y-1411377D01*
X3008568D02*
X2985242D01*
X2996905D01*
Y-1481354D01*
X3008568D01*
X2985242D01*
X2903601Y-1411377D02*
X2950253D01*
Y-1481354D01*
X2903601D01*
X2950253Y-1446366D02*
X2926927D01*
X2880275Y-1411377D02*
Y-1481354D01*
X2833624D01*
X2740320D02*
Y-1411377D01*
X2705332D01*
X2693669Y-1423040D01*
Y-1446366D01*
X2705332Y-1458029D01*
X2740320D01*
X2716995D02*
X2693669Y-1481354D01*
X2670343Y-1411377D02*
Y-1469691D01*
X2658680Y-1481354D01*
X2635354D01*
X2623691Y-1469691D01*
Y-1411377D01*
X2600365D02*
X2577040D01*
X2588702D01*
Y-1481354D01*
X2600365D01*
X2577040D01*
X2542051Y-1411377D02*
X2495399D01*
Y-1423040D01*
X2542051Y-1469691D01*
Y-1481354D01*
X2495399D01*
X2402096D02*
Y-1411377D01*
X2367107D01*
X2355444Y-1423040D01*
Y-1446366D01*
X2367107Y-1458029D01*
X2402096D01*
X2378770D02*
X2355444Y-1481354D01*
X3171848Y-1543350D02*
X3195174D01*
X3183511D01*
Y-1601664D01*
X3195174Y-1613327D01*
X3206837D01*
X3218500Y-1601664D01*
X3148523Y-1543350D02*
Y-1601664D01*
X3136860Y-1613327D01*
X3113534D01*
X3101871Y-1601664D01*
Y-1543350D01*
X3078545Y-1613327D02*
Y-1566676D01*
X3055219Y-1543350D01*
X3031893Y-1566676D01*
Y-1613327D01*
Y-1578338D01*
X3078545D01*
X3008568Y-1613327D02*
Y-1543350D01*
X2961916Y-1613327D01*
Y-1543350D01*
X2868613Y-1613327D02*
Y-1543350D01*
X2833624D01*
X2821961Y-1555013D01*
Y-1578338D01*
X2833624Y-1590001D01*
X2868613D01*
X2845287D02*
X2821961Y-1613327D01*
X2763646Y-1543350D02*
X2786972D01*
X2798635Y-1555013D01*
Y-1601664D01*
X2786972Y-1613327D01*
X2763646D01*
X2751983Y-1601664D01*
Y-1555013D01*
X2763646Y-1543350D01*
X2728657D02*
Y-1613327D01*
X2693669D01*
X2682006Y-1601664D01*
Y-1555013D01*
X2693669Y-1543350D01*
X2728657D01*
X2658680Y-1613327D02*
Y-1543350D01*
X2623691D01*
X2612028Y-1555013D01*
Y-1578338D01*
X2623691Y-1590001D01*
X2658680D01*
X2635354D02*
X2612028Y-1613327D01*
X2588702Y-1543350D02*
X2565377D01*
X2577040D01*
Y-1613327D01*
X2588702D01*
X2565377D01*
X2483736Y-1555013D02*
X2495399Y-1543350D01*
X2518725D01*
X2530388Y-1555013D01*
Y-1601664D01*
X2518725Y-1613327D01*
X2495399D01*
X2483736Y-1601664D01*
Y-1578338D01*
X2507062D01*
X2460410Y-1543350D02*
Y-1601664D01*
X2448747Y-1613327D01*
X2425422D01*
X2413759Y-1601664D01*
Y-1543350D01*
X2343781D02*
X2390433D01*
Y-1613327D01*
X2343781D01*
X2390433Y-1578338D02*
X2367107D01*
X2320455Y-1543350D02*
X2273804D01*
Y-1555013D01*
X2320455Y-1601664D01*
Y-1613327D01*
X2273804D01*
X2180500D02*
Y-1543350D01*
X2145512D01*
X2133849Y-1555013D01*
Y-1578338D01*
X2145512Y-1590001D01*
X2180500D01*
X2157175D02*
X2133849Y-1613327D01*
X3171848Y-1686985D02*
X3183511Y-1675323D01*
X3206837D01*
X3218500Y-1686985D01*
Y-1698648D01*
X3206837Y-1710311D01*
X3183511D01*
X3171848Y-1721974D01*
Y-1733637D01*
X3183511Y-1745300D01*
X3206837D01*
X3218500Y-1733637D01*
X3148523Y-1745300D02*
Y-1698648D01*
X3125197Y-1675323D01*
X3101871Y-1698648D01*
Y-1745300D01*
Y-1710311D01*
X3148523D01*
X3078545Y-1745300D02*
Y-1675323D01*
X3031893Y-1745300D01*
Y-1675323D01*
X3008568D02*
X2961916D01*
X2985242D01*
Y-1745300D01*
X2938590Y-1675323D02*
X2915264D01*
X2926927D01*
Y-1745300D01*
X2938590D01*
X2915264D01*
X2880275D02*
Y-1698648D01*
X2856950Y-1675323D01*
X2833624Y-1698648D01*
Y-1745300D01*
Y-1710311D01*
X2880275D01*
X2763646Y-1686985D02*
X2775309Y-1675323D01*
X2798635D01*
X2810298Y-1686985D01*
Y-1733637D01*
X2798635Y-1745300D01*
X2775309D01*
X2763646Y-1733637D01*
Y-1710311D01*
X2786972D01*
X2705332Y-1675323D02*
X2728657D01*
X2740320Y-1686985D01*
Y-1733637D01*
X2728657Y-1745300D01*
X2705332D01*
X2693669Y-1733637D01*
Y-1686985D01*
X2705332Y-1675323D01*
X2553714Y-1686985D02*
X2565377Y-1675323D01*
X2588702D01*
X2600365Y-1686985D01*
Y-1733637D01*
X2588702Y-1745300D01*
X2565377D01*
X2553714Y-1733637D01*
X2495399Y-1675323D02*
X2518725D01*
X2530388Y-1686985D01*
Y-1733637D01*
X2518725Y-1745300D01*
X2495399D01*
X2483736Y-1733637D01*
Y-1686985D01*
X2495399Y-1675323D01*
X2460410Y-1745300D02*
Y-1675323D01*
X2425422D01*
X2413759Y-1686985D01*
Y-1710311D01*
X2425422Y-1721974D01*
X2460410D01*
X2437085D02*
X2413759Y-1745300D01*
X2390433Y-1675323D02*
X2343781D01*
X2367107D01*
Y-1745300D01*
X2273804Y-1675323D02*
X2320455D01*
Y-1745300D01*
X2273804D01*
X2320455Y-1710311D02*
X2297130D01*
X2203826Y-1686985D02*
X2215489Y-1675323D01*
X2238815D01*
X2250478Y-1686985D01*
Y-1698648D01*
X2238815Y-1710311D01*
X2215489D01*
X2203826Y-1721974D01*
Y-1733637D01*
X2215489Y-1745300D01*
X2238815D01*
X2250478Y-1733637D01*
X2110523Y-1675323D02*
X2063871D01*
X2087197D01*
Y-1745300D01*
%TF.MD5,246c6302de224803a93b17faeef81904*%
M02*
