%TF.GenerationSoftware,Altium Limited,Altium Designer,23.11.1 (41)*%
G04 Layer_Color=16711935*
%FSLAX45Y45*%
%MOMM*%
%TF.SameCoordinates,230AA2AB-B060-4BCE-AA15-615059F28419*%
%TF.FilePolarity,Positive*%
%TF.FileFunction,Other,Mechanical_1*%
%TF.Part,Single*%
G01*
G75*
%TA.AperFunction,NonConductor*%
%ADD27C,0.25400*%
%ADD41C,0.15240*%
D27*
X5600700Y-977900D02*
G03*
X4470400Y0I-1054100J-76200D01*
G01*
X4483100Y-3251200D02*
G03*
X5604158Y-2286000I77929J1043129D01*
G01*
X0Y-2168282D02*
G03*
X1117600Y-3251200I1100259J17341D01*
G01*
X977900Y0D02*
G03*
X0Y-977900I0J-977900D01*
G01*
X977900Y0D02*
X4495800D01*
X5600700Y-2260600D02*
Y-977900D01*
X1117600Y-3251200D02*
X4483100D01*
X0Y-2168282D02*
Y-977900D01*
X-355600Y0D02*
X-322267Y-100000D01*
X-388933D02*
X-355600Y0D01*
X-388933Y-1893900D02*
X-355600Y-1993900D01*
X-322267Y-1893900D01*
X-355600Y-792436D02*
Y0D01*
Y-1993900D02*
Y-1130300D01*
X-381000Y0D02*
X6172200D01*
X-381000Y-1993900D02*
X167800D01*
X-261933Y-1893900D02*
X-228600Y-1993900D01*
X-195267Y-1893900D01*
X-228600Y-1261190D02*
X-195267Y-1361190D01*
X-261933D02*
X-228600Y-1261190D01*
Y-1993900D02*
Y-1765300D01*
Y-1497413D02*
Y-1261190D01*
X-254000Y-1993900D02*
X167800D01*
X-254000Y-1261190D02*
X154400D01*
X6113467Y-2186000D02*
X6146800Y-2286000D01*
X6180133Y-2186000D01*
X6146800Y-977900D02*
X6180133Y-1077900D01*
X6113467D02*
X6146800Y-977900D01*
Y-2286000D02*
Y-1765300D01*
Y-1439099D02*
Y-977900D01*
X5447900Y-2286000D02*
X6172200D01*
X5432900Y-977900D02*
X6172200D01*
X6113467Y-877900D02*
X6146800Y-977900D01*
X6180133Y-877900D01*
X6146800Y0D02*
X6180133Y-100000D01*
X6113467D02*
X6146800Y0D01*
Y-977900D02*
Y-698500D01*
Y-372299D02*
Y0D01*
X5432900Y-977900D02*
X6172200D01*
X5410200Y0D02*
X6172200D01*
X-3458Y-3683000D02*
X96542Y-3649667D01*
X-3458Y-3683000D02*
X96542Y-3716333D01*
X5504158D02*
X5604158Y-3683000D01*
X5504158Y-3649667D02*
X5604158Y-3683000D01*
X-3458D02*
X2590778D01*
X2928642D02*
X5604158D01*
X-3458Y-3708400D02*
Y-2171739D01*
X5604158Y-3708400D02*
Y-2146261D01*
D41*
X4673600Y-2616167D02*
Y-2514600D01*
X4605889D01*
X4572033D02*
Y-2616167D01*
X4538177Y-2582311D01*
X4504321Y-2616167D01*
Y-2514600D01*
X4470466Y-2616167D02*
X4402754D01*
Y-2599239D01*
X4470466Y-2531528D01*
Y-2514600D01*
X4368898Y-2531528D02*
X4351970Y-2514600D01*
X4318115D01*
X4301187Y-2531528D01*
Y-2599239D01*
X4318115Y-2616167D01*
X4351970D01*
X4368898Y-2599239D01*
Y-2582311D01*
X4351970Y-2565383D01*
X4301187D01*
X4267331Y-2514600D02*
X4233475D01*
X4250403D01*
Y-2616167D01*
X4267331Y-2599239D01*
X4114980Y-2616167D02*
X4182692D01*
Y-2565383D01*
X4148836Y-2582311D01*
X4131908D01*
X4114980Y-2565383D01*
Y-2531528D01*
X4131908Y-2514600D01*
X4165764D01*
X4182692Y-2531528D01*
X-332740Y-1043008D02*
Y-1089660D01*
X-379392Y-1043008D01*
X-391055D01*
X-402718Y-1054671D01*
Y-1077997D01*
X-391055Y-1089660D01*
Y-1019682D02*
X-402718Y-1008020D01*
Y-984694D01*
X-391055Y-973031D01*
X-344403D01*
X-332740Y-984694D01*
Y-1008020D01*
X-344403Y-1019682D01*
X-391055D01*
X-332740Y-949705D02*
X-379392D01*
Y-938042D01*
X-367729Y-926379D01*
X-332740D01*
X-367729D01*
X-379392Y-914716D01*
X-367729Y-903053D01*
X-332740D01*
Y-879727D02*
X-379392D01*
Y-868065D01*
X-367729Y-856402D01*
X-332740D01*
X-367729D01*
X-379392Y-844739D01*
X-367729Y-833076D01*
X-332740D01*
X-275718Y-1724660D02*
Y-1678008D01*
X-264055D01*
X-217403Y-1724660D01*
X-205740D01*
Y-1654682D02*
X-252392D01*
Y-1643020D01*
X-240729Y-1631357D01*
X-205740D01*
X-240729D01*
X-252392Y-1619694D01*
X-240729Y-1608031D01*
X-205740D01*
Y-1584705D02*
X-252392D01*
Y-1573042D01*
X-240729Y-1561379D01*
X-205740D01*
X-240729D01*
X-252392Y-1549716D01*
X-240729Y-1538053D01*
X-205740D01*
X6169660Y-1724660D02*
Y-1701334D01*
Y-1712997D01*
X6099682D01*
X6111345Y-1724660D01*
Y-1666346D02*
X6099682Y-1654683D01*
Y-1631357D01*
X6111345Y-1619694D01*
X6123008D01*
X6134671Y-1631357D01*
Y-1643020D01*
Y-1631357D01*
X6146334Y-1619694D01*
X6157997D01*
X6169660Y-1631357D01*
Y-1654683D01*
X6157997Y-1666346D01*
X6169660Y-1596368D02*
X6123008D01*
Y-1584705D01*
X6134671Y-1573042D01*
X6169660D01*
X6134671D01*
X6123008Y-1561379D01*
X6134671Y-1549716D01*
X6169660D01*
Y-1526391D02*
X6123008D01*
Y-1514728D01*
X6134671Y-1503065D01*
X6169660D01*
X6134671D01*
X6123008Y-1491402D01*
X6134671Y-1479739D01*
X6169660D01*
X6156960Y-657860D02*
Y-634534D01*
Y-646197D01*
X6086982D01*
X6098645Y-657860D01*
Y-599545D02*
X6086982Y-587882D01*
Y-564557D01*
X6098645Y-552894D01*
X6145297D01*
X6156960Y-564557D01*
Y-587882D01*
X6145297Y-599545D01*
X6098645D01*
X6156960Y-529568D02*
X6110308D01*
Y-517905D01*
X6121971Y-506242D01*
X6156960D01*
X6121971D01*
X6110308Y-494579D01*
X6121971Y-482916D01*
X6156960D01*
Y-459590D02*
X6110308D01*
Y-447927D01*
X6121971Y-436265D01*
X6156960D01*
X6121971D01*
X6110308Y-424602D01*
X6121971Y-412939D01*
X6156960D01*
X2678070Y-3663251D02*
X2631418D01*
Y-3698240D01*
X2654744Y-3686577D01*
X2666407D01*
X2678070Y-3698240D01*
Y-3721566D01*
X2666407Y-3733229D01*
X2643081D01*
X2631418Y-3721566D01*
X2748047Y-3663251D02*
X2724721Y-3674914D01*
X2701395Y-3698240D01*
Y-3721566D01*
X2713058Y-3733229D01*
X2736384D01*
X2748047Y-3721566D01*
Y-3709903D01*
X2736384Y-3698240D01*
X2701395D01*
X2771373Y-3733229D02*
Y-3686577D01*
X2783036D01*
X2794699Y-3698240D01*
Y-3733229D01*
Y-3698240D01*
X2806362Y-3686577D01*
X2818025Y-3698240D01*
Y-3733229D01*
X2841350D02*
Y-3686577D01*
X2853013D01*
X2864676Y-3698240D01*
Y-3733229D01*
Y-3698240D01*
X2876339Y-3686577D01*
X2888002Y-3698240D01*
Y-3733229D01*
%TF.MD5,f75a5713ea3d9463868bd031449f902c*%
M02*
