%TF.GenerationSoftware,Altium Limited,Altium Designer,23.11.1 (41)*%
G04 Layer_Color=0*
%FSLAX45Y45*%
%MOMM*%
%TF.SameCoordinates,230AA2AB-B060-4BCE-AA15-615059F28419*%
%TF.FilePolarity,Positive*%
%TF.FileFunction,Plated,1,2,PTH,Drill*%
%TF.Part,Single*%
G01*
G75*
%TA.AperFunction,ComponentDrill*%
%ADD43C,1.20000*%
%ADD44C,0.80000*%
%ADD45C,0.90000*%
%ADD46C,1.00000*%
%ADD47C,1.25000*%
%ADD48C,1.20000*%
%ADD49C,0.70000*%
%ADD50C,0.70000*%
D43*
X3683000Y-2821701D02*
D03*
Y-1775699D02*
D03*
X4838700Y-1488201D02*
D03*
Y-442199D02*
D03*
D44*
X4707702Y-1841500D02*
D03*
X4207698D02*
D03*
X4352102Y-1384300D02*
D03*
X3852098D02*
D03*
D45*
X5270500Y-2120900D02*
D03*
Y-1866900D02*
D03*
Y-1612900D02*
D03*
Y-1358900D02*
D03*
Y-1104900D02*
D03*
X330200Y-1358900D02*
D03*
Y-1612900D02*
D03*
Y-1866900D02*
D03*
D46*
X4737100Y-2400300D02*
D03*
X4483100D02*
D03*
X4229100D02*
D03*
D47*
X4343400Y-825500D02*
D03*
X4089400D02*
D03*
X3835400D02*
D03*
D48*
X1716801Y-1778000D02*
D03*
X670804D02*
D03*
X1716801Y-2235200D02*
D03*
X670799D02*
D03*
Y-1422400D02*
D03*
X1716801D02*
D03*
Y-990600D02*
D03*
X670799D02*
D03*
D49*
X812800Y-2628900D02*
D03*
X1574800D02*
D03*
Y-596900D02*
D03*
X812800D02*
D03*
D50*
X2667000Y-2057400D02*
D03*
Y-2819400D02*
D03*
Y-1206500D02*
D03*
Y-444500D02*
D03*
%TF.MD5,7a912f4972760a866c7e48afd1b1d2e8*%
M02*
