%TF.GenerationSoftware,Altium Limited,Altium Designer,23.11.1 (41)*%
G04 Layer_Color=16711935*
%FSLAX45Y45*%
%MOMM*%
%TF.SameCoordinates,230AA2AB-B060-4BCE-AA15-615059F28419*%
%TF.FilePolarity,Negative*%
%TF.FileFunction,Soldermask,Bot*%
%TF.Part,Single*%
G01*
G75*
%TA.AperFunction,ComponentPad*%
%ADD18C,1.90000*%
%ADD19R,1.90000X1.90000*%
%ADD30C,2.20320*%
%ADD31R,2.20320X2.20320*%
%ADD32R,1.55320X1.55320*%
%ADD33C,1.55320*%
%ADD34C,1.70320*%
%ADD35R,1.70320X1.70320*%
%ADD36R,1.80320X1.80320*%
%ADD37C,1.80320*%
%ADD38R,2.20320X2.20320*%
%ADD39C,1.40320*%
%ADD40R,1.40320X1.40320*%
D18*
X4343400Y-825500D02*
D03*
X4089400D02*
D03*
D19*
X3835400D02*
D03*
D30*
X3683000Y-2821701D02*
D03*
X4838700Y-1488201D02*
D03*
X670804Y-1778000D02*
D03*
X1716801Y-2235200D02*
D03*
X670799Y-1422400D02*
D03*
X1716801Y-990600D02*
D03*
D31*
X3683000Y-1775699D02*
D03*
X4838700Y-442199D02*
D03*
D32*
X4707702Y-1841500D02*
D03*
X4352102Y-1384300D02*
D03*
D33*
X4207698Y-1841500D02*
D03*
X3852098Y-1384300D02*
D03*
D34*
X5270500Y-2120900D02*
D03*
Y-1866900D02*
D03*
Y-1612900D02*
D03*
Y-1358900D02*
D03*
X330200D02*
D03*
Y-1612900D02*
D03*
D35*
X5270500Y-1104900D02*
D03*
X330200Y-1866900D02*
D03*
D36*
X4737100Y-2400300D02*
D03*
D37*
X4483100D02*
D03*
X4229100D02*
D03*
D38*
X1716801Y-1778000D02*
D03*
X670799Y-2235200D02*
D03*
X1716801Y-1422400D02*
D03*
X670799Y-990600D02*
D03*
D39*
X812800Y-2628900D02*
D03*
X1574800D02*
D03*
Y-596900D02*
D03*
X812800D02*
D03*
X2667000Y-2819400D02*
D03*
Y-1206500D02*
D03*
D40*
Y-2057400D02*
D03*
Y-444500D02*
D03*
%TF.MD5,1c5077e65ab7aec24743c299a84d987b*%
M02*
