%TF.GenerationSoftware,Altium Limited,Altium Designer,23.11.1 (41)*%
G04 Layer_Physical_Order=1*
G04 Layer_Color=255*
%FSLAX45Y45*%
%MOMM*%
%TF.SameCoordinates,10814A46-352E-42BD-85D8-3789AA2A08E8*%
%TF.FilePolarity,Positive*%
%TF.FileFunction,Copper,L1,Top,Signal*%
%TF.Part,Single*%
G01*
G75*
%TA.AperFunction,ComponentPad*%
%ADD10C,1.50000*%
%ADD11R,1.50000X1.50000*%
%ADD12R,2.00000X2.00000*%
%ADD13C,2.00000*%
%ADD14R,2.00000X2.00000*%
%ADD15C,1.40000*%
%ADD16C,1.67640*%
%ADD17R,1.67640X1.67640*%
%ADD18C,1.20000*%
%ADD19R,1.20000X1.20000*%
%ADD20R,1.60000X1.60000*%
%ADD21C,1.60000*%
%ADD22C,3.00000*%
%ADD23R,1.50000X1.50000*%
D10*
X11976100Y-7797800D02*
D03*
Y-8051800D02*
D03*
Y-8305800D02*
D03*
X5613400Y-8775700D02*
D03*
X5359400D02*
D03*
X5105400D02*
D03*
X4851400D02*
D03*
X4597400D02*
D03*
X4343400D02*
D03*
X4089400D02*
D03*
X5613400Y-9537700D02*
D03*
X5359400D02*
D03*
X5105400D02*
D03*
X4851400D02*
D03*
X4597400D02*
D03*
X4343400D02*
D03*
X2832100Y-9271000D02*
D03*
X6718300Y-13550900D02*
D03*
X6464300D02*
D03*
X6210300D02*
D03*
X3594100Y-13500101D02*
D03*
Y-13246100D02*
D03*
Y-12992101D02*
D03*
Y-12738100D02*
D03*
Y-12484100D02*
D03*
Y-12230100D02*
D03*
Y-11976100D02*
D03*
X3962400Y-10718800D02*
D03*
X8140700Y-13538200D02*
D03*
X7886700D02*
D03*
D11*
X11976100Y-8559800D02*
D03*
X4089400Y-9537700D02*
D03*
X2832100Y-9017000D02*
D03*
X3594100Y-13754100D02*
D03*
X3962400Y-10972800D02*
D03*
D12*
X5588000Y-11330701D02*
D03*
X7023100Y-8646399D02*
D03*
X6032500Y-10310099D02*
D03*
D13*
Y-11356101D02*
D03*
X7023100Y-9692401D02*
D03*
X10083800Y-10972800D02*
D03*
X7543800Y-9448800D02*
D03*
X10083800Y-10464800D02*
D03*
X7543800Y-9702800D02*
D03*
X5979399Y-8293100D02*
D03*
X7543800Y-8940800D02*
D03*
Y-9194800D02*
D03*
Y-9956800D02*
D03*
Y-10210800D02*
D03*
Y-10464800D02*
D03*
Y-10718800D02*
D03*
Y-10972800D02*
D03*
Y-11226800D02*
D03*
Y-11480800D02*
D03*
Y-11734800D02*
D03*
Y-11988800D02*
D03*
Y-12242800D02*
D03*
X10083800Y-8686800D02*
D03*
Y-8940800D02*
D03*
Y-9194800D02*
D03*
Y-9448800D02*
D03*
Y-9702800D02*
D03*
Y-9956800D02*
D03*
Y-10210800D02*
D03*
Y-10718800D02*
D03*
Y-11226800D02*
D03*
Y-11480800D02*
D03*
Y-11734800D02*
D03*
Y-11988800D02*
D03*
Y-12242800D02*
D03*
X5588000Y-10284699D02*
D03*
D14*
X7025401Y-8293100D02*
D03*
X7543800Y-8686800D02*
D03*
D15*
X6045200Y-11658600D02*
D03*
X6591300Y-8788400D02*
D03*
X10528300Y-11557000D02*
D03*
X10998200Y-12471400D02*
D03*
X10642600Y-10998200D02*
D03*
X11557000Y-12484100D02*
D03*
X12395200Y-13258800D02*
D03*
Y-12496800D02*
D03*
X12115800Y-13258800D02*
D03*
Y-12496800D02*
D03*
X11836400Y-13258800D02*
D03*
Y-12496800D02*
D03*
X11557000Y-13246100D02*
D03*
X11277600D02*
D03*
Y-12484100D02*
D03*
X10998200Y-13233400D02*
D03*
X10706100Y-13246100D02*
D03*
Y-12484100D02*
D03*
X10426700Y-13246100D02*
D03*
Y-12484100D02*
D03*
X10833100Y-10147300D02*
D03*
X11595100D02*
D03*
X10782300Y-10426700D02*
D03*
X11544300D02*
D03*
X10718800Y-10706100D02*
D03*
X11480800D02*
D03*
X11404600Y-10998200D02*
D03*
X10591800Y-11277600D02*
D03*
X11353800D02*
D03*
X11290300Y-11557000D02*
D03*
X10464800Y-11849100D02*
D03*
X11226800D02*
D03*
X10401300Y-12141200D02*
D03*
X11163300D02*
D03*
X6591300Y-9550400D02*
D03*
X6223000Y-8801100D02*
D03*
Y-9563100D02*
D03*
X6134100Y-9867900D02*
D03*
X5372100D02*
D03*
X3225800Y-8763000D02*
D03*
Y-9525000D02*
D03*
X3556000Y-9537700D02*
D03*
Y-8775700D02*
D03*
X5346700Y-8356600D02*
D03*
X4584700D02*
D03*
X4406900Y-9867900D02*
D03*
X5168900D02*
D03*
X14287500Y-12788900D02*
D03*
Y-12026900D02*
D03*
X5600700Y-7708900D02*
D03*
Y-8470900D02*
D03*
X5283200Y-11658600D02*
D03*
D16*
X12700000Y-12230100D02*
D03*
Y-11976100D02*
D03*
Y-11722100D02*
D03*
Y-11468100D02*
D03*
Y-11214100D02*
D03*
Y-10960100D02*
D03*
Y-10706100D02*
D03*
Y-10452100D02*
D03*
Y-10198100D02*
D03*
Y-9944100D02*
D03*
X13462000D02*
D03*
Y-10198100D02*
D03*
Y-10452100D02*
D03*
Y-10706100D02*
D03*
Y-10960100D02*
D03*
Y-11214100D02*
D03*
Y-11468100D02*
D03*
Y-11722100D02*
D03*
Y-11976100D02*
D03*
D17*
Y-12230100D02*
D03*
D18*
X13893800Y-12026900D02*
D03*
Y-12788900D02*
D03*
X14046201Y-10718800D02*
D03*
Y-10972800D02*
D03*
D19*
Y-11226800D02*
D03*
D20*
X9690100Y-13474699D02*
D03*
D21*
X9436100D02*
D03*
X9182100D02*
D03*
D22*
X7585801Y-12585797D02*
D03*
X10036800D02*
D03*
Y-7890800D02*
D03*
X7585801D02*
D03*
D23*
X5956300Y-13550900D02*
D03*
X8394700Y-13538200D02*
D03*
%TF.MD5,4bc8ce5153ecf7a16eaf9fbecc9fe68b*%
M02*
