%TF.GenerationSoftware,Altium Limited,Altium Designer,23.11.1 (41)*%
G04 Layer_Physical_Order=2*
G04 Layer_Color=16711680*
%FSLAX45Y45*%
%MOMM*%
%TF.SameCoordinates,4C9A1514-A2EE-4944-9187-3C763DF9E9B3*%
%TF.FilePolarity,Positive*%
%TF.FileFunction,Copper,L2,Bot,Signal*%
%TF.Part,Single*%
G01*
G75*
%TA.AperFunction,ComponentPad*%
%ADD10R,2.00000X2.00000*%
%ADD11C,2.00000*%
%ADD12R,2.00000X2.00000*%
%ADD13C,1.20000*%
%ADD14C,1.67640*%
%ADD15R,1.67640X1.67640*%
%ADD16C,1.40000*%
%ADD17C,1.50000*%
%ADD18R,1.50000X1.50000*%
%ADD19R,1.20000X1.20000*%
%ADD20R,1.60000X1.60000*%
%ADD21C,1.60000*%
%ADD22C,3.00000*%
%ADD23R,1.50000X1.50000*%
%TA.AperFunction,Conductor*%
%ADD24C,0.40000*%
G36*
X14503400Y-7848600D02*
Y-13423900D01*
X13830299Y-14097000D01*
X7960256D01*
X7944783Y-14057001D01*
X8363583Y-13638200D01*
X8494700D01*
Y-13507083D01*
X8681575Y-13320209D01*
X9301625D01*
X9371862Y-13390445D01*
X9331100Y-13431207D01*
Y-13518192D01*
X9392608Y-13579700D01*
X9479592D01*
X9541100Y-13518192D01*
Y-13431207D01*
X9479592Y-13369701D01*
X9469619D01*
X9455997Y-13336813D01*
X9356241Y-13237059D01*
X9321800Y-13222792D01*
X8661400D01*
X8626959Y-13237059D01*
X8425817Y-13438200D01*
X8294700D01*
Y-13548322D01*
X8281100Y-13557539D01*
X8241100Y-13536330D01*
Y-13496613D01*
X8182287Y-13437801D01*
X8153400D01*
Y-13538200D01*
Y-13638600D01*
X8168849D01*
X8187631Y-13676385D01*
X7879225Y-13984792D01*
X3421235D01*
X2614108Y-13177666D01*
Y-8478375D01*
X3230735Y-7861748D01*
X5072525D01*
X5178612Y-7967835D01*
Y-8662200D01*
X5146987Y-8675300D01*
X5118100D01*
Y-8775700D01*
Y-8876100D01*
X5146987D01*
X5178612Y-8889200D01*
Y-9141605D01*
X4882517Y-9437700D01*
X4809979D01*
X4751400Y-9496279D01*
Y-9579121D01*
X4809979Y-9637700D01*
X4892821D01*
X4951400Y-9579121D01*
Y-9526403D01*
X4965400Y-9516833D01*
X5005400Y-9537945D01*
Y-9579121D01*
X5056692Y-9630414D01*
Y-9766300D01*
X5070959Y-9800741D01*
X5132892Y-9862675D01*
Y-9909258D01*
X5086600Y-9955550D01*
Y-10034250D01*
X5142250Y-10089900D01*
X5220950D01*
X5267242Y-10043608D01*
X5375358D01*
X5421650Y-10089900D01*
X5500350D01*
X5556000Y-10034250D01*
Y-9955550D01*
X5500350Y-9899900D01*
X5421650D01*
X5375358Y-9946192D01*
X5267242D01*
X5230308Y-9909258D01*
Y-9842500D01*
X5216041Y-9808059D01*
X5154108Y-9746125D01*
Y-9630414D01*
X5205400Y-9579121D01*
Y-9496279D01*
X5146821Y-9437700D01*
X5076851D01*
X5057669Y-9400314D01*
X5261761Y-9196221D01*
X5276028Y-9161780D01*
Y-8886011D01*
X5282522Y-8883321D01*
X5315352Y-8881960D01*
X5329618Y-8916401D01*
X5401159Y-8987941D01*
X5435600Y-9002208D01*
X6130547D01*
X6164989Y-8987941D01*
X6238307Y-8914623D01*
X6245980Y-8896100D01*
X6262350D01*
X6318000Y-8840450D01*
Y-8761750D01*
X6262350Y-8706100D01*
X6183650D01*
X6128000Y-8761750D01*
Y-8840450D01*
X6151357Y-8863807D01*
X6110372Y-8904792D01*
X5681154D01*
X5665729Y-8864793D01*
X5713400Y-8817121D01*
Y-8744583D01*
X5821535Y-8636448D01*
X6291725D01*
X6372412Y-8717135D01*
Y-9380220D01*
X6386679Y-9414661D01*
X6496300Y-9524283D01*
Y-9589750D01*
X6551950Y-9645400D01*
X6630650D01*
X6686300Y-9589750D01*
Y-9511050D01*
X6630650Y-9455400D01*
X6565183D01*
X6469828Y-9360045D01*
Y-8857846D01*
X6509827Y-8841277D01*
X6542592Y-8874042D01*
Y-9004300D01*
X6556859Y-9038741D01*
X6974392Y-9456275D01*
Y-9567401D01*
X6971323D01*
X6898100Y-9640625D01*
Y-9744178D01*
X6971323Y-9817401D01*
X7074877D01*
X7148100Y-9744178D01*
Y-9640625D01*
X7074877Y-9567401D01*
X7071808D01*
Y-9436100D01*
X7057541Y-9401659D01*
X6640008Y-8984125D01*
Y-8874042D01*
X6686300Y-8827750D01*
Y-8749050D01*
X6640008Y-8702758D01*
Y-8541875D01*
X6840075Y-8341808D01*
X6900401D01*
Y-8418100D01*
X7150401D01*
Y-8341808D01*
X7676025D01*
X7761792Y-8427575D01*
Y-9327025D01*
X7703819Y-9384998D01*
X7655504Y-9383727D01*
X7621033Y-9349256D01*
X7597305Y-9321800D01*
X7621033Y-9294344D01*
X7668800Y-9246577D01*
Y-9143023D01*
X7621033Y-9095256D01*
X7597305Y-9067800D01*
X7621033Y-9040344D01*
X7668800Y-8992577D01*
Y-8889023D01*
X7631577Y-8851800D01*
X7648145Y-8811800D01*
X7668800D01*
Y-8561800D01*
X7418800D01*
Y-8638092D01*
X7148100D01*
Y-8521399D01*
X6898100D01*
Y-8771399D01*
X7148100D01*
Y-8735508D01*
X7369641D01*
X7386210Y-8775507D01*
X7232499Y-8929219D01*
X7218232Y-8963660D01*
Y-9733425D01*
X6690266Y-10261391D01*
X6157500D01*
Y-10185099D01*
X5907500D01*
Y-10366216D01*
X5070959Y-11202757D01*
X5056692Y-11237199D01*
Y-11843591D01*
X4970925Y-11929358D01*
X4860460D01*
X4843892Y-11889358D01*
X4882900Y-11850350D01*
Y-11771650D01*
X4827250Y-11716000D01*
X4748550D01*
X4702258Y-11762292D01*
X4452475D01*
X4011108Y-11320925D01*
Y-11072800D01*
X4062400D01*
Y-10872800D01*
X3862400D01*
Y-11072800D01*
X3913692D01*
Y-11341100D01*
X3927959Y-11375541D01*
X4397859Y-11845441D01*
X4432300Y-11859708D01*
X4702258D01*
X4731908Y-11889358D01*
X4715340Y-11929358D01*
X4175041D01*
X3831741Y-11586059D01*
X3797300Y-11571792D01*
X3530600D01*
X3496159Y-11586059D01*
X3369159Y-11713059D01*
X3354892Y-11747500D01*
Y-13423900D01*
X3369159Y-13458340D01*
X3519500Y-13608682D01*
Y-13681221D01*
X3578079Y-13739799D01*
X3660921D01*
X3712214Y-13688509D01*
X4800600D01*
X4835041Y-13674242D01*
X4909675Y-13599608D01*
X5856300D01*
Y-13650900D01*
X6056300D01*
Y-13450900D01*
X5856300D01*
Y-13502193D01*
X4889500D01*
X4855059Y-13516460D01*
X4780425Y-13591092D01*
X3712214D01*
X3660921Y-13539799D01*
X3609378D01*
X3600160Y-13526199D01*
X3621371Y-13486200D01*
X3661087D01*
X3719900Y-13427386D01*
Y-13398500D01*
X3619500D01*
X3519100D01*
Y-13413950D01*
X3481314Y-13432732D01*
X3452308Y-13403725D01*
Y-11767675D01*
X3550775Y-11669208D01*
X3777125D01*
X4120425Y-12012507D01*
X4154866Y-12026774D01*
X4991100D01*
X5025541Y-12012507D01*
X5139841Y-11898207D01*
X5154108Y-11863766D01*
Y-11257374D01*
X5976383Y-10435099D01*
X6157500D01*
Y-10358806D01*
X6710441D01*
X6744883Y-10344540D01*
X7301381Y-9788041D01*
X7315648Y-9753600D01*
Y-8983835D01*
X7378800Y-8920683D01*
X7418800Y-8937251D01*
Y-8992577D01*
X7466567Y-9040344D01*
X7490295Y-9067800D01*
X7466567Y-9095256D01*
X7418800Y-9143023D01*
Y-9246577D01*
X7466567Y-9294344D01*
X7490295Y-9321800D01*
X7466567Y-9349256D01*
X7418800Y-9397023D01*
Y-9500577D01*
X7466567Y-9548344D01*
X7490295Y-9575800D01*
X7466567Y-9603256D01*
X7418800Y-9651023D01*
Y-9754577D01*
X7420970Y-9756747D01*
X5998059Y-11179659D01*
X5938933Y-11238784D01*
X5742949Y-11262713D01*
X5713000Y-11236198D01*
Y-11205701D01*
X5463000D01*
Y-11455701D01*
X5713000D01*
Y-11364508D01*
X5877551Y-11344417D01*
X5907500Y-11370932D01*
Y-11407878D01*
X5980723Y-11481101D01*
X5983792D01*
Y-11625725D01*
X5847225Y-11762292D01*
X5635542D01*
X5589250Y-11716000D01*
X5510550D01*
X5454900Y-11771650D01*
Y-11850350D01*
X5510550Y-11906000D01*
X5589250D01*
X5635542Y-11859708D01*
X5867400D01*
X5901841Y-11845441D01*
X6066941Y-11680341D01*
X6081208Y-11645900D01*
Y-11481101D01*
X6084277D01*
X6157500Y-11407878D01*
Y-11304325D01*
X6084329Y-11231154D01*
X7378800Y-9936683D01*
X7418800Y-9953251D01*
Y-10008577D01*
X7466567Y-10056344D01*
X7490295Y-10083800D01*
X7466567Y-10111256D01*
X7418800Y-10159023D01*
Y-10262577D01*
X7466567Y-10310344D01*
X7490295Y-10337800D01*
X7466567Y-10365256D01*
X7418800Y-10413023D01*
Y-10516577D01*
X7466567Y-10564344D01*
X7490295Y-10591800D01*
X7466567Y-10619256D01*
X7418800Y-10667023D01*
Y-10770577D01*
X7466567Y-10818344D01*
X7490295Y-10845800D01*
X7466567Y-10873256D01*
X7418800Y-10921023D01*
Y-11024577D01*
X7466567Y-11072344D01*
X7490295Y-11099800D01*
X7466567Y-11127256D01*
X7418800Y-11175023D01*
Y-11278577D01*
X7420970Y-11280747D01*
X5872625Y-12829092D01*
X3712214D01*
X3660921Y-12777800D01*
X3578079D01*
X3519500Y-12836378D01*
Y-12919221D01*
X3578079Y-12977800D01*
X3660921D01*
X3712214Y-12926508D01*
X5892800D01*
X5927241Y-12912241D01*
X7378800Y-11460683D01*
X7418800Y-11477251D01*
Y-11532577D01*
X7466567Y-11580344D01*
X7490295Y-11607800D01*
X7466567Y-11635256D01*
X7418800Y-11683023D01*
Y-11786577D01*
X7466567Y-11834344D01*
X7490295Y-11861800D01*
X7466567Y-11889256D01*
X7418800Y-11937023D01*
Y-12040577D01*
X7420970Y-12042747D01*
X6380625Y-13083092D01*
X3712214D01*
X3660921Y-13031799D01*
X3578079D01*
X3519500Y-13090379D01*
Y-13173221D01*
X3578079Y-13231799D01*
X3660921D01*
X3712214Y-13180508D01*
X6400800D01*
X6435241Y-13166241D01*
X7378800Y-12222683D01*
X7418800Y-12239251D01*
Y-12294577D01*
X7420970Y-12296747D01*
X6683859Y-13033859D01*
X6669592Y-13068300D01*
Y-13458186D01*
X6618300Y-13509479D01*
Y-13592320D01*
X6676879Y-13650900D01*
X6759721D01*
X6818300Y-13592320D01*
Y-13509479D01*
X6767008Y-13458186D01*
Y-13088475D01*
X7489853Y-12365630D01*
X7492023Y-12367800D01*
X7595577D01*
X7668800Y-12294577D01*
Y-12191023D01*
X7621033Y-12143256D01*
X7597305Y-12115800D01*
X7621033Y-12088344D01*
X7668800Y-12040577D01*
Y-11937023D01*
X7621033Y-11889256D01*
X7597305Y-11861800D01*
X7621033Y-11834344D01*
X7668800Y-11786577D01*
Y-11683023D01*
X7621033Y-11635256D01*
X7597305Y-11607800D01*
X7621033Y-11580344D01*
X7668800Y-11532577D01*
Y-11429023D01*
X7621033Y-11381256D01*
X7597305Y-11353800D01*
X7621033Y-11326344D01*
X7668800Y-11278577D01*
Y-11175023D01*
X7621033Y-11127256D01*
X7597305Y-11099800D01*
X7621033Y-11072344D01*
X7668800Y-11024577D01*
Y-10921023D01*
X7621033Y-10873256D01*
X7597305Y-10845800D01*
X7621033Y-10818344D01*
X7668800Y-10770577D01*
Y-10667023D01*
X7621033Y-10619256D01*
X7597305Y-10591800D01*
X7621033Y-10564344D01*
X7668800Y-10516577D01*
Y-10413023D01*
X7621033Y-10365256D01*
X7597305Y-10337800D01*
X7621033Y-10310344D01*
X7668800Y-10262577D01*
Y-10159023D01*
X7621033Y-10111256D01*
X7597305Y-10083800D01*
X7621033Y-10056344D01*
X7668800Y-10008577D01*
Y-9905023D01*
X7621033Y-9857256D01*
X7597305Y-9829800D01*
X7621033Y-9802344D01*
X7668800Y-9754577D01*
Y-9651023D01*
X7621033Y-9603256D01*
X7597305Y-9575800D01*
X7621033Y-9548344D01*
X7668800Y-9500577D01*
Y-9497508D01*
X7708900D01*
X7743341Y-9483241D01*
X7844941Y-9381642D01*
X7859208Y-9347200D01*
Y-8407400D01*
X7844941Y-8372959D01*
X7730641Y-8258659D01*
X7696200Y-8244392D01*
X7150401D01*
Y-8168100D01*
X6900401D01*
Y-8244392D01*
X6819900D01*
X6785459Y-8258659D01*
X6556859Y-8487259D01*
X6542592Y-8521700D01*
Y-8702758D01*
X6509827Y-8735523D01*
X6469828Y-8718954D01*
Y-8696960D01*
X6455561Y-8662519D01*
X6346341Y-8553299D01*
X6311900Y-8539032D01*
X5801360D01*
X5766919Y-8553299D01*
X5686363Y-8633854D01*
X5649408Y-8618547D01*
Y-8556542D01*
X5695700Y-8510250D01*
Y-8431550D01*
X5640050Y-8375900D01*
X5561350D01*
X5505700Y-8431550D01*
Y-8510250D01*
X5551992Y-8556542D01*
Y-8695686D01*
X5513400Y-8734279D01*
Y-8817121D01*
X5561071Y-8864793D01*
X5545646Y-8904792D01*
X5455775D01*
X5413752Y-8862769D01*
X5459400Y-8817121D01*
Y-8734279D01*
X5400821Y-8675700D01*
X5395408D01*
Y-8442242D01*
X5441700Y-8395950D01*
Y-8330483D01*
X5635142Y-8137041D01*
X5649408Y-8102600D01*
Y-7794542D01*
X5695700Y-7748250D01*
Y-7669550D01*
X5640050Y-7613900D01*
X5561350D01*
X5505700Y-7669550D01*
Y-7748250D01*
X5551992Y-7794542D01*
Y-8082425D01*
X5372817Y-8261600D01*
X5307350D01*
X5276028Y-8248626D01*
Y-7947660D01*
X5261761Y-7913219D01*
X5127141Y-7778599D01*
X5092700Y-7764332D01*
X3210560D01*
X3176118Y-7778599D01*
X2530959Y-8423759D01*
X2529200Y-8428004D01*
X2489200Y-8420048D01*
Y-7899400D01*
X2476500Y-7886700D01*
X3124200Y-7239000D01*
X13893800D01*
X14503400Y-7848600D01*
D02*
G37*
G36*
X2530959Y-13232281D02*
X3355677Y-14057001D01*
X3340204Y-14097000D01*
X3124200D01*
X2489200Y-13462000D01*
Y-13235992D01*
X2529200Y-13228036D01*
X2530959Y-13232281D01*
D02*
G37*
%LPC*%
G36*
X12017687Y-7697400D02*
X11988800D01*
Y-7785100D01*
X12076500D01*
Y-7756213D01*
X12017687Y-7697400D01*
D02*
G37*
G36*
X11963400D02*
X11934513D01*
X11875700Y-7756213D01*
Y-7785100D01*
X11963400D01*
Y-7697400D01*
D02*
G37*
G36*
X12076500Y-7810500D02*
X11988800D01*
Y-7898200D01*
X12017687D01*
X12076500Y-7839387D01*
Y-7810500D01*
D02*
G37*
G36*
X11963400D02*
X11875700D01*
Y-7839387D01*
X11934513Y-7898200D01*
X11963400D01*
Y-7810500D01*
D02*
G37*
G36*
X10109287Y-7715800D02*
X9964313D01*
X9861800Y-7818312D01*
Y-7963287D01*
X9964313Y-8065799D01*
X10109287D01*
X10211800Y-7963287D01*
Y-7818312D01*
X10109287Y-7715800D01*
D02*
G37*
G36*
X7658289D02*
X7513314D01*
X7410802Y-7818312D01*
Y-7963287D01*
X7513314Y-8065799D01*
X7658289D01*
X7760801Y-7963287D01*
Y-7818312D01*
X7658289Y-7715800D01*
D02*
G37*
G36*
X12017521Y-7951800D02*
X11934679D01*
X11883386Y-8003092D01*
X11226800D01*
X11192359Y-8017359D01*
X10249200Y-8960517D01*
X10209200Y-8943949D01*
Y-8888858D01*
X10161433Y-8841090D01*
X10137239Y-8813683D01*
X10161364Y-8786013D01*
X10208800Y-8738577D01*
Y-8635023D01*
X10135577Y-8561800D01*
X10032023D01*
X9958800Y-8635023D01*
Y-8738577D01*
X10006236Y-8786013D01*
X10030361Y-8813683D01*
X10006167Y-8841090D01*
X9958400Y-8888858D01*
Y-8928100D01*
X10083800D01*
Y-8953500D01*
X9958400D01*
Y-8992742D01*
X10006167Y-9040510D01*
X10030361Y-9067917D01*
X10006236Y-9095587D01*
X9958800Y-9143023D01*
Y-9246577D01*
X10006567Y-9294344D01*
X10030295Y-9321800D01*
X10006567Y-9349256D01*
X9958800Y-9397023D01*
Y-9500577D01*
X10006567Y-9548344D01*
X10030295Y-9575800D01*
X10006567Y-9603256D01*
X9958800Y-9651023D01*
Y-9754577D01*
X10006567Y-9802344D01*
X10030295Y-9829800D01*
X10006567Y-9857256D01*
X9958800Y-9905023D01*
Y-10008577D01*
X10006567Y-10056344D01*
X10030295Y-10083800D01*
X10006567Y-10111256D01*
X9958800Y-10159023D01*
Y-10262577D01*
X10006567Y-10310344D01*
X10030295Y-10337800D01*
X10006567Y-10365256D01*
X9958800Y-10413023D01*
Y-10516577D01*
X10006567Y-10564344D01*
X10030295Y-10591800D01*
X10006567Y-10619256D01*
X9958800Y-10667023D01*
Y-10770577D01*
X10006567Y-10818344D01*
X10030295Y-10845800D01*
X10006567Y-10873256D01*
X9958800Y-10921023D01*
Y-11024577D01*
X10006567Y-11072344D01*
X10030295Y-11099800D01*
X10006567Y-11127256D01*
X9958800Y-11175023D01*
Y-11278577D01*
X10006567Y-11326344D01*
X10030295Y-11353800D01*
X10006567Y-11381256D01*
X9958800Y-11429023D01*
Y-11432092D01*
X9931400D01*
X9896959Y-11446359D01*
X9808059Y-11535259D01*
X9793792Y-11569700D01*
Y-12527763D01*
X9785857Y-12564476D01*
X9777025Y-12585797D01*
X9785857Y-12607118D01*
X9793792Y-12643831D01*
Y-12903200D01*
X9808059Y-12937640D01*
X10163659Y-13293240D01*
X10198100Y-13307507D01*
X11179258D01*
X11216192Y-13344443D01*
Y-13465257D01*
X11169900Y-13511549D01*
Y-13590250D01*
X11225550Y-13645900D01*
X11304250D01*
X11359900Y-13590250D01*
Y-13511549D01*
X11313608Y-13465257D01*
Y-13344443D01*
X11359900Y-13298151D01*
Y-13219450D01*
X11304250Y-13163800D01*
X11225550D01*
X11179258Y-13210092D01*
X10218275D01*
X9891208Y-12883025D01*
Y-12739954D01*
X9928163Y-12724647D01*
X9964313Y-12760796D01*
X10109287D01*
X10211800Y-12658284D01*
Y-12513309D01*
X10109287Y-12410797D01*
X9964313D01*
X9928163Y-12446946D01*
X9891208Y-12431639D01*
Y-11589875D01*
X9927501Y-11553582D01*
X9958800Y-11532577D01*
X10006567Y-11580344D01*
X10030295Y-11607800D01*
X10006567Y-11635256D01*
X9958800Y-11683023D01*
Y-11786577D01*
X10006567Y-11834344D01*
X10030295Y-11861800D01*
X10006567Y-11889256D01*
X9958800Y-11937023D01*
Y-12040577D01*
X10006567Y-12088344D01*
X10030295Y-12115800D01*
X10006567Y-12143256D01*
X9958800Y-12191023D01*
Y-12294577D01*
X10032023Y-12367800D01*
X10135577D01*
X10208800Y-12294577D01*
Y-12191023D01*
X10161033Y-12143256D01*
X10137305Y-12115800D01*
X10161033Y-12088344D01*
X10208800Y-12040577D01*
Y-11937023D01*
X10161033Y-11889256D01*
X10137305Y-11861800D01*
X10161033Y-11834344D01*
X10208800Y-11786577D01*
Y-11683023D01*
X10161033Y-11635256D01*
X10137305Y-11607800D01*
X10161033Y-11580344D01*
X10208800Y-11532577D01*
Y-11429023D01*
X10161033Y-11381256D01*
X10137305Y-11353800D01*
X10161033Y-11326344D01*
X10208800Y-11278577D01*
Y-11275508D01*
X10263692D01*
Y-12090400D01*
X10277959Y-12124841D01*
X10798659Y-12645541D01*
X10833100Y-12659808D01*
X11014158D01*
X11051092Y-12696742D01*
Y-12817558D01*
X11004800Y-12863850D01*
Y-12942551D01*
X11060450Y-12998199D01*
X11139150D01*
X11194800Y-12942551D01*
Y-12863850D01*
X11148508Y-12817558D01*
Y-12696742D01*
X11194800Y-12650450D01*
Y-12571750D01*
X11139150Y-12516100D01*
X11060450D01*
X11014158Y-12562392D01*
X10853275D01*
X10361108Y-12070225D01*
Y-11250231D01*
X10346841Y-11215790D01*
X10323410Y-11192359D01*
X10288968Y-11178092D01*
X10208800D01*
Y-11175023D01*
X10161033Y-11127256D01*
X10137305Y-11099800D01*
X10161033Y-11072344D01*
X10208800Y-11024577D01*
Y-11021508D01*
X10266825D01*
X10606592Y-11361275D01*
Y-11696700D01*
X10620859Y-11731141D01*
X10925659Y-12035941D01*
X10960100Y-12050208D01*
X11014158D01*
X11051092Y-12087142D01*
Y-12195258D01*
X11004800Y-12241550D01*
Y-12320250D01*
X11060450Y-12375900D01*
X11139150D01*
X11194800Y-12320250D01*
Y-12241550D01*
X11148508Y-12195258D01*
Y-12087142D01*
X11194800Y-12040850D01*
Y-11962150D01*
X11139150Y-11906500D01*
X11060450D01*
X11014158Y-11952792D01*
X10980275D01*
X10704008Y-11676525D01*
Y-11341100D01*
X10689741Y-11306659D01*
X10321441Y-10938359D01*
X10287000Y-10924092D01*
X10208800D01*
Y-10921023D01*
X10161033Y-10873256D01*
X10137305Y-10845800D01*
X10161033Y-10818344D01*
X10208800Y-10770577D01*
Y-10767508D01*
X10292225D01*
X10951059Y-11426341D01*
X10985500Y-11440608D01*
X11014158D01*
X11051092Y-11477542D01*
Y-11611058D01*
X11004800Y-11657350D01*
Y-11736050D01*
X11060450Y-11791700D01*
X11139150D01*
X11194800Y-11736050D01*
Y-11657350D01*
X11148508Y-11611058D01*
Y-11477542D01*
X11194800Y-11431250D01*
Y-11352550D01*
X11139150Y-11296900D01*
X11060450D01*
X11014158Y-11343192D01*
X11005675D01*
X10346841Y-10684359D01*
X10312400Y-10670092D01*
X10208800D01*
Y-10667023D01*
X10161033Y-10619256D01*
X10137305Y-10591800D01*
X10161033Y-10564344D01*
X10208800Y-10516577D01*
Y-10513508D01*
X10647825D01*
X10951059Y-10816741D01*
X10985500Y-10831008D01*
X11014158D01*
X11051092Y-10867942D01*
Y-11001458D01*
X11004800Y-11047750D01*
Y-11126450D01*
X11060450Y-11182100D01*
X11139150D01*
X11194800Y-11126450D01*
Y-11047750D01*
X11148508Y-11001458D01*
Y-10867942D01*
X11194800Y-10821650D01*
Y-10742950D01*
X11139150Y-10687300D01*
X11060450D01*
X11014158Y-10733592D01*
X11005675D01*
X10702441Y-10430359D01*
X10668000Y-10416092D01*
X10208800D01*
Y-10413023D01*
X10161033Y-10365256D01*
X10137305Y-10337800D01*
X10161033Y-10310344D01*
X10208800Y-10262577D01*
Y-10259508D01*
X11049000D01*
X11051092Y-10260906D01*
Y-10379158D01*
X11004800Y-10425450D01*
Y-10504150D01*
X11060450Y-10559800D01*
X11139150D01*
X11194800Y-10504150D01*
Y-10425450D01*
X11148508Y-10379158D01*
Y-10245642D01*
X11194800Y-10199350D01*
Y-10120650D01*
X11139150Y-10065000D01*
X11060450D01*
X11004800Y-10120650D01*
Y-10162092D01*
X10208800D01*
Y-10159023D01*
X10161033Y-10111256D01*
X10137305Y-10083800D01*
X10161033Y-10056344D01*
X10208800Y-10008577D01*
Y-9916608D01*
X11014158D01*
X11060450Y-9962900D01*
X11139150D01*
X11194800Y-9907250D01*
Y-9828550D01*
X11148508Y-9782258D01*
Y-9623342D01*
X11194800Y-9577050D01*
Y-9498350D01*
X11139150Y-9442700D01*
X11060450D01*
X11004800Y-9498350D01*
Y-9577050D01*
X11051092Y-9623342D01*
Y-9782258D01*
X11014158Y-9819192D01*
X10200753D01*
X10184184Y-9779193D01*
X10208800Y-9754577D01*
Y-9651023D01*
X10206630Y-9648853D01*
X10853275Y-9002208D01*
X11014158D01*
X11051092Y-9039142D01*
Y-9159958D01*
X11004800Y-9206250D01*
Y-9284950D01*
X11060450Y-9340600D01*
X11139150D01*
X11194800Y-9284950D01*
Y-9206250D01*
X11148508Y-9159958D01*
Y-9039142D01*
X11194800Y-8992850D01*
Y-8914150D01*
X11139150Y-8858500D01*
X11060450D01*
X11014158Y-8904792D01*
X10833100D01*
X10798659Y-8919059D01*
X10248800Y-9468917D01*
X10208800Y-9452349D01*
Y-9397023D01*
X10161033Y-9349256D01*
X10137305Y-9321800D01*
X10161033Y-9294344D01*
X10208800Y-9246577D01*
Y-9143023D01*
X10206630Y-9140853D01*
X11246975Y-8100508D01*
X11883386D01*
X11934679Y-8151800D01*
X12017521D01*
X12076100Y-8093221D01*
Y-8010379D01*
X12017521Y-7951800D01*
D02*
G37*
G36*
X6031341Y-8167700D02*
X5992099D01*
Y-8280400D01*
X6104799D01*
Y-8241158D01*
X6031341Y-8167700D01*
D02*
G37*
G36*
X5966699D02*
X5927456D01*
X5853999Y-8241158D01*
Y-8280400D01*
X5966699D01*
Y-8167700D01*
D02*
G37*
G36*
X12017521Y-8205800D02*
X11934679D01*
X11876100Y-8264379D01*
Y-8347221D01*
X11934679Y-8405800D01*
X12017521D01*
X12076100Y-8347221D01*
Y-8264379D01*
X12017521Y-8205800D01*
D02*
G37*
G36*
X6104799Y-8305800D02*
X5992099D01*
Y-8418500D01*
X6031341D01*
X6104799Y-8345042D01*
Y-8305800D01*
D02*
G37*
G36*
X5966699D02*
X5853999D01*
Y-8345042D01*
X5927456Y-8418500D01*
X5966699D01*
Y-8305800D01*
D02*
G37*
G36*
X5092700Y-8675300D02*
X5063813D01*
X5005000Y-8734113D01*
Y-8763000D01*
X5092700D01*
Y-8675300D01*
D02*
G37*
G36*
X4789871Y-8053892D02*
X3886200D01*
X3851759Y-8068159D01*
X3251917Y-8668000D01*
X3186450D01*
X3130800Y-8723650D01*
Y-8802350D01*
X3186450Y-8858000D01*
X3265150D01*
X3320800Y-8802350D01*
Y-8736883D01*
X3906375Y-8151308D01*
X4764592D01*
Y-8539625D01*
X4628517Y-8675700D01*
X4555979D01*
X4497400Y-8734279D01*
Y-8786997D01*
X4483400Y-8796567D01*
X4443400Y-8775455D01*
Y-8734279D01*
X4416802Y-8707681D01*
X4619141Y-8505342D01*
X4633408Y-8470900D01*
Y-8442242D01*
X4679700Y-8395950D01*
Y-8317250D01*
X4624050Y-8261600D01*
X4545350D01*
X4489700Y-8317250D01*
Y-8395950D01*
X4535992Y-8442242D01*
Y-8450725D01*
X4330006Y-8656711D01*
X4322140Y-8675700D01*
X4301979D01*
X4250686Y-8726992D01*
X4182114D01*
X4130821Y-8675700D01*
X4047979D01*
X3989400Y-8734279D01*
Y-8817121D01*
X4047979Y-8875700D01*
X4130821D01*
X4182114Y-8824408D01*
X4250686D01*
X4301979Y-8875700D01*
X4371949D01*
X4391131Y-8913086D01*
X4054959Y-9249259D01*
X4040692Y-9283700D01*
Y-9437700D01*
X3989400D01*
Y-9637700D01*
X3963068Y-9666792D01*
X3753975D01*
X3651000Y-9563817D01*
Y-9498350D01*
X3595350Y-9442700D01*
X3516650D01*
X3472298Y-9487052D01*
X3315320Y-9480170D01*
X3265150Y-9430000D01*
X3186450D01*
X3130800Y-9485650D01*
Y-9564350D01*
X3186450Y-9620000D01*
X3265150D01*
X3307801Y-9577349D01*
X3468337Y-9584387D01*
X3516650Y-9632700D01*
X3582117D01*
X3699358Y-9749941D01*
X3733800Y-9764208D01*
X4165600D01*
X4200041Y-9749941D01*
X4312283Y-9637700D01*
X4384821D01*
X4389817Y-9632704D01*
X4426772Y-9648011D01*
Y-9779145D01*
X4385159Y-9820759D01*
X3115159Y-11090759D01*
X3100892Y-11125200D01*
Y-13538200D01*
X3115159Y-13572641D01*
X3458059Y-13915541D01*
X3492500Y-13929808D01*
X7543800D01*
X7578241Y-13915541D01*
X7855583Y-13638200D01*
X7928121D01*
X7986700Y-13579620D01*
Y-13496779D01*
X7928121Y-13438200D01*
X7845279D01*
X7786700Y-13496779D01*
Y-13569318D01*
X7523625Y-13832391D01*
X3512675D01*
X3198308Y-13518025D01*
Y-11145375D01*
X4313875Y-10029808D01*
X4324600Y-10034250D01*
X4380250Y-10089900D01*
X4458950D01*
X4514600Y-10034250D01*
Y-9955550D01*
X4468308Y-9909258D01*
Y-9875375D01*
X4509921Y-9833761D01*
X4524188Y-9799320D01*
Y-9651200D01*
X4555813Y-9638100D01*
X4584700D01*
Y-9537700D01*
Y-9437300D01*
X4555813D01*
X4524188Y-9424200D01*
Y-9171795D01*
X4820283Y-8875700D01*
X4892821D01*
X4951400Y-8817121D01*
Y-8734279D01*
X4892821Y-8675700D01*
X4822851D01*
X4803669Y-8638314D01*
X4847742Y-8594241D01*
X4862008Y-8559800D01*
Y-8126029D01*
X4847741Y-8091588D01*
X4824312Y-8068159D01*
X4789871Y-8053892D01*
D02*
G37*
G36*
X5092700Y-8788400D02*
X5005000D01*
Y-8817287D01*
X5063813Y-8876100D01*
X5092700D01*
Y-8788400D01*
D02*
G37*
G36*
X3595350Y-8680700D02*
X3516650D01*
X3461000Y-8736350D01*
Y-8801817D01*
X3294525Y-8968292D01*
X2932100D01*
Y-8917000D01*
X2732100D01*
Y-9117000D01*
X2932100D01*
Y-9065708D01*
X3314700D01*
X3349141Y-9051441D01*
X3529883Y-8870700D01*
X3595350D01*
X3651000Y-8815050D01*
Y-8736350D01*
X3595350Y-8680700D01*
D02*
G37*
G36*
X11901316Y-9150200D02*
X11874500D01*
Y-9232900D01*
X11957200D01*
Y-9206084D01*
X11901316Y-9150200D01*
D02*
G37*
G36*
X11849100D02*
X11822284D01*
X11766400Y-9206084D01*
Y-9232900D01*
X11849100D01*
Y-9150200D01*
D02*
G37*
G36*
X2873687Y-9170600D02*
X2844800D01*
Y-9258300D01*
X2932500D01*
Y-9229413D01*
X2873687Y-9170600D01*
D02*
G37*
G36*
X2819400D02*
X2790513D01*
X2731700Y-9229413D01*
Y-9258300D01*
X2819400D01*
Y-9170600D01*
D02*
G37*
G36*
X11957200Y-9258300D02*
X11874500D01*
Y-9341000D01*
X11901316D01*
X11957200Y-9285116D01*
Y-9258300D01*
D02*
G37*
G36*
X11849100D02*
X11766400D01*
Y-9285116D01*
X11822284Y-9341000D01*
X11849100D01*
Y-9258300D01*
D02*
G37*
G36*
X2932500Y-9283700D02*
X2844800D01*
Y-9371400D01*
X2873687D01*
X2932500Y-9312587D01*
Y-9283700D01*
D02*
G37*
G36*
X2819400D02*
X2731700D01*
Y-9312587D01*
X2790513Y-9371400D01*
X2819400D01*
Y-9283700D01*
D02*
G37*
G36*
X5654821Y-9437700D02*
X5571979D01*
X5520686Y-9488992D01*
X5452114D01*
X5400821Y-9437700D01*
X5317979D01*
X5259400Y-9496279D01*
Y-9579121D01*
X5317979Y-9637700D01*
X5400821D01*
X5452114Y-9586408D01*
X5520686D01*
X5571979Y-9637700D01*
X5654821D01*
X5680714Y-9611808D01*
X6137358D01*
X6183650Y-9658100D01*
X6262350D01*
X6318000Y-9602450D01*
Y-9523750D01*
X6262350Y-9468100D01*
X6183650D01*
X6137358Y-9514392D01*
X5713400D01*
Y-9496279D01*
X5654821Y-9437700D01*
D02*
G37*
G36*
X4610100Y-9437300D02*
Y-9525000D01*
X4697800D01*
Y-9496113D01*
X4638987Y-9437300D01*
X4610100D01*
D02*
G37*
G36*
X4697800Y-9550400D02*
X4610100D01*
Y-9638100D01*
X4638987D01*
X4697800Y-9579287D01*
Y-9550400D01*
D02*
G37*
G36*
X11901316Y-9772500D02*
X11874500D01*
Y-9855200D01*
X11957200D01*
Y-9828384D01*
X11901316Y-9772500D01*
D02*
G37*
G36*
X11849100D02*
X11822284D01*
X11766400Y-9828384D01*
Y-9855200D01*
X11849100D01*
Y-9772500D01*
D02*
G37*
G36*
X13507240Y-9834880D02*
X13474699D01*
Y-9931400D01*
X13571220D01*
Y-9898860D01*
X13507240Y-9834880D01*
D02*
G37*
G36*
X13449300D02*
X13416760D01*
X13352780Y-9898860D01*
Y-9931400D01*
X13449300D01*
Y-9834880D01*
D02*
G37*
G36*
X11957200Y-9880600D02*
X11874500D01*
Y-9963300D01*
X11901316D01*
X11957200Y-9907416D01*
Y-9880600D01*
D02*
G37*
G36*
X11849100D02*
X11766400D01*
Y-9907416D01*
X11822284Y-9963300D01*
X11849100D01*
Y-9880600D01*
D02*
G37*
G36*
X6262516Y-9899500D02*
X6235700D01*
Y-9982200D01*
X6318400D01*
Y-9955384D01*
X6262516Y-9899500D01*
D02*
G37*
G36*
X6210300D02*
X6183484D01*
X6127600Y-9955384D01*
Y-9982200D01*
X6210300D01*
Y-9899500D01*
D02*
G37*
G36*
X6318400Y-10007600D02*
X6235700D01*
Y-10090300D01*
X6262516D01*
X6318400Y-10034416D01*
Y-10007600D01*
D02*
G37*
G36*
X6210300D02*
X6127600D01*
Y-10034416D01*
X6183484Y-10090300D01*
X6210300D01*
Y-10007600D01*
D02*
G37*
G36*
X5639942Y-10159299D02*
X5600700D01*
Y-10271999D01*
X5713400D01*
Y-10232756D01*
X5639942Y-10159299D01*
D02*
G37*
G36*
X5575300D02*
X5536058D01*
X5462600Y-10232756D01*
Y-10271999D01*
X5575300D01*
Y-10159299D01*
D02*
G37*
G36*
X5713400Y-10297399D02*
X5600700D01*
Y-10410099D01*
X5639942D01*
X5713400Y-10336641D01*
Y-10297399D01*
D02*
G37*
G36*
X5575300D02*
X5462600D01*
Y-10336641D01*
X5536058Y-10410099D01*
X5575300D01*
Y-10297399D01*
D02*
G37*
G36*
X11901316Y-10369400D02*
X11874500D01*
Y-10452100D01*
X11957200D01*
Y-10425284D01*
X11901316Y-10369400D01*
D02*
G37*
G36*
X11849100D02*
X11822284D01*
X11766400Y-10425284D01*
Y-10452100D01*
X11849100D01*
Y-10369400D01*
D02*
G37*
G36*
X11957200Y-10477500D02*
X11874500D01*
Y-10560200D01*
X11901316D01*
X11957200Y-10504316D01*
Y-10477500D01*
D02*
G37*
G36*
X11849100D02*
X11766400D01*
Y-10504316D01*
X11822284Y-10560200D01*
X11849100D01*
Y-10477500D01*
D02*
G37*
G36*
X4003987Y-10618400D02*
X3975100D01*
Y-10706100D01*
X4062800D01*
Y-10677213D01*
X4003987Y-10618400D01*
D02*
G37*
G36*
X3949700D02*
X3920813D01*
X3862000Y-10677213D01*
Y-10706100D01*
X3949700D01*
Y-10618400D01*
D02*
G37*
G36*
X13571220Y-9956800D02*
X13462000D01*
X13352780D01*
Y-9989340D01*
X13413951Y-10050512D01*
X13415518Y-10070934D01*
X13414020Y-10092185D01*
X13353180Y-10153025D01*
Y-10243175D01*
X13414352Y-10304346D01*
X13415723Y-10325100D01*
X13414352Y-10345854D01*
X13353180Y-10407025D01*
Y-10497175D01*
X13414020Y-10558015D01*
X13415518Y-10579266D01*
X13413951Y-10599688D01*
X13352780Y-10660860D01*
Y-10693400D01*
X13462000D01*
X13571220D01*
Y-10660860D01*
X13510049Y-10599688D01*
X13508482Y-10579266D01*
X13509979Y-10558015D01*
X13567188Y-10500808D01*
X13759325D01*
X13961200Y-10702683D01*
Y-10754008D01*
X14010992Y-10803800D01*
X14081409D01*
X14131200Y-10754008D01*
Y-10683592D01*
X14081409Y-10633800D01*
X14030083D01*
X13813940Y-10417659D01*
X13779500Y-10403392D01*
X13567188D01*
X13509648Y-10345854D01*
X13508276Y-10325100D01*
X13509648Y-10304346D01*
X13570821Y-10243175D01*
Y-10153025D01*
X13509979Y-10092185D01*
X13508482Y-10070934D01*
X13510049Y-10050512D01*
X13571220Y-9989340D01*
Y-9956800D01*
D02*
G37*
G36*
X4062800Y-10731500D02*
X3975100D01*
Y-10819200D01*
X4003987D01*
X4062800Y-10760387D01*
Y-10731500D01*
D02*
G37*
G36*
X3949700D02*
X3862000D01*
Y-10760387D01*
X3920813Y-10819200D01*
X3949700D01*
Y-10731500D01*
D02*
G37*
G36*
X13571220Y-10718800D02*
X13462000D01*
X13352780D01*
Y-10751340D01*
X13413951Y-10812512D01*
X13415518Y-10832934D01*
X13414020Y-10854185D01*
X13353180Y-10915025D01*
Y-11005175D01*
X13414352Y-11066346D01*
X13415723Y-11087100D01*
X13414352Y-11107854D01*
X13356813Y-11165392D01*
X13271500D01*
X13237059Y-11179659D01*
X13186259Y-11230459D01*
X13171992Y-11264900D01*
Y-11684000D01*
X13186259Y-11718441D01*
X13224359Y-11756541D01*
X13258800Y-11770808D01*
X13356813D01*
X13414020Y-11828015D01*
X13415518Y-11849266D01*
X13413951Y-11869688D01*
X13352780Y-11930860D01*
Y-11963400D01*
X13462000D01*
X13571220D01*
Y-11930860D01*
X13510049Y-11869688D01*
X13508482Y-11849266D01*
X13509979Y-11828015D01*
X13570821Y-11767175D01*
Y-11677025D01*
X13509648Y-11615854D01*
X13508276Y-11595100D01*
X13509648Y-11574346D01*
X13567188Y-11516808D01*
X13784724D01*
X13845091Y-11577175D01*
Y-11955400D01*
X13808800Y-11991692D01*
Y-12062108D01*
X13845091Y-12098400D01*
Y-12222625D01*
X13526218Y-12541500D01*
X13460750D01*
X13405099Y-12597150D01*
Y-12675850D01*
X13460750Y-12731500D01*
X13539450D01*
X13595100Y-12675850D01*
Y-12610383D01*
X13928241Y-12277241D01*
X13942508Y-12242800D01*
Y-12098400D01*
X13978799Y-12062108D01*
Y-11991692D01*
X13942508Y-11955400D01*
Y-11557000D01*
X13928241Y-11522559D01*
X13873782Y-11468100D01*
X14030083Y-11311800D01*
X14131200D01*
Y-11141800D01*
X13961200D01*
Y-11242917D01*
X13784724Y-11419392D01*
X13567188D01*
X13509648Y-11361854D01*
X13508276Y-11341100D01*
X13509648Y-11320346D01*
X13570821Y-11259175D01*
Y-11169025D01*
X13509648Y-11107854D01*
X13508276Y-11087100D01*
X13509648Y-11066346D01*
X13567188Y-11008808D01*
X13962000D01*
X14010992Y-11057800D01*
X14081409D01*
X14131200Y-11008008D01*
Y-10937592D01*
X14081409Y-10887800D01*
X14010992D01*
X13987399Y-10911392D01*
X13567188D01*
X13509979Y-10854185D01*
X13508482Y-10832934D01*
X13510049Y-10812512D01*
X13571220Y-10751340D01*
Y-10718800D01*
D02*
G37*
G36*
X11901316Y-10991700D02*
X11874500D01*
Y-11074400D01*
X11957200D01*
Y-11047584D01*
X11901316Y-10991700D01*
D02*
G37*
G36*
X11849100D02*
X11822284D01*
X11766400Y-11047584D01*
Y-11074400D01*
X11849100D01*
Y-10991700D01*
D02*
G37*
G36*
X11957200Y-11099800D02*
X11874500D01*
Y-11182500D01*
X11901316D01*
X11957200Y-11126616D01*
Y-11099800D01*
D02*
G37*
G36*
X11849100D02*
X11766400D01*
Y-11126616D01*
X11822284Y-11182500D01*
X11849100D01*
Y-11099800D01*
D02*
G37*
G36*
X11901316Y-11601300D02*
X11874500D01*
Y-11684000D01*
X11957200D01*
Y-11657184D01*
X11901316Y-11601300D01*
D02*
G37*
G36*
X11849100D02*
X11822284D01*
X11766400Y-11657184D01*
Y-11684000D01*
X11849100D01*
Y-11601300D01*
D02*
G37*
G36*
X11957200Y-11709400D02*
X11874500D01*
Y-11792100D01*
X11901316D01*
X11957200Y-11736216D01*
Y-11709400D01*
D02*
G37*
G36*
X11849100D02*
X11766400D01*
Y-11736216D01*
X11822284Y-11792100D01*
X11849100D01*
Y-11709400D01*
D02*
G37*
G36*
X3719500Y-11761800D02*
X3519500D01*
Y-11961800D01*
X3719500D01*
Y-11761800D01*
D02*
G37*
G36*
X12076100Y-8459800D02*
X11876100D01*
Y-8659800D01*
X12076100D01*
Y-8608508D01*
X12298825D01*
X13019592Y-9329275D01*
Y-12095625D01*
X12933826Y-12181392D01*
X12805186D01*
X12747648Y-12123854D01*
X12746277Y-12103100D01*
X12747648Y-12082346D01*
X12808820Y-12021175D01*
Y-11931025D01*
X12747648Y-11869854D01*
X12746277Y-11849100D01*
X12747648Y-11828346D01*
X12808820Y-11767175D01*
Y-11677025D01*
X12747648Y-11615854D01*
X12746277Y-11595100D01*
X12747648Y-11574346D01*
X12808820Y-11513175D01*
Y-11423025D01*
X12747648Y-11361854D01*
X12746277Y-11341100D01*
X12747648Y-11320346D01*
X12808820Y-11259175D01*
Y-11169025D01*
X12747648Y-11107854D01*
X12746277Y-11087100D01*
X12747648Y-11066346D01*
X12808820Y-11005175D01*
Y-10915025D01*
X12747648Y-10853854D01*
X12746277Y-10833100D01*
X12747648Y-10812346D01*
X12808820Y-10751175D01*
Y-10661025D01*
X12747648Y-10599854D01*
X12746277Y-10579100D01*
X12747648Y-10558346D01*
X12808820Y-10497175D01*
Y-10407025D01*
X12747648Y-10345854D01*
X12746277Y-10325100D01*
X12747648Y-10304346D01*
X12808820Y-10243175D01*
Y-10153025D01*
X12747648Y-10091854D01*
X12746277Y-10071100D01*
X12747648Y-10050346D01*
X12808820Y-9989175D01*
Y-9899025D01*
X12748708Y-9838913D01*
Y-9448800D01*
X12734441Y-9414358D01*
X12239141Y-8919059D01*
X12204700Y-8904792D01*
X11947442D01*
X11901150Y-8858500D01*
X11822450D01*
X11766800Y-8914150D01*
Y-8992850D01*
X11822450Y-9048500D01*
X11901150D01*
X11947442Y-9002208D01*
X12184525D01*
X12651292Y-9468975D01*
Y-9838913D01*
X12591180Y-9899025D01*
Y-9989175D01*
X12652352Y-10050346D01*
X12653723Y-10071100D01*
X12652352Y-10091854D01*
X12594813Y-10149392D01*
X12553107D01*
X12050208Y-9646493D01*
Y-9561131D01*
X12035941Y-9526690D01*
X12012510Y-9503259D01*
X11978068Y-9488992D01*
X11947442D01*
X11901150Y-9442700D01*
X11822450D01*
X11766800Y-9498350D01*
Y-9577050D01*
X11822450Y-9632700D01*
X11901150D01*
X11912793Y-9621057D01*
X11952792Y-9637626D01*
Y-9666669D01*
X11967059Y-9701110D01*
X12498490Y-10232541D01*
X12532931Y-10246808D01*
X12594813D01*
X12652352Y-10304346D01*
X12653723Y-10325100D01*
X12652352Y-10345854D01*
X12594813Y-10403392D01*
X12301075D01*
X12023241Y-10125559D01*
X11988800Y-10111292D01*
X11947442D01*
X11901150Y-10065000D01*
X11822450D01*
X11766800Y-10120650D01*
Y-10199350D01*
X11822450Y-10255000D01*
X11901150D01*
X11947442Y-10208708D01*
X11968625D01*
X12246459Y-10486541D01*
X12280900Y-10500808D01*
X12594813D01*
X12652352Y-10558346D01*
X12653723Y-10579100D01*
X12652352Y-10599854D01*
X12594813Y-10657392D01*
X11938000D01*
X11903559Y-10671659D01*
X11887917Y-10687300D01*
X11822450D01*
X11766800Y-10742950D01*
Y-10821650D01*
X11822450Y-10877300D01*
X11901150D01*
X11956800Y-10821650D01*
Y-10756183D01*
X11958175Y-10754808D01*
X12594813D01*
X12652352Y-10812346D01*
X12653723Y-10833100D01*
X12652352Y-10853854D01*
X12594813Y-10911392D01*
X12293600D01*
X12259159Y-10925659D01*
X11887917Y-11296900D01*
X11822450D01*
X11766800Y-11352550D01*
Y-11431250D01*
X11822450Y-11486900D01*
X11901150D01*
X11956800Y-11431250D01*
Y-11365783D01*
X12313775Y-11008808D01*
X12594813D01*
X12652352Y-11066346D01*
X12653723Y-11087100D01*
X12652352Y-11107854D01*
X12594813Y-11165392D01*
X12344400D01*
X12309959Y-11179659D01*
X12119459Y-11370159D01*
X12105192Y-11404600D01*
Y-11689225D01*
X11887917Y-11906500D01*
X11822450D01*
X11766800Y-11962150D01*
Y-12040850D01*
X11822450Y-12096500D01*
X11901150D01*
X11956800Y-12040850D01*
Y-11975383D01*
X12010357Y-11921826D01*
X12044267Y-11944484D01*
X12041692Y-11950700D01*
Y-12362325D01*
X11887917Y-12516100D01*
X11822450D01*
X11766800Y-12571750D01*
Y-12650450D01*
X11822450Y-12706100D01*
X11901150D01*
X11956800Y-12650450D01*
Y-12584983D01*
X12124841Y-12416941D01*
X12139108Y-12382500D01*
Y-11970875D01*
X12238957Y-11871026D01*
X12272867Y-11893684D01*
X12270292Y-11899900D01*
Y-12946526D01*
X12053017Y-13163800D01*
X11987550D01*
X11931900Y-13219450D01*
Y-13298151D01*
X11987550Y-13353799D01*
X12066250D01*
X12121900Y-13298151D01*
Y-13232683D01*
X12353441Y-13001141D01*
X12367708Y-12966701D01*
Y-11920075D01*
X12516975Y-11770808D01*
X12594813D01*
X12652352Y-11828346D01*
X12653723Y-11849100D01*
X12652352Y-11869854D01*
X12591180Y-11931025D01*
Y-11938289D01*
X12587504D01*
X12553063Y-11952555D01*
X12449659Y-12055959D01*
X12435392Y-12090400D01*
Y-12484100D01*
X12449659Y-12518541D01*
X12600935Y-12669817D01*
X12635376Y-12684084D01*
X12651334D01*
X12698750Y-12731500D01*
X12777450D01*
X12833099Y-12675850D01*
Y-12597150D01*
X12777450Y-12541500D01*
X12698750D01*
X12654567Y-12585684D01*
X12532808Y-12463925D01*
Y-12110575D01*
X12606694Y-12036689D01*
X12652352Y-12082346D01*
X12653723Y-12103100D01*
X12652352Y-12123854D01*
X12591180Y-12185025D01*
Y-12275175D01*
X12654925Y-12338920D01*
X12745075D01*
X12805186Y-12278808D01*
X12953999D01*
X12979591Y-12268207D01*
X13019592Y-12285653D01*
Y-12832225D01*
X12159125Y-13692693D01*
X9329275D01*
X9230808Y-13594225D01*
Y-13574484D01*
X9287100Y-13518192D01*
Y-13431207D01*
X9225592Y-13369701D01*
X9138608D01*
X9077100Y-13431207D01*
Y-13518192D01*
X9133392Y-13574484D01*
Y-13614400D01*
X9147659Y-13648840D01*
X9274659Y-13775841D01*
X9309100Y-13790108D01*
X12179300D01*
X12213741Y-13775841D01*
X13102740Y-12886842D01*
X13117007Y-12852400D01*
Y-12115800D01*
Y-9309100D01*
X13102740Y-9274659D01*
X12353441Y-8525359D01*
X12319000Y-8511092D01*
X12076100D01*
Y-8459800D01*
D02*
G37*
G36*
X3660921Y-12015800D02*
X3578079D01*
X3519500Y-12074379D01*
Y-12157221D01*
X3578079Y-12215800D01*
X3660921D01*
X3719500Y-12157221D01*
Y-12074379D01*
X3660921Y-12015800D01*
D02*
G37*
G36*
X13571220Y-11988800D02*
X13462000D01*
X13352780D01*
Y-12021340D01*
X13412320Y-12080880D01*
X13406039Y-12120880D01*
X13352780D01*
Y-12217400D01*
X13462000D01*
X13571220D01*
Y-12120880D01*
X13517960D01*
X13511681Y-12080880D01*
X13571220Y-12021340D01*
Y-11988800D01*
D02*
G37*
G36*
X11901316Y-12185500D02*
X11874500D01*
Y-12268200D01*
X11957200D01*
Y-12241384D01*
X11901316Y-12185500D01*
D02*
G37*
G36*
X11849100D02*
X11822284D01*
X11766400Y-12241384D01*
Y-12268200D01*
X11849100D01*
Y-12185500D01*
D02*
G37*
G36*
X13571220Y-12242800D02*
X13474699D01*
Y-12339320D01*
X13571220D01*
Y-12242800D01*
D02*
G37*
G36*
X13449300D02*
X13352780D01*
Y-12339320D01*
X13449300D01*
Y-12242800D01*
D02*
G37*
G36*
X11957200Y-12293600D02*
X11874500D01*
Y-12376300D01*
X11901316D01*
X11957200Y-12320416D01*
Y-12293600D01*
D02*
G37*
G36*
X11849100D02*
X11766400D01*
Y-12320416D01*
X11822284Y-12376300D01*
X11849100D01*
Y-12293600D01*
D02*
G37*
G36*
X3660921Y-12269800D02*
X3578079D01*
X3519500Y-12328379D01*
Y-12411221D01*
X3578079Y-12469800D01*
X3660921D01*
X3719500Y-12411221D01*
Y-12328379D01*
X3660921Y-12269800D01*
D02*
G37*
G36*
Y-12523800D02*
X3578079D01*
X3519500Y-12582379D01*
Y-12665221D01*
X3578079Y-12723800D01*
X3660921D01*
X3719500Y-12665221D01*
Y-12582379D01*
X3660921Y-12523800D01*
D02*
G37*
G36*
X7658289Y-12410797D02*
X7513314D01*
X7410802Y-12513309D01*
Y-12658284D01*
X7513314Y-12760796D01*
X7658289D01*
X7760801Y-12658284D01*
Y-12513309D01*
X7658289Y-12410797D01*
D02*
G37*
G36*
X13929173Y-12703500D02*
X13906500D01*
Y-12776200D01*
X13979201D01*
Y-12753526D01*
X13929173Y-12703500D01*
D02*
G37*
G36*
X13881100D02*
X13858426D01*
X13808400Y-12753526D01*
Y-12776200D01*
X13881100D01*
Y-12703500D01*
D02*
G37*
G36*
X9691800Y-12109738D02*
X7922800D01*
X7903666Y-12117664D01*
X7895740Y-12136798D01*
Y-12785798D01*
X7903666Y-12804932D01*
X7922800Y-12812859D01*
X9691800D01*
X9710934Y-12804932D01*
X9718860Y-12785798D01*
Y-12136798D01*
X9710934Y-12117664D01*
X9691800Y-12109738D01*
D02*
G37*
G36*
X13979201Y-12801601D02*
X13906500D01*
Y-12874300D01*
X13929173D01*
X13979201Y-12824274D01*
Y-12801601D01*
D02*
G37*
G36*
X13881100D02*
X13808400D01*
Y-12824274D01*
X13858426Y-12874300D01*
X13881100D01*
Y-12801601D01*
D02*
G37*
G36*
X11901316Y-12807800D02*
X11874500D01*
Y-12890500D01*
X11957200D01*
Y-12863684D01*
X11901316Y-12807800D01*
D02*
G37*
G36*
X11849100D02*
X11822284D01*
X11766400Y-12863684D01*
Y-12890500D01*
X11849100D01*
Y-12807800D01*
D02*
G37*
G36*
X11957200Y-12915900D02*
X11874500D01*
Y-12998599D01*
X11901316D01*
X11957200Y-12942715D01*
Y-12915900D01*
D02*
G37*
G36*
X11849100D02*
X11766400D01*
Y-12942715D01*
X11822284Y-12998599D01*
X11849100D01*
Y-12915900D01*
D02*
G37*
G36*
X3661087Y-13285400D02*
X3632200D01*
Y-13373100D01*
X3719900D01*
Y-13344212D01*
X3661087Y-13285400D01*
D02*
G37*
G36*
X3606800D02*
X3577913D01*
X3519100Y-13344212D01*
Y-13373100D01*
X3606800D01*
Y-13285400D01*
D02*
G37*
G36*
X9795500Y-13369299D02*
X9702800D01*
Y-13462000D01*
X9795500D01*
Y-13369299D01*
D02*
G37*
G36*
X9677400D02*
X9584700D01*
Y-13462000D01*
X9677400D01*
Y-13369299D01*
D02*
G37*
G36*
X8128000Y-13437801D02*
X8099113D01*
X8040300Y-13496613D01*
Y-13525500D01*
X8128000D01*
Y-13437801D01*
D02*
G37*
G36*
X12066416Y-13455499D02*
X12039600D01*
Y-13538200D01*
X12122300D01*
Y-13511385D01*
X12066416Y-13455499D01*
D02*
G37*
G36*
X12014200D02*
X11987384D01*
X11931500Y-13511385D01*
Y-13538200D01*
X12014200D01*
Y-13455499D01*
D02*
G37*
G36*
X6251887Y-13450500D02*
X6223000D01*
Y-13538200D01*
X6310700D01*
Y-13509312D01*
X6251887Y-13450500D01*
D02*
G37*
G36*
X6197600D02*
X6168713D01*
X6109900Y-13509312D01*
Y-13538200D01*
X6197600D01*
Y-13450500D01*
D02*
G37*
G36*
X9795500Y-13487399D02*
X9702800D01*
Y-13580099D01*
X9795500D01*
Y-13487399D01*
D02*
G37*
G36*
X9677400D02*
X9584700D01*
Y-13580099D01*
X9677400D01*
Y-13487399D01*
D02*
G37*
G36*
X8128000Y-13550900D02*
X8040300D01*
Y-13579787D01*
X8099113Y-13638600D01*
X8128000D01*
Y-13550900D01*
D02*
G37*
G36*
X12122300Y-13563600D02*
X12039600D01*
Y-13646300D01*
X12066416D01*
X12122300Y-13590416D01*
Y-13563600D01*
D02*
G37*
G36*
X12014200D02*
X11931500D01*
Y-13590416D01*
X11987384Y-13646300D01*
X12014200D01*
Y-13563600D01*
D02*
G37*
G36*
X6505721Y-13450900D02*
X6422879D01*
X6364300Y-13509479D01*
Y-13592320D01*
X6422879Y-13650900D01*
X6505721D01*
X6564300Y-13592320D01*
Y-13509479D01*
X6505721Y-13450900D01*
D02*
G37*
G36*
X6310700Y-13563600D02*
X6223000D01*
Y-13651300D01*
X6251887D01*
X6310700Y-13592487D01*
Y-13563600D01*
D02*
G37*
G36*
X6197600D02*
X6109900D01*
Y-13592487D01*
X6168713Y-13651300D01*
X6197600D01*
Y-13563600D01*
D02*
G37*
%LPD*%
G36*
X4645131Y-8913086D02*
X4441039Y-9117179D01*
X4426772Y-9151620D01*
Y-9427389D01*
X4389817Y-9442696D01*
X4384821Y-9437700D01*
X4301979D01*
X4243400Y-9496279D01*
Y-9550645D01*
X4229400Y-9561182D01*
X4189400Y-9541225D01*
Y-9437700D01*
X4138108D01*
Y-9303875D01*
X4566283Y-8875700D01*
X4625949D01*
X4645131Y-8913086D01*
D02*
G37*
G36*
X13414352Y-11320346D02*
X13415723Y-11341100D01*
X13414352Y-11361854D01*
X13353180Y-11423025D01*
Y-11513175D01*
X13414352Y-11574346D01*
X13415723Y-11595100D01*
X13414352Y-11615854D01*
X13356813Y-11673392D01*
X13278975D01*
X13269408Y-11663825D01*
Y-11285075D01*
X13291675Y-11262808D01*
X13356813D01*
X13414352Y-11320346D01*
D02*
G37*
G36*
X12652352Y-11574346D02*
X12653723Y-11595100D01*
X12652352Y-11615854D01*
X12594813Y-11673392D01*
X12496800D01*
X12471469Y-11683885D01*
X12444218Y-11663830D01*
X12439207Y-11657248D01*
X12443908Y-11645900D01*
Y-11516808D01*
X12594813D01*
X12652352Y-11574346D01*
D02*
G37*
G36*
Y-11320346D02*
X12653723Y-11341100D01*
X12652352Y-11361854D01*
X12594813Y-11419392D01*
X12418631D01*
X12384190Y-11433659D01*
X12360759Y-11457090D01*
X12346492Y-11491531D01*
Y-11625725D01*
X12233943Y-11738274D01*
X12200033Y-11715616D01*
X12202608Y-11709400D01*
Y-11424775D01*
X12364575Y-11262808D01*
X12594813D01*
X12652352Y-11320346D01*
D02*
G37*
D10*
X7023100Y-8646399D02*
D03*
X5588000Y-11330701D02*
D03*
X6032500Y-10310099D02*
D03*
D11*
X7023100Y-9692401D02*
D03*
X5979399Y-8293100D02*
D03*
X6032500Y-11356101D02*
D03*
X10083800Y-10972800D02*
D03*
X7543800Y-9448800D02*
D03*
X10083800Y-10464800D02*
D03*
X7543800Y-9702800D02*
D03*
Y-8940800D02*
D03*
Y-9194800D02*
D03*
Y-9956800D02*
D03*
Y-10210800D02*
D03*
Y-10464800D02*
D03*
Y-10718800D02*
D03*
Y-10972800D02*
D03*
Y-11226800D02*
D03*
Y-11480800D02*
D03*
Y-11734800D02*
D03*
Y-11988800D02*
D03*
Y-12242800D02*
D03*
X10083800Y-8686800D02*
D03*
Y-8940800D02*
D03*
Y-9194800D02*
D03*
Y-9448800D02*
D03*
Y-9702800D02*
D03*
Y-9956800D02*
D03*
Y-10210800D02*
D03*
Y-10718800D02*
D03*
Y-11226800D02*
D03*
Y-11480800D02*
D03*
Y-11734800D02*
D03*
Y-11988800D02*
D03*
Y-12242800D02*
D03*
X5588000Y-10284699D02*
D03*
D12*
X7025401Y-8293100D02*
D03*
X7543800Y-8686800D02*
D03*
D13*
X13893800Y-12026900D02*
D03*
Y-12788900D02*
D03*
X14046201Y-10718800D02*
D03*
Y-10972800D02*
D03*
D14*
X12700000Y-12230100D02*
D03*
Y-11976100D02*
D03*
Y-11722100D02*
D03*
Y-11468100D02*
D03*
Y-11214100D02*
D03*
Y-10960100D02*
D03*
Y-10706100D02*
D03*
Y-10452100D02*
D03*
Y-10198100D02*
D03*
Y-9944100D02*
D03*
X13462000D02*
D03*
Y-10198100D02*
D03*
Y-10452100D02*
D03*
Y-10706100D02*
D03*
Y-10960100D02*
D03*
Y-11214100D02*
D03*
Y-11468100D02*
D03*
Y-11722100D02*
D03*
Y-11976100D02*
D03*
D15*
Y-12230100D02*
D03*
D16*
X11264900Y-13258800D02*
D03*
X12026900D02*
D03*
X5549900Y-11811000D02*
D03*
X6591300Y-8788400D02*
D03*
X11099800Y-12001500D02*
D03*
Y-12280900D02*
D03*
Y-10782300D02*
D03*
Y-11087100D02*
D03*
X11861800Y-9245600D02*
D03*
X11099800D02*
D03*
X11861800Y-9867900D02*
D03*
X11099800D02*
D03*
X11861800Y-10464800D02*
D03*
X11099800D02*
D03*
X11861800Y-11087100D02*
D03*
Y-11696700D02*
D03*
X11099800D02*
D03*
X11861800Y-12280900D02*
D03*
Y-12903200D02*
D03*
X11099800D02*
D03*
X12026900Y-13550900D02*
D03*
X11264900D02*
D03*
X11099800Y-8953500D02*
D03*
X11861800D02*
D03*
X11099800Y-9537700D02*
D03*
X11861800D02*
D03*
X11099800Y-10160000D02*
D03*
X11861800D02*
D03*
Y-10782300D02*
D03*
X11099800Y-11391900D02*
D03*
X11861800D02*
D03*
Y-12001500D02*
D03*
X11099800Y-12611100D02*
D03*
X11861800D02*
D03*
X6591300Y-9550400D02*
D03*
X6223000Y-8801100D02*
D03*
Y-9563100D02*
D03*
Y-9994900D02*
D03*
X5461000D02*
D03*
X3225800Y-8763000D02*
D03*
Y-9525000D02*
D03*
X3556000Y-9537700D02*
D03*
Y-8775700D02*
D03*
X5346700Y-8356600D02*
D03*
X4584700D02*
D03*
X4419600Y-9994900D02*
D03*
X5181600D02*
D03*
X12738100Y-12636500D02*
D03*
X13500101D02*
D03*
X5600700Y-7708900D02*
D03*
Y-8470900D02*
D03*
X4787900Y-11811000D02*
D03*
D17*
X11976100Y-7797800D02*
D03*
Y-8051800D02*
D03*
Y-8305800D02*
D03*
X5613400Y-8775700D02*
D03*
X5359400D02*
D03*
X5105400D02*
D03*
X4851400D02*
D03*
X4597400D02*
D03*
X4343400D02*
D03*
X4089400D02*
D03*
X5613400Y-9537700D02*
D03*
X5359400D02*
D03*
X5105400D02*
D03*
X4851400D02*
D03*
X4597400D02*
D03*
X4343400D02*
D03*
X2832100Y-9271000D02*
D03*
X6718300Y-13550900D02*
D03*
X6464300D02*
D03*
X6210300D02*
D03*
X3619500Y-12115800D02*
D03*
Y-12369800D02*
D03*
Y-12623800D02*
D03*
Y-12877800D02*
D03*
Y-13131799D02*
D03*
Y-13385800D02*
D03*
Y-13639799D02*
D03*
X3962400Y-10718800D02*
D03*
X8140700Y-13538200D02*
D03*
X7886700D02*
D03*
D18*
X11976100Y-8559800D02*
D03*
X4089400Y-9537700D02*
D03*
X2832100Y-9017000D02*
D03*
X3619500Y-11861800D02*
D03*
X3962400Y-10972800D02*
D03*
D19*
X14046201Y-11226800D02*
D03*
D20*
X9690100Y-13474699D02*
D03*
D21*
X9436100D02*
D03*
X9182100D02*
D03*
D22*
X7585801Y-12585797D02*
D03*
X10036800D02*
D03*
Y-7890800D02*
D03*
X7585801D02*
D03*
D23*
X5956300Y-13550900D02*
D03*
X8394700Y-13538200D02*
D03*
D24*
X9842500Y-12569289D02*
G03*
X9842500Y-12602305I194300J-16508D01*
G01*
X9421555Y-13460155D02*
X9436100Y-13474699D01*
X8394700Y-13538200D02*
X8661400Y-13271500D01*
X9321800D01*
X9421555Y-13460155D02*
Y-13371255D01*
X9321800Y-13271500D02*
X9421555Y-13371255D01*
X9182100Y-13614400D02*
X9309100Y-13741400D01*
X12179300D01*
X9182100Y-13614400D02*
Y-13474699D01*
X12179300Y-13741400D02*
X13068300Y-12852400D01*
X3619500Y-13639799D02*
X4800600D01*
X4889500Y-13550900D02*
X5956300D01*
X4800600Y-13639799D02*
X4889500Y-13550900D01*
X9931400Y-11480800D02*
X10083800D01*
X9842500Y-11569700D02*
X9931400Y-11480800D01*
X9842500Y-12569289D02*
Y-11569700D01*
Y-12903200D02*
X10198100Y-13258800D01*
X9842500Y-12903200D02*
Y-12602305D01*
X10833100Y-12611100D02*
X11099800D01*
X10288968Y-11226800D02*
X10312400Y-11250231D01*
Y-12090400D02*
Y-11250231D01*
X10083800Y-11226800D02*
X10288968D01*
X10312400Y-12090400D02*
X10833100Y-12611100D01*
X10960100Y-12001500D02*
X11099800D01*
X10655300Y-11696700D02*
X10960100Y-12001500D01*
X10287000Y-10972800D02*
X10655300Y-11341100D01*
Y-11696700D02*
Y-11341100D01*
X10083800Y-10972800D02*
X10287000D01*
X10985500Y-11391900D02*
X11099800D01*
X10083800Y-10718800D02*
X10312400D01*
X10985500Y-11391900D01*
Y-10782300D02*
X11099800D01*
X10083800Y-10464800D02*
X10668000D01*
X10985500Y-10782300D01*
X12484100Y-12090400D02*
X12587504Y-11986996D01*
X12635376Y-12635376D02*
X12736976D01*
X12484100Y-12484100D02*
X12635376Y-12635376D01*
X12484100Y-12484100D02*
Y-12090400D01*
X12736976Y-12635376D02*
X12738100Y-12636500D01*
X12689104Y-11986996D02*
X12700000Y-11976100D01*
X12587504Y-11986996D02*
X12689104D01*
X13462000Y-11468100D02*
X13804900D01*
X13893800Y-12026900D02*
Y-11557000D01*
X13804900Y-11468100D02*
X13893800Y-11557000D01*
X13271500Y-11214100D02*
X13462000D01*
X13220700Y-11684000D02*
X13258800Y-11722100D01*
X13220700Y-11264900D02*
X13271500Y-11214100D01*
X13220700Y-11684000D02*
Y-11264900D01*
X13258800Y-11722100D02*
X13462000D01*
X12395200Y-11645900D02*
Y-11491531D01*
X12090400Y-12382500D02*
Y-11950700D01*
X12395200Y-11645900D01*
X11861800Y-12611100D02*
X12090400Y-12382500D01*
X12418631Y-11468100D02*
X12700000D01*
X12395200Y-11491531D02*
X12418631Y-11468100D01*
X12496800Y-11722100D02*
X12700000D01*
X12319000Y-12966701D02*
Y-11899900D01*
X12496800Y-11722100D01*
X12026900Y-13258800D02*
X12319000Y-12966701D01*
X11861800Y-12001500D02*
X12153900Y-11709400D01*
X12344400Y-11214100D02*
X12700000D01*
X12153900Y-11709400D02*
Y-11404600D01*
X12344400Y-11214100D01*
X11861800Y-9537700D02*
X11978068D01*
X12001500Y-9561131D01*
Y-9666669D02*
Y-9561131D01*
Y-9666669D02*
X12532931Y-10198100D01*
X12700000D01*
X11861800Y-10160000D02*
X11988800D01*
X12280900Y-10452100D01*
X12700000D01*
Y-9944100D02*
Y-9448800D01*
X11861800Y-8953500D02*
X12204700D01*
X12700000Y-9448800D01*
X12953999Y-12230100D02*
X13068300Y-12115800D01*
Y-12852400D02*
Y-12115800D01*
Y-9309100D01*
X12700000Y-12230100D02*
X12953999D01*
X12319000Y-8559800D02*
X13068300Y-9309100D01*
X11976100Y-8559800D02*
X12319000D01*
X7708900Y-9448800D02*
X7810500Y-9347200D01*
X7025401Y-8293100D02*
X7696200D01*
X7810500Y-8407400D01*
Y-9347200D02*
Y-8407400D01*
X7543800Y-9448800D02*
X7708900D01*
X6819900Y-8293100D02*
X7025401D01*
X6591300Y-9004300D02*
Y-8788400D01*
Y-8521700D01*
X6819900Y-8293100D01*
X6591300Y-9004300D02*
X7023100Y-9436100D01*
Y-9692401D02*
Y-9436100D01*
X6130547Y-8953500D02*
X6203866Y-8880181D01*
X5364059Y-8881959D02*
Y-8780359D01*
X5435600Y-8953500D02*
X6130547D01*
X5364059Y-8881959D02*
X5435600Y-8953500D01*
X5346700Y-8763000D02*
X5364059Y-8780359D01*
X6203866Y-8820234D02*
X6223000Y-8801100D01*
X6203866Y-8880181D02*
Y-8820234D01*
X4584700Y-8470900D02*
Y-8356600D01*
X4364447Y-8691153D02*
X4584700Y-8470900D01*
X4343400Y-8775700D02*
X4364447Y-8754653D01*
Y-8691153D01*
X4419600Y-9994900D02*
Y-9855200D01*
X3149600Y-11125200D02*
X4419600Y-9855200D01*
X4475480Y-9799320D01*
X5105400Y-9766300D02*
Y-9537700D01*
X5181600Y-9994900D02*
Y-9842500D01*
X5105400Y-9766300D02*
X5181600Y-9842500D01*
X3403600Y-13423900D02*
X3619500Y-13639799D01*
X3403600Y-13423900D02*
Y-11747500D01*
X3530600Y-11620500D01*
X3797300D01*
X4154866Y-11978066D01*
X4991100D01*
X5105400Y-11863766D01*
Y-11237199D01*
X6032500Y-10310099D01*
X3619500Y-12877800D02*
X5892800D01*
X7543800Y-11226800D01*
X13804900Y-11468100D02*
X14046201Y-11226800D01*
X13462000Y-10452100D02*
X13779500D01*
X14046201Y-10718800D01*
X3619500Y-13131799D02*
X6400800D01*
X7543800Y-11988800D01*
X4475480Y-9151620D02*
X4851400Y-8775700D01*
X5181600Y-9994900D02*
X5461000D01*
X11099800Y-12280900D02*
Y-12001500D01*
Y-11087100D02*
Y-10782300D01*
X6718300Y-13550900D02*
Y-13068300D01*
X7543800Y-12242800D01*
X2832100Y-9017000D02*
X3314700D01*
X3556000Y-8775700D01*
X3962400Y-11341100D02*
Y-10972800D01*
Y-11341100D02*
X4432300Y-11811000D01*
X4787900D01*
X5600700Y-8763000D02*
X5613400Y-8775700D01*
X5600700Y-8763000D02*
Y-8470900D01*
X5613400Y-8775700D02*
X5801360Y-8587740D01*
X6311900D01*
X6421120Y-8696960D01*
Y-9380220D02*
Y-8696960D01*
Y-9380220D02*
X6591300Y-9550400D01*
X3225800Y-9525000D02*
X3554298Y-9539402D01*
X3556000Y-9537700D01*
X3733800Y-9715500D01*
X4165600D01*
X4343400Y-9537700D01*
X4089400D02*
Y-9283700D01*
X4597400Y-8775700D01*
X4813300Y-8559800D01*
Y-8126029D01*
X4789871Y-8102600D02*
X4813300Y-8126029D01*
X3886200Y-8102600D02*
X4789871D01*
X3225800Y-8763000D02*
X3886200Y-8102600D01*
X4089400Y-8775700D02*
X4343400D01*
X5346700Y-8763000D02*
Y-8356600D01*
X5600700Y-8102600D01*
Y-7708900D01*
X5359400Y-9537700D02*
X5613400D01*
X5638800Y-9563100D01*
X6223000D01*
X7899400Y-14033501D02*
X8394700Y-13538200D01*
X3401060Y-14033501D02*
X7899400D01*
X2565400Y-13197839D02*
X3401060Y-14033501D01*
X2565400Y-13197839D02*
Y-8458200D01*
X3210560Y-7813040D01*
X5092700D01*
X5227320Y-7947660D01*
Y-9161780D02*
Y-7947660D01*
X4851400Y-9537700D02*
X5227320Y-9161780D01*
X7543800Y-13881100D02*
X7886700Y-13538200D01*
X3492500Y-13881100D02*
X7543800D01*
X3149600Y-13538200D02*
X3492500Y-13881100D01*
X3149600Y-13538200D02*
Y-11125200D01*
X4475480Y-9799320D02*
Y-9151620D01*
X6032500Y-10310099D02*
X6710441D01*
X7266940Y-9753600D01*
Y-8963660D01*
X7543800Y-8686800D01*
X7063501D02*
X7543800D01*
X7023100Y-8646399D02*
X7063501Y-8686800D01*
X10198100Y-13258800D02*
X11264900D01*
Y-13550900D02*
Y-13258800D01*
X11099800Y-12903200D02*
Y-12611100D01*
Y-11696700D02*
Y-11391900D01*
X10083800Y-10210800D02*
X11049000D01*
X11099800Y-10160000D01*
Y-10464800D02*
Y-10160000D01*
X10083800Y-9956800D02*
X10172700Y-9867900D01*
X11099800D01*
Y-9537700D01*
X10083800Y-9702800D02*
X10833100Y-8953500D01*
X11099800D01*
Y-9245600D02*
Y-8953500D01*
X10083800Y-9194800D02*
X11226800Y-8051800D01*
X11976100D01*
X13500101Y-12636500D02*
X13893800Y-12242800D01*
Y-12026900D01*
X11861800Y-10782300D02*
X11938000Y-10706100D01*
X12700000D01*
X11861800Y-11391900D02*
X12293600Y-10960100D01*
X12700000D01*
X13462000D02*
X14033501D01*
X14046201Y-10972800D01*
X5549900Y-11811000D02*
X5867400D01*
X6032500Y-11645900D01*
Y-11356101D01*
Y-11214100D02*
X7543800Y-9702800D01*
X5961502Y-11285098D02*
X6032500Y-11214100D01*
X5588000Y-11330701D02*
X5961502Y-11285098D01*
X6032500Y-11356101D02*
Y-11214100D01*
%TF.MD5,8ab480581d5ae0b31014b0699a47877b*%
M02*
