%TF.GenerationSoftware,Altium Limited,Altium Designer,23.11.1 (41)*%
G04 Layer_Color=16711935*
%FSLAX45Y45*%
%MOMM*%
%TF.SameCoordinates,4C9A1514-A2EE-4944-9187-3C763DF9E9B3*%
%TF.FilePolarity,Positive*%
%TF.FileFunction,Other,Mechanical_1*%
%TF.Part,Single*%
G01*
G75*
%TA.AperFunction,NonConductor*%
%ADD29C,0.15240*%
%ADD32C,0.25400*%
%ADD33C,0.30000*%
%ADD49C,0.15000*%
%ADD50C,0.50000*%
D29*
X9588500Y-13525467D02*
Y-13423900D01*
X9520789D01*
X9486933D02*
Y-13525467D01*
X9453077Y-13491611D01*
X9419221Y-13525467D01*
Y-13423900D01*
X9385366Y-13525467D02*
X9317654D01*
Y-13508539D01*
X9385366Y-13440828D01*
Y-13423900D01*
X9283798Y-13508539D02*
X9266870Y-13525467D01*
X9233015D01*
X9216087Y-13508539D01*
Y-13491611D01*
X9233015Y-13474683D01*
X9216087Y-13457756D01*
Y-13440828D01*
X9233015Y-13423900D01*
X9266870D01*
X9283798Y-13440828D01*
Y-13457756D01*
X9266870Y-13474683D01*
X9283798Y-13491611D01*
Y-13508539D01*
X9266870Y-13474683D02*
X9233015D01*
X9182231Y-13508539D02*
X9165303Y-13525467D01*
X9131448D01*
X9114520Y-13508539D01*
Y-13440828D01*
X9131448Y-13423900D01*
X9165303D01*
X9182231Y-13440828D01*
Y-13508539D01*
X9012953Y-13525467D02*
X9080664D01*
Y-13474683D01*
X9046808Y-13491611D01*
X9029880D01*
X9012953Y-13474683D01*
Y-13440828D01*
X9029880Y-13423900D01*
X9063736D01*
X9080664Y-13440828D01*
D32*
X2330273Y-13347791D02*
G03*
X3200309Y-14217827I857427J-12609D01*
G01*
X13690686Y-14218146D02*
G03*
X14561044Y-13347786I12614J857745D01*
G01*
X14560733Y-7962809D02*
G03*
X13690691Y-7092767I-857433J12609D01*
G01*
X3200314Y-7092455D02*
G03*
X2329955Y-7962814I-12614J-857745D01*
G01*
X14561043Y-13347786D02*
Y-7962809D01*
X13690376Y-7092457D02*
X13690691Y-7092767D01*
X13538286Y-7092457D02*
X13690376D01*
X3200314D02*
X13538286D01*
X3200309Y-14217828D02*
X13690686D01*
X2330272Y-13347791D02*
Y-13144820D01*
X2329957Y-13144501D02*
Y-7962814D01*
X14408643Y-14389101D02*
X14561043Y-14338300D01*
X14408643Y-14287500D02*
X14561043Y-14338300D01*
X2330272D02*
X2482672Y-14287500D01*
X2330272Y-14338300D02*
X2482672Y-14389101D01*
X9178757Y-14338300D02*
X14561043D01*
X2330272D02*
X7601763D01*
X14561043Y-14363699D02*
Y-13385886D01*
X2330272Y-14363699D02*
Y-13385892D01*
X14757401Y-7092457D02*
X14808200Y-7244857D01*
X14706599D02*
X14757401Y-7092457D01*
X14706599Y-14065428D02*
X14757401Y-14217828D01*
X14808200Y-14065428D01*
X14757401Y-10005350D02*
Y-7092457D01*
Y-14217828D02*
Y-11455730D01*
X13576385Y-7092457D02*
X14782800D01*
X13728786Y-14217828D02*
X14782800D01*
D33*
X7657161Y-14501590D02*
X7723806D01*
X7690483D01*
Y-14301656D01*
X7657161Y-14334978D01*
X7957064Y-14501590D02*
X7823774D01*
X7957064Y-14368300D01*
Y-14334978D01*
X7923742Y-14301656D01*
X7857096D01*
X7823774Y-14334978D01*
X8157000Y-14501590D02*
X8023709D01*
X8157000Y-14368300D01*
Y-14334978D01*
X8123677Y-14301656D01*
X8057032D01*
X8023709Y-14334978D01*
X8256967Y-14534914D02*
X8290290Y-14501590D01*
Y-14468268D01*
X8256967D01*
Y-14501590D01*
X8290290D01*
X8256967Y-14534914D01*
X8223645Y-14568234D01*
X8423581Y-14334978D02*
X8456903Y-14301656D01*
X8523548D01*
X8556871Y-14334978D01*
Y-14368300D01*
X8523548Y-14401622D01*
X8490226D01*
X8523548D01*
X8556871Y-14434946D01*
Y-14468268D01*
X8523548Y-14501590D01*
X8456903D01*
X8423581Y-14468268D01*
X8623516Y-14501590D02*
X8690161D01*
X8656839D01*
Y-14301656D01*
X8623516Y-14334978D01*
X8790129Y-14501590D02*
Y-14368300D01*
X8823451D01*
X8856774Y-14401622D01*
Y-14501590D01*
Y-14401622D01*
X8890097Y-14368300D01*
X8923419Y-14401622D01*
Y-14501590D01*
X8990065D02*
Y-14368300D01*
X9023387D01*
X9056710Y-14401622D01*
Y-14501590D01*
Y-14401622D01*
X9090032Y-14368300D01*
X9123355Y-14401622D01*
Y-14501590D01*
D49*
X4769539Y-9182100D02*
X4869506D01*
X4889500Y-9162106D01*
Y-9122119D01*
X4869506Y-9102126D01*
X4769539D01*
Y-8982165D02*
Y-9062139D01*
X4829519D01*
X4809526Y-9022152D01*
Y-9002158D01*
X4829519Y-8982165D01*
X4869506D01*
X4889500Y-9002158D01*
Y-9042145D01*
X4869506Y-9062139D01*
D50*
X14740755Y-11380333D02*
Y-11247043D01*
X14774077D01*
X14907368Y-11380333D01*
X14940691D01*
Y-11180398D02*
Y-11113752D01*
Y-11147075D01*
X14740755D01*
X14774077Y-11180398D01*
X14974013Y-10980462D02*
X14940691Y-10947140D01*
X14907368D01*
Y-10980462D01*
X14940691D01*
Y-10947140D01*
X14974013Y-10980462D01*
X15007335Y-11013785D01*
X14940691Y-10680559D02*
Y-10813849D01*
X14807401Y-10680559D01*
X14774077D01*
X14740755Y-10713881D01*
Y-10780527D01*
X14774077Y-10813849D01*
X14740755Y-10480623D02*
Y-10613913D01*
X14840723D01*
X14807401Y-10547268D01*
Y-10513946D01*
X14840723Y-10480623D01*
X14907368D01*
X14940691Y-10513946D01*
Y-10580591D01*
X14907368Y-10613913D01*
X14940691Y-10413978D02*
X14807401D01*
Y-10380655D01*
X14840723Y-10347333D01*
X14940691D01*
X14840723D01*
X14807401Y-10314010D01*
X14840723Y-10280688D01*
X14940691D01*
Y-10214042D02*
X14807401D01*
Y-10180720D01*
X14840723Y-10147397D01*
X14940691D01*
X14840723D01*
X14807401Y-10114075D01*
X14840723Y-10080752D01*
X14940691D01*
%TF.MD5,a100219de241f668715d4daf59242d11*%
M02*
