%TF.GenerationSoftware,Altium Limited,Altium Designer,23.11.1 (41)*%
G04 Layer_Color=16711935*
%FSLAX45Y45*%
%MOMM*%
%TF.SameCoordinates,FD849FC7-13BB-4974-9BF6-0D42D88E725C*%
%TF.FilePolarity,Negative*%
%TF.FileFunction,Soldermask,Bot*%
%TF.Part,Single*%
G01*
G75*
%TA.AperFunction,ComponentPad*%
%ADD14C,1.20000*%
%ADD19C,1.35000*%
%ADD20R,1.35000X1.35000*%
%ADD21R,1.20000X1.20000*%
%ADD22R,1.20000X1.20000*%
%ADD38R,1.70320X1.70320*%
%ADD39C,1.70320*%
%ADD40R,1.87960X1.87960*%
%ADD41C,1.87960*%
%ADD42C,1.40320*%
%ADD43C,1.60320*%
%ADD44R,2.20320X2.20320*%
%ADD45C,2.20320*%
%ADD46R,2.20320X2.20320*%
%ADD47R,1.80320X1.80320*%
%ADD48C,1.80320*%
%ADD49C,3.20320*%
%ADD50R,1.70320X1.70320*%
D14*
X10769600Y-10972800D02*
D03*
X10896600Y-11099800D02*
D03*
X13398500Y-10375900D02*
D03*
X13144501Y-9867900D02*
D03*
D19*
X12268200Y-11039475D02*
D03*
X12014200D02*
D03*
X11760200D02*
D03*
X11506200D02*
D03*
Y-10245725D02*
D03*
X11760200D02*
D03*
X12014200D02*
D03*
D20*
X12268200D02*
D03*
D21*
X10896600Y-10845800D02*
D03*
D22*
X13144501Y-11137900D02*
D03*
D38*
X13982700Y-12052300D02*
D03*
X11087100Y-12357100D02*
D03*
X10528300Y-7962900D02*
D03*
X11861800Y-8496300D02*
D03*
X2997200Y-11582400D02*
D03*
X2971800Y-10210800D02*
D03*
X2984500Y-10934700D02*
D03*
D39*
X13982700Y-12306300D02*
D03*
X11341100Y-12357100D02*
D03*
X11595100D02*
D03*
X11849100D02*
D03*
X11087100Y-11595100D02*
D03*
X11341100D02*
D03*
X11595100D02*
D03*
X11849100D02*
D03*
X10274300Y-7962900D02*
D03*
X10020300D02*
D03*
X9766300D02*
D03*
X9512300D02*
D03*
X9258300D02*
D03*
X9004300D02*
D03*
X10528300Y-8724900D02*
D03*
X10274300D02*
D03*
X10020300D02*
D03*
X9766300D02*
D03*
X9512300D02*
D03*
X9258300D02*
D03*
X9004300D02*
D03*
X11861800Y-8242300D02*
D03*
X2997200Y-12344400D02*
D03*
Y-12090400D02*
D03*
Y-11836400D02*
D03*
X2971800Y-9956800D02*
D03*
Y-9702800D02*
D03*
Y-9448800D02*
D03*
Y-9194800D02*
D03*
Y-8940800D02*
D03*
Y-8686800D02*
D03*
Y-8432800D02*
D03*
X2984500Y-10680700D02*
D03*
X3492500Y-13246100D02*
D03*
X3238500D02*
D03*
D40*
X12319000Y-11772900D02*
D03*
X8775700Y-13246100D02*
D03*
D41*
X12319000Y-12026900D02*
D03*
Y-12280900D02*
D03*
Y-12534900D02*
D03*
X13081000D02*
D03*
Y-12280900D02*
D03*
Y-12026900D02*
D03*
Y-11772900D02*
D03*
X8775700Y-12992101D02*
D03*
Y-12738100D02*
D03*
Y-12484100D02*
D03*
Y-12230100D02*
D03*
Y-11976100D02*
D03*
Y-11722100D02*
D03*
Y-11468100D02*
D03*
Y-11214100D02*
D03*
Y-10960100D02*
D03*
X8013700D02*
D03*
Y-11214100D02*
D03*
Y-11468100D02*
D03*
Y-11722100D02*
D03*
Y-11976100D02*
D03*
Y-12230100D02*
D03*
Y-12484100D02*
D03*
Y-12738100D02*
D03*
Y-12992101D02*
D03*
Y-13246100D02*
D03*
D42*
X12471400Y-13157201D02*
D03*
X13233400D02*
D03*
X9588500Y-11734800D02*
D03*
X10350500D02*
D03*
X11099800Y-12788900D02*
D03*
X10337800D02*
D03*
X10172700Y-10325100D02*
D03*
Y-11087100D02*
D03*
X9550400Y-11099800D02*
D03*
Y-10337800D02*
D03*
D43*
X11849100Y-12636500D02*
D03*
Y-13398500D02*
D03*
X8394700Y-7937500D02*
D03*
Y-8699500D02*
D03*
X8026400Y-7950200D02*
D03*
Y-8712200D02*
D03*
X9448800Y-7632700D02*
D03*
X10210800D02*
D03*
X11061700Y-8724900D02*
D03*
Y-7962900D02*
D03*
X11404600D02*
D03*
Y-8724900D02*
D03*
X10033000Y-9144000D02*
D03*
X9271000D02*
D03*
X9245600Y-7632700D02*
D03*
X8483600D02*
D03*
X13436600Y-11772900D02*
D03*
Y-12534900D02*
D03*
X13804900Y-11607800D02*
D03*
Y-10845800D02*
D03*
X12763500Y-11442700D02*
D03*
Y-10680700D02*
D03*
X10795000Y-12230100D02*
D03*
X10033000D02*
D03*
X9359900Y-13322301D02*
D03*
Y-12560300D02*
D03*
X9791700Y-12547600D02*
D03*
Y-13309599D02*
D03*
Y-12230100D02*
D03*
X9029700D02*
D03*
X9004300Y-9728200D02*
D03*
Y-8966200D02*
D03*
X9055100Y-10922000D02*
D03*
Y-10160000D02*
D03*
X3924300Y-10172700D02*
D03*
Y-10934700D02*
D03*
D44*
X7607300Y-7820899D02*
D03*
X3492500Y-8836899D02*
D03*
X3937000Y-9857501D02*
D03*
D45*
X7607300Y-8866901D02*
D03*
X7579599Y-9194800D02*
D03*
X11292601Y-13411200D02*
D03*
X4495800Y-8636000D02*
D03*
Y-8890000D02*
D03*
Y-9144000D02*
D03*
Y-9398000D02*
D03*
Y-9652000D02*
D03*
Y-9906000D02*
D03*
Y-10160000D02*
D03*
Y-10414000D02*
D03*
Y-10668000D02*
D03*
Y-10922000D02*
D03*
Y-11176000D02*
D03*
Y-11430000D02*
D03*
Y-11684000D02*
D03*
Y-11938000D02*
D03*
X7035800Y-8382000D02*
D03*
Y-8636000D02*
D03*
Y-8890000D02*
D03*
Y-9144000D02*
D03*
Y-9398000D02*
D03*
Y-9652000D02*
D03*
Y-9906000D02*
D03*
Y-10160000D02*
D03*
Y-10414000D02*
D03*
Y-10668000D02*
D03*
Y-10922000D02*
D03*
Y-11176000D02*
D03*
Y-11430000D02*
D03*
Y-11684000D02*
D03*
Y-11938000D02*
D03*
X3492500Y-9882901D02*
D03*
X3937000Y-8811499D02*
D03*
D46*
X8625601Y-9194800D02*
D03*
X10246599Y-13411200D02*
D03*
X4495800Y-8382000D02*
D03*
D47*
X5257800Y-13119099D02*
D03*
D48*
X5003800D02*
D03*
X4749800D02*
D03*
D49*
X4537801Y-12280997D02*
D03*
X6988800D02*
D03*
Y-7586000D02*
D03*
X4537801D02*
D03*
D50*
X3746500Y-13246100D02*
D03*
%TF.MD5,ff0c8fc031fdf1d385cd347a2b20f808*%
M02*
