%FSTAX23Y23*%
%MOIN*%
%SFA1B1*%

%IPPOS*%
%ADD29C,0.006000*%
%ADD32C,0.010000*%
%ADD33C,0.011811*%
%ADD49C,0.005905*%
%ADD50C,0.019685*%
%LNmicro-1*%
%LPD*%
G54D29*
X03775Y-05324D02*
Y-05285D01*
X03748*
X03735D02*
Y-05324D01*
X03721Y-05311*
X03708Y-05324*
Y-05285*
X03695Y-05324D02*
X03668D01*
Y-05318*
X03695Y-05291*
Y-05285*
X03655Y-05318D02*
X03648Y-05324D01*
X03635*
X03628Y-05318*
Y-05311*
X03635Y-05304*
X03628Y-05298*
Y-05291*
X03635Y-05285*
X03648*
X03655Y-05291*
Y-05298*
X03648Y-05304*
X03655Y-05311*
Y-05318*
X03648Y-05304D02*
X03635D01*
X03615Y-05318D02*
X03608Y-05324D01*
X03595*
X03588Y-05318*
Y-05291*
X03595Y-05285*
X03608*
X03615Y-05291*
Y-05318*
X03548Y-05324D02*
X03575D01*
Y-05304*
X03561Y-05311*
X03555*
X03548Y-05304*
Y-05291*
X03555Y-05285*
X03568*
X03575Y-05291*
G54D32*
X00917Y-05255D02*
D01*
X00917Y-05278*
X0092Y-05302*
X00923Y-05325*
X00929Y-05348*
X00936Y-0537*
X00944Y-05392*
X00954Y-05414*
X00966Y-05434*
X00978Y-05454*
X00993Y-05473*
X01008Y-0549*
X01025Y-05507*
X01043Y-05522*
X01062Y-05537*
X01081Y-05549*
X01102Y-05561*
X01123Y-05571*
X01145Y-05579*
X01168Y-05586*
X01191Y-05591*
X01214Y-05595*
X01238Y-05597*
X01259Y-05597*
X0539Y-05597D02*
D01*
X05413Y-05597*
X05437Y-05595*
X0546Y-05591*
X05483Y-05585*
X05505Y-05579*
X05527Y-0557*
X05549Y-0556*
X05569Y-05549*
X05589Y-05536*
X05608Y-05521*
X05626Y-05506*
X05642Y-05489*
X05658Y-05471*
X05672Y-05452*
X05684Y-05433*
X05696Y-05412*
X05706Y-05391*
X05714Y-05369*
X05721Y-05346*
X05726Y-05323*
X0573Y-053*
X05732Y-05276*
X05732Y-05255*
X05732Y-03134D02*
D01*
X05732Y-03111*
X05729Y-03087*
X05726Y-03064*
X0572Y-03041*
X05713Y-03019*
X05705Y-02997*
X05695Y-02975*
X05683Y-02955*
X05671Y-02935*
X05656Y-02916*
X05641Y-02899*
X05624Y-02882*
X05606Y-02867*
X05587Y-02852*
X05568Y-0284*
X05547Y-02828*
X05526Y-02818*
X05504Y-0281*
X05481Y-02803*
X05458Y-02798*
X05435Y-02794*
X05411Y-02792*
X0539Y-02792*
X01259Y-02792D02*
D01*
X01236Y-02792*
X01212Y-02794*
X01189Y-02798*
X01166Y-02804*
X01144Y-0281*
X01122Y-02819*
X011Y-02829*
X0108Y-0284*
X0106Y-02853*
X01041Y-02868*
X01023Y-02883*
X01007Y-029*
X00991Y-02918*
X00977Y-02937*
X00965Y-02956*
X00953Y-02977*
X00943Y-02998*
X00935Y-0302*
X00928Y-03043*
X00923Y-03066*
X00919Y-03089*
X00917Y-03113*
X00917Y-03134*
X05732Y-05255D02*
Y-03134D01*
X05389Y-02792D02*
X0539Y-02792D01*
X0533Y-02792D02*
X05389D01*
X01259D02*
X0533D01*
X01259Y-05597D02*
X0539D01*
X00917Y-05255D02*
Y-05175D01*
X00917Y-05175D02*
Y-03134D01*
X05672Y-05665D02*
X05732Y-05645D01*
X05672Y-05625D02*
X05732Y-05645D01*
X00917D02*
X00977Y-05625D01*
X00917Y-05645D02*
X00977Y-05665D01*
X03613Y-05645D02*
X05732D01*
X00917D02*
X02992D01*
X05732Y-05654D02*
Y-0527D01*
X00917Y-05654D02*
Y-0527D01*
X0581Y-02792D02*
X0583Y-02852D01*
X05789D02*
X0581Y-02792D01*
X05789Y-05537D02*
X0581Y-05597D01*
X0583Y-05537*
X0581Y-03939D02*
Y-02792D01*
Y-05597D02*
Y-0451D01*
X05345Y-02792D02*
X0582D01*
X05405Y-05597D02*
X0582D01*
G54D33*
X03014Y-05709D02*
X0304D01*
X03027*
Y-0563*
X03014Y-05643*
X03132Y-05709D02*
X0308D01*
X03132Y-05656*
Y-05643*
X03119Y-0563*
X03093*
X0308Y-05643*
X03211Y-05709D02*
X03158D01*
X03211Y-05656*
Y-05643*
X03198Y-0563*
X03172*
X03158Y-05643*
X0325Y-05722D02*
X03263Y-05709D01*
Y-05696*
X0325*
Y-05709*
X03263*
X0325Y-05722*
X03237Y-05735*
X03316Y-05643D02*
X03329Y-0563D01*
X03355*
X03368Y-05643*
Y-05656*
X03355Y-05669*
X03342*
X03355*
X03368Y-05683*
Y-05696*
X03355Y-05709*
X03329*
X03316Y-05696*
X03395Y-05709D02*
X03421D01*
X03408*
Y-0563*
X03395Y-05643*
X0346Y-05709D02*
Y-05656D01*
X03473*
X03486Y-05669*
Y-05709*
Y-05669*
X035Y-05656*
X03513Y-05669*
Y-05709*
X03539D02*
Y-05656D01*
X03552*
X03565Y-05669*
Y-05709*
Y-05669*
X03578Y-05656*
X03591Y-05669*
Y-05709*
G54D49*
X01877Y-03615D02*
X01917D01*
X01925Y-03607*
Y-03591*
X01917Y-03583*
X01877*
Y-03536D02*
Y-03567D01*
X01901*
X01893Y-03552*
Y-03544*
X01901Y-03536*
X01917*
X01925Y-03544*
Y-03559*
X01917Y-03567*
G54D50*
X05803Y-0448D02*
Y-04427D01*
X05816*
X05869Y-0448*
X05882*
Y-04401D02*
Y-04375D01*
Y-04388*
X05803*
X05816Y-04401*
X05895Y-04323D02*
X05882Y-04309D01*
X05869*
Y-04323*
X05882*
Y-04309*
X05895Y-04323*
X05908Y-04336*
X05882Y-04204D02*
Y-04257D01*
X05829Y-04204*
X05816*
X05803Y-04218*
Y-04244*
X05816Y-04257*
X05803Y-04126D02*
Y-04178D01*
X05842*
X05829Y-04152*
Y-04139*
X05842Y-04126*
X05869*
X05882Y-04139*
Y-04165*
X05869Y-04178*
X05882Y-04099D02*
X05829D01*
Y-04086*
X05842Y-04073*
X05882*
X05842*
X05829Y-0406*
X05842Y-04047*
X05882*
Y-04021D02*
X05829D01*
Y-04008*
X05842Y-03995*
X05882*
X05842*
X05829Y-03981*
X05842Y-03968*
X05882*
M02*