%TF.GenerationSoftware,Altium Limited,Altium Designer,23.11.1 (41)*%
G04 Layer_Color=16711935*
%FSLAX45Y45*%
%MOMM*%
%TF.SameCoordinates,FD849FC7-13BB-4974-9BF6-0D42D88E725C*%
%TF.FilePolarity,Positive*%
%TF.FileFunction,Other,Mechanical_1*%
%TF.Part,Single*%
G01*
G75*
%TA.AperFunction,NonConductor*%
%ADD28C,0.15240*%
%ADD35C,0.25400*%
%ADD51C,0.30000*%
%ADD52C,0.50000*%
%ADD53C,0.17780*%
%ADD54C,0.15000*%
D28*
X5156200Y-13169867D02*
Y-13068300D01*
X5088489D01*
X5054633D02*
Y-13169867D01*
X5020777Y-13136011D01*
X4986921Y-13169867D01*
Y-13068300D01*
X4953066D02*
X4919210D01*
X4936138D01*
Y-13169867D01*
X4953066Y-13152939D01*
D35*
X2330273Y-13347791D02*
G03*
X3200309Y-14217827I857427J-12609D01*
G01*
X13690686Y-14218146D02*
G03*
X14561044Y-13347786I12614J857745D01*
G01*
X14560733Y-7962809D02*
G03*
X13690691Y-7092767I-857433J12609D01*
G01*
X3200314Y-7092455D02*
G03*
X2329955Y-7962814I-12614J-857745D01*
G01*
X2330273Y-14363699D02*
Y-13385892D01*
X14561044Y-14363699D02*
Y-13385886D01*
X2330273Y-14338300D02*
X7618424D01*
X9162095D02*
X14561044D01*
X2330273D02*
X2482673Y-14389101D01*
X2330273Y-14338300D02*
X2482673Y-14287500D01*
X14408646D02*
X14561044Y-14338300D01*
X14408646Y-14389101D02*
X14561044Y-14338300D01*
X13728786Y-14217827D02*
X14782800D01*
X13576385Y-7092455D02*
X14782800D01*
X14757401Y-14217827D02*
Y-11439070D01*
Y-10022012D02*
Y-7092455D01*
Y-14217827D02*
X14808200Y-14065427D01*
X14706599D02*
X14757401Y-14217827D01*
X14706599Y-7244855D02*
X14757401Y-7092455D01*
X14808200Y-7244855D01*
X14561044Y-7962809D02*
X14561044Y-13347786D01*
X13690379Y-7092455D02*
X13690691Y-7092767D01*
X13538286Y-7092455D02*
X13690379D01*
X3200314D02*
X13538286D01*
X3200309Y-14217827D02*
X13690686D01*
X2330273Y-13347791D02*
Y-13144818D01*
X2329955Y-13144501D02*
Y-7962814D01*
D51*
X7673824Y-14468268D02*
X7740469D01*
X7707146D01*
Y-14268332D01*
X7673824Y-14301656D01*
X7973727Y-14468268D02*
X7840436D01*
X7973727Y-14334978D01*
Y-14301656D01*
X7940404Y-14268332D01*
X7873759D01*
X7840436Y-14301656D01*
X8173662Y-14468268D02*
X8040372D01*
X8173662Y-14334978D01*
Y-14301656D01*
X8140340Y-14268332D01*
X8073695D01*
X8040372Y-14301656D01*
X8240308Y-14468268D02*
Y-14434946D01*
X8273630D01*
Y-14468268D01*
X8240308D01*
X8406920Y-14301656D02*
X8440243Y-14268332D01*
X8506888D01*
X8540211Y-14301656D01*
Y-14334978D01*
X8506888Y-14368300D01*
X8473565D01*
X8506888D01*
X8540211Y-14401624D01*
Y-14434946D01*
X8506888Y-14468268D01*
X8440243D01*
X8406920Y-14434946D01*
X8606856Y-14468268D02*
X8673501D01*
X8640179D01*
Y-14268332D01*
X8606856Y-14301656D01*
X8773469Y-14468268D02*
Y-14334978D01*
X8806791D01*
X8840114Y-14368300D01*
Y-14468268D01*
Y-14368300D01*
X8873437Y-14334978D01*
X8906759Y-14368300D01*
Y-14468268D01*
X8973404D02*
Y-14334978D01*
X9006727D01*
X9040049Y-14368300D01*
Y-14468268D01*
Y-14368300D01*
X9073372Y-14334978D01*
X9106695Y-14368300D01*
Y-14468268D01*
D52*
X14707433Y-11363670D02*
Y-11230380D01*
X14740755D01*
X14874045Y-11363670D01*
X14907368D01*
Y-11163734D02*
Y-11097089D01*
Y-11130412D01*
X14707433D01*
X14740755Y-11163734D01*
X14907368Y-10997122D02*
X14874045D01*
Y-10963799D01*
X14907368D01*
Y-10997122D01*
Y-10697218D02*
Y-10830509D01*
X14774077Y-10697218D01*
X14740755D01*
X14707433Y-10730541D01*
Y-10797186D01*
X14740755Y-10830509D01*
X14707433Y-10497283D02*
Y-10630573D01*
X14807401D01*
X14774077Y-10563928D01*
Y-10530605D01*
X14807401Y-10497283D01*
X14874045D01*
X14907368Y-10530605D01*
Y-10597251D01*
X14874045Y-10630573D01*
X14907368Y-10430638D02*
X14774077D01*
Y-10397315D01*
X14807401Y-10363992D01*
X14907368D01*
X14807401D01*
X14774077Y-10330670D01*
X14807401Y-10297347D01*
X14907368D01*
Y-10230702D02*
X14774077D01*
Y-10197379D01*
X14807401Y-10164057D01*
X14907368D01*
X14807401D01*
X14774077Y-10130734D01*
X14807401Y-10097412D01*
X14907368D01*
D53*
X11417333Y-12128500D02*
X11501972D01*
X11518900Y-12111572D01*
Y-12077717D01*
X11501972Y-12060789D01*
X11417333D01*
Y-11959221D02*
X11434261Y-11993077D01*
X11468117Y-12026933D01*
X11501972D01*
X11518900Y-12010005D01*
Y-11976149D01*
X11501972Y-11959221D01*
X11485044D01*
X11468117Y-11976149D01*
Y-12026933D01*
D54*
X9848161Y-8318500D02*
X9748194D01*
X9728200Y-8338494D01*
Y-8378481D01*
X9748194Y-8398474D01*
X9848161D01*
Y-8518435D02*
Y-8438461D01*
X9788181D01*
X9808174Y-8478448D01*
Y-8498442D01*
X9788181Y-8518435D01*
X9748194D01*
X9728200Y-8498442D01*
Y-8458455D01*
X9748194Y-8438461D01*
%TF.MD5,8b852f4b138dffcaf074760c3afcd4bd*%
M02*
