%TF.GenerationSoftware,Altium Limited,Altium Designer,23.11.1 (41)*%
G04 Layer_Physical_Order=2*
G04 Layer_Color=16711680*
%FSLAX45Y45*%
%MOMM*%
%TF.SameCoordinates,FD849FC7-13BB-4974-9BF6-0D42D88E725C*%
%TF.FilePolarity,Positive*%
%TF.FileFunction,Copper,L2,Bot,Signal*%
%TF.Part,Single*%
G01*
G75*
%TA.AperFunction,ComponentPad*%
%ADD10R,1.50000X1.50000*%
%ADD11C,1.50000*%
%ADD12R,1.67640X1.67640*%
%ADD13C,1.67640*%
%ADD14C,1.20000*%
%ADD15C,1.40000*%
%ADD16R,2.00000X2.00000*%
%ADD17C,2.00000*%
%ADD18R,2.00000X2.00000*%
%ADD19C,1.35000*%
%ADD20R,1.35000X1.35000*%
%ADD21R,1.20000X1.20000*%
%ADD22R,1.20000X1.20000*%
%ADD23R,1.60000X1.60000*%
%ADD24C,1.60000*%
%ADD25C,3.00000*%
%ADD26R,1.50000X1.50000*%
%TA.AperFunction,Conductor*%
%ADD27C,0.40000*%
D10*
X13982700Y-12052300D02*
D03*
X11087100Y-12357100D02*
D03*
X10528300Y-7962900D02*
D03*
X11861800Y-8496300D02*
D03*
X2997200Y-11582400D02*
D03*
X2971800Y-10210800D02*
D03*
X2984500Y-10934700D02*
D03*
D11*
X13982700Y-12306300D02*
D03*
X11341100Y-12357100D02*
D03*
X11595100D02*
D03*
X11849100D02*
D03*
X11087100Y-11595100D02*
D03*
X11341100D02*
D03*
X11595100D02*
D03*
X11849100D02*
D03*
X10274300Y-7962900D02*
D03*
X10020300D02*
D03*
X9766300D02*
D03*
X9512300D02*
D03*
X9258300D02*
D03*
X9004300D02*
D03*
X10528300Y-8724900D02*
D03*
X10274300D02*
D03*
X10020300D02*
D03*
X9766300D02*
D03*
X9512300D02*
D03*
X9258300D02*
D03*
X9004300D02*
D03*
X11861800Y-8242300D02*
D03*
X2997200Y-12344400D02*
D03*
Y-12090400D02*
D03*
Y-11836400D02*
D03*
X2971800Y-9956800D02*
D03*
Y-9702800D02*
D03*
Y-9448800D02*
D03*
Y-9194800D02*
D03*
Y-8940800D02*
D03*
Y-8686800D02*
D03*
Y-8432800D02*
D03*
X2984500Y-10680700D02*
D03*
X3492500Y-13246100D02*
D03*
X3238500D02*
D03*
D12*
X12319000Y-11772900D02*
D03*
X8775700Y-13246100D02*
D03*
D13*
X12319000Y-12026900D02*
D03*
Y-12280900D02*
D03*
Y-12534900D02*
D03*
X13081000D02*
D03*
Y-12280900D02*
D03*
Y-12026900D02*
D03*
Y-11772900D02*
D03*
X8775700Y-12992101D02*
D03*
Y-12738100D02*
D03*
Y-12484100D02*
D03*
Y-12230100D02*
D03*
Y-11976100D02*
D03*
Y-11722100D02*
D03*
Y-11468100D02*
D03*
Y-11214100D02*
D03*
Y-10960100D02*
D03*
X8013700D02*
D03*
Y-11214100D02*
D03*
Y-11468100D02*
D03*
Y-11722100D02*
D03*
Y-11976100D02*
D03*
Y-12230100D02*
D03*
Y-12484100D02*
D03*
Y-12738100D02*
D03*
Y-12992101D02*
D03*
Y-13246100D02*
D03*
D14*
X12471400Y-13157201D02*
D03*
X13233400D02*
D03*
X9588500Y-11734800D02*
D03*
X10350500D02*
D03*
X11099800Y-12788900D02*
D03*
X10337800D02*
D03*
X10172700Y-10325100D02*
D03*
Y-11087100D02*
D03*
X10769600Y-10972800D02*
D03*
X10896600Y-11099800D02*
D03*
X13398500Y-10375900D02*
D03*
X13144501Y-9867900D02*
D03*
X9550400Y-11099800D02*
D03*
Y-10337800D02*
D03*
D15*
X11849100Y-12636500D02*
D03*
Y-13398500D02*
D03*
X8394700Y-7937500D02*
D03*
Y-8699500D02*
D03*
X8026400Y-7950200D02*
D03*
Y-8712200D02*
D03*
X9448800Y-7632700D02*
D03*
X10210800D02*
D03*
X11061700Y-8724900D02*
D03*
Y-7962900D02*
D03*
X11404600D02*
D03*
Y-8724900D02*
D03*
X10033000Y-9144000D02*
D03*
X9271000D02*
D03*
X9245600Y-7632700D02*
D03*
X8483600D02*
D03*
X13436600Y-11772900D02*
D03*
Y-12534900D02*
D03*
X13804900Y-11607800D02*
D03*
Y-10845800D02*
D03*
X12763500Y-11442700D02*
D03*
Y-10680700D02*
D03*
X10795000Y-12230100D02*
D03*
X10033000D02*
D03*
X9359900Y-13322301D02*
D03*
Y-12560300D02*
D03*
X9791700Y-12547600D02*
D03*
Y-13309599D02*
D03*
Y-12230100D02*
D03*
X9029700D02*
D03*
X9004300Y-9728200D02*
D03*
Y-8966200D02*
D03*
X9055100Y-10922000D02*
D03*
Y-10160000D02*
D03*
X3924300Y-10172700D02*
D03*
Y-10934700D02*
D03*
D16*
X7607300Y-7820899D02*
D03*
X3492500Y-8836899D02*
D03*
X3937000Y-9857501D02*
D03*
D17*
X7607300Y-8866901D02*
D03*
X7579599Y-9194800D02*
D03*
X11292601Y-13411200D02*
D03*
X4495800Y-8636000D02*
D03*
Y-8890000D02*
D03*
Y-9144000D02*
D03*
Y-9398000D02*
D03*
Y-9652000D02*
D03*
Y-9906000D02*
D03*
Y-10160000D02*
D03*
Y-10414000D02*
D03*
Y-10668000D02*
D03*
Y-10922000D02*
D03*
Y-11176000D02*
D03*
Y-11430000D02*
D03*
Y-11684000D02*
D03*
Y-11938000D02*
D03*
X7035800Y-8382000D02*
D03*
Y-8636000D02*
D03*
Y-8890000D02*
D03*
Y-9144000D02*
D03*
Y-9398000D02*
D03*
Y-9652000D02*
D03*
Y-9906000D02*
D03*
Y-10160000D02*
D03*
Y-10414000D02*
D03*
Y-10668000D02*
D03*
Y-10922000D02*
D03*
Y-11176000D02*
D03*
Y-11430000D02*
D03*
Y-11684000D02*
D03*
Y-11938000D02*
D03*
X3492500Y-9882901D02*
D03*
X3937000Y-8811499D02*
D03*
D18*
X8625601Y-9194800D02*
D03*
X10246599Y-13411200D02*
D03*
X4495800Y-8382000D02*
D03*
D19*
X12268200Y-11039475D02*
D03*
X12014200D02*
D03*
X11760200D02*
D03*
X11506200D02*
D03*
Y-10245725D02*
D03*
X11760200D02*
D03*
X12014200D02*
D03*
D20*
X12268200D02*
D03*
D21*
X10896600Y-10845800D02*
D03*
D22*
X13144501Y-11137900D02*
D03*
D23*
X5257800Y-13119099D02*
D03*
D24*
X5003800D02*
D03*
X4749800D02*
D03*
D25*
X4537801Y-12280997D02*
D03*
X6988800D02*
D03*
Y-7586000D02*
D03*
X4537801D02*
D03*
D26*
X3746500Y-13246100D02*
D03*
D27*
X7035800Y-8890000D02*
X7058899Y-8866901D01*
X7607300D01*
X7762001Y-8712200D01*
X7721600Y-10909300D02*
Y-10083800D01*
Y-10909300D02*
X7772400Y-10960100D01*
X8013700D01*
X7645400Y-11190668D02*
Y-10261600D01*
Y-11190668D02*
X7668832Y-11214100D01*
X7035800Y-9398000D02*
X7721600Y-10083800D01*
X7035800Y-9652000D02*
X7645400Y-10261600D01*
X7505700Y-11698668D02*
Y-10629900D01*
Y-11698668D02*
X7529131Y-11722100D01*
X8013700D01*
X7886700Y-12484100D02*
X8013700D01*
X7289800Y-11887200D02*
X7886700Y-12484100D01*
X7289800Y-11887200D02*
Y-11176000D01*
X7035800Y-10160000D02*
X7505700Y-10629900D01*
X7035800Y-9906000D02*
X7573660Y-10443860D01*
Y-11417300D02*
Y-10443860D01*
Y-11417300D02*
X7624460Y-11468100D01*
X7668832Y-11214100D02*
X8013700D01*
X7624460Y-11468100D02*
X8013700D01*
X7035800Y-10414000D02*
X7429500Y-10807700D01*
Y-11785600D02*
Y-10807700D01*
Y-11785600D02*
X7620000Y-11976100D01*
X7035800Y-10668000D02*
X7355200Y-10987400D01*
Y-11825600D02*
Y-10987400D01*
Y-11825600D02*
X7759700Y-12230100D01*
X7620000Y-11976100D02*
X8013700D01*
X7759700Y-12230100D02*
X8013700D01*
X7035800Y-10922000D02*
X7289800Y-11176000D01*
X8394700Y-7937500D02*
X8413834Y-7956634D01*
X8461866D02*
X8468132Y-7962900D01*
X9004300D01*
X8413834Y-7956634D02*
X8461866D01*
X2732400Y-12595288D02*
X2755831Y-12618720D01*
X2732400Y-12595288D02*
Y-10370584D01*
X2589800Y-10320473D02*
X2667000Y-10397673D01*
X2589800Y-10320473D02*
Y-8471900D01*
X2984500Y-10680700D02*
Y-10437705D01*
X2963040Y-8686800D02*
X2971800D01*
X2921930Y-8820399D02*
X3185190D01*
X2831400Y-11416600D02*
X2997200Y-11582400D01*
X2720600Y-10266295D02*
X2831400Y-10377095D01*
X2921930Y-9315201D02*
X3086100D01*
X2655200Y-10293384D02*
X2732400Y-10370584D01*
X2720600Y-8684000D02*
X3583701Y-7820899D01*
X2655200Y-10293384D02*
Y-8522421D01*
X2589800Y-8471900D02*
X3782060Y-7279640D01*
X2786000Y-10239205D02*
X2984500Y-10437705D01*
X2851400Y-9244671D02*
X2921930Y-9315201D01*
X2655200Y-8522421D02*
X3788761Y-7388860D01*
X2851400Y-9244671D02*
Y-8890929D01*
X2786000Y-10239205D02*
Y-8863840D01*
X2755831Y-12618720D02*
X2959100D01*
X2720600Y-10266295D02*
Y-8684000D01*
X2667000Y-12674600D02*
X3238500Y-13246100D01*
X3788761Y-7388860D02*
X8600440D01*
X2851400Y-8890929D02*
X2921930Y-8820399D01*
X2831400Y-11416600D02*
Y-10377095D01*
X2786000Y-8863840D02*
X2963040Y-8686800D01*
X3782060Y-7279640D02*
X9667240D01*
X2667000Y-12674600D02*
Y-10397673D01*
X3372480Y-13507080D02*
X9404849D01*
X9610589Y-13712820D02*
X12064838D01*
X9404849Y-13507080D02*
X9610589Y-13712820D01*
X3238500Y-13373100D02*
X3372480Y-13507080D01*
X8580120Y-13309280D02*
Y-10960100D01*
X3238500Y-13373100D02*
Y-13246100D01*
X9240520Y-13441679D02*
X9359900Y-13322301D01*
X8580120Y-13309280D02*
X8646160Y-13375320D01*
X8013700Y-13246100D02*
X8209280Y-13441679D01*
X8937005Y-13375320D02*
X9523425Y-12788900D01*
X8209280Y-13441679D02*
X9240520D01*
X8646160Y-13375320D02*
X8937005D01*
X12576800Y-13153400D02*
X12580620Y-13149580D01*
X12064838Y-13712820D02*
X12576800Y-13200858D01*
X12580620Y-13149580D02*
Y-12796520D01*
X12576800Y-13200858D02*
Y-13153400D01*
X11293669Y-13410132D02*
X11835332D01*
X11848032Y-13397432D01*
X10654484Y-12345502D02*
Y-12167416D01*
Y-12345502D02*
X10859938D01*
X10452387Y-12547600D02*
X10654484Y-12345502D01*
Y-12167416D02*
X10833100Y-11988800D01*
X9791700Y-12547600D02*
X10452387D01*
X10337800Y-12788900D02*
X10715798Y-12410902D01*
X11032099D01*
Y-12357100D01*
X11087100D01*
X9523425Y-12788900D02*
X10337800D01*
X9359900Y-12560300D02*
Y-11597640D01*
X10213340D01*
X9359900D02*
X9828107Y-11129433D01*
X10069609Y-10980420D02*
X10279380D01*
X10043160Y-10914380D02*
X10342880D01*
X10066020Y-11236960D02*
Y-10984009D01*
X9828107Y-11129433D02*
Y-11129433D01*
X10043160Y-10914380D01*
X10066020Y-10984009D02*
X10069609Y-10980420D01*
X10159029Y-10336829D02*
X10171729Y-10324129D01*
X9551371Y-10336829D02*
X10159029D01*
X9512300Y-10278052D02*
Y-9491980D01*
X9550400Y-10337800D02*
Y-10316152D01*
X9512300Y-10278052D02*
X9550400Y-10316152D01*
X11505100Y-7517300D02*
X14168500Y-10180700D01*
X10680070Y-8114670D02*
X11917492D01*
X12100560Y-8823960D02*
Y-8205249D01*
X10284232Y-7658100D02*
X11553411D01*
X12100560Y-8205249D01*
X11917492Y-8114670D02*
X12034271Y-8231450D01*
X14168500Y-12234800D02*
Y-10180700D01*
X12034271Y-8547100D02*
Y-8231450D01*
X10163000Y-7517300D02*
X11505100D01*
X10093960Y-7889240D02*
Y-7586340D01*
X10163000Y-7517300D01*
X10229934Y-7651834D02*
X10277966D01*
X10284232Y-7658100D01*
X10210800Y-7632700D02*
X10229934Y-7651834D01*
X13218092Y-13141893D02*
X13233400Y-13157201D01*
X12335452Y-12281903D02*
X13195442Y-13141893D01*
X12319000Y-12281903D02*
X12335452D01*
X13195442Y-13141893D02*
X13218092D01*
X13233400Y-13157201D02*
X13982700Y-12407900D01*
X12136120Y-12098020D02*
X12319000Y-12280900D01*
X13550900Y-12641008D02*
Y-12560300D01*
X13527467Y-12664440D02*
X13550900Y-12641008D01*
Y-12560300D02*
X13925301Y-12185900D01*
X12951460Y-12664440D02*
X13527467D01*
X13925301Y-12185900D02*
X14063306D01*
X14103101Y-12146105D01*
X13982700Y-12306300D02*
X14097000D01*
X14168500Y-12234800D01*
X14103101Y-12146105D02*
Y-10700282D01*
X13778719Y-10375900D02*
X14103101Y-10700282D01*
X13920300Y-11182520D02*
Y-10797291D01*
X13985699Y-11259360D02*
Y-10675371D01*
X13688060Y-11557000D02*
X13985699Y-11259360D01*
X13851968Y-10728960D02*
X13920300Y-10797291D01*
X13604240Y-11498580D02*
X13920300Y-11182520D01*
X13917369Y-10607040D02*
X13985699Y-10675371D01*
X13159740Y-10728960D02*
X13851968D01*
X13317220Y-10607040D02*
X13917369D01*
X13398500Y-10375900D02*
X13778719D01*
X12100560Y-8823960D02*
X13144501Y-9867900D01*
X12100560Y-9245600D02*
Y-8823960D01*
X13144501Y-10121900D02*
Y-9867900D01*
X4673600Y-8234680D02*
X6634480D01*
X3423920D02*
X4673600D01*
X5054600Y-12915900D02*
X5257800Y-13119099D01*
X4749800Y-12611100D02*
X5054600Y-12915900D01*
X2936240Y-11661140D02*
X2997200D01*
X11493500Y-12509500D02*
X11965940Y-12981940D01*
X9588500Y-11785600D02*
Y-11734800D01*
Y-12523302D02*
Y-11785600D01*
X9146540Y-11013440D02*
X9232900Y-11099800D01*
X9055100Y-10922000D02*
X9146540Y-11013440D01*
X7035800Y-8636000D02*
X7536180Y-8135620D01*
X7571740D01*
X8074660Y-7632700D01*
X8483600D01*
X13982700Y-12407900D02*
Y-12306300D01*
X8277860Y-7838440D02*
X8483600Y-7632700D01*
X8277860Y-7990840D02*
Y-7838440D01*
Y-7990840D02*
X8440420Y-8153400D01*
X8940800D01*
X9512300Y-8724900D01*
X8580120Y-10960100D02*
X9202420Y-10337800D01*
X9550400D01*
X2971800Y-8686800D02*
X3423920Y-8234680D01*
X6634480D02*
X7035800Y-8636000D01*
X4749800Y-12611100D02*
Y-8310880D01*
X4673600Y-8234680D02*
X4749800Y-8310880D01*
X11290300Y-8496300D02*
X11861800D01*
X11061700Y-8724900D02*
X11290300Y-8496300D01*
X10274300Y-8902700D02*
Y-8724900D01*
X10033000Y-9144000D02*
X10274300Y-8902700D01*
X9126220Y-8592820D02*
X9258300Y-8724900D01*
X8501380Y-8592820D02*
X9126220D01*
X8394700Y-8699500D02*
X8501380Y-8592820D01*
X9385300Y-8084820D02*
X9644380D01*
X9385300D02*
Y-7894320D01*
X9309100Y-7818120D02*
X9385300Y-7894320D01*
X9029700Y-7818120D02*
X9309100D01*
X8600440Y-7388860D02*
X9029700Y-7818120D01*
X2959100Y-12618720D02*
X3360420Y-13020039D01*
Y-13368021D02*
Y-13020039D01*
Y-13368021D02*
X3624580D01*
X3746500Y-13246100D01*
X12268200Y-10245725D02*
X12955905D01*
X13317220Y-10607040D01*
X13688060Y-11849100D02*
Y-11557000D01*
X13510260Y-12026900D02*
X13688060Y-11849100D01*
X13081000Y-12026900D02*
X13510260D01*
X4866640Y-12981940D02*
X5003800Y-13119099D01*
X4010660Y-12981940D02*
X4866640D01*
X3746500Y-13246100D02*
X4010660Y-12981940D01*
X9766300Y-9309100D02*
Y-8724900D01*
Y-9309100D02*
X10020300Y-9563100D01*
X11783060D01*
X12100560Y-9245600D01*
X12319000Y-12534900D02*
X12580620Y-12796520D01*
X11506200Y-10579100D02*
Y-10245725D01*
Y-10579100D02*
X11574780Y-10647680D01*
X12349480D01*
X12590780Y-10888980D01*
Y-12303760D02*
Y-10888980D01*
Y-12303760D02*
X12951460Y-12664440D01*
X13144501Y-10121900D02*
X13398500Y-10375900D01*
X4218940Y-8658860D02*
X4495800Y-8382000D01*
X4218940Y-8801100D02*
Y-8658860D01*
X4063136Y-8956904D02*
X4218940Y-8801100D01*
X3871824Y-8956904D02*
X4063136D01*
X3751819Y-8836899D02*
X3871824Y-8956904D01*
X3492500Y-8836899D02*
X3751819D01*
X3583701Y-7820899D02*
X7607300D01*
X11849100Y-12636500D02*
X12052300Y-12839700D01*
Y-13571220D02*
Y-12839700D01*
X11976100Y-13647420D02*
X12052300Y-13571220D01*
X9685020Y-13647420D02*
X11976100D01*
X9359900Y-13322301D02*
X9685020Y-13647420D01*
X10246599Y-13411200D02*
X10406619Y-13571220D01*
X11894820D01*
X11965940Y-13500101D01*
Y-12981940D01*
X10868899Y-12788900D02*
X11099800D01*
X10246599Y-13411200D02*
X10868899Y-12788900D01*
X9893300Y-13411200D02*
X10246599D01*
X9791700Y-13309599D02*
X9893300Y-13411200D01*
X10213340Y-11597640D02*
X10350500Y-11734800D01*
X10528300Y-11099800D02*
X10896600D01*
X10342880Y-10914380D02*
X10528300Y-11099800D01*
X11294201Y-11641999D02*
X11341100Y-11595100D01*
X11294201Y-11700800D02*
Y-11641999D01*
X11006201Y-11988800D02*
X11294201Y-11700800D01*
X10833100Y-11988800D02*
X11006201D01*
X12319000Y-12026900D02*
X12448540Y-11897360D01*
Y-10871200D01*
X12357100Y-10779760D02*
X12448540Y-10871200D01*
X11592560Y-10779760D02*
X12357100D01*
X11391900Y-10579100D02*
X11592560Y-10779760D01*
X11391900Y-10579100D02*
Y-10152380D01*
X11468100Y-10076180D01*
X11645900Y-10190480D01*
Y-10345420D02*
Y-10190480D01*
Y-10345420D02*
X11808460Y-10507980D01*
X12359640D01*
X12763500Y-10911840D01*
Y-11442700D02*
Y-10911840D01*
X11760200Y-10245725D02*
X11880215Y-10365740D01*
X12796520D01*
X13159740Y-10728960D01*
X13604240Y-11785600D02*
Y-11498580D01*
X13500101Y-11889740D02*
X13604240Y-11785600D01*
X13373100Y-11889740D02*
X13500101D01*
X13210539Y-11727180D02*
X13373100Y-11889740D01*
X13210539Y-11727180D02*
Y-11643360D01*
X12951460D02*
X13210539D01*
X12951460Y-12151360D02*
Y-11643360D01*
Y-12151360D02*
X13081000Y-12280900D01*
X9791700Y-12230100D02*
X9931400Y-12369800D01*
X10401300D01*
X10457180Y-12313920D01*
Y-11628120D01*
X10066020Y-11236960D02*
X10457180Y-11628120D01*
X10279380Y-10980420D02*
X10505440Y-11206480D01*
X11000740D01*
X11167745Y-11039475D01*
X11506200D01*
X8013700Y-12992101D02*
X8290560Y-12715240D01*
Y-10924540D01*
X9055100Y-10160000D01*
X12763500Y-10756900D02*
Y-10680700D01*
Y-10756900D02*
X13144501Y-11137900D01*
X13804900Y-11874500D02*
Y-11607800D01*
Y-11874500D02*
X13982700Y-12052300D01*
X11946255Y-9923780D02*
X12268200Y-10245725D01*
X9862820Y-9923780D02*
X11946255D01*
X9644380Y-9705340D02*
X9862820Y-9923780D01*
X9644380Y-9705340D02*
Y-8084820D01*
X9766300Y-7962900D01*
X10020300D02*
X10093960Y-7889240D01*
X10896600Y-10845800D02*
X11820525D01*
X12014200Y-11039475D01*
X3149600Y-9540001D02*
X3492500Y-9882901D01*
X3149600Y-9540001D02*
Y-9378701D01*
X3086100Y-9315201D02*
X3149600Y-9378701D01*
X3185190Y-8820399D02*
X3347095Y-8982304D01*
X3799870D01*
X3839870Y-9022304D01*
X4363496D01*
X4495800Y-8890000D01*
X9667240Y-7279640D02*
X9888220Y-7500620D01*
Y-8602980D02*
Y-7500620D01*
X9766300Y-8724900D02*
X9888220Y-8602980D01*
X4749800Y-13119099D02*
X4876800Y-13246100D01*
X8013700D01*
X7579599Y-9194800D02*
X8333979Y-9949180D01*
X9055100D01*
X9512300Y-9491980D01*
Y-8724900D01*
X8646160Y-12862560D02*
X8775700Y-12992101D01*
X8646160Y-12862560D02*
Y-11851640D01*
X8775700Y-11722100D01*
Y-11468100D02*
X8905240Y-11338560D01*
Y-11089640D01*
X8775700Y-10960100D02*
X8905240Y-11089640D01*
X13335001Y-12534900D02*
X13436600D01*
X13081000Y-12280900D02*
X13335001Y-12534900D01*
X7223760Y-11948160D02*
X8013700Y-12738100D01*
X7223760Y-11948160D02*
Y-11363960D01*
X7035800Y-11176000D02*
X7223760Y-11363960D01*
X9512300Y-7962900D02*
Y-7696200D01*
X9448800Y-7632700D02*
X9512300Y-7696200D01*
X11404600Y-8724900D02*
X11856471D01*
X12034271Y-8547100D01*
X10528300Y-7962900D02*
X10680070Y-8114670D01*
X3937000Y-9398000D02*
X4495800D01*
X3733800Y-9194800D02*
X3937000Y-9398000D01*
X2971800Y-9194800D02*
X3733800D01*
X7762001Y-8712200D02*
X8026400D01*
X3822700Y-12915900D02*
X5054600D01*
X3492500Y-13246100D02*
X3822700Y-12915900D01*
X2971800Y-8686800D02*
X3812301D01*
X3937000Y-8811499D01*
X10299700Y-8242300D02*
X11861800D01*
X10020300Y-7962900D02*
X10299700Y-8242300D01*
X12763500Y-11442700D02*
X13106400D01*
X13436600Y-11772900D01*
X9258300Y-8928100D02*
Y-8724900D01*
Y-8928100D02*
X9271000Y-8940800D01*
Y-9144000D02*
Y-8940800D01*
X8914298Y-8814902D02*
X9004300Y-8724900D01*
X8279298Y-8814902D02*
X8914298D01*
X8279298D02*
Y-8203098D01*
X8026400Y-7950200D02*
X8279298Y-8203098D01*
X13436600Y-11772900D02*
Y-11214100D01*
X13804900Y-10845800D01*
X11014710Y-12170410D02*
X11461501Y-11723619D01*
Y-11474699D01*
X11220699D02*
X11461501D01*
X11220699Y-11654541D02*
Y-11474699D01*
X11159739Y-11715501D02*
X11220699Y-11654541D01*
X10965180Y-11715501D02*
X11159739D01*
X10965180D02*
Y-11470640D01*
X11092180Y-11343640D01*
X11964035D01*
X12268200Y-11039475D01*
X12136120Y-12098020D02*
Y-11399520D01*
X12382500Y-11153140D01*
Y-10924540D01*
X12129135D02*
X12382500D01*
X12014200Y-11039475D02*
X12129135Y-10924540D01*
X12044680Y-12730480D02*
X12471400Y-13157201D01*
X12044680Y-12730480D02*
Y-11790680D01*
X11849100Y-11595100D02*
X12044680Y-11790680D01*
X10645140Y-9484360D02*
X11404600Y-8724900D01*
X10071100Y-9484360D02*
X10645140D01*
X9916160Y-9329420D02*
X10071100Y-9484360D01*
X9916160Y-9329420D02*
Y-8829040D01*
X10020300Y-8724900D01*
X10693400Y-10845800D02*
X10896600D01*
X10172700Y-10325100D02*
X10693400Y-10845800D01*
X9436100Y-12675702D02*
X9588500Y-12523302D01*
X9309100Y-12675702D02*
X9436100D01*
X9244498Y-12611100D02*
X9309100Y-12675702D01*
X9244498Y-12611100D02*
Y-11619062D01*
X9657080Y-11206480D01*
Y-10960100D01*
X9786620Y-10830560D01*
X10365740D01*
X10507980Y-10972800D01*
X10769600D01*
X8775700Y-12484100D02*
X9019540D01*
X9146540Y-12357100D01*
Y-11013440D01*
X9232900Y-11099800D02*
X9550400D01*
X11587333Y-11212342D02*
X11760200Y-11039475D01*
X11096742Y-11212342D02*
X11587333D01*
X11030585Y-11278499D02*
X11096742Y-11212342D01*
X10364099Y-11278499D02*
X11030585D01*
X10172700Y-11087100D02*
X10364099Y-11278499D01*
X9588500Y-11785600D02*
X10033000Y-12230100D01*
X2997200Y-11661140D02*
Y-11582400D01*
X2875280Y-11722100D02*
X2936240Y-11661140D01*
X2875280Y-12476480D02*
Y-11722100D01*
Y-12476480D02*
X3182620D01*
X3573780Y-12085320D01*
X4643120D01*
Y-8529320D01*
X4495800Y-8382000D02*
X4643120Y-8529320D01*
X11087100Y-11595100D02*
Y-11479952D01*
X11157753Y-11409299D01*
X11653139D01*
X11717020Y-11473180D01*
Y-11877040D02*
Y-11473180D01*
Y-11877040D02*
X11849100Y-12009120D01*
Y-12357100D02*
Y-12009120D01*
X10795000Y-12230100D02*
X10853801Y-12171299D01*
X11409299D01*
X11595100Y-12357100D01*
X11341100D02*
X11493500Y-12509500D01*
X11628120D01*
X11717020Y-12420600D01*
Y-12080240D01*
X11595100Y-11958320D02*
X11717020Y-12080240D01*
X11595100Y-11958320D02*
Y-11595100D01*
X10859938Y-12345502D02*
X10968741Y-12236699D01*
X11207501D01*
Y-13326100D02*
Y-12236699D01*
Y-13326100D02*
X11292601Y-13411200D01*
X3830096Y-9144000D02*
X4495800D01*
X3733800Y-9047704D02*
X3830096Y-9144000D01*
X3078704Y-9047704D02*
X3733800D01*
X2971800Y-8940800D02*
X3078704Y-9047704D01*
X8026400Y-8712200D02*
X8509000Y-9194800D01*
X8625601D01*
X3403600Y-11938000D02*
X4495800D01*
X2997200Y-12344400D02*
X3403600Y-11938000D01*
X9271000Y-9461500D02*
Y-9144000D01*
X9004300Y-9728200D02*
X9271000Y-9461500D01*
X2997200Y-11836400D02*
X3721100D01*
X4041140Y-11516360D01*
Y-10833100D01*
X3888740Y-10680700D02*
X4041140Y-10833100D01*
X2984500Y-10680700D02*
X3888740D01*
X10274300Y-7962900D02*
X10396220Y-7840980D01*
X10939780D01*
X11061700Y-7962900D01*
X3726180Y-9857501D02*
X3937000D01*
X3700780Y-9882901D02*
X3726180Y-9857501D01*
X3492500Y-9882901D02*
X3700780D01*
X3937000Y-10010140D02*
Y-9857501D01*
X3924300Y-10022840D02*
X3937000Y-10010140D01*
X3924300Y-10172700D02*
Y-10022840D01*
X2984500Y-10934700D02*
X3924300D01*
X9004300Y-8966200D02*
Y-8724900D01*
X11061700Y-7962900D02*
X11404600D01*
X10274300Y-8724900D02*
X10528300D01*
X9004300Y-7962900D02*
X9258300D01*
X9245600Y-7632700D02*
X9448800D01*
X11849100Y-12636500D02*
Y-12357100D01*
X8775700Y-11976100D02*
X9029700Y-12230100D01*
X8775700Y-11722100D02*
Y-11468100D01*
Y-13246100D02*
Y-12992101D01*
%TF.MD5,32af2b1898433513113b8c4f67031783*%
M02*
