%TF.GenerationSoftware,Altium Limited,Altium Designer,23.11.1 (41)*%
G04 Layer_Physical_Order=1*
G04 Layer_Color=255*
%FSLAX45Y45*%
%MOMM*%
%TF.SameCoordinates,4C9A1514-A2EE-4944-9187-3C763DF9E9B3*%
%TF.FilePolarity,Positive*%
%TF.FileFunction,Copper,L1,Top,Signal*%
%TF.Part,Single*%
G01*
G75*
%TA.AperFunction,ComponentPad*%
%ADD10R,2.00000X2.00000*%
%ADD11C,2.00000*%
%ADD12R,2.00000X2.00000*%
%ADD13C,1.20000*%
%ADD14C,1.67640*%
%ADD15R,1.67640X1.67640*%
%ADD16C,1.40000*%
%ADD17C,1.50000*%
%ADD18R,1.50000X1.50000*%
%ADD19R,1.20000X1.20000*%
%ADD20R,1.60000X1.60000*%
%ADD21C,1.60000*%
%ADD22C,3.00000*%
%ADD23R,1.50000X1.50000*%
D10*
X7023100Y-8646399D02*
D03*
X5588000Y-11330701D02*
D03*
X6032500Y-10310099D02*
D03*
D11*
X7023100Y-9692401D02*
D03*
X5979399Y-8293100D02*
D03*
X6032500Y-11356101D02*
D03*
X10083800Y-10972800D02*
D03*
X7543800Y-9448800D02*
D03*
X10083800Y-10464800D02*
D03*
X7543800Y-9702800D02*
D03*
Y-8940800D02*
D03*
Y-9194800D02*
D03*
Y-9956800D02*
D03*
Y-10210800D02*
D03*
Y-10464800D02*
D03*
Y-10718800D02*
D03*
Y-10972800D02*
D03*
Y-11226800D02*
D03*
Y-11480800D02*
D03*
Y-11734800D02*
D03*
Y-11988800D02*
D03*
Y-12242800D02*
D03*
X10083800Y-8686800D02*
D03*
Y-8940800D02*
D03*
Y-9194800D02*
D03*
Y-9448800D02*
D03*
Y-9702800D02*
D03*
Y-9956800D02*
D03*
Y-10210800D02*
D03*
Y-10718800D02*
D03*
Y-11226800D02*
D03*
Y-11480800D02*
D03*
Y-11734800D02*
D03*
Y-11988800D02*
D03*
Y-12242800D02*
D03*
X5588000Y-10284699D02*
D03*
D12*
X7025401Y-8293100D02*
D03*
X7543800Y-8686800D02*
D03*
D13*
X13893800Y-12026900D02*
D03*
Y-12788900D02*
D03*
X14046201Y-10718800D02*
D03*
Y-10972800D02*
D03*
D14*
X12700000Y-12230100D02*
D03*
Y-11976100D02*
D03*
Y-11722100D02*
D03*
Y-11468100D02*
D03*
Y-11214100D02*
D03*
Y-10960100D02*
D03*
Y-10706100D02*
D03*
Y-10452100D02*
D03*
Y-10198100D02*
D03*
Y-9944100D02*
D03*
X13462000D02*
D03*
Y-10198100D02*
D03*
Y-10452100D02*
D03*
Y-10706100D02*
D03*
Y-10960100D02*
D03*
Y-11214100D02*
D03*
Y-11468100D02*
D03*
Y-11722100D02*
D03*
Y-11976100D02*
D03*
D15*
Y-12230100D02*
D03*
D16*
X11264900Y-13258800D02*
D03*
X12026900D02*
D03*
X5549900Y-11811000D02*
D03*
X6591300Y-8788400D02*
D03*
X11099800Y-12001500D02*
D03*
Y-12280900D02*
D03*
Y-10782300D02*
D03*
Y-11087100D02*
D03*
X11861800Y-9245600D02*
D03*
X11099800D02*
D03*
X11861800Y-9867900D02*
D03*
X11099800D02*
D03*
X11861800Y-10464800D02*
D03*
X11099800D02*
D03*
X11861800Y-11087100D02*
D03*
Y-11696700D02*
D03*
X11099800D02*
D03*
X11861800Y-12280900D02*
D03*
Y-12903200D02*
D03*
X11099800D02*
D03*
X12026900Y-13550900D02*
D03*
X11264900D02*
D03*
X11099800Y-8953500D02*
D03*
X11861800D02*
D03*
X11099800Y-9537700D02*
D03*
X11861800D02*
D03*
X11099800Y-10160000D02*
D03*
X11861800D02*
D03*
Y-10782300D02*
D03*
X11099800Y-11391900D02*
D03*
X11861800D02*
D03*
Y-12001500D02*
D03*
X11099800Y-12611100D02*
D03*
X11861800D02*
D03*
X6591300Y-9550400D02*
D03*
X6223000Y-8801100D02*
D03*
Y-9563100D02*
D03*
Y-9994900D02*
D03*
X5461000D02*
D03*
X3225800Y-8763000D02*
D03*
Y-9525000D02*
D03*
X3556000Y-9537700D02*
D03*
Y-8775700D02*
D03*
X5346700Y-8356600D02*
D03*
X4584700D02*
D03*
X4419600Y-9994900D02*
D03*
X5181600D02*
D03*
X12738100Y-12636500D02*
D03*
X13500101D02*
D03*
X5600700Y-7708900D02*
D03*
Y-8470900D02*
D03*
X4787900Y-11811000D02*
D03*
D17*
X11976100Y-7797800D02*
D03*
Y-8051800D02*
D03*
Y-8305800D02*
D03*
X5613400Y-8775700D02*
D03*
X5359400D02*
D03*
X5105400D02*
D03*
X4851400D02*
D03*
X4597400D02*
D03*
X4343400D02*
D03*
X4089400D02*
D03*
X5613400Y-9537700D02*
D03*
X5359400D02*
D03*
X5105400D02*
D03*
X4851400D02*
D03*
X4597400D02*
D03*
X4343400D02*
D03*
X2832100Y-9271000D02*
D03*
X6718300Y-13550900D02*
D03*
X6464300D02*
D03*
X6210300D02*
D03*
X3619500Y-12115800D02*
D03*
Y-12369800D02*
D03*
Y-12623800D02*
D03*
Y-12877800D02*
D03*
Y-13131799D02*
D03*
Y-13385800D02*
D03*
Y-13639799D02*
D03*
X3962400Y-10718800D02*
D03*
X8140700Y-13538200D02*
D03*
X7886700D02*
D03*
D18*
X11976100Y-8559800D02*
D03*
X4089400Y-9537700D02*
D03*
X2832100Y-9017000D02*
D03*
X3619500Y-11861800D02*
D03*
X3962400Y-10972800D02*
D03*
D19*
X14046201Y-11226800D02*
D03*
D20*
X9690100Y-13474699D02*
D03*
D21*
X9436100D02*
D03*
X9182100D02*
D03*
D22*
X7585801Y-12585797D02*
D03*
X10036800D02*
D03*
Y-7890800D02*
D03*
X7585801D02*
D03*
D23*
X5956300Y-13550900D02*
D03*
X8394700Y-13538200D02*
D03*
%TF.MD5,b3eb5e43c5ede055fcd5c649c3eccbe8*%
M02*
