G04*
G04 #@! TF.GenerationSoftware,Altium Limited,Altium Designer,23.11.1 (41)*
G04*
G04 Layer_Physical_Order=1*
G04 Layer_Color=255*
%FSLAX44Y44*%
%MOMM*%
G71*
G04*
G04 #@! TF.SameCoordinates,5E353D0A-FD7C-4BEC-B3A5-00601FCEE480*
G04*
G04*
G04 #@! TF.FilePolarity,Positive*
G04*
G01*
G75*
%ADD15R,1.2000X1.2000*%
%ADD16C,1.2000*%
%ADD17R,1.2000X1.2000*%
%ADD24R,1.5000X1.5000*%
%ADD25C,1.5000*%
%ADD26C,1.4000*%
%ADD27R,1.5000X1.5000*%
%ADD28R,1.6000X1.6000*%
%ADD29C,1.6000*%
D15*
X317500Y-125730D02*
D03*
D16*
Y-151130D02*
D03*
Y-176530D02*
D03*
X344170Y-336550D02*
D03*
X318770D02*
D03*
D17*
X369570D02*
D03*
D24*
X439420Y-269240D02*
D03*
X125730Y-50800D02*
D03*
Y-340360D02*
D03*
X444500Y-39370D02*
D03*
D25*
X439420Y-243840D02*
D03*
Y-218440D02*
D03*
Y-193040D02*
D03*
Y-167640D02*
D03*
Y-142240D02*
D03*
Y-116840D02*
D03*
X363220Y-269240D02*
D03*
Y-243840D02*
D03*
Y-218440D02*
D03*
Y-193040D02*
D03*
Y-167640D02*
D03*
Y-142240D02*
D03*
Y-116840D02*
D03*
X151130Y-50800D02*
D03*
X176530D02*
D03*
X201930D02*
D03*
X151130Y-340360D02*
D03*
X176530D02*
D03*
X201930D02*
D03*
X368300Y-39370D02*
D03*
X393700D02*
D03*
X419100D02*
D03*
X33020Y-224790D02*
D03*
Y-199390D02*
D03*
Y-173990D02*
D03*
D26*
X467360Y-180340D02*
D03*
Y-104140D02*
D03*
X497840Y-180340D02*
D03*
Y-104140D02*
D03*
X482600Y-205740D02*
D03*
Y-281940D02*
D03*
X322580Y-76200D02*
D03*
X398780D02*
D03*
X299720Y-297180D02*
D03*
Y-220980D02*
D03*
X331470Y-219710D02*
D03*
Y-295910D02*
D03*
D27*
X33020Y-148590D02*
D03*
D28*
X487680Y-326390D02*
D03*
D29*
X462280D02*
D03*
X436880D02*
D03*
M02*
