%FSTAX23Y23*%
%MOIN*%
%SFA1B1*%

%IPPOS*%
%ADD37C,0.035433*%
%ADD38C,0.035433*%
%ADD39C,0.027559*%
%ADD40C,0.027559*%
%ADD41C,0.033465*%
%ADD42C,0.033465*%
%ADD43C,0.039370*%
%ADD44C,0.028000*%
%LNstrain_pth_drill-1*%
%LPD*%
G54D37*
X0013Y-00585D03*
Y-00685D03*
Y-00785D03*
Y-00885D03*
G54D38*
X0143Y-0046D03*
Y-0056D03*
Y-0066D03*
Y-0076D03*
Y-0086D03*
Y-0096D03*
Y-0106D03*
X0173Y-0046D03*
Y-0056D03*
Y-0066D03*
Y-0076D03*
Y-0086D03*
Y-0096D03*
Y-0106D03*
X0175Y-00155D03*
X0165D03*
X0155D03*
X0145D03*
X00795Y-002D03*
X00695D03*
X00595D03*
X00495D03*
X00795Y-0134D03*
X00695D03*
X00595D03*
X00495D03*
G54D39*
X0125Y-00695D03*
Y-00595D03*
Y-00495D03*
G54D40*
X01255Y-01325D03*
X01355D03*
X01455D03*
G54D41*
X01305Y-01165D03*
Y-00865D03*
X0184Y-0041D03*
Y-0071D03*
X0118Y-0087D03*
Y-0117D03*
X019Y-0111D03*
Y-0081D03*
X0196Y-0041D03*
Y-0071D03*
G54D42*
X0157Y-003D03*
X0127D03*
G54D43*
X0172Y-01285D03*
X0182D03*
X0192D03*
G54D44*
X0182Y-01285D03*
X0173Y-0076D03*
X01545Y-00155D03*
X0143Y-0066D03*
X0173Y-0106D03*
X0125Y-00695D03*
X00795Y-0134D03*
X0013Y-00685D03*
M02*