%TF.GenerationSoftware,Altium Limited,Altium Designer,23.11.1 (41)*%
G04 Layer_Color=16711935*
%FSLAX45Y45*%
%MOMM*%
%TF.SameCoordinates,349A38C7-8BD6-4E23-B505-DA8FB3D968BF*%
%TF.FilePolarity,Positive*%
%TF.FileFunction,Other,Mechanical_1*%
%TF.Part,Single*%
G01*
G75*
%TA.AperFunction,NonConductor*%
%ADD31C,0.25400*%
%ADD32C,0.15000*%
%ADD33C,0.15240*%
D31*
X0Y-3797300D02*
X5257800D01*
X0Y12700D02*
X5257800D01*
Y-3797300D02*
Y12700D01*
X0Y-3797300D02*
Y12700D01*
X-88900Y-2374900D02*
X-55567Y-2474900D01*
X-122233D02*
X-88900Y-2374900D01*
X-122233Y-3697300D02*
X-88900Y-3797300D01*
X-55567Y-3697300D01*
X-88900Y-2950399D02*
Y-2374900D01*
Y-3797300D02*
Y-3276600D01*
X-114300Y-2374900D02*
X167800D01*
X-114300Y-3797300D02*
X-25400D01*
X-122233Y-2274900D02*
X-88900Y-2374900D01*
X-55567Y-2274900D01*
X-88900Y-1358900D02*
X-55567Y-1458900D01*
X-122233D02*
X-88900Y-1358900D01*
Y-2374900D02*
Y-2019300D01*
Y-1693099D02*
Y-1358900D01*
X-114300Y-2374900D02*
X167800D01*
X-114300Y-1358900D02*
X167800D01*
X0Y-3873500D02*
X100000Y-3840167D01*
X0Y-3873500D02*
X100000Y-3906833D01*
X5157800D02*
X5257800Y-3873500D01*
X5157800Y-3840167D02*
X5257800Y-3873500D01*
X0D02*
X2419328D01*
X2757192D02*
X5257800D01*
X0Y-3898900D02*
Y-3822700D01*
X5257800Y-3898900D02*
Y-3822700D01*
X5334000Y12700D02*
X5367333Y-87300D01*
X5300667D02*
X5334000Y12700D01*
X5300667Y-3697300D02*
X5334000Y-3797300D01*
X5367333Y-3697300D01*
X5334000Y-1764008D02*
Y12700D01*
Y-3797300D02*
Y-2101872D01*
X5283200Y12700D02*
X5359400D01*
X5283200Y-3797300D02*
X5359400D01*
X2777067Y-3479800D02*
X2794000Y-3530600D01*
X2810933Y-3479800D01*
X2794000Y-381000D02*
X2810933Y-431800D01*
X2777067D02*
X2794000Y-381000D01*
Y-3530600D02*
Y-1866900D01*
Y-1400744D02*
Y-381000D01*
X2181700Y-3530600D02*
X2819400D01*
X2181700Y-381000D02*
X2819400D01*
X584200Y-139700D02*
X635000Y-122767D01*
X584200Y-139700D02*
X635000Y-156633D01*
X2743200D02*
X2794000Y-139700D01*
X2743200Y-122767D02*
X2794000Y-139700D01*
X584200D02*
X1549400D01*
X1887264D02*
X2794000D01*
X584200Y-165100D02*
Y-88900D01*
X2794000Y-165100D02*
Y-88900D01*
X584200Y-455231D02*
X635000Y-438298D01*
X584200Y-455231D02*
X635000Y-472164D01*
X1088983D02*
X1139783Y-455231D01*
X1088983Y-438298D02*
X1139783Y-455231D01*
X584200D02*
X711200D01*
X979087D02*
X1139783D01*
X584200Y-480631D02*
Y-139700D01*
X1139783Y-480631D02*
Y-429831D01*
X2159000Y-330200D02*
X2209800Y-313267D01*
X2159000Y-330200D02*
X2209800Y-347133D01*
X2743200D02*
X2794000Y-330200D01*
X2743200Y-313267D02*
X2794000Y-330200D01*
X2159000D02*
X2362200D01*
X2630087D02*
X2794000D01*
X2159000Y-444500D02*
Y-304800D01*
X2794000Y-355600D02*
Y-139700D01*
D32*
X4318000Y-1999561D02*
Y-1899594D01*
X4298006Y-1879600D01*
X4258019D01*
X4238026Y-1899594D01*
Y-1999561D01*
X4198039Y-1979568D02*
X4178045Y-1999561D01*
X4138058D01*
X4118065Y-1979568D01*
Y-1959574D01*
X4138058Y-1939581D01*
X4158052D01*
X4138058D01*
X4118065Y-1919587D01*
Y-1899594D01*
X4138058Y-1879600D01*
X4178045D01*
X4198039Y-1899594D01*
D33*
X4775200Y-3314667D02*
Y-3213100D01*
X4707489D01*
X4673633D02*
Y-3314667D01*
X4639777Y-3280811D01*
X4605921Y-3314667D01*
Y-3213100D01*
X4572066Y-3314667D02*
X4504354D01*
Y-3297739D01*
X4572066Y-3230028D01*
Y-3213100D01*
X4470498Y-3297739D02*
X4453570Y-3314667D01*
X4419715D01*
X4402787Y-3297739D01*
Y-3280811D01*
X4419715Y-3263883D01*
X4402787Y-3246956D01*
Y-3230028D01*
X4419715Y-3213100D01*
X4453570D01*
X4470498Y-3230028D01*
Y-3246956D01*
X4453570Y-3263883D01*
X4470498Y-3280811D01*
Y-3297739D01*
X4453570Y-3263883D02*
X4419715D01*
X4368931Y-3297739D02*
X4352003Y-3314667D01*
X4318148D01*
X4301220Y-3297739D01*
Y-3230028D01*
X4318148Y-3213100D01*
X4352003D01*
X4368931Y-3230028D01*
Y-3297739D01*
X4199653Y-3314667D02*
X4267364D01*
Y-3263883D01*
X4233508Y-3280811D01*
X4216580D01*
X4199653Y-3263883D01*
Y-3230028D01*
X4216580Y-3213100D01*
X4250436D01*
X4267364Y-3230028D01*
X-66040Y-3235960D02*
Y-3212634D01*
Y-3224297D01*
X-136018D01*
X-124355Y-3235960D01*
X-66040Y-3142657D02*
X-136018D01*
X-101029Y-3177645D01*
Y-3130994D01*
X-66040Y-3107668D02*
X-112692D01*
Y-3096005D01*
X-101029Y-3084342D01*
X-66040D01*
X-101029D01*
X-112692Y-3072679D01*
X-101029Y-3061016D01*
X-66040D01*
Y-3037690D02*
X-112692D01*
Y-3026027D01*
X-101029Y-3014365D01*
X-66040D01*
X-101029D01*
X-112692Y-3002702D01*
X-101029Y-2991039D01*
X-66040D01*
X-53340Y-1978660D02*
Y-1955334D01*
Y-1966997D01*
X-123318D01*
X-111655Y-1978660D01*
Y-1920346D02*
X-123318Y-1908683D01*
Y-1885357D01*
X-111655Y-1873694D01*
X-65003D01*
X-53340Y-1885357D01*
Y-1908683D01*
X-65003Y-1920346D01*
X-111655D01*
X-53340Y-1850368D02*
X-99992D01*
Y-1838705D01*
X-88329Y-1827042D01*
X-53340D01*
X-88329D01*
X-99992Y-1815379D01*
X-88329Y-1803716D01*
X-53340D01*
Y-1780391D02*
X-99992D01*
Y-1768728D01*
X-88329Y-1757065D01*
X-53340D01*
X-88329D01*
X-99992Y-1745402D01*
X-88329Y-1733739D01*
X-53340D01*
X2506620Y-3853751D02*
X2459968D01*
Y-3888740D01*
X2483294Y-3877077D01*
X2494957D01*
X2506620Y-3888740D01*
Y-3912066D01*
X2494957Y-3923729D01*
X2471631D01*
X2459968Y-3912066D01*
X2529945Y-3865414D02*
X2541608Y-3853751D01*
X2564934D01*
X2576597Y-3865414D01*
Y-3877077D01*
X2564934Y-3888740D01*
X2553271D01*
X2564934D01*
X2576597Y-3900403D01*
Y-3912066D01*
X2564934Y-3923729D01*
X2541608D01*
X2529945Y-3912066D01*
X2599923Y-3923729D02*
Y-3877077D01*
X2611586D01*
X2623249Y-3888740D01*
Y-3923729D01*
Y-3888740D01*
X2634912Y-3877077D01*
X2646575Y-3888740D01*
Y-3923729D01*
X2669900D02*
Y-3877077D01*
X2681563D01*
X2693226Y-3888740D01*
Y-3923729D01*
Y-3888740D01*
X2704889Y-3877077D01*
X2716552Y-3888740D01*
Y-3923729D01*
X5325914Y-2061232D02*
X5314251Y-2049569D01*
Y-2026243D01*
X5325914Y-2014580D01*
X5337577D01*
X5349240Y-2026243D01*
Y-2037906D01*
Y-2026243D01*
X5360903Y-2014580D01*
X5372566D01*
X5384229Y-2026243D01*
Y-2049569D01*
X5372566Y-2061232D01*
X5325914Y-1991255D02*
X5314251Y-1979592D01*
Y-1956266D01*
X5325914Y-1944603D01*
X5337577D01*
X5349240Y-1956266D01*
X5360903Y-1944603D01*
X5372566D01*
X5384229Y-1956266D01*
Y-1979592D01*
X5372566Y-1991255D01*
X5360903D01*
X5349240Y-1979592D01*
X5337577Y-1991255D01*
X5325914D01*
X5349240Y-1979592D02*
Y-1956266D01*
X5384229Y-1921277D02*
X5337577D01*
Y-1909614D01*
X5349240Y-1897951D01*
X5384229D01*
X5349240D01*
X5337577Y-1886288D01*
X5349240Y-1874625D01*
X5384229D01*
Y-1851300D02*
X5337577D01*
Y-1839637D01*
X5349240Y-1827974D01*
X5384229D01*
X5349240D01*
X5337577Y-1816311D01*
X5349240Y-1804648D01*
X5384229D01*
X2758545Y-1826260D02*
X2746882Y-1814597D01*
Y-1791271D01*
X2758545Y-1779608D01*
X2770208D01*
X2781871Y-1791271D01*
Y-1802934D01*
Y-1791271D01*
X2793534Y-1779608D01*
X2805197D01*
X2816860Y-1791271D01*
Y-1814597D01*
X2805197Y-1826260D01*
X2816860Y-1756282D02*
Y-1732957D01*
Y-1744620D01*
X2746882D01*
X2758545Y-1756282D01*
X2828523Y-1686305D02*
X2816860Y-1674642D01*
X2805197D01*
Y-1686305D01*
X2816860D01*
Y-1674642D01*
X2828523Y-1686305D01*
X2840186Y-1697968D01*
X2746882Y-1581339D02*
Y-1627990D01*
X2781871D01*
X2770208Y-1604665D01*
Y-1593002D01*
X2781871Y-1581339D01*
X2805197D01*
X2816860Y-1593002D01*
Y-1616327D01*
X2805197Y-1627990D01*
X2816860Y-1558013D02*
X2770208D01*
Y-1546350D01*
X2781871Y-1534687D01*
X2816860D01*
X2781871D01*
X2770208Y-1523024D01*
X2781871Y-1511361D01*
X2816860D01*
Y-1488035D02*
X2770208D01*
Y-1476372D01*
X2781871Y-1464710D01*
X2816860D01*
X2781871D01*
X2770208Y-1453047D01*
X2781871Y-1441384D01*
X2816860D01*
X1636692Y-187960D02*
X1590040D01*
X1636692Y-141308D01*
Y-129645D01*
X1625029Y-117982D01*
X1601703D01*
X1590040Y-129645D01*
X1706669Y-187960D02*
X1660018D01*
X1706669Y-141308D01*
Y-129645D01*
X1695006Y-117982D01*
X1671680D01*
X1660018Y-129645D01*
X1729995Y-187960D02*
Y-141308D01*
X1741658D01*
X1753321Y-152971D01*
Y-187960D01*
Y-152971D01*
X1764984Y-141308D01*
X1776647Y-152971D01*
Y-187960D01*
X1799973D02*
Y-141308D01*
X1811635D01*
X1823298Y-152971D01*
Y-187960D01*
Y-152971D01*
X1834961Y-141308D01*
X1846624Y-152971D01*
Y-187960D01*
X798492Y-410082D02*
X775166Y-421745D01*
X751840Y-445071D01*
Y-468397D01*
X763503Y-480060D01*
X786829D01*
X798492Y-468397D01*
Y-456734D01*
X786829Y-445071D01*
X751840D01*
X821818Y-480060D02*
Y-433408D01*
X833480D01*
X845143Y-445071D01*
Y-480060D01*
Y-445071D01*
X856806Y-433408D01*
X868469Y-445071D01*
Y-480060D01*
X891795D02*
Y-433408D01*
X903458D01*
X915121Y-445071D01*
Y-480060D01*
Y-445071D01*
X926784Y-433408D01*
X938447Y-445071D01*
Y-480060D01*
X2449492Y-283082D02*
X2426166Y-294745D01*
X2402840Y-318071D01*
Y-341397D01*
X2414503Y-353060D01*
X2437829D01*
X2449492Y-341397D01*
Y-329734D01*
X2437829Y-318071D01*
X2402840D01*
X2472818Y-353060D02*
Y-306408D01*
X2484480D01*
X2496143Y-318071D01*
Y-353060D01*
Y-318071D01*
X2507806Y-306408D01*
X2519469Y-318071D01*
Y-353060D01*
X2542795D02*
Y-306408D01*
X2554458D01*
X2566121Y-318071D01*
Y-353060D01*
Y-318071D01*
X2577784Y-306408D01*
X2589447Y-318071D01*
Y-353060D01*
%TF.MD5,d03553d1074d15a314df22f4041ae5a5*%
M02*
