%TF.GenerationSoftware,Altium Limited,Altium Designer,23.11.1 (41)*%
G04 Layer_Color=16711935*
%FSLAX45Y45*%
%MOMM*%
%TF.SameCoordinates,349A38C7-8BD6-4E23-B505-DA8FB3D968BF*%
%TF.FilePolarity,Negative*%
%TF.FileFunction,Soldermask,Bot*%
%TF.Part,Single*%
G01*
G75*
%TA.AperFunction,ComponentPad*%
%ADD10R,1.20000X1.20000*%
%ADD11C,1.20000*%
%ADD12R,1.20000X1.20000*%
%ADD25R,1.70320X1.70320*%
%ADD26C,1.70320*%
%ADD27C,1.60320*%
%ADD28R,1.70320X1.70320*%
%ADD29R,1.80320X1.80320*%
%ADD30C,1.80320*%
D10*
X3175000Y-1257300D02*
D03*
D11*
Y-1511300D02*
D03*
Y-1765300D02*
D03*
X3441700Y-3365500D02*
D03*
X3187700D02*
D03*
D12*
X3695700D02*
D03*
D25*
X4394200Y-2692400D02*
D03*
X1257300Y-508000D02*
D03*
Y-3403600D02*
D03*
X4445000Y-393700D02*
D03*
D26*
X4394200Y-2438400D02*
D03*
Y-2184400D02*
D03*
Y-1930400D02*
D03*
Y-1676400D02*
D03*
Y-1422400D02*
D03*
Y-1168400D02*
D03*
X3632200Y-2692400D02*
D03*
Y-2438400D02*
D03*
Y-2184400D02*
D03*
Y-1930400D02*
D03*
Y-1676400D02*
D03*
Y-1422400D02*
D03*
Y-1168400D02*
D03*
X1511300Y-508000D02*
D03*
X1765300D02*
D03*
X2019300D02*
D03*
X1511300Y-3403600D02*
D03*
X1765300D02*
D03*
X2019300D02*
D03*
X3683000Y-393700D02*
D03*
X3937000D02*
D03*
X4191000D02*
D03*
X330200Y-2247900D02*
D03*
Y-1993900D02*
D03*
Y-1739900D02*
D03*
D27*
X4673600Y-1803400D02*
D03*
Y-1041400D02*
D03*
X4978400Y-1803400D02*
D03*
Y-1041400D02*
D03*
X4826000Y-2057400D02*
D03*
Y-2819400D02*
D03*
X3225800Y-762000D02*
D03*
X3987800D02*
D03*
X2997200Y-2971800D02*
D03*
Y-2209800D02*
D03*
X3314700Y-2197100D02*
D03*
Y-2959100D02*
D03*
D28*
X330200Y-1485900D02*
D03*
D29*
X4876800Y-3263900D02*
D03*
D30*
X4622800D02*
D03*
X4368800D02*
D03*
%TF.MD5,b37594378b6dee459fa7db5b39ab2cb3*%
M02*
