%FSTAX23Y23*%
%MOIN*%
%SFA1B1*%

%IPPOS*%
%ADD10C,0.019685*%
%ADD11R,0.059055X0.059055*%
%ADD12C,0.059055*%
%ADD13R,0.059055X0.059055*%
%ADD14C,0.047244*%
%ADD15R,0.047244X0.047244*%
%ADD16R,0.047244X0.047244*%
%ADD17C,0.055118*%
%ADD18C,0.062992*%
%ADD19R,0.062992X0.062992*%
%ADD20C,0.050000*%
%LNstrain_copper_signal_top-1*%
%LPD*%
G54D10*
X0182Y-01285D02*
Y-0085D01*
X0173Y-0076D02*
X0182Y-0085D01*
X0166Y-00305D02*
X0175Y-00215D01*
X0166Y-0072D02*
Y-00305D01*
Y-0072D02*
X01692Y-00752D01*
X01722D02*
X0173Y-0076D01*
X01692Y-00752D02*
X01722D01*
X0175Y-00215D02*
Y-00155D01*
X01305Y-00435D02*
X0145Y-0029D01*
X01305Y-0067D02*
Y-00435D01*
X01252Y-00692D02*
X01282D01*
X0125Y-00695D02*
X01252Y-00692D01*
X01282D02*
X01305Y-0067D01*
X01427Y-00757D02*
X0143Y-0076D01*
X0136Y-0073D02*
X01387Y-00757D01*
X0136Y-00455D02*
X015Y-00315D01*
X01387Y-00757D02*
X01427D01*
X0136Y-0073D02*
Y-00455D01*
X015Y-00315D02*
Y-0026D01*
X0145Y-0029D02*
Y-00155D01*
X01545Y-00214D02*
Y-00155D01*
X015Y-0026D02*
X01545Y-00214D01*
X01545Y-00155D02*
X01545Y-00155D01*
X0143Y-0066D02*
X01493D01*
X0151Y-00676*
Y-0094D02*
Y-00676D01*
Y-0094D02*
X01625Y-01055D01*
X01725*
X0173Y-0106*
X00135Y-00685D02*
X0079Y-0134D01*
X0013Y-00685D02*
X00135D01*
X0079Y-0134D02*
X00795D01*
G54D11*
X0013Y-00585D03*
G54D12*
X0013Y-00685D03*
Y-00785D03*
Y-00885D03*
X0143Y-0046D03*
Y-0056D03*
Y-0066D03*
Y-0076D03*
Y-0086D03*
Y-0096D03*
Y-0106D03*
X0173Y-0046D03*
Y-0056D03*
Y-0066D03*
Y-0076D03*
Y-0086D03*
Y-0096D03*
X0165Y-00155D03*
X0155D03*
X0145D03*
X00795Y-002D03*
X00695D03*
X00595D03*
X00795Y-0134D03*
X00695D03*
X00595D03*
G54D13*
X0173Y-0106D03*
X0175Y-00155D03*
X00495Y-002D03*
Y-0134D03*
G54D14*
X0125Y-00695D03*
Y-00595D03*
X01255Y-01325D03*
X01355D03*
G54D15*
X0125Y-00495D03*
G54D16*
X01455Y-01325D03*
G54D17*
X01305Y-01165D03*
Y-00865D03*
X0157Y-003D03*
X0127D03*
X0184Y-0041D03*
Y-0071D03*
X0118Y-0087D03*
Y-0117D03*
X019Y-0111D03*
Y-0081D03*
X0196Y-0041D03*
Y-0071D03*
G54D18*
X0172Y-01285D03*
X0182D03*
G54D19*
X0192Y-01285D03*
G54D20*
X0182Y-01285D03*
X0173Y-0076D03*
X01545Y-00155D03*
X0143Y-0066D03*
X0173Y-0106D03*
X0125Y-00695D03*
X00795Y-0134D03*
X0013Y-00685D03*
M02*