%FSTAX23Y23*%
%MOIN*%
%SFA1B1*%

%IPPOS*%
%ADD23C,0.007874*%
%LNstrain_legend_bot-1*%
%LPD*%
G54D23*
X00817Y-01056D02*
X00845Y-01028D01*
X00817Y-01056D02*
X00808Y-01047D01*
X00805Y-01041*
Y-01036*
X00806Y-01032*
X00809Y-01027*
X00816Y-0102*
X00821Y-01017*
X00825Y-01016*
X0083*
X00836Y-01019*
X00845Y-01028*
X00799Y-00982D02*
X00782Y-0102D01*
X0082Y-01003*
X00807Y-01009D02*
X00794Y-00995D01*
X00765Y-01003D02*
X00792Y-00976D01*
X00765Y-01003D02*
X00774Y-00957D01*
X00746Y-00985D02*
X00774Y-00957D01*
X00738Y-00977D02*
X00766Y-00949D01*
X00715Y-00954D02*
X00732Y-00971D01*
X0076Y-00943*
X00743Y-00926*
X00746Y-00958D02*
X00735Y-00947D01*
X00711Y-00949D02*
X00738Y-00922D01*
X00723Y-00906*
X0067Y-00909D02*
X00698Y-00881D01*
X0067Y-00909D02*
X00658Y-00897D01*
X00655Y-00891*
Y-00889*
X00657Y-00885*
X00659Y-00882*
X00663Y-00881*
X00666*
X00671Y-00883*
X00683Y-00895*
X00674Y-00886D02*
X00679Y-00862D01*
X00645Y-00884D02*
X00665Y-00864D01*
X00668Y-00859*
Y-00853*
X00665Y-00848*
X00662Y-00845*
X00657Y-00843*
X00652*
X00646Y-00845*
X00626Y-00865*
X00619Y-00858D02*
X00647Y-0083D01*
X00594Y-00833D02*
X00641Y-00824D01*
X00613Y-00852D02*
X00594Y-00833D01*
X00641Y-00824D02*
X00622Y-00805D01*
X00566Y-00805D02*
X00594Y-00777D01*
X00566Y-00805D02*
X00554Y-00793D01*
X00552Y-00788*
Y-00785*
X00553Y-00781*
X00556Y-00779*
X0056Y-00777*
X00562*
X00568Y-0078*
X00579Y-00792*
X0057Y-00783D02*
X00576Y-00759D01*
X00851Y-00996D02*
X00872Y-00975D01*
X00877Y-00972*
X0088*
X00884Y-00973*
X00886Y-00976*
X00888Y-0098*
Y-00983*
X00885Y-00988*
X00882Y-00991*
X00843Y-00989D02*
X00863Y-00969D01*
X00866Y-00964*
Y-00958*
X00863Y-00953*
X00861Y-0095*
X00855Y-00948*
X0085*
X00845Y-0095*
X00825Y-0097*
X00824Y-00913D02*
X00807Y-00952D01*
X00845Y-00935*
X00832Y-0094D02*
X00818Y-00927D01*
X00789Y-00935D02*
X00817Y-00907D01*
X00789Y-00935D02*
X00799Y-00888D01*
X00771Y-00916D02*
X00799Y-00888D01*
X00741Y-00887D02*
X00769Y-00859D01*
X00741Y-00887D02*
X00729Y-00875D01*
X00727Y-00869*
Y-00867*
X00728Y-00863*
X00731Y-0086*
X00735Y-00859*
X00737*
X00743Y-00861*
X00755Y-00873*
X00745Y-00864D02*
X00751Y-0084D01*
X00709Y-00854D02*
X00713Y-00855D01*
X00718*
X00722Y-00854*
X00727Y-00851*
X00734Y-00845*
X00736Y-00839*
X00738Y-00835*
Y-0083*
X00736Y-00826*
X00731Y-00821*
X00727Y-00819*
X00722*
X00718Y-00821*
X00713Y-00823*
X00706Y-0083*
X00703Y-00835*
X00702Y-00839*
Y-00845*
X00703Y-00849*
X00709Y-00854*
X00689Y-00834D02*
X00717Y-00806D01*
X00689Y-00834D02*
X0068Y-00825D01*
X00677Y-0082*
Y-00814*
X00678Y-0081*
X00681Y-00805*
X00687Y-00798*
X00693Y-00796*
X00697Y-00794*
X00702*
X00707Y-00797*
X00717Y-00806*
X00664Y-00809D02*
X00692Y-00782D01*
X00664Y-00809D02*
X00652Y-00797D01*
X00649Y-00792*
Y-00789*
X00651Y-00786*
X00653Y-00783*
X00657Y-00782*
X0066*
X00665Y-00784*
X00677Y-00796*
X00668Y-00787D02*
X00673Y-00763D01*
X00639Y-00785D02*
X00667Y-00757D01*
X0062Y-00752D02*
X00619Y-00756D01*
Y-00762*
X0062Y-00765*
X00625Y-00771*
X00629Y-00772*
X00635*
X00639Y-00771*
X00644Y-00768*
X00651Y-00762*
X00653Y-00756*
X00655Y-00752*
Y-00747*
X00653Y-00743*
X00648Y-00738*
X00644Y-00736*
X00639*
X00635Y-00738*
X00631Y-00742*
X00637Y-00748D02*
X00631Y-00742D01*
X00607Y-00753D02*
X00627Y-00733D01*
X0063Y-00727*
Y-00722*
X00627Y-00717*
X00624Y-00714*
X00619Y-00711*
X00614*
X00609Y-00714*
X00589Y-00734*
X00564Y-00709D02*
X00581Y-00726D01*
X00609Y-00698*
X00592Y-00681*
X00594Y-00713D02*
X00584Y-00702D01*
X00541Y-00686D02*
X00587Y-00677D01*
X00559Y-00704D02*
X00541Y-00686D01*
X00587Y-00677D02*
X00568Y-00658D01*
X00512Y-00658D02*
X0054Y-0063D01*
X00512Y-00658D02*
X005Y-00646D01*
X00498Y-00641*
Y-00638*
X00499Y-00634*
X00502Y-00631*
X00506Y-0063*
X00508*
X00514Y-00633*
X00526Y-00644*
X00516Y-00635D02*
X00522Y-00611D01*
X00896Y-0094D02*
Y-00945D01*
X00899Y-0095*
X00904Y-00956*
X00909Y-00958*
X00915*
X00917Y-00956*
X00918Y-00952*
Y-00949*
X00917Y-00945*
X00912Y-00935*
X00911Y-00931*
Y-00928*
X00912Y-00924*
X00916Y-0092*
X00921*
X00926Y-00923*
X00932Y-00928*
X00934Y-00933*
Y-00938*
X00892Y-00889D02*
X00875Y-00927D01*
X00914Y-0091*
X009Y-00915D02*
X00887Y-00902D01*
X00858Y-0091D02*
X00886Y-00882D01*
X00858Y-0091D02*
X00867Y-00863D01*
X00839Y-00891D02*
X00867Y-00863D01*
X00823Y-00874D02*
X0085Y-00846D01*
X00832Y-00884D02*
X00813Y-00865D01*
X0081Y-00862D02*
X00838Y-00834D01*
X00811Y-00807D02*
X00794Y-00845D01*
X00832Y-00828*
X00819Y-00833D02*
X00805Y-0082D01*
X00763Y-00802D02*
X00762Y-00806D01*
Y-00811*
X00763Y-00815*
X00768Y-0082*
X00772Y-00822*
X00778*
X00782Y-0082*
X00787Y-00818*
X00794Y-00811*
X00796Y-00806*
X00798Y-00802*
Y-00796*
X00796Y-00792*
X00791Y-00787*
X00787Y-00786*
X00782*
X00778Y-00787*
X00774Y-00791*
X0078Y-00798D02*
X00774Y-00791D01*
X00742Y-00794D02*
X00746Y-00795D01*
X00751*
X00755Y-00794*
X00761Y-00791*
X00767Y-00785*
X0077Y-00779*
X00771Y-00775*
Y-0077*
X0077Y-00766*
X00765Y-00761*
X00761Y-0076*
X00755*
X00751Y-00761*
X00746Y-00764*
X0074Y-0077*
X00737Y-00775*
X00736Y-00779*
Y-00785*
X00737Y-00789*
X00742Y-00794*
X00687Y-00726D02*
X00686Y-0073D01*
Y-00735*
X00687Y-00739*
X00693Y-00744*
X00697Y-00746*
X00702*
X00706Y-00744*
X00711Y-00742*
X00718Y-00735*
X0072Y-0073*
X00722Y-00726*
Y-00721*
X0072Y-00717*
X00715Y-00711*
X00711Y-0071*
X00706*
X00702Y-00711*
X00665Y-00717D02*
X00669Y-00718D01*
X00674*
X00678Y-00717*
X00683Y-00714*
X0069Y-00707*
X00693Y-00702*
X00694Y-00698*
Y-00693*
X00693Y-00689*
X00687Y-00684*
X00683Y-00682*
X00678*
X00674Y-00684*
X00669Y-00686*
X00662Y-00693*
X0066Y-00698*
X00658Y-00702*
Y-00707*
X0066Y-00711*
X00665Y-00717*
X00645Y-00697D02*
X00673Y-00669D01*
X00645Y-00697D02*
X00633Y-00685D01*
X00631Y-0068*
Y-00677*
X00632Y-00673*
X00635Y-0067*
X00639Y-00669*
X00641*
X00647Y-00672*
X00658Y-00684*
X00649Y-00674D02*
X00654Y-00651D01*
X00611Y-00663D02*
X00639Y-00635D01*
X0062Y-00672D02*
X00602Y-00654D01*
X00581Y-00633D02*
X00599Y-0065D01*
X00626Y-00623*
X00609Y-00605*
X00612Y-00637D02*
X00601Y-00626D01*
X00562Y-00606D02*
Y-00611D01*
X00565Y-00617*
X0057Y-00622*
X00575Y-00624*
X00581*
X00583Y-00622*
X00585Y-00618*
Y-00615*
X00583Y-00611*
X00578Y-00601*
X00577Y-00597*
Y-00594*
X00578Y-0059*
X00582Y-00586*
X00587*
X00593Y-00589*
X00598Y-00594*
X00601Y-00599*
Y-00605*
X00521Y-00573D02*
X00549Y-00545D01*
X0053Y-00582D02*
X00511Y-00563D01*
M02*