%FSTAX23Y23*%
%MOIN*%
%SFA1B1*%

%IPPOS*%
%ADD33C,0.010000*%
%ADD34C,0.005905*%
%ADD35C,0.006000*%
%LNstrain_mechanical_1-1*%
%LPD*%
G54D33*
X0Y-01495D02*
X0207D01*
X0Y00005D02*
X0207D01*
Y-01495D02*
Y00005D01*
X0Y-01495D02*
Y00005D01*
X00845Y-0135D02*
X00865Y-01343D01*
X00845Y-0135D02*
X00865Y-01356D01*
X0108D02*
X011Y-0135D01*
X0108Y-01343D02*
X011Y-0135D01*
X00845D02*
X00915D01*
X01026D02*
X011D01*
X00845Y-0139D02*
Y-0134D01*
X011Y-0139D02*
Y-0134D01*
X-00035Y-00935D02*
X-00021Y-00974D01*
X-00048D02*
X-00035Y-00935D01*
X-00048Y-01455D02*
X-00035Y-01495D01*
X-00021Y-01455*
X-00035Y-01161D02*
Y-00935D01*
Y-01495D02*
Y-0129D01*
X-00045Y-00935D02*
X00066D01*
X-00045Y-01495D02*
X-0001D01*
X-00048Y-00895D02*
X-00035Y-00935D01*
X-00021Y-00895*
X-00035Y-00535D02*
X-00021Y-00574D01*
X-00048D02*
X-00035Y-00535D01*
Y-00935D02*
Y-00795D01*
Y-00666D02*
Y-00535D01*
X-00045Y-00935D02*
X00066D01*
X-00045Y-00535D02*
X00066D01*
X0Y-01525D02*
X00039Y-01511D01*
X0Y-01525D02*
X00039Y-01538D01*
X0203D02*
X0207Y-01525D01*
X0203Y-01511D02*
X0207Y-01525D01*
X0D02*
X00952D01*
X01085D02*
X0207D01*
X0Y-01535D02*
Y-01505D01*
X0207Y-01535D02*
Y-01505D01*
X021Y00005D02*
X02113Y-00034D01*
X02086D02*
X021Y00005D01*
X02086Y-01455D02*
X021Y-01495D01*
X02113Y-01455*
X021Y-00694D02*
Y00005D01*
Y-01495D02*
Y-00827D01*
X0208Y00005D02*
X0211D01*
X0208Y-01495D02*
X0211D01*
X01093Y-0137D02*
X011Y-0139D01*
X01106Y-0137*
X011Y-0015D02*
X01106Y-0017D01*
X01093D02*
X011Y-0015D01*
Y-0139D02*
Y-00735D01*
Y-00551D02*
Y-0015D01*
X00858Y-0139D02*
X0111D01*
X00858Y-0015D02*
X0111D01*
X0023Y-00055D02*
X0025Y-00048D01*
X0023Y-00055D02*
X0025Y-00061D01*
X0108D02*
X011Y-00055D01*
X0108Y-00048D02*
X011Y-00055D01*
X0023D02*
X0061D01*
X00743D02*
X011D01*
X0023Y-00065D02*
Y-00035D01*
X011Y-00065D02*
Y-00035D01*
X0023Y-00179D02*
X0025Y-00172D01*
X0023Y-00179D02*
X0025Y-00185D01*
X00428D02*
X00448Y-00179D01*
X00428Y-00172D02*
X00448Y-00179D01*
X0023D02*
X0028D01*
X00385D02*
X00448D01*
X0023Y-00189D02*
Y-00055D01*
X00448Y-00189D02*
Y-00169D01*
X0085Y-0013D02*
X0087Y-00123D01*
X0085Y-0013D02*
X0087Y-00136D01*
X0108D02*
X011Y-0013D01*
X0108Y-00123D02*
X011Y-0013D01*
X0085D02*
X0093D01*
X01035D02*
X011D01*
X0085Y-00175D02*
Y-0012D01*
X011Y-0014D02*
Y-00055D01*
G54D34*
X017Y-00787D02*
Y-00747D01*
X01692Y-0074*
X01676*
X01668Y-00747*
Y-00787*
X01652Y-00779D02*
X01644Y-00787D01*
X01629*
X01621Y-00779*
Y-00771*
X01629Y-00763*
X01637*
X01629*
X01621Y-00755*
Y-00747*
X01629Y-0074*
X01644*
X01652Y-00747*
G54D35*
X0188Y-01304D02*
Y-01265D01*
X01853*
X0184D02*
Y-01304D01*
X01826Y-01291*
X01813Y-01304*
Y-01265*
X018Y-01304D02*
X01773D01*
Y-01298*
X018Y-01271*
Y-01265*
X0176Y-01298D02*
X01753Y-01304D01*
X0174*
X01733Y-01298*
Y-01291*
X0174Y-01284*
X01733Y-01278*
Y-01271*
X0174Y-01265*
X01753*
X0176Y-01271*
Y-01278*
X01753Y-01284*
X0176Y-01291*
Y-01298*
X01753Y-01284D02*
X0174D01*
X0172Y-01298D02*
X01713Y-01304D01*
X017*
X01693Y-01298*
Y-01271*
X017Y-01265*
X01713*
X0172Y-01271*
Y-01298*
X01653Y-01304D02*
X0168D01*
Y-01284*
X01666Y-01291*
X0166*
X01653Y-01284*
Y-01271*
X0166Y-01265*
X01673*
X0168Y-01271*
X0095Y-01329D02*
X0094Y-01334D01*
X00931Y-01344*
Y-01354*
X00935Y-01359*
X00945*
X0095Y-01354*
Y-01349*
X00945Y-01344*
X00931*
X0096Y-01359D02*
Y-01339D01*
X00965*
X0097Y-01344*
Y-01359*
Y-01344*
X00975Y-01339*
X0098Y-01344*
Y-01359*
X0099D02*
Y-01339D01*
X00995*
X01Y-01344*
Y-01359*
Y-01344*
X01005Y-01339*
X0101Y-01344*
Y-01359*
X-00026Y-01274D02*
Y-01264D01*
Y-01269*
X-00053*
X-00048Y-01274*
X-00026Y-01237D02*
X-00053D01*
X-00039Y-01251*
Y-01232*
X-00026Y-01223D02*
X-00044D01*
Y-01218*
X-00039Y-01214*
X-00026*
X-00039*
X-00044Y-01209*
X-00039Y-01205*
X-00026*
Y-01195D02*
X-00044D01*
Y-01191*
X-00039Y-01186*
X-00026*
X-00039*
X-00044Y-01182*
X-00039Y-01177*
X-00026*
X-00021Y-00779D02*
Y-00769D01*
Y-00774*
X-00048*
X-00043Y-00779*
Y-00756D02*
X-00048Y-00751D01*
Y-00742*
X-00043Y-00737*
X-00025*
X-00021Y-00742*
Y-00751*
X-00025Y-00756*
X-00043*
X-00021Y-00728D02*
X-00039D01*
Y-00723*
X-00034Y-00719*
X-00021*
X-00034*
X-00039Y-00714*
X-00034Y-0071*
X-00021*
Y-007D02*
X-00039D01*
Y-00696*
X-00034Y-00691*
X-00021*
X-00034*
X-00039Y-00687*
X-00034Y-00682*
X-00021*
X00986Y-01517D02*
X00968D01*
Y-01531*
X00977Y-01526*
X00982*
X00986Y-01531*
Y-0154*
X00982Y-01544*
X00973*
X00968Y-0154*
X00996Y-01521D02*
X01Y-01517D01*
X01009*
X01014Y-01521*
Y-01526*
X01009Y-01531*
X01005*
X01009*
X01014Y-01535*
Y-0154*
X01009Y-01544*
X01*
X00996Y-0154*
X01023Y-01544D02*
Y-01526D01*
X01028*
X01032Y-01531*
Y-01544*
Y-01531*
X01037Y-01526*
X01041Y-01531*
Y-01544*
X01051D02*
Y-01526D01*
X01055*
X0106Y-01531*
Y-01544*
Y-01531*
X01064Y-01526*
X01069Y-01531*
Y-01544*
X02096Y-00811D02*
X02092Y-00806D01*
Y-00797*
X02096Y-00793*
X02101*
X02106Y-00797*
Y-00802*
Y-00797*
X0211Y-00793*
X02115*
X02119Y-00797*
Y-00806*
X02115Y-00811*
X02096Y-00783D02*
X02092Y-00779D01*
Y-0077*
X02096Y-00765*
X02101*
X02106Y-0077*
X0211Y-00765*
X02115*
X02119Y-0077*
Y-00779*
X02115Y-00783*
X0211*
X02106Y-00779*
X02101Y-00783*
X02096*
X02106Y-00779D02*
Y-0077D01*
X02119Y-00756D02*
X02101D01*
Y-00751*
X02106Y-00747*
X02119*
X02106*
X02101Y-00742*
X02106Y-00738*
X02119*
Y-00728D02*
X02101D01*
Y-00724*
X02106Y-00719*
X02119*
X02106*
X02101Y-00715*
X02106Y-0071*
X02119*
X01086Y-00719D02*
X01081Y-00714D01*
Y-00705*
X01086Y-007*
X0109*
X01095Y-00705*
Y-00709*
Y-00705*
X01099Y-007*
X01104*
X01109Y-00705*
Y-00714*
X01104Y-00719*
X01109Y-00691D02*
Y-00682D01*
Y-00686*
X01081*
X01086Y-00691*
X01113Y-00663D02*
X01109Y-00659D01*
X01104*
Y-00663*
X01109*
Y-00659*
X01113Y-00663*
X01118Y-00668*
X01081Y-00622D02*
Y-0064D01*
X01095*
X0109Y-00631*
Y-00627*
X01095Y-00622*
X01104*
X01109Y-00627*
Y-00636*
X01104Y-0064*
X01109Y-00613D02*
X0109D01*
Y-00608*
X01095Y-00604*
X01109*
X01095*
X0109Y-00599*
X01095Y-00595*
X01109*
Y-00585D02*
X0109D01*
Y-00581*
X01095Y-00576*
X01109*
X01095*
X0109Y-00572*
X01095Y-00567*
X01109*
X00644Y-00074D02*
X00626D01*
X00644Y-00055*
Y-00051*
X00639Y-00046*
X0063*
X00626Y-00051*
X00671Y-00074D02*
X00653D01*
X00671Y-00055*
Y-00051*
X00667Y-00046*
X00658*
X00653Y-00051*
X00681Y-00074D02*
Y-00055D01*
X00685*
X0069Y-0006*
Y-00074*
Y-0006*
X00694Y-00055*
X00699Y-0006*
Y-00074*
X00708D02*
Y-00055D01*
X00713*
X00717Y-0006*
Y-00074*
Y-0006*
X00722Y-00055*
X00727Y-0006*
Y-00074*
X00314Y-00161D02*
X00305Y-00166D01*
X00296Y-00175*
Y-00184*
X003Y-00189*
X00309*
X00314Y-00184*
Y-00179*
X00309Y-00175*
X00296*
X00323Y-00189D02*
Y-0017D01*
X00328*
X00332Y-00175*
Y-00189*
Y-00175*
X00337Y-0017*
X00341Y-00175*
Y-00189*
X00351D02*
Y-0017D01*
X00355*
X0036Y-00175*
Y-00189*
Y-00175*
X00364Y-0017*
X00369Y-00175*
Y-00189*
X00964Y-00111D02*
X00955Y-00116D01*
X00946Y-00125*
Y-00134*
X0095Y-00139*
X00959*
X00964Y-00134*
Y-00129*
X00959Y-00125*
X00946*
X00973Y-00139D02*
Y-0012D01*
X00978*
X00982Y-00125*
Y-00139*
Y-00125*
X00987Y-0012*
X00991Y-00125*
Y-00139*
X01001D02*
Y-0012D01*
X01005*
X0101Y-00125*
Y-00139*
Y-00125*
X01014Y-0012*
X01019Y-00125*
Y-00139*
M02*