G04*
G04 #@! TF.GenerationSoftware,Altium Limited,Altium Designer,23.11.1 (41)*
G04*
G04 Layer_Color=65535*
%FSLAX44Y44*%
%MOMM*%
G71*
G04*
G04 #@! TF.SameCoordinates,5E353D0A-FD7C-4BEC-B3A5-00601FCEE480*
G04*
G04*
G04 #@! TF.FilePolarity,Positive*
G04*
G01*
G75*
%ADD10C,0.2500*%
%ADD11C,0.2000*%
%ADD12C,0.6000*%
%ADD13C,0.1270*%
%ADD14C,0.1778*%
G36*
X22973Y-16739D02*
X23068D01*
Y-16930D01*
X23163D01*
Y-17501D01*
X23259D01*
Y-18073D01*
X23354D01*
Y-18644D01*
X23449D01*
Y-19120D01*
X23544D01*
Y-19597D01*
X23640D01*
Y-20073D01*
X23735D01*
Y-20549D01*
X23830D01*
Y-20930D01*
X23925D01*
Y-21311D01*
X24021D01*
Y-21787D01*
X24116D01*
Y-22263D01*
X24211D01*
Y-22644D01*
X24306D01*
Y-23025D01*
X24402D01*
Y-23310D01*
X24497D01*
Y-23596D01*
X24592D01*
Y-23882D01*
X24687D01*
Y-24168D01*
X24782D01*
Y-24453D01*
X24878D01*
Y-24739D01*
X24973D01*
Y-25025D01*
X25068D01*
Y-25310D01*
X25163D01*
Y-25596D01*
X25259D01*
Y-25882D01*
X25354D01*
Y-26072D01*
X25449D01*
Y-26358D01*
X25544D01*
Y-26644D01*
X25640D01*
Y-26834D01*
X25735D01*
Y-27025D01*
X25830D01*
Y-27215D01*
X25925D01*
Y-27501D01*
X26020D01*
Y-27691D01*
X26116D01*
Y-27882D01*
X26211D01*
Y-27977D01*
X26306D01*
Y-28167D01*
X26401D01*
Y-28453D01*
X26497D01*
Y-28644D01*
X26592D01*
Y-28834D01*
X26687D01*
Y-28929D01*
X26782D01*
Y-29120D01*
X26878D01*
Y-29310D01*
X26973D01*
Y-29405D01*
X27068D01*
Y-29596D01*
X27163D01*
Y-29786D01*
X27258D01*
Y-29882D01*
X27354D01*
Y-29977D01*
X27449D01*
Y-30167D01*
X27544D01*
Y-30262D01*
X27639D01*
Y-30358D01*
X27735D01*
Y-30548D01*
X27830D01*
Y-30643D01*
X27925D01*
Y-30834D01*
X28020D01*
Y-30929D01*
X28115D01*
Y-31024D01*
X28211D01*
Y-31215D01*
X28306D01*
Y-31310D01*
X28401D01*
Y-31405D01*
X28496D01*
Y-31596D01*
X28592D01*
Y-31691D01*
X28687D01*
Y-31881D01*
X28782D01*
Y-31977D01*
X28877D01*
Y-32072D01*
X28973D01*
Y-32262D01*
X29068D01*
Y-32358D01*
X29163D01*
Y-32453D01*
X29258D01*
Y-32643D01*
X29354D01*
Y-32738D01*
X29449D01*
Y-32834D01*
X29544D01*
Y-32929D01*
X29639D01*
Y-33119D01*
X29734D01*
Y-33215D01*
X29830D01*
Y-33310D01*
X29925D01*
Y-33405D01*
X30020D01*
Y-33500D01*
X30115D01*
Y-33596D01*
X30211D01*
Y-33691D01*
X30306D01*
Y-33786D01*
X30401D01*
Y-33881D01*
X30496D01*
Y-33977D01*
X30592D01*
Y-34072D01*
X30687D01*
Y-34167D01*
X30782D01*
Y-34262D01*
X30877D01*
Y-34358D01*
X30972D01*
Y-34453D01*
X31163D01*
Y-34548D01*
X31258D01*
Y-34643D01*
X31353D01*
Y-34738D01*
X31449D01*
Y-34834D01*
X31544D01*
Y-34929D01*
X31639D01*
Y-35024D01*
X31830D01*
Y-35119D01*
X31925D01*
Y-35215D01*
X32020D01*
Y-35310D01*
X32211D01*
Y-35405D01*
X32306D01*
Y-35500D01*
X32496D01*
Y-35596D01*
X32592D01*
Y-35691D01*
X32782D01*
Y-35786D01*
X32877D01*
Y-35881D01*
X33068D01*
Y-35976D01*
X33163D01*
Y-36072D01*
X33258D01*
Y-36167D01*
X33449D01*
Y-36262D01*
X33544D01*
Y-36357D01*
X33734D01*
Y-36453D01*
X33830D01*
Y-36548D01*
X33925D01*
Y-36643D01*
X34115D01*
Y-36738D01*
X34210D01*
Y-36834D01*
X34306D01*
Y-36929D01*
X34401D01*
Y-37024D01*
X34591D01*
Y-37119D01*
X34782D01*
Y-37215D01*
X34972D01*
Y-37310D01*
X35163D01*
Y-37405D01*
X35353D01*
Y-37500D01*
X35544D01*
Y-37595D01*
X35734D01*
Y-37691D01*
X35925D01*
Y-37786D01*
X36115D01*
Y-37881D01*
X36305D01*
Y-37976D01*
X36496D01*
Y-38072D01*
X36686D01*
Y-38167D01*
X36877D01*
Y-38262D01*
X37067D01*
Y-38357D01*
X37353D01*
Y-38452D01*
X37544D01*
Y-38548D01*
X37734D01*
Y-38643D01*
X38020D01*
Y-38738D01*
X38210D01*
Y-38833D01*
X38496D01*
Y-38929D01*
X38782D01*
Y-39024D01*
X39162D01*
Y-39119D01*
X39448D01*
Y-39214D01*
X39734D01*
Y-39310D01*
X40020D01*
Y-39405D01*
X40305D01*
Y-39500D01*
X40591D01*
Y-39595D01*
X40877D01*
Y-39690D01*
X41162D01*
Y-39786D01*
X41448D01*
Y-39881D01*
X41829D01*
Y-39976D01*
X42210D01*
Y-40071D01*
X42686D01*
Y-40167D01*
X43067D01*
Y-40262D01*
X43543D01*
Y-40357D01*
X44019D01*
Y-40452D01*
X44591D01*
Y-40548D01*
X44972D01*
Y-40643D01*
X45448D01*
Y-40738D01*
X45924D01*
Y-40833D01*
X46495D01*
Y-40929D01*
X47162D01*
Y-41024D01*
X47733D01*
Y-41119D01*
X47924D01*
Y-41214D01*
X48019D01*
Y-41309D01*
X47924D01*
Y-41405D01*
X45162D01*
Y-41309D01*
X44876D01*
Y-41214D01*
X44591D01*
Y-41119D01*
X44305D01*
Y-41024D01*
X43638D01*
Y-40929D01*
X42591D01*
Y-41024D01*
X42686D01*
Y-41119D01*
X42877D01*
Y-41309D01*
X42591D01*
Y-41405D01*
X40210D01*
Y-41309D01*
X40115D01*
Y-41214D01*
X39924D01*
Y-41119D01*
X39829D01*
Y-41024D01*
X39639D01*
Y-40929D01*
X39543D01*
Y-40833D01*
X39448D01*
Y-40738D01*
X39258D01*
Y-40643D01*
X39162D01*
Y-40548D01*
X38686D01*
Y-40452D01*
X37734D01*
Y-40357D01*
X37163D01*
Y-40452D01*
X37258D01*
Y-40643D01*
X37353D01*
Y-40738D01*
X37448D01*
Y-40833D01*
X37544D01*
Y-40929D01*
X37734D01*
Y-41024D01*
X37829D01*
Y-41119D01*
X37924D01*
Y-41405D01*
X35353D01*
Y-41309D01*
X35163D01*
Y-41119D01*
X35068D01*
Y-41024D01*
X34972D01*
Y-40929D01*
X34877D01*
Y-40738D01*
X34782D01*
Y-40643D01*
X34687D01*
Y-40452D01*
X34591D01*
Y-40357D01*
X34496D01*
Y-40262D01*
X34401D01*
Y-40167D01*
X34306D01*
Y-40071D01*
X33734D01*
Y-39976D01*
X32782D01*
Y-39881D01*
X32401D01*
Y-40167D01*
X32496D01*
Y-40357D01*
X32592D01*
Y-40548D01*
X32687D01*
Y-40738D01*
X32782D01*
Y-40929D01*
X32877D01*
Y-41024D01*
X32972D01*
Y-41214D01*
X33068D01*
Y-41309D01*
X32972D01*
Y-41405D01*
X30306D01*
Y-41309D01*
X30211D01*
Y-41024D01*
X30115D01*
Y-40738D01*
X30020D01*
Y-40452D01*
X29925D01*
Y-40167D01*
X29830D01*
Y-39976D01*
X29734D01*
Y-39690D01*
X29639D01*
Y-39595D01*
X28877D01*
Y-39500D01*
X27925D01*
Y-39405D01*
X27735D01*
Y-39500D01*
X27639D01*
Y-39881D01*
X27735D01*
Y-40262D01*
X27830D01*
Y-40738D01*
X27925D01*
Y-41119D01*
X28020D01*
Y-41309D01*
X27925D01*
Y-41405D01*
X25354D01*
Y-41309D01*
X25259D01*
Y-40929D01*
X25163D01*
Y-40071D01*
X25068D01*
Y-39310D01*
X24973D01*
Y-39119D01*
X24021D01*
Y-39024D01*
X22973D01*
Y-38929D01*
X22782D01*
Y-36262D01*
X23163D01*
Y-36357D01*
X23544D01*
Y-36453D01*
X23925D01*
Y-36548D01*
X24497D01*
Y-36643D01*
X24687D01*
Y-36548D01*
X24782D01*
Y-36357D01*
X24687D01*
Y-35405D01*
X24592D01*
Y-34738D01*
X24497D01*
Y-34643D01*
X24402D01*
Y-34548D01*
X24116D01*
Y-34453D01*
X23830D01*
Y-34358D01*
X23449D01*
Y-34262D01*
X23163D01*
Y-34167D01*
X22878D01*
Y-34072D01*
X22782D01*
Y-31405D01*
X23068D01*
Y-31500D01*
X23259D01*
Y-31596D01*
X23354D01*
Y-31691D01*
X23544D01*
Y-31786D01*
X23830D01*
Y-31881D01*
X23925D01*
Y-31977D01*
X24211D01*
Y-31881D01*
X24306D01*
Y-31691D01*
X24211D01*
Y-30739D01*
X24116D01*
Y-30072D01*
X24021D01*
Y-29977D01*
X23925D01*
Y-29882D01*
X23830D01*
Y-29786D01*
X23640D01*
Y-29691D01*
X23544D01*
Y-29596D01*
X23354D01*
Y-29501D01*
X23259D01*
Y-29405D01*
X23163D01*
Y-29310D01*
X22973D01*
Y-29215D01*
X22878D01*
Y-29120D01*
X22782D01*
Y-26453D01*
X22973D01*
Y-26548D01*
X23068D01*
Y-26644D01*
X23163D01*
Y-26739D01*
X23259D01*
Y-26834D01*
X23354D01*
Y-26929D01*
X23449D01*
Y-27025D01*
X23544D01*
Y-27120D01*
X23640D01*
Y-27215D01*
X23735D01*
Y-27120D01*
X23830D01*
Y-26929D01*
X23735D01*
Y-25977D01*
X23640D01*
Y-25310D01*
X23544D01*
Y-25215D01*
X23449D01*
Y-25025D01*
X23354D01*
Y-24929D01*
X23259D01*
Y-24834D01*
X23163D01*
Y-24644D01*
X23068D01*
Y-24548D01*
X22973D01*
Y-24358D01*
X22878D01*
Y-24263D01*
X22782D01*
Y-21596D01*
X22878D01*
Y-21501D01*
X22973D01*
Y-21596D01*
X23068D01*
Y-21787D01*
X23163D01*
Y-21977D01*
X23259D01*
Y-21406D01*
X23163D01*
Y-20454D01*
X23068D01*
Y-20073D01*
X22973D01*
Y-19787D01*
X22878D01*
Y-19597D01*
X22782D01*
Y-16739D01*
X22878D01*
Y-16644D01*
X22973D01*
Y-16739D01*
D02*
G37*
G36*
X9640Y-33024D02*
X6688D01*
Y-33119D01*
X6212D01*
Y-33215D01*
X6022D01*
Y-33310D01*
X5926D01*
Y-33500D01*
X5831D01*
Y-33596D01*
X5736D01*
Y-33977D01*
X5641D01*
Y-34262D01*
X5736D01*
Y-34643D01*
X5831D01*
Y-34834D01*
X5926D01*
Y-34929D01*
X6022D01*
Y-35024D01*
X6212D01*
Y-35119D01*
X6593D01*
Y-35215D01*
X9640D01*
Y-35691D01*
X9545D01*
Y-35786D01*
X6688D01*
Y-35691D01*
X6117D01*
Y-35596D01*
X5831D01*
Y-35500D01*
X5736D01*
Y-35405D01*
X5641D01*
Y-35310D01*
X5545D01*
Y-35215D01*
X5450D01*
Y-35119D01*
X5355D01*
Y-34929D01*
X5260D01*
Y-34643D01*
X5164D01*
Y-33596D01*
X5260D01*
Y-33310D01*
X5355D01*
Y-33119D01*
X5450D01*
Y-33024D01*
X5545D01*
Y-32929D01*
X5641D01*
Y-32834D01*
X5736D01*
Y-32738D01*
X5926D01*
Y-32643D01*
X6212D01*
Y-32548D01*
X9640D01*
Y-33024D01*
D02*
G37*
G36*
X9259Y-37215D02*
X9164D01*
Y-37310D01*
X8974D01*
Y-37405D01*
X8783D01*
Y-37500D01*
X8688D01*
Y-37595D01*
X8498D01*
Y-37691D01*
X8402D01*
Y-37786D01*
X8212D01*
Y-37881D01*
X8117D01*
Y-37976D01*
X7926D01*
Y-38072D01*
X7736D01*
Y-38167D01*
X7641D01*
Y-38262D01*
X7450D01*
Y-38357D01*
X7355D01*
Y-38452D01*
X7164D01*
Y-38548D01*
X7069D01*
Y-38643D01*
X6879D01*
Y-38738D01*
X6783D01*
Y-38833D01*
X6593D01*
Y-38929D01*
X6403D01*
Y-39119D01*
X9259D01*
Y-39690D01*
X5260D01*
Y-39024D01*
X5355D01*
Y-38929D01*
X5545D01*
Y-38833D01*
X5641D01*
Y-38738D01*
X5831D01*
Y-38643D01*
X6022D01*
Y-38548D01*
X6117D01*
Y-38452D01*
X6307D01*
Y-38357D01*
X6403D01*
Y-38262D01*
X6593D01*
Y-38167D01*
X6688D01*
Y-38072D01*
X6879D01*
Y-37976D01*
X6974D01*
Y-37881D01*
X7164D01*
Y-37786D01*
X7355D01*
Y-37691D01*
X7450D01*
Y-37595D01*
X7641D01*
Y-37500D01*
X7736D01*
Y-37405D01*
X7926D01*
Y-37310D01*
X8022D01*
Y-37215D01*
X8117D01*
Y-37119D01*
X5260D01*
Y-36548D01*
X9259D01*
Y-37215D01*
D02*
G37*
G36*
Y-41309D02*
X5260D01*
Y-40738D01*
X9259D01*
Y-41309D01*
D02*
G37*
G36*
X50495Y-42738D02*
X25259D01*
Y-42452D01*
X50495D01*
Y-42738D01*
D02*
G37*
G36*
X21925Y-43976D02*
X21830D01*
Y-44071D01*
X21640D01*
Y-14168D01*
X21925D01*
Y-43976D01*
D02*
G37*
G36*
X9259Y-42547D02*
X9164D01*
Y-42643D01*
X8879D01*
Y-42738D01*
X8593D01*
Y-42833D01*
X8402D01*
Y-42928D01*
X8117D01*
Y-43024D01*
X7831D01*
Y-43119D01*
X7545D01*
Y-43214D01*
X7260D01*
Y-43309D01*
X6974D01*
Y-43405D01*
X6688D01*
Y-43500D01*
X6403D01*
Y-43595D01*
X6117D01*
Y-43690D01*
X6022D01*
Y-43786D01*
X6212D01*
Y-43881D01*
X6498D01*
Y-43976D01*
X6783D01*
Y-44071D01*
X6974D01*
Y-44166D01*
X7260D01*
Y-44262D01*
X7545D01*
Y-44357D01*
X7736D01*
Y-44452D01*
X8022D01*
Y-44547D01*
X8307D01*
Y-44643D01*
X8593D01*
Y-44738D01*
X8783D01*
Y-44833D01*
X9069D01*
Y-44928D01*
X9259D01*
Y-45500D01*
X8879D01*
Y-45404D01*
X8688D01*
Y-45309D01*
X8402D01*
Y-45214D01*
X8117D01*
Y-45119D01*
X7926D01*
Y-45023D01*
X7641D01*
Y-44928D01*
X7450D01*
Y-44833D01*
X7164D01*
Y-44738D01*
X6879D01*
Y-44643D01*
X6593D01*
Y-44547D01*
X6403D01*
Y-44452D01*
X6117D01*
Y-44357D01*
X5926D01*
Y-44262D01*
X5641D01*
Y-44166D01*
X5450D01*
Y-44071D01*
X5260D01*
Y-43309D01*
X5545D01*
Y-43214D01*
X5831D01*
Y-43119D01*
X6117D01*
Y-43024D01*
X6307D01*
Y-42928D01*
X6593D01*
Y-42833D01*
X6783D01*
Y-42738D01*
X7069D01*
Y-42643D01*
X7355D01*
Y-42547D01*
X7545D01*
Y-42452D01*
X7831D01*
Y-42357D01*
X8117D01*
Y-42262D01*
X8402D01*
Y-42167D01*
X8593D01*
Y-42071D01*
X8879D01*
Y-41976D01*
X9164D01*
Y-41881D01*
X9259D01*
Y-42547D01*
D02*
G37*
G36*
X25640Y-46262D02*
X25735D01*
Y-46642D01*
X25354D01*
Y-46738D01*
X25163D01*
Y-46833D01*
X25068D01*
Y-46928D01*
X24973D01*
Y-47119D01*
X24878D01*
Y-47404D01*
X24973D01*
Y-47595D01*
X25068D01*
Y-47690D01*
X25163D01*
Y-47785D01*
X25354D01*
Y-47881D01*
X28687D01*
Y-48452D01*
X25354D01*
Y-48357D01*
X24973D01*
Y-48261D01*
X24782D01*
Y-48166D01*
X24687D01*
Y-48071D01*
X24592D01*
Y-47881D01*
X24497D01*
Y-47595D01*
X24402D01*
Y-46928D01*
X24497D01*
Y-46642D01*
X24592D01*
Y-46547D01*
X24687D01*
Y-46452D01*
X24782D01*
Y-46357D01*
X24878D01*
Y-46262D01*
X25068D01*
Y-46166D01*
X25640D01*
Y-46262D01*
D02*
G37*
G36*
X9259Y-49023D02*
X8688D01*
Y-46738D01*
X7641D01*
Y-48833D01*
X7545D01*
Y-48928D01*
X7069D01*
Y-48833D01*
X6974D01*
Y-46738D01*
X5831D01*
Y-49023D01*
X5736D01*
Y-49118D01*
X5260D01*
Y-46166D01*
X9259D01*
Y-49023D01*
D02*
G37*
G36*
X34782Y-46452D02*
X34877D01*
Y-48071D01*
X34782D01*
Y-48547D01*
X34687D01*
Y-48738D01*
X34591D01*
Y-48833D01*
X34496D01*
Y-48928D01*
X34401D01*
Y-49023D01*
X34306D01*
Y-49118D01*
X34115D01*
Y-49214D01*
X34020D01*
Y-49309D01*
X33734D01*
Y-49404D01*
X32211D01*
Y-49309D01*
X31925D01*
Y-49214D01*
X31734D01*
Y-49118D01*
X31639D01*
Y-49023D01*
X31544D01*
Y-48928D01*
X31449D01*
Y-48833D01*
X31353D01*
Y-48738D01*
X31258D01*
Y-48547D01*
X31163D01*
Y-48261D01*
X31068D01*
Y-46357D01*
X34782D01*
Y-46452D01*
D02*
G37*
G36*
X48495Y-49404D02*
X48400D01*
Y-49499D01*
X48019D01*
Y-47023D01*
X46686D01*
Y-49309D01*
X46210D01*
Y-47023D01*
X44781D01*
Y-49499D01*
X44686D01*
Y-49595D01*
X44400D01*
Y-49499D01*
X44305D01*
Y-46452D01*
X48495D01*
Y-49404D01*
D02*
G37*
G36*
X40305Y-46357D02*
X40686D01*
Y-46452D01*
X40972D01*
Y-46547D01*
X41162D01*
Y-46642D01*
X41258D01*
Y-46738D01*
X41353D01*
Y-46833D01*
X41448D01*
Y-46928D01*
X41543D01*
Y-47023D01*
X41639D01*
Y-47119D01*
X41734D01*
Y-47309D01*
X41829D01*
Y-47499D01*
X41924D01*
Y-47976D01*
X42020D01*
Y-48452D01*
X41924D01*
Y-48928D01*
X41829D01*
Y-49118D01*
X41734D01*
Y-49309D01*
X41639D01*
Y-49404D01*
X41543D01*
Y-49499D01*
X41448D01*
Y-49595D01*
X41258D01*
Y-49690D01*
X41162D01*
Y-49785D01*
X40972D01*
Y-49880D01*
X40781D01*
Y-49785D01*
X40686D01*
Y-49309D01*
X40877D01*
Y-49214D01*
X40972D01*
Y-49118D01*
X41162D01*
Y-49023D01*
X41258D01*
Y-48928D01*
X41353D01*
Y-48738D01*
X41448D01*
Y-48357D01*
X41543D01*
Y-48071D01*
X41448D01*
Y-47690D01*
X41353D01*
Y-47499D01*
X41258D01*
Y-47404D01*
X41162D01*
Y-47309D01*
X41067D01*
Y-47214D01*
X40972D01*
Y-47119D01*
X40877D01*
Y-47023D01*
X40686D01*
Y-46928D01*
X40305D01*
Y-46833D01*
X39353D01*
Y-46928D01*
X38972D01*
Y-47023D01*
X38686D01*
Y-47119D01*
X38591D01*
Y-47214D01*
X38496D01*
Y-47309D01*
X38401D01*
Y-47404D01*
X38305D01*
Y-47499D01*
X38210D01*
Y-47785D01*
X38115D01*
Y-48642D01*
X38210D01*
Y-48833D01*
X38305D01*
Y-48928D01*
X38401D01*
Y-49023D01*
X38496D01*
Y-49118D01*
X38591D01*
Y-49214D01*
X38782D01*
Y-49309D01*
X38972D01*
Y-49404D01*
X39162D01*
Y-49595D01*
X39067D01*
Y-49880D01*
X38686D01*
Y-49785D01*
X38496D01*
Y-49690D01*
X38305D01*
Y-49595D01*
X38210D01*
Y-49499D01*
X38020D01*
Y-49309D01*
X37924D01*
Y-49214D01*
X37829D01*
Y-49023D01*
X37734D01*
Y-48738D01*
X37639D01*
Y-47595D01*
X37734D01*
Y-47309D01*
X37829D01*
Y-47119D01*
X37924D01*
Y-47023D01*
X38020D01*
Y-46928D01*
X38115D01*
Y-46833D01*
X38210D01*
Y-46738D01*
X38305D01*
Y-46642D01*
X38496D01*
Y-46547D01*
X38686D01*
Y-46452D01*
X38877D01*
Y-46357D01*
X39353D01*
Y-46262D01*
X40305D01*
Y-46357D01*
D02*
G37*
G36*
X28211Y-49785D02*
X25544D01*
Y-49880D01*
X25259D01*
Y-49976D01*
X25163D01*
Y-50071D01*
X25068D01*
Y-50166D01*
X24973D01*
Y-50356D01*
X24878D01*
Y-51214D01*
X24973D01*
Y-51404D01*
X25068D01*
Y-51499D01*
X25259D01*
Y-51595D01*
X25449D01*
Y-51690D01*
X28211D01*
Y-52261D01*
X25735D01*
Y-52166D01*
X25259D01*
Y-52071D01*
X24973D01*
Y-51975D01*
X24878D01*
Y-51880D01*
X24782D01*
Y-51785D01*
X24687D01*
Y-51690D01*
X24592D01*
Y-51499D01*
X24497D01*
Y-51214D01*
X24402D01*
Y-50356D01*
X24497D01*
Y-49976D01*
X24592D01*
Y-49785D01*
X24687D01*
Y-49690D01*
X24782D01*
Y-49595D01*
X24878D01*
Y-49499D01*
X25068D01*
Y-49404D01*
X25449D01*
Y-49309D01*
X28211D01*
Y-49785D01*
D02*
G37*
G36*
X34782Y-50261D02*
X34877D01*
Y-52737D01*
X34782D01*
Y-52833D01*
X34496D01*
Y-52737D01*
X34401D01*
Y-50642D01*
X33258D01*
Y-52642D01*
X32782D01*
Y-50642D01*
X31544D01*
Y-52833D01*
X31449D01*
Y-52928D01*
X31163D01*
Y-52833D01*
X31068D01*
Y-50166D01*
X34782D01*
Y-50261D01*
D02*
G37*
G36*
X45448Y-50166D02*
X45543D01*
Y-50547D01*
X45448D01*
Y-50642D01*
X45162D01*
Y-50738D01*
X44972D01*
Y-50833D01*
X44876D01*
Y-51023D01*
X44781D01*
Y-51214D01*
X44686D01*
Y-52071D01*
X44781D01*
Y-52261D01*
X44876D01*
Y-52452D01*
X45067D01*
Y-52547D01*
X45543D01*
Y-52452D01*
X45638D01*
Y-52356D01*
X45733D01*
Y-52261D01*
X45829D01*
Y-51975D01*
X45924D01*
Y-51595D01*
X46019D01*
Y-51309D01*
X46115D01*
Y-51023D01*
X46210D01*
Y-50738D01*
X46305D01*
Y-50642D01*
X46400D01*
Y-50452D01*
X46591D01*
Y-50356D01*
X46686D01*
Y-50261D01*
X47448D01*
Y-50356D01*
X47638D01*
Y-50452D01*
X47733D01*
Y-50547D01*
X47829D01*
Y-50642D01*
X47924D01*
Y-50833D01*
X48019D01*
Y-51118D01*
X48114D01*
Y-51975D01*
X48019D01*
Y-52261D01*
X47924D01*
Y-52452D01*
X47829D01*
Y-52547D01*
X47733D01*
Y-52642D01*
X47638D01*
Y-52737D01*
X47543D01*
Y-52833D01*
X47257D01*
Y-52928D01*
X46972D01*
Y-52452D01*
X47162D01*
Y-52356D01*
X47352D01*
Y-52261D01*
X47448D01*
Y-52166D01*
X47543D01*
Y-51975D01*
X47638D01*
Y-51118D01*
X47543D01*
Y-50928D01*
X47448D01*
Y-50833D01*
X47352D01*
Y-50738D01*
X46876D01*
Y-50833D01*
X46781D01*
Y-50928D01*
X46686D01*
Y-51118D01*
X46591D01*
Y-51404D01*
X46495D01*
Y-51880D01*
X46400D01*
Y-52166D01*
X46305D01*
Y-52452D01*
X46210D01*
Y-52642D01*
X46115D01*
Y-52737D01*
X46019D01*
Y-52833D01*
X45924D01*
Y-52928D01*
X45733D01*
Y-53023D01*
X44972D01*
Y-52928D01*
X44781D01*
Y-52833D01*
X44686D01*
Y-52737D01*
X44591D01*
Y-52642D01*
X44496D01*
Y-52547D01*
X44400D01*
Y-52356D01*
X44305D01*
Y-52071D01*
X44210D01*
Y-51118D01*
X44305D01*
Y-50833D01*
X44400D01*
Y-50642D01*
X44496D01*
Y-50547D01*
X44591D01*
Y-50452D01*
X44686D01*
Y-50356D01*
X44781D01*
Y-50261D01*
X44972D01*
Y-50166D01*
X45257D01*
Y-50071D01*
X45448D01*
Y-50166D01*
D02*
G37*
G36*
X9259Y-52261D02*
X9164D01*
Y-52547D01*
X9069D01*
Y-52737D01*
X8974D01*
Y-52833D01*
X8879D01*
Y-52928D01*
X8783D01*
Y-53023D01*
X8498D01*
Y-53118D01*
X7831D01*
Y-53023D01*
X7545D01*
Y-52928D01*
X7450D01*
Y-52833D01*
X7355D01*
Y-52737D01*
X7260D01*
Y-52547D01*
X7164D01*
Y-52356D01*
X7069D01*
Y-52166D01*
X6879D01*
Y-52261D01*
X6783D01*
Y-52452D01*
X6688D01*
Y-52547D01*
X6498D01*
Y-52642D01*
X6403D01*
Y-52737D01*
X6212D01*
Y-52833D01*
X6117D01*
Y-52928D01*
X5926D01*
Y-53023D01*
X5831D01*
Y-53118D01*
X5641D01*
Y-53214D01*
X5545D01*
Y-53309D01*
X5355D01*
Y-53404D01*
X5260D01*
Y-52642D01*
X5355D01*
Y-52547D01*
X5545D01*
Y-52452D01*
X5641D01*
Y-52356D01*
X5831D01*
Y-52261D01*
X5926D01*
Y-52166D01*
X6117D01*
Y-52071D01*
X6212D01*
Y-51975D01*
X6403D01*
Y-51880D01*
X6498D01*
Y-51785D01*
X6688D01*
Y-51690D01*
X6783D01*
Y-51595D01*
X6879D01*
Y-51404D01*
X6974D01*
Y-50547D01*
X5260D01*
Y-49880D01*
X9259D01*
Y-52261D01*
D02*
G37*
G36*
X40115Y-50547D02*
X40401D01*
Y-50642D01*
X40686D01*
Y-50738D01*
X40781D01*
Y-50833D01*
X40972D01*
Y-50928D01*
X41067D01*
Y-51023D01*
X41162D01*
Y-51214D01*
X41258D01*
Y-51309D01*
X41353D01*
Y-51595D01*
X41448D01*
Y-51975D01*
X41543D01*
Y-52452D01*
X41448D01*
Y-52833D01*
X41353D01*
Y-53023D01*
X41258D01*
Y-53214D01*
X41162D01*
Y-53309D01*
X41067D01*
Y-53499D01*
X40877D01*
Y-53594D01*
X40781D01*
Y-53690D01*
X40591D01*
Y-53785D01*
X40401D01*
Y-53880D01*
X40115D01*
Y-53975D01*
X38972D01*
Y-53880D01*
X38686D01*
Y-53785D01*
X38496D01*
Y-53690D01*
X38305D01*
Y-53594D01*
X38210D01*
Y-53499D01*
X38115D01*
Y-53404D01*
X38020D01*
Y-53309D01*
X37924D01*
Y-53118D01*
X37829D01*
Y-52928D01*
X37734D01*
Y-52737D01*
X37639D01*
Y-51690D01*
X37734D01*
Y-51404D01*
X37829D01*
Y-51214D01*
X37924D01*
Y-51118D01*
X38020D01*
Y-51023D01*
X38115D01*
Y-50928D01*
X38210D01*
Y-50833D01*
X38305D01*
Y-50738D01*
X38496D01*
Y-50642D01*
X38686D01*
Y-50547D01*
X38972D01*
Y-50452D01*
X40115D01*
Y-50547D01*
D02*
G37*
G36*
X28211Y-53499D02*
X24973D01*
Y-53594D01*
X24878D01*
Y-55309D01*
X24497D01*
Y-53023D01*
X28211D01*
Y-53499D01*
D02*
G37*
G36*
X35258Y-55404D02*
X35353D01*
Y-55785D01*
X35258D01*
Y-55880D01*
X31068D01*
Y-55309D01*
X35258D01*
Y-55404D01*
D02*
G37*
G36*
X28211Y-56451D02*
X24497D01*
Y-55975D01*
X28211D01*
Y-56451D01*
D02*
G37*
G36*
X46781Y-53690D02*
X47067D01*
Y-53785D01*
X47257D01*
Y-53880D01*
X47448D01*
Y-53975D01*
X47543D01*
Y-54071D01*
X47638D01*
Y-54166D01*
X47733D01*
Y-54261D01*
X47829D01*
Y-54356D01*
X47924D01*
Y-54547D01*
X48019D01*
Y-54928D01*
X48114D01*
Y-55785D01*
X48019D01*
Y-55975D01*
X47924D01*
Y-56166D01*
X47829D01*
Y-56356D01*
X47733D01*
Y-56451D01*
X47543D01*
Y-56547D01*
X47448D01*
Y-56642D01*
X47257D01*
Y-56737D01*
X46972D01*
Y-56451D01*
X46876D01*
Y-56356D01*
X46972D01*
Y-56261D01*
X47067D01*
Y-56166D01*
X47257D01*
Y-56070D01*
X47352D01*
Y-55975D01*
X47448D01*
Y-55880D01*
X47543D01*
Y-55785D01*
X47638D01*
Y-54833D01*
X47543D01*
Y-54642D01*
X47448D01*
Y-54547D01*
X47352D01*
Y-54451D01*
X47257D01*
Y-54356D01*
X47162D01*
Y-54261D01*
X46972D01*
Y-54166D01*
X46591D01*
Y-54071D01*
X45733D01*
Y-54166D01*
X45353D01*
Y-54261D01*
X45162D01*
Y-54356D01*
X45067D01*
Y-54451D01*
X44972D01*
Y-54547D01*
X44876D01*
Y-54642D01*
X44781D01*
Y-54833D01*
X44686D01*
Y-55690D01*
X44781D01*
Y-55880D01*
X44876D01*
Y-55975D01*
X44972D01*
Y-56070D01*
X45067D01*
Y-56166D01*
X45257D01*
Y-56261D01*
X45448D01*
Y-56356D01*
X45543D01*
Y-56737D01*
X45448D01*
Y-56832D01*
X45257D01*
Y-56737D01*
X44972D01*
Y-56642D01*
X44876D01*
Y-56547D01*
X44781D01*
Y-56451D01*
X44591D01*
Y-56261D01*
X44496D01*
Y-56166D01*
X44400D01*
Y-55975D01*
X44305D01*
Y-55785D01*
X44210D01*
Y-54833D01*
X44305D01*
Y-54547D01*
X44400D01*
Y-54356D01*
X44496D01*
Y-54261D01*
X44591D01*
Y-54166D01*
X44686D01*
Y-54071D01*
X44781D01*
Y-53975D01*
X44876D01*
Y-53880D01*
X45067D01*
Y-53785D01*
X45257D01*
Y-53690D01*
X45543D01*
Y-53594D01*
X46781D01*
Y-53690D01*
D02*
G37*
G36*
X6498Y-54071D02*
X6593D01*
Y-54356D01*
X6307D01*
Y-54451D01*
X6117D01*
Y-54547D01*
X6022D01*
Y-54642D01*
X5926D01*
Y-54737D01*
X5831D01*
Y-54928D01*
X5736D01*
Y-55404D01*
X5641D01*
Y-55594D01*
X5736D01*
Y-55975D01*
X5831D01*
Y-56166D01*
X5926D01*
Y-56261D01*
X6022D01*
Y-56356D01*
X6593D01*
Y-56261D01*
X6688D01*
Y-56166D01*
X6783D01*
Y-56070D01*
X6879D01*
Y-55785D01*
X6974D01*
Y-55309D01*
X7069D01*
Y-54928D01*
X7164D01*
Y-54642D01*
X7260D01*
Y-54451D01*
X7355D01*
Y-54356D01*
X7450D01*
Y-54166D01*
X7545D01*
Y-54071D01*
X7736D01*
Y-53975D01*
X8688D01*
Y-54071D01*
X8783D01*
Y-54166D01*
X8974D01*
Y-54356D01*
X9069D01*
Y-54451D01*
X9164D01*
Y-54642D01*
X9259D01*
Y-55118D01*
X9355D01*
Y-55594D01*
X9259D01*
Y-56070D01*
X9164D01*
Y-56261D01*
X9069D01*
Y-56451D01*
X8974D01*
Y-56547D01*
X8879D01*
Y-56642D01*
X8688D01*
Y-56737D01*
X8593D01*
Y-56832D01*
X8117D01*
Y-56547D01*
X8022D01*
Y-56356D01*
X8117D01*
Y-56261D01*
X8307D01*
Y-56166D01*
X8498D01*
Y-56070D01*
X8593D01*
Y-55975D01*
X8688D01*
Y-55690D01*
X8783D01*
Y-55023D01*
X8688D01*
Y-54737D01*
X8593D01*
Y-54642D01*
X8498D01*
Y-54547D01*
X8022D01*
Y-54642D01*
X7926D01*
Y-54737D01*
X7831D01*
Y-54928D01*
X7736D01*
Y-55213D01*
X7641D01*
Y-55594D01*
X7545D01*
Y-55975D01*
X7450D01*
Y-56261D01*
X7355D01*
Y-56451D01*
X7260D01*
Y-56642D01*
X7164D01*
Y-56737D01*
X7069D01*
Y-56832D01*
X6879D01*
Y-56928D01*
X6688D01*
Y-57023D01*
X6117D01*
Y-56928D01*
X5831D01*
Y-56832D01*
X5736D01*
Y-56737D01*
X5545D01*
Y-56642D01*
X5450D01*
Y-56451D01*
X5355D01*
Y-56261D01*
X5260D01*
Y-55975D01*
X5164D01*
Y-54928D01*
X5260D01*
Y-54642D01*
X5355D01*
Y-54356D01*
X5450D01*
Y-54261D01*
X5545D01*
Y-54166D01*
X5641D01*
Y-54071D01*
X5736D01*
Y-53975D01*
X5926D01*
Y-53880D01*
X6117D01*
Y-53785D01*
X6498D01*
Y-54071D01*
D02*
G37*
G36*
X41353Y-54642D02*
X41448D01*
Y-55023D01*
X41353D01*
Y-55118D01*
X38115D01*
Y-56928D01*
X37734D01*
Y-56832D01*
X37639D01*
Y-54642D01*
X37734D01*
Y-54547D01*
X41353D01*
Y-54642D01*
D02*
G37*
G36*
X9259Y-58356D02*
X9164D01*
Y-58451D01*
X5260D01*
Y-57785D01*
X9259D01*
Y-58356D01*
D02*
G37*
G36*
X34877Y-57213D02*
X34782D01*
Y-57404D01*
X34591D01*
Y-57499D01*
X34496D01*
Y-57594D01*
X34306D01*
Y-57689D01*
X34210D01*
Y-57785D01*
X34020D01*
Y-57880D01*
X33925D01*
Y-57975D01*
X33734D01*
Y-58070D01*
X33639D01*
Y-58166D01*
X33449D01*
Y-58261D01*
X33353D01*
Y-58356D01*
X33163D01*
Y-58451D01*
X33068D01*
Y-58547D01*
X32877D01*
Y-58642D01*
X32782D01*
Y-58737D01*
X32592D01*
Y-58832D01*
X32496D01*
Y-58927D01*
X32306D01*
Y-59023D01*
X32211D01*
Y-59118D01*
X32020D01*
Y-59213D01*
X34782D01*
Y-59308D01*
X34877D01*
Y-59594D01*
X34782D01*
Y-59689D01*
X31068D01*
Y-59213D01*
X31163D01*
Y-59118D01*
X31258D01*
Y-59023D01*
X31449D01*
Y-58927D01*
X31544D01*
Y-58832D01*
X31734D01*
Y-58737D01*
X31830D01*
Y-58642D01*
X32020D01*
Y-58547D01*
X32115D01*
Y-58451D01*
X32306D01*
Y-58356D01*
X32401D01*
Y-58261D01*
X32592D01*
Y-58166D01*
X32687D01*
Y-58070D01*
X32877D01*
Y-57975D01*
X32972D01*
Y-57880D01*
X33163D01*
Y-57785D01*
X33258D01*
Y-57689D01*
X33449D01*
Y-57594D01*
X33544D01*
Y-57499D01*
X33734D01*
Y-57404D01*
X33830D01*
Y-57309D01*
X31163D01*
Y-57213D01*
X31068D01*
Y-56832D01*
X34877D01*
Y-57213D01*
D02*
G37*
G36*
X48019Y-57975D02*
X45257D01*
Y-58070D01*
X45067D01*
Y-58166D01*
X44876D01*
Y-58356D01*
X44781D01*
Y-58547D01*
X44686D01*
Y-59308D01*
X44781D01*
Y-59499D01*
X44876D01*
Y-59689D01*
X45067D01*
Y-59784D01*
X45353D01*
Y-59880D01*
X48019D01*
Y-60356D01*
X45162D01*
Y-60261D01*
X44876D01*
Y-60166D01*
X44686D01*
Y-60070D01*
X44591D01*
Y-59975D01*
X44496D01*
Y-59784D01*
X44400D01*
Y-59689D01*
X44305D01*
Y-59404D01*
X44210D01*
Y-58451D01*
X44305D01*
Y-58166D01*
X44400D01*
Y-57975D01*
X44496D01*
Y-57880D01*
X44591D01*
Y-57785D01*
X44686D01*
Y-57689D01*
X44781D01*
Y-57594D01*
X45067D01*
Y-57499D01*
X48019D01*
Y-57975D01*
D02*
G37*
G36*
X26973Y-57309D02*
X27258D01*
Y-57404D01*
X27449D01*
Y-57499D01*
X27639D01*
Y-57594D01*
X27735D01*
Y-57689D01*
X27830D01*
Y-57785D01*
X27925D01*
Y-57880D01*
X28020D01*
Y-58070D01*
X28115D01*
Y-58261D01*
X28211D01*
Y-58547D01*
X28306D01*
Y-59404D01*
X28211D01*
Y-59689D01*
X28115D01*
Y-59880D01*
X28020D01*
Y-59975D01*
X27925D01*
Y-60166D01*
X27830D01*
Y-60261D01*
X27735D01*
Y-60356D01*
X27544D01*
Y-60451D01*
X27449D01*
Y-60546D01*
X27163D01*
Y-60642D01*
X26878D01*
Y-60737D01*
X25830D01*
Y-60642D01*
X25544D01*
Y-60546D01*
X25354D01*
Y-60451D01*
X25163D01*
Y-60356D01*
X24973D01*
Y-60261D01*
X24878D01*
Y-60166D01*
X24782D01*
Y-59975D01*
X24687D01*
Y-59880D01*
X24592D01*
Y-59689D01*
X24497D01*
Y-59308D01*
X24402D01*
Y-58547D01*
X24497D01*
Y-58261D01*
X24592D01*
Y-58070D01*
X24687D01*
Y-57880D01*
X24782D01*
Y-57785D01*
X24878D01*
Y-57689D01*
X24973D01*
Y-57594D01*
X25068D01*
Y-57499D01*
X25259D01*
Y-57404D01*
X25449D01*
Y-57309D01*
X25735D01*
Y-57213D01*
X26973D01*
Y-57309D01*
D02*
G37*
G36*
X39924Y-57404D02*
X40401D01*
Y-57499D01*
X40591D01*
Y-57594D01*
X40781D01*
Y-57689D01*
X40877D01*
Y-57785D01*
X40972D01*
Y-57880D01*
X41067D01*
Y-57975D01*
X41162D01*
Y-58070D01*
X41258D01*
Y-58261D01*
X41353D01*
Y-58451D01*
X41448D01*
Y-58832D01*
X41543D01*
Y-59404D01*
X41448D01*
Y-59784D01*
X41353D01*
Y-59975D01*
X41258D01*
Y-60070D01*
X41162D01*
Y-60261D01*
X41067D01*
Y-60356D01*
X40972D01*
Y-60451D01*
X40877D01*
Y-60546D01*
X40686D01*
Y-60642D01*
X40496D01*
Y-60737D01*
X40305D01*
Y-60832D01*
X38877D01*
Y-60737D01*
X38591D01*
Y-60642D01*
X38401D01*
Y-60546D01*
X38305D01*
Y-60451D01*
X38115D01*
Y-60356D01*
X38020D01*
Y-60166D01*
X37924D01*
Y-60070D01*
X37829D01*
Y-59880D01*
X37734D01*
Y-59594D01*
X37639D01*
Y-58642D01*
X37734D01*
Y-58356D01*
X37829D01*
Y-58166D01*
X37924D01*
Y-57975D01*
X38020D01*
Y-57880D01*
X38115D01*
Y-57785D01*
X38305D01*
Y-57689D01*
X38401D01*
Y-57594D01*
X38591D01*
Y-57499D01*
X38782D01*
Y-57404D01*
X39162D01*
Y-57309D01*
X39924D01*
Y-57404D01*
D02*
G37*
G36*
X9259Y-61403D02*
X9164D01*
Y-61784D01*
X9069D01*
Y-61975D01*
X8974D01*
Y-62070D01*
X8879D01*
Y-62261D01*
X8783D01*
Y-62356D01*
X8593D01*
Y-62451D01*
X8498D01*
Y-62546D01*
X8307D01*
Y-62642D01*
X8022D01*
Y-62737D01*
X6498D01*
Y-62642D01*
X6212D01*
Y-62546D01*
X6022D01*
Y-62451D01*
X5831D01*
Y-62356D01*
X5736D01*
Y-62261D01*
X5641D01*
Y-62165D01*
X5545D01*
Y-62070D01*
X5450D01*
Y-61880D01*
X5355D01*
Y-61594D01*
X5260D01*
Y-59404D01*
X9259D01*
Y-61403D01*
D02*
G37*
G36*
X33068Y-60451D02*
X33639D01*
Y-60546D01*
X33925D01*
Y-60642D01*
X34115D01*
Y-60737D01*
X34210D01*
Y-60832D01*
X34306D01*
Y-60927D01*
X34496D01*
Y-61118D01*
X34591D01*
Y-61213D01*
X34687D01*
Y-61403D01*
X34782D01*
Y-61689D01*
X34877D01*
Y-62832D01*
X34782D01*
Y-63118D01*
X34687D01*
Y-63308D01*
X34591D01*
Y-63403D01*
X34496D01*
Y-63499D01*
X34306D01*
Y-63594D01*
X34210D01*
Y-63689D01*
X33925D01*
Y-63784D01*
X33830D01*
Y-63689D01*
X33734D01*
Y-63308D01*
X33830D01*
Y-63213D01*
X34020D01*
Y-63118D01*
X34210D01*
Y-62927D01*
X34306D01*
Y-62832D01*
X34401D01*
Y-62546D01*
X34496D01*
Y-61975D01*
X34401D01*
Y-61689D01*
X34306D01*
Y-61499D01*
X34210D01*
Y-61403D01*
X34115D01*
Y-61308D01*
X34020D01*
Y-61213D01*
X33925D01*
Y-61118D01*
X33734D01*
Y-61023D01*
X33449D01*
Y-60927D01*
X32496D01*
Y-61023D01*
X32211D01*
Y-61118D01*
X32020D01*
Y-61213D01*
X31925D01*
Y-61308D01*
X31830D01*
Y-61403D01*
X31734D01*
Y-61499D01*
X31639D01*
Y-61689D01*
X31544D01*
Y-61975D01*
X31449D01*
Y-62546D01*
X31544D01*
Y-62832D01*
X31639D01*
Y-63118D01*
X31734D01*
Y-63213D01*
X31830D01*
Y-63308D01*
X32592D01*
Y-62261D01*
X32972D01*
Y-63784D01*
X32877D01*
Y-63879D01*
X31639D01*
Y-63784D01*
X31544D01*
Y-63689D01*
X31449D01*
Y-63594D01*
X31353D01*
Y-63403D01*
X31258D01*
Y-63213D01*
X31163D01*
Y-63022D01*
X31068D01*
Y-62451D01*
X30972D01*
Y-62165D01*
X31068D01*
Y-61594D01*
X31163D01*
Y-61403D01*
X31258D01*
Y-61213D01*
X31353D01*
Y-61118D01*
X31449D01*
Y-60927D01*
X31544D01*
Y-60832D01*
X31734D01*
Y-60737D01*
X31830D01*
Y-60642D01*
X32020D01*
Y-60546D01*
X32211D01*
Y-60451D01*
X32782D01*
Y-60356D01*
X33068D01*
Y-60451D01*
D02*
G37*
G36*
X48019Y-63879D02*
X47638D01*
Y-63784D01*
X47543D01*
Y-61689D01*
X46495D01*
Y-63689D01*
X46019D01*
Y-61784D01*
X45924D01*
Y-61689D01*
X44781D01*
Y-63879D01*
X44686D01*
Y-63975D01*
X44305D01*
Y-61213D01*
X48019D01*
Y-63879D01*
D02*
G37*
G36*
X41448Y-62261D02*
X41258D01*
Y-62356D01*
X40972D01*
Y-62451D01*
X40686D01*
Y-62546D01*
X40401D01*
Y-62642D01*
X40115D01*
Y-62737D01*
X39829D01*
Y-62832D01*
X39543D01*
Y-62927D01*
X39258D01*
Y-63022D01*
X38972D01*
Y-63118D01*
X38686D01*
Y-63213D01*
X38401D01*
Y-63308D01*
X38496D01*
Y-63403D01*
X38782D01*
Y-63499D01*
X39067D01*
Y-63594D01*
X39353D01*
Y-63689D01*
X39639D01*
Y-63784D01*
X39924D01*
Y-63879D01*
X40210D01*
Y-63975D01*
X40401D01*
Y-64070D01*
X40686D01*
Y-64165D01*
X40972D01*
Y-64261D01*
X41258D01*
Y-64356D01*
X41448D01*
Y-65022D01*
X37734D01*
Y-64927D01*
X37639D01*
Y-64641D01*
X37734D01*
Y-64546D01*
X40496D01*
Y-64451D01*
X40305D01*
Y-64356D01*
X40115D01*
Y-64261D01*
X39829D01*
Y-64165D01*
X39543D01*
Y-64070D01*
X39258D01*
Y-63975D01*
X38972D01*
Y-63879D01*
X38686D01*
Y-63784D01*
X38401D01*
Y-63689D01*
X38115D01*
Y-63594D01*
X37829D01*
Y-63499D01*
X37734D01*
Y-63403D01*
X37639D01*
Y-63118D01*
X37734D01*
Y-63022D01*
X37829D01*
Y-62927D01*
X38115D01*
Y-62832D01*
X38401D01*
Y-62737D01*
X38686D01*
Y-62642D01*
X38972D01*
Y-62546D01*
X39258D01*
Y-62451D01*
X39543D01*
Y-62356D01*
X39829D01*
Y-62261D01*
X40115D01*
Y-62165D01*
X40401D01*
Y-62070D01*
X40591D01*
Y-61975D01*
X37734D01*
Y-61880D01*
X37639D01*
Y-61594D01*
X37734D01*
Y-61499D01*
X41448D01*
Y-62261D01*
D02*
G37*
G36*
X27258Y-63022D02*
X27544D01*
Y-63118D01*
X27735D01*
Y-63213D01*
X27925D01*
Y-63308D01*
X28115D01*
Y-63403D01*
X28211D01*
Y-63499D01*
X28306D01*
Y-63594D01*
X28401D01*
Y-63689D01*
X28496D01*
Y-63879D01*
X28592D01*
Y-64165D01*
X28687D01*
Y-64451D01*
X28782D01*
Y-65498D01*
X28687D01*
Y-65784D01*
X28592D01*
Y-65975D01*
X28496D01*
Y-66165D01*
X28401D01*
Y-66260D01*
X28306D01*
Y-66356D01*
X28211D01*
Y-66451D01*
X28020D01*
Y-66546D01*
X27830D01*
Y-66641D01*
X27544D01*
Y-66546D01*
X27449D01*
Y-66165D01*
X27639D01*
Y-66070D01*
X27830D01*
Y-65975D01*
X27925D01*
Y-65879D01*
X28020D01*
Y-65784D01*
X28115D01*
Y-65594D01*
X28211D01*
Y-65308D01*
X28306D01*
Y-64546D01*
X28211D01*
Y-64261D01*
X28115D01*
Y-64165D01*
X28020D01*
Y-63975D01*
X27925D01*
Y-63879D01*
X27830D01*
Y-63784D01*
X27639D01*
Y-63689D01*
X27449D01*
Y-63594D01*
X27258D01*
Y-63499D01*
X25925D01*
Y-63594D01*
X25735D01*
Y-63689D01*
X25544D01*
Y-63784D01*
X25449D01*
Y-63879D01*
X25354D01*
Y-63975D01*
X25259D01*
Y-64070D01*
X25163D01*
Y-64165D01*
X25068D01*
Y-64356D01*
X24973D01*
Y-64737D01*
X24878D01*
Y-65213D01*
X24973D01*
Y-65594D01*
X25068D01*
Y-65784D01*
X25163D01*
Y-65975D01*
X25259D01*
Y-66165D01*
X26116D01*
Y-65022D01*
X26211D01*
Y-64927D01*
X26497D01*
Y-65022D01*
X26592D01*
Y-65118D01*
X26687D01*
Y-66641D01*
X26592D01*
Y-66736D01*
X24973D01*
Y-66546D01*
X24878D01*
Y-66451D01*
X24782D01*
Y-66260D01*
X24687D01*
Y-66070D01*
X24592D01*
Y-65879D01*
X24497D01*
Y-65498D01*
X24402D01*
Y-64546D01*
X24497D01*
Y-64165D01*
X24592D01*
Y-63975D01*
X24687D01*
Y-63784D01*
X24782D01*
Y-63689D01*
X24878D01*
Y-63499D01*
X24973D01*
Y-63403D01*
X25068D01*
Y-63308D01*
X25259D01*
Y-63213D01*
X25449D01*
Y-63118D01*
X25640D01*
Y-63022D01*
X25925D01*
Y-62927D01*
X27258D01*
Y-63022D01*
D02*
G37*
G36*
X5450Y-63213D02*
X5736D01*
Y-63308D01*
X5926D01*
Y-63403D01*
X6212D01*
Y-63499D01*
X6498D01*
Y-63594D01*
X6688D01*
Y-63689D01*
X6974D01*
Y-63784D01*
X7260D01*
Y-63879D01*
X7450D01*
Y-63975D01*
X7736D01*
Y-64070D01*
X8022D01*
Y-64165D01*
X8212D01*
Y-64261D01*
X8498D01*
Y-64356D01*
X8783D01*
Y-64451D01*
X8974D01*
Y-64546D01*
X9259D01*
Y-65308D01*
X9069D01*
Y-65403D01*
X8783D01*
Y-65498D01*
X8593D01*
Y-65594D01*
X8307D01*
Y-65689D01*
X8117D01*
Y-65784D01*
X7831D01*
Y-65879D01*
X7641D01*
Y-65975D01*
X7355D01*
Y-66070D01*
X7164D01*
Y-66165D01*
X6879D01*
Y-66260D01*
X6688D01*
Y-66356D01*
X6403D01*
Y-66451D01*
X6212D01*
Y-66546D01*
X5926D01*
Y-66641D01*
X5641D01*
Y-66736D01*
X5450D01*
Y-66832D01*
X5260D01*
Y-66165D01*
X5450D01*
Y-66070D01*
X5641D01*
Y-65975D01*
X5926D01*
Y-65879D01*
X6212D01*
Y-65784D01*
X6307D01*
Y-65689D01*
X6403D01*
Y-64165D01*
X6307D01*
Y-64070D01*
X6022D01*
Y-63975D01*
X5736D01*
Y-63879D01*
X5450D01*
Y-63784D01*
X5260D01*
Y-63118D01*
X5450D01*
Y-63213D01*
D02*
G37*
G36*
X48019Y-65118D02*
X44781D01*
Y-66832D01*
X44686D01*
Y-66927D01*
X44305D01*
Y-64641D01*
X48019D01*
Y-65118D01*
D02*
G37*
G36*
X34782Y-64641D02*
X34877D01*
Y-67213D01*
X34401D01*
Y-65118D01*
X34306D01*
Y-65022D01*
X33353D01*
Y-65118D01*
X33258D01*
Y-67117D01*
X32877D01*
Y-67022D01*
X32782D01*
Y-65118D01*
X32687D01*
Y-65022D01*
X31639D01*
Y-65118D01*
X31544D01*
Y-67308D01*
X31068D01*
Y-64641D01*
X31163D01*
Y-64546D01*
X34782D01*
Y-64641D01*
D02*
G37*
G36*
X41353Y-65879D02*
X41448D01*
Y-67594D01*
X41353D01*
Y-67879D01*
X41258D01*
Y-68070D01*
X41162D01*
Y-68165D01*
X41067D01*
Y-68260D01*
X40877D01*
Y-68355D01*
X40591D01*
Y-68451D01*
X40401D01*
Y-68355D01*
X40020D01*
Y-68260D01*
X39924D01*
Y-68165D01*
X39829D01*
Y-68070D01*
X39639D01*
Y-68165D01*
X39543D01*
Y-68260D01*
X39448D01*
Y-68355D01*
X39353D01*
Y-68451D01*
X39162D01*
Y-68546D01*
X38877D01*
Y-68641D01*
X38686D01*
Y-68546D01*
X38305D01*
Y-68451D01*
X38115D01*
Y-68355D01*
X38020D01*
Y-68260D01*
X37924D01*
Y-68165D01*
X37829D01*
Y-67879D01*
X37734D01*
Y-67308D01*
X37639D01*
Y-65879D01*
X37734D01*
Y-65784D01*
X41353D01*
Y-65879D01*
D02*
G37*
G36*
Y-69403D02*
X41448D01*
Y-69784D01*
X41353D01*
Y-69879D01*
X37734D01*
Y-69784D01*
X37639D01*
Y-69403D01*
X37734D01*
Y-69308D01*
X41353D01*
Y-69403D01*
D02*
G37*
G36*
X44496Y-67213D02*
X44686D01*
Y-67308D01*
X44972D01*
Y-67403D01*
X45162D01*
Y-67498D01*
X45448D01*
Y-67594D01*
X45733D01*
Y-67689D01*
X45924D01*
Y-67784D01*
X46210D01*
Y-67879D01*
X46495D01*
Y-67975D01*
X46781D01*
Y-68070D01*
X46972D01*
Y-68165D01*
X47257D01*
Y-68260D01*
X47448D01*
Y-68355D01*
X47733D01*
Y-68451D01*
X47924D01*
Y-68546D01*
X48019D01*
Y-69117D01*
X47829D01*
Y-69212D01*
X47543D01*
Y-69308D01*
X47352D01*
Y-69403D01*
X47067D01*
Y-69498D01*
X46876D01*
Y-69594D01*
X46591D01*
Y-69689D01*
X46400D01*
Y-69784D01*
X46115D01*
Y-69879D01*
X45924D01*
Y-69974D01*
X45638D01*
Y-70070D01*
X45448D01*
Y-70165D01*
X45162D01*
Y-70260D01*
X44972D01*
Y-70355D01*
X44686D01*
Y-70451D01*
X44496D01*
Y-70546D01*
X44305D01*
Y-69974D01*
X44496D01*
Y-69879D01*
X44686D01*
Y-69784D01*
X44972D01*
Y-69689D01*
X45257D01*
Y-69594D01*
X45353D01*
Y-69498D01*
X45448D01*
Y-68070D01*
X45353D01*
Y-67975D01*
X45162D01*
Y-67879D01*
X44876D01*
Y-67784D01*
X44591D01*
Y-67689D01*
X44305D01*
Y-67117D01*
X44496D01*
Y-67213D01*
D02*
G37*
G36*
X24687D02*
X24878D01*
Y-67308D01*
X25163D01*
Y-67403D01*
X25354D01*
Y-67498D01*
X25640D01*
Y-67594D01*
X25925D01*
Y-67689D01*
X26116D01*
Y-67784D01*
X26401D01*
Y-67879D01*
X26687D01*
Y-67975D01*
X26973D01*
Y-68070D01*
X27163D01*
Y-68165D01*
X27449D01*
Y-68260D01*
X27639D01*
Y-68355D01*
X27925D01*
Y-68451D01*
X28115D01*
Y-68546D01*
X28211D01*
Y-69117D01*
X28020D01*
Y-69212D01*
X27735D01*
Y-69308D01*
X27544D01*
Y-69403D01*
X27258D01*
Y-69498D01*
X27068D01*
Y-69594D01*
X26782D01*
Y-69689D01*
X26592D01*
Y-69784D01*
X26306D01*
Y-69879D01*
X26116D01*
Y-69974D01*
X25830D01*
Y-70070D01*
X25640D01*
Y-70165D01*
X25354D01*
Y-70260D01*
X25163D01*
Y-70355D01*
X24973D01*
Y-70451D01*
X24687D01*
Y-70546D01*
X24497D01*
Y-69974D01*
X24687D01*
Y-69879D01*
X24973D01*
Y-69784D01*
X25163D01*
Y-69689D01*
X25449D01*
Y-69594D01*
X25544D01*
Y-69498D01*
X25640D01*
Y-68070D01*
X25544D01*
Y-67975D01*
X25259D01*
Y-67879D01*
X24973D01*
Y-67784D01*
X24782D01*
Y-67689D01*
X24497D01*
Y-67117D01*
X24687D01*
Y-67213D01*
D02*
G37*
G36*
X9259Y-69308D02*
X9164D01*
Y-69689D01*
X9069D01*
Y-69879D01*
X8974D01*
Y-70070D01*
X8879D01*
Y-70165D01*
X8783D01*
Y-70260D01*
X8688D01*
Y-70355D01*
X8593D01*
Y-70451D01*
X8402D01*
Y-70546D01*
X8212D01*
Y-70641D01*
X7831D01*
Y-70736D01*
X6688D01*
Y-70641D01*
X6307D01*
Y-70546D01*
X6117D01*
Y-70451D01*
X5926D01*
Y-70355D01*
X5831D01*
Y-70260D01*
X5641D01*
Y-70165D01*
X5545D01*
Y-69974D01*
X5450D01*
Y-69784D01*
X5355D01*
Y-69594D01*
X5260D01*
Y-67403D01*
X9259D01*
Y-69308D01*
D02*
G37*
G36*
X34782Y-68070D02*
X34877D01*
Y-68451D01*
X34782D01*
Y-68546D01*
X34687D01*
Y-68641D01*
X34591D01*
Y-68736D01*
X34401D01*
Y-68832D01*
X34306D01*
Y-68927D01*
X34115D01*
Y-69022D01*
X34020D01*
Y-69117D01*
X33830D01*
Y-69212D01*
X33734D01*
Y-69308D01*
X33544D01*
Y-69403D01*
X33449D01*
Y-69498D01*
X33258D01*
Y-69594D01*
X33163D01*
Y-69689D01*
X32972D01*
Y-69784D01*
X32877D01*
Y-69879D01*
X32687D01*
Y-69974D01*
X32592D01*
Y-70070D01*
X32401D01*
Y-70165D01*
X32306D01*
Y-70260D01*
X32115D01*
Y-70355D01*
X32020D01*
Y-70451D01*
X34782D01*
Y-70546D01*
X34877D01*
Y-70927D01*
X31068D01*
Y-70355D01*
X31258D01*
Y-70260D01*
X31353D01*
Y-70165D01*
X31544D01*
Y-70070D01*
X31639D01*
Y-69974D01*
X31830D01*
Y-69879D01*
X31925D01*
Y-69784D01*
X32115D01*
Y-69689D01*
X32211D01*
Y-69594D01*
X32401D01*
Y-69498D01*
X32496D01*
Y-69403D01*
X32687D01*
Y-69308D01*
X32782D01*
Y-69212D01*
X32972D01*
Y-69117D01*
X33163D01*
Y-69022D01*
X33258D01*
Y-68927D01*
X33449D01*
Y-68832D01*
X33544D01*
Y-68736D01*
X33734D01*
Y-68641D01*
X33830D01*
Y-68451D01*
X31068D01*
Y-67975D01*
X34782D01*
Y-68070D01*
D02*
G37*
G36*
X34687Y-71879D02*
X34877D01*
Y-72260D01*
X34782D01*
Y-72355D01*
X31068D01*
Y-71879D01*
X31258D01*
Y-71784D01*
X34687D01*
Y-71879D01*
D02*
G37*
G36*
X38020Y-70451D02*
X38210D01*
Y-70546D01*
X38496D01*
Y-70641D01*
X38686D01*
Y-70736D01*
X38972D01*
Y-70831D01*
X39258D01*
Y-70927D01*
X39448D01*
Y-71022D01*
X39734D01*
Y-71117D01*
X40020D01*
Y-71212D01*
X40305D01*
Y-71308D01*
X40496D01*
Y-71403D01*
X40781D01*
Y-71498D01*
X40972D01*
Y-71593D01*
X41258D01*
Y-71689D01*
X41448D01*
Y-72260D01*
X41353D01*
Y-72355D01*
X41067D01*
Y-72450D01*
X40877D01*
Y-72546D01*
X40591D01*
Y-72641D01*
X40401D01*
Y-72736D01*
X40115D01*
Y-72831D01*
X39924D01*
Y-72927D01*
X39639D01*
Y-73022D01*
X39448D01*
Y-73117D01*
X39162D01*
Y-73212D01*
X38972D01*
Y-73307D01*
X38686D01*
Y-73403D01*
X38496D01*
Y-73498D01*
X38210D01*
Y-73593D01*
X38020D01*
Y-73689D01*
X37639D01*
Y-73307D01*
X37734D01*
Y-73117D01*
X38020D01*
Y-73022D01*
X38305D01*
Y-72927D01*
X38496D01*
Y-72831D01*
X38782D01*
Y-71212D01*
X38686D01*
Y-71117D01*
X38401D01*
Y-71022D01*
X38115D01*
Y-70927D01*
X37829D01*
Y-70831D01*
X37734D01*
Y-70736D01*
X37639D01*
Y-70355D01*
X38020D01*
Y-70451D01*
D02*
G37*
G36*
X28211Y-73307D02*
X28115D01*
Y-73498D01*
X28020D01*
Y-73593D01*
X27925D01*
Y-73689D01*
X27830D01*
Y-73784D01*
X27735D01*
Y-73879D01*
X27354D01*
Y-73974D01*
X26973D01*
Y-73879D01*
X26782D01*
Y-73784D01*
X26592D01*
Y-73689D01*
X26497D01*
Y-73593D01*
X26401D01*
Y-73498D01*
X26306D01*
Y-73212D01*
X26211D01*
Y-73022D01*
X26116D01*
Y-73117D01*
X26020D01*
Y-73212D01*
X25925D01*
Y-73307D01*
X25830D01*
Y-73403D01*
X25735D01*
Y-73498D01*
X25544D01*
Y-73593D01*
X25449D01*
Y-73689D01*
X25259D01*
Y-73784D01*
X25163D01*
Y-73879D01*
X24973D01*
Y-73974D01*
X24878D01*
Y-74069D01*
X24687D01*
Y-74165D01*
X24497D01*
Y-73593D01*
X24592D01*
Y-73498D01*
X24782D01*
Y-73403D01*
X24878D01*
Y-73307D01*
X25068D01*
Y-73212D01*
X25163D01*
Y-73117D01*
X25354D01*
Y-73022D01*
X25449D01*
Y-72927D01*
X25640D01*
Y-72831D01*
X25735D01*
Y-72736D01*
X25830D01*
Y-72641D01*
X25925D01*
Y-72546D01*
X26020D01*
Y-72450D01*
X26116D01*
Y-71498D01*
X24592D01*
Y-71403D01*
X24497D01*
Y-70927D01*
X28211D01*
Y-73307D01*
D02*
G37*
G36*
X34782D02*
X34877D01*
Y-75784D01*
X34782D01*
Y-75879D01*
X34401D01*
Y-73784D01*
X34306D01*
Y-73689D01*
X33258D01*
Y-75688D01*
X32782D01*
Y-73689D01*
X31544D01*
Y-75879D01*
X31449D01*
Y-75974D01*
X31163D01*
Y-75879D01*
X31068D01*
Y-73212D01*
X34782D01*
Y-73307D01*
D02*
G37*
G36*
X41448Y-74641D02*
X41353D01*
Y-74736D01*
X41258D01*
Y-74831D01*
X41067D01*
Y-74927D01*
X40972D01*
Y-75022D01*
X40781D01*
Y-75117D01*
X40686D01*
Y-75212D01*
X40496D01*
Y-75307D01*
X40401D01*
Y-75403D01*
X40210D01*
Y-75498D01*
X40115D01*
Y-75593D01*
X39924D01*
Y-75688D01*
X39829D01*
Y-75784D01*
X39639D01*
Y-75879D01*
X39543D01*
Y-75974D01*
X39353D01*
Y-76069D01*
X39258D01*
Y-76164D01*
X39067D01*
Y-76260D01*
X38972D01*
Y-76355D01*
X38782D01*
Y-76450D01*
X38686D01*
Y-76545D01*
X41353D01*
Y-76641D01*
X41448D01*
Y-77022D01*
X37639D01*
Y-76641D01*
X37734D01*
Y-76450D01*
X37924D01*
Y-76355D01*
X38020D01*
Y-76260D01*
X38210D01*
Y-76164D01*
X38305D01*
Y-76069D01*
X38496D01*
Y-75974D01*
X38591D01*
Y-75879D01*
X38782D01*
Y-75784D01*
X38877D01*
Y-75688D01*
X39067D01*
Y-75593D01*
X39258D01*
Y-75498D01*
X39353D01*
Y-75403D01*
X39543D01*
Y-75307D01*
X39639D01*
Y-75212D01*
X39829D01*
Y-75117D01*
X39924D01*
Y-75022D01*
X40115D01*
Y-74927D01*
X40210D01*
Y-74831D01*
X40401D01*
Y-74641D01*
X37734D01*
Y-74546D01*
X37639D01*
Y-74260D01*
X37734D01*
Y-74165D01*
X41448D01*
Y-74641D01*
D02*
G37*
G36*
X24782Y-74450D02*
X25068D01*
Y-74546D01*
X25259D01*
Y-74641D01*
X25544D01*
Y-74736D01*
X25830D01*
Y-74831D01*
X26020D01*
Y-74927D01*
X26306D01*
Y-75022D01*
X26592D01*
Y-75117D01*
X26782D01*
Y-75212D01*
X27068D01*
Y-75307D01*
X27258D01*
Y-75403D01*
X27544D01*
Y-75498D01*
X27830D01*
Y-75593D01*
X28020D01*
Y-75688D01*
X28211D01*
Y-76260D01*
X28115D01*
Y-76355D01*
X27830D01*
Y-76450D01*
X27639D01*
Y-76545D01*
X27354D01*
Y-76641D01*
X27163D01*
Y-76736D01*
X26878D01*
Y-76831D01*
X26687D01*
Y-76926D01*
X26497D01*
Y-77022D01*
X26211D01*
Y-77117D01*
X25925D01*
Y-77212D01*
X25735D01*
Y-77307D01*
X25449D01*
Y-77403D01*
X25259D01*
Y-77498D01*
X24973D01*
Y-77593D01*
X24782D01*
Y-77688D01*
X24497D01*
Y-77212D01*
X24592D01*
Y-77117D01*
X24782D01*
Y-77022D01*
X25068D01*
Y-76926D01*
X25354D01*
Y-76831D01*
X25544D01*
Y-76736D01*
X25640D01*
Y-75307D01*
X25544D01*
Y-75212D01*
X25449D01*
Y-75117D01*
X25163D01*
Y-75022D01*
X24878D01*
Y-74927D01*
X24592D01*
Y-74831D01*
X24497D01*
Y-74355D01*
X24782D01*
Y-74450D01*
D02*
G37*
G36*
X34782Y-76736D02*
X34877D01*
Y-78641D01*
X34782D01*
Y-79022D01*
X34687D01*
Y-79212D01*
X34591D01*
Y-79307D01*
X34496D01*
Y-79402D01*
X34401D01*
Y-79498D01*
X34210D01*
Y-79593D01*
X33449D01*
Y-79498D01*
X33258D01*
Y-79402D01*
X33163D01*
Y-79307D01*
X33068D01*
Y-79212D01*
X32972D01*
Y-79022D01*
X32877D01*
Y-78831D01*
X32782D01*
Y-78736D01*
X32687D01*
Y-78831D01*
X32592D01*
Y-78926D01*
X32496D01*
Y-79022D01*
X32401D01*
Y-79117D01*
X32211D01*
Y-79212D01*
X32115D01*
Y-79307D01*
X31925D01*
Y-79402D01*
X31830D01*
Y-79498D01*
X31639D01*
Y-79593D01*
X31544D01*
Y-79688D01*
X31353D01*
Y-79783D01*
X31163D01*
Y-79879D01*
X31068D01*
Y-79307D01*
X31163D01*
Y-79212D01*
X31258D01*
Y-79117D01*
X31449D01*
Y-79022D01*
X31544D01*
Y-78926D01*
X31734D01*
Y-78831D01*
X31830D01*
Y-78736D01*
X32020D01*
Y-78641D01*
X32115D01*
Y-78545D01*
X32306D01*
Y-78450D01*
X32401D01*
Y-78355D01*
X32496D01*
Y-78260D01*
X32592D01*
Y-78164D01*
X32687D01*
Y-77879D01*
X32782D01*
Y-77212D01*
X32687D01*
Y-77117D01*
X31068D01*
Y-76641D01*
X34782D01*
Y-76736D01*
D02*
G37*
G36*
X28211Y-77974D02*
X27925D01*
Y-78069D01*
X27735D01*
Y-78164D01*
X27449D01*
Y-78260D01*
X27163D01*
Y-78355D01*
X26878D01*
Y-78450D01*
X26592D01*
Y-78545D01*
X26401D01*
Y-78641D01*
X26116D01*
Y-78736D01*
X25830D01*
Y-78831D01*
X25544D01*
Y-78926D01*
X25259D01*
Y-79022D01*
X25068D01*
Y-79117D01*
X25259D01*
Y-79212D01*
X25449D01*
Y-79307D01*
X25735D01*
Y-79402D01*
X26020D01*
Y-79498D01*
X26211D01*
Y-79593D01*
X26497D01*
Y-79688D01*
X26782D01*
Y-79783D01*
X26973D01*
Y-79879D01*
X27258D01*
Y-79974D01*
X27544D01*
Y-80069D01*
X27830D01*
Y-80164D01*
X28115D01*
Y-80260D01*
X28211D01*
Y-80736D01*
X28020D01*
Y-80640D01*
X27735D01*
Y-80545D01*
X27544D01*
Y-80450D01*
X27258D01*
Y-80355D01*
X26973D01*
Y-80260D01*
X26782D01*
Y-80164D01*
X26497D01*
Y-80069D01*
X26211D01*
Y-79974D01*
X26020D01*
Y-79879D01*
X25735D01*
Y-79783D01*
X25544D01*
Y-79688D01*
X25259D01*
Y-79593D01*
X25068D01*
Y-79498D01*
X24782D01*
Y-79402D01*
X24592D01*
Y-79307D01*
X24497D01*
Y-78831D01*
X24592D01*
Y-78736D01*
X24782D01*
Y-78641D01*
X25068D01*
Y-78545D01*
X25354D01*
Y-78450D01*
X25544D01*
Y-78355D01*
X25830D01*
Y-78260D01*
X26116D01*
Y-78164D01*
X26306D01*
Y-78069D01*
X26592D01*
Y-77974D01*
X26782D01*
Y-77879D01*
X27068D01*
Y-77783D01*
X27258D01*
Y-77688D01*
X27544D01*
Y-77593D01*
X27830D01*
Y-77498D01*
X28020D01*
Y-77403D01*
X28211D01*
Y-77974D01*
D02*
G37*
G36*
X37924Y-77593D02*
X38115D01*
Y-77688D01*
X38401D01*
Y-77783D01*
X38591D01*
Y-77879D01*
X38877D01*
Y-77974D01*
X39162D01*
Y-78069D01*
X39353D01*
Y-78164D01*
X39639D01*
Y-78260D01*
X39829D01*
Y-78355D01*
X40115D01*
Y-78450D01*
X40401D01*
Y-78545D01*
X40591D01*
Y-78641D01*
X40877D01*
Y-78736D01*
X41162D01*
Y-78831D01*
X41353D01*
Y-78926D01*
X41448D01*
Y-79402D01*
X41353D01*
Y-79498D01*
X41162D01*
Y-79593D01*
X40972D01*
Y-79688D01*
X40686D01*
Y-79783D01*
X40496D01*
Y-79879D01*
X40210D01*
Y-79974D01*
X40020D01*
Y-80069D01*
X39734D01*
Y-80164D01*
X39543D01*
Y-80260D01*
X39258D01*
Y-80355D01*
X39067D01*
Y-80450D01*
X38782D01*
Y-80545D01*
X38591D01*
Y-80640D01*
X38305D01*
Y-80736D01*
X38115D01*
Y-80831D01*
X37829D01*
Y-80926D01*
X37734D01*
Y-80831D01*
X37639D01*
Y-80450D01*
X37734D01*
Y-80355D01*
X37829D01*
Y-80260D01*
X38115D01*
Y-80164D01*
X38401D01*
Y-80069D01*
X38591D01*
Y-79974D01*
X38782D01*
Y-78355D01*
X38496D01*
Y-78260D01*
X38210D01*
Y-78164D01*
X37924D01*
Y-78069D01*
X37734D01*
Y-77974D01*
X37639D01*
Y-77593D01*
X37734D01*
Y-77498D01*
X37924D01*
Y-77593D01*
D02*
G37*
G36*
X34782Y-80545D02*
X34877D01*
Y-80831D01*
X34782D01*
Y-80926D01*
X31068D01*
Y-80450D01*
X34782D01*
Y-80545D01*
D02*
G37*
G36*
X35258Y-80450D02*
X35448D01*
Y-80545D01*
X35639D01*
Y-80640D01*
X35734D01*
Y-80736D01*
X35829D01*
Y-81117D01*
X35734D01*
Y-81212D01*
X35639D01*
Y-81117D01*
X35544D01*
Y-81021D01*
X35448D01*
Y-80926D01*
X35258D01*
Y-80831D01*
X35163D01*
Y-80736D01*
X35068D01*
Y-80355D01*
X35258D01*
Y-80450D01*
D02*
G37*
G36*
X28211Y-81783D02*
X24497D01*
Y-81307D01*
X28211D01*
Y-81783D01*
D02*
G37*
G36*
X31258Y-81497D02*
X31449D01*
Y-81593D01*
X31734D01*
Y-81688D01*
X32020D01*
Y-81783D01*
X32306D01*
Y-81878D01*
X32496D01*
Y-81974D01*
X32782D01*
Y-82069D01*
X32972D01*
Y-82164D01*
X33258D01*
Y-82259D01*
X33544D01*
Y-82355D01*
X33734D01*
Y-82450D01*
X34020D01*
Y-82545D01*
X34210D01*
Y-82640D01*
X34496D01*
Y-82736D01*
X34782D01*
Y-82831D01*
X34877D01*
Y-83307D01*
X34782D01*
Y-83402D01*
X34591D01*
Y-83497D01*
X34306D01*
Y-83593D01*
X34115D01*
Y-83688D01*
X33925D01*
Y-83783D01*
X33639D01*
Y-83878D01*
X33449D01*
Y-83974D01*
X33163D01*
Y-84069D01*
X32972D01*
Y-84164D01*
X32687D01*
Y-84259D01*
X32496D01*
Y-84354D01*
X32211D01*
Y-84450D01*
X32020D01*
Y-84545D01*
X31734D01*
Y-84640D01*
X31544D01*
Y-84735D01*
X31258D01*
Y-84831D01*
X31068D01*
Y-84259D01*
X31353D01*
Y-84164D01*
X31544D01*
Y-84069D01*
X31830D01*
Y-83974D01*
X32020D01*
Y-83878D01*
X32211D01*
Y-82355D01*
X32115D01*
Y-82259D01*
X31925D01*
Y-82164D01*
X31639D01*
Y-82069D01*
X31353D01*
Y-81974D01*
X31163D01*
Y-81878D01*
X31068D01*
Y-81402D01*
X31258D01*
Y-81497D01*
D02*
G37*
G36*
X28211Y-85307D02*
X27830D01*
Y-84164D01*
X27735D01*
Y-84069D01*
X24497D01*
Y-83593D01*
X27735D01*
Y-83497D01*
X27830D01*
Y-82355D01*
X28211D01*
Y-85307D01*
D02*
G37*
G36*
X26973Y-85688D02*
X27258D01*
Y-85783D01*
X27449D01*
Y-85878D01*
X27639D01*
Y-85974D01*
X27735D01*
Y-86069D01*
X27830D01*
Y-86164D01*
X27925D01*
Y-86259D01*
X28020D01*
Y-86450D01*
X28115D01*
Y-86640D01*
X28211D01*
Y-86926D01*
X28306D01*
Y-87783D01*
X28211D01*
Y-88069D01*
X28115D01*
Y-88259D01*
X28020D01*
Y-88354D01*
X27925D01*
Y-88545D01*
X27830D01*
Y-88640D01*
X27735D01*
Y-88735D01*
X27544D01*
Y-88830D01*
X27449D01*
Y-88926D01*
X27163D01*
Y-89021D01*
X26878D01*
Y-89116D01*
X25830D01*
Y-89021D01*
X25544D01*
Y-88926D01*
X25259D01*
Y-88830D01*
X25163D01*
Y-88735D01*
X24973D01*
Y-88640D01*
X24878D01*
Y-88545D01*
X24782D01*
Y-88354D01*
X24687D01*
Y-88259D01*
X24592D01*
Y-88069D01*
X24497D01*
Y-87688D01*
X24402D01*
Y-87021D01*
X24497D01*
Y-86640D01*
X24592D01*
Y-86450D01*
X24687D01*
Y-86259D01*
X24782D01*
Y-86164D01*
X24878D01*
Y-86069D01*
X24973D01*
Y-85974D01*
X25068D01*
Y-85878D01*
X25259D01*
Y-85783D01*
X25449D01*
Y-85688D01*
X25735D01*
Y-85592D01*
X26973D01*
Y-85688D01*
D02*
G37*
G36*
X15735Y-13978D02*
X15831D01*
Y-89211D01*
X15735D01*
Y-89402D01*
X15450D01*
Y-13882D01*
X15545D01*
Y-13787D01*
X15735D01*
Y-13978D01*
D02*
G37*
G36*
X14599Y-284332D02*
X14708D01*
Y-284441D01*
X14818D01*
Y-284660D01*
X14927D01*
Y-284879D01*
X14818D01*
Y-285207D01*
X14708D01*
Y-285317D01*
X14599D01*
Y-285426D01*
X14490D01*
Y-285645D01*
X14380D01*
Y-285864D01*
X14270D01*
Y-286192D01*
X14161D01*
Y-286411D01*
X14052D01*
Y-286630D01*
X13942D01*
Y-286959D01*
X13833D01*
Y-287287D01*
X13723D01*
Y-289258D01*
X13833D01*
Y-289805D01*
X13942D01*
Y-290024D01*
X14052D01*
Y-290243D01*
X14161D01*
Y-290352D01*
X14270D01*
Y-290571D01*
X14380D01*
Y-290790D01*
X14490D01*
Y-291228D01*
X14599D01*
Y-291447D01*
X14708D01*
Y-291666D01*
X14818D01*
Y-291775D01*
X14927D01*
Y-291994D01*
X15037D01*
Y-292213D01*
X15146D01*
Y-292323D01*
X15256D01*
Y-292432D01*
X15365D01*
Y-292542D01*
X15475D01*
Y-292761D01*
X15584D01*
Y-292870D01*
X15694D01*
Y-292980D01*
X15803D01*
Y-293089D01*
X15913D01*
Y-293199D01*
X16022D01*
Y-293308D01*
X16132D01*
Y-293417D01*
X16351D01*
Y-293527D01*
X16569D01*
Y-293636D01*
X16788D01*
Y-293746D01*
X17445D01*
Y-293855D01*
X18102D01*
Y-293746D01*
X18649D01*
Y-293636D01*
X18868D01*
Y-293527D01*
X19087D01*
Y-293417D01*
X19197D01*
Y-293308D01*
X19416D01*
Y-293199D01*
X19525D01*
Y-292980D01*
X19635D01*
Y-292651D01*
X19744D01*
Y-291228D01*
X19635D01*
Y-290900D01*
X19525D01*
Y-290681D01*
X19416D01*
Y-290462D01*
X19306D01*
Y-290243D01*
X19197D01*
Y-290133D01*
X19087D01*
Y-290024D01*
X18978D01*
Y-289805D01*
X18868D01*
Y-289696D01*
X18649D01*
Y-289258D01*
X18759D01*
Y-289148D01*
X19306D01*
Y-289258D01*
X19525D01*
Y-289367D01*
X19635D01*
Y-289477D01*
X19744D01*
Y-289586D01*
X19854D01*
Y-289696D01*
X19963D01*
Y-289805D01*
X20072D01*
Y-289914D01*
X20182D01*
Y-290024D01*
X20291D01*
Y-290243D01*
X20401D01*
Y-290352D01*
X20510D01*
Y-290571D01*
X20620D01*
Y-290681D01*
X20729D01*
Y-291447D01*
X20839D01*
Y-291994D01*
X20948D01*
Y-292104D01*
X20839D01*
Y-292651D01*
X20729D01*
Y-292980D01*
X20620D01*
Y-293308D01*
X20510D01*
Y-293527D01*
X20401D01*
Y-293746D01*
X20291D01*
Y-293855D01*
X20072D01*
Y-293965D01*
X19963D01*
Y-294074D01*
X19744D01*
Y-294184D01*
X19635D01*
Y-294293D01*
X19416D01*
Y-294403D01*
X19197D01*
Y-294512D01*
X18759D01*
Y-294622D01*
X18321D01*
Y-294731D01*
X17883D01*
Y-294841D01*
X17336D01*
Y-294731D01*
X16679D01*
Y-294622D01*
X16460D01*
Y-294512D01*
X16132D01*
Y-294403D01*
X15913D01*
Y-294293D01*
X15584D01*
Y-294184D01*
X15475D01*
Y-294074D01*
X15365D01*
Y-293965D01*
X15256D01*
Y-293855D01*
X15146D01*
Y-293746D01*
X14927D01*
Y-293636D01*
X14818D01*
Y-293527D01*
X14708D01*
Y-293417D01*
X14599D01*
Y-293199D01*
X14490D01*
Y-293089D01*
X14380D01*
Y-292870D01*
X14270D01*
Y-292761D01*
X14161D01*
Y-292542D01*
X14052D01*
Y-292213D01*
X13942D01*
Y-291885D01*
X13833D01*
Y-291666D01*
X13723D01*
Y-291447D01*
X13614D01*
Y-291228D01*
X13504D01*
Y-291119D01*
X13395D01*
Y-290900D01*
X13285D01*
Y-290681D01*
X13176D01*
Y-290462D01*
X13066D01*
Y-290133D01*
X12957D01*
Y-289367D01*
X12847D01*
Y-288382D01*
X12738D01*
Y-286849D01*
X12847D01*
Y-286411D01*
X12957D01*
Y-285974D01*
X13066D01*
Y-285536D01*
X13176D01*
Y-285317D01*
X13285D01*
Y-285098D01*
X13395D01*
Y-284879D01*
X13504D01*
Y-284769D01*
X13614D01*
Y-284660D01*
X13723D01*
Y-284550D01*
X13833D01*
Y-284441D01*
X13942D01*
Y-284332D01*
X14161D01*
Y-284222D01*
X14599D01*
Y-284332D01*
D02*
G37*
G36*
X33647Y-294512D02*
X33756D01*
Y-294622D01*
X33866D01*
Y-295169D01*
X33756D01*
Y-295278D01*
X33647D01*
Y-295388D01*
X33428D01*
Y-295497D01*
X33209D01*
Y-295388D01*
X33099D01*
Y-295278D01*
X32990D01*
Y-295169D01*
X32880D01*
Y-294622D01*
X32990D01*
Y-294512D01*
X33099D01*
Y-294403D01*
X33647D01*
Y-294512D01*
D02*
G37*
G36*
X4966Y-274260D02*
X5841D01*
Y-274370D01*
X7483D01*
Y-274479D01*
X8250D01*
Y-274589D01*
X8688D01*
Y-274698D01*
X8906D01*
Y-274808D01*
X9235D01*
Y-274917D01*
X10877D01*
Y-275027D01*
X11534D01*
Y-275136D01*
X12629D01*
Y-275246D01*
X13066D01*
Y-275355D01*
X13723D01*
Y-275464D01*
X14380D01*
Y-275574D01*
X15365D01*
Y-275683D01*
X16022D01*
Y-275793D01*
X16460D01*
Y-275902D01*
X17007D01*
Y-276012D01*
X17555D01*
Y-276121D01*
X17773D01*
Y-276231D01*
X18102D01*
Y-276340D01*
X18649D01*
Y-276450D01*
X18978D01*
Y-276559D01*
X19197D01*
Y-276669D01*
X19635D01*
Y-276778D01*
X19963D01*
Y-276888D01*
X20182D01*
Y-276997D01*
X20401D01*
Y-277107D01*
X20620D01*
Y-277216D01*
X20839D01*
Y-277325D01*
X21058D01*
Y-277435D01*
X21277D01*
Y-277544D01*
X21495D01*
Y-277654D01*
X21824D01*
Y-277763D01*
X22152D01*
Y-277873D01*
X22371D01*
Y-277982D01*
X22590D01*
Y-278092D01*
X22919D01*
Y-278201D01*
X23138D01*
Y-278311D01*
X23247D01*
Y-278420D01*
X23466D01*
Y-278530D01*
X23575D01*
Y-278639D01*
X23794D01*
Y-278749D01*
X23904D01*
Y-278858D01*
X24123D01*
Y-278967D01*
X24232D01*
Y-279077D01*
X24451D01*
Y-279186D01*
X24561D01*
Y-279296D01*
X24780D01*
Y-279405D01*
X24999D01*
Y-279515D01*
X25327D01*
Y-279624D01*
X25546D01*
Y-279734D01*
X25655D01*
Y-279843D01*
X25874D01*
Y-279953D01*
X26093D01*
Y-280062D01*
X26312D01*
Y-280172D01*
X26422D01*
Y-280281D01*
X26641D01*
Y-280391D01*
X26750D01*
Y-280500D01*
X26969D01*
Y-280610D01*
X27188D01*
Y-280719D01*
X27297D01*
Y-280828D01*
X27516D01*
Y-280938D01*
X27735D01*
Y-281047D01*
X27845D01*
Y-281157D01*
X27954D01*
Y-281266D01*
X28173D01*
Y-281376D01*
X28283D01*
Y-281485D01*
X28392D01*
Y-281595D01*
X28611D01*
Y-281704D01*
X28721D01*
Y-281814D01*
X28939D01*
Y-281923D01*
X29049D01*
Y-282033D01*
X29268D01*
Y-282142D01*
X29377D01*
Y-282252D01*
X29487D01*
Y-282361D01*
X29596D01*
Y-282471D01*
X29706D01*
Y-282580D01*
X29925D01*
Y-282689D01*
X30034D01*
Y-282799D01*
X30144D01*
Y-283018D01*
X30253D01*
Y-283127D01*
X30363D01*
Y-283346D01*
X30472D01*
Y-283456D01*
X30582D01*
Y-283565D01*
X30691D01*
Y-283675D01*
X30800D01*
Y-283784D01*
X30910D01*
Y-283894D01*
X31019D01*
Y-284003D01*
X31129D01*
Y-284113D01*
X31238D01*
Y-284222D01*
X31348D01*
Y-284332D01*
X31457D01*
Y-284441D01*
X31567D01*
Y-284660D01*
X31676D01*
Y-284769D01*
X31786D01*
Y-284879D01*
X31895D01*
Y-285098D01*
X32005D01*
Y-285207D01*
X32114D01*
Y-285426D01*
X32223D01*
Y-285536D01*
X32333D01*
Y-285755D01*
X32443D01*
Y-285864D01*
X32552D01*
Y-285974D01*
X32661D01*
Y-286192D01*
X32771D01*
Y-286302D01*
X32880D01*
Y-286521D01*
X32990D01*
Y-286630D01*
X33099D01*
Y-286849D01*
X33209D01*
Y-286959D01*
X33318D01*
Y-287178D01*
X33428D01*
Y-287287D01*
X33537D01*
Y-287506D01*
X33647D01*
Y-287725D01*
X33756D01*
Y-287835D01*
X33866D01*
Y-288053D01*
X33975D01*
Y-288163D01*
X34084D01*
Y-288382D01*
X34194D01*
Y-288491D01*
X34303D01*
Y-288710D01*
X34413D01*
Y-288929D01*
X34522D01*
Y-289148D01*
X34632D01*
Y-289367D01*
X34741D01*
Y-289477D01*
X34851D01*
Y-289696D01*
X34960D01*
Y-289805D01*
X35070D01*
Y-290024D01*
X35179D01*
Y-290243D01*
X35289D01*
Y-290462D01*
X35398D01*
Y-290681D01*
X35508D01*
Y-291009D01*
X35617D01*
Y-291228D01*
X35726D01*
Y-291556D01*
X35836D01*
Y-291885D01*
X35945D01*
Y-292104D01*
X36055D01*
Y-292213D01*
X36164D01*
Y-292542D01*
X36274D01*
Y-292761D01*
X36383D01*
Y-292870D01*
X36493D01*
Y-292980D01*
X36602D01*
Y-292870D01*
X36712D01*
Y-292542D01*
X36821D01*
Y-292213D01*
X36931D01*
Y-291994D01*
X37040D01*
Y-291556D01*
X37150D01*
Y-291228D01*
X37259D01*
Y-291009D01*
X37369D01*
Y-290790D01*
X37478D01*
Y-290571D01*
X37587D01*
Y-290352D01*
X37697D01*
Y-290133D01*
X37806D01*
Y-289914D01*
X37916D01*
Y-289805D01*
X38025D01*
Y-289696D01*
X38135D01*
Y-289586D01*
X38792D01*
Y-289696D01*
X38901D01*
Y-289805D01*
X39011D01*
Y-290133D01*
X38901D01*
Y-290462D01*
X38792D01*
Y-290571D01*
X38682D01*
Y-290790D01*
X38573D01*
Y-291009D01*
X38463D01*
Y-291228D01*
X38354D01*
Y-291447D01*
X38244D01*
Y-291775D01*
X38135D01*
Y-291994D01*
X38025D01*
Y-292213D01*
X37916D01*
Y-292542D01*
X37806D01*
Y-292870D01*
X37697D01*
Y-293089D01*
X37587D01*
Y-293308D01*
X37478D01*
Y-293636D01*
X37369D01*
Y-293965D01*
X37259D01*
Y-294403D01*
X37150D01*
Y-295497D01*
X37259D01*
Y-296264D01*
X37369D01*
Y-296702D01*
X37478D01*
Y-297030D01*
X37587D01*
Y-298125D01*
X37697D01*
Y-299329D01*
X37806D01*
Y-299438D01*
X37697D01*
Y-306007D01*
X37587D01*
Y-306882D01*
X37478D01*
Y-307320D01*
X37587D01*
Y-307539D01*
X37697D01*
Y-307649D01*
X37806D01*
Y-307868D01*
X37916D01*
Y-307977D01*
X38025D01*
Y-308196D01*
X38135D01*
Y-308305D01*
X38244D01*
Y-308415D01*
X38354D01*
Y-308524D01*
X38463D01*
Y-308634D01*
X38573D01*
Y-308853D01*
X38682D01*
Y-308962D01*
X38792D01*
Y-309072D01*
X38901D01*
Y-309291D01*
X39011D01*
Y-309510D01*
X39120D01*
Y-309838D01*
X39011D01*
Y-310057D01*
X38901D01*
Y-310166D01*
X38244D01*
Y-310057D01*
X38135D01*
Y-309947D01*
X38025D01*
Y-309729D01*
X37916D01*
Y-309510D01*
X37806D01*
Y-309291D01*
X37697D01*
Y-309181D01*
X37587D01*
Y-309072D01*
X37369D01*
Y-308962D01*
X37259D01*
Y-308853D01*
X37040D01*
Y-308962D01*
X36931D01*
Y-309291D01*
X36821D01*
Y-309619D01*
X36712D01*
Y-309838D01*
X36602D01*
Y-310057D01*
X36493D01*
Y-310166D01*
X36383D01*
Y-310385D01*
X36274D01*
Y-310495D01*
X36164D01*
Y-310714D01*
X36055D01*
Y-310823D01*
X35945D01*
Y-311042D01*
X35836D01*
Y-311261D01*
X35726D01*
Y-311371D01*
X35508D01*
Y-311480D01*
X35398D01*
Y-311589D01*
X35179D01*
Y-311699D01*
X34960D01*
Y-311808D01*
X34851D01*
Y-311918D01*
X34632D01*
Y-312027D01*
X34522D01*
Y-312137D01*
X34303D01*
Y-312246D01*
X34084D01*
Y-312356D01*
X33756D01*
Y-312465D01*
X33428D01*
Y-312356D01*
X33209D01*
Y-312246D01*
X33099D01*
Y-312137D01*
X32880D01*
Y-312027D01*
X32771D01*
Y-311918D01*
X32661D01*
Y-311808D01*
X32552D01*
Y-311699D01*
X32443D01*
Y-311589D01*
X32333D01*
Y-311480D01*
X32223D01*
Y-311371D01*
X32114D01*
Y-311152D01*
X32005D01*
Y-311042D01*
X31895D01*
Y-310714D01*
X31786D01*
Y-310495D01*
X31676D01*
Y-310276D01*
X31567D01*
Y-310057D01*
X31457D01*
Y-309729D01*
X31348D01*
Y-309619D01*
X31238D01*
Y-309400D01*
X31129D01*
Y-309181D01*
X31019D01*
Y-308853D01*
X30910D01*
Y-308634D01*
X30691D01*
Y-308524D01*
X29706D01*
Y-308634D01*
X28173D01*
Y-308524D01*
X27297D01*
Y-308415D01*
X26860D01*
Y-308305D01*
X26641D01*
Y-308196D01*
X25874D01*
Y-308086D01*
X25436D01*
Y-307977D01*
X25217D01*
Y-307868D01*
X24889D01*
Y-307758D01*
X24123D01*
Y-307649D01*
X23466D01*
Y-307539D01*
X22590D01*
Y-307430D01*
X22043D01*
Y-307320D01*
X21495D01*
Y-307211D01*
X20839D01*
Y-307101D01*
X19854D01*
Y-306992D01*
X18868D01*
Y-306882D01*
X18430D01*
Y-306992D01*
X18211D01*
Y-307101D01*
X18102D01*
Y-307211D01*
X17993D01*
Y-307430D01*
X17883D01*
Y-307758D01*
X17773D01*
Y-307868D01*
X17664D01*
Y-307977D01*
X17555D01*
Y-308524D01*
X17445D01*
Y-308962D01*
X17336D01*
Y-309510D01*
X17226D01*
Y-311152D01*
X17336D01*
Y-311808D01*
X17445D01*
Y-312027D01*
X17555D01*
Y-312137D01*
X17773D01*
Y-312246D01*
X17993D01*
Y-312356D01*
X18102D01*
Y-312465D01*
X18321D01*
Y-312575D01*
X18540D01*
Y-312684D01*
X18759D01*
Y-312794D01*
X18978D01*
Y-312903D01*
X19087D01*
Y-313013D01*
X19525D01*
Y-313122D01*
X19744D01*
Y-313013D01*
X20291D01*
Y-312903D01*
X20510D01*
Y-312794D01*
X20620D01*
Y-312684D01*
X20729D01*
Y-312465D01*
X20839D01*
Y-312027D01*
X20948D01*
Y-311699D01*
X20839D01*
Y-311261D01*
X20729D01*
Y-310714D01*
X20839D01*
Y-310604D01*
X20948D01*
Y-310495D01*
X21058D01*
Y-310385D01*
X21824D01*
Y-310495D01*
X21933D01*
Y-310604D01*
X22043D01*
Y-310823D01*
X22152D01*
Y-312684D01*
X22043D01*
Y-312903D01*
X21933D01*
Y-313013D01*
X21824D01*
Y-313122D01*
X21714D01*
Y-313232D01*
X21605D01*
Y-313450D01*
X21495D01*
Y-313560D01*
X21386D01*
Y-313669D01*
X21277D01*
Y-313779D01*
X21167D01*
Y-313888D01*
X21058D01*
Y-313998D01*
X20729D01*
Y-314107D01*
X19197D01*
Y-313998D01*
X18868D01*
Y-313888D01*
X18649D01*
Y-313779D01*
X18430D01*
Y-313669D01*
X18211D01*
Y-313560D01*
X18102D01*
Y-313450D01*
X17883D01*
Y-313341D01*
X17664D01*
Y-313232D01*
X17555D01*
Y-313122D01*
X17336D01*
Y-313013D01*
X17226D01*
Y-312903D01*
X17117D01*
Y-312794D01*
X17007D01*
Y-312684D01*
X16898D01*
Y-312575D01*
X16788D01*
Y-312465D01*
X16679D01*
Y-312356D01*
X16569D01*
Y-312137D01*
X16460D01*
Y-311918D01*
X16351D01*
Y-311699D01*
X16241D01*
Y-308524D01*
X16351D01*
Y-308196D01*
X16460D01*
Y-307868D01*
X16569D01*
Y-307649D01*
X16679D01*
Y-306992D01*
X16569D01*
Y-306882D01*
X16351D01*
Y-306773D01*
X15913D01*
Y-306882D01*
X13942D01*
Y-306773D01*
X12847D01*
Y-306663D01*
X12300D01*
Y-306554D01*
X11753D01*
Y-306444D01*
X10658D01*
Y-306335D01*
X10111D01*
Y-306225D01*
X7374D01*
Y-306116D01*
X4418D01*
Y-306007D01*
X4309D01*
Y-305240D01*
X4418D01*
Y-305131D01*
X4528D01*
Y-305240D01*
X8359D01*
Y-305350D01*
X10549D01*
Y-305459D01*
X11096D01*
Y-305569D01*
X13066D01*
Y-305678D01*
X17117D01*
Y-305788D01*
X17664D01*
Y-305897D01*
X18321D01*
Y-306007D01*
X20182D01*
Y-306116D01*
X20620D01*
Y-306225D01*
X21605D01*
Y-306335D01*
X22809D01*
Y-306444D01*
X23247D01*
Y-306554D01*
X23904D01*
Y-306663D01*
X24232D01*
Y-306773D01*
X24451D01*
Y-306882D01*
X24780D01*
Y-306992D01*
X24999D01*
Y-307101D01*
X25655D01*
Y-307211D01*
X26203D01*
Y-307320D01*
X26969D01*
Y-307430D01*
X29049D01*
Y-307539D01*
X30253D01*
Y-307430D01*
X30472D01*
Y-306444D01*
X30363D01*
Y-306007D01*
X30253D01*
Y-304583D01*
X30144D01*
Y-303270D01*
X30034D01*
Y-302504D01*
X29925D01*
Y-301847D01*
X29815D01*
Y-300971D01*
X29706D01*
Y-299110D01*
X29596D01*
Y-298234D01*
X29487D01*
Y-297249D01*
X29377D01*
Y-296921D01*
X29268D01*
Y-296811D01*
X29158D01*
Y-296592D01*
X29049D01*
Y-296373D01*
X28939D01*
Y-296264D01*
X28830D01*
Y-296154D01*
X28721D01*
Y-296045D01*
X28611D01*
Y-295935D01*
X28502D01*
Y-295716D01*
X28392D01*
Y-295060D01*
X28502D01*
Y-294841D01*
X29377D01*
Y-294950D01*
X29487D01*
Y-295060D01*
X29596D01*
Y-295278D01*
X29706D01*
Y-295388D01*
X29815D01*
Y-295497D01*
X29925D01*
Y-295716D01*
X30034D01*
Y-295826D01*
X30144D01*
Y-296045D01*
X30253D01*
Y-296264D01*
X30363D01*
Y-296592D01*
X30472D01*
Y-296811D01*
X30582D01*
Y-297468D01*
X30691D01*
Y-298453D01*
X30800D01*
Y-299219D01*
X30910D01*
Y-301518D01*
X31019D01*
Y-302394D01*
X31129D01*
Y-302832D01*
X31238D01*
Y-304146D01*
X31348D01*
Y-305678D01*
X31457D01*
Y-306444D01*
X31567D01*
Y-306882D01*
X31676D01*
Y-307430D01*
X31786D01*
Y-307977D01*
X31895D01*
Y-308743D01*
X32005D01*
Y-308962D01*
X32114D01*
Y-309291D01*
X32223D01*
Y-309400D01*
X32333D01*
Y-309619D01*
X32443D01*
Y-309729D01*
X32552D01*
Y-309947D01*
X32661D01*
Y-310057D01*
X32771D01*
Y-310276D01*
X32880D01*
Y-310495D01*
X32990D01*
Y-310604D01*
X33099D01*
Y-310823D01*
X33209D01*
Y-311042D01*
X33318D01*
Y-311261D01*
X33428D01*
Y-311371D01*
X33537D01*
Y-311480D01*
X33647D01*
Y-311589D01*
X34303D01*
Y-311480D01*
X34413D01*
Y-311371D01*
X34522D01*
Y-311261D01*
X34632D01*
Y-311152D01*
X34741D01*
Y-311042D01*
X34851D01*
Y-310823D01*
X34960D01*
Y-310714D01*
X35070D01*
Y-310495D01*
X35179D01*
Y-310385D01*
X35289D01*
Y-310166D01*
X35398D01*
Y-309947D01*
X35508D01*
Y-309838D01*
X35617D01*
Y-309619D01*
X35726D01*
Y-309400D01*
X35836D01*
Y-308524D01*
X35945D01*
Y-308305D01*
X36055D01*
Y-307977D01*
X36164D01*
Y-307211D01*
X36055D01*
Y-307101D01*
X35945D01*
Y-306992D01*
X35836D01*
Y-306882D01*
X35726D01*
Y-306773D01*
X35617D01*
Y-306663D01*
X35508D01*
Y-306554D01*
X35289D01*
Y-306444D01*
X35179D01*
Y-306225D01*
X35070D01*
Y-306116D01*
X34960D01*
Y-305788D01*
X34851D01*
Y-305569D01*
X34960D01*
Y-305350D01*
X35070D01*
Y-305240D01*
X35617D01*
Y-305350D01*
X35836D01*
Y-305459D01*
X35945D01*
Y-305569D01*
X36164D01*
Y-305678D01*
X36383D01*
Y-305240D01*
X36493D01*
Y-304036D01*
X36602D01*
Y-297358D01*
X36493D01*
Y-297030D01*
X36383D01*
Y-296811D01*
X36055D01*
Y-296921D01*
X35945D01*
Y-297030D01*
X35836D01*
Y-297139D01*
X35726D01*
Y-297249D01*
X35617D01*
Y-297358D01*
X35508D01*
Y-297577D01*
X35398D01*
Y-297796D01*
X35289D01*
Y-297906D01*
X35179D01*
Y-298015D01*
X35070D01*
Y-298125D01*
X34960D01*
Y-298344D01*
X34851D01*
Y-298453D01*
X34741D01*
Y-298563D01*
X34632D01*
Y-298672D01*
X34413D01*
Y-298563D01*
X34303D01*
Y-298453D01*
X34194D01*
Y-298125D01*
X34303D01*
Y-297577D01*
X34413D01*
Y-297358D01*
X34522D01*
Y-297139D01*
X34632D01*
Y-296921D01*
X34741D01*
Y-296811D01*
X34851D01*
Y-296592D01*
X34960D01*
Y-296483D01*
X35070D01*
Y-296154D01*
X35179D01*
Y-295935D01*
X35289D01*
Y-295716D01*
X35398D01*
Y-295497D01*
X35508D01*
Y-295388D01*
X35617D01*
Y-295278D01*
X35726D01*
Y-294950D01*
X35836D01*
Y-294731D01*
X35726D01*
Y-294403D01*
X35617D01*
Y-294184D01*
X35508D01*
Y-293855D01*
X35398D01*
Y-293308D01*
X35289D01*
Y-292980D01*
X35179D01*
Y-292761D01*
X35070D01*
Y-292432D01*
X34960D01*
Y-292213D01*
X34851D01*
Y-291994D01*
X34741D01*
Y-291666D01*
X34632D01*
Y-291338D01*
X34522D01*
Y-291119D01*
X34413D01*
Y-290790D01*
X34303D01*
Y-290681D01*
X34194D01*
Y-290462D01*
X34084D01*
Y-290352D01*
X33975D01*
Y-290133D01*
X33866D01*
Y-289914D01*
X33756D01*
Y-289805D01*
X33647D01*
Y-289586D01*
X33537D01*
Y-289477D01*
X33428D01*
Y-289258D01*
X33318D01*
Y-289039D01*
X33209D01*
Y-288820D01*
X33099D01*
Y-288601D01*
X32990D01*
Y-288382D01*
X32880D01*
Y-288272D01*
X32771D01*
Y-288053D01*
X32661D01*
Y-287835D01*
X32552D01*
Y-287616D01*
X32443D01*
Y-287506D01*
X32333D01*
Y-287287D01*
X32223D01*
Y-287068D01*
X32114D01*
Y-286849D01*
X32005D01*
Y-286740D01*
X31895D01*
Y-286521D01*
X31786D01*
Y-286411D01*
X31676D01*
Y-286192D01*
X31567D01*
Y-286083D01*
X31457D01*
Y-285864D01*
X31348D01*
Y-285755D01*
X31238D01*
Y-285645D01*
X31129D01*
Y-285536D01*
X31019D01*
Y-285426D01*
X30910D01*
Y-285207D01*
X30800D01*
Y-285098D01*
X30691D01*
Y-284988D01*
X30472D01*
Y-284879D01*
X30363D01*
Y-284769D01*
X30144D01*
Y-284660D01*
X30034D01*
Y-284550D01*
X29925D01*
Y-284441D01*
X29815D01*
Y-284332D01*
X29706D01*
Y-284113D01*
X29596D01*
Y-284003D01*
X29487D01*
Y-283894D01*
X29377D01*
Y-283784D01*
X29268D01*
Y-283565D01*
X29158D01*
Y-283456D01*
X29049D01*
Y-283346D01*
X28939D01*
Y-283237D01*
X28830D01*
Y-283127D01*
X28721D01*
Y-283018D01*
X28611D01*
Y-282799D01*
X28502D01*
Y-282689D01*
X28283D01*
Y-282580D01*
X28173D01*
Y-282471D01*
X28064D01*
Y-282361D01*
X27954D01*
Y-282252D01*
X27735D01*
Y-282142D01*
X27626D01*
Y-282033D01*
X27516D01*
Y-281923D01*
X27407D01*
Y-281814D01*
X27297D01*
Y-281704D01*
X27078D01*
Y-281595D01*
X26969D01*
Y-281485D01*
X26750D01*
Y-281376D01*
X26531D01*
Y-281266D01*
X26312D01*
Y-281157D01*
X26093D01*
Y-281047D01*
X25874D01*
Y-280938D01*
X25765D01*
Y-280828D01*
X25546D01*
Y-280719D01*
X25436D01*
Y-280610D01*
X25217D01*
Y-280500D01*
X24780D01*
Y-280391D01*
X24561D01*
Y-280281D01*
X24342D01*
Y-280172D01*
X24123D01*
Y-280062D01*
X23904D01*
Y-279953D01*
X23685D01*
Y-279843D01*
X23466D01*
Y-279734D01*
X23247D01*
Y-279624D01*
X23028D01*
Y-279515D01*
X22919D01*
Y-279405D01*
X22700D01*
Y-279296D01*
X22481D01*
Y-279186D01*
X22262D01*
Y-279077D01*
X22043D01*
Y-278967D01*
X21824D01*
Y-278858D01*
X21605D01*
Y-278749D01*
X21495D01*
Y-278639D01*
X21277D01*
Y-278530D01*
X21058D01*
Y-278420D01*
X20839D01*
Y-278311D01*
X20620D01*
Y-278201D01*
X20510D01*
Y-278092D01*
X20291D01*
Y-277982D01*
X20072D01*
Y-277873D01*
X19963D01*
Y-277763D01*
X19744D01*
Y-277654D01*
X19416D01*
Y-277544D01*
X18978D01*
Y-277435D01*
X18540D01*
Y-277325D01*
X18321D01*
Y-277216D01*
X17883D01*
Y-277107D01*
X17336D01*
Y-276997D01*
X16679D01*
Y-276888D01*
X16351D01*
Y-276778D01*
X15475D01*
Y-276669D01*
X14818D01*
Y-276559D01*
X14490D01*
Y-276450D01*
X14161D01*
Y-276340D01*
X11424D01*
Y-276231D01*
X10986D01*
Y-276121D01*
X10549D01*
Y-276012D01*
X10001D01*
Y-275902D01*
X8688D01*
Y-275793D01*
X8140D01*
Y-275683D01*
X7702D01*
Y-275574D01*
X7155D01*
Y-275464D01*
X6717D01*
Y-275355D01*
X6498D01*
Y-275246D01*
X5951D01*
Y-275136D01*
X5294D01*
Y-275027D01*
X4418D01*
Y-274917D01*
X4309D01*
Y-274151D01*
X4966D01*
Y-274260D01*
D02*
G37*
G36*
X34413Y-308634D02*
X34522D01*
Y-308853D01*
X34632D01*
Y-308962D01*
X34522D01*
Y-309291D01*
X34413D01*
Y-309510D01*
X34084D01*
Y-309619D01*
X33975D01*
Y-309510D01*
X33756D01*
Y-309400D01*
X33647D01*
Y-309181D01*
X33537D01*
Y-308962D01*
X33647D01*
Y-308743D01*
X33756D01*
Y-308634D01*
X33866D01*
Y-308524D01*
X34413D01*
Y-308634D01*
D02*
G37*
G36*
X40762Y-269663D02*
X40872D01*
Y-283237D01*
X40981D01*
Y-283346D01*
X41528D01*
Y-283456D01*
X44484D01*
Y-283565D01*
X47549D01*
Y-283675D01*
X49410D01*
Y-283565D01*
X49629D01*
Y-283456D01*
X49739D01*
Y-283346D01*
X49848D01*
Y-283127D01*
X49958D01*
Y-282908D01*
X50067D01*
Y-282471D01*
X50177D01*
Y-282252D01*
X50286D01*
Y-281923D01*
X50395D01*
Y-281704D01*
X50505D01*
Y-281376D01*
X50614D01*
Y-281047D01*
X50724D01*
Y-280610D01*
X50833D01*
Y-280172D01*
X50943D01*
Y-279843D01*
X51052D01*
Y-279186D01*
X51162D01*
Y-278639D01*
X51271D01*
Y-278311D01*
X51381D01*
Y-278092D01*
X51490D01*
Y-277873D01*
X51709D01*
Y-277763D01*
X51818D01*
Y-277654D01*
X52585D01*
Y-277544D01*
X54774D01*
Y-277435D01*
X57292D01*
Y-277325D01*
X59919D01*
Y-277216D01*
X60138D01*
Y-276997D01*
X60029D01*
Y-276778D01*
X59919D01*
Y-276231D01*
X60029D01*
Y-276121D01*
X59919D01*
Y-275902D01*
X59810D01*
Y-275793D01*
X59700D01*
Y-275574D01*
X59591D01*
Y-275464D01*
X59481D01*
Y-275355D01*
X59372D01*
Y-275246D01*
X59153D01*
Y-275136D01*
X59043D01*
Y-275027D01*
X58934D01*
Y-274698D01*
X59153D01*
Y-274808D01*
X59372D01*
Y-274917D01*
X59591D01*
Y-274698D01*
X59700D01*
Y-274151D01*
X59591D01*
Y-273932D01*
X59481D01*
Y-273713D01*
X59372D01*
Y-273603D01*
X59262D01*
Y-273494D01*
X59153D01*
Y-273385D01*
X59043D01*
Y-273275D01*
X58934D01*
Y-273166D01*
X58825D01*
Y-273056D01*
X58715D01*
Y-272947D01*
X58606D01*
Y-272837D01*
X58496D01*
Y-272728D01*
X58387D01*
Y-272618D01*
X58277D01*
Y-272509D01*
X58168D01*
Y-272399D01*
X58058D01*
Y-272290D01*
X57949D01*
Y-272181D01*
X57839D01*
Y-272071D01*
X57730D01*
Y-271961D01*
X57620D01*
Y-271743D01*
X57839D01*
Y-271852D01*
X57949D01*
Y-271961D01*
X58168D01*
Y-272071D01*
X58277D01*
Y-272181D01*
X58387D01*
Y-272290D01*
X58496D01*
Y-272399D01*
X58715D01*
Y-272071D01*
X58606D01*
Y-271633D01*
X58715D01*
Y-271743D01*
X58825D01*
Y-271852D01*
X58934D01*
Y-272071D01*
X59043D01*
Y-272290D01*
X59153D01*
Y-272399D01*
X59262D01*
Y-272618D01*
X59372D01*
Y-272837D01*
X59481D01*
Y-272947D01*
X59591D01*
Y-273056D01*
X59810D01*
Y-273166D01*
X59919D01*
Y-273275D01*
X60029D01*
Y-273385D01*
X60138D01*
Y-273603D01*
X60248D01*
Y-273822D01*
X60357D01*
Y-274041D01*
X60467D01*
Y-274260D01*
X60576D01*
Y-274370D01*
X60686D01*
Y-274589D01*
X60795D01*
Y-274698D01*
X60904D01*
Y-274808D01*
X61014D01*
Y-275027D01*
X61123D01*
Y-275136D01*
X61233D01*
Y-275246D01*
X61342D01*
Y-275355D01*
X61452D01*
Y-275464D01*
X61561D01*
Y-275027D01*
X61452D01*
Y-274917D01*
X61342D01*
Y-274698D01*
X61233D01*
Y-274479D01*
X61452D01*
Y-274589D01*
X61561D01*
Y-274698D01*
X61671D01*
Y-274808D01*
X61780D01*
Y-274917D01*
X61890D01*
Y-275136D01*
X61999D01*
Y-275246D01*
X62109D01*
Y-275355D01*
X62218D01*
Y-275464D01*
X62437D01*
Y-275574D01*
X62547D01*
Y-275683D01*
X62656D01*
Y-275793D01*
X62765D01*
Y-275902D01*
X62984D01*
Y-276012D01*
X63094D01*
Y-276121D01*
X63203D01*
Y-276231D01*
X63313D01*
Y-276340D01*
X63422D01*
Y-276669D01*
X63532D01*
Y-276997D01*
X63641D01*
Y-277216D01*
X63751D01*
Y-277325D01*
X63860D01*
Y-277435D01*
X63970D01*
Y-277544D01*
X64079D01*
Y-277654D01*
X64189D01*
Y-277763D01*
X64298D01*
Y-277873D01*
X64408D01*
Y-277982D01*
X64626D01*
Y-278092D01*
X64736D01*
Y-278201D01*
X64845D01*
Y-278311D01*
X65064D01*
Y-278420D01*
X65174D01*
Y-278530D01*
X65283D01*
Y-278639D01*
X65502D01*
Y-278749D01*
X65612D01*
Y-278858D01*
X65721D01*
Y-278967D01*
X65940D01*
Y-279077D01*
X66050D01*
Y-279186D01*
X66269D01*
Y-279296D01*
X66378D01*
Y-279405D01*
X66597D01*
Y-279515D01*
X66706D01*
Y-279624D01*
X66816D01*
Y-279734D01*
X67035D01*
Y-279843D01*
X67144D01*
Y-279953D01*
X67363D01*
Y-280062D01*
X67473D01*
Y-280172D01*
X67692D01*
Y-280281D01*
X67801D01*
Y-280391D01*
X67910D01*
Y-280500D01*
X68130D01*
Y-280610D01*
X68239D01*
Y-280719D01*
X68458D01*
Y-280828D01*
X68567D01*
Y-280938D01*
X68677D01*
Y-281047D01*
X68786D01*
Y-281157D01*
X69005D01*
Y-281266D01*
X69115D01*
Y-281376D01*
X69224D01*
Y-281485D01*
X69334D01*
Y-281595D01*
X69553D01*
Y-281704D01*
X69662D01*
Y-281814D01*
X69771D01*
Y-281923D01*
X69881D01*
Y-282033D01*
X70100D01*
Y-282142D01*
X70209D01*
Y-282252D01*
X70319D01*
Y-282361D01*
X70428D01*
Y-282471D01*
X70538D01*
Y-282580D01*
X70757D01*
Y-282689D01*
X70866D01*
Y-282799D01*
X70976D01*
Y-282908D01*
X71085D01*
Y-283018D01*
X71195D01*
Y-283127D01*
X71304D01*
Y-283237D01*
X71523D01*
Y-283346D01*
X71632D01*
Y-283456D01*
X71742D01*
Y-283565D01*
X71851D01*
Y-283675D01*
X72070D01*
Y-283784D01*
X72180D01*
Y-283894D01*
X72289D01*
Y-284003D01*
X72399D01*
Y-284113D01*
X72508D01*
Y-284222D01*
X72618D01*
Y-284332D01*
X72727D01*
Y-284441D01*
X72837D01*
Y-284550D01*
X72946D01*
Y-284660D01*
X73056D01*
Y-284769D01*
X73165D01*
Y-284879D01*
X73275D01*
Y-284988D01*
X73493D01*
Y-285098D01*
X73603D01*
Y-285207D01*
X73712D01*
Y-285317D01*
X73931D01*
Y-285426D01*
X74041D01*
Y-285536D01*
X74369D01*
Y-285645D01*
X74479D01*
Y-285755D01*
X74588D01*
Y-285864D01*
X74698D01*
Y-285974D01*
X74807D01*
Y-286083D01*
X74917D01*
Y-286192D01*
X75026D01*
Y-286302D01*
X75135D01*
Y-286411D01*
X75245D01*
Y-286630D01*
X75354D01*
Y-286740D01*
X75464D01*
Y-286959D01*
X75573D01*
Y-287068D01*
X75683D01*
Y-287287D01*
X75792D01*
Y-287397D01*
X75902D01*
Y-287506D01*
X76011D01*
Y-287616D01*
X76121D01*
Y-287725D01*
X76230D01*
Y-287835D01*
X76340D01*
Y-287944D01*
X76449D01*
Y-288053D01*
X76559D01*
Y-288163D01*
X76668D01*
Y-288272D01*
X76887D01*
Y-288382D01*
X76996D01*
Y-288491D01*
X77106D01*
Y-288601D01*
X77215D01*
Y-288710D01*
X77325D01*
Y-288929D01*
X77434D01*
Y-289039D01*
X77544D01*
Y-289148D01*
X77653D01*
Y-289367D01*
X77763D01*
Y-289586D01*
X77872D01*
Y-289696D01*
X77982D01*
Y-289914D01*
X78091D01*
Y-290133D01*
X78201D01*
Y-290352D01*
X78310D01*
Y-290571D01*
X78420D01*
Y-290900D01*
X78529D01*
Y-291119D01*
X78639D01*
Y-291338D01*
X78748D01*
Y-291666D01*
X78857D01*
Y-291885D01*
X78967D01*
Y-292323D01*
X79076D01*
Y-292651D01*
X79186D01*
Y-292980D01*
X79295D01*
Y-293417D01*
X79405D01*
Y-294184D01*
X79514D01*
Y-295060D01*
X79624D01*
Y-299110D01*
X79514D01*
Y-299657D01*
X79405D01*
Y-300205D01*
X79295D01*
Y-300643D01*
X79186D01*
Y-300861D01*
X79076D01*
Y-301190D01*
X78967D01*
Y-301518D01*
X78857D01*
Y-301737D01*
X78748D01*
Y-301956D01*
X78639D01*
Y-302175D01*
X78529D01*
Y-302394D01*
X78420D01*
Y-302613D01*
X78310D01*
Y-302832D01*
X78201D01*
Y-303051D01*
X78091D01*
Y-303160D01*
X77982D01*
Y-303379D01*
X77872D01*
Y-303489D01*
X77763D01*
Y-303598D01*
X77653D01*
Y-303817D01*
X77544D01*
Y-303927D01*
X77434D01*
Y-304036D01*
X77325D01*
Y-304146D01*
X77215D01*
Y-304255D01*
X77106D01*
Y-304364D01*
X76996D01*
Y-304474D01*
X76778D01*
Y-304693D01*
X76668D01*
Y-304802D01*
X76559D01*
Y-304912D01*
X76449D01*
Y-305021D01*
X76340D01*
Y-305131D01*
X76230D01*
Y-305240D01*
X76121D01*
Y-305350D01*
X76011D01*
Y-305569D01*
X75902D01*
Y-305678D01*
X75792D01*
Y-305788D01*
X75683D01*
Y-305897D01*
X75573D01*
Y-306007D01*
X75464D01*
Y-306225D01*
X75354D01*
Y-306335D01*
X75245D01*
Y-306444D01*
X75135D01*
Y-306663D01*
X75026D01*
Y-306773D01*
X74917D01*
Y-306882D01*
X74807D01*
Y-307101D01*
X74698D01*
Y-307211D01*
X74588D01*
Y-307320D01*
X74479D01*
Y-307539D01*
X74369D01*
Y-307649D01*
X74260D01*
Y-307758D01*
X74150D01*
Y-307868D01*
X74041D01*
Y-307977D01*
X73931D01*
Y-308086D01*
X73822D01*
Y-308196D01*
X73712D01*
Y-308305D01*
X73603D01*
Y-308415D01*
X73384D01*
Y-308524D01*
X73275D01*
Y-308634D01*
X73165D01*
Y-308743D01*
X72946D01*
Y-308853D01*
X72837D01*
Y-308962D01*
X72618D01*
Y-309072D01*
X72399D01*
Y-309181D01*
X72289D01*
Y-309291D01*
X72070D01*
Y-309400D01*
X71851D01*
Y-309510D01*
X71632D01*
Y-309619D01*
X71414D01*
Y-309729D01*
X71195D01*
Y-309838D01*
X70976D01*
Y-309947D01*
X70866D01*
Y-310057D01*
X70647D01*
Y-310166D01*
X70428D01*
Y-310276D01*
X70209D01*
Y-310385D01*
X70100D01*
Y-310495D01*
X69881D01*
Y-310604D01*
X69662D01*
Y-310714D01*
X69553D01*
Y-310823D01*
X69334D01*
Y-310933D01*
X69224D01*
Y-311042D01*
X69005D01*
Y-311152D01*
X68896D01*
Y-311261D01*
X68677D01*
Y-311371D01*
X68567D01*
Y-311480D01*
X68348D01*
Y-311589D01*
X68239D01*
Y-311699D01*
X68130D01*
Y-311808D01*
X68020D01*
Y-311918D01*
X67801D01*
Y-312027D01*
X67692D01*
Y-312137D01*
X67582D01*
Y-312246D01*
X67363D01*
Y-312356D01*
X67254D01*
Y-312465D01*
X67144D01*
Y-312575D01*
X67035D01*
Y-312684D01*
X66925D01*
Y-312794D01*
X66706D01*
Y-312903D01*
X66597D01*
Y-313013D01*
X66487D01*
Y-313122D01*
X66378D01*
Y-313232D01*
X66269D01*
Y-313341D01*
X66159D01*
Y-313450D01*
X65940D01*
Y-313560D01*
X65831D01*
Y-313669D01*
X65721D01*
Y-313779D01*
X65612D01*
Y-313888D01*
X65393D01*
Y-313998D01*
X65283D01*
Y-314107D01*
X65174D01*
Y-314217D01*
X65064D01*
Y-314326D01*
X64845D01*
Y-314436D01*
X64736D01*
Y-314545D01*
X64626D01*
Y-314655D01*
X64517D01*
Y-314764D01*
X64408D01*
Y-314874D01*
X64298D01*
Y-314983D01*
X64189D01*
Y-315092D01*
X64079D01*
Y-315202D01*
X63970D01*
Y-315421D01*
X64079D01*
Y-315530D01*
X64189D01*
Y-315640D01*
X64298D01*
Y-315749D01*
X64408D01*
Y-315968D01*
X64517D01*
Y-316297D01*
X64408D01*
Y-316406D01*
X64298D01*
Y-316516D01*
X64189D01*
Y-316625D01*
X63970D01*
Y-316735D01*
X63860D01*
Y-316844D01*
X63751D01*
Y-317063D01*
X63641D01*
Y-317282D01*
X63532D01*
Y-317391D01*
X63422D01*
Y-317501D01*
X63313D01*
Y-317610D01*
X63203D01*
Y-317720D01*
X62984D01*
Y-317829D01*
X62875D01*
Y-317939D01*
X62656D01*
Y-318048D01*
X62547D01*
Y-318158D01*
X62218D01*
Y-318267D01*
X61890D01*
Y-318158D01*
X61342D01*
Y-318267D01*
X61123D01*
Y-318486D01*
X61014D01*
Y-318596D01*
X60904D01*
Y-318705D01*
X60795D01*
Y-318814D01*
X60686D01*
Y-319033D01*
X60576D01*
Y-319143D01*
X60467D01*
Y-319252D01*
X60357D01*
Y-319362D01*
X60248D01*
Y-319581D01*
X60138D01*
Y-319690D01*
X60029D01*
Y-319800D01*
X59919D01*
Y-319909D01*
X59810D01*
Y-320128D01*
X59700D01*
Y-320238D01*
X59591D01*
Y-320347D01*
X59481D01*
Y-320456D01*
X59372D01*
Y-320566D01*
X59153D01*
Y-320675D01*
X58934D01*
Y-320785D01*
X58715D01*
Y-320894D01*
X58606D01*
Y-321004D01*
X58496D01*
Y-321113D01*
X58387D01*
Y-321332D01*
X58277D01*
Y-321442D01*
X58058D01*
Y-321551D01*
X57949D01*
Y-321661D01*
X57839D01*
Y-321332D01*
X57949D01*
Y-321223D01*
X58058D01*
Y-321113D01*
X58168D01*
Y-321004D01*
X58277D01*
Y-320785D01*
X58387D01*
Y-320675D01*
X58496D01*
Y-320456D01*
X58606D01*
Y-320347D01*
X58715D01*
Y-320238D01*
X58825D01*
Y-320128D01*
X58934D01*
Y-319909D01*
X59043D01*
Y-319800D01*
X59153D01*
Y-319581D01*
X59043D01*
Y-319471D01*
X58934D01*
Y-319362D01*
X58606D01*
Y-319471D01*
X58387D01*
Y-319581D01*
X58277D01*
Y-319690D01*
X58058D01*
Y-319800D01*
X57949D01*
Y-319909D01*
X57839D01*
Y-320019D01*
X57620D01*
Y-320128D01*
X57511D01*
Y-320238D01*
X57401D01*
Y-320347D01*
X57183D01*
Y-320456D01*
X57073D01*
Y-320566D01*
X56964D01*
Y-320675D01*
X56745D01*
Y-320785D01*
X56526D01*
Y-320456D01*
X56635D01*
Y-320347D01*
X56745D01*
Y-320128D01*
X56854D01*
Y-319909D01*
X56964D01*
Y-319800D01*
X57073D01*
Y-319581D01*
X57183D01*
Y-319471D01*
X57292D01*
Y-319252D01*
X57401D01*
Y-319143D01*
X57511D01*
Y-318924D01*
X57620D01*
Y-318814D01*
X57730D01*
Y-318705D01*
X57839D01*
Y-318486D01*
X57949D01*
Y-318377D01*
X58058D01*
Y-318267D01*
X58168D01*
Y-318158D01*
X58277D01*
Y-318048D01*
X58387D01*
Y-317829D01*
X58496D01*
Y-317720D01*
X58606D01*
Y-317610D01*
X58715D01*
Y-317501D01*
X58825D01*
Y-317391D01*
X58934D01*
Y-317282D01*
X59043D01*
Y-317172D01*
X59153D01*
Y-317063D01*
X59262D01*
Y-316953D01*
X59372D01*
Y-316844D01*
X59481D01*
Y-316735D01*
X59591D01*
Y-316625D01*
X59700D01*
Y-316406D01*
X58277D01*
Y-316516D01*
X57730D01*
Y-316625D01*
X57292D01*
Y-316735D01*
X56854D01*
Y-316844D01*
X56307D01*
Y-316953D01*
X55650D01*
Y-317063D01*
X54774D01*
Y-317172D01*
X54008D01*
Y-317282D01*
X53132D01*
Y-317391D01*
X52256D01*
Y-317501D01*
X51271D01*
Y-317610D01*
X50505D01*
Y-317720D01*
X49848D01*
Y-317829D01*
X49191D01*
Y-317939D01*
X48534D01*
Y-317829D01*
X48206D01*
Y-317720D01*
X48097D01*
Y-317610D01*
X47987D01*
Y-317391D01*
X47878D01*
Y-317172D01*
X47768D01*
Y-316844D01*
X47659D01*
Y-316516D01*
X47549D01*
Y-316187D01*
X47440D01*
Y-315749D01*
X47330D01*
Y-315421D01*
X47221D01*
Y-314983D01*
X47111D01*
Y-314655D01*
X47002D01*
Y-314326D01*
X46892D01*
Y-313998D01*
X46783D01*
Y-313888D01*
X46564D01*
Y-313779D01*
X46345D01*
Y-313888D01*
X45798D01*
Y-313998D01*
X45469D01*
Y-314107D01*
X44922D01*
Y-314217D01*
X44484D01*
Y-314326D01*
X44046D01*
Y-314436D01*
X43608D01*
Y-314545D01*
X43170D01*
Y-314655D01*
X42733D01*
Y-314764D01*
X42295D01*
Y-314874D01*
X41857D01*
Y-314983D01*
X41528D01*
Y-315092D01*
X41200D01*
Y-315202D01*
X41090D01*
Y-315311D01*
X40981D01*
Y-323850D01*
X77434D01*
Y-323960D01*
X82470D01*
Y-324069D01*
X82579D01*
Y-324397D01*
X82470D01*
Y-324507D01*
X40981D01*
Y-328886D01*
X41090D01*
Y-328995D01*
X42295D01*
Y-328886D01*
X43170D01*
Y-328776D01*
X51052D01*
Y-328886D01*
X52694D01*
Y-328995D01*
X54227D01*
Y-329104D01*
X54993D01*
Y-329214D01*
X55760D01*
Y-329324D01*
X56307D01*
Y-329433D01*
X57401D01*
Y-329542D01*
X58168D01*
Y-329652D01*
X58715D01*
Y-329761D01*
X59372D01*
Y-329871D01*
X59810D01*
Y-329980D01*
X60467D01*
Y-330090D01*
X61014D01*
Y-330199D01*
X61561D01*
Y-330309D01*
X62109D01*
Y-330418D01*
X62437D01*
Y-330528D01*
X62765D01*
Y-330637D01*
X63094D01*
Y-330747D01*
X63422D01*
Y-330856D01*
X63641D01*
Y-330965D01*
X63860D01*
Y-331075D01*
X64079D01*
Y-331185D01*
X64408D01*
Y-331294D01*
X64736D01*
Y-331403D01*
X64955D01*
Y-331513D01*
X65283D01*
Y-331622D01*
X65502D01*
Y-331732D01*
X65721D01*
Y-331841D01*
X65940D01*
Y-331951D01*
X66050D01*
Y-332060D01*
X66269D01*
Y-332170D01*
X66378D01*
Y-332279D01*
X66597D01*
Y-332389D01*
X66816D01*
Y-332498D01*
X67035D01*
Y-332607D01*
X67254D01*
Y-332717D01*
X67473D01*
Y-332826D01*
X67801D01*
Y-332936D01*
X68020D01*
Y-333045D01*
X68239D01*
Y-333155D01*
X68458D01*
Y-333264D01*
X68677D01*
Y-333374D01*
X68786D01*
Y-333483D01*
X69005D01*
Y-333593D01*
X69115D01*
Y-333702D01*
X69224D01*
Y-333812D01*
X69443D01*
Y-333921D01*
X69553D01*
Y-334031D01*
X69662D01*
Y-334140D01*
X69771D01*
Y-334250D01*
X69881D01*
Y-334359D01*
X70100D01*
Y-334468D01*
X70209D01*
Y-334578D01*
X70319D01*
Y-334688D01*
X70538D01*
Y-334797D01*
X70647D01*
Y-334906D01*
X70757D01*
Y-335016D01*
X70866D01*
Y-335125D01*
X71085D01*
Y-335235D01*
X71195D01*
Y-335344D01*
X71304D01*
Y-335454D01*
X71523D01*
Y-335563D01*
X71632D01*
Y-335673D01*
X71742D01*
Y-335782D01*
X71851D01*
Y-335892D01*
X72070D01*
Y-336001D01*
X72180D01*
Y-336111D01*
X72289D01*
Y-336220D01*
X72399D01*
Y-336329D01*
X72508D01*
Y-336439D01*
X72618D01*
Y-336549D01*
X72727D01*
Y-336658D01*
X72837D01*
Y-336767D01*
X72946D01*
Y-336877D01*
X73165D01*
Y-336986D01*
X73275D01*
Y-337096D01*
X73384D01*
Y-337205D01*
X73493D01*
Y-337315D01*
X73603D01*
Y-337534D01*
X73712D01*
Y-337643D01*
X73931D01*
Y-337753D01*
X74041D01*
Y-337862D01*
X74150D01*
Y-337972D01*
X74260D01*
Y-338081D01*
X74369D01*
Y-338190D01*
X74479D01*
Y-338300D01*
X74588D01*
Y-338409D01*
X74698D01*
Y-338628D01*
X74807D01*
Y-338738D01*
X74917D01*
Y-338847D01*
X75026D01*
Y-338957D01*
X75135D01*
Y-339066D01*
X75245D01*
Y-339176D01*
X75354D01*
Y-339285D01*
X75464D01*
Y-339395D01*
X75573D01*
Y-339504D01*
X75683D01*
Y-339614D01*
X75792D01*
Y-339723D01*
X75902D01*
Y-339832D01*
X76011D01*
Y-339942D01*
X76121D01*
Y-340051D01*
X76230D01*
Y-340270D01*
X76340D01*
Y-340380D01*
X76449D01*
Y-340489D01*
X76668D01*
Y-340599D01*
X76778D01*
Y-340708D01*
X76887D01*
Y-340927D01*
X76996D01*
Y-341037D01*
X77106D01*
Y-341256D01*
X77215D01*
Y-341365D01*
X77325D01*
Y-341584D01*
X77434D01*
Y-341693D01*
X77544D01*
Y-341912D01*
X77653D01*
Y-342131D01*
X77763D01*
Y-342241D01*
X77872D01*
Y-342460D01*
X77982D01*
Y-342679D01*
X78091D01*
Y-342788D01*
X78201D01*
Y-343007D01*
X78310D01*
Y-343117D01*
X78420D01*
Y-343336D01*
X78529D01*
Y-343554D01*
X78639D01*
Y-343773D01*
X78748D01*
Y-343883D01*
X78857D01*
Y-344102D01*
X78967D01*
Y-344211D01*
X79076D01*
Y-344430D01*
X79186D01*
Y-344649D01*
X79295D01*
Y-344868D01*
X79405D01*
Y-344978D01*
X79514D01*
Y-345196D01*
X79624D01*
Y-345415D01*
X79733D01*
Y-345634D01*
X79843D01*
Y-345853D01*
X79952D01*
Y-346072D01*
X80062D01*
Y-346291D01*
X80171D01*
Y-346510D01*
X80281D01*
Y-346729D01*
X80390D01*
Y-346948D01*
X80499D01*
Y-347167D01*
X80609D01*
Y-347495D01*
X80718D01*
Y-347714D01*
X80828D01*
Y-348043D01*
X80937D01*
Y-348262D01*
X81047D01*
Y-348481D01*
X81156D01*
Y-348699D01*
X81266D01*
Y-349356D01*
X81375D01*
Y-349575D01*
X81485D01*
Y-349904D01*
X81594D01*
Y-350232D01*
X81704D01*
Y-350451D01*
X81813D01*
Y-350670D01*
X81923D01*
Y-350889D01*
X82032D01*
Y-351217D01*
X82142D01*
Y-351765D01*
X82251D01*
Y-352203D01*
X82360D01*
Y-352859D01*
X82470D01*
Y-353626D01*
X82579D01*
Y-359537D01*
X82470D01*
Y-360303D01*
X82360D01*
Y-361179D01*
X82251D01*
Y-361726D01*
X82142D01*
Y-362274D01*
X82032D01*
Y-362712D01*
X81923D01*
Y-362931D01*
X81813D01*
Y-363149D01*
X81704D01*
Y-363478D01*
X81594D01*
Y-363806D01*
X81485D01*
Y-364025D01*
X81375D01*
Y-364244D01*
X81266D01*
Y-364463D01*
X81156D01*
Y-364791D01*
X81047D01*
Y-364901D01*
X80937D01*
Y-365120D01*
X80828D01*
Y-365339D01*
X80718D01*
Y-365448D01*
X80609D01*
Y-365558D01*
X80499D01*
Y-365777D01*
X80390D01*
Y-365886D01*
X80281D01*
Y-365996D01*
X80171D01*
Y-366105D01*
X80062D01*
Y-366215D01*
X79952D01*
Y-366324D01*
X79624D01*
Y-366434D01*
X79405D01*
Y-366543D01*
X79186D01*
Y-366652D01*
X78857D01*
Y-366762D01*
X78639D01*
Y-366871D01*
X77982D01*
Y-366981D01*
X77544D01*
Y-367090D01*
X76340D01*
Y-366981D01*
X75902D01*
Y-366871D01*
X75683D01*
Y-366762D01*
X75354D01*
Y-366652D01*
X75135D01*
Y-366543D01*
X75026D01*
Y-366434D01*
X74807D01*
Y-366324D01*
X74588D01*
Y-366215D01*
X74479D01*
Y-366105D01*
X74369D01*
Y-365996D01*
X74260D01*
Y-365886D01*
X74150D01*
Y-365667D01*
X74041D01*
Y-365448D01*
X73931D01*
Y-365229D01*
X73822D01*
Y-365010D01*
X73712D01*
Y-364791D01*
X73603D01*
Y-364682D01*
X73493D01*
Y-364463D01*
X73384D01*
Y-364354D01*
X73275D01*
Y-364244D01*
X73165D01*
Y-364135D01*
X73056D01*
Y-364025D01*
X72946D01*
Y-363916D01*
X72837D01*
Y-363806D01*
X72618D01*
Y-363916D01*
X72508D01*
Y-364025D01*
X72289D01*
Y-364135D01*
X72180D01*
Y-364244D01*
X72070D01*
Y-364354D01*
X71742D01*
Y-364463D01*
X71304D01*
Y-364573D01*
X70538D01*
Y-364682D01*
X68677D01*
Y-364573D01*
X68348D01*
Y-364463D01*
X68130D01*
Y-364354D01*
X67801D01*
Y-364244D01*
X67582D01*
Y-364135D01*
X67363D01*
Y-364025D01*
X67144D01*
Y-363916D01*
X67035D01*
Y-363806D01*
X66925D01*
Y-363697D01*
X66706D01*
Y-363587D01*
X66597D01*
Y-363478D01*
X66378D01*
Y-363368D01*
X66269D01*
Y-363259D01*
X66050D01*
Y-363149D01*
X65940D01*
Y-363040D01*
X65831D01*
Y-362931D01*
X65612D01*
Y-362821D01*
X65393D01*
Y-362712D01*
X65283D01*
Y-362602D01*
X65174D01*
Y-362493D01*
X64955D01*
Y-362383D01*
X64845D01*
Y-362274D01*
X64626D01*
Y-362164D01*
X64517D01*
Y-362055D01*
X64298D01*
Y-361945D01*
X64079D01*
Y-361836D01*
X63970D01*
Y-361726D01*
X63751D01*
Y-361617D01*
X63641D01*
Y-361507D01*
X63532D01*
Y-361398D01*
X63313D01*
Y-361288D01*
X63094D01*
Y-361179D01*
X62875D01*
Y-361070D01*
X62656D01*
Y-360960D01*
X62437D01*
Y-360851D01*
X61890D01*
Y-360741D01*
X61123D01*
Y-360632D01*
X59043D01*
Y-360741D01*
X58277D01*
Y-360851D01*
X57183D01*
Y-360960D01*
X57073D01*
Y-361070D01*
X56964D01*
Y-361945D01*
X56854D01*
Y-363806D01*
X56745D01*
Y-364573D01*
X56635D01*
Y-365339D01*
X56526D01*
Y-366105D01*
X56416D01*
Y-366652D01*
X56307D01*
Y-367200D01*
X56197D01*
Y-367638D01*
X56088D01*
Y-368076D01*
X55978D01*
Y-368513D01*
X55869D01*
Y-369061D01*
X55760D01*
Y-369280D01*
X55650D01*
Y-369389D01*
X55540D01*
Y-369499D01*
X55431D01*
Y-369608D01*
X55322D01*
Y-369718D01*
X55103D01*
Y-369827D01*
X53023D01*
Y-369718D01*
X52475D01*
Y-369608D01*
X52147D01*
Y-369499D01*
X51928D01*
Y-369389D01*
X51600D01*
Y-369280D01*
X51381D01*
Y-369170D01*
X51052D01*
Y-369061D01*
X50833D01*
Y-368951D01*
X50505D01*
Y-368842D01*
X50177D01*
Y-368732D01*
X49958D01*
Y-368623D01*
X49629D01*
Y-368513D01*
X49410D01*
Y-368404D01*
X48972D01*
Y-368295D01*
X48753D01*
Y-368185D01*
X48534D01*
Y-368076D01*
X48316D01*
Y-367966D01*
X48097D01*
Y-367857D01*
X47878D01*
Y-367747D01*
X47659D01*
Y-367638D01*
X47440D01*
Y-367528D01*
X47221D01*
Y-367419D01*
X46892D01*
Y-367309D01*
X46673D01*
Y-367200D01*
X46455D01*
Y-367090D01*
X46236D01*
Y-366981D01*
X46017D01*
Y-366871D01*
X45907D01*
Y-366762D01*
X45688D01*
Y-366652D01*
X45360D01*
Y-366543D01*
X45141D01*
Y-366434D01*
X44922D01*
Y-366324D01*
X44703D01*
Y-366215D01*
X44265D01*
Y-366105D01*
X44046D01*
Y-365996D01*
X43827D01*
Y-365886D01*
X43499D01*
Y-365777D01*
X43280D01*
Y-365667D01*
X42951D01*
Y-365558D01*
X42404D01*
Y-365448D01*
X41966D01*
Y-365339D01*
X41857D01*
Y-365229D01*
X41747D01*
Y-364791D01*
X41638D01*
Y-364682D01*
X41528D01*
Y-364791D01*
X41200D01*
Y-364901D01*
X40981D01*
Y-377818D01*
X40434D01*
Y-377709D01*
X40324D01*
Y-377490D01*
X40434D01*
Y-377271D01*
X40324D01*
Y-324616D01*
X40215D01*
Y-324507D01*
X9892D01*
Y-324397D01*
X4309D01*
Y-323850D01*
X4528D01*
Y-323741D01*
X4637D01*
Y-323850D01*
X40215D01*
Y-323741D01*
X40324D01*
Y-273494D01*
X40215D01*
Y-269772D01*
X40324D01*
Y-269553D01*
X40762D01*
Y-269663D01*
D02*
G37*
G36*
X29815Y-332607D02*
X30472D01*
Y-332717D01*
X30800D01*
Y-332826D01*
X31019D01*
Y-332936D01*
X31238D01*
Y-333045D01*
X31457D01*
Y-333155D01*
X31567D01*
Y-333264D01*
X31786D01*
Y-333374D01*
X31895D01*
Y-333483D01*
X32005D01*
Y-333593D01*
X32114D01*
Y-333702D01*
X32223D01*
Y-333812D01*
X32333D01*
Y-333921D01*
X32443D01*
Y-334031D01*
X32552D01*
Y-334140D01*
X32661D01*
Y-334359D01*
X32771D01*
Y-334468D01*
X32880D01*
Y-334578D01*
X32990D01*
Y-334797D01*
X33099D01*
Y-334906D01*
X33209D01*
Y-335125D01*
X33318D01*
Y-335235D01*
X33428D01*
Y-335344D01*
X33537D01*
Y-335454D01*
X33647D01*
Y-335673D01*
X33756D01*
Y-335782D01*
X33866D01*
Y-336001D01*
X33975D01*
Y-336111D01*
X34084D01*
Y-336329D01*
X34194D01*
Y-336549D01*
X34303D01*
Y-336767D01*
X34413D01*
Y-336986D01*
X34522D01*
Y-337205D01*
X34632D01*
Y-337534D01*
X34741D01*
Y-337753D01*
X34851D01*
Y-338190D01*
X34960D01*
Y-338409D01*
X35070D01*
Y-338738D01*
X35179D01*
Y-339066D01*
X35289D01*
Y-339395D01*
X35398D01*
Y-339723D01*
X35508D01*
Y-340051D01*
X35617D01*
Y-340489D01*
X35726D01*
Y-340818D01*
X35836D01*
Y-341256D01*
X35945D01*
Y-341693D01*
X36055D01*
Y-342241D01*
X36164D01*
Y-342788D01*
X36274D01*
Y-343445D01*
X36383D01*
Y-344430D01*
X36493D01*
Y-346839D01*
X36602D01*
Y-347057D01*
X36493D01*
Y-348699D01*
X36383D01*
Y-349356D01*
X36274D01*
Y-349904D01*
X36164D01*
Y-350451D01*
X36055D01*
Y-351108D01*
X35945D01*
Y-351546D01*
X35836D01*
Y-352093D01*
X35726D01*
Y-352640D01*
X35617D01*
Y-353078D01*
X35508D01*
Y-353516D01*
X35398D01*
Y-353954D01*
X35289D01*
Y-354392D01*
X35179D01*
Y-354830D01*
X35070D01*
Y-355268D01*
X34960D01*
Y-355596D01*
X34851D01*
Y-355815D01*
X34741D01*
Y-356143D01*
X34632D01*
Y-356362D01*
X34522D01*
Y-356581D01*
X34413D01*
Y-356800D01*
X34303D01*
Y-357019D01*
X34194D01*
Y-357129D01*
X34084D01*
Y-357348D01*
X33975D01*
Y-357567D01*
X33866D01*
Y-357676D01*
X33756D01*
Y-357895D01*
X33647D01*
Y-358004D01*
X33537D01*
Y-358223D01*
X33428D01*
Y-358333D01*
X33318D01*
Y-358442D01*
X33209D01*
Y-358661D01*
X33099D01*
Y-358771D01*
X32990D01*
Y-358990D01*
X32880D01*
Y-359099D01*
X32771D01*
Y-359209D01*
X32661D01*
Y-359318D01*
X32552D01*
Y-359537D01*
X32443D01*
Y-359646D01*
X32333D01*
Y-359756D01*
X32223D01*
Y-359865D01*
X32114D01*
Y-359975D01*
X32005D01*
Y-360084D01*
X31895D01*
Y-360303D01*
X31786D01*
Y-360413D01*
X31676D01*
Y-360522D01*
X31567D01*
Y-360632D01*
X31457D01*
Y-360851D01*
X31348D01*
Y-360960D01*
X31238D01*
Y-361070D01*
X31129D01*
Y-361179D01*
X31019D01*
Y-361398D01*
X30910D01*
Y-361507D01*
X30800D01*
Y-361617D01*
X30691D01*
Y-361726D01*
X30582D01*
Y-361836D01*
X30472D01*
Y-361945D01*
X30363D01*
Y-362055D01*
X30253D01*
Y-362164D01*
X30144D01*
Y-362274D01*
X30034D01*
Y-362383D01*
X29815D01*
Y-362493D01*
X29706D01*
Y-362602D01*
X29596D01*
Y-362712D01*
X29377D01*
Y-362821D01*
X29268D01*
Y-362931D01*
X29049D01*
Y-363040D01*
X28939D01*
Y-363149D01*
X28721D01*
Y-363259D01*
X28611D01*
Y-363368D01*
X28392D01*
Y-363478D01*
X28173D01*
Y-363587D01*
X28064D01*
Y-363697D01*
X27845D01*
Y-363806D01*
X27626D01*
Y-363916D01*
X27516D01*
Y-364025D01*
X27297D01*
Y-364135D01*
X27078D01*
Y-364244D01*
X26969D01*
Y-364354D01*
X26750D01*
Y-364463D01*
X26531D01*
Y-364573D01*
X26422D01*
Y-364682D01*
X26203D01*
Y-364791D01*
X25984D01*
Y-364901D01*
X25765D01*
Y-365010D01*
X25655D01*
Y-365120D01*
X25436D01*
Y-365229D01*
X25217D01*
Y-365339D01*
X25108D01*
Y-365448D01*
X24889D01*
Y-365558D01*
X24670D01*
Y-365667D01*
X24561D01*
Y-365777D01*
X24342D01*
Y-365886D01*
X24232D01*
Y-365996D01*
X24013D01*
Y-366105D01*
X23794D01*
Y-366215D01*
X23685D01*
Y-366324D01*
X23356D01*
Y-366434D01*
X23247D01*
Y-366543D01*
X23028D01*
Y-366652D01*
X22809D01*
Y-366762D01*
X22590D01*
Y-366871D01*
X22371D01*
Y-366981D01*
X22043D01*
Y-367090D01*
X21824D01*
Y-367200D01*
X21495D01*
Y-367309D01*
X21167D01*
Y-367419D01*
X20839D01*
Y-367528D01*
X20510D01*
Y-367638D01*
X20072D01*
Y-367747D01*
X19635D01*
Y-367857D01*
X19197D01*
Y-367966D01*
X18649D01*
Y-368076D01*
X17993D01*
Y-368185D01*
X17117D01*
Y-368295D01*
X16351D01*
Y-368404D01*
X15694D01*
Y-368513D01*
X14927D01*
Y-368623D01*
X14380D01*
Y-368732D01*
X13833D01*
Y-368842D01*
X13066D01*
Y-368951D01*
X12410D01*
Y-369061D01*
X11972D01*
Y-369170D01*
X11205D01*
Y-369280D01*
X10549D01*
Y-369389D01*
X9892D01*
Y-369499D01*
X9344D01*
Y-369608D01*
X8688D01*
Y-369718D01*
X8140D01*
Y-369827D01*
X7483D01*
Y-369937D01*
X6827D01*
Y-370046D01*
X6279D01*
Y-370155D01*
X5622D01*
Y-370265D01*
X4856D01*
Y-370374D01*
X4418D01*
Y-370265D01*
X4309D01*
Y-368951D01*
X4418D01*
Y-368842D01*
X5404D01*
Y-368732D01*
X6279D01*
Y-368623D01*
X6936D01*
Y-368513D01*
X7593D01*
Y-368404D01*
X8250D01*
Y-368295D01*
X8797D01*
Y-368185D01*
X9344D01*
Y-368076D01*
X9892D01*
Y-367966D01*
X10439D01*
Y-367857D01*
X11096D01*
Y-367747D01*
X11643D01*
Y-367638D01*
X12410D01*
Y-367528D01*
X13066D01*
Y-367419D01*
X13723D01*
Y-367309D01*
X14380D01*
Y-367200D01*
X15037D01*
Y-367090D01*
X15694D01*
Y-366981D01*
X16460D01*
Y-366871D01*
X17226D01*
Y-366762D01*
X17883D01*
Y-366652D01*
X18759D01*
Y-366543D01*
X19306D01*
Y-366434D01*
X19744D01*
Y-366324D01*
X20072D01*
Y-366215D01*
X20401D01*
Y-366105D01*
X20729D01*
Y-365996D01*
X21058D01*
Y-365886D01*
X21277D01*
Y-365777D01*
X21605D01*
Y-365667D01*
X21824D01*
Y-365558D01*
X22043D01*
Y-365448D01*
X22262D01*
Y-365339D01*
X22481D01*
Y-365229D01*
X22700D01*
Y-365120D01*
X22919D01*
Y-365010D01*
X23028D01*
Y-364901D01*
X23247D01*
Y-364791D01*
X23466D01*
Y-364682D01*
X23575D01*
Y-364573D01*
X23794D01*
Y-364463D01*
X24013D01*
Y-364354D01*
X24123D01*
Y-364244D01*
X24342D01*
Y-364135D01*
X24451D01*
Y-364025D01*
X24670D01*
Y-363916D01*
X24780D01*
Y-363806D01*
X24999D01*
Y-363697D01*
X25217D01*
Y-363587D01*
X25436D01*
Y-363478D01*
X25546D01*
Y-363368D01*
X25765D01*
Y-363259D01*
X25984D01*
Y-363149D01*
X26093D01*
Y-363040D01*
X26312D01*
Y-362931D01*
X26531D01*
Y-362821D01*
X26750D01*
Y-362712D01*
X26860D01*
Y-362602D01*
X27078D01*
Y-362493D01*
X27297D01*
Y-362383D01*
X27516D01*
Y-362274D01*
X27735D01*
Y-362164D01*
X27845D01*
Y-362055D01*
X28064D01*
Y-361945D01*
X28283D01*
Y-361836D01*
X28392D01*
Y-361726D01*
X28502D01*
Y-361617D01*
X28721D01*
Y-361507D01*
X28830D01*
Y-361398D01*
X28939D01*
Y-361288D01*
X29049D01*
Y-361179D01*
X29268D01*
Y-360960D01*
X29487D01*
Y-360851D01*
X29596D01*
Y-360741D01*
X29706D01*
Y-360632D01*
X29815D01*
Y-360522D01*
X29925D01*
Y-360413D01*
X30034D01*
Y-360303D01*
X30144D01*
Y-360084D01*
X30253D01*
Y-359975D01*
X30363D01*
Y-359865D01*
X30472D01*
Y-359756D01*
X30582D01*
Y-359646D01*
X30691D01*
Y-359428D01*
X30800D01*
Y-359318D01*
X30910D01*
Y-359209D01*
X31019D01*
Y-359099D01*
X31129D01*
Y-358880D01*
X31238D01*
Y-358771D01*
X31348D01*
Y-358661D01*
X31457D01*
Y-358552D01*
X31567D01*
Y-358333D01*
X31676D01*
Y-358223D01*
X31786D01*
Y-358114D01*
X31895D01*
Y-358004D01*
X32005D01*
Y-357785D01*
X32114D01*
Y-357676D01*
X32223D01*
Y-357567D01*
X32333D01*
Y-357457D01*
X32443D01*
Y-357238D01*
X32552D01*
Y-357129D01*
X32661D01*
Y-357019D01*
X32771D01*
Y-356800D01*
X32880D01*
Y-356581D01*
X32990D01*
Y-356472D01*
X33099D01*
Y-356253D01*
X33209D01*
Y-355924D01*
X33318D01*
Y-355706D01*
X33428D01*
Y-355377D01*
X33537D01*
Y-355049D01*
X33647D01*
Y-354720D01*
X33756D01*
Y-354282D01*
X33866D01*
Y-353954D01*
X33975D01*
Y-353516D01*
X34084D01*
Y-353188D01*
X34194D01*
Y-352859D01*
X34303D01*
Y-352421D01*
X34413D01*
Y-351874D01*
X34522D01*
Y-351436D01*
X34632D01*
Y-350779D01*
X34741D01*
Y-350123D01*
X34851D01*
Y-349466D01*
X34960D01*
Y-348809D01*
X35070D01*
Y-347933D01*
X35179D01*
Y-346072D01*
X35070D01*
Y-343773D01*
X34960D01*
Y-343117D01*
X34851D01*
Y-342569D01*
X34741D01*
Y-342022D01*
X34632D01*
Y-341584D01*
X34522D01*
Y-341256D01*
X34413D01*
Y-340927D01*
X34303D01*
Y-340489D01*
X34194D01*
Y-340161D01*
X34084D01*
Y-339723D01*
X33975D01*
Y-339395D01*
X33866D01*
Y-339066D01*
X33756D01*
Y-338738D01*
X33647D01*
Y-338409D01*
X33537D01*
Y-338081D01*
X33428D01*
Y-337862D01*
X33318D01*
Y-337643D01*
X33209D01*
Y-337424D01*
X33099D01*
Y-337205D01*
X32990D01*
Y-336986D01*
X32880D01*
Y-336767D01*
X32771D01*
Y-336658D01*
X32661D01*
Y-336439D01*
X32552D01*
Y-336329D01*
X32443D01*
Y-336111D01*
X32333D01*
Y-336001D01*
X32223D01*
Y-335782D01*
X32114D01*
Y-335673D01*
X32005D01*
Y-335563D01*
X31895D01*
Y-335454D01*
X31786D01*
Y-335344D01*
X31676D01*
Y-335235D01*
X31567D01*
Y-335016D01*
X31457D01*
Y-334906D01*
X31348D01*
Y-334797D01*
X31238D01*
Y-334688D01*
X31129D01*
Y-334578D01*
X31019D01*
Y-334468D01*
X30910D01*
Y-334359D01*
X30800D01*
Y-334250D01*
X30582D01*
Y-334140D01*
X30472D01*
Y-334031D01*
X30253D01*
Y-333921D01*
X29706D01*
Y-333812D01*
X29268D01*
Y-333921D01*
X28721D01*
Y-334031D01*
X28502D01*
Y-334140D01*
X28283D01*
Y-334250D01*
X28173D01*
Y-334359D01*
X27954D01*
Y-334468D01*
X27845D01*
Y-334578D01*
X27735D01*
Y-334688D01*
X27626D01*
Y-334906D01*
X27516D01*
Y-335016D01*
X27407D01*
Y-335235D01*
X27297D01*
Y-335454D01*
X27188D01*
Y-335892D01*
X27078D01*
Y-336220D01*
X26969D01*
Y-336767D01*
X26860D01*
Y-337753D01*
X26750D01*
Y-338738D01*
X26641D01*
Y-342569D01*
X26750D01*
Y-344430D01*
X26860D01*
Y-345634D01*
X26969D01*
Y-346401D01*
X27078D01*
Y-347276D01*
X27188D01*
Y-348043D01*
X27297D01*
Y-348809D01*
X27407D01*
Y-349575D01*
X27516D01*
Y-350123D01*
X27626D01*
Y-350670D01*
X27735D01*
Y-351327D01*
X27845D01*
Y-351874D01*
X27954D01*
Y-352640D01*
X28064D01*
Y-353078D01*
X27954D01*
Y-353297D01*
X27845D01*
Y-353516D01*
X27735D01*
Y-353626D01*
X27078D01*
Y-353516D01*
X26969D01*
Y-353407D01*
X26860D01*
Y-353188D01*
X26750D01*
Y-352969D01*
X26641D01*
Y-352531D01*
X26531D01*
Y-351984D01*
X26422D01*
Y-351327D01*
X26312D01*
Y-350889D01*
X26203D01*
Y-350232D01*
X26093D01*
Y-349466D01*
X25984D01*
Y-348809D01*
X25874D01*
Y-348262D01*
X25765D01*
Y-347386D01*
X25655D01*
Y-346182D01*
X25546D01*
Y-344321D01*
X25436D01*
Y-342569D01*
X25327D01*
Y-340708D01*
X25217D01*
Y-339395D01*
X25108D01*
Y-339176D01*
X24889D01*
Y-339066D01*
X24561D01*
Y-339176D01*
X24232D01*
Y-339285D01*
X23685D01*
Y-339395D01*
X23028D01*
Y-339504D01*
X18321D01*
Y-339395D01*
X16569D01*
Y-339285D01*
X14818D01*
Y-339176D01*
X13395D01*
Y-339066D01*
X11643D01*
Y-338957D01*
X9563D01*
Y-338847D01*
X8688D01*
Y-338738D01*
X7921D01*
Y-338628D01*
X7265D01*
Y-338519D01*
X6717D01*
Y-338409D01*
X6279D01*
Y-338300D01*
X5841D01*
Y-338190D01*
X5404D01*
Y-338081D01*
X4966D01*
Y-337972D01*
X4418D01*
Y-337862D01*
X4309D01*
Y-336549D01*
X4418D01*
Y-336439D01*
X4528D01*
Y-336549D01*
X4856D01*
Y-336658D01*
X5404D01*
Y-336767D01*
X5732D01*
Y-336877D01*
X6170D01*
Y-336986D01*
X6717D01*
Y-337096D01*
X7155D01*
Y-337205D01*
X7702D01*
Y-337315D01*
X8250D01*
Y-337424D01*
X9344D01*
Y-337534D01*
X11205D01*
Y-337643D01*
X13176D01*
Y-337534D01*
X13395D01*
Y-337424D01*
X13504D01*
Y-337205D01*
X13614D01*
Y-336986D01*
X13723D01*
Y-336877D01*
X13833D01*
Y-336767D01*
X13942D01*
Y-336549D01*
X14052D01*
Y-336329D01*
X14161D01*
Y-335892D01*
X14052D01*
Y-335673D01*
X13942D01*
Y-335454D01*
X13833D01*
Y-335235D01*
X13723D01*
Y-334688D01*
X13833D01*
Y-334468D01*
X13942D01*
Y-334250D01*
X14052D01*
Y-334140D01*
X14270D01*
Y-334031D01*
X14599D01*
Y-333921D01*
X14927D01*
Y-333812D01*
X15146D01*
Y-333702D01*
X15365D01*
Y-333593D01*
X15803D01*
Y-333702D01*
X16022D01*
Y-333812D01*
X16241D01*
Y-333921D01*
X16679D01*
Y-333812D01*
X17007D01*
Y-333921D01*
X17226D01*
Y-334031D01*
X17336D01*
Y-334140D01*
X17445D01*
Y-334250D01*
X17555D01*
Y-335235D01*
X17664D01*
Y-335344D01*
X17883D01*
Y-335454D01*
X18211D01*
Y-335563D01*
X18430D01*
Y-335673D01*
X18649D01*
Y-335892D01*
X18759D01*
Y-336001D01*
X18868D01*
Y-336439D01*
X18759D01*
Y-336658D01*
X18649D01*
Y-336767D01*
X18540D01*
Y-336877D01*
X17773D01*
Y-336767D01*
X17445D01*
Y-336658D01*
X17226D01*
Y-336549D01*
X17007D01*
Y-336439D01*
X16679D01*
Y-336329D01*
X16351D01*
Y-336439D01*
X16022D01*
Y-336549D01*
X15913D01*
Y-336658D01*
X15803D01*
Y-336767D01*
X15694D01*
Y-336877D01*
X15475D01*
Y-336986D01*
X15365D01*
Y-337096D01*
X15256D01*
Y-337205D01*
X15146D01*
Y-337315D01*
X15037D01*
Y-337424D01*
X14927D01*
Y-337534D01*
X14818D01*
Y-337862D01*
X15146D01*
Y-337972D01*
X15913D01*
Y-338081D01*
X24670D01*
Y-337972D01*
X25108D01*
Y-337862D01*
X25217D01*
Y-337753D01*
X25327D01*
Y-337534D01*
X25436D01*
Y-337315D01*
X25546D01*
Y-336439D01*
X25655D01*
Y-335892D01*
X25765D01*
Y-335454D01*
X25874D01*
Y-335125D01*
X25984D01*
Y-334797D01*
X26093D01*
Y-334578D01*
X26203D01*
Y-334359D01*
X26312D01*
Y-334250D01*
X26422D01*
Y-334031D01*
X26531D01*
Y-333921D01*
X26641D01*
Y-333702D01*
X26750D01*
Y-333593D01*
X26860D01*
Y-333483D01*
X26969D01*
Y-333374D01*
X27078D01*
Y-333264D01*
X27297D01*
Y-333155D01*
X27407D01*
Y-333045D01*
X27626D01*
Y-332936D01*
X27845D01*
Y-332826D01*
X28064D01*
Y-332717D01*
X28392D01*
Y-332607D01*
X29049D01*
Y-332498D01*
X29815D01*
Y-332607D01*
D02*
G37*
G36*
X29925Y-338409D02*
X30253D01*
Y-338519D01*
X30472D01*
Y-338628D01*
X30582D01*
Y-338738D01*
X30691D01*
Y-338847D01*
X30800D01*
Y-339066D01*
X30910D01*
Y-339285D01*
X31019D01*
Y-340161D01*
X30910D01*
Y-340380D01*
X30800D01*
Y-340599D01*
X30691D01*
Y-340708D01*
X30582D01*
Y-340818D01*
X30363D01*
Y-340927D01*
X30144D01*
Y-341037D01*
X29268D01*
Y-340927D01*
X29049D01*
Y-340818D01*
X28830D01*
Y-340708D01*
X28721D01*
Y-340599D01*
X28611D01*
Y-340380D01*
X28502D01*
Y-340161D01*
X28392D01*
Y-339285D01*
X28502D01*
Y-339066D01*
X28611D01*
Y-338847D01*
X28721D01*
Y-338738D01*
X28830D01*
Y-338628D01*
X28939D01*
Y-338519D01*
X29158D01*
Y-338409D01*
X29487D01*
Y-338300D01*
X29925D01*
Y-338409D01*
D02*
G37*
G36*
X30253Y-349685D02*
X30582D01*
Y-349794D01*
X30691D01*
Y-349904D01*
X30800D01*
Y-350013D01*
X30910D01*
Y-350123D01*
X31019D01*
Y-350232D01*
X31129D01*
Y-350451D01*
X31238D01*
Y-351436D01*
X31129D01*
Y-351655D01*
X31019D01*
Y-351765D01*
X30910D01*
Y-351874D01*
X30800D01*
Y-351984D01*
X30691D01*
Y-352093D01*
X30582D01*
Y-352203D01*
X30253D01*
Y-352312D01*
X29596D01*
Y-352203D01*
X29377D01*
Y-352093D01*
X29158D01*
Y-351984D01*
X29049D01*
Y-351874D01*
X28939D01*
Y-351765D01*
X28830D01*
Y-351655D01*
X28721D01*
Y-351436D01*
X28611D01*
Y-350451D01*
X28721D01*
Y-350232D01*
X28830D01*
Y-350123D01*
X28939D01*
Y-350013D01*
X29049D01*
Y-349904D01*
X29158D01*
Y-349794D01*
X29268D01*
Y-349685D01*
X29596D01*
Y-349575D01*
X30253D01*
Y-349685D01*
D02*
G37*
G36*
X16569Y-351108D02*
X16788D01*
Y-351217D01*
X16898D01*
Y-351327D01*
X17007D01*
Y-351436D01*
X17226D01*
Y-351546D01*
X17664D01*
Y-351655D01*
X17883D01*
Y-351765D01*
X18102D01*
Y-351984D01*
X18211D01*
Y-352640D01*
X18321D01*
Y-352750D01*
X18868D01*
Y-352640D01*
X19635D01*
Y-352750D01*
X19854D01*
Y-352859D01*
X19963D01*
Y-353078D01*
X20072D01*
Y-353626D01*
X19963D01*
Y-353735D01*
X19854D01*
Y-353845D01*
X19744D01*
Y-353954D01*
X19416D01*
Y-354064D01*
X18649D01*
Y-354173D01*
X17555D01*
Y-354282D01*
X17336D01*
Y-354392D01*
X17226D01*
Y-354501D01*
X17117D01*
Y-354720D01*
X17007D01*
Y-354830D01*
X16898D01*
Y-355049D01*
X16788D01*
Y-355377D01*
X16679D01*
Y-355487D01*
X16569D01*
Y-355706D01*
X16460D01*
Y-355924D01*
X16351D01*
Y-356143D01*
X16241D01*
Y-356362D01*
X16132D01*
Y-356581D01*
X16022D01*
Y-356800D01*
X15913D01*
Y-356910D01*
X15803D01*
Y-357129D01*
X15694D01*
Y-357348D01*
X15584D01*
Y-357676D01*
X15475D01*
Y-357895D01*
X15365D01*
Y-358114D01*
X15256D01*
Y-358442D01*
X15146D01*
Y-358661D01*
X15037D01*
Y-359099D01*
X14927D01*
Y-359537D01*
X14818D01*
Y-360413D01*
X14708D01*
Y-361398D01*
X14818D01*
Y-361945D01*
X14927D01*
Y-362602D01*
X14818D01*
Y-362712D01*
X14708D01*
Y-362821D01*
X14599D01*
Y-362931D01*
X14380D01*
Y-363040D01*
X14161D01*
Y-362931D01*
X13942D01*
Y-362821D01*
X13833D01*
Y-362712D01*
X13723D01*
Y-362602D01*
X13614D01*
Y-362274D01*
X13504D01*
Y-361945D01*
X13395D01*
Y-359975D01*
X13504D01*
Y-359318D01*
X13614D01*
Y-358771D01*
X13723D01*
Y-358333D01*
X13833D01*
Y-358004D01*
X13942D01*
Y-357676D01*
X14052D01*
Y-357348D01*
X14161D01*
Y-357019D01*
X14270D01*
Y-356800D01*
X14380D01*
Y-356581D01*
X14490D01*
Y-356362D01*
X14599D01*
Y-356143D01*
X14708D01*
Y-355924D01*
X14818D01*
Y-355706D01*
X14927D01*
Y-355596D01*
X15037D01*
Y-355377D01*
X15146D01*
Y-355158D01*
X15256D01*
Y-354939D01*
X15365D01*
Y-354830D01*
X15475D01*
Y-354173D01*
X15365D01*
Y-354064D01*
X15256D01*
Y-353954D01*
X15146D01*
Y-353845D01*
X15037D01*
Y-353735D01*
X14927D01*
Y-353516D01*
X14818D01*
Y-353297D01*
X14708D01*
Y-353078D01*
X14599D01*
Y-351874D01*
X14708D01*
Y-351765D01*
X14818D01*
Y-351546D01*
X15037D01*
Y-351436D01*
X15584D01*
Y-351327D01*
X15803D01*
Y-351217D01*
X16022D01*
Y-351108D01*
X16132D01*
Y-350998D01*
X16569D01*
Y-351108D01*
D02*
G37*
%LPC*%
G36*
X23735Y-22168D02*
X23640D01*
Y-22834D01*
X23735D01*
Y-23120D01*
X23830D01*
Y-23406D01*
X23925D01*
Y-23501D01*
X24021D01*
Y-23691D01*
X24116D01*
Y-23215D01*
X24021D01*
Y-22930D01*
X23925D01*
Y-22644D01*
X23830D01*
Y-22358D01*
X23735D01*
Y-22168D01*
D02*
G37*
G36*
X23259Y-22453D02*
X23068D01*
Y-24168D01*
X23163D01*
Y-24263D01*
X23259D01*
Y-24358D01*
X23354D01*
Y-24548D01*
X23544D01*
Y-24168D01*
X23449D01*
Y-23215D01*
X23354D01*
Y-22739D01*
X23259D01*
Y-22453D01*
D02*
G37*
G36*
X23925Y-23787D02*
X23830D01*
Y-24739D01*
X23925D01*
Y-25310D01*
X24021D01*
Y-25406D01*
X24116D01*
Y-25596D01*
X24211D01*
Y-25691D01*
X24306D01*
Y-25787D01*
X24402D01*
Y-25977D01*
X24497D01*
Y-26072D01*
X24592D01*
Y-26168D01*
X24687D01*
Y-25691D01*
X24592D01*
Y-25120D01*
X24497D01*
Y-24929D01*
X24402D01*
Y-24644D01*
X24306D01*
Y-24548D01*
X24211D01*
Y-24358D01*
X24116D01*
Y-24168D01*
X24021D01*
Y-23977D01*
X23925D01*
Y-23787D01*
D02*
G37*
G36*
X25068Y-26263D02*
X24973D01*
Y-26548D01*
X25068D01*
Y-26834D01*
X25163D01*
Y-27025D01*
X25259D01*
Y-27120D01*
X25354D01*
Y-26834D01*
X25259D01*
Y-26548D01*
X25163D01*
Y-26358D01*
X25068D01*
Y-26263D01*
D02*
G37*
G36*
X24211Y-26072D02*
X24021D01*
Y-26739D01*
X24116D01*
Y-27596D01*
X24211D01*
Y-27786D01*
X24306D01*
Y-27882D01*
X24402D01*
Y-27977D01*
X24497D01*
Y-28072D01*
X24592D01*
Y-28167D01*
X24687D01*
Y-28263D01*
X24782D01*
Y-28358D01*
X24878D01*
Y-28453D01*
X24973D01*
Y-28548D01*
X25259D01*
Y-28453D01*
X25163D01*
Y-27977D01*
X25068D01*
Y-27501D01*
X24973D01*
Y-27215D01*
X24878D01*
Y-27025D01*
X24782D01*
Y-26929D01*
X24687D01*
Y-26739D01*
X24592D01*
Y-26644D01*
X24497D01*
Y-26453D01*
X24402D01*
Y-26358D01*
X24306D01*
Y-26263D01*
X24211D01*
Y-26072D01*
D02*
G37*
G36*
X25449Y-27786D02*
X25259D01*
Y-28072D01*
X25354D01*
Y-28453D01*
X25449D01*
Y-28929D01*
X25544D01*
Y-29120D01*
X25640D01*
Y-29215D01*
X25735D01*
Y-29310D01*
X25830D01*
Y-29405D01*
X25925D01*
Y-29501D01*
X26020D01*
Y-29596D01*
X26211D01*
Y-29310D01*
X26116D01*
Y-29025D01*
X26020D01*
Y-28739D01*
X25925D01*
Y-28453D01*
X25830D01*
Y-28358D01*
X25735D01*
Y-28167D01*
X25640D01*
Y-28072D01*
X25544D01*
Y-27977D01*
X25449D01*
Y-27786D01*
D02*
G37*
G36*
X23259Y-27025D02*
X23068D01*
Y-28929D01*
X23163D01*
Y-29025D01*
X23259D01*
Y-29120D01*
X23354D01*
Y-29215D01*
X23544D01*
Y-29310D01*
X23640D01*
Y-29405D01*
X23830D01*
Y-29501D01*
X23925D01*
Y-29596D01*
X24021D01*
Y-28929D01*
X23925D01*
Y-27882D01*
X23830D01*
Y-27596D01*
X23735D01*
Y-27501D01*
X23640D01*
Y-27406D01*
X23544D01*
Y-27310D01*
X23449D01*
Y-27215D01*
X23354D01*
Y-27120D01*
X23259D01*
Y-27025D01*
D02*
G37*
G36*
X26687Y-29596D02*
X26592D01*
Y-29786D01*
X26687D01*
Y-29977D01*
X26782D01*
Y-30262D01*
X26878D01*
Y-30358D01*
X26973D01*
Y-30548D01*
X27068D01*
Y-30643D01*
X27258D01*
Y-30358D01*
X27163D01*
Y-30262D01*
X27068D01*
Y-30072D01*
X26973D01*
Y-29882D01*
X26878D01*
Y-29786D01*
X26782D01*
Y-29691D01*
X26687D01*
Y-29596D01*
D02*
G37*
G36*
X24402Y-28167D02*
X24211D01*
Y-28548D01*
X24306D01*
Y-29501D01*
X24402D01*
Y-29882D01*
X24497D01*
Y-29977D01*
X24592D01*
Y-30072D01*
X24782D01*
Y-30167D01*
X24878D01*
Y-30262D01*
X24973D01*
Y-30358D01*
X25163D01*
Y-30453D01*
X25259D01*
Y-30548D01*
X25449D01*
Y-30643D01*
X25640D01*
Y-30453D01*
X25544D01*
Y-29977D01*
X25449D01*
Y-29405D01*
X25354D01*
Y-29120D01*
X25259D01*
Y-29025D01*
X25163D01*
Y-28929D01*
X25068D01*
Y-28739D01*
X24878D01*
Y-28644D01*
X24782D01*
Y-28548D01*
X24687D01*
Y-28453D01*
X24592D01*
Y-28358D01*
X24497D01*
Y-28263D01*
X24402D01*
Y-28167D01*
D02*
G37*
G36*
X25925Y-29596D02*
X25640D01*
Y-29977D01*
X25735D01*
Y-30453D01*
X25830D01*
Y-30929D01*
X25925D01*
Y-31024D01*
X26116D01*
Y-31120D01*
X26211D01*
Y-31215D01*
X26401D01*
Y-31310D01*
X26497D01*
Y-31405D01*
X26687D01*
Y-31500D01*
X26782D01*
Y-31596D01*
X26878D01*
Y-31310D01*
X26782D01*
Y-31024D01*
X26687D01*
Y-30739D01*
X26592D01*
Y-30453D01*
X26497D01*
Y-30262D01*
X26401D01*
Y-30167D01*
X26306D01*
Y-29977D01*
X26211D01*
Y-29882D01*
X26116D01*
Y-29786D01*
X26020D01*
Y-29691D01*
X25925D01*
Y-29596D01*
D02*
G37*
G36*
X27258Y-30929D02*
X27068D01*
Y-31120D01*
X27163D01*
Y-31405D01*
X27258D01*
Y-31691D01*
X27354D01*
Y-31977D01*
X27449D01*
Y-32072D01*
X27544D01*
Y-32167D01*
X27735D01*
Y-32262D01*
X27830D01*
Y-32358D01*
X28020D01*
Y-32453D01*
X28115D01*
Y-32548D01*
X28306D01*
Y-32358D01*
X28211D01*
Y-32167D01*
X28115D01*
Y-31977D01*
X28020D01*
Y-31786D01*
X27925D01*
Y-31691D01*
X27830D01*
Y-31500D01*
X27735D01*
Y-31405D01*
X27639D01*
Y-31310D01*
X27544D01*
Y-31215D01*
X27449D01*
Y-31120D01*
X27354D01*
Y-31024D01*
X27258D01*
Y-30929D01*
D02*
G37*
G36*
X24592Y-30358D02*
X24497D01*
Y-31310D01*
X24592D01*
Y-32167D01*
X24687D01*
Y-32262D01*
X24782D01*
Y-32358D01*
X24973D01*
Y-32453D01*
X25163D01*
Y-32548D01*
X25354D01*
Y-32643D01*
X25544D01*
Y-32738D01*
X25735D01*
Y-32834D01*
X26116D01*
Y-32738D01*
X26020D01*
Y-32262D01*
X25925D01*
Y-31691D01*
X25830D01*
Y-31215D01*
X25735D01*
Y-31120D01*
X25544D01*
Y-31024D01*
X25449D01*
Y-30929D01*
X25259D01*
Y-30834D01*
X25163D01*
Y-30739D01*
X24973D01*
Y-30643D01*
X24878D01*
Y-30548D01*
X24782D01*
Y-30453D01*
X24592D01*
Y-30358D01*
D02*
G37*
G36*
X28782Y-32453D02*
X28592D01*
Y-32643D01*
X28687D01*
Y-32929D01*
X28782D01*
Y-33024D01*
X28877D01*
Y-33119D01*
X29068D01*
Y-33215D01*
X29258D01*
Y-33310D01*
X29354D01*
Y-33215D01*
X29258D01*
Y-33024D01*
X29163D01*
Y-32929D01*
X29068D01*
Y-32834D01*
X28973D01*
Y-32738D01*
X28877D01*
Y-32548D01*
X28782D01*
Y-32453D01*
D02*
G37*
G36*
X26211Y-31500D02*
X26020D01*
Y-31881D01*
X26116D01*
Y-32262D01*
X26211D01*
Y-32643D01*
X26306D01*
Y-33024D01*
X26401D01*
Y-33119D01*
X26497D01*
Y-33215D01*
X26687D01*
Y-33310D01*
X26878D01*
Y-33405D01*
X27068D01*
Y-33500D01*
X27258D01*
Y-33596D01*
X27544D01*
Y-33215D01*
X27449D01*
Y-32929D01*
X27354D01*
Y-32738D01*
X27258D01*
Y-32453D01*
X27163D01*
Y-32167D01*
X27068D01*
Y-32072D01*
X26878D01*
Y-31977D01*
X26782D01*
Y-31881D01*
X26687D01*
Y-31786D01*
X26497D01*
Y-31691D01*
X26401D01*
Y-31596D01*
X26211D01*
Y-31500D01*
D02*
G37*
G36*
X23259Y-31691D02*
X23163D01*
Y-31786D01*
X23068D01*
Y-33881D01*
X23259D01*
Y-33977D01*
X23544D01*
Y-34072D01*
X23830D01*
Y-34167D01*
X24116D01*
Y-34262D01*
X24497D01*
Y-33500D01*
X24402D01*
Y-32548D01*
X24306D01*
Y-32262D01*
X24211D01*
Y-32167D01*
X24021D01*
Y-32072D01*
X23830D01*
Y-31977D01*
X23640D01*
Y-31881D01*
X23449D01*
Y-31786D01*
X23259D01*
Y-31691D01*
D02*
G37*
G36*
X27735Y-32548D02*
X27639D01*
Y-32834D01*
X27735D01*
Y-33119D01*
X27830D01*
Y-33405D01*
X27925D01*
Y-33691D01*
X28020D01*
Y-33881D01*
X28115D01*
Y-33977D01*
X28306D01*
Y-34072D01*
X28496D01*
Y-34167D01*
X28687D01*
Y-34262D01*
X28877D01*
Y-34358D01*
X29258D01*
Y-34262D01*
X29163D01*
Y-34072D01*
X29068D01*
Y-33881D01*
X28973D01*
Y-33596D01*
X28877D01*
Y-33500D01*
X28782D01*
Y-33310D01*
X28687D01*
Y-33215D01*
X28592D01*
Y-33119D01*
X28401D01*
Y-33024D01*
X28306D01*
Y-32929D01*
X28115D01*
Y-32834D01*
X28020D01*
Y-32738D01*
X27830D01*
Y-32643D01*
X27735D01*
Y-32548D01*
D02*
G37*
G36*
X24973D02*
X24687D01*
Y-33215D01*
X24782D01*
Y-34262D01*
X24878D01*
Y-34453D01*
X25068D01*
Y-34548D01*
X25354D01*
Y-34643D01*
X25640D01*
Y-34738D01*
X25925D01*
Y-34834D01*
X26211D01*
Y-34929D01*
X26497D01*
Y-34548D01*
X26401D01*
Y-34167D01*
X26306D01*
Y-33691D01*
X26211D01*
Y-33215D01*
X26116D01*
Y-33119D01*
X25925D01*
Y-33024D01*
X25735D01*
Y-32929D01*
X25544D01*
Y-32834D01*
X25354D01*
Y-32738D01*
X25163D01*
Y-32643D01*
X24973D01*
Y-32548D01*
D02*
G37*
G36*
X29354Y-33691D02*
X29163D01*
Y-33881D01*
X29258D01*
Y-33977D01*
X29354D01*
Y-34167D01*
X29449D01*
Y-34358D01*
X29544D01*
Y-34548D01*
X29639D01*
Y-34738D01*
X29830D01*
Y-34834D01*
X30020D01*
Y-34929D01*
X30211D01*
Y-35024D01*
X30401D01*
Y-35119D01*
X30592D01*
Y-34834D01*
X30496D01*
Y-34738D01*
X30401D01*
Y-34643D01*
X30306D01*
Y-34453D01*
X30211D01*
Y-34358D01*
X30115D01*
Y-34262D01*
X30020D01*
Y-34167D01*
X29925D01*
Y-34072D01*
X29734D01*
Y-33977D01*
X29639D01*
Y-33881D01*
X29449D01*
Y-33786D01*
X29354D01*
Y-33691D01*
D02*
G37*
G36*
X26782Y-33405D02*
X26401D01*
Y-33691D01*
X26497D01*
Y-34262D01*
X26592D01*
Y-34738D01*
X26687D01*
Y-35024D01*
X26782D01*
Y-35119D01*
X27068D01*
Y-35215D01*
X27354D01*
Y-35310D01*
X27639D01*
Y-35405D01*
X27925D01*
Y-35500D01*
X28211D01*
Y-35215D01*
X28115D01*
Y-34929D01*
X28020D01*
Y-34643D01*
X27925D01*
Y-34358D01*
X27830D01*
Y-34072D01*
X27735D01*
Y-33977D01*
X27639D01*
Y-33881D01*
X27544D01*
Y-33786D01*
X27354D01*
Y-33691D01*
X27163D01*
Y-33596D01*
X26973D01*
Y-33500D01*
X26782D01*
Y-33405D01*
D02*
G37*
G36*
X31258Y-35024D02*
X31068D01*
Y-35119D01*
X31163D01*
Y-35215D01*
X31258D01*
Y-35405D01*
X31353D01*
Y-35500D01*
X31449D01*
Y-35596D01*
X31639D01*
Y-35691D01*
X31830D01*
Y-35786D01*
X31925D01*
Y-35596D01*
X31830D01*
Y-35500D01*
X31734D01*
Y-35405D01*
X31639D01*
Y-35310D01*
X31544D01*
Y-35215D01*
X31353D01*
Y-35119D01*
X31258D01*
Y-35024D01*
D02*
G37*
G36*
X28496Y-34262D02*
X28211D01*
Y-34453D01*
X28306D01*
Y-34738D01*
X28401D01*
Y-35024D01*
X28496D01*
Y-35310D01*
X28592D01*
Y-35596D01*
X28687D01*
Y-35691D01*
X28877D01*
Y-35786D01*
X29163D01*
Y-35881D01*
X29449D01*
Y-35976D01*
X29734D01*
Y-36072D01*
X30115D01*
Y-35976D01*
X30020D01*
Y-35691D01*
X29925D01*
Y-35500D01*
X29830D01*
Y-35310D01*
X29734D01*
Y-35119D01*
X29639D01*
Y-34929D01*
X29544D01*
Y-34834D01*
X29449D01*
Y-34738D01*
X29258D01*
Y-34643D01*
X29068D01*
Y-34548D01*
X28877D01*
Y-34453D01*
X28687D01*
Y-34358D01*
X28496D01*
Y-34262D01*
D02*
G37*
G36*
X30306Y-35119D02*
X29925D01*
Y-35310D01*
X30020D01*
Y-35500D01*
X30115D01*
Y-35691D01*
X30211D01*
Y-35881D01*
X30306D01*
Y-36072D01*
X30401D01*
Y-36167D01*
X30496D01*
Y-36262D01*
X30592D01*
Y-36357D01*
X30877D01*
Y-36453D01*
X31163D01*
Y-36548D01*
X31449D01*
Y-36643D01*
X31734D01*
Y-36453D01*
X31639D01*
Y-36262D01*
X31544D01*
Y-36167D01*
X31449D01*
Y-36072D01*
X31353D01*
Y-35881D01*
X31258D01*
Y-35786D01*
X31163D01*
Y-35691D01*
X31068D01*
Y-35596D01*
X30972D01*
Y-35500D01*
X30782D01*
Y-35405D01*
X30592D01*
Y-35310D01*
X30496D01*
Y-35215D01*
X30306D01*
Y-35119D01*
D02*
G37*
G36*
X25259Y-34834D02*
X24878D01*
Y-35215D01*
X24973D01*
Y-36167D01*
X25068D01*
Y-36643D01*
X25163D01*
Y-36738D01*
X25544D01*
Y-36834D01*
X26020D01*
Y-36929D01*
X26497D01*
Y-37024D01*
X26878D01*
Y-36453D01*
X26782D01*
Y-35881D01*
X26687D01*
Y-35500D01*
X26592D01*
Y-35310D01*
X26401D01*
Y-35215D01*
X26116D01*
Y-35119D01*
X25830D01*
Y-35024D01*
X25544D01*
Y-34929D01*
X25259D01*
Y-34834D01*
D02*
G37*
G36*
X32020Y-35976D02*
X31830D01*
Y-36167D01*
X31925D01*
Y-36262D01*
X32020D01*
Y-36453D01*
X32115D01*
Y-36548D01*
X32211D01*
Y-36643D01*
X32306D01*
Y-36834D01*
X32401D01*
Y-36929D01*
X32687D01*
Y-37024D01*
X32972D01*
Y-37119D01*
X33258D01*
Y-37215D01*
X33449D01*
Y-37024D01*
X33353D01*
Y-36929D01*
X33258D01*
Y-36834D01*
X33163D01*
Y-36738D01*
X33068D01*
Y-36643D01*
X32972D01*
Y-36548D01*
X32877D01*
Y-36453D01*
X32782D01*
Y-36357D01*
X32592D01*
Y-36262D01*
X32401D01*
Y-36167D01*
X32211D01*
Y-36072D01*
X32020D01*
Y-35976D01*
D02*
G37*
G36*
X27258Y-35500D02*
X26782D01*
Y-35596D01*
X26878D01*
Y-36072D01*
X26973D01*
Y-36453D01*
X27068D01*
Y-36929D01*
X27163D01*
Y-37119D01*
X27544D01*
Y-37215D01*
X28020D01*
Y-37310D01*
X28496D01*
Y-37405D01*
X28877D01*
Y-37119D01*
X28782D01*
Y-36834D01*
X28687D01*
Y-36548D01*
X28592D01*
Y-36262D01*
X28496D01*
Y-36072D01*
X28401D01*
Y-35881D01*
X28115D01*
Y-35786D01*
X27830D01*
Y-35691D01*
X27544D01*
Y-35596D01*
X27258D01*
Y-35500D01*
D02*
G37*
G36*
X33925Y-36929D02*
X33639D01*
Y-37024D01*
X33734D01*
Y-37119D01*
X33830D01*
Y-37215D01*
X33925D01*
Y-37310D01*
X34020D01*
Y-37405D01*
X34210D01*
Y-37500D01*
X34401D01*
Y-37595D01*
X34782D01*
Y-37691D01*
X34877D01*
Y-37595D01*
X34782D01*
Y-37500D01*
X34687D01*
Y-37405D01*
X34591D01*
Y-37310D01*
X34496D01*
Y-37215D01*
X34306D01*
Y-37119D01*
X34115D01*
Y-37024D01*
X33925D01*
Y-36929D01*
D02*
G37*
G36*
X29068Y-36072D02*
X28877D01*
Y-36453D01*
X28973D01*
Y-36738D01*
X29068D01*
Y-37024D01*
X29163D01*
Y-37215D01*
X29258D01*
Y-37500D01*
X29449D01*
Y-37595D01*
X29830D01*
Y-37691D01*
X30306D01*
Y-37786D01*
X30972D01*
Y-37595D01*
X30877D01*
Y-37405D01*
X30782D01*
Y-37215D01*
X30687D01*
Y-37024D01*
X30592D01*
Y-36834D01*
X30496D01*
Y-36643D01*
X30401D01*
Y-36548D01*
X30211D01*
Y-36453D01*
X29925D01*
Y-36357D01*
X29639D01*
Y-36262D01*
X29354D01*
Y-36167D01*
X29068D01*
Y-36072D01*
D02*
G37*
G36*
X31068Y-36738D02*
X30687D01*
Y-36834D01*
X30782D01*
Y-37024D01*
X30877D01*
Y-37119D01*
X30972D01*
Y-37405D01*
X31068D01*
Y-37595D01*
X31163D01*
Y-37786D01*
X31258D01*
Y-37881D01*
X31353D01*
Y-37976D01*
X31830D01*
Y-38072D01*
X32306D01*
Y-38167D01*
X32877D01*
Y-37976D01*
X32782D01*
Y-37881D01*
X32687D01*
Y-37786D01*
X32592D01*
Y-37595D01*
X32496D01*
Y-37500D01*
X32401D01*
Y-37310D01*
X32306D01*
Y-37215D01*
X32211D01*
Y-37119D01*
X31925D01*
Y-37024D01*
X31639D01*
Y-36929D01*
X31353D01*
Y-36834D01*
X31068D01*
Y-36738D01*
D02*
G37*
G36*
X33163Y-37405D02*
X32877D01*
Y-37595D01*
X32972D01*
Y-37691D01*
X33068D01*
Y-37881D01*
X33163D01*
Y-37976D01*
X33258D01*
Y-38167D01*
X33353D01*
Y-38262D01*
X33544D01*
Y-38357D01*
X33830D01*
Y-38452D01*
X34306D01*
Y-38548D01*
X34782D01*
Y-38357D01*
X34687D01*
Y-38262D01*
X34591D01*
Y-38167D01*
X34496D01*
Y-38072D01*
X34401D01*
Y-37976D01*
X34306D01*
Y-37881D01*
X34210D01*
Y-37786D01*
X34020D01*
Y-37691D01*
X33734D01*
Y-37595D01*
X33449D01*
Y-37500D01*
X33163D01*
Y-37405D01*
D02*
G37*
G36*
X23259Y-36453D02*
X23163D01*
Y-36548D01*
X23068D01*
Y-38643D01*
X23163D01*
Y-38738D01*
X24021D01*
Y-38833D01*
X24973D01*
Y-38262D01*
X24878D01*
Y-37310D01*
X24782D01*
Y-36834D01*
X24687D01*
Y-36738D01*
X24211D01*
Y-36643D01*
X23735D01*
Y-36548D01*
X23259D01*
Y-36453D01*
D02*
G37*
G36*
X35163Y-38072D02*
X34782D01*
Y-38167D01*
X34877D01*
Y-38262D01*
X34972D01*
Y-38357D01*
X35068D01*
Y-38452D01*
X35163D01*
Y-38548D01*
X35258D01*
Y-38643D01*
X35353D01*
Y-38738D01*
X35829D01*
Y-38833D01*
X36305D01*
Y-38929D01*
X36591D01*
Y-38833D01*
X36496D01*
Y-38738D01*
X36401D01*
Y-38643D01*
X36305D01*
Y-38548D01*
X36115D01*
Y-38452D01*
X36020D01*
Y-38357D01*
X35734D01*
Y-38262D01*
X35448D01*
Y-38167D01*
X35163D01*
Y-38072D01*
D02*
G37*
G36*
X25544Y-36929D02*
X25163D01*
Y-37881D01*
X25259D01*
Y-38833D01*
X25354D01*
Y-38929D01*
X26020D01*
Y-39024D01*
X27068D01*
Y-39119D01*
X27258D01*
Y-39024D01*
X27354D01*
Y-38738D01*
X27258D01*
Y-38357D01*
X27163D01*
Y-37976D01*
X27068D01*
Y-37500D01*
X26973D01*
Y-37215D01*
X26592D01*
Y-37119D01*
X26116D01*
Y-37024D01*
X25544D01*
Y-36929D01*
D02*
G37*
G36*
X37544Y-38833D02*
X37258D01*
Y-38929D01*
X37353D01*
Y-39024D01*
X37448D01*
Y-39119D01*
X37639D01*
Y-39214D01*
X38210D01*
Y-39119D01*
X38115D01*
Y-39024D01*
X37829D01*
Y-38929D01*
X37544D01*
Y-38833D01*
D02*
G37*
G36*
X27544Y-37310D02*
X27258D01*
Y-37976D01*
X27354D01*
Y-38548D01*
X27449D01*
Y-39024D01*
X27544D01*
Y-39119D01*
X28115D01*
Y-39214D01*
X28973D01*
Y-39310D01*
X29544D01*
Y-39119D01*
X29449D01*
Y-38833D01*
X29354D01*
Y-38548D01*
X29258D01*
Y-38262D01*
X29163D01*
Y-37976D01*
X29068D01*
Y-37691D01*
X28877D01*
Y-37595D01*
X28592D01*
Y-37500D01*
X28020D01*
Y-37405D01*
X27544D01*
Y-37310D01*
D02*
G37*
G36*
X29544Y-37691D02*
X29449D01*
Y-38167D01*
X29544D01*
Y-38452D01*
X29639D01*
Y-38643D01*
X29734D01*
Y-38929D01*
X29830D01*
Y-39214D01*
X29925D01*
Y-39310D01*
X30020D01*
Y-39405D01*
X30972D01*
Y-39500D01*
X31830D01*
Y-39310D01*
X31734D01*
Y-39119D01*
X31639D01*
Y-38929D01*
X31544D01*
Y-38738D01*
X31449D01*
Y-38548D01*
X31353D01*
Y-38357D01*
X31258D01*
Y-38167D01*
X31163D01*
Y-38072D01*
X31068D01*
Y-37976D01*
X30496D01*
Y-37881D01*
X30020D01*
Y-37786D01*
X29544D01*
Y-37691D01*
D02*
G37*
G36*
X32020Y-38167D02*
X31544D01*
Y-38262D01*
X31449D01*
Y-38357D01*
X31544D01*
Y-38452D01*
X31639D01*
Y-38643D01*
X31734D01*
Y-38833D01*
X31830D01*
Y-39024D01*
X31925D01*
Y-39310D01*
X32020D01*
Y-39405D01*
X32115D01*
Y-39500D01*
X32211D01*
Y-39595D01*
X32877D01*
Y-39690D01*
X33925D01*
Y-39786D01*
X34020D01*
Y-39595D01*
X33925D01*
Y-39405D01*
X33830D01*
Y-39310D01*
X33734D01*
Y-39214D01*
X33639D01*
Y-39024D01*
X33544D01*
Y-38929D01*
X33449D01*
Y-38833D01*
X33353D01*
Y-38643D01*
X33258D01*
Y-38548D01*
X33163D01*
Y-38452D01*
X32972D01*
Y-38357D01*
X32496D01*
Y-38262D01*
X32020D01*
Y-38167D01*
D02*
G37*
G36*
X34306Y-38643D02*
X33734D01*
Y-38738D01*
X33830D01*
Y-38929D01*
X33925D01*
Y-39024D01*
X34020D01*
Y-39214D01*
X34115D01*
Y-39310D01*
X34210D01*
Y-39405D01*
X34306D01*
Y-39595D01*
X34401D01*
Y-39690D01*
X34496D01*
Y-39786D01*
X34877D01*
Y-39881D01*
X35829D01*
Y-39976D01*
X36210D01*
Y-39690D01*
X36115D01*
Y-39595D01*
X36020D01*
Y-39500D01*
X35925D01*
Y-39405D01*
X35829D01*
Y-39310D01*
X35639D01*
Y-39214D01*
X35544D01*
Y-39119D01*
X35448D01*
Y-39024D01*
X35353D01*
Y-38929D01*
X35258D01*
Y-38833D01*
X34782D01*
Y-38738D01*
X34306D01*
Y-38643D01*
D02*
G37*
G36*
X36305Y-39024D02*
X35829D01*
Y-39214D01*
X35925D01*
Y-39310D01*
X36020D01*
Y-39405D01*
X36115D01*
Y-39500D01*
X36210D01*
Y-39595D01*
X36305D01*
Y-39690D01*
X36401D01*
Y-39786D01*
X36496D01*
Y-39881D01*
X36686D01*
Y-39976D01*
X36877D01*
Y-40071D01*
X37734D01*
Y-40167D01*
X38401D01*
Y-40071D01*
X38305D01*
Y-39976D01*
X38210D01*
Y-39881D01*
X38020D01*
Y-39786D01*
X37924D01*
Y-39690D01*
X37734D01*
Y-39595D01*
X37639D01*
Y-39500D01*
X37544D01*
Y-39405D01*
X37448D01*
Y-39310D01*
X37258D01*
Y-39214D01*
X36782D01*
Y-39119D01*
X36305D01*
Y-39024D01*
D02*
G37*
G36*
X38305Y-39405D02*
X38210D01*
Y-39595D01*
X38305D01*
Y-39690D01*
X38401D01*
Y-39786D01*
X38591D01*
Y-39881D01*
X38686D01*
Y-39976D01*
X38877D01*
Y-40071D01*
X38972D01*
Y-40167D01*
X39162D01*
Y-40262D01*
X39924D01*
Y-40357D01*
X40686D01*
Y-40262D01*
X40591D01*
Y-40167D01*
X40401D01*
Y-40071D01*
X40210D01*
Y-39976D01*
X40020D01*
Y-39881D01*
X39829D01*
Y-39786D01*
X39639D01*
Y-39690D01*
X39353D01*
Y-39595D01*
X38782D01*
Y-39500D01*
X38305D01*
Y-39405D01*
D02*
G37*
G36*
X41353Y-40071D02*
X40781D01*
Y-40167D01*
X40972D01*
Y-40262D01*
X41162D01*
Y-40357D01*
X41448D01*
Y-40452D01*
X41829D01*
Y-40548D01*
X42496D01*
Y-40452D01*
X42210D01*
Y-40357D01*
X41924D01*
Y-40262D01*
X41639D01*
Y-40167D01*
X41353D01*
Y-40071D01*
D02*
G37*
G36*
X40781Y-40643D02*
X39829D01*
Y-40738D01*
X39924D01*
Y-40833D01*
X40115D01*
Y-40929D01*
X40210D01*
Y-41024D01*
X40401D01*
Y-41119D01*
X41924D01*
Y-41024D01*
X42115D01*
Y-40929D01*
X41924D01*
Y-40833D01*
X41639D01*
Y-40738D01*
X40781D01*
Y-40643D01*
D02*
G37*
G36*
X35734Y-40167D02*
X34782D01*
Y-40262D01*
X34877D01*
Y-40357D01*
X34972D01*
Y-40452D01*
X35068D01*
Y-40643D01*
X35163D01*
Y-40738D01*
X35258D01*
Y-40833D01*
X35353D01*
Y-41024D01*
X35544D01*
Y-41119D01*
X37258D01*
Y-41024D01*
X37353D01*
Y-40833D01*
X37258D01*
Y-40738D01*
X37163D01*
Y-40643D01*
X37067D01*
Y-40548D01*
X36972D01*
Y-40452D01*
X36877D01*
Y-40357D01*
X36686D01*
Y-40262D01*
X35734D01*
Y-40167D01*
D02*
G37*
G36*
X30782Y-39690D02*
X30115D01*
Y-40071D01*
X30211D01*
Y-40357D01*
X30306D01*
Y-40643D01*
X30401D01*
Y-40929D01*
X30496D01*
Y-41024D01*
X30592D01*
Y-41119D01*
X32496D01*
Y-41024D01*
X32592D01*
Y-40738D01*
X32496D01*
Y-40643D01*
X32401D01*
Y-40452D01*
X32306D01*
Y-40167D01*
X32211D01*
Y-39976D01*
X32115D01*
Y-39881D01*
X31734D01*
Y-39786D01*
X30782D01*
Y-39690D01*
D02*
G37*
G36*
X25925Y-39214D02*
X25354D01*
Y-39690D01*
X25449D01*
Y-40643D01*
X25544D01*
Y-41024D01*
X25640D01*
Y-41119D01*
X27544D01*
Y-41024D01*
X27735D01*
Y-40738D01*
X27639D01*
Y-40167D01*
X27544D01*
Y-39690D01*
X27449D01*
Y-39500D01*
X27354D01*
Y-39405D01*
X26878D01*
Y-39310D01*
X25925D01*
Y-39214D01*
D02*
G37*
G36*
X34306Y-46833D02*
X31639D01*
Y-46928D01*
X31544D01*
Y-48166D01*
X31639D01*
Y-48452D01*
X31734D01*
Y-48547D01*
X31830D01*
Y-48642D01*
X31925D01*
Y-48738D01*
X32115D01*
Y-48833D01*
X32401D01*
Y-48928D01*
X33544D01*
Y-48833D01*
X33830D01*
Y-48738D01*
X33925D01*
Y-48642D01*
X34115D01*
Y-48547D01*
X34210D01*
Y-48357D01*
X34306D01*
Y-48071D01*
X34401D01*
Y-46928D01*
X34306D01*
Y-46833D01*
D02*
G37*
G36*
X8688Y-50547D02*
X7545D01*
Y-50642D01*
X7450D01*
Y-51595D01*
X7545D01*
Y-52166D01*
X7641D01*
Y-52261D01*
X7736D01*
Y-52356D01*
X7831D01*
Y-52452D01*
X8402D01*
Y-52356D01*
X8498D01*
Y-52261D01*
X8593D01*
Y-52166D01*
X8688D01*
Y-50547D01*
D02*
G37*
G36*
X39829Y-50928D02*
X39258D01*
Y-51023D01*
X38782D01*
Y-51118D01*
X38591D01*
Y-51214D01*
X38496D01*
Y-51309D01*
X38401D01*
Y-51404D01*
X38305D01*
Y-51499D01*
X38210D01*
Y-51690D01*
X38115D01*
Y-51975D01*
X38020D01*
Y-52452D01*
X38115D01*
Y-52737D01*
X38210D01*
Y-52928D01*
X38305D01*
Y-53023D01*
X38401D01*
Y-53118D01*
X38496D01*
Y-53214D01*
X38686D01*
Y-53309D01*
X38877D01*
Y-53404D01*
X39258D01*
Y-53499D01*
X39924D01*
Y-53404D01*
X40210D01*
Y-53309D01*
X40496D01*
Y-53214D01*
X40591D01*
Y-53118D01*
X40686D01*
Y-53023D01*
X40781D01*
Y-52928D01*
X40877D01*
Y-52833D01*
X40972D01*
Y-52547D01*
X41067D01*
Y-51880D01*
X40972D01*
Y-51595D01*
X40877D01*
Y-51499D01*
X40781D01*
Y-51309D01*
X40686D01*
Y-51214D01*
X40496D01*
Y-51118D01*
X40305D01*
Y-51023D01*
X39829D01*
Y-50928D01*
D02*
G37*
G36*
X26782Y-57689D02*
X25925D01*
Y-57785D01*
X25544D01*
Y-57880D01*
X25449D01*
Y-57975D01*
X25259D01*
Y-58070D01*
X25163D01*
Y-58166D01*
X25068D01*
Y-58356D01*
X24973D01*
Y-58451D01*
X24878D01*
Y-59404D01*
X24973D01*
Y-59594D01*
X25068D01*
Y-59689D01*
X25163D01*
Y-59784D01*
X25259D01*
Y-59880D01*
X25354D01*
Y-59975D01*
X25449D01*
Y-60070D01*
X25640D01*
Y-60166D01*
X26116D01*
Y-60261D01*
X26592D01*
Y-60166D01*
X27068D01*
Y-60070D01*
X27258D01*
Y-59975D01*
X27354D01*
Y-59880D01*
X27544D01*
Y-59784D01*
X27639D01*
Y-59594D01*
X27735D01*
Y-59404D01*
X27830D01*
Y-58451D01*
X27735D01*
Y-58356D01*
X27639D01*
Y-58166D01*
X27544D01*
Y-58070D01*
X27449D01*
Y-57975D01*
X27354D01*
Y-57880D01*
X27163D01*
Y-57785D01*
X26782D01*
Y-57689D01*
D02*
G37*
G36*
X40210Y-57880D02*
X38972D01*
Y-57975D01*
X38686D01*
Y-58070D01*
X38591D01*
Y-58166D01*
X38401D01*
Y-58261D01*
X38305D01*
Y-58451D01*
X38210D01*
Y-58547D01*
X38115D01*
Y-58927D01*
X38020D01*
Y-59308D01*
X38115D01*
Y-59594D01*
X38210D01*
Y-59784D01*
X38305D01*
Y-59880D01*
X38401D01*
Y-59975D01*
X38496D01*
Y-60070D01*
X38591D01*
Y-60166D01*
X38782D01*
Y-60261D01*
X39067D01*
Y-60356D01*
X40115D01*
Y-60261D01*
X40305D01*
Y-60166D01*
X40496D01*
Y-60070D01*
X40686D01*
Y-59975D01*
X40781D01*
Y-59880D01*
X40877D01*
Y-59689D01*
X40972D01*
Y-59499D01*
X41067D01*
Y-58737D01*
X40972D01*
Y-58547D01*
X40877D01*
Y-58356D01*
X40781D01*
Y-58261D01*
X40686D01*
Y-58166D01*
X40591D01*
Y-58070D01*
X40401D01*
Y-57975D01*
X40210D01*
Y-57880D01*
D02*
G37*
G36*
X8688Y-60070D02*
X5831D01*
Y-60166D01*
X5736D01*
Y-60832D01*
X5831D01*
Y-61403D01*
X5926D01*
Y-61594D01*
X6022D01*
Y-61784D01*
X6117D01*
Y-61880D01*
X6307D01*
Y-61975D01*
X6498D01*
Y-62070D01*
X6879D01*
Y-62165D01*
X7641D01*
Y-62070D01*
X8022D01*
Y-61975D01*
X8212D01*
Y-61880D01*
X8307D01*
Y-61784D01*
X8402D01*
Y-61689D01*
X8498D01*
Y-61594D01*
X8593D01*
Y-61213D01*
X8688D01*
Y-60070D01*
D02*
G37*
G36*
X7355Y-64451D02*
X6974D01*
Y-65498D01*
X7164D01*
Y-65403D01*
X7450D01*
Y-65308D01*
X7641D01*
Y-65213D01*
X7926D01*
Y-65118D01*
X8212D01*
Y-65022D01*
X8498D01*
Y-64832D01*
X8117D01*
Y-64737D01*
X7831D01*
Y-64641D01*
X7641D01*
Y-64546D01*
X7355D01*
Y-64451D01*
D02*
G37*
G36*
X40972Y-66260D02*
X39924D01*
Y-66356D01*
X39829D01*
Y-67308D01*
X39924D01*
Y-67689D01*
X40020D01*
Y-67784D01*
X40115D01*
Y-67879D01*
X40781D01*
Y-67784D01*
X40877D01*
Y-67594D01*
X40972D01*
Y-66260D01*
D02*
G37*
G36*
X39353D02*
X38210D01*
Y-66356D01*
X38115D01*
Y-67594D01*
X38210D01*
Y-67784D01*
X38305D01*
Y-67879D01*
X38401D01*
Y-67975D01*
X38496D01*
Y-68070D01*
X39067D01*
Y-67975D01*
X39162D01*
Y-67879D01*
X39258D01*
Y-67784D01*
X39353D01*
Y-67403D01*
X39448D01*
Y-66356D01*
X39353D01*
Y-66260D01*
D02*
G37*
G36*
X46210Y-68260D02*
X45829D01*
Y-69403D01*
X46019D01*
Y-69308D01*
X46305D01*
Y-69212D01*
X46495D01*
Y-69117D01*
X46781D01*
Y-69022D01*
X47067D01*
Y-68927D01*
X47352D01*
Y-68832D01*
X47448D01*
Y-68736D01*
X47257D01*
Y-68641D01*
X46972D01*
Y-68546D01*
X46686D01*
Y-68451D01*
X46495D01*
Y-68355D01*
X46210D01*
Y-68260D01*
D02*
G37*
G36*
X26401D02*
X26020D01*
Y-69308D01*
X26116D01*
Y-69403D01*
X26211D01*
Y-69308D01*
X26497D01*
Y-69212D01*
X26687D01*
Y-69117D01*
X26973D01*
Y-69022D01*
X27258D01*
Y-68927D01*
X27544D01*
Y-68832D01*
X27639D01*
Y-68736D01*
X27449D01*
Y-68641D01*
X27163D01*
Y-68546D01*
X26878D01*
Y-68451D01*
X26592D01*
Y-68355D01*
X26401D01*
Y-68260D01*
D02*
G37*
G36*
X8593Y-67975D02*
X5831D01*
Y-68165D01*
X5736D01*
Y-68832D01*
X5831D01*
Y-69403D01*
X5926D01*
Y-69594D01*
X6022D01*
Y-69689D01*
X6117D01*
Y-69784D01*
X6212D01*
Y-69879D01*
X6403D01*
Y-69974D01*
X6593D01*
Y-70070D01*
X7926D01*
Y-69974D01*
X8117D01*
Y-69879D01*
X8307D01*
Y-69784D01*
X8402D01*
Y-69689D01*
X8498D01*
Y-69498D01*
X8593D01*
Y-69212D01*
X8688D01*
Y-68070D01*
X8593D01*
Y-67975D01*
D02*
G37*
G36*
X39448Y-71403D02*
X39258D01*
Y-72546D01*
X39543D01*
Y-72450D01*
X39829D01*
Y-72355D01*
X40020D01*
Y-72260D01*
X40305D01*
Y-72165D01*
X40591D01*
Y-72070D01*
X40781D01*
Y-71879D01*
X40496D01*
Y-71784D01*
X40210D01*
Y-71689D01*
X39924D01*
Y-71593D01*
X39734D01*
Y-71498D01*
X39448D01*
Y-71403D01*
D02*
G37*
G36*
X27830Y-71498D02*
X26592D01*
Y-73022D01*
X26687D01*
Y-73212D01*
X26782D01*
Y-73307D01*
X26973D01*
Y-73403D01*
X27449D01*
Y-73307D01*
X27639D01*
Y-73212D01*
X27735D01*
Y-72927D01*
X27830D01*
Y-71498D01*
D02*
G37*
G36*
X26211Y-75403D02*
X26116D01*
Y-75498D01*
X26020D01*
Y-76545D01*
X26306D01*
Y-76450D01*
X26592D01*
Y-76355D01*
X26878D01*
Y-76260D01*
X27068D01*
Y-76164D01*
X27354D01*
Y-76069D01*
X27544D01*
Y-75974D01*
X27639D01*
Y-75879D01*
X27258D01*
Y-75784D01*
X26973D01*
Y-75688D01*
X26782D01*
Y-75593D01*
X26497D01*
Y-75498D01*
X26211D01*
Y-75403D01*
D02*
G37*
G36*
X34401Y-77117D02*
X33163D01*
Y-78450D01*
X33258D01*
Y-78831D01*
X33353D01*
Y-78926D01*
X33449D01*
Y-79022D01*
X33734D01*
Y-79117D01*
X33925D01*
Y-79022D01*
X34115D01*
Y-78926D01*
X34210D01*
Y-78831D01*
X34306D01*
Y-78736D01*
X34401D01*
Y-77117D01*
D02*
G37*
G36*
X39543Y-78641D02*
X39258D01*
Y-79783D01*
X39448D01*
Y-79688D01*
X39639D01*
Y-79593D01*
X39924D01*
Y-79498D01*
X40210D01*
Y-79402D01*
X40401D01*
Y-79307D01*
X40686D01*
Y-79212D01*
X40781D01*
Y-79117D01*
X40686D01*
Y-79022D01*
X40401D01*
Y-78926D01*
X40115D01*
Y-78831D01*
X39829D01*
Y-78736D01*
X39543D01*
Y-78641D01*
D02*
G37*
G36*
X32972Y-82545D02*
X32592D01*
Y-83593D01*
X32687D01*
Y-83688D01*
X32782D01*
Y-83593D01*
X33068D01*
Y-83497D01*
X33353D01*
Y-83402D01*
X33544D01*
Y-83307D01*
X33830D01*
Y-83212D01*
X34115D01*
Y-83117D01*
X34306D01*
Y-83021D01*
X34020D01*
Y-82926D01*
X33734D01*
Y-82831D01*
X33449D01*
Y-82736D01*
X33163D01*
Y-82640D01*
X32972D01*
Y-82545D01*
D02*
G37*
G36*
X26782Y-86069D02*
X25925D01*
Y-86164D01*
X25640D01*
Y-86259D01*
X25449D01*
Y-86354D01*
X25259D01*
Y-86450D01*
X25163D01*
Y-86545D01*
X25068D01*
Y-86735D01*
X24973D01*
Y-86926D01*
X24878D01*
Y-87783D01*
X24973D01*
Y-87973D01*
X25068D01*
Y-88069D01*
X25163D01*
Y-88164D01*
X25259D01*
Y-88259D01*
X25354D01*
Y-88354D01*
X25449D01*
Y-88449D01*
X25735D01*
Y-88545D01*
X26116D01*
Y-88640D01*
X26592D01*
Y-88545D01*
X26973D01*
Y-88449D01*
X27258D01*
Y-88354D01*
X27354D01*
Y-88259D01*
X27449D01*
Y-88164D01*
X27544D01*
Y-88069D01*
X27639D01*
Y-87973D01*
X27735D01*
Y-87783D01*
X27830D01*
Y-86831D01*
X27735D01*
Y-86640D01*
X27639D01*
Y-86545D01*
X27544D01*
Y-86450D01*
X27449D01*
Y-86354D01*
X27354D01*
Y-86259D01*
X27068D01*
Y-86164D01*
X26782D01*
Y-86069D01*
D02*
G37*
G36*
X58934Y-277982D02*
X58606D01*
Y-278092D01*
X56964D01*
Y-278201D01*
X55431D01*
Y-278311D01*
X53899D01*
Y-278420D01*
X52366D01*
Y-278530D01*
X52147D01*
Y-278639D01*
X52038D01*
Y-278858D01*
X51928D01*
Y-279077D01*
X51818D01*
Y-279843D01*
X51709D01*
Y-280281D01*
X51600D01*
Y-280938D01*
X51490D01*
Y-281485D01*
X51381D01*
Y-281814D01*
X51271D01*
Y-282142D01*
X51162D01*
Y-282471D01*
X51052D01*
Y-282799D01*
X50943D01*
Y-283018D01*
X50833D01*
Y-283237D01*
X50724D01*
Y-283675D01*
X50833D01*
Y-283784D01*
X51818D01*
Y-283894D01*
X56854D01*
Y-284003D01*
X61233D01*
Y-284113D01*
X65283D01*
Y-284222D01*
X66925D01*
Y-284332D01*
X68130D01*
Y-284441D01*
X69224D01*
Y-284222D01*
X69115D01*
Y-284113D01*
X69005D01*
Y-284003D01*
X68786D01*
Y-283894D01*
X68567D01*
Y-283784D01*
X68348D01*
Y-283675D01*
X68239D01*
Y-283565D01*
X68020D01*
Y-283456D01*
X67801D01*
Y-283346D01*
X67692D01*
Y-283237D01*
X67473D01*
Y-283127D01*
X67254D01*
Y-283018D01*
X67144D01*
Y-282908D01*
X66925D01*
Y-282799D01*
X66816D01*
Y-282689D01*
X66597D01*
Y-282580D01*
X66487D01*
Y-282471D01*
X66269D01*
Y-282361D01*
X66159D01*
Y-282252D01*
X66050D01*
Y-282142D01*
X65831D01*
Y-282033D01*
X65721D01*
Y-281923D01*
X65612D01*
Y-281814D01*
X65393D01*
Y-281704D01*
X65283D01*
Y-281595D01*
X65174D01*
Y-281485D01*
X65064D01*
Y-281376D01*
X64845D01*
Y-281266D01*
X64736D01*
Y-281157D01*
X64626D01*
Y-281047D01*
X64408D01*
Y-280938D01*
X64298D01*
Y-280828D01*
X64189D01*
Y-280719D01*
X63970D01*
Y-280610D01*
X63860D01*
Y-280500D01*
X63751D01*
Y-280391D01*
X63641D01*
Y-280281D01*
X63532D01*
Y-280172D01*
X63422D01*
Y-280062D01*
X63313D01*
Y-279953D01*
X63094D01*
Y-279843D01*
X62984D01*
Y-279734D01*
X62875D01*
Y-279624D01*
X62656D01*
Y-279515D01*
X62437D01*
Y-279405D01*
X62109D01*
Y-279515D01*
X61999D01*
Y-279734D01*
X62109D01*
Y-279953D01*
X62218D01*
Y-280062D01*
X62109D01*
Y-280172D01*
X61999D01*
Y-280062D01*
X61890D01*
Y-279953D01*
X61780D01*
Y-279734D01*
X61671D01*
Y-279515D01*
X61561D01*
Y-279296D01*
X61452D01*
Y-279186D01*
X61342D01*
Y-279077D01*
X61233D01*
Y-278858D01*
X61123D01*
Y-278749D01*
X61014D01*
Y-278639D01*
X60904D01*
Y-278530D01*
X60686D01*
Y-278420D01*
X60576D01*
Y-278311D01*
X60357D01*
Y-278201D01*
X59919D01*
Y-278092D01*
X58934D01*
Y-277982D01*
D02*
G37*
G36*
X45141Y-284332D02*
X40981D01*
Y-284441D01*
X40872D01*
Y-303051D01*
X40981D01*
Y-314107D01*
X41747D01*
Y-313998D01*
X42076D01*
Y-313888D01*
X42623D01*
Y-313779D01*
X43061D01*
Y-313669D01*
X43499D01*
Y-313560D01*
X43937D01*
Y-313450D01*
X44375D01*
Y-313341D01*
X44812D01*
Y-313232D01*
X45250D01*
Y-313122D01*
X45798D01*
Y-313013D01*
X46236D01*
Y-312903D01*
X46892D01*
Y-312794D01*
X47440D01*
Y-312684D01*
X47987D01*
Y-312575D01*
X48644D01*
Y-312465D01*
X49301D01*
Y-312356D01*
X49739D01*
Y-312246D01*
X50286D01*
Y-312137D01*
X50833D01*
Y-312027D01*
X51381D01*
Y-311918D01*
X51928D01*
Y-311808D01*
X52475D01*
Y-311699D01*
X53132D01*
Y-311589D01*
X53789D01*
Y-311480D01*
X54774D01*
Y-311371D01*
X55760D01*
Y-311261D01*
X56964D01*
Y-311152D01*
X57839D01*
Y-311042D01*
X58825D01*
Y-310933D01*
X59481D01*
Y-310823D01*
X60248D01*
Y-310714D01*
X61014D01*
Y-310604D01*
X61561D01*
Y-310495D01*
X62328D01*
Y-310385D01*
X62875D01*
Y-310276D01*
X63532D01*
Y-310166D01*
X64079D01*
Y-310057D01*
X64408D01*
Y-309947D01*
X64845D01*
Y-309838D01*
X65283D01*
Y-309729D01*
X65612D01*
Y-309619D01*
X65940D01*
Y-309510D01*
X66269D01*
Y-309400D01*
X66487D01*
Y-309291D01*
X66816D01*
Y-309181D01*
X67144D01*
Y-309072D01*
X67363D01*
Y-308962D01*
X67692D01*
Y-308853D01*
X67910D01*
Y-308743D01*
X68239D01*
Y-308634D01*
X68458D01*
Y-308524D01*
X68677D01*
Y-308415D01*
X68896D01*
Y-308305D01*
X69224D01*
Y-308196D01*
X69334D01*
Y-308086D01*
X69553D01*
Y-307977D01*
X69881D01*
Y-307868D01*
X70100D01*
Y-307758D01*
X70319D01*
Y-307649D01*
X70538D01*
Y-307539D01*
X70757D01*
Y-307430D01*
X71085D01*
Y-307320D01*
X71304D01*
Y-307211D01*
X71523D01*
Y-307101D01*
X71742D01*
Y-306992D01*
X71851D01*
Y-306882D01*
X72070D01*
Y-306773D01*
X72289D01*
Y-306663D01*
X72399D01*
Y-306554D01*
X72618D01*
Y-306444D01*
X72727D01*
Y-306335D01*
X72946D01*
Y-306225D01*
X73165D01*
Y-306116D01*
X73275D01*
Y-306007D01*
X73384D01*
Y-305897D01*
X73603D01*
Y-305788D01*
X73822D01*
Y-305678D01*
X73931D01*
Y-305569D01*
X74041D01*
Y-305459D01*
X74260D01*
Y-305350D01*
X74369D01*
Y-305240D01*
X74479D01*
Y-305131D01*
X74698D01*
Y-305021D01*
X74807D01*
Y-304912D01*
X75026D01*
Y-304802D01*
X75135D01*
Y-304693D01*
X75354D01*
Y-304583D01*
X75464D01*
Y-304474D01*
X75573D01*
Y-304364D01*
X75792D01*
Y-304255D01*
X75902D01*
Y-304146D01*
X76011D01*
Y-304036D01*
X76230D01*
Y-303927D01*
X76340D01*
Y-303817D01*
X76449D01*
Y-303708D01*
X76559D01*
Y-303598D01*
X76668D01*
Y-303489D01*
X76778D01*
Y-303379D01*
X76887D01*
Y-303270D01*
X76996D01*
Y-303160D01*
X77106D01*
Y-303051D01*
X77215D01*
Y-302832D01*
X77325D01*
Y-302722D01*
X77434D01*
Y-302613D01*
X77544D01*
Y-302394D01*
X77653D01*
Y-302175D01*
X77763D01*
Y-302066D01*
X77872D01*
Y-301737D01*
X77982D01*
Y-301518D01*
X78091D01*
Y-301299D01*
X78201D01*
Y-301080D01*
X78310D01*
Y-300752D01*
X78420D01*
Y-300424D01*
X78529D01*
Y-299986D01*
X78639D01*
Y-299548D01*
X78748D01*
Y-298891D01*
X78857D01*
Y-298234D01*
X78967D01*
Y-296373D01*
X78857D01*
Y-295497D01*
X78748D01*
Y-294403D01*
X78639D01*
Y-293746D01*
X78529D01*
Y-293199D01*
X78420D01*
Y-292761D01*
X78310D01*
Y-292323D01*
X78201D01*
Y-292104D01*
X78091D01*
Y-291775D01*
X77982D01*
Y-291447D01*
X77872D01*
Y-291228D01*
X77763D01*
Y-291119D01*
X77653D01*
Y-290900D01*
X77544D01*
Y-290681D01*
X77434D01*
Y-290462D01*
X77325D01*
Y-290243D01*
X77215D01*
Y-290133D01*
X77106D01*
Y-289914D01*
X76996D01*
Y-289696D01*
X76887D01*
Y-289586D01*
X76778D01*
Y-289367D01*
X76668D01*
Y-289258D01*
X76559D01*
Y-289148D01*
X76449D01*
Y-289039D01*
X76340D01*
Y-288929D01*
X76230D01*
Y-288820D01*
X76121D01*
Y-288710D01*
X75902D01*
Y-288601D01*
X75792D01*
Y-288491D01*
X75683D01*
Y-288382D01*
X75573D01*
Y-288272D01*
X75464D01*
Y-288163D01*
X75354D01*
Y-288053D01*
X75135D01*
Y-287944D01*
X75026D01*
Y-287835D01*
X74917D01*
Y-287725D01*
X74807D01*
Y-287616D01*
X74698D01*
Y-287506D01*
X74479D01*
Y-287397D01*
X74369D01*
Y-287287D01*
X74260D01*
Y-287178D01*
X74041D01*
Y-287068D01*
X73931D01*
Y-286959D01*
X73822D01*
Y-286849D01*
X73712D01*
Y-286740D01*
X73493D01*
Y-286630D01*
X73384D01*
Y-286521D01*
X72399D01*
Y-286411D01*
X72180D01*
Y-286302D01*
X71961D01*
Y-286192D01*
X71851D01*
Y-286083D01*
X71632D01*
Y-285974D01*
X71414D01*
Y-285864D01*
X71195D01*
Y-285755D01*
X70866D01*
Y-285645D01*
X70428D01*
Y-285536D01*
X69881D01*
Y-285426D01*
X69115D01*
Y-285317D01*
X68239D01*
Y-285207D01*
X67582D01*
Y-285098D01*
X66597D01*
Y-284988D01*
X65502D01*
Y-284879D01*
X59372D01*
Y-284769D01*
X55212D01*
Y-284660D01*
X51928D01*
Y-284550D01*
X48425D01*
Y-284441D01*
X45141D01*
Y-284332D01*
D02*
G37*
G36*
X65612Y-310714D02*
X64955D01*
Y-310823D01*
X64626D01*
Y-310933D01*
X63970D01*
Y-311042D01*
X63313D01*
Y-311152D01*
X62765D01*
Y-311261D01*
X62109D01*
Y-311371D01*
X61452D01*
Y-311480D01*
X60686D01*
Y-311589D01*
X60029D01*
Y-311699D01*
X59262D01*
Y-311808D01*
X58496D01*
Y-311918D01*
X57730D01*
Y-312027D01*
X56745D01*
Y-312137D01*
X55978D01*
Y-312246D01*
X55103D01*
Y-312356D01*
X54227D01*
Y-312465D01*
X53351D01*
Y-312575D01*
X52694D01*
Y-312684D01*
X51818D01*
Y-312794D01*
X51162D01*
Y-312903D01*
X50505D01*
Y-313013D01*
X49958D01*
Y-313122D01*
X49410D01*
Y-313232D01*
X48972D01*
Y-313341D01*
X48425D01*
Y-313450D01*
X47987D01*
Y-313560D01*
X47878D01*
Y-313669D01*
X47768D01*
Y-313779D01*
X47659D01*
Y-313998D01*
X47768D01*
Y-314436D01*
X47878D01*
Y-314874D01*
X47987D01*
Y-315421D01*
X48097D01*
Y-315859D01*
X48206D01*
Y-316297D01*
X48316D01*
Y-316516D01*
X48425D01*
Y-316735D01*
X48534D01*
Y-316844D01*
X48644D01*
Y-316953D01*
X48972D01*
Y-317063D01*
X49410D01*
Y-316953D01*
X50505D01*
Y-316844D01*
X51600D01*
Y-316735D01*
X52366D01*
Y-316625D01*
X53351D01*
Y-316516D01*
X54008D01*
Y-316406D01*
X54884D01*
Y-316297D01*
X55650D01*
Y-316187D01*
X56197D01*
Y-316078D01*
X56745D01*
Y-315968D01*
X57292D01*
Y-315859D01*
X57839D01*
Y-315749D01*
X58387D01*
Y-315640D01*
X59043D01*
Y-315530D01*
X60138D01*
Y-315421D01*
X60467D01*
Y-315311D01*
X60576D01*
Y-315202D01*
X60686D01*
Y-315092D01*
X60904D01*
Y-314983D01*
X61233D01*
Y-314874D01*
X61452D01*
Y-314764D01*
X61671D01*
Y-314655D01*
X61780D01*
Y-314545D01*
X61890D01*
Y-314436D01*
X61999D01*
Y-314217D01*
X62109D01*
Y-314107D01*
X62218D01*
Y-313998D01*
X62328D01*
Y-313888D01*
X62437D01*
Y-313779D01*
X62547D01*
Y-313669D01*
X62656D01*
Y-313560D01*
X62765D01*
Y-313450D01*
X62875D01*
Y-313341D01*
X62984D01*
Y-313122D01*
X63094D01*
Y-313013D01*
X63203D01*
Y-312903D01*
X63313D01*
Y-312794D01*
X63422D01*
Y-312684D01*
X63532D01*
Y-312575D01*
X63641D01*
Y-312465D01*
X63751D01*
Y-312356D01*
X63860D01*
Y-312246D01*
X63970D01*
Y-312137D01*
X64079D01*
Y-312027D01*
X64189D01*
Y-311918D01*
X64298D01*
Y-311808D01*
X64408D01*
Y-311699D01*
X64626D01*
Y-311589D01*
X64736D01*
Y-311480D01*
X64845D01*
Y-311371D01*
X65064D01*
Y-311261D01*
X65174D01*
Y-311152D01*
X65283D01*
Y-311042D01*
X65502D01*
Y-310933D01*
X65612D01*
Y-310714D01*
D02*
G37*
G36*
X50943Y-329980D02*
X45141D01*
Y-330090D01*
X41966D01*
Y-330199D01*
X41309D01*
Y-330309D01*
X41090D01*
Y-330418D01*
X40981D01*
Y-363259D01*
X41090D01*
Y-363478D01*
X41966D01*
Y-363368D01*
X42404D01*
Y-363259D01*
X42733D01*
Y-363149D01*
X43061D01*
Y-363040D01*
X43389D01*
Y-362931D01*
X43608D01*
Y-362821D01*
X43937D01*
Y-362712D01*
X44265D01*
Y-362602D01*
X44703D01*
Y-362493D01*
X44922D01*
Y-362383D01*
X45250D01*
Y-362274D01*
X45579D01*
Y-362164D01*
X45907D01*
Y-362055D01*
X46345D01*
Y-361945D01*
X46892D01*
Y-361836D01*
X47111D01*
Y-361726D01*
X47440D01*
Y-361617D01*
X47768D01*
Y-361507D01*
X48097D01*
Y-361398D01*
X48425D01*
Y-361288D01*
X48972D01*
Y-361179D01*
X49520D01*
Y-361070D01*
X49848D01*
Y-360960D01*
X50395D01*
Y-360851D01*
X50833D01*
Y-360741D01*
X51162D01*
Y-360632D01*
X51818D01*
Y-360522D01*
X52256D01*
Y-360413D01*
X53023D01*
Y-360303D01*
X53461D01*
Y-360194D01*
X54117D01*
Y-360084D01*
X54665D01*
Y-359975D01*
X55322D01*
Y-359865D01*
X56088D01*
Y-359756D01*
X56526D01*
Y-359646D01*
X56964D01*
Y-359537D01*
X57511D01*
Y-359428D01*
X57949D01*
Y-359318D01*
X61342D01*
Y-359428D01*
X61890D01*
Y-359537D01*
X62218D01*
Y-359646D01*
X62547D01*
Y-359756D01*
X62765D01*
Y-359865D01*
X63094D01*
Y-359975D01*
X63313D01*
Y-360084D01*
X63532D01*
Y-360194D01*
X63751D01*
Y-360303D01*
X63970D01*
Y-360413D01*
X64189D01*
Y-360522D01*
X64298D01*
Y-360632D01*
X64408D01*
Y-360741D01*
X64626D01*
Y-360851D01*
X64736D01*
Y-360960D01*
X64955D01*
Y-361070D01*
X65064D01*
Y-361179D01*
X65283D01*
Y-361288D01*
X65502D01*
Y-361398D01*
X65612D01*
Y-361507D01*
X65831D01*
Y-361617D01*
X65940D01*
Y-361726D01*
X66159D01*
Y-361836D01*
X66269D01*
Y-361945D01*
X66487D01*
Y-362055D01*
X66597D01*
Y-362164D01*
X66706D01*
Y-362274D01*
X66816D01*
Y-362383D01*
X67035D01*
Y-362493D01*
X67144D01*
Y-362602D01*
X67363D01*
Y-362712D01*
X67692D01*
Y-362821D01*
X67801D01*
Y-362931D01*
X68020D01*
Y-363040D01*
X68239D01*
Y-363149D01*
X68348D01*
Y-363259D01*
X68567D01*
Y-363368D01*
X68896D01*
Y-363478D01*
X70976D01*
Y-363368D01*
X71304D01*
Y-363259D01*
X71632D01*
Y-363149D01*
X71851D01*
Y-363040D01*
X72070D01*
Y-362821D01*
X72180D01*
Y-362602D01*
X72289D01*
Y-362383D01*
X72180D01*
Y-361945D01*
X72070D01*
Y-361726D01*
X71961D01*
Y-361617D01*
X71851D01*
Y-361179D01*
X71742D01*
Y-360741D01*
X71632D01*
Y-360522D01*
X71523D01*
Y-360303D01*
X71414D01*
Y-360084D01*
X71304D01*
Y-359865D01*
X71195D01*
Y-359646D01*
X71085D01*
Y-359428D01*
X70976D01*
Y-359209D01*
X70866D01*
Y-358990D01*
X70757D01*
Y-358771D01*
X70647D01*
Y-358442D01*
X70538D01*
Y-358333D01*
X70428D01*
Y-358004D01*
X70319D01*
Y-357785D01*
X70209D01*
Y-357676D01*
X70100D01*
Y-357457D01*
X69991D01*
Y-357129D01*
X69881D01*
Y-356910D01*
X69771D01*
Y-356691D01*
X69662D01*
Y-356581D01*
X69553D01*
Y-356362D01*
X69443D01*
Y-356143D01*
X69334D01*
Y-355924D01*
X69224D01*
Y-355706D01*
X69115D01*
Y-355377D01*
X69005D01*
Y-355268D01*
X68896D01*
Y-355049D01*
X68786D01*
Y-354720D01*
X68677D01*
Y-354392D01*
X68567D01*
Y-354064D01*
X68458D01*
Y-353845D01*
X68348D01*
Y-353626D01*
X68239D01*
Y-353297D01*
X68130D01*
Y-353078D01*
X68020D01*
Y-352859D01*
X67910D01*
Y-352640D01*
X67801D01*
Y-352421D01*
X67692D01*
Y-352203D01*
X67582D01*
Y-351984D01*
X67473D01*
Y-351874D01*
X67363D01*
Y-351655D01*
X67254D01*
Y-351436D01*
X67144D01*
Y-351217D01*
X67035D01*
Y-350998D01*
X66925D01*
Y-350779D01*
X66816D01*
Y-350451D01*
X66706D01*
Y-350232D01*
X66597D01*
Y-350123D01*
X66487D01*
Y-349904D01*
X66378D01*
Y-349685D01*
X66269D01*
Y-349466D01*
X66050D01*
Y-349356D01*
X65502D01*
Y-349247D01*
X65174D01*
Y-349137D01*
X64845D01*
Y-349028D01*
X64517D01*
Y-348918D01*
X64189D01*
Y-348809D01*
X63860D01*
Y-348699D01*
X63641D01*
Y-348590D01*
X63313D01*
Y-348481D01*
X62984D01*
Y-348371D01*
X62547D01*
Y-348262D01*
X62109D01*
Y-348152D01*
X61780D01*
Y-348043D01*
X61342D01*
Y-347933D01*
X61014D01*
Y-347824D01*
X60686D01*
Y-347714D01*
X60357D01*
Y-347605D01*
X60138D01*
Y-347495D01*
X59700D01*
Y-347386D01*
X59481D01*
Y-347276D01*
X59262D01*
Y-347167D01*
X59043D01*
Y-347057D01*
X58715D01*
Y-346948D01*
X58387D01*
Y-346839D01*
X58168D01*
Y-346729D01*
X57839D01*
Y-346620D01*
X57620D01*
Y-346510D01*
X57292D01*
Y-346401D01*
X57073D01*
Y-346291D01*
X56745D01*
Y-346182D01*
X56526D01*
Y-346072D01*
X56197D01*
Y-345963D01*
X55869D01*
Y-345853D01*
X55650D01*
Y-345744D01*
X55431D01*
Y-345634D01*
X55103D01*
Y-345525D01*
X54884D01*
Y-345415D01*
X54446D01*
Y-345306D01*
X54008D01*
Y-345196D01*
X53570D01*
Y-345087D01*
X53242D01*
Y-344978D01*
X52913D01*
Y-344868D01*
X52585D01*
Y-344759D01*
X52366D01*
Y-344649D01*
X52038D01*
Y-344540D01*
X51818D01*
Y-344430D01*
X51600D01*
Y-344321D01*
X51381D01*
Y-344211D01*
X51162D01*
Y-344102D01*
X50943D01*
Y-343992D01*
X50724D01*
Y-343883D01*
X50505D01*
Y-343773D01*
X50395D01*
Y-343664D01*
X50177D01*
Y-343554D01*
X49958D01*
Y-343445D01*
X49739D01*
Y-343226D01*
X49629D01*
Y-343117D01*
X49520D01*
Y-342241D01*
X49629D01*
Y-341912D01*
X49739D01*
Y-341693D01*
X49848D01*
Y-341584D01*
X49958D01*
Y-341475D01*
X50067D01*
Y-341256D01*
X50177D01*
Y-341146D01*
X50286D01*
Y-341037D01*
X50395D01*
Y-340818D01*
X50505D01*
Y-340599D01*
X50614D01*
Y-340489D01*
X50724D01*
Y-340380D01*
X50833D01*
Y-340270D01*
X50943D01*
Y-340161D01*
X51052D01*
Y-339942D01*
X51162D01*
Y-339723D01*
X51271D01*
Y-339504D01*
X51381D01*
Y-339395D01*
X51490D01*
Y-339285D01*
X51709D01*
Y-339066D01*
X51818D01*
Y-338957D01*
X51928D01*
Y-338738D01*
X52038D01*
Y-338628D01*
X52147D01*
Y-338519D01*
X52256D01*
Y-338300D01*
X52366D01*
Y-338190D01*
X52475D01*
Y-338081D01*
X52585D01*
Y-337972D01*
X52694D01*
Y-337753D01*
X52804D01*
Y-337643D01*
X52913D01*
Y-337534D01*
X53023D01*
Y-337424D01*
X53132D01*
Y-337205D01*
X53242D01*
Y-337096D01*
X53351D01*
Y-336986D01*
X53461D01*
Y-336877D01*
X53570D01*
Y-336767D01*
X53679D01*
Y-336658D01*
X53789D01*
Y-336439D01*
X53899D01*
Y-336220D01*
X54008D01*
Y-336001D01*
X54117D01*
Y-335892D01*
X54227D01*
Y-335782D01*
X54336D01*
Y-335563D01*
X54446D01*
Y-335454D01*
X54555D01*
Y-335344D01*
X54665D01*
Y-335235D01*
X54774D01*
Y-335016D01*
X54884D01*
Y-334906D01*
X54993D01*
Y-334688D01*
X55103D01*
Y-334468D01*
X55212D01*
Y-334359D01*
X55322D01*
Y-334250D01*
X55431D01*
Y-334031D01*
X55540D01*
Y-333921D01*
X55650D01*
Y-333812D01*
X55760D01*
Y-333593D01*
X55869D01*
Y-333483D01*
X55978D01*
Y-333374D01*
X56088D01*
Y-333264D01*
X56526D01*
Y-333374D01*
X56635D01*
Y-333483D01*
X56745D01*
Y-333593D01*
X56854D01*
Y-334468D01*
X56745D01*
Y-334578D01*
X56635D01*
Y-334797D01*
X56526D01*
Y-335016D01*
X56416D01*
Y-335125D01*
X56307D01*
Y-335235D01*
X56197D01*
Y-335344D01*
X56088D01*
Y-335454D01*
X55978D01*
Y-335673D01*
X55869D01*
Y-335782D01*
X55760D01*
Y-335892D01*
X55650D01*
Y-336111D01*
X55540D01*
Y-336220D01*
X55431D01*
Y-336329D01*
X55322D01*
Y-336439D01*
X55212D01*
Y-336658D01*
X55103D01*
Y-336767D01*
X54993D01*
Y-336986D01*
X54884D01*
Y-337096D01*
X54774D01*
Y-337205D01*
X54665D01*
Y-337424D01*
X54555D01*
Y-337534D01*
X54446D01*
Y-337643D01*
X54336D01*
Y-337753D01*
X54227D01*
Y-337972D01*
X54117D01*
Y-338081D01*
X54008D01*
Y-338190D01*
X53899D01*
Y-338300D01*
X53789D01*
Y-338409D01*
X53679D01*
Y-338519D01*
X53570D01*
Y-338738D01*
X53461D01*
Y-338847D01*
X53351D01*
Y-338957D01*
X53242D01*
Y-339176D01*
X53132D01*
Y-339285D01*
X53023D01*
Y-339504D01*
X52913D01*
Y-339614D01*
X52804D01*
Y-339723D01*
X52694D01*
Y-339832D01*
X52585D01*
Y-340051D01*
X52475D01*
Y-340270D01*
X52366D01*
Y-340380D01*
X52256D01*
Y-340599D01*
X52147D01*
Y-340818D01*
X52038D01*
Y-341037D01*
X51928D01*
Y-341146D01*
X51818D01*
Y-341365D01*
X51709D01*
Y-341584D01*
X51600D01*
Y-341693D01*
X51490D01*
Y-341803D01*
X51381D01*
Y-341912D01*
X51271D01*
Y-342022D01*
X51162D01*
Y-342131D01*
X51052D01*
Y-342241D01*
X50943D01*
Y-342350D01*
X50833D01*
Y-342460D01*
X50724D01*
Y-342569D01*
X50833D01*
Y-342679D01*
X50943D01*
Y-342788D01*
X51052D01*
Y-342898D01*
X51271D01*
Y-343007D01*
X51490D01*
Y-343117D01*
X51709D01*
Y-343226D01*
X51928D01*
Y-343336D01*
X52256D01*
Y-343445D01*
X52475D01*
Y-343554D01*
X52694D01*
Y-343664D01*
X52913D01*
Y-343773D01*
X53242D01*
Y-343883D01*
X53461D01*
Y-343992D01*
X53899D01*
Y-344102D01*
X54117D01*
Y-344211D01*
X54336D01*
Y-344321D01*
X54774D01*
Y-344430D01*
X55212D01*
Y-344540D01*
X55540D01*
Y-344649D01*
X55978D01*
Y-344759D01*
X56197D01*
Y-344868D01*
X56526D01*
Y-344978D01*
X56745D01*
Y-345087D01*
X57073D01*
Y-345196D01*
X57401D01*
Y-345306D01*
X57839D01*
Y-345415D01*
X58058D01*
Y-345525D01*
X58277D01*
Y-345634D01*
X58606D01*
Y-345744D01*
X58934D01*
Y-345853D01*
X59153D01*
Y-345963D01*
X59372D01*
Y-346072D01*
X59591D01*
Y-346182D01*
X59810D01*
Y-346291D01*
X60138D01*
Y-346401D01*
X60467D01*
Y-346510D01*
X60795D01*
Y-346620D01*
X61123D01*
Y-346729D01*
X61561D01*
Y-346839D01*
X61890D01*
Y-346948D01*
X62218D01*
Y-347057D01*
X62765D01*
Y-347167D01*
X63094D01*
Y-347276D01*
X63313D01*
Y-347386D01*
X63751D01*
Y-347495D01*
X64079D01*
Y-347605D01*
X64517D01*
Y-347714D01*
X64736D01*
Y-347824D01*
X65174D01*
Y-347495D01*
X65064D01*
Y-347386D01*
X64955D01*
Y-347276D01*
X64845D01*
Y-347167D01*
X64736D01*
Y-346839D01*
X64626D01*
Y-346620D01*
X64517D01*
Y-346401D01*
X64408D01*
Y-346291D01*
X64298D01*
Y-346182D01*
X64189D01*
Y-345963D01*
X64079D01*
Y-345853D01*
X63970D01*
Y-345744D01*
X63860D01*
Y-345634D01*
X63751D01*
Y-345415D01*
X63641D01*
Y-345196D01*
X63532D01*
Y-344978D01*
X63422D01*
Y-344868D01*
X63203D01*
Y-344759D01*
X63094D01*
Y-344649D01*
X62984D01*
Y-344540D01*
X62875D01*
Y-344430D01*
X62765D01*
Y-344321D01*
X62656D01*
Y-344211D01*
X62547D01*
Y-344102D01*
X62437D01*
Y-343883D01*
X62328D01*
Y-343773D01*
X62218D01*
Y-343664D01*
X62109D01*
Y-343445D01*
X61999D01*
Y-343117D01*
X61890D01*
Y-342788D01*
X61999D01*
Y-342569D01*
X62218D01*
Y-342460D01*
X62765D01*
Y-342569D01*
X62875D01*
Y-342679D01*
X62984D01*
Y-342788D01*
X63094D01*
Y-343007D01*
X63203D01*
Y-343117D01*
X63313D01*
Y-343226D01*
X63532D01*
Y-343336D01*
X63641D01*
Y-343554D01*
X63751D01*
Y-343773D01*
X63860D01*
Y-343883D01*
X63970D01*
Y-343992D01*
X64079D01*
Y-344102D01*
X64298D01*
Y-344211D01*
X64408D01*
Y-344321D01*
X64517D01*
Y-344430D01*
X64626D01*
Y-344540D01*
X64736D01*
Y-344759D01*
X64845D01*
Y-344868D01*
X64955D01*
Y-344978D01*
X65064D01*
Y-345087D01*
X65174D01*
Y-345196D01*
X65283D01*
Y-345306D01*
X65393D01*
Y-345525D01*
X65502D01*
Y-345744D01*
X65612D01*
Y-345853D01*
X65721D01*
Y-346182D01*
X65831D01*
Y-346401D01*
X65940D01*
Y-346620D01*
X66050D01*
Y-346729D01*
X66159D01*
Y-346948D01*
X66269D01*
Y-347167D01*
X66378D01*
Y-347386D01*
X66487D01*
Y-347605D01*
X66597D01*
Y-347824D01*
X66706D01*
Y-347933D01*
X66816D01*
Y-348043D01*
X66925D01*
Y-348262D01*
X67035D01*
Y-348371D01*
X67144D01*
Y-348481D01*
X67473D01*
Y-348590D01*
X67692D01*
Y-348699D01*
X67910D01*
Y-348809D01*
X68239D01*
Y-348918D01*
X68458D01*
Y-349028D01*
X68786D01*
Y-349137D01*
X69005D01*
Y-349247D01*
X69334D01*
Y-349356D01*
X69662D01*
Y-349466D01*
X69881D01*
Y-349575D01*
X70100D01*
Y-349685D01*
X70428D01*
Y-349794D01*
X70647D01*
Y-349904D01*
X70866D01*
Y-350013D01*
X71195D01*
Y-350123D01*
X71523D01*
Y-350232D01*
X71961D01*
Y-350342D01*
X72180D01*
Y-350451D01*
X72399D01*
Y-350342D01*
X72508D01*
Y-350123D01*
X72618D01*
Y-349794D01*
X72727D01*
Y-349575D01*
X72837D01*
Y-349247D01*
X72946D01*
Y-348918D01*
X73056D01*
Y-348809D01*
X73165D01*
Y-348699D01*
X73384D01*
Y-348590D01*
X73712D01*
Y-348699D01*
X73931D01*
Y-348809D01*
X74041D01*
Y-349028D01*
X74150D01*
Y-349685D01*
X74369D01*
Y-349575D01*
X74479D01*
Y-349466D01*
X74588D01*
Y-349356D01*
X75245D01*
Y-349466D01*
X75354D01*
Y-349575D01*
X75464D01*
Y-350232D01*
X75354D01*
Y-350560D01*
X75245D01*
Y-350779D01*
X75792D01*
Y-350889D01*
X75902D01*
Y-350998D01*
X76011D01*
Y-351108D01*
X76121D01*
Y-351436D01*
X76011D01*
Y-351655D01*
X75902D01*
Y-351765D01*
X75792D01*
Y-351874D01*
X75683D01*
Y-351984D01*
X75245D01*
Y-352093D01*
X75026D01*
Y-352312D01*
X75135D01*
Y-352421D01*
X75245D01*
Y-352640D01*
X75354D01*
Y-352859D01*
X75464D01*
Y-353078D01*
X75354D01*
Y-353297D01*
X75245D01*
Y-353407D01*
X75135D01*
Y-353516D01*
X74698D01*
Y-353407D01*
X74479D01*
Y-353297D01*
X74260D01*
Y-353188D01*
X74150D01*
Y-353078D01*
X74041D01*
Y-352969D01*
X73931D01*
Y-353078D01*
X73822D01*
Y-353407D01*
X73712D01*
Y-353626D01*
X73603D01*
Y-353735D01*
X73493D01*
Y-353845D01*
X72946D01*
Y-353735D01*
X72837D01*
Y-353516D01*
X72727D01*
Y-353188D01*
X72618D01*
Y-351984D01*
X72508D01*
Y-351874D01*
X72289D01*
Y-351765D01*
X72180D01*
Y-351655D01*
X71961D01*
Y-351546D01*
X71851D01*
Y-351436D01*
X71632D01*
Y-351327D01*
X71304D01*
Y-351217D01*
X71085D01*
Y-351108D01*
X70866D01*
Y-350998D01*
X70538D01*
Y-350889D01*
X70100D01*
Y-350779D01*
X69771D01*
Y-350670D01*
X69553D01*
Y-350560D01*
X69224D01*
Y-350451D01*
X69005D01*
Y-350342D01*
X68677D01*
Y-350232D01*
X68239D01*
Y-350342D01*
X68130D01*
Y-350451D01*
X68239D01*
Y-350889D01*
X68348D01*
Y-351217D01*
X68458D01*
Y-351436D01*
X68567D01*
Y-351546D01*
X68677D01*
Y-351765D01*
X68786D01*
Y-352203D01*
X68896D01*
Y-352421D01*
X69005D01*
Y-352640D01*
X69115D01*
Y-352750D01*
X69224D01*
Y-352969D01*
X69334D01*
Y-353188D01*
X69443D01*
Y-353407D01*
X69553D01*
Y-353516D01*
X69662D01*
Y-353845D01*
X69771D01*
Y-354173D01*
X69881D01*
Y-354501D01*
X69991D01*
Y-354720D01*
X70100D01*
Y-354939D01*
X70209D01*
Y-355049D01*
X70319D01*
Y-355377D01*
X70428D01*
Y-355487D01*
X70538D01*
Y-355706D01*
X70647D01*
Y-355924D01*
X70757D01*
Y-356253D01*
X70866D01*
Y-356472D01*
X70976D01*
Y-356800D01*
X71085D01*
Y-357019D01*
X71195D01*
Y-357129D01*
X71304D01*
Y-357348D01*
X71414D01*
Y-357567D01*
X71523D01*
Y-357785D01*
X71632D01*
Y-358004D01*
X71742D01*
Y-358223D01*
X71851D01*
Y-358333D01*
X71961D01*
Y-358552D01*
X72070D01*
Y-358880D01*
X72180D01*
Y-359209D01*
X72289D01*
Y-359428D01*
X72399D01*
Y-359865D01*
X72508D01*
Y-360194D01*
X72618D01*
Y-360522D01*
X72727D01*
Y-360741D01*
X72837D01*
Y-360960D01*
X72946D01*
Y-361398D01*
X73056D01*
Y-361617D01*
X73165D01*
Y-361945D01*
X73275D01*
Y-362164D01*
X73384D01*
Y-362493D01*
X73493D01*
Y-362712D01*
X73603D01*
Y-362821D01*
X73712D01*
Y-363040D01*
X73822D01*
Y-363259D01*
X73931D01*
Y-363368D01*
X74041D01*
Y-363587D01*
X74150D01*
Y-363697D01*
X74260D01*
Y-363806D01*
X74369D01*
Y-363916D01*
X74479D01*
Y-364135D01*
X74588D01*
Y-364244D01*
X74698D01*
Y-364463D01*
X74807D01*
Y-364682D01*
X74917D01*
Y-364791D01*
X75026D01*
Y-365010D01*
X75135D01*
Y-365120D01*
X75245D01*
Y-365339D01*
X75354D01*
Y-365448D01*
X75573D01*
Y-365558D01*
X75902D01*
Y-365667D01*
X76230D01*
Y-365777D01*
X76778D01*
Y-365886D01*
X77872D01*
Y-365777D01*
X78310D01*
Y-365667D01*
X78529D01*
Y-365558D01*
X78857D01*
Y-365448D01*
X79076D01*
Y-365339D01*
X79186D01*
Y-365229D01*
X79295D01*
Y-365120D01*
X79405D01*
Y-365010D01*
X79514D01*
Y-364901D01*
X79624D01*
Y-364682D01*
X79733D01*
Y-364573D01*
X79843D01*
Y-364354D01*
X79952D01*
Y-364135D01*
X80062D01*
Y-363916D01*
X80171D01*
Y-363806D01*
X80281D01*
Y-363587D01*
X80390D01*
Y-363368D01*
X80499D01*
Y-363040D01*
X80609D01*
Y-362712D01*
X80718D01*
Y-362274D01*
X80828D01*
Y-361398D01*
X80937D01*
Y-360960D01*
X81047D01*
Y-360632D01*
X81156D01*
Y-360084D01*
X81266D01*
Y-358880D01*
X81375D01*
Y-358114D01*
X81485D01*
Y-356581D01*
X81594D01*
Y-354392D01*
X81485D01*
Y-353845D01*
X81375D01*
Y-353407D01*
X81266D01*
Y-352859D01*
X81156D01*
Y-352312D01*
X81047D01*
Y-351984D01*
X80937D01*
Y-351655D01*
X80828D01*
Y-351327D01*
X80718D01*
Y-350998D01*
X80609D01*
Y-350342D01*
X80499D01*
Y-350123D01*
X80390D01*
Y-349794D01*
X80281D01*
Y-349466D01*
X80171D01*
Y-349247D01*
X80062D01*
Y-348809D01*
X79952D01*
Y-348371D01*
X79843D01*
Y-348043D01*
X79733D01*
Y-347824D01*
X79624D01*
Y-347714D01*
X79514D01*
Y-347495D01*
X79405D01*
Y-347276D01*
X79295D01*
Y-347057D01*
X79186D01*
Y-346839D01*
X79076D01*
Y-346620D01*
X78967D01*
Y-346401D01*
X78857D01*
Y-346182D01*
X78748D01*
Y-345963D01*
X78639D01*
Y-345744D01*
X78529D01*
Y-345525D01*
X78420D01*
Y-345196D01*
X78310D01*
Y-344978D01*
X78201D01*
Y-344759D01*
X78091D01*
Y-344540D01*
X77982D01*
Y-344321D01*
X77872D01*
Y-344102D01*
X77763D01*
Y-343883D01*
X77653D01*
Y-343773D01*
X77544D01*
Y-343554D01*
X77434D01*
Y-343336D01*
X77325D01*
Y-343117D01*
X77215D01*
Y-342898D01*
X77106D01*
Y-342788D01*
X76996D01*
Y-342679D01*
X76887D01*
Y-342460D01*
X76778D01*
Y-342350D01*
X76668D01*
Y-342241D01*
X76559D01*
Y-342131D01*
X76449D01*
Y-342022D01*
X76340D01*
Y-341912D01*
X76230D01*
Y-341803D01*
X76121D01*
Y-341693D01*
X76011D01*
Y-341584D01*
X75902D01*
Y-341475D01*
X75792D01*
Y-341365D01*
X75683D01*
Y-341256D01*
X75573D01*
Y-341146D01*
X75464D01*
Y-341037D01*
X75354D01*
Y-340927D01*
X75245D01*
Y-340818D01*
X75135D01*
Y-340708D01*
X75026D01*
Y-340599D01*
X74917D01*
Y-340489D01*
X74807D01*
Y-340380D01*
X74698D01*
Y-340270D01*
X74588D01*
Y-340161D01*
X74479D01*
Y-340051D01*
X74369D01*
Y-339832D01*
X74260D01*
Y-339723D01*
X74150D01*
Y-339614D01*
X74041D01*
Y-339504D01*
X73931D01*
Y-339285D01*
X73822D01*
Y-339176D01*
X73712D01*
Y-339066D01*
X73603D01*
Y-338957D01*
X73493D01*
Y-338847D01*
X73384D01*
Y-338738D01*
X73275D01*
Y-338628D01*
X73056D01*
Y-338519D01*
X72946D01*
Y-338409D01*
X72837D01*
Y-338300D01*
X72727D01*
Y-338190D01*
X72618D01*
Y-338081D01*
X72508D01*
Y-337972D01*
X72289D01*
Y-337862D01*
X72180D01*
Y-337753D01*
X72070D01*
Y-337643D01*
X71961D01*
Y-337534D01*
X71851D01*
Y-337424D01*
X71632D01*
Y-337315D01*
X71523D01*
Y-337205D01*
X71414D01*
Y-337096D01*
X71304D01*
Y-336986D01*
X71195D01*
Y-336877D01*
X71085D01*
Y-336767D01*
X70976D01*
Y-336658D01*
X70866D01*
Y-336549D01*
X70757D01*
Y-336439D01*
X70647D01*
Y-336329D01*
X70538D01*
Y-336220D01*
X70319D01*
Y-336111D01*
X70209D01*
Y-336001D01*
X69991D01*
Y-335892D01*
X69881D01*
Y-335782D01*
X69662D01*
Y-335673D01*
X69553D01*
Y-335563D01*
X69443D01*
Y-335454D01*
X69334D01*
Y-335344D01*
X69224D01*
Y-335235D01*
X69115D01*
Y-335125D01*
X69005D01*
Y-335016D01*
X68896D01*
Y-334906D01*
X68786D01*
Y-334797D01*
X68677D01*
Y-334688D01*
X68458D01*
Y-334578D01*
X68348D01*
Y-334468D01*
X68239D01*
Y-334359D01*
X68130D01*
Y-334250D01*
X68020D01*
Y-334140D01*
X67801D01*
Y-334031D01*
X67692D01*
Y-333921D01*
X67473D01*
Y-333812D01*
X67254D01*
Y-333702D01*
X66816D01*
Y-333593D01*
X66597D01*
Y-333483D01*
X66378D01*
Y-333374D01*
X66159D01*
Y-333264D01*
X65940D01*
Y-333155D01*
X65831D01*
Y-333045D01*
X65612D01*
Y-332936D01*
X65393D01*
Y-332826D01*
X64955D01*
Y-332717D01*
X64736D01*
Y-332607D01*
X64517D01*
Y-332498D01*
X64189D01*
Y-332389D01*
X63860D01*
Y-332279D01*
X63532D01*
Y-332170D01*
X63094D01*
Y-332060D01*
X62765D01*
Y-331951D01*
X62547D01*
Y-331841D01*
X62328D01*
Y-331732D01*
X62109D01*
Y-331622D01*
X61780D01*
Y-331513D01*
X61014D01*
Y-331403D01*
X60467D01*
Y-331294D01*
X60029D01*
Y-331185D01*
X59700D01*
Y-331075D01*
X59262D01*
Y-330965D01*
X58825D01*
Y-330856D01*
X58277D01*
Y-330747D01*
X57620D01*
Y-330637D01*
X56197D01*
Y-330528D01*
X55212D01*
Y-330418D01*
X54665D01*
Y-330309D01*
X53570D01*
Y-330199D01*
X52585D01*
Y-330090D01*
X50943D01*
Y-329980D01*
D02*
G37*
G36*
X55760Y-361179D02*
X55103D01*
Y-361288D01*
X54446D01*
Y-361398D01*
X54117D01*
Y-361507D01*
X53679D01*
Y-361617D01*
X53132D01*
Y-361726D01*
X52585D01*
Y-361836D01*
X51600D01*
Y-361945D01*
X51052D01*
Y-362055D01*
X50505D01*
Y-362164D01*
X50286D01*
Y-362274D01*
X49739D01*
Y-362383D01*
X49301D01*
Y-362493D01*
X48972D01*
Y-362602D01*
X48316D01*
Y-362712D01*
X47878D01*
Y-362821D01*
X47549D01*
Y-362931D01*
X47330D01*
Y-363040D01*
X47002D01*
Y-363149D01*
X46673D01*
Y-363259D01*
X46455D01*
Y-363368D01*
X45907D01*
Y-363478D01*
X45469D01*
Y-363587D01*
X45031D01*
Y-363697D01*
X44703D01*
Y-363806D01*
X44375D01*
Y-363916D01*
X44156D01*
Y-364025D01*
X43937D01*
Y-364135D01*
X43499D01*
Y-364244D01*
X43280D01*
Y-364463D01*
X43389D01*
Y-364573D01*
X43827D01*
Y-364682D01*
X44046D01*
Y-364791D01*
X44265D01*
Y-364901D01*
X44594D01*
Y-365010D01*
X44812D01*
Y-365120D01*
X45031D01*
Y-365229D01*
X45250D01*
Y-365339D01*
X45469D01*
Y-365448D01*
X45688D01*
Y-365558D01*
X45907D01*
Y-365667D01*
X46126D01*
Y-365777D01*
X46455D01*
Y-365886D01*
X46892D01*
Y-365996D01*
X47111D01*
Y-366105D01*
X47330D01*
Y-366215D01*
X47659D01*
Y-366324D01*
X47878D01*
Y-366434D01*
X48097D01*
Y-366543D01*
X48316D01*
Y-366652D01*
X48534D01*
Y-366762D01*
X48644D01*
Y-366871D01*
X48863D01*
Y-366981D01*
X49082D01*
Y-367090D01*
X49410D01*
Y-367200D01*
X49629D01*
Y-367309D01*
X49848D01*
Y-367419D01*
X50177D01*
Y-367528D01*
X50395D01*
Y-367638D01*
X50614D01*
Y-367747D01*
X50833D01*
Y-367857D01*
X51162D01*
Y-367966D01*
X51381D01*
Y-368076D01*
X51928D01*
Y-368185D01*
X52366D01*
Y-368295D01*
X52913D01*
Y-368404D01*
X53242D01*
Y-368513D01*
X53789D01*
Y-368623D01*
X54555D01*
Y-368513D01*
X54665D01*
Y-368404D01*
X54774D01*
Y-368295D01*
X54884D01*
Y-368185D01*
X54993D01*
Y-367966D01*
X55103D01*
Y-367419D01*
X55212D01*
Y-366762D01*
X55322D01*
Y-365339D01*
X55431D01*
Y-364901D01*
X55540D01*
Y-363916D01*
X55650D01*
Y-363040D01*
X55760D01*
Y-361179D01*
D02*
G37*
%LPD*%
G36*
X76996Y-290900D02*
X77215D01*
Y-291009D01*
X77325D01*
Y-291119D01*
X77434D01*
Y-291228D01*
X77544D01*
Y-291885D01*
X77434D01*
Y-291994D01*
X77325D01*
Y-292104D01*
X77215D01*
Y-292213D01*
X77106D01*
Y-292323D01*
X76559D01*
Y-292213D01*
X76449D01*
Y-292104D01*
X76230D01*
Y-291885D01*
X76121D01*
Y-291228D01*
X76230D01*
Y-291119D01*
X76340D01*
Y-291009D01*
X76449D01*
Y-290900D01*
X76668D01*
Y-290790D01*
X76996D01*
Y-290900D01*
D02*
G37*
G36*
X75792Y-300971D02*
X76011D01*
Y-301080D01*
X76121D01*
Y-301190D01*
X76230D01*
Y-301299D01*
X76340D01*
Y-301956D01*
X76230D01*
Y-302175D01*
X76121D01*
Y-302285D01*
X75902D01*
Y-302394D01*
X75464D01*
Y-302285D01*
X75245D01*
Y-302175D01*
X75135D01*
Y-302066D01*
X75026D01*
Y-301847D01*
X74917D01*
Y-301409D01*
X75026D01*
Y-301190D01*
X75135D01*
Y-301080D01*
X75245D01*
Y-300971D01*
X75464D01*
Y-300861D01*
X75792D01*
Y-300971D01*
D02*
G37*
G36*
X64408Y-287397D02*
X65174D01*
Y-287506D01*
X66050D01*
Y-287616D01*
X66925D01*
Y-287725D01*
X67692D01*
Y-287835D01*
X68130D01*
Y-287944D01*
X68786D01*
Y-288053D01*
X69334D01*
Y-288163D01*
X69662D01*
Y-288272D01*
X69991D01*
Y-288382D01*
X70428D01*
Y-288491D01*
X70757D01*
Y-288601D01*
X70976D01*
Y-288710D01*
X71304D01*
Y-288820D01*
X71523D01*
Y-288929D01*
X71851D01*
Y-289039D01*
X72070D01*
Y-289148D01*
X72289D01*
Y-289258D01*
X72508D01*
Y-289367D01*
X72727D01*
Y-289477D01*
X72946D01*
Y-289586D01*
X73165D01*
Y-289696D01*
X73275D01*
Y-289805D01*
X73493D01*
Y-289914D01*
X73712D01*
Y-290024D01*
X73822D01*
Y-290133D01*
X73931D01*
Y-290243D01*
X74041D01*
Y-290352D01*
X74150D01*
Y-290462D01*
X74369D01*
Y-290681D01*
X74479D01*
Y-290790D01*
X74588D01*
Y-290900D01*
X74698D01*
Y-291009D01*
X74807D01*
Y-291119D01*
X74917D01*
Y-291338D01*
X75026D01*
Y-291556D01*
X75135D01*
Y-291666D01*
X75245D01*
Y-291885D01*
X75354D01*
Y-292213D01*
X75464D01*
Y-292542D01*
X75573D01*
Y-292980D01*
X75683D01*
Y-294950D01*
X75573D01*
Y-295388D01*
X75464D01*
Y-295826D01*
X75354D01*
Y-296154D01*
X75245D01*
Y-296373D01*
X75135D01*
Y-296592D01*
X75026D01*
Y-296811D01*
X74917D01*
Y-297030D01*
X74807D01*
Y-297139D01*
X74698D01*
Y-297358D01*
X74588D01*
Y-297468D01*
X74479D01*
Y-297577D01*
X74369D01*
Y-297796D01*
X74260D01*
Y-297906D01*
X74150D01*
Y-298015D01*
X74041D01*
Y-298125D01*
X73931D01*
Y-298234D01*
X73822D01*
Y-298344D01*
X73712D01*
Y-298453D01*
X73603D01*
Y-298563D01*
X73493D01*
Y-298672D01*
X73384D01*
Y-298782D01*
X73275D01*
Y-298891D01*
X73165D01*
Y-299000D01*
X73056D01*
Y-299110D01*
X72946D01*
Y-299219D01*
X72837D01*
Y-299329D01*
X72618D01*
Y-299438D01*
X72508D01*
Y-299548D01*
X72399D01*
Y-299657D01*
X72180D01*
Y-299767D01*
X72070D01*
Y-299876D01*
X71961D01*
Y-299986D01*
X71742D01*
Y-300095D01*
X71632D01*
Y-300205D01*
X71414D01*
Y-300314D01*
X71304D01*
Y-300424D01*
X71085D01*
Y-300533D01*
X70976D01*
Y-300643D01*
X70757D01*
Y-300752D01*
X70538D01*
Y-300861D01*
X70319D01*
Y-300971D01*
X70209D01*
Y-301080D01*
X69991D01*
Y-301190D01*
X69771D01*
Y-301299D01*
X69553D01*
Y-301409D01*
X69334D01*
Y-301518D01*
X69005D01*
Y-301628D01*
X68786D01*
Y-301737D01*
X68567D01*
Y-301847D01*
X68348D01*
Y-301956D01*
X68130D01*
Y-302066D01*
X67801D01*
Y-302175D01*
X67582D01*
Y-302285D01*
X67254D01*
Y-302394D01*
X67035D01*
Y-302504D01*
X66816D01*
Y-302613D01*
X66487D01*
Y-302722D01*
X66159D01*
Y-302832D01*
X65831D01*
Y-302941D01*
X65612D01*
Y-303051D01*
X65174D01*
Y-303160D01*
X64845D01*
Y-303270D01*
X64298D01*
Y-303379D01*
X63532D01*
Y-303489D01*
X61671D01*
Y-303598D01*
X61014D01*
Y-303708D01*
X60357D01*
Y-303817D01*
X59810D01*
Y-303708D01*
X59481D01*
Y-303489D01*
X59372D01*
Y-303270D01*
X59262D01*
Y-303051D01*
X59153D01*
Y-302722D01*
X59043D01*
Y-302394D01*
X58934D01*
Y-302066D01*
X58825D01*
Y-301737D01*
X58715D01*
Y-301409D01*
X58606D01*
Y-300971D01*
X58496D01*
Y-300533D01*
X58387D01*
Y-300095D01*
X58277D01*
Y-299548D01*
X58168D01*
Y-298782D01*
X58058D01*
Y-297796D01*
X57949D01*
Y-295278D01*
X58058D01*
Y-293855D01*
X58168D01*
Y-292213D01*
X58277D01*
Y-291228D01*
X58168D01*
Y-290243D01*
X58277D01*
Y-288929D01*
X58387D01*
Y-287944D01*
X58496D01*
Y-287725D01*
X58606D01*
Y-287616D01*
X58715D01*
Y-287506D01*
X59043D01*
Y-287397D01*
X61123D01*
Y-287287D01*
X64408D01*
Y-287397D01*
D02*
G37*
%LPC*%
G36*
X59591Y-290900D02*
X59043D01*
Y-291338D01*
X58934D01*
Y-293965D01*
X58825D01*
Y-296045D01*
X58715D01*
Y-297139D01*
X58825D01*
Y-298015D01*
X58934D01*
Y-298891D01*
X59043D01*
Y-299657D01*
X59153D01*
Y-299986D01*
X59262D01*
Y-300095D01*
X59810D01*
Y-299986D01*
X59919D01*
Y-299876D01*
X60029D01*
Y-299767D01*
X60138D01*
Y-299657D01*
X60248D01*
Y-299548D01*
X60357D01*
Y-299438D01*
X60467D01*
Y-299329D01*
X60576D01*
Y-299219D01*
X60686D01*
Y-299110D01*
X60795D01*
Y-299000D01*
X60904D01*
Y-298891D01*
X61014D01*
Y-298782D01*
X61123D01*
Y-298672D01*
X61233D01*
Y-298453D01*
X61342D01*
Y-298234D01*
X61452D01*
Y-297906D01*
X61561D01*
Y-297468D01*
X61671D01*
Y-296702D01*
X61561D01*
Y-296264D01*
X61452D01*
Y-295935D01*
X61342D01*
Y-295716D01*
X61233D01*
Y-295497D01*
X61123D01*
Y-295278D01*
X61014D01*
Y-295169D01*
X60904D01*
Y-295060D01*
X60795D01*
Y-294950D01*
X60686D01*
Y-294841D01*
X60576D01*
Y-294731D01*
X60467D01*
Y-294293D01*
X60576D01*
Y-294184D01*
X61014D01*
Y-294293D01*
X61561D01*
Y-294403D01*
X61780D01*
Y-294293D01*
X61890D01*
Y-293527D01*
X61780D01*
Y-293308D01*
X61671D01*
Y-293089D01*
X61561D01*
Y-292870D01*
X61452D01*
Y-292651D01*
X61342D01*
Y-292542D01*
X61233D01*
Y-292323D01*
X61123D01*
Y-292213D01*
X61014D01*
Y-292104D01*
X60904D01*
Y-291885D01*
X60795D01*
Y-291775D01*
X60576D01*
Y-291556D01*
X60357D01*
Y-291447D01*
X60248D01*
Y-291338D01*
X60138D01*
Y-291228D01*
X59919D01*
Y-291119D01*
X59700D01*
Y-291009D01*
X59591D01*
Y-290900D01*
D02*
G37*
G36*
X62547Y-288053D02*
X61233D01*
Y-288163D01*
X59372D01*
Y-288272D01*
X59262D01*
Y-288382D01*
X59153D01*
Y-288710D01*
X59043D01*
Y-289696D01*
X59153D01*
Y-289914D01*
X59372D01*
Y-290024D01*
X59591D01*
Y-290133D01*
X59810D01*
Y-290243D01*
X60029D01*
Y-290352D01*
X60248D01*
Y-290462D01*
X60467D01*
Y-290571D01*
X60576D01*
Y-290681D01*
X60795D01*
Y-290790D01*
X60904D01*
Y-290900D01*
X61014D01*
Y-291009D01*
X61123D01*
Y-291119D01*
X61233D01*
Y-291228D01*
X61342D01*
Y-291338D01*
X61452D01*
Y-291447D01*
X61561D01*
Y-291556D01*
X61671D01*
Y-291666D01*
X61780D01*
Y-291885D01*
X61890D01*
Y-291994D01*
X61999D01*
Y-292213D01*
X62109D01*
Y-292432D01*
X62218D01*
Y-292542D01*
X62328D01*
Y-292870D01*
X62437D01*
Y-293089D01*
X62547D01*
Y-293417D01*
X62656D01*
Y-293855D01*
X62765D01*
Y-294293D01*
X62656D01*
Y-294622D01*
X62547D01*
Y-294950D01*
X62437D01*
Y-295169D01*
X62328D01*
Y-295607D01*
X62218D01*
Y-296373D01*
X62328D01*
Y-296811D01*
X62437D01*
Y-297796D01*
X62328D01*
Y-298125D01*
X62218D01*
Y-298453D01*
X62109D01*
Y-298672D01*
X61999D01*
Y-298891D01*
X61890D01*
Y-299000D01*
X61780D01*
Y-299219D01*
X61671D01*
Y-299329D01*
X61561D01*
Y-299548D01*
X61452D01*
Y-299657D01*
X61342D01*
Y-299767D01*
X61233D01*
Y-299876D01*
X61123D01*
Y-299986D01*
X61014D01*
Y-300095D01*
X60904D01*
Y-300205D01*
X60795D01*
Y-300314D01*
X60686D01*
Y-300424D01*
X60576D01*
Y-300533D01*
X60467D01*
Y-300643D01*
X60248D01*
Y-300752D01*
X60138D01*
Y-300861D01*
X59919D01*
Y-300971D01*
X59810D01*
Y-301080D01*
X59700D01*
Y-301190D01*
X59591D01*
Y-301409D01*
X59481D01*
Y-301518D01*
X59591D01*
Y-301847D01*
X59700D01*
Y-302175D01*
X59810D01*
Y-302504D01*
X59919D01*
Y-302722D01*
X60029D01*
Y-302832D01*
X60248D01*
Y-302941D01*
X60576D01*
Y-302832D01*
X61233D01*
Y-302722D01*
X61999D01*
Y-302613D01*
X63094D01*
Y-302504D01*
X64079D01*
Y-302394D01*
X64736D01*
Y-302285D01*
X65283D01*
Y-302175D01*
X65721D01*
Y-302066D01*
X66050D01*
Y-301956D01*
X66378D01*
Y-301847D01*
X66597D01*
Y-301737D01*
X66816D01*
Y-301628D01*
X67035D01*
Y-301518D01*
X67363D01*
Y-301409D01*
X67582D01*
Y-301299D01*
X67801D01*
Y-301190D01*
X68020D01*
Y-301080D01*
X68239D01*
Y-300971D01*
X68458D01*
Y-300861D01*
X68786D01*
Y-300752D01*
X69005D01*
Y-300643D01*
X69224D01*
Y-300533D01*
X69443D01*
Y-300424D01*
X69662D01*
Y-300314D01*
X69881D01*
Y-300205D01*
X70100D01*
Y-300095D01*
X70319D01*
Y-299986D01*
X70538D01*
Y-299876D01*
X70647D01*
Y-299767D01*
X70866D01*
Y-299657D01*
X70976D01*
Y-299548D01*
X71195D01*
Y-299438D01*
X71304D01*
Y-299329D01*
X71523D01*
Y-299219D01*
X71632D01*
Y-299110D01*
X71742D01*
Y-299000D01*
X71961D01*
Y-298891D01*
X72070D01*
Y-298782D01*
X72180D01*
Y-298672D01*
X72289D01*
Y-298563D01*
X72508D01*
Y-298453D01*
X72618D01*
Y-298344D01*
X72727D01*
Y-298234D01*
X72837D01*
Y-298125D01*
X72946D01*
Y-298015D01*
X73056D01*
Y-297906D01*
X73165D01*
Y-297796D01*
X73275D01*
Y-297687D01*
X73384D01*
Y-297577D01*
X73493D01*
Y-297468D01*
X73603D01*
Y-297249D01*
X73712D01*
Y-297139D01*
X73822D01*
Y-297030D01*
X73931D01*
Y-296811D01*
X74041D01*
Y-296702D01*
X74150D01*
Y-296483D01*
X74260D01*
Y-296264D01*
X74369D01*
Y-296045D01*
X74479D01*
Y-295826D01*
X74588D01*
Y-295607D01*
X74698D01*
Y-295278D01*
X74807D01*
Y-294841D01*
X74917D01*
Y-294293D01*
X75026D01*
Y-293199D01*
X74917D01*
Y-292870D01*
X74807D01*
Y-292651D01*
X74698D01*
Y-292432D01*
X74588D01*
Y-292213D01*
X74479D01*
Y-292104D01*
X74369D01*
Y-291885D01*
X74260D01*
Y-291775D01*
X74150D01*
Y-291666D01*
X74041D01*
Y-291556D01*
X73931D01*
Y-291338D01*
X73822D01*
Y-291228D01*
X73712D01*
Y-291119D01*
X73603D01*
Y-291009D01*
X73493D01*
Y-290900D01*
X73384D01*
Y-290790D01*
X73275D01*
Y-290681D01*
X73165D01*
Y-290571D01*
X72946D01*
Y-290462D01*
X72837D01*
Y-290352D01*
X72727D01*
Y-290243D01*
X72508D01*
Y-290133D01*
X72399D01*
Y-290024D01*
X72180D01*
Y-289914D01*
X71961D01*
Y-289805D01*
X71742D01*
Y-289696D01*
X71523D01*
Y-289586D01*
X71304D01*
Y-289477D01*
X71085D01*
Y-289367D01*
X70757D01*
Y-289258D01*
X70428D01*
Y-289148D01*
X69991D01*
Y-289039D01*
X69553D01*
Y-288929D01*
X69005D01*
Y-288820D01*
X68458D01*
Y-288710D01*
X67692D01*
Y-288601D01*
X66925D01*
Y-288491D01*
X66050D01*
Y-288382D01*
X64845D01*
Y-288272D01*
X63641D01*
Y-288163D01*
X62547D01*
Y-288053D01*
D02*
G37*
%LPD*%
G36*
X69771Y-340599D02*
X69881D01*
Y-340708D01*
X69991D01*
Y-341037D01*
X70100D01*
Y-341256D01*
X70209D01*
Y-341365D01*
X70319D01*
Y-341584D01*
X70428D01*
Y-341693D01*
X70538D01*
Y-341803D01*
X70647D01*
Y-342022D01*
X70757D01*
Y-342131D01*
X70866D01*
Y-342350D01*
X70976D01*
Y-342460D01*
X71085D01*
Y-342679D01*
X71195D01*
Y-342788D01*
X71304D01*
Y-343007D01*
X71414D01*
Y-343226D01*
X71523D01*
Y-343445D01*
X71632D01*
Y-343664D01*
X71742D01*
Y-343883D01*
X71851D01*
Y-344102D01*
X71961D01*
Y-344759D01*
X71851D01*
Y-344868D01*
X71742D01*
Y-344978D01*
X71304D01*
Y-344868D01*
X71085D01*
Y-344759D01*
X70976D01*
Y-344540D01*
X70866D01*
Y-344321D01*
X70757D01*
Y-344102D01*
X70647D01*
Y-343992D01*
X70538D01*
Y-343773D01*
X70428D01*
Y-343554D01*
X70319D01*
Y-343336D01*
X70209D01*
Y-343226D01*
X70100D01*
Y-343007D01*
X69991D01*
Y-342898D01*
X69881D01*
Y-342679D01*
X69771D01*
Y-342569D01*
X69662D01*
Y-342460D01*
X69553D01*
Y-342241D01*
X69443D01*
Y-342131D01*
X69334D01*
Y-342022D01*
X69224D01*
Y-341803D01*
X69115D01*
Y-341584D01*
X69005D01*
Y-341365D01*
X68896D01*
Y-340708D01*
X69005D01*
Y-340599D01*
X69115D01*
Y-340489D01*
X69771D01*
Y-340599D01*
D02*
G37*
G36*
X77544Y-358771D02*
X77763D01*
Y-358990D01*
X77872D01*
Y-359537D01*
X77982D01*
Y-362274D01*
X77872D01*
Y-362383D01*
X77763D01*
Y-362493D01*
X77544D01*
Y-362602D01*
X77325D01*
Y-362493D01*
X77215D01*
Y-362383D01*
X77106D01*
Y-362274D01*
X76996D01*
Y-362055D01*
X76887D01*
Y-360851D01*
X76778D01*
Y-358880D01*
X76887D01*
Y-358771D01*
X76996D01*
Y-358661D01*
X77544D01*
Y-358771D01*
D02*
G37*
D10*
X318800Y-94630D02*
G03*
X318800Y-94630I-1250J0D01*
G01*
X401920Y-336600D02*
G03*
X401920Y-336600I-1250J0D01*
G01*
X440670Y-282240D02*
G03*
X440670Y-282240I-1250J0D01*
G01*
X488930Y-301390D02*
G03*
X488930Y-301390I-1250J0D01*
G01*
D11*
X407670Y-291540D02*
G03*
X394970Y-291540I-6350J0D01*
G01*
X292750Y-200030D02*
Y-102230D01*
X342350D01*
Y-200030D02*
Y-102230D01*
X292750Y-200030D02*
X342350D01*
X295270Y-311800D02*
X393070D01*
Y-361400D02*
Y-311800D01*
X295270Y-361400D02*
X393070D01*
X295270D02*
Y-311800D01*
X427820Y-291540D02*
Y-94540D01*
X374820Y-291540D02*
Y-94540D01*
X407670Y-291540D02*
X427820D01*
X374820D02*
X394970D01*
X374820Y-94540D02*
X427820D01*
X214630Y-63500D02*
Y-38100D01*
X113030Y-63500D02*
X214630D01*
X113030Y-38100D02*
X214630D01*
X113030Y-63500D02*
Y-38100D01*
X214630Y-353060D02*
Y-327660D01*
X113030Y-353060D02*
X214630D01*
X113030Y-327660D02*
X214630D01*
X113030Y-353060D02*
Y-327660D01*
X467360Y-116840D02*
Y-114554D01*
Y-169926D02*
Y-167640D01*
Y-116840D02*
X474980D01*
Y-167640D02*
Y-116840D01*
X459740Y-167640D02*
X474980D01*
X459740D02*
Y-116840D01*
X467360D01*
X497840D02*
Y-114554D01*
Y-169926D02*
Y-167640D01*
Y-116840D02*
X505460D01*
Y-167640D02*
Y-116840D01*
X490220Y-167640D02*
X505460D01*
X490220D02*
Y-116840D01*
X497840D01*
X482600Y-271526D02*
Y-269240D01*
Y-218440D02*
Y-216154D01*
X474980Y-269240D02*
X482600D01*
X474980D02*
Y-218440D01*
X490220D01*
Y-269240D02*
Y-218440D01*
X482600Y-269240D02*
X490220D01*
X386080Y-76200D02*
X388366D01*
X332994D02*
X335280D01*
X386080Y-83820D02*
Y-76200D01*
X335280Y-83820D02*
X386080D01*
X335280D02*
Y-68580D01*
X386080D01*
Y-76200D02*
Y-68580D01*
X299720Y-233680D02*
Y-231394D01*
Y-286766D02*
Y-284480D01*
Y-233680D02*
X307340D01*
Y-284480D02*
Y-233680D01*
X292100Y-284480D02*
X307340D01*
X292100D02*
Y-233680D01*
X299720D01*
X331470Y-285496D02*
Y-283210D01*
Y-232410D02*
Y-230124D01*
X323850Y-283210D02*
X331470D01*
X323850D02*
Y-232410D01*
X339090D01*
Y-283210D02*
Y-232410D01*
X331470Y-283210D02*
X339090D01*
X457200Y-52070D02*
Y-26670D01*
X355600Y-52070D02*
X457200D01*
X355600Y-26670D02*
X457200D01*
X355600Y-52070D02*
Y-26670D01*
X20320Y-135890D02*
X45720D01*
Y-237490D02*
Y-135890D01*
X20320Y-237490D02*
Y-135890D01*
Y-237490D02*
X45720D01*
X408780Y-349890D02*
X515780D01*
X408780Y-354890D02*
X515780D01*
X408780Y-307890D02*
X515780D01*
Y-354890D02*
Y-307890D01*
X408780Y-354890D02*
Y-307890D01*
D12*
X420820Y-281540D02*
G03*
X420820Y-281540I-3000J0D01*
G01*
D13*
X120094Y-357337D02*
Y-362002D01*
X122427Y-364334D01*
X124759Y-362002D01*
Y-357337D01*
X127092Y-364334D02*
X129424D01*
X128258D01*
Y-359669D01*
X127092D01*
X132923Y-364334D02*
Y-359669D01*
X136422D01*
X137588Y-360835D01*
Y-364334D01*
X151584Y-358503D02*
X150418Y-357337D01*
X148085D01*
X146919Y-358503D01*
Y-363168D01*
X148085Y-364334D01*
X150418D01*
X151584Y-363168D01*
Y-360835D01*
X149251D01*
X153917Y-364334D02*
Y-357337D01*
X158582Y-364334D01*
Y-357337D01*
X160914D02*
Y-364334D01*
X164413D01*
X165579Y-363168D01*
Y-358503D01*
X164413Y-357337D01*
X160914D01*
X179575Y-358503D02*
X178409Y-357337D01*
X176076D01*
X174910Y-358503D01*
Y-359669D01*
X176076Y-360835D01*
X178409D01*
X179575Y-362002D01*
Y-363168D01*
X178409Y-364334D01*
X176076D01*
X174910Y-363168D01*
X181908Y-360835D02*
X186573D01*
X200568Y-358503D02*
X199402Y-357337D01*
X197069D01*
X195903Y-358503D01*
Y-359669D01*
X197069Y-360835D01*
X199402D01*
X200568Y-362002D01*
Y-363168D01*
X199402Y-364334D01*
X197069D01*
X195903Y-363168D01*
X202901Y-360835D02*
X207566D01*
X205233Y-358503D02*
Y-363168D01*
X456550Y-23819D02*
Y-19154D01*
X454218Y-16821D01*
X451885Y-19154D01*
Y-23819D01*
X444888Y-22653D02*
X446054Y-23819D01*
X448386D01*
X449553Y-22653D01*
Y-17988D01*
X448386Y-16821D01*
X446054D01*
X444888Y-17988D01*
X437890Y-22653D02*
X439056Y-23819D01*
X441389D01*
X442555Y-22653D01*
Y-17988D01*
X441389Y-16821D01*
X439056D01*
X437890Y-17988D01*
X423894Y-22653D02*
X425061Y-23819D01*
X427393D01*
X428559Y-22653D01*
Y-17988D01*
X427393Y-16821D01*
X425061D01*
X423894Y-17988D01*
Y-20320D01*
X426227D01*
X421562Y-16821D02*
Y-23819D01*
X416897Y-16821D01*
Y-23819D01*
X414564D02*
Y-16821D01*
X411065D01*
X409899Y-17988D01*
Y-22653D01*
X411065Y-23819D01*
X414564D01*
X400569D02*
Y-19154D01*
X398236Y-16821D01*
X395903Y-19154D01*
Y-23819D01*
X393571D02*
Y-16821D01*
X390072D01*
X388906Y-17988D01*
Y-22653D01*
X390072Y-23819D01*
X393571D01*
X386573D02*
Y-16821D01*
X383074D01*
X381908Y-17988D01*
Y-22653D01*
X383074Y-23819D01*
X386573D01*
X371411Y-16821D02*
X369079D01*
X367912Y-17988D01*
Y-20320D01*
X369079Y-21486D01*
X371411D01*
X372578Y-20320D01*
Y-17988D01*
X371411Y-16821D01*
X365580Y-21486D02*
Y-17988D01*
X364413Y-16821D01*
X360915D01*
Y-21486D01*
X357416Y-22653D02*
Y-21486D01*
X358582D01*
X356249D01*
X357416D01*
Y-17988D01*
X356249Y-16821D01*
X119031Y-28147D02*
X117865Y-26981D01*
X115533D01*
X114366Y-28147D01*
Y-32813D01*
X115533Y-33979D01*
X117865D01*
X119031Y-32813D01*
Y-30480D01*
X116699D01*
X121364Y-33979D02*
Y-26981D01*
X126029Y-33979D01*
Y-26981D01*
X128362D02*
Y-33979D01*
X131861D01*
X133027Y-32813D01*
Y-28147D01*
X131861Y-26981D01*
X128362D01*
X142357D02*
Y-31646D01*
X144690Y-33979D01*
X147022Y-31646D01*
Y-26981D01*
X150521Y-33979D02*
X152854D01*
X154020Y-32813D01*
Y-30480D01*
X152854Y-29314D01*
X150521D01*
X149355Y-30480D01*
Y-32813D01*
X150521Y-33979D01*
X156353Y-29314D02*
Y-32813D01*
X157519Y-33979D01*
X161018D01*
Y-29314D01*
X164517Y-28147D02*
Y-29314D01*
X163351D01*
X165683D01*
X164517D01*
Y-32813D01*
X165683Y-33979D01*
X180845Y-28147D02*
X179679Y-26981D01*
X177346D01*
X176180Y-28147D01*
Y-32813D01*
X177346Y-33979D01*
X179679D01*
X180845Y-32813D01*
Y-30480D01*
X178512D01*
X183178Y-33979D02*
Y-26981D01*
X187843Y-33979D01*
Y-26981D01*
X190175D02*
Y-33979D01*
X193674D01*
X194841Y-32813D01*
Y-28147D01*
X193674Y-26981D01*
X190175D01*
X204171D02*
Y-31646D01*
X206503Y-33979D01*
X208836Y-31646D01*
Y-26981D01*
X211168Y-30480D02*
X215834D01*
D14*
X7621Y-127654D02*
X12700D01*
X15239Y-130193D01*
X12700Y-132732D01*
X7621D01*
X11430D01*
Y-127654D01*
X13969Y-140350D02*
X15239Y-139080D01*
Y-136541D01*
X13969Y-135272D01*
X8891D01*
X7621Y-136541D01*
Y-139080D01*
X8891Y-140350D01*
X11430D01*
Y-137811D01*
X7621Y-142889D02*
X15239D01*
X7621Y-147968D01*
X15239D01*
Y-150507D02*
X7621D01*
Y-154316D01*
X8891Y-155585D01*
X13969D01*
X15239Y-154316D01*
Y-150507D01*
Y-165742D02*
X10160D01*
X7621Y-168281D01*
X10160Y-170820D01*
X15239D01*
X7621Y-174629D02*
Y-177168D01*
X8891Y-178438D01*
X11430D01*
X12700Y-177168D01*
Y-174629D01*
X11430Y-173359D01*
X8891D01*
X7621Y-174629D01*
X12700Y-180977D02*
X8891D01*
X7621Y-182246D01*
Y-186055D01*
X12700D01*
X13969Y-189864D02*
X12700D01*
Y-188594D01*
Y-191134D01*
Y-189864D01*
X8891D01*
X7621Y-191134D01*
X13969Y-207638D02*
X15239Y-206369D01*
Y-203829D01*
X13969Y-202560D01*
X8891D01*
X7621Y-203829D01*
Y-206369D01*
X8891Y-207638D01*
X11430D01*
Y-205099D01*
X7621Y-210177D02*
X15239D01*
X7621Y-215256D01*
X15239D01*
Y-217795D02*
X7621D01*
Y-221604D01*
X8891Y-222873D01*
X13969D01*
X15239Y-221604D01*
Y-217795D01*
X11430Y-233030D02*
Y-238108D01*
X13969Y-235569D02*
X8891D01*
X15239Y-245726D02*
Y-240648D01*
X11430D01*
X12700Y-243187D01*
Y-244456D01*
X11430Y-245726D01*
X8891D01*
X7621Y-244456D01*
Y-241917D01*
X8891Y-240648D01*
X419618Y-82861D02*
Y-88693D01*
X420785Y-89859D01*
X423117D01*
X424284Y-88693D01*
Y-82861D01*
X426616Y-84027D02*
X427783Y-82861D01*
X430115D01*
X431282Y-84027D01*
Y-85194D01*
X430115Y-86360D01*
X428949D01*
X430115D01*
X431282Y-87526D01*
Y-88693D01*
X430115Y-89859D01*
X427783D01*
X426616Y-88693D01*
X292930Y-98749D02*
Y-91751D01*
X296429D01*
X297595Y-92917D01*
Y-95250D01*
X296429Y-96416D01*
X292930D01*
X295262D02*
X297595Y-98749D01*
X299927Y-91751D02*
Y-96416D01*
X302260Y-98749D01*
X304593Y-96416D01*
Y-91751D01*
X311590D02*
X306925D01*
Y-95250D01*
X309258Y-94084D01*
X310424D01*
X311590Y-95250D01*
Y-97583D01*
X310424Y-98749D01*
X308092D01*
X306925Y-97583D01*
X374210Y-307029D02*
Y-300031D01*
X377709D01*
X378875Y-301197D01*
Y-303530D01*
X377709Y-304696D01*
X374210D01*
X376542D02*
X378875Y-307029D01*
X381207Y-300031D02*
Y-304696D01*
X383540Y-307029D01*
X385873Y-304696D01*
Y-300031D01*
X391704Y-307029D02*
Y-300031D01*
X388205Y-303530D01*
X392870D01*
X320999Y-281797D02*
X314001D01*
Y-278298D01*
X315167Y-277132D01*
X317500D01*
X318666Y-278298D01*
Y-281797D01*
Y-279465D02*
X320999Y-277132D01*
Y-274799D02*
Y-272467D01*
Y-273633D01*
X314001D01*
X315167Y-274799D01*
X320999Y-265469D02*
X314001D01*
X317500Y-268968D01*
Y-264303D01*
X335423Y-65729D02*
Y-58731D01*
X338922D01*
X340088Y-59897D01*
Y-62230D01*
X338922Y-63396D01*
X335423D01*
X337755D02*
X340088Y-65729D01*
X342421D02*
X344753D01*
X343587D01*
Y-58731D01*
X342421Y-59897D01*
X348252D02*
X349418Y-58731D01*
X351751D01*
X352917Y-59897D01*
Y-61064D01*
X351751Y-62230D01*
X350585D01*
X351751D01*
X352917Y-63396D01*
Y-64563D01*
X351751Y-65729D01*
X349418D01*
X348252Y-64563D01*
X479101Y-116983D02*
X486099D01*
Y-120482D01*
X484933Y-121648D01*
X482600D01*
X481434Y-120482D01*
Y-116983D01*
Y-119315D02*
X479101Y-121648D01*
Y-123981D02*
Y-126313D01*
Y-125147D01*
X486099D01*
X484933Y-123981D01*
X479101Y-134477D02*
Y-129812D01*
X483766Y-134477D01*
X484933D01*
X486099Y-133311D01*
Y-130978D01*
X484933Y-129812D01*
X310191Y-234989D02*
X317189D01*
Y-238488D01*
X316023Y-239654D01*
X313690D01*
X312524Y-238488D01*
Y-234989D01*
Y-237322D02*
X310191Y-239654D01*
Y-241987D02*
Y-244319D01*
Y-243153D01*
X317189D01*
X316023Y-241987D01*
X310191Y-247818D02*
Y-250151D01*
Y-248985D01*
X317189D01*
X316023Y-247818D01*
X493071Y-250333D02*
X500069D01*
Y-253832D01*
X498903Y-254998D01*
X496570D01*
X495404Y-253832D01*
Y-250333D01*
Y-252665D02*
X493071Y-254998D01*
Y-257331D02*
Y-259663D01*
Y-258497D01*
X500069D01*
X498903Y-257331D01*
Y-263162D02*
X500069Y-264328D01*
Y-266661D01*
X498903Y-267827D01*
X494237D01*
X493071Y-266661D01*
Y-264328D01*
X494237Y-263162D01*
X498903D01*
X508311Y-154189D02*
X515309D01*
Y-157688D01*
X514143Y-158854D01*
X511810D01*
X510644Y-157688D01*
Y-154189D01*
Y-156521D02*
X508311Y-158854D01*
X509477Y-161186D02*
X508311Y-162353D01*
Y-164685D01*
X509477Y-165851D01*
X514143D01*
X515309Y-164685D01*
Y-162353D01*
X514143Y-161186D01*
X512976D01*
X511810Y-162353D01*
Y-165851D01*
X409433Y-297491D02*
Y-304489D01*
X414098D01*
X416431D02*
Y-297491D01*
X418763Y-299824D01*
X421096Y-297491D01*
Y-304489D01*
X423428Y-297491D02*
X428094D01*
Y-298657D01*
X423428Y-303323D01*
Y-304489D01*
X430426Y-298657D02*
X431593Y-297491D01*
X433925D01*
X435092Y-298657D01*
Y-299824D01*
X433925Y-300990D01*
X435092Y-302156D01*
Y-303323D01*
X433925Y-304489D01*
X431593D01*
X430426Y-303323D01*
Y-302156D01*
X431593Y-300990D01*
X430426Y-299824D01*
Y-298657D01*
X431593Y-300990D02*
X433925D01*
X437424Y-298657D02*
X438590Y-297491D01*
X440923D01*
X442089Y-298657D01*
Y-303323D01*
X440923Y-304489D01*
X438590D01*
X437424Y-303323D01*
Y-298657D01*
X449087Y-297491D02*
X444422D01*
Y-300990D01*
X446754Y-299824D01*
X447921D01*
X449087Y-300990D01*
Y-303323D01*
X447921Y-304489D01*
X445588D01*
X444422Y-303323D01*
M02*
