%FSTAX23Y23*%
%MOIN*%
%SFA1B1*%

%IPPOS*%
%ADD10C,0.019685*%
%ADD11R,0.059055X0.059055*%
%ADD12C,0.059055*%
%ADD13R,0.059055X0.059055*%
%ADD14C,0.047244*%
%ADD15R,0.047244X0.047244*%
%ADD16R,0.047244X0.047244*%
%ADD17C,0.055118*%
%ADD18C,0.062992*%
%ADD19R,0.062992X0.062992*%
%ADD20C,0.050000*%
%LNstrain_copper_signal_bot-1*%
%LPD*%
G36*
X02035Y-0003D02*
Y-01465D01*
X00025*
Y-00025*
X0203*
X02035Y-0003*
G37*
%LNstrain_copper_signal_bot-2*%
%LPC*%
G36*
X01655Y-00115D02*
X01655D01*
Y-0015*
X01689*
Y-00149*
X01686Y-00139*
X01681Y-0013*
X01674Y-00123*
X01665Y-00118*
X01655Y-00115*
G37*
G36*
X01645D02*
X01644D01*
X01634Y-00118*
X01625Y-00123*
X01618Y-0013*
X01613Y-00139*
X0161Y-00149*
Y-0015*
X01645*
Y-00115*
G37*
G36*
X01789Y-00115D02*
X0171D01*
Y-00194*
X01789*
Y-00115*
G37*
G36*
X01555D02*
X01544D01*
X01534Y-00118*
X01525Y-00123*
X01518Y-0013*
X01513Y-00139*
X01513Y-0014*
X01512Y-00141*
X0151Y-0015*
Y-00159*
X01512Y-00168*
X01513Y-00169*
X01513Y-0017*
X01518Y-00179*
X01525Y-00186*
X01534Y-00191*
X01544Y-00194*
X01555*
X01565Y-00191*
X01574Y-00186*
X01581Y-00179*
X01586Y-0017*
X01589Y-0016*
Y-00149*
X01586Y-00139*
X01581Y-0013*
X01574Y-00123*
X01565Y-00118*
X01555Y-00115*
G37*
G36*
X01455D02*
X01444D01*
X01434Y-00118*
X01425Y-00123*
X01418Y-0013*
X01413Y-00139*
X0141Y-00149*
Y-0016*
X01413Y-0017*
X01418Y-00179*
X01425Y-00186*
X01434Y-00191*
X01444Y-00194*
X01455*
X01465Y-00191*
X01474Y-00186*
X01481Y-00179*
X01486Y-0017*
X01489Y-0016*
Y-00149*
X01486Y-00139*
X01481Y-0013*
X01474Y-00123*
X01465Y-00118*
X01455Y-00115*
G37*
G36*
X01689Y-0016D02*
X01655D01*
Y-00194*
X01655*
X01665Y-00191*
X01674Y-00186*
X01681Y-00179*
X01686Y-0017*
X01689Y-0016*
Y-0016*
G37*
G36*
X01645D02*
X0161D01*
Y-0016*
X01613Y-0017*
X01618Y-00179*
X01625Y-00186*
X01634Y-00191*
X01644Y-00194*
X01645*
Y-0016*
G37*
G36*
X00534Y-0016D02*
X005D01*
Y-00195*
X00534*
Y-0016*
G37*
G36*
X0049D02*
X00455D01*
Y-00195*
X0049*
Y-0016*
G37*
G36*
X00534Y-00205D02*
X005D01*
Y-00239*
X00534*
Y-00205*
G37*
G36*
X0049D02*
X00455D01*
Y-00239*
X0049*
Y-00205*
G37*
G36*
X0122Y-00104D02*
X00715D01*
X00707Y-00106*
X007Y-0011*
X0068Y-0013*
X00676Y-00137*
X00674Y-00145*
Y-00166*
X0067Y-00168*
X00663Y-00175*
X00658Y-00184*
X00655Y-00194*
Y-00205*
X00658Y-00215*
X00663Y-00224*
X0067Y-00231*
X00679Y-00236*
X00689Y-00239*
X007*
X0071Y-00236*
X00719Y-00231*
X00726Y-00224*
X00731Y-00215*
X00734Y-00205*
Y-00194*
X00731Y-00184*
X00726Y-00175*
X00719Y-00168*
X00715Y-00166*
Y-00153*
X00723Y-00145*
X01211*
X01249Y-00183*
Y-00268*
X01247Y-0027*
X0124Y-00277*
X01235Y-00285*
X01232Y-00295*
Y-00304*
X01235Y-00314*
X0124Y-00322*
X01247Y-00329*
X01255Y-00334*
X01255Y-00334*
X01255Y-00339*
X00953*
X0083Y-00217*
X00831Y-00215*
X00834Y-00205*
Y-00194*
X00831Y-00184*
X00826Y-00175*
X00819Y-00168*
X0081Y-00163*
X008Y-0016*
X00789*
X00779Y-00163*
X0077Y-00168*
X00763Y-00175*
X00758Y-00184*
X00755Y-00194*
Y-00205*
X00758Y-00215*
X00763Y-00224*
X0077Y-00231*
X00779Y-00236*
X00789Y-00239*
X00795*
X0093Y-00374*
X00937Y-00378*
X00945Y-0038*
X01809*
X01812Y-00385*
X0181Y-00387*
X01805Y-00395*
X01802Y-00405*
Y-00414*
X01805Y-00424*
X0181Y-00432*
X01817Y-00439*
X01825Y-00444*
X01835Y-00447*
X01844*
X01854Y-00444*
X01862Y-00439*
X01869Y-00432*
X01874Y-00424*
X01874Y-00424*
X01879Y-00424*
Y-00486*
X01825Y-0054*
X01821Y-00547*
X01819Y-00555*
Y-00655*
X01815Y-00656*
X01811Y-00653*
X01805Y-00648*
X01797Y-00647*
X01767*
X01766Y-00644*
X01761Y-00635*
X01754Y-00628*
X01745Y-00623*
X01735Y-0062*
X01724*
X01714Y-00623*
X01705Y-00628*
X01698Y-00635*
X01693Y-00644*
X0169Y-00654*
Y-00665*
X01693Y-00675*
X01698Y-00684*
X01705Y-00691*
X01714Y-00696*
X01724Y-00699*
X01735*
X01745Y-00696*
X01754Y-00691*
X01758Y-00687*
X01789*
X01803Y-00701*
X01802Y-00705*
Y-00714*
X01805Y-00724*
X0181Y-00732*
X01817Y-00739*
X01825Y-00744*
X01835Y-00747*
X01844*
X01854Y-00744*
X01862Y-00739*
X01869Y-00732*
X01874Y-00724*
X01877Y-00714*
Y-00705*
X01874Y-00695*
X01869Y-00687*
X01862Y-0068*
X0186Y-00678*
Y-00563*
X01914Y-00509*
X01918Y-00502*
X0192Y-00495*
Y-00425*
X01925Y-00424*
X01929Y-00433*
X01936Y-0044*
X01945Y-00444*
X01955Y-00447*
Y-0041*
Y-00372*
X01945Y-00375*
X01936Y-00379*
X01929Y-00386*
X01925Y-00395*
X0192Y-00394*
Y-00311*
X01918Y-00303*
X01914Y-00297*
X01902Y-00285*
X01896Y-00281*
X01888Y-00279*
X01601*
X01599Y-00277*
X01592Y-0027*
X01584Y-00265*
X01574Y-00262*
X01565*
X01555Y-00265*
X01547Y-0027*
X0154Y-00277*
X01535Y-00285*
X01532Y-00295*
Y-00304*
X01535Y-00314*
X0154Y-00322*
X01547Y-00329*
X01555Y-00334*
X01555Y-00334*
X01555Y-00339*
X01284*
X01284Y-00334*
X01284Y-00334*
X01292Y-00329*
X01299Y-00322*
X01304Y-00314*
X01307Y-00304*
Y-00295*
X01304Y-00285*
X01299Y-00277*
X01292Y-0027*
X0129Y-00268*
Y-00175*
X01288Y-00167*
X01284Y-0016*
X01234Y-0011*
X01227Y-00106*
X0122Y-00104*
G37*
G36*
X01965Y-00372D02*
Y-00405D01*
X01997*
X01994Y-00395*
X0199Y-00386*
X01983Y-00379*
X01974Y-00375*
X01965Y-00372*
G37*
G36*
X01997Y-00415D02*
X01965D01*
Y-00447*
X01974Y-00444*
X01983Y-0044*
X0199Y-00433*
X01994Y-00424*
X01997Y-00415*
G37*
G36*
X01283Y-00461D02*
X01216D01*
Y-00528*
X01283*
Y-00461*
G37*
G36*
X01435Y-0042D02*
X01424D01*
X01414Y-00423*
X01405Y-00428*
X01398Y-00435*
X01393Y-00444*
X0139Y-00454*
Y-00465*
X01393Y-00475*
X01398Y-00484*
X01405Y-00491*
X01409Y-00493*
Y-00526*
X01405Y-00528*
X01398Y-00535*
X01396Y-00539*
X01345*
X01337Y-00541*
X0133Y-00545*
X01301Y-00574*
X01277*
X01276Y-00574*
X0127Y-00568*
X01262Y-00563*
X01254Y-00561*
X01245*
X01237Y-00563*
X01229Y-00568*
X01223Y-00574*
X01218Y-00582*
X01216Y-0059*
Y-00599*
X01218Y-00607*
X01223Y-00615*
X01229Y-00621*
X01237Y-00626*
X01245Y-00628*
X01254*
X01262Y-00626*
X0127Y-00621*
X01276Y-00615*
X01277Y-00615*
X0131*
X01317Y-00613*
X01324Y-00609*
X01353Y-0058*
X01396*
X01398Y-00584*
X01405Y-00591*
X01414Y-00596*
X01424Y-00599*
X01435*
X01445Y-00596*
X01454Y-00591*
X01461Y-00584*
X01466Y-00575*
X01469Y-00565*
Y-00554*
X01466Y-00544*
X01461Y-00535*
X01454Y-00528*
X0145Y-00526*
Y-00493*
X01454Y-00491*
X01461Y-00484*
X01466Y-00475*
X01469Y-00465*
Y-00454*
X01466Y-00444*
X01461Y-00435*
X01454Y-00428*
X01445Y-00423*
X01435Y-0042*
G37*
G36*
X006Y-0016D02*
X00589D01*
X00579Y-00163*
X0057Y-00168*
X00563Y-00175*
X00558Y-00184*
X00555Y-00194*
Y-00205*
X00558Y-00215*
X00563Y-00224*
X0057Y-00231*
X00574Y-00233*
Y-0082*
X00576Y-00827*
X0058Y-00834*
X01145Y-01399*
X01146Y-01399*
X01145Y-01404*
X00523*
X00515Y-01396*
Y-01379*
X00534*
Y-013*
X00515*
Y-0125*
X00513Y-01242*
X00509Y-01235*
X00168Y-00894*
X00169Y-0089*
Y-00879*
X00166Y-00869*
X00161Y-0086*
X00154Y-00853*
X00145Y-00848*
X00135Y-00845*
X00124*
X00114Y-00848*
X00105Y-00853*
X00098Y-0086*
X00093Y-00869*
X0009Y-00879*
Y-0089*
X00093Y-009*
X00098Y-00909*
X00105Y-00916*
X00114Y-00921*
X00124Y-00924*
X00135*
X00139Y-00923*
X00474Y-01258*
Y-013*
X00455*
Y-01379*
X00474*
Y-01405*
X00476Y-01412*
X0048Y-01419*
X005Y-01439*
X00507Y-01443*
X00515Y-01445*
X0164*
X01647Y-01443*
X01654Y-01439*
X01733Y-0136*
X01737Y-01353*
X01739Y-01346*
Y-01321*
X01745Y-01318*
X01753Y-0131*
X01758Y-013*
X01761Y-0129*
Y-01279*
X01758Y-01269*
X01753Y-01259*
X01745Y-01251*
X01735Y-01246*
X01725Y-01243*
X01714*
X01704Y-01246*
X01694Y-01251*
X01686Y-01259*
X01681Y-01269*
X0168Y-01274*
X01675Y-01273*
Y-0088*
X01696*
X01698Y-00884*
X01705Y-00891*
X01714Y-00896*
X01724Y-00899*
X01735*
X01745Y-00896*
X01754Y-00891*
X01761Y-00884*
X01766Y-00875*
X01769Y-00865*
Y-00854*
X01766Y-00844*
X01761Y-00835*
X01754Y-00828*
X01745Y-00823*
X01735Y-0082*
X01724*
X01714Y-00823*
X01705Y-00828*
X01698Y-00835*
X01696Y-00839*
X01666*
X01658Y-00841*
X01652Y-00845*
X0164Y-00857*
X01636Y-00863*
X01635Y-0087*
X0163Y-0087*
Y-00633*
X01683Y-0058*
X01696*
X01698Y-00584*
X01705Y-00591*
X01714Y-00596*
X01724Y-00599*
X01735*
X01745Y-00596*
X01754Y-00591*
X01761Y-00584*
X01766Y-00575*
X01769Y-00565*
Y-00554*
X01766Y-00544*
X01761Y-00535*
X01754Y-00528*
X0175Y-00526*
Y-00493*
X01754Y-00491*
X01761Y-00484*
X01766Y-00475*
X01769Y-00465*
Y-00454*
X01766Y-00444*
X01761Y-00435*
X01754Y-00428*
X01745Y-00423*
X01735Y-0042*
X01724*
X01714Y-00423*
X01705Y-00428*
X01698Y-00435*
X01693Y-00444*
X0169Y-00454*
Y-00465*
X01693Y-00475*
X01698Y-00484*
X01705Y-00491*
X01709Y-00493*
Y-00526*
X01705Y-00528*
X01698Y-00535*
X01696Y-00539*
X01675*
X01667Y-00541*
X0166Y-00545*
X01595Y-0061*
X01591Y-00617*
X01589Y-00625*
Y-01016*
X0134Y-01265*
X01336Y-01272*
X01334Y-0128*
Y-01297*
X01334Y-01298*
X01328Y-01304*
X01323Y-01312*
X01321Y-0132*
Y-01329*
X01323Y-01337*
X01328Y-01345*
X01334Y-01351*
X01342Y-01356*
X0135Y-01358*
X01359*
X01367Y-01356*
X01375Y-01351*
X01381Y-01345*
X01386Y-01337*
X01388Y-01329*
Y-0132*
X01386Y-01312*
X01381Y-01304*
X01375Y-01298*
X01375Y-01297*
Y-01288*
X01624Y-01039*
X01628Y-01032*
X01629Y-01025*
X01634Y-01026*
Y-01311*
X01581Y-01364*
X01168*
X00615Y-00811*
Y-00233*
X00619Y-00231*
X00626Y-00224*
X00631Y-00215*
X00634Y-00205*
Y-00194*
X00631Y-00184*
X00626Y-00175*
X00619Y-00168*
X0061Y-00163*
X006Y-0016*
G37*
G36*
X01435Y-0062D02*
X01424D01*
X01414Y-00623*
X01405Y-00628*
X01398Y-00635*
X01393Y-00644*
X0139Y-00654*
Y-00665*
X01393Y-00675*
X01398Y-00684*
X01405Y-00691*
X01414Y-00696*
X01424Y-00699*
X01435*
X01445Y-00696*
X01454Y-00691*
X01461Y-00684*
X01466Y-00675*
X01469Y-00665*
Y-00654*
X01466Y-00644*
X01461Y-00635*
X01454Y-00628*
X01445Y-00623*
X01435Y-0062*
G37*
G36*
X00135Y-00645D02*
X00124D01*
X00114Y-00648*
X00105Y-00653*
X00098Y-0066*
X00093Y-00669*
X0009Y-00679*
Y-0069*
X00093Y-007*
X00098Y-00709*
X00105Y-00716*
X00114Y-00721*
X00124Y-00724*
X00135*
X00145Y-00721*
X00154Y-00716*
X00161Y-00709*
X00166Y-007*
X00169Y-0069*
Y-00679*
X00166Y-00669*
X00161Y-0066*
X00154Y-00653*
X00145Y-00648*
X00135Y-00645*
G37*
G36*
X01964Y-00672D02*
X01955D01*
X01945Y-00675*
X01937Y-0068*
X0193Y-00687*
X01925Y-00695*
X01922Y-00705*
Y-00714*
X01925Y-00724*
X0193Y-00732*
X01933Y-00736*
Y-00748*
X01908Y-00773*
X01904Y-00772*
X01895*
X01885Y-00775*
X01877Y-0078*
X0187Y-00787*
X01865Y-00795*
X01862Y-00805*
Y-00814*
X01865Y-00824*
X0187Y-00832*
X01874Y-00837*
Y-00881*
X01816Y-00939*
X01763*
X01761Y-00935*
X01754Y-00928*
X01745Y-00923*
X01735Y-0092*
X01724*
X01714Y-00923*
X01705Y-00928*
X01698Y-00935*
X01693Y-00944*
X0169Y-00954*
Y-00965*
X01693Y-00975*
X01698Y-00984*
X01705Y-00991*
X01714Y-00996*
X01724Y-00999*
X01735*
X01745Y-00996*
X01754Y-00991*
X01761Y-00984*
X01763Y-0098*
X01825*
X01832Y-00978*
X01839Y-00974*
X01909Y-00904*
X01913Y-00897*
X01915Y-0089*
Y-00844*
X01922Y-00839*
X01929Y-00832*
X01934Y-00824*
X01937Y-00814*
Y-00805*
X01936Y-00801*
X01967Y-0077*
X01971Y-00764*
X01973Y-00756*
Y-00745*
X01974Y-00744*
X01982Y-00739*
X01989Y-00732*
X01994Y-00724*
X01997Y-00714*
Y-00705*
X01994Y-00695*
X01989Y-00687*
X01982Y-0068*
X01974Y-00675*
X01964Y-00672*
G37*
G36*
X00135Y-00745D02*
X00135D01*
Y-0078*
X00169*
Y-00779*
X00166Y-00769*
X00161Y-0076*
X00154Y-00753*
X00145Y-00748*
X00135Y-00745*
G37*
G36*
X00125D02*
X00124D01*
X00114Y-00748*
X00105Y-00753*
X00098Y-0076*
X00093Y-00769*
X0009Y-00779*
Y-0078*
X00125*
Y-00745*
G37*
G36*
X01735Y-0072D02*
X01724D01*
X01714Y-00723*
X01705Y-00728*
X01698Y-00735*
X01693Y-00744*
X0169Y-00754*
Y-00765*
X01693Y-00775*
X01698Y-00784*
X01705Y-00791*
X01714Y-00796*
X01724Y-00799*
X01735*
X01745Y-00796*
X01754Y-00791*
X01761Y-00784*
X01766Y-00775*
X01769Y-00765*
Y-00754*
X01766Y-00744*
X01761Y-00735*
X01754Y-00728*
X01745Y-00723*
X01735Y-0072*
G37*
G36*
X01435D02*
X01424D01*
X01414Y-00723*
X01405Y-00728*
X01398Y-00735*
X01393Y-00744*
X0139Y-00754*
Y-00765*
X01393Y-00775*
X01398Y-00784*
X01405Y-00791*
X01414Y-00796*
X01424Y-00799*
X01435*
X01445Y-00796*
X01454Y-00791*
X01461Y-00784*
X01466Y-00775*
X01469Y-00765*
Y-00754*
X01466Y-00744*
X01461Y-00735*
X01454Y-00728*
X01445Y-00723*
X01435Y-0072*
G37*
G36*
X00169Y-0079D02*
X00135D01*
Y-00824*
X00135*
X00145Y-00821*
X00154Y-00816*
X00161Y-00809*
X00166Y-008*
X00169Y-0079*
Y-0079*
G37*
G36*
X00125D02*
X0009D01*
Y-0079*
X00093Y-008*
X00098Y-00809*
X00105Y-00816*
X00114Y-00821*
X00124Y-00824*
X00125*
Y-0079*
G37*
G36*
X01254Y-0066D02*
X01245D01*
X01236Y-00662*
X01228Y-00667*
X01222Y-00673*
X01217Y-00681*
X01215Y-0069*
Y-00699*
X01217Y-00708*
X01222Y-00716*
X01228Y-00722*
X01236Y-00727*
X01245Y-00729*
X01254*
X01256Y-00729*
X01284Y-00758*
Y-00833*
X01282Y-00835*
X01275Y-00842*
X0127Y-0085*
X01267Y-0086*
Y-00869*
X0127Y-00879*
X01275Y-00887*
X01282Y-00894*
X0129Y-00899*
X013Y-00902*
X01309*
X01319Y-00899*
X01327Y-00894*
X01334Y-00887*
X01338Y-00882*
X01397*
X01398Y-00884*
X01405Y-00891*
X01414Y-00896*
X01424Y-00899*
X01435*
X01445Y-00896*
X01454Y-00891*
X01461Y-00884*
X01466Y-00875*
X01469Y-00865*
Y-00854*
X01466Y-00844*
X01461Y-00835*
X01454Y-00828*
X01445Y-00823*
X01435Y-0082*
X01424*
X01414Y-00823*
X01405Y-00828*
X01398Y-00835*
X01394Y-00842*
X01335*
X01334Y-00842*
X01327Y-00835*
X01325Y-00833*
Y-0075*
X01323Y-00742*
X01319Y-00735*
X01284Y-00701*
X01284Y-00699*
Y-0069*
X01282Y-00681*
X01277Y-00673*
X01271Y-00667*
X01263Y-00662*
X01254Y-0066*
G37*
G36*
X01184Y-00832D02*
X01175D01*
X01165Y-00835*
X01157Y-0084*
X0115Y-00847*
X01145Y-00855*
X01142Y-00865*
Y-00874*
X01143Y-00878*
X01085Y-00935*
X01081Y-00942*
X01079Y-0095*
Y-01255*
X01081Y-01262*
X01085Y-01269*
X01155Y-01339*
X01162Y-01343*
X0117Y-01345*
X01227*
X01228Y-01345*
X01234Y-01351*
X01242Y-01356*
X0125Y-01358*
X01259*
X01267Y-01356*
X01275Y-01351*
X01281Y-01345*
X01286Y-01337*
X01288Y-01329*
Y-0132*
X01286Y-01312*
X01281Y-01304*
X01275Y-01298*
X01267Y-01293*
X01259Y-01291*
X0125*
X01242Y-01293*
X01234Y-01298*
X01228Y-01304*
X01227Y-01304*
X01178*
X0112Y-01246*
Y-00958*
X01157Y-0092*
X01164Y-00921*
X01166Y-00924*
X01215Y-00974*
X01222Y-00978*
X0123Y-0098*
X01396*
X01398Y-00984*
X01405Y-00991*
X01414Y-00996*
X01424Y-00999*
X01435*
X01445Y-00996*
X01454Y-00991*
X01461Y-00984*
X01466Y-00975*
X01469Y-00965*
Y-00954*
X01466Y-00944*
X01461Y-00935*
X01454Y-00928*
X01445Y-00923*
X01435Y-0092*
X01424*
X01414Y-00923*
X01405Y-00928*
X01398Y-00935*
X01396Y-00939*
X01238*
X01203Y-00905*
X01202Y-00899*
X01209Y-00892*
X01214Y-00884*
X01217Y-00874*
Y-00865*
X01214Y-00855*
X01209Y-00847*
X01202Y-0084*
X01194Y-00835*
X01184Y-00832*
G37*
G36*
X01435Y-0102D02*
X01424D01*
X01414Y-01023*
X01405Y-01028*
X01398Y-01035*
X01393Y-01044*
X01391Y-01051*
X01388Y-01053*
X01313Y-01128*
X01309Y-01127*
X013*
X0129Y-0113*
X01282Y-01135*
X01275Y-01142*
X01271Y-01147*
X0121*
X01209Y-01147*
X01202Y-0114*
X01194Y-01135*
X01184Y-01132*
X01175*
X01165Y-01135*
X01157Y-0114*
X0115Y-01147*
X01145Y-01155*
X01142Y-01165*
Y-01174*
X01145Y-01184*
X0115Y-01192*
X01157Y-01199*
X01165Y-01204*
X01175Y-01207*
X01184*
X01194Y-01204*
X01202Y-01199*
X01209Y-01192*
X01213Y-01187*
X01274*
X01275Y-01187*
X01282Y-01194*
X0129Y-01199*
X013Y-01202*
X01309*
X01319Y-01199*
X01327Y-01194*
X01334Y-01187*
X01339Y-01179*
X01342Y-01169*
Y-0116*
X01341Y-01156*
X01406Y-01091*
X01414Y-01096*
X01424Y-01099*
X01435*
X01445Y-01096*
X01454Y-01091*
X01461Y-01084*
X01466Y-01075*
X01469Y-01065*
Y-01054*
X01466Y-01044*
X01461Y-01035*
X01454Y-01028*
X01445Y-01023*
X01435Y-0102*
G37*
G36*
X01769D02*
X0169D01*
Y-01099*
X01769*
Y-0108*
X01841*
X01863Y-01101*
X01862Y-01105*
Y-01114*
X01865Y-01124*
X0187Y-01132*
X01877Y-01139*
X01885Y-01144*
X01895Y-01147*
X01904*
X01914Y-01144*
X01922Y-01139*
X01929Y-01132*
X01934Y-01124*
X01937Y-01114*
Y-01105*
X01934Y-01095*
X01929Y-01087*
X01922Y-0108*
X01914Y-01075*
X01904Y-01072*
X01895*
X01891Y-01073*
X01864Y-01045*
X01857Y-01041*
X0185Y-01039*
X01769*
Y-0102*
G37*
G36*
X01961Y-01243D02*
X01925D01*
Y-0128*
X01961*
Y-01243*
G37*
G36*
X01915D02*
X01878D01*
Y-0128*
X01915*
Y-01243*
G37*
G36*
X01825Y-01243D02*
X01814D01*
X01804Y-01246*
X01794Y-01251*
X01786Y-01259*
X01781Y-01269*
X01778Y-01279*
Y-0129*
X01781Y-013*
X01786Y-0131*
X01794Y-01318*
X01804Y-01323*
X01814Y-01326*
X01825*
X01835Y-01323*
X01845Y-01318*
X01853Y-0131*
X01858Y-013*
X01861Y-0129*
Y-01279*
X01858Y-01269*
X01853Y-01259*
X01845Y-01251*
X01835Y-01246*
X01825Y-01243*
G37*
G36*
X01961Y-0129D02*
X01925D01*
Y-01326*
X01961*
Y-0129*
G37*
G36*
X01915D02*
X01878D01*
Y-01326*
X01915*
Y-0129*
G37*
G36*
X006Y-013D02*
X006D01*
Y-01335*
X00634*
Y-01334*
X00631Y-01324*
X00626Y-01315*
X00619Y-01308*
X0061Y-01303*
X006Y-013*
G37*
G36*
X0059D02*
X00589D01*
X00579Y-01303*
X0057Y-01308*
X00563Y-01315*
X00558Y-01324*
X00555Y-01334*
Y-01335*
X0059*
Y-013*
G37*
G36*
X01488Y-01291D02*
X01421D01*
Y-01358*
X01488*
Y-01291*
G37*
G36*
X008Y-013D02*
X00789D01*
X00779Y-01303*
X0077Y-01308*
X00763Y-01315*
X00758Y-01324*
X00755Y-01334*
Y-01345*
X00758Y-01355*
X00763Y-01364*
X0077Y-01371*
X00779Y-01376*
X00789Y-01379*
X008*
X0081Y-01376*
X00819Y-01371*
X00826Y-01364*
X00831Y-01355*
X00834Y-01345*
Y-01334*
X00831Y-01324*
X00826Y-01315*
X00819Y-01308*
X0081Y-01303*
X008Y-013*
G37*
G36*
X00169Y-00545D02*
X0009D01*
Y-00624*
X0014*
X00469Y-00953*
Y-01135*
X00471Y-01142*
X00475Y-01149*
X00656Y-0133*
X00655Y-01334*
Y-01345*
X00658Y-01355*
X00663Y-01364*
X0067Y-01371*
X00679Y-01376*
X00689Y-01379*
X007*
X0071Y-01376*
X00719Y-01371*
X00726Y-01364*
X00731Y-01355*
X00734Y-01345*
Y-01334*
X00731Y-01324*
X00726Y-01315*
X00719Y-01308*
X0071Y-01303*
X007Y-013*
X00689*
X00685Y-01301*
X0051Y-01126*
Y-00945*
X00508Y-00937*
X00504Y-0093*
X00169Y-00595*
Y-00545*
G37*
G36*
X00634Y-01345D02*
X006D01*
Y-01379*
X006*
X0061Y-01376*
X00619Y-01371*
X00626Y-01364*
X00631Y-01355*
X00634Y-01345*
Y-01345*
G37*
G36*
X0059D02*
X00555D01*
Y-01345*
X00558Y-01355*
X00563Y-01364*
X0057Y-01371*
X00579Y-01376*
X00589Y-01379*
X0059*
Y-01345*
G37*
%LNstrain_copper_signal_bot-3*%
%LPD*%
G36*
X01879Y-00395D02*
X01874Y-00395D01*
X01874Y-00395*
X01869Y-00387*
X01862Y-0038*
X01856Y-00376*
Y-00372*
Y-00372*
X01855Y-00368*
X01854Y-00364*
Y-00364*
Y-00364*
X01852Y-00361*
X0185Y-00358*
X0185*
X0185Y-00358*
X01837Y-00345*
X01833Y-00343*
X01831Y-00341*
X01831Y-00341*
X01827Y-0034*
X01823Y-00339*
X01584*
X01584Y-00334*
X01584Y-00334*
X01592Y-00329*
X01599Y-00322*
X01601Y-0032*
X01879*
Y-00395*
G37*
G36*
X01681Y-013D02*
X01686Y-0131D01*
X01694Y-01318*
X01698Y-0132*
Y-01337*
X01631Y-01404*
X01604*
X01603Y-01399*
X01604Y-01399*
X01669Y-01334*
X01673Y-01327*
X01675Y-0132*
Y-01296*
X0168Y-01295*
X01681Y-013*
G37*
G54D10*
X0173Y-0056D02*
Y-0046D01*
X00945Y-0036D02*
X01823D01*
X01545Y-00155D02*
X0155D01*
X0157Y-003D02*
X01888D01*
X019Y-00311*
Y-00495D02*
Y-00311D01*
X0184Y-0071D02*
Y-00555D01*
X019Y-00495*
X0161Y-01025D02*
Y-00625D01*
X01675Y-0056D02*
X0173D01*
X0161Y-00625D02*
X01675Y-0056D01*
X01355Y-0128D02*
X0161Y-01025D01*
X01355Y-01325D02*
Y-0128D01*
X00595Y-0082D02*
Y-002D01*
X00695Y-00145D02*
X00715Y-00125D01*
X00695Y-002D02*
Y-00145D01*
X00715Y-00125D02*
X0122D01*
X00595Y-0082D02*
X0116Y-01385D01*
X0159*
X01655Y-00871D02*
X01666Y-0086D01*
X0173*
X01655Y-0132D02*
Y-00871D01*
X0159Y-01385D02*
X01655Y-0132D01*
X00795Y-0021D02*
X00945Y-0036D01*
X01836Y-00406D02*
Y-00372D01*
Y-00406D02*
X0184Y-0041D01*
X00795Y-0021D02*
Y-002D01*
X01823Y-0036D02*
X01836Y-00372D01*
X0185Y-0106D02*
X019Y-0111D01*
X0173Y-0106D02*
X0185D01*
X01953Y-00756D02*
Y-00716D01*
X0196Y-0071*
X019Y-0081D02*
X01953Y-00756D01*
X01895Y-00815D02*
X019Y-0081D01*
X01895Y-0089D02*
Y-00815D01*
X0173Y-0096D02*
X01825D01*
X01895Y-0089*
X01797Y-00667D02*
X0184Y-0071D01*
X0173Y-0066D02*
X01737Y-00667D01*
X01797*
X0122Y-00125D02*
X0127Y-00175D01*
Y-003D02*
Y-00175D01*
X0143Y-0056D02*
Y-0046D01*
X01345Y-0056D02*
X0143D01*
X0125Y-00595D02*
X0131D01*
X01345Y-0056*
X0125Y-00695D02*
X01305Y-0075D01*
Y-00865D02*
Y-0075D01*
X01307Y-00862D02*
X01427D01*
X0143Y-0086*
X01305Y-00865D02*
X01307Y-00862D01*
X0118Y-0091D02*
Y-0087D01*
X0118Y-0087D02*
X0118Y-0087D01*
X0123Y-0096D02*
X0143D01*
X0118Y-0091D02*
X0123Y-0096D01*
X011Y-0095D02*
X0118Y-0087D01*
X011Y-01255D02*
Y-0095D01*
X0117Y-01325D02*
X01255D01*
X011Y-01255D02*
X0117Y-01325D01*
X01402Y-01067D02*
X01422D01*
X01305Y-01165D02*
X01402Y-01067D01*
X01422D02*
X0143Y-0106D01*
X0118Y-0117D02*
X01182Y-01167D01*
X01302*
X01305Y-01165*
X0164Y-01425D02*
X01718Y-01346D01*
Y-01286D02*
X0172Y-01285D01*
X01718Y-01346D02*
Y-01286D01*
X00495Y-01405D02*
X00515Y-01425D01*
X0164*
X00495Y-01405D02*
Y-0134D01*
X0049Y-01135D02*
X00695Y-0134D01*
X0049Y-01135D02*
Y-00945D01*
X0013Y-00585D02*
X0049Y-00945D01*
X0013Y-00885D02*
X00495Y-0125D01*
Y-0134D02*
Y-0125D01*
G54D11*
X0013Y-00585D03*
G54D12*
X0013Y-00685D03*
Y-00785D03*
Y-00885D03*
X0143Y-0046D03*
Y-0056D03*
Y-0066D03*
Y-0076D03*
Y-0086D03*
Y-0096D03*
Y-0106D03*
X0173Y-0046D03*
Y-0056D03*
Y-0066D03*
Y-0076D03*
Y-0086D03*
Y-0096D03*
X0165Y-00155D03*
X0155D03*
X0145D03*
X00795Y-002D03*
X00695D03*
X00595D03*
X00795Y-0134D03*
X00695D03*
X00595D03*
G54D13*
X0173Y-0106D03*
X0175Y-00155D03*
X00495Y-002D03*
Y-0134D03*
G54D14*
X0125Y-00695D03*
Y-00595D03*
X01255Y-01325D03*
X01355D03*
G54D15*
X0125Y-00495D03*
G54D16*
X01455Y-01325D03*
G54D17*
X01305Y-01165D03*
Y-00865D03*
X0157Y-003D03*
X0127D03*
X0184Y-0041D03*
Y-0071D03*
X0118Y-0087D03*
Y-0117D03*
X019Y-0111D03*
Y-0081D03*
X0196Y-0041D03*
Y-0071D03*
G54D18*
X0172Y-01285D03*
X0182D03*
G54D19*
X0192Y-01285D03*
G54D20*
X0182Y-01285D03*
X0173Y-0076D03*
X01545Y-00155D03*
X0143Y-0066D03*
X0173Y-0106D03*
X0125Y-00695D03*
X00795Y-0134D03*
X0013Y-00685D03*
M02*