%TF.GenerationSoftware,Altium Limited,Altium Designer,23.11.1 (41)*%
G04 Layer_Physical_Order=1*
G04 Layer_Color=255*
%FSLAX45Y45*%
%MOMM*%
%TF.SameCoordinates,18DA1BFE-AB01-4B7C-B155-7CF3A37A3822*%
%TF.FilePolarity,Positive*%
%TF.FileFunction,Copper,L1,Top,Signal*%
%TF.Part,Single*%
G01*
G75*
%TA.AperFunction,ComponentPad*%
%ADD10R,1.20000X1.20000*%
%ADD11C,1.20000*%
%ADD12R,1.20000X1.20000*%
%ADD13R,1.50000X1.50000*%
%ADD14C,1.50000*%
%ADD15C,1.40000*%
%ADD16R,1.50000X1.50000*%
%ADD17R,1.60000X1.60000*%
%ADD18C,1.60000*%
D10*
X3175000Y-1257300D02*
D03*
D11*
Y-1511300D02*
D03*
Y-1765300D02*
D03*
X3441700Y-3365500D02*
D03*
X3187700D02*
D03*
D12*
X3695700D02*
D03*
D13*
X4394200Y-2692400D02*
D03*
X1257300Y-508000D02*
D03*
Y-3403600D02*
D03*
X4445000Y-393700D02*
D03*
D14*
X4394200Y-2438400D02*
D03*
Y-2184400D02*
D03*
Y-1930400D02*
D03*
Y-1676400D02*
D03*
Y-1422400D02*
D03*
Y-1168400D02*
D03*
X3632200Y-2692400D02*
D03*
Y-2438400D02*
D03*
Y-2184400D02*
D03*
Y-1930400D02*
D03*
Y-1676400D02*
D03*
Y-1422400D02*
D03*
Y-1168400D02*
D03*
X1511300Y-508000D02*
D03*
X1765300D02*
D03*
X2019300D02*
D03*
X1511300Y-3403600D02*
D03*
X1765300D02*
D03*
X2019300D02*
D03*
X3683000Y-393700D02*
D03*
X3937000D02*
D03*
X4191000D02*
D03*
X330200Y-2247900D02*
D03*
Y-1993900D02*
D03*
Y-1739900D02*
D03*
D15*
X4673600Y-1803400D02*
D03*
Y-1041400D02*
D03*
X4978400Y-1803400D02*
D03*
Y-1041400D02*
D03*
X4826000Y-2057400D02*
D03*
Y-2819400D02*
D03*
X3225800Y-762000D02*
D03*
X3987800D02*
D03*
X2997200Y-2971800D02*
D03*
Y-2209800D02*
D03*
X3314700Y-2197100D02*
D03*
Y-2959100D02*
D03*
D16*
X330200Y-1485900D02*
D03*
D17*
X4876800Y-3263900D02*
D03*
D18*
X4622800D02*
D03*
X4368800D02*
D03*
%TF.MD5,30dd7e81ef626a58d94003e1577ede33*%
M02*
