%FSTAX23Y23*%
%MOIN*%
%SFA1B1*%

%IPPOS*%
%ADD14C,0.047244*%
%ADD15R,0.047244X0.047244*%
%ADD16R,0.047244X0.047244*%
%ADD26R,0.067055X0.067055*%
%ADD27C,0.067055*%
%ADD28R,0.067055X0.067055*%
%ADD29C,0.063118*%
%ADD30C,0.070992*%
%ADD31R,0.070992X0.070992*%
%ADD32C,0.058000*%
%LNstrain_soldermask_top-1*%
%LPD*%
G54D14*
X0125Y-00695D03*
Y-00595D03*
X01255Y-01325D03*
X01355D03*
G54D15*
X0125Y-00495D03*
G54D16*
X01455Y-01325D03*
G54D26*
X0013Y-00585D03*
G54D27*
X0013Y-00685D03*
Y-00785D03*
Y-00885D03*
X0143Y-0046D03*
Y-0056D03*
Y-0066D03*
Y-0076D03*
Y-0086D03*
Y-0096D03*
Y-0106D03*
X0173Y-0046D03*
Y-0056D03*
Y-0066D03*
Y-0076D03*
Y-0086D03*
Y-0096D03*
X0165Y-00155D03*
X0155D03*
X0145D03*
X00795Y-002D03*
X00695D03*
X00595D03*
X00795Y-0134D03*
X00695D03*
X00595D03*
G54D28*
X0173Y-0106D03*
X0175Y-00155D03*
X00495Y-002D03*
Y-0134D03*
G54D29*
X01305Y-01165D03*
Y-00865D03*
X0157Y-003D03*
X0127D03*
X0184Y-0041D03*
Y-0071D03*
X0118Y-0087D03*
Y-0117D03*
X019Y-0111D03*
Y-0081D03*
X0196Y-0041D03*
Y-0071D03*
G54D30*
X0172Y-01285D03*
X0182D03*
G54D31*
X0192Y-01285D03*
G54D32*
X0182Y-01285D03*
X0173Y-0076D03*
X01545Y-00155D03*
X0143Y-0066D03*
X0173Y-0106D03*
X0125Y-00695D03*
X00795Y-0134D03*
X0013Y-00685D03*
M02*