G04*
G04 #@! TF.GenerationSoftware,Altium Limited,Altium Designer,23.11.1 (41)*
G04*
G04 Layer_Color=32896*
%FSLAX44Y44*%
%MOMM*%
G71*
G04*
G04 #@! TF.SameCoordinates,5E353D0A-FD7C-4BEC-B3A5-00601FCEE480*
G04*
G04*
G04 #@! TF.FilePolarity,Positive*
G04*
G01*
G75*
%ADD11C,0.2000*%
D11*
X207647Y-268315D02*
X214716Y-261245D01*
X207647Y-268315D02*
X205290Y-265958D01*
X204617Y-264612D01*
Y-263265D01*
X204954Y-262255D01*
X205627Y-260909D01*
X207310Y-259225D01*
X208657Y-258552D01*
X209667Y-258215D01*
X211013D01*
X212360Y-258889D01*
X214716Y-261245D01*
X203035Y-249564D02*
X198659Y-259326D01*
X208421Y-254950D01*
X205055Y-256297D02*
X201688Y-252930D01*
X194316Y-254984D02*
X201385Y-247914D01*
X194316Y-254984D02*
X196672Y-243201D01*
X189603Y-250271D02*
X196672Y-243201D01*
X187650Y-248318D02*
X194720Y-241248D01*
X181793Y-242460D02*
X186169Y-246837D01*
X193239Y-239767D01*
X188862Y-235391D01*
X189535Y-243470D02*
X186842Y-240777D01*
X180614Y-241282D02*
X187684Y-234212D01*
X183644Y-230173D01*
X170246Y-230913D02*
X177315Y-223844D01*
X170246Y-230913D02*
X167216Y-227884D01*
X166542Y-226537D01*
Y-225864D01*
X166879Y-224854D01*
X167552Y-224181D01*
X168562Y-223844D01*
X169236D01*
X170582Y-224517D01*
X173612Y-227547D01*
X171255Y-225190D02*
X172602Y-219131D01*
X163950Y-224618D02*
X169000Y-219569D01*
X169673Y-218222D01*
Y-216875D01*
X169000Y-215529D01*
X168327Y-214855D01*
X166980Y-214182D01*
X165634D01*
X164287Y-214855D01*
X159237Y-219905D01*
X157285Y-217953D02*
X164354Y-210883D01*
X151090Y-211758D02*
X162873Y-209402D01*
X155803Y-216471D02*
X151090Y-211758D01*
X162873Y-209402D02*
X158160Y-204689D01*
X143954Y-204621D02*
X151023Y-197552D01*
X143954Y-204621D02*
X140924Y-201592D01*
X140251Y-200245D01*
Y-199572D01*
X140587Y-198562D01*
X141260Y-197889D01*
X142270Y-197552D01*
X142944D01*
X144290Y-198225D01*
X147320Y-201255D01*
X144964Y-198898D02*
X146310Y-192839D01*
X216158Y-253071D02*
X221544Y-247684D01*
X222891Y-247011D01*
X223564Y-247011D01*
X224574Y-247348D01*
X225247Y-248021D01*
X225584Y-249031D01*
Y-249704D01*
X224911Y-251051D01*
X224237Y-251724D01*
X214340Y-251253D02*
X219390Y-246203D01*
X220063Y-244856D01*
Y-243510D01*
X219390Y-242163D01*
X218717Y-241490D01*
X217370Y-240817D01*
X216023D01*
X214677Y-241490D01*
X209627Y-246540D01*
X209358Y-232131D02*
X204981Y-241894D01*
X214744Y-237518D01*
X211378Y-238864D02*
X208011Y-235498D01*
X200639Y-237551D02*
X207708Y-230482D01*
X200639Y-237551D02*
X202995Y-225769D01*
X195926Y-232838D02*
X202995Y-225769D01*
X188418Y-225331D02*
X195488Y-218262D01*
X188418Y-225331D02*
X185389Y-222301D01*
X184715Y-220955D01*
Y-220281D01*
X185052Y-219272D01*
X185725Y-218598D01*
X186735Y-218262D01*
X187409D01*
X188755Y-218935D01*
X191785Y-221965D01*
X189428Y-219608D02*
X190775Y-213549D01*
X180103Y-217016D02*
X181113Y-217353D01*
X182460Y-217353D01*
X183470Y-217016D01*
X184816Y-216343D01*
X186500Y-214659D01*
X187173Y-213313D01*
X187509Y-212303D01*
Y-210956D01*
X187173Y-209946D01*
X185826Y-208600D01*
X184816Y-208263D01*
X183470D01*
X182460Y-208600D01*
X181113Y-209273D01*
X179430Y-210956D01*
X178757Y-212303D01*
X178420Y-213313D01*
Y-214659D01*
X178757Y-215669D01*
X180103Y-217016D01*
X175087Y-212000D02*
X182157Y-204930D01*
X175087Y-212000D02*
X172731Y-209643D01*
X172057Y-208297D01*
Y-206950D01*
X172394Y-205940D01*
X173067Y-204594D01*
X174751Y-202910D01*
X176097Y-202237D01*
X177107Y-201901D01*
X178454D01*
X179800Y-202574D01*
X182157Y-204930D01*
X168792Y-205705D02*
X175862Y-198635D01*
X168792Y-205705D02*
X165762Y-202675D01*
X165089Y-201328D01*
X165089Y-200655D01*
X165426Y-199645D01*
X166099Y-198972D01*
X167109Y-198635D01*
X167782D01*
X169129Y-199308D01*
X172159Y-202338D01*
X169802Y-199982D02*
X171148Y-193922D01*
X162497Y-199409D02*
X169566Y-192340D01*
X157649Y-191195D02*
X157312Y-192205D01*
Y-193552D01*
X157649Y-194562D01*
X158996Y-195908D01*
X160005Y-196245D01*
X161352D01*
X162362Y-195908D01*
X163709Y-195235D01*
X165392Y-193552D01*
X166065Y-192205D01*
X166402Y-191195D01*
X166402Y-189849D01*
X166065Y-188839D01*
X164719Y-187492D01*
X163709Y-187155D01*
X162362D01*
X161352Y-187492D01*
X160342Y-188502D01*
X162025Y-190185D02*
X160342Y-188502D01*
X154350Y-191263D02*
X159400Y-186213D01*
X160073Y-184866D01*
Y-183520D01*
X159400Y-182173D01*
X158726Y-181500D01*
X157380Y-180827D01*
X156033D01*
X154687Y-181500D01*
X149637Y-186550D01*
X143308Y-180221D02*
X147684Y-184597D01*
X154754Y-177528D01*
X150378Y-173151D01*
X151051Y-181231D02*
X148358Y-178537D01*
X137417Y-174329D02*
X149199Y-171973D01*
X142130Y-179042D02*
X137417Y-174329D01*
X149199Y-171973D02*
X144486Y-167260D01*
X130280Y-167192D02*
X137349Y-160123D01*
X130280Y-167192D02*
X127250Y-164163D01*
X126577Y-162816D01*
Y-162143D01*
X126913Y-161133D01*
X127587Y-160459D01*
X128597Y-160123D01*
X129270D01*
X130616Y-160796D01*
X133646Y-163826D01*
X131290Y-161469D02*
X132636Y-155410D01*
X227699Y-238837D02*
Y-240183D01*
X228372Y-241530D01*
X229719Y-242876D01*
X231065Y-243550D01*
X232412D01*
X233085Y-242876D01*
X233422Y-241866D01*
X233422Y-241193D01*
X233085Y-240183D01*
X231739Y-237490D01*
X231402Y-236480D01*
Y-235807D01*
X231739Y-234797D01*
X232749Y-233787D01*
X234095D01*
X235442Y-234460D01*
X236788Y-235807D01*
X237462Y-237153D01*
Y-238500D01*
X226790Y-225808D02*
X222414Y-235571D01*
X232176Y-231195D01*
X228810Y-232541D02*
X225443Y-229175D01*
X218071Y-231228D02*
X225140Y-224159D01*
X218071Y-231228D02*
X220427Y-219446D01*
X213358Y-226515D02*
X220427Y-219446D01*
X209049Y-222206D02*
X216118Y-215137D01*
X211405Y-224563D02*
X206692Y-219850D01*
X205851Y-219008D02*
X212920Y-211939D01*
X206053Y-205071D02*
X201676Y-214834D01*
X211439Y-210457D01*
X208072Y-211804D02*
X204706Y-208438D01*
X193967Y-203758D02*
X193630Y-204768D01*
Y-206115D01*
X193967Y-207125D01*
X195314Y-208471D01*
X196324Y-208808D01*
X197670Y-208808D01*
X198680Y-208471D01*
X200027Y-207798D01*
X201710Y-206115D01*
X202383Y-204768D01*
X202720Y-203758D01*
X202720Y-202412D01*
X202383Y-201402D01*
X201037Y-200055D01*
X200027Y-199718D01*
X198680D01*
X197670Y-200055D01*
X196660Y-201065D01*
X198343Y-202748D02*
X196660Y-201065D01*
X188648Y-201806D02*
X189658Y-202142D01*
X191005Y-202142D01*
X192015Y-201806D01*
X193361Y-201132D01*
X195044Y-199449D01*
X195718Y-198102D01*
X196054Y-197093D01*
Y-195746D01*
X195718Y-194736D01*
X194371Y-193389D01*
X193361Y-193053D01*
X192015D01*
X191005Y-193389D01*
X189658Y-194063D01*
X187975Y-195746D01*
X187302Y-197092D01*
X186965Y-198102D01*
Y-199449D01*
X187302Y-200459D01*
X188648Y-201806D01*
X174711Y-184502D02*
X174374Y-185512D01*
Y-186859D01*
X174711Y-187868D01*
X176057Y-189215D01*
X177068Y-189552D01*
X178414D01*
X179424Y-189215D01*
X180771Y-188542D01*
X182454Y-186859D01*
X183127Y-185512D01*
X183464Y-184502D01*
X183464Y-183155D01*
X183127Y-182146D01*
X181780Y-180799D01*
X180771Y-180462D01*
X179424D01*
X178414Y-180799D01*
X169022Y-182179D02*
X170032Y-182516D01*
X171378Y-182516D01*
X172388Y-182179D01*
X173735Y-181506D01*
X175418Y-179823D01*
X176091Y-178476D01*
X176428Y-177466D01*
X176428Y-176120D01*
X176091Y-175110D01*
X174745Y-173763D01*
X173735Y-173426D01*
X172388D01*
X171378Y-173763D01*
X170032Y-174436D01*
X168348Y-176120D01*
X167675Y-177466D01*
X167338Y-178476D01*
Y-179823D01*
X167675Y-180833D01*
X169022Y-182179D01*
X164006Y-177163D02*
X171075Y-170094D01*
X164006Y-177163D02*
X160976Y-174133D01*
X160303Y-172787D01*
X160303Y-172113D01*
X160639Y-171103D01*
X161313Y-170430D01*
X162322Y-170094D01*
X162996D01*
X164342Y-170767D01*
X167372Y-173797D01*
X165016Y-171440D02*
X166362Y-165381D01*
X155354Y-168511D02*
X162423Y-161442D01*
X157710Y-170868D02*
X152997Y-166155D01*
X147779Y-160937D02*
X152156Y-165313D01*
X159225Y-158244D01*
X154849Y-153867D01*
X155522Y-161947D02*
X152829Y-159254D01*
X142898Y-154036D02*
Y-155382D01*
X143571Y-156729D01*
X144918Y-158075D01*
X146264Y-158749D01*
X147611D01*
X148284Y-158075D01*
X148621Y-157065D01*
X148621Y-156392D01*
X148284Y-155382D01*
X146938Y-152689D01*
X146601Y-151679D01*
Y-151006D01*
X146938Y-149996D01*
X147948Y-148986D01*
X149294D01*
X150641Y-149659D01*
X151987Y-151006D01*
X152661Y-152352D01*
Y-153699D01*
X132395Y-145552D02*
X139464Y-138483D01*
X134751Y-147909D02*
X130038Y-143196D01*
M02*
